g barracks_door_2
v 1.332268E-15 1.654361E-23 0
v -1.698253 -3.679288E-16 0
v -1.698253 3.37884 0
v 1.332268E-15 3.378875 0
v 1.332268E-15 1.654361E-23 -0.1184692
v 1.332268E-15 3.378875 -0.1184692
v -1.698253 3.37884 -0.1184692
v -1.698253 -3.679288E-16 -0.1184692
v -1.698253 -3.679288E-16 0
v 1.332268E-15 1.654361E-23 0
v 1.332268E-15 1.654361E-23 -0.1184692
v -1.698253 -3.679288E-16 -0.1184692
v -1.698253 3.37884 0
v -1.698253 -3.679288E-16 0
v -1.698253 -3.679288E-16 -0.1184692
v -1.698253 3.37884 -0.1184692
v 1.332268E-15 3.378875 0
v -1.698253 3.37884 0
v -1.698253 3.37884 -0.1184692
v 1.332268E-15 3.378875 -0.1184692
v 1.332268E-15 1.654361E-23 0
v 1.332268E-15 3.378875 0
v 1.332268E-15 3.378875 -0.1184692
v 1.332268E-15 1.654361E-23 -0.1184692
vt 0.01451087 0.004887283
vt 0.2620904 0.004887283
vt 0.2620904 0.41783
vt 0.01451087 0.4178344
vt 0.01451087 0.004887283
vt 0.01451087 0.4178344
vt 0.2620904 0.41783
vt 0.2620904 0.004887283
vt 0.02670681 0.03896722
vt 0.08831441 0.03896722
vt 0.08831441 0.1005749
vt 0.02670681 0.1005749
vt 0.2544412 0.03896722
vt 0.2596077 0.03896722
vt 0.2596077 0.1005749
vt 0.2544412 0.1005749
vt 0.02670681 0.03896722
vt 0.08831441 0.03896722
vt 0.08831441 0.1005749
vt 0.02670681 0.1005749
vt 0.02670681 0.03896722
vt 0.08831441 0.03896722
vt 0.08831441 0.1005749
vt 0.02670681 0.1005749
vn 0 0 1
vn 0 0 1
vn 0 0 1
vn 0 0 1
vn 0 0 -1
vn 0 0 -1
vn 0 0 -1
vn 0 0 -1
vn 0 -1 0
vn 0 -1 0
vn 0 -1 0
vn 0 -1 0
vn -1 0 0
vn -1 0 0
vn -1 0 0
vn -1 0 0
vn -2.077779E-05 1 0
vn -2.077779E-05 1 0
vn -2.077779E-05 1 0
vn -2.077779E-05 1 0
vn 1 0 0
vn 1 0 0
vn 1 0 0
vn 1 0 0
f 3/3/3 2/2/2 1/1/1
f 4/4/4 3/3/3 1/1/1
f 7/7/7 6/6/6 5/5/5
f 8/8/8 7/7/7 5/5/5
f 11/11/11 10/10/10 9/9/9
f 12/12/12 11/11/11 9/9/9
f 15/15/15 14/14/14 13/13/13
f 16/16/16 15/15/15 13/13/13
f 19/19/19 18/18/18 17/17/17
f 20/20/20 19/19/19 17/17/17
f 23/23/23 22/22/22 21/21/21
f 24/24/24 23/23/23 21/21/21
