g barracks_top
v 0 0.3617287 0
v 5.31005 -1.614019 -1.907349E-06
v 5.310048 -1.614019 7.46137
v 0 0.3617287 7.461368
v 0 0 0
v 0 0 7.461368
v 5.310048 -1.975746 7.46137
v 5.31005 -1.975746 -1.907349E-06
v 5.310048 -1.975746 14.92274
v 0 0 14.92274
v 5.310048 -1.975746 22.3841
v 0 0 22.3841
v 0 0 22.3841
v 0 0.3617287 22.3841
v 5.310048 -1.614019 22.3841
v 5.310048 -1.975746 22.3841
v 5.310048 -1.975746 7.46137
v 5.310048 -1.614019 7.46137
v 5.31005 -1.614019 -1.907349E-06
v 5.31005 -1.975746 -1.907349E-06
v 5.310048 -1.975746 14.92274
v 5.310048 -1.614019 14.92274
v 5.310048 -1.975746 22.3841
v 5.310048 -1.614019 22.3841
v 5.31005 -1.975746 -1.907349E-06
v 5.31005 -1.614019 -1.907349E-06
v 0 0.3617287 0
v 0 0 0
v 0 0.3617287 14.92274
v 5.310048 -1.614019 14.92274
v 5.310048 -1.614019 22.3841
v 0 0.3617287 22.3841
v 0 0.3617287 7.461368
v 5.310048 -1.614019 7.46137
v 5.310048 -1.614019 14.92274
v 0 0.3617287 14.92274
v 0 0.3617287 0
v 0 0.3617287 7.461368
v -5.310048 -1.614019 7.46137
v -5.31005 -1.614019 -1.907349E-06
v 0 0 0
v -5.31005 -1.975746 -1.907349E-06
v -5.310048 -1.975746 7.46137
v 0 0 7.461368
v -5.310048 -1.975746 14.92274
v 0 0 14.92274
v -5.310048 -1.975746 22.3841
v 0 0 22.3841
v 0 0 22.3841
v -5.310048 -1.975746 22.3841
v -5.310048 -1.614019 22.3841
v 0 0.3617287 22.3841
v -5.310048 -1.975746 7.46137
v -5.31005 -1.975746 -1.907349E-06
v -5.31005 -1.614019 -1.907349E-06
v -5.310048 -1.614019 7.46137
v -5.310048 -1.975746 14.92274
v -5.310048 -1.614019 14.92274
v -5.310048 -1.975746 22.3841
v -5.310048 -1.614019 22.3841
v -5.31005 -1.975746 -1.907349E-06
v 0 0 0
v 0 0.3617287 0
v -5.31005 -1.614019 -1.907349E-06
v 0 0.3617287 14.92274
v 0 0.3617287 22.3841
v -5.310048 -1.614019 22.3841
v -5.310048 -1.614019 14.92274
v 0 0.3617287 7.461368
v 0 0.3617287 14.92274
v -5.310048 -1.614019 14.92274
v -5.310048 -1.614019 7.46137
vt 0.8190306 0.6171485
vt 0.8190306 0.5317621
vt 0.1482529 0.5317621
vt 0.1482529 0.6171485
vt 0.05096808 0.4884807
vt 0.05096808 0.4943834
vt 0.05487475 0.4943834
vt 0.05487475 0.4884807
vt 0.05487475 0.5002861
vt 0.05096808 0.5002861
vt 0.05487475 0.5061888
vt 0.05096808 0.5061888
vt 0.155366 0.4874853
vt 0.1552341 0.4874853
vt 0.1559543 0.4894208
vt 0.1560861 0.4894208
vt 0.05992353 0.4944469
vt 0.06061056 0.4944469
vt 0.06061056 0.488421
vt 0.05992353 0.488421
vt 0.05992353 0.500473
vt 0.06061056 0.500473
vt 0.05992353 0.5064989
vt 0.06061056 0.5064989
vt 0.1551728 0.4874853
vt 0.1550409 0.4874853
vt 0.1543208 0.4894208
vt 0.1544526 0.4894208
vt 0.8190306 0.6171484
vt 0.8190306 0.5317619
vt 0.1482529 0.5317622
vt 0.1482529 0.6171484
vt 0.8190306 0.6171485
vt 0.8190306 0.5317621
vt 0.1482529 0.5317619
vt 0.1482529 0.6171484
vt 0.8190306 0.6171485
vt 0.1482529 0.6171485
vt 0.1482529 0.5317621
vt 0.8190306 0.5317621
vt 0.05096808 0.4884807
vt 0.05487475 0.4884807
vt 0.05487475 0.4943834
vt 0.05096808 0.4943834
vt 0.05487475 0.5002861
vt 0.05096808 0.5002861
vt 0.05487475 0.5061888
vt 0.05096808 0.5061888
vt 0.155366 0.4874853
vt 0.1560861 0.4894208
vt 0.1559543 0.4894208
vt 0.1552341 0.4874853
vt 0.05992353 0.4944469
vt 0.05992353 0.488421
vt 0.06061056 0.488421
vt 0.06061056 0.4944469
vt 0.05992353 0.500473
vt 0.06061056 0.500473
vt 0.05992353 0.5064989
vt 0.06061056 0.5064989
vt 0.1551728 0.4874853
vt 0.1544526 0.4894208
vt 0.1543208 0.4894208
vt 0.1550409 0.4874853
vt 0.8190306 0.6171484
vt 0.1482529 0.6171484
vt 0.1482529 0.5317622
vt 0.8190306 0.5317619
vt 0.8190306 0.6171485
vt 0.1482529 0.6171484
vt 0.1482529 0.5317619
vt 0.8190306 0.5317621
vn 0.3487206 0.9372267 0
vn 0.3487206 0.9372267 0
vn 0.3487206 0.9372268 0
vn 0.3487206 0.9372267 0
vn -0.3487206 -0.9372268 0
vn -0.3487206 -0.9372268 0
vn -0.3487206 -0.9372268 0
vn -0.3487206 -0.9372268 0
vn -0.3487207 -0.9372267 0
vn -0.3487207 -0.9372267 0
vn -0.3487207 -0.9372267 0
vn -0.3487207 -0.9372267 0
vn 0 0 1
vn 0 0 1
vn 0 0 1
vn 0 0 1
vn 1 0 0
vn 1 0 0
vn 1 0 0
vn 1 0 0
vn 1 0 0
vn 1 0 0
vn 1 0 0
vn 1 0 0
vn 0 0 -1
vn 0 0 -1
vn 0 0 -1
vn 0 0 -1
vn 0.3487207 0.9372267 0
vn 0.3487207 0.9372267 0
vn 0.3487207 0.9372267 0
vn 0.3487207 0.9372267 0
vn 0.3487207 0.9372267 0
vn 0.3487207 0.9372267 0
vn 0.3487207 0.9372267 0
vn 0.3487207 0.9372267 0
vn -0.3487206 0.9372267 0
vn -0.3487206 0.9372267 0
vn -0.3487206 0.9372268 0
vn -0.3487206 0.9372267 0
vn 0.3487206 -0.9372268 0
vn 0.3487206 -0.9372268 0
vn 0.3487206 -0.9372268 0
vn 0.3487206 -0.9372268 0
vn 0.3487207 -0.9372267 0
vn 0.3487207 -0.9372267 0
vn 0.3487207 -0.9372267 0
vn 0.3487207 -0.9372267 0
vn 0 0 1
vn 0 0 1
vn 0 0 1
vn 0 0 1
vn -1 0 0
vn -1 0 0
vn -1 0 0
vn -1 0 0
vn -1 0 0
vn -1 0 0
vn -1 0 0
vn -1 0 0
vn 0 0 -1
vn 0 0 -1
vn 0 0 -1
vn 0 0 -1
vn -0.3487207 0.9372267 0
vn -0.3487207 0.9372267 0
vn -0.3487207 0.9372267 0
vn -0.3487207 0.9372267 0
vn -0.3487207 0.9372267 0
vn -0.3487207 0.9372267 0
vn -0.3487207 0.9372267 0
vn -0.3487207 0.9372267 0
f 3/3/3 2/2/2 1/1/1
f 4/4/4 3/3/3 1/1/1
f 7/7/7 6/6/6 5/5/5
f 8/8/8 7/7/7 5/5/5
f 7/7/7 9/9/9 6/6/6
f 9/9/9 10/10/10 6/6/6
f 9/9/9 11/11/11 10/10/10
f 11/11/11 12/12/12 10/10/10
f 15/15/15 14/14/14 13/13/13
f 16/16/16 15/15/15 13/13/13
f 19/19/19 18/18/18 17/17/17
f 20/20/20 19/19/19 17/17/17
f 17/17/17 18/18/18 21/21/21
f 18/18/18 22/22/22 21/21/21
f 21/21/21 22/22/22 23/23/23
f 22/22/22 24/24/24 23/23/23
f 27/27/27 26/26/26 25/25/25
f 28/28/28 27/27/27 25/25/25
f 31/31/31 30/30/30 29/29/29
f 32/32/32 31/31/31 29/29/29
f 35/35/35 34/34/34 33/33/33
f 36/36/36 35/35/35 33/33/33
f 39/39/39 38/38/38 37/37/37
f 40/40/40 39/39/39 37/37/37
f 43/43/43 42/42/42 41/41/41
f 44/44/44 43/43/43 41/41/41
f 45/45/45 43/43/43 44/44/44
f 46/46/46 45/45/45 44/44/44
f 47/47/47 45/45/45 46/46/46
f 48/48/48 47/47/47 46/46/46
f 51/51/51 50/50/50 49/49/49
f 52/52/52 51/51/51 49/49/49
f 55/55/55 54/54/54 53/53/53
f 56/56/56 55/55/55 53/53/53
f 56/56/56 53/53/53 57/57/57
f 58/58/58 56/56/56 57/57/57
f 58/58/58 57/57/57 59/59/59
f 60/60/60 58/58/58 59/59/59
f 63/63/63 62/62/62 61/61/61
f 64/64/64 63/63/63 61/61/61
f 67/67/67 66/66/66 65/65/65
f 68/68/68 67/67/67 65/65/65
f 71/71/71 70/70/70 69/69/69
f 72/72/72 71/71/71 69/69/69
