g Building_House_top
v 8.499226 0.06684494 3.892361
v 8.499226 -0.5758858 3.892361
v 8.499226 -0.5758858 4.56419
v 8.499226 0.06684494 4.56419
v 8.499226 0.2474632 3.750332
v 8.499226 0.06684494 3.892361
v 8.499226 0.06684494 4.56419
v 8.499226 -0.5758858 3.892361
v 8.499226 -0.6533546 3.892361
v 8.499226 -1.309475 3.892361
v 8.499226 -1.490086 3.750332
v 8.499226 -1.309475 4.56419
v 8.499226 0.2474632 5.481777
v 8.499226 0.06684494 4.667904
v 8.499226 0.06684494 5.339733
v 8.499226 -0.5758858 5.339733
v 8.499226 -0.6533546 5.339733
v 8.499226 -1.309475 5.339733
v 8.499226 -1.490086 5.481777
v 8.499226 -1.309475 4.667904
v 8.306034 -1.490086 5.481777
v 8.306034 0.2474632 5.481777
v 8.499226 0.2474632 5.481777
v 8.499226 -1.490086 5.481777
v 8.499226 -1.490086 3.750332
v 8.499226 0.2474632 3.750332
v 8.306034 0.2474632 3.750332
v 8.306034 -1.490086 3.750332
v 8.499226 -0.6533546 3.892361
v 8.499226 -1.309475 3.892361
v 8.499226 -1.309475 4.56419
v 8.499226 -0.6533546 4.56419
v 8.499226 -0.5758858 3.892361
v 8.499226 -0.6533546 3.892361
v 8.499226 -0.6533546 4.56419
v 8.499226 -0.5758858 4.56419
v 8.499226 -0.5758858 4.667904
v 8.499226 0.06684494 4.667904
v 8.499226 0.06684494 4.56419
v 8.499226 -0.6533546 4.667904
v 8.499226 -0.5758858 5.339733
v 8.499226 -0.6533546 5.339733
v 8.499226 -1.309475 4.56419
v 8.499226 -1.309475 4.667904
v 8.499226 -0.5758858 4.667904
v 8.499226 -0.5758858 5.339733
v 8.499226 0.06684494 5.339733
v 8.499226 0.06684494 4.667904
v 8.499226 -1.309475 4.667904
v 8.499226 -1.309475 5.339733
v 8.499226 -0.6533546 5.339733
v 8.499226 -0.6533546 4.667904
v 8.306034 0.2474632 3.750332
v 8.499226 0.2474632 3.750332
v 8.499226 0.2474632 5.481777
v 8.306034 0.2474632 5.481777
v 8.306034 -1.490086 3.750332
v 8.306034 -1.490086 5.481777
v 8.499226 -1.490086 5.481777
v 8.499226 -1.490086 3.750332
v -8.590664 -2.989368 -6.592167
v -6.013897 -0.5263176 -6.592167
v -5.694523 -0.8581657 -6.592167
v -3.437138 -2.989368 -6.592167
v -6.013897 -0.9146767 -10.45313
v -8.163975 -2.96986 -10.45313
v -3.863827 -2.96986 -10.45313
v -5.694523 -0.8581657 -6.592167
v -6.013897 -0.5263176 -6.592167
v -6.013897 -0.5263176 -10.91678
v -3.437138 -2.989368 -6.592167
v -3.437138 -2.989368 -10.91678
v -8.590664 -2.989368 -10.91678
v -6.013897 -0.5263176 -10.91678
v -6.013897 -0.5263176 -6.592167
v -8.590664 -2.989368 -6.592167
v -8.663563 -2.989368 -1.855854
v -2.209324 3.27618 4.470913
v -2.212536 3.27618 -6.592579
v -8.273113 -2.93536 -1.319233
v -8.273113 2.798763 4.470913
v -8.273113 -2.93536 10.26107
v 8.764217 3.27618 4.470913
v 8.764217 -2.989368 -1.855854
v 8.764217 -2.989368 -1.242664
v 8.764217 2.692196 4.464596
v 8.764217 -2.989368 10.13301
v 8.764217 -2.989368 10.7977
v -8.663563 -2.989368 10.7977
v -2.209324 3.27618 4.470913
v 8.764217 3.27618 4.470913
v 8.764217 -2.989368 10.7977
v -8.663563 3.27618 4.470913
v -2.209324 3.27618 4.470913
v -8.663563 3.27618 4.470913
v -8.663563 -2.989368 -1.855854
v 8.764217 -2.989368 -1.855854
v 8.764217 3.27618 4.470913
v 4.087414 -2.989368 -1.855854
v -2.212536 3.27618 -6.592579
v -6.013897 -0.5263176 -6.592167
v -5.694523 -0.8581657 -6.592167
v -2.238056 2.689541 -6.592533
v 4.114246 -2.989368 -6.592579
v 3.503269 -2.989368 -6.592548
v 4.087414 -2.989368 -1.855854
v -2.209324 3.27618 4.470913
v -2.212536 3.27618 -6.592579
v 4.114246 -2.989368 -6.592579
v -5.694523 -0.8581657 -6.148075
v -3.437138 -2.989368 -6.148075
v 3.503269 -2.989368 -6.148441
v -2.238056 2.689541 -6.148441
v -5.694523 -0.8581657 -6.592167
v -5.694523 -0.8581657 -6.148075
v -2.238056 2.689541 -6.148441
v -2.238056 2.689541 -6.592533
v -2.238056 2.689541 -6.592533
v -2.238056 2.689541 -6.148441
v 3.503269 -2.989368 -6.148441
v 3.503269 -2.989368 -6.592548
v -3.437138 -2.989368 -6.592167
v -3.437138 -2.989368 -6.148075
v -5.694523 -0.8581657 -6.148075
v -5.694523 -0.8581657 -6.592167
v -6.013897 -0.5263176 -10.91678
v -6.013897 -0.9146767 -10.91678
v -3.863827 -2.96986 -10.91678
v -3.437138 -2.989368 -10.91678
v -8.590664 -2.989368 -10.91678
v -8.163975 -2.96986 -10.91678
v -6.013897 -0.9146767 -10.91678
v -6.013897 -0.9146767 -10.45313
v -3.863827 -2.96986 -10.45313
v -3.863827 -2.96986 -10.91678
v -8.163975 -2.96986 -10.91678
v -8.163975 -2.96986 -10.45313
v -6.013897 -0.9146767 -10.45313
v -6.013897 -0.9146767 -10.91678
v 8.306034 -2.989368 -1.242664
v 8.306034 -2.989368 10.13301
v 8.306034 2.692196 4.464596
v 8.764217 -2.989368 -1.242664
v 8.306034 -2.989368 -1.242664
v 8.306034 2.692196 4.464596
v 8.764217 2.692196 4.464596
v 8.764217 2.692196 4.464596
v 8.306034 2.692196 4.464596
v 8.306034 -2.989368 10.13301
v 8.764217 -2.989368 10.13301
v -8.663563 -2.989368 10.7977
v -8.663563 -2.93536 10.26107
v -8.663563 2.798763 4.470913
v -8.663563 3.27618 4.470913
v -8.663563 -2.93536 -1.319233
v -8.663563 -2.989368 -1.855854
v -8.663563 -2.93536 10.26107
v -8.273113 -2.93536 10.26107
v -8.273113 2.798763 4.470913
v -8.663563 2.798763 4.470913
v -8.663563 2.798763 4.470913
v -8.273113 2.798763 4.470913
v -8.273113 -2.93536 -1.319233
v -8.663563 -2.93536 -1.319233
v -3.285107 -2.900455 -1.747471
v -3.285107 -2.900455 -6.512714
v 4.114811 -2.900455 -6.512714
v 4.114811 -2.900455 -1.747471
v -8.761997 -2.900455 -6.512714
v -8.761997 -2.900455 -1.747471
v -3.285107 -2.900455 -10.78049
v -8.761997 -2.900455 -10.78049
v -3.285107 -2.900455 10.74704
v 4.114811 -2.900455 10.74704
v 8.806011 -2.900455 10.74704
v 8.806011 -2.900455 -1.747471
v -8.761997 -2.900455 10.74704
v 4.378323 -2.900455 -2.01096
v 4.378323 -2.900455 -6.776203
v 9.069523 -2.900455 -2.01096
v 9.069523 -2.900455 11.04398
v 4.114811 -2.900455 11.04398
v -3.285107 -2.900455 11.04398
v -9.069523 -2.900455 11.04398
v -9.069523 -2.900455 -1.747471
v -9.069523 -2.900455 -6.512714
v -3.021595 -2.900455 -11.04398
v -3.021595 -2.900455 -6.776203
v -9.069523 -2.900455 -11.04398
v 4.378323 -3.27618 -2.01096
v 4.378323 -2.900455 -2.01096
v 4.378323 -2.900455 -6.776203
v 4.378323 -3.27618 -6.776203
v 9.069523 -2.900455 -2.01096
v 4.378323 -2.900455 -2.01096
v 4.378323 -3.27618 -2.01096
v 9.069523 -3.27618 -2.01096
v 9.069523 -3.27618 11.04398
v 9.069523 -2.900455 11.04398
v 9.069523 -2.900455 -2.01096
v 9.069523 -3.27618 -2.01096
v 9.069523 -2.900455 11.04398
v 9.069523 -3.27618 11.04398
v 4.114811 -3.27618 11.04398
v 4.114811 -2.900455 11.04398
v -3.285107 -3.27618 11.04398
v -3.285107 -2.900455 11.04398
v -9.069523 -3.27618 11.04398
v -9.069523 -2.900455 11.04398
v -9.069523 -2.900455 -1.747471
v -9.069523 -2.900455 11.04398
v -9.069523 -3.27618 11.04398
v -9.069523 -3.27618 -1.747471
v -9.069523 -3.27618 -6.512714
v -9.069523 -2.900455 -6.512714
v -9.069523 -3.27618 -11.04398
v -9.069523 -2.900455 -11.04398
v -3.021595 -2.900455 -11.04398
v -9.069523 -2.900455 -11.04398
v -9.069523 -3.27618 -11.04398
v -3.021595 -3.27618 -11.04398
v -3.021595 -2.900455 -6.776203
v -3.021595 -2.900455 -11.04398
v -3.021595 -3.27618 -11.04398
v -3.021595 -3.27618 -6.776203
v 4.378323 -3.27618 -6.776203
v 4.378323 -2.900455 -6.776203
v -3.021595 -2.900455 -6.776203
v -3.021595 -3.27618 -6.776203
v 4.114811 -3.27618 -1.747471
v 4.378323 -3.27618 -2.01096
v 4.378323 -3.27618 -6.776203
v 4.114811 -3.27618 -6.512714
v 8.820385 -3.27618 -1.747471
v 9.069523 -3.27618 -2.01096
v 8.820385 -3.27618 10.74704
v 9.069523 -3.27618 11.04398
v 4.114811 -3.27618 10.74704
v 4.114811 -3.27618 11.04398
v -3.285107 -3.27618 10.74704
v -3.285107 -3.27618 11.04398
v -8.761997 -3.27618 10.74704
v -9.069523 -3.27618 11.04398
v -8.761997 -3.27618 -1.747471
v -9.069523 -3.27618 -1.747471
v -8.761997 -3.27618 -6.512714
v -9.069523 -3.27618 -6.512714
v -8.761997 -3.27618 -10.78049
v -9.069523 -3.27618 -11.04398
v -3.285107 -3.27618 -10.78049
v -3.021595 -3.27618 -11.04398
v -3.285107 -3.27618 -6.512714
v -3.021595 -3.27618 -6.776203
vt 0.1359991 0.4760238
vt 0.1359991 0.4760238
vt 0.1359991 0.4760238
vt 0.1359991 0.4760238
vt 0.3587078 0.06611087
vt 0.3587078 0.06611087
vt 0.3587078 0.06611087
vt 0.3587078 0.06611087
vt 0.3587078 0.06611087
vt 0.3587078 0.06611087
vt 0.3587078 0.06611087
vt 0.3587078 0.06611087
vt 0.3587078 0.06611087
vt 0.3587078 0.06611087
vt 0.3587078 0.06611087
vt 0.3587078 0.06611087
vt 0.3587078 0.06611087
vt 0.3587078 0.06611087
vt 0.3587078 0.06611087
vt 0.3587078 0.06611087
vt 0.3288573 0.06322212
vt 0.3288573 0.06322212
vt 0.3288573 0.06322212
vt 0.3288573 0.06322212
vt 0.3288573 0.06322212
vt 0.3288573 0.06322212
vt 0.3288574 0.06322212
vt 0.3288574 0.06322212
vt 0.1359991 0.4760238
vt 0.1359991 0.4760238
vt 0.1359991 0.4760238
vt 0.1359991 0.4760238
vt 0.4166354 0.06288647
vt 0.4166354 0.06288647
vt 0.4166354 0.06288647
vt 0.4166354 0.06288647
vt 0.4166354 0.06288647
vt 0.4166354 0.06288647
vt 0.4166354 0.06288647
vt 0.4166354 0.06288647
vt 0.4166354 0.06288647
vt 0.4166354 0.06288647
vt 0.4166354 0.06288647
vt 0.4166354 0.06288647
vt 0.1359991 0.4760238
vt 0.1359991 0.4760238
vt 0.1359991 0.4760238
vt 0.1359991 0.4760238
vt 0.1359991 0.4760238
vt 0.1359991 0.4760238
vt 0.1359991 0.4760238
vt 0.1359991 0.4760238
vt 0.4189489 0.0642251
vt 0.4189489 0.0642251
vt 0.4189489 0.06422511
vt 0.4189489 0.06422511
vt 0.298044 0.06322212
vt 0.298044 0.06322212
vt 0.298044 0.06322212
vt 0.298044 0.06322212
vt 0.2931296 0.2680907
vt 0.2931296 0.2680907
vt 0.2931296 0.2680907
vt 0.2931296 0.2680907
vt 0.2590035 0.3305634
vt 0.2590035 0.3305634
vt 0.2590035 0.3305634
vt 0.2628302 0.2667733
vt 0.2628302 0.2667733
vt 0.2628303 0.2667733
vt 0.2628302 0.2667733
vt 0.2628303 0.2667733
vt 0.2931296 0.2680907
vt 0.2931296 0.2680907
vt 0.2931296 0.2680907
vt 0.2931296 0.2680907
vt 0.2931296 0.2680907
vt 0.2931296 0.2680907
vt 0.2931296 0.2680907
vt 0.2635736 0.3305634
vt 0.2635736 0.3305634
vt 0.2635736 0.3305634
vt 0.2378003 0.2667733
vt 0.2378003 0.2667733
vt 0.2378003 0.2667733
vt 0.2378003 0.2667733
vt 0.2378003 0.2667733
vt 0.2378003 0.2667733
vt 0.2628302 0.2667733
vt 0.2628303 0.2667733
vt 0.2628303 0.2667733
vt 0.2628302 0.2667733
vt 0.2628303 0.2667733
vt 0.2931296 0.2680907
vt 0.2931296 0.2680907
vt 0.2931296 0.2680907
vt 0.2931296 0.2680907
vt 0.2931296 0.2680907
vt 0.2931296 0.2680907
vt 0.2378003 0.2667733
vt 0.2378003 0.2667733
vt 0.2378003 0.2667733
vt 0.2378003 0.2667733
vt 0.2378003 0.2667733
vt 0.2378003 0.2667733
vt 0.2628302 0.2667733
vt 0.2628302 0.2667733
vt 0.2628302 0.2667733
vt 0.2628302 0.2667733
vt 0.2590035 0.3305634
vt 0.2590035 0.3305634
vt 0.2590035 0.3305634
vt 0.2590035 0.3305634
vt 0.2061835 0.2667733
vt 0.2061835 0.2667733
vt 0.2061835 0.2667733
vt 0.2061835 0.2667733
vt 0.2061835 0.2667733
vt 0.2061835 0.2667733
vt 0.2061835 0.2667733
vt 0.2061835 0.2667733
vt 0.2680997 0.2680907
vt 0.2680997 0.2680907
vt 0.2680997 0.2680907
vt 0.2680997 0.2680907
vt 0.2378003 0.2667733
vt 0.2378003 0.2667733
vt 0.2378003 0.2667733
vt 0.2378003 0.2667733
vt 0.2378003 0.2667733
vt 0.2378003 0.2667733
vt 0.2061835 0.2667733
vt 0.2061835 0.2667733
vt 0.2061835 0.2667733
vt 0.2061835 0.2667733
vt 0.2061835 0.2667733
vt 0.2061835 0.2667733
vt 0.2061835 0.2667733
vt 0.2061835 0.2667733
vt 0.2590035 0.3305634
vt 0.2590035 0.3305634
vt 0.2590035 0.3305634
vt 0.2061835 0.2667733
vt 0.2061835 0.2667733
vt 0.2061835 0.2667733
vt 0.2061835 0.2667733
vt 0.2061835 0.2667733
vt 0.2061835 0.2667733
vt 0.2061835 0.2667733
vt 0.2061835 0.2667733
vt 0.2378003 0.2667733
vt 0.2378003 0.2667733
vt 0.2378003 0.2667733
vt 0.2378003 0.2667733
vt 0.2378003 0.2667733
vt 0.2378003 0.2667733
vt 0.2061835 0.2667733
vt 0.2061835 0.2667733
vt 0.2061835 0.2667733
vt 0.2061835 0.2667733
vt 0.2061835 0.2667733
vt 0.2061835 0.2667733
vt 0.2061835 0.2667733
vt 0.2061835 0.2667733
vt 0.3355017 0.4777974
vt 0.3355017 0.4777974
vt 0.3355017 0.4777974
vt 0.3355017 0.4777974
vt 0.3355017 0.4777974
vt 0.3355017 0.4777974
vt 0.3355017 0.4777974
vt 0.3355017 0.4777974
vt 0.3355017 0.4777974
vt 0.3355017 0.4777974
vt 0.3355017 0.4777974
vt 0.3355017 0.4777974
vt 0.3355017 0.4777974
vt 0.3355017 0.4777974
vt 0.3355017 0.4777974
vt 0.3355017 0.4777974
vt 0.3355017 0.4777974
vt 0.3355017 0.4777974
vt 0.3355017 0.4777974
vt 0.3355017 0.4777974
vt 0.3355017 0.4777974
vt 0.3355017 0.4777974
vt 0.3355017 0.4777974
vt 0.3355017 0.4777974
vt 0.3355017 0.4777974
vt 0.263851 0.4789169
vt 0.2638509 0.4789169
vt 0.2638509 0.4789169
vt 0.263851 0.4789169
vt 0.3007958 0.4789169
vt 0.3007958 0.4789169
vt 0.3007959 0.4789169
vt 0.3007959 0.4789169
vt 0.263851 0.4789169
vt 0.263851 0.4789169
vt 0.263851 0.4789169
vt 0.263851 0.4789169
vt 0.3007959 0.4789169
vt 0.3007958 0.4789169
vt 0.3007958 0.4789169
vt 0.3007959 0.4789169
vt 0.3007958 0.4789169
vt 0.3007959 0.4789169
vt 0.3007958 0.4789169
vt 0.3007959 0.4789169
vt 0.263851 0.4789169
vt 0.263851 0.4789169
vt 0.263851 0.4789169
vt 0.263851 0.4789169
vt 0.263851 0.4789169
vt 0.263851 0.4789169
vt 0.263851 0.4789169
vt 0.263851 0.4789169
vt 0.3007958 0.4789169
vt 0.3007958 0.4789169
vt 0.3007958 0.4789169
vt 0.3007958 0.4789169
vt 0.2638509 0.4789169
vt 0.2638509 0.4789169
vt 0.2638509 0.4789169
vt 0.2638509 0.4789169
vt 0.3007959 0.4789169
vt 0.3007959 0.4789169
vt 0.3007959 0.4789169
vt 0.3007959 0.4789169
vt 0.2325038 0.4789169
vt 0.2325038 0.4789169
vt 0.2325038 0.4789169
vt 0.2325038 0.4789169
vt 0.2325038 0.4789169
vt 0.2325038 0.4789169
vt 0.2325038 0.4789169
vt 0.2325038 0.4789169
vt 0.2325038 0.4789169
vt 0.2325038 0.4789169
vt 0.2325038 0.4789169
vt 0.2325038 0.4789169
vt 0.2325038 0.4789169
vt 0.2325038 0.4789169
vt 0.2325038 0.4789169
vt 0.2325038 0.4789169
vt 0.2325038 0.4789169
vt 0.2325038 0.4789169
vt 0.2325038 0.4789169
vt 0.2325038 0.4789169
vt 0.2325038 0.4789169
vt 0.2325038 0.4789169
vt 0.2325038 0.4789169
vt 0.2325038 0.4789169
vn 1 0 0
vn 1 0 0
vn 1 0 0
vn 1 0 0
vn 1 0 0
vn 1 0 0
vn 1 0 0
vn 1 0 0
vn 1 0 0
vn 1 0 0
vn 1 0 0
vn 1 0 0
vn 1 0 0
vn 1 0 0
vn 1 0 0
vn 1 0 0
vn 1 0 0
vn 1 0 0
vn 1 0 0
vn 1 0 0
vn 0 0 1
vn 0 0 1
vn 0 0 1
vn 0 0 1
vn 0 0 -1
vn 0 0 -1
vn 0 0 -1
vn 0 0 -1
vn 1 0 0
vn 1 0 0
vn 1 0 0
vn 1 0 0
vn 1 0 0
vn 1 0 0
vn 1 0 0
vn 1 0 0
vn 1 0 0
vn 1 0 0
vn 1 0 0
vn 1 0 0
vn 1 0 0
vn 1 0 0
vn 1 0 0
vn 1 0 0
vn 1 0 0
vn 1 0 0
vn 1 0 0
vn 1 0 0
vn 1 0 0
vn 1 0 0
vn 1 0 0
vn 1 0 0
vn 0 1 0
vn 0 1 0
vn 0 1 0
vn 0 1 0
vn 0 -1 0
vn 0 -1 0
vn 0 -1 0
vn 0 -1 0
vn 0 0 1
vn 0 0 1
vn 0 0 1
vn 0 0 1
vn 0 0 -1
vn 0 0 -1
vn 0 0 -1
vn 0.6907264 0.7231127 0.00223872
vn 0.7205195 0.6934347 0
vn 0.6890508 0.7247092 0.002361843
vn 0.68889 0.724862 0.002373646
vn 0.68889 0.724862 0.002373646
vn -0.6909755 0.7228782 0
vn -0.6909755 0.7228782 0
vn -0.6909755 0.7228782 0
vn -0.6909755 0.7228782 0
vn -0.6983803 0.7157032 -0.005812558
vn -0.6987986 0.715297 -0.005539858
vn -0.6987986 0.715297 -0.005539858
vn -1 0 0
vn -1 0 0
vn -1 0 0
vn 1 0 0
vn 1 0 0
vn 1 0 0
vn 1 0 0
vn 1 0 0
vn 1 0 0
vn 0 0.7105372 0.7036596
vn 0 0.7105373 0.7036595
vn 0 0.7105373 0.7036595
vn 0 0.7105373 0.7036595
vn 0 0.7105373 0.7036595
vn 0 0.7105361 -0.7036608
vn 0 0.710536 -0.7036608
vn 0 0.710536 -0.7036608
vn 0 0.7105359 -0.7036609
vn 0 0.7105359 -0.7036609
vn 0 0.710536 -0.7036608
vn -5.538676E-05 -6.257218E-05 -1
vn -4.235603E-05 -6.355136E-05 -1
vn -4.235604E-05 -6.355136E-05 -1
vn -5.463644E-05 -6.262857E-05 -1
vn -6.235607E-05 -6.204849E-05 -1
vn -6.235608E-05 -6.204849E-05 -1
vn 0.7047694 0.7094356 0.001053482
vn 0.7047695 0.7094356 0.001053482
vn 0.7047694 0.7094356 0.001053482
vn 0.7047694 0.7094356 0.001053482
vn -5.214944E-05 -5.34637E-05 -1
vn -5.214944E-05 -5.34637E-05 -1
vn -5.214944E-05 -5.34637E-05 -1
vn -5.214944E-05 -5.34637E-05 -1
vn 0.7162569 -0.6978367 0
vn 0.7162569 -0.6978367 0
vn 0.7162569 -0.6978367 0
vn 0.7162569 -0.6978367 0
vn -0.7032315 -0.7109609 0
vn -0.7032315 -0.7109609 0
vn -0.7032315 -0.7109609 0
vn -0.7032315 -0.7109609 0
vn 0.6864915 0.7271378 0
vn 0.6864915 0.7271378 0
vn 0.6864915 0.7271378 0
vn 0.6864915 0.7271378 0
vn 0 0 -1
vn 0 0 -1
vn 0 0 -1
vn 0 0 -1
vn 0 0 -1
vn 0 0 -1
vn -0.690977 -0.7228767 0
vn -0.690977 -0.7228767 0
vn -0.690977 -0.7228767 0
vn -0.690977 -0.7228767 0
vn 0.6909756 -0.7228781 0
vn 0.6909756 -0.7228781 0
vn 0.6909756 -0.7228781 0
vn 0.6909756 -0.7228781 0
vn 1 0 0
vn 1 0 0
vn 1 0 0
vn 0 -0.7087009 0.705509
vn 0 -0.7087009 0.705509
vn 0 -0.7087009 0.705509
vn 0 -0.7087009 0.705509
vn 0 -0.706288 -0.7079247
vn 0 -0.706288 -0.7079247
vn 0 -0.706288 -0.7079247
vn 0 -0.706288 -0.7079247
vn -1 0 0
vn -1 0 0
vn -1 0 0
vn -1 0 0
vn -1 0 0
vn -1 0 0
vn 0 -0.7105369 -0.70366
vn 0 -0.7105369 -0.70366
vn 0 -0.7105369 -0.70366
vn 0 -0.7105369 -0.70366
vn 0 -0.7105357 0.7036612
vn 0 -0.7105357 0.7036612
vn 0 -0.7105357 0.7036612
vn 0 -0.7105357 0.7036612
vn 0 1 0
vn 0 1 0
vn 0 1 0
vn 0 1 0
vn 0 1 0
vn 0 1 0
vn 0 1 0
vn 0 1 0
vn 0 1 0
vn 0 1 0
vn 0 1 0
vn 0 1 0
vn 0 1 0
vn 0 1 0
vn 0 1 0
vn 0 1 0
vn 0 1 0
vn 0 1 0
vn 0 1 0
vn 0 1 0
vn 0 1 0
vn 0 1 0
vn 0 1 0
vn 0 1 0
vn 0 1 0
vn 1 0 0
vn 1 0 0
vn 1 0 0
vn 1 0 0
vn 0 0 -1
vn 0 0 -1
vn 0 0 -1
vn 0 0 -1
vn 1 0 0
vn 1 0 0
vn 1 0 0
vn 1 0 0
vn 0 0 1
vn 0 0 1
vn 0 0 1
vn 0 0 1
vn 0 0 1
vn 0 0 1
vn 0 0 1
vn 0 0 1
vn -1 0 0
vn -1 0 0
vn -1 0 0
vn -1 0 0
vn -1 0 0
vn -1 0 0
vn -1 0 0
vn -1 0 0
vn 0 0 -1
vn 0 0 -1
vn 0 0 -1
vn 0 0 -1
vn 1 0 0
vn 1 0 0
vn 1 0 0
vn 1 0 0
vn 0 0 -1
vn 0 0 -1
vn 0 0 -1
vn 0 0 -1
vn 0 -1 0
vn 0 -1 0
vn 0 -1 0
vn 0 -1 0
vn 0 -1 0
vn 0 -1 0
vn 0 -1 0
vn 0 -1 0
vn 0 -1 0
vn 0 -1 0
vn 0 -1 0
vn 0 -1 0
vn 0 -1 0
vn 0 -1 0
vn 0 -1 0
vn 0 -1 0
vn 0 -1 0
vn 0 -1 0
vn 0 -1 0
vn 0 -1 0
vn 0 -1 0
vn 0 -1 0
vn 0 -1 0
vn 0 -1 0
f 3/3/3 2/2/2 1/1/1
f 4/4/4 3/3/3 1/1/1
f 7/7/7 6/6/6 5/5/5
f 6/6/6 8/8/8 5/5/5
f 8/8/8 9/9/9 5/5/5
f 9/9/9 10/10/10 5/5/5
f 5/5/5 10/10/10 11/11/11
f 10/10/10 12/12/12 11/11/11
f 5/5/5 13/13/13 7/7/7
f 13/13/13 14/14/14 7/7/7
f 13/13/13 15/15/15 14/14/14
f 16/16/16 15/15/15 13/13/13
f 17/17/17 16/16/16 13/13/13
f 18/18/18 17/17/17 13/13/13
f 13/13/13 19/19/19 18/18/18
f 11/11/11 12/12/12 19/19/19
f 20/20/20 18/18/18 19/19/19
f 12/12/12 20/20/20 19/19/19
f 23/23/23 22/22/22 21/21/21
f 24/24/24 23/23/23 21/21/21
f 27/27/27 26/26/26 25/25/25
f 28/28/28 27/27/27 25/25/25
f 31/31/31 30/30/30 29/29/29
f 32/32/32 31/31/31 29/29/29
f 35/35/35 34/34/34 33/33/33
f 36/36/36 35/35/35 33/33/33
f 36/36/36 37/37/37 35/35/35
f 38/38/38 37/37/37 36/36/36
f 39/39/39 38/38/38 36/36/36
f 37/37/37 40/40/40 35/35/35
f 37/37/37 41/41/41 40/40/40
f 41/41/41 42/42/42 40/40/40
f 35/35/35 40/40/40 43/43/43
f 40/40/40 44/44/44 43/43/43
f 47/47/47 46/46/46 45/45/45
f 48/48/48 47/47/47 45/45/45
f 51/51/51 50/50/50 49/49/49
f 52/52/52 51/51/51 49/49/49
f 55/55/55 54/54/54 53/53/53
f 56/56/56 55/55/55 53/53/53
f 59/59/59 58/58/58 57/57/57
f 60/60/60 59/59/59 57/57/57
f 63/63/63 62/62/62 61/61/61
f 64/64/64 63/63/63 61/61/61
f 67/67/67 66/66/66 65/65/65
f 70/70/70 69/69/69 68/68/68
f 70/70/70 68/68/68 71/71/71
f 72/72/72 70/70/70 71/71/71
f 75/75/75 74/74/74 73/73/73
f 76/76/76 75/75/75 73/73/73
f 77/77/77 75/75/75 76/76/76
f 77/77/77 78/78/78 75/75/75
f 78/78/78 79/79/79 75/75/75
f 82/82/82 81/81/81 80/80/80
f 85/85/85 84/84/84 83/83/83
f 86/86/86 85/85/85 83/83/83
f 87/87/87 86/86/86 83/83/83
f 88/88/88 87/87/87 83/83/83
f 91/91/91 90/90/90 89/89/89
f 92/92/92 91/91/91 89/89/89
f 90/90/90 93/93/93 89/89/89
f 96/96/96 95/95/95 94/94/94
f 94/94/94 98/98/98 97/97/97
f 99/99/99 94/94/94 97/97/97
f 102/102/102 101/101/101 100/100/100
f 103/103/103 102/102/102 100/100/100
f 100/100/100 104/104/104 103/103/103
f 104/104/104 105/105/105 103/103/103
f 108/108/108 107/107/107 106/106/106
f 109/109/109 108/108/108 106/106/106
f 112/112/112 111/111/111 110/110/110
f 113/113/113 112/112/112 110/110/110
f 116/116/116 115/115/115 114/114/114
f 117/117/117 116/116/116 114/114/114
f 120/120/120 119/119/119 118/118/118
f 121/121/121 120/120/120 118/118/118
f 124/124/124 123/123/123 122/122/122
f 125/125/125 124/124/124 122/122/122
f 128/128/128 127/127/127 126/126/126
f 129/129/129 128/128/128 126/126/126
f 126/126/126 127/127/127 130/130/130
f 127/127/127 131/131/131 130/130/130
f 134/134/134 133/133/133 132/132/132
f 135/135/135 134/134/134 132/132/132
f 138/138/138 137/137/137 136/136/136
f 139/139/139 138/138/138 136/136/136
f 142/142/142 141/141/141 140/140/140
f 145/145/145 144/144/144 143/143/143
f 146/146/146 145/145/145 143/143/143
f 149/149/149 148/148/148 147/147/147
f 150/150/150 149/149/149 147/147/147
f 153/153/153 152/152/152 151/151/151
f 154/154/154 153/153/153 151/151/151
f 155/155/155 153/153/153 154/154/154
f 156/156/156 155/155/155 154/154/154
f 159/159/159 158/158/158 157/157/157
f 160/160/160 159/159/159 157/157/157
f 163/163/163 162/162/162 161/161/161
f 164/164/164 163/163/163 161/161/161
f 167/167/167 166/166/166 165/165/165
f 168/168/168 167/167/167 165/165/165
f 166/166/166 169/169/169 165/165/165
f 169/169/169 170/170/170 165/165/165
f 166/166/166 171/171/171 169/169/169
f 171/171/171 172/172/172 169/169/169
f 165/165/165 173/173/173 168/168/168
f 173/173/173 174/174/174 168/168/168
f 168/168/168 174/174/174 175/175/175
f 176/176/176 168/168/168 175/175/175
f 177/177/177 173/173/173 165/165/165
f 170/170/170 177/177/177 165/165/165
f 168/168/168 178/178/178 167/167/167
f 178/178/178 179/179/179 167/167/167
f 167/167/167 179/179/179 166/166/166
f 180/180/180 178/178/178 168/168/168
f 176/176/176 180/180/180 168/168/168
f 181/181/181 180/180/180 176/176/176
f 175/175/175 181/181/181 176/176/176
f 182/182/182 181/181/181 175/175/175
f 174/174/174 182/182/182 175/175/175
f 183/183/183 182/182/182 174/174/174
f 173/173/173 183/183/183 174/174/174
f 184/184/184 183/183/183 173/173/173
f 177/177/177 184/184/184 173/173/173
f 185/185/185 184/184/184 177/177/177
f 170/170/170 185/185/185 177/177/177
f 186/186/186 185/185/185 170/170/170
f 171/171/171 187/187/187 172/172/172
f 188/188/188 187/187/187 171/171/171
f 166/166/166 188/188/188 171/171/171
f 179/179/179 188/188/188 166/166/166
f 169/169/169 186/186/186 170/170/170
f 189/189/189 186/186/186 169/169/169
f 172/172/172 189/189/189 169/169/169
f 187/187/187 189/189/189 172/172/172
f 192/192/192 191/191/191 190/190/190
f 193/193/193 192/192/192 190/190/190
f 196/196/196 195/195/195 194/194/194
f 197/197/197 196/196/196 194/194/194
f 200/200/200 199/199/199 198/198/198
f 201/201/201 200/200/200 198/198/198
f 204/204/204 203/203/203 202/202/202
f 205/205/205 204/204/204 202/202/202
f 204/204/204 205/205/205 206/206/206
f 205/205/205 207/207/207 206/206/206
f 206/206/206 207/207/207 208/208/208
f 207/207/207 209/209/209 208/208/208
f 212/212/212 211/211/211 210/210/210
f 213/213/213 212/212/212 210/210/210
f 214/214/214 213/213/213 210/210/210
f 215/215/215 214/214/214 210/210/210
f 216/216/216 214/214/214 215/215/215
f 217/217/217 216/216/216 215/215/215
f 220/220/220 219/219/219 218/218/218
f 221/221/221 220/220/220 218/218/218
f 224/224/224 223/223/223 222/222/222
f 225/225/225 224/224/224 222/222/222
f 228/228/228 227/227/227 226/226/226
f 229/229/229 228/228/228 226/226/226
f 232/232/232 231/231/231 230/230/230
f 233/233/233 232/232/232 230/230/230
f 230/230/230 231/231/231 234/234/234
f 231/231/231 235/235/235 234/234/234
f 234/234/234 235/235/235 236/236/236
f 235/235/235 237/237/237 236/236/236
f 236/236/236 237/237/237 238/238/238
f 237/237/237 239/239/239 238/238/238
f 238/238/238 239/239/239 240/240/240
f 239/239/239 241/241/241 240/240/240
f 240/240/240 241/241/241 242/242/242
f 241/241/241 243/243/243 242/242/242
f 242/242/242 243/243/243 244/244/244
f 243/243/243 245/245/245 244/244/244
f 244/244/244 245/245/245 246/246/246
f 245/245/245 247/247/247 246/246/246
f 246/246/246 247/247/247 248/248/248
f 247/247/247 249/249/249 248/248/248
f 248/248/248 249/249/249 250/250/250
f 249/249/249 251/251/251 250/250/250
f 250/250/250 251/251/251 252/252/252
f 251/251/251 253/253/253 252/252/252
f 252/252/252 253/253/253 233/233/233
f 253/253/253 232/232/232 233/233/233
