g Building_House_01
v -4.432594 -0.5589695 1.411041
v -4.432594 -0.2623143 1.411041
v 4.432594 -0.2623143 1.411041
v 4.432594 -0.5589695 1.411041
v 2.309494 0.5589695 1.315582
v -2.309494 0.5589695 1.315582
v -2.309494 0.5589695 1.315582
v -2.309494 0.5589695 0.6391907
v 2.309494 0.5589695 0.6391907
v 2.309494 0.5589695 1.315582
v -4.432594 -0.2623143 -1.411041
v -4.432594 -0.5589695 -1.411041
v 4.432594 -0.5589695 -1.411041
v 4.432594 -0.2623143 -1.411041
v -4.432594 -0.5589695 -1.411041
v -4.432594 -0.5589695 1.411041
v 4.432594 -0.5589695 1.411041
v 4.432594 -0.5589695 -1.411041
v 4.432594 -0.5589695 1.411041
v 4.432594 -0.2623143 1.411041
v 4.432594 -0.2623143 -1.411041
v 4.432594 -0.5589695 -1.411041
v -4.432594 -0.5589695 -1.411041
v -4.432594 -0.2623143 -1.411041
v -4.432594 -0.2623143 1.411041
v -4.432594 -0.5589695 1.411041
v 4.432594 -0.2623143 1.411041
v 2.309494 0.5589695 1.315582
v 2.309494 0.5589695 0.6391907
v 4.432594 -0.2623143 -1.411041
v 4.432594 -0.2623143 -1.411041
v 2.309494 0.5589695 0.6391907
v -2.309494 0.5589695 0.6391907
v -4.432594 -0.2623143 -1.411041
v -4.432594 -0.2623143 -1.411041
v -2.309494 0.5589695 0.6391907
v -2.309494 0.5589695 1.315582
v -4.432594 -0.2623143 1.411041
vt 0.2928537 0.4794141
vt 0.2928537 0.4794141
vt 0.2928537 0.479414
vt 0.2928537 0.479414
vt 0.2928537 0.479414
vt 0.2928537 0.479414
vt 0.3213548 0.4755276
vt 0.3213548 0.4755276
vt 0.3213548 0.4755275
vt 0.3213548 0.4755275
vt 0.2552839 0.4787663
vt 0.2552839 0.4787663
vt 0.2552839 0.4787663
vt 0.2552839 0.4787663
vt 0.2928537 0.479414
vt 0.2928537 0.479414
vt 0.2928537 0.479414
vt 0.2928537 0.479414
vt 0.233908 0.4787663
vt 0.233908 0.4787663
vt 0.233908 0.4787664
vt 0.233908 0.4787664
vt 0.233908 0.4787663
vt 0.233908 0.4787663
vt 0.233908 0.4787664
vt 0.233908 0.4787664
vt 0.2637047 0.476823
vt 0.2637047 0.476823
vt 0.2637047 0.476823
vt 0.2637047 0.476823
vt 0.2928537 0.479414
vt 0.2928537 0.479414
vt 0.2928537 0.4794141
vt 0.2928537 0.479414
vt 0.2637047 0.476823
vt 0.2637047 0.4768231
vt 0.2637047 0.4768231
vt 0.2637047 0.476823
vn 0 0 1
vn 0 0.03859978 0.9992548
vn 0 0.03859978 0.9992548
vn 0 0 1
vn 0 0.1154541 0.9933128
vn 0 0.1154541 0.9933128
vn 0 1 0
vn 0 1 0
vn 0 1 0
vn 0 1 0
vn 0 0 -1
vn 0 0 -1
vn 0 0 -1
vn 0 0 -1
vn 0 -1 0
vn 0 -1 0
vn 0 -1 0
vn 0 -1 0
vn 1 0 0
vn 1 0 0
vn 1 0 0
vn 1 0 0
vn -1 0 0
vn -1 0 0
vn -1 0 0
vn -1 0 0
vn 0.3607795 0.9326512 0
vn 0.3607795 0.9326512 0
vn 0.3607795 0.9326512 0
vn 0.3607795 0.9326512 0
vn 0 0.9282905 -0.3718557
vn 0 0.9282906 -0.3718556
vn 0 0.9282906 -0.3718556
vn 0 0.9282905 -0.3718557
vn -0.3607795 0.9326512 0
vn -0.3607795 0.9326512 0
vn -0.3607795 0.9326512 0
vn -0.3607795 0.9326512 0
f 3/3/3 2/2/2 1/1/1
f 4/4/4 3/3/3 1/1/1
f 3/3/3 5/5/5 2/2/2
f 5/5/5 6/6/6 2/2/2
f 9/9/9 8/8/8 7/7/7
f 10/10/10 9/9/9 7/7/7
f 13/13/13 12/12/12 11/11/11
f 14/14/14 13/13/13 11/11/11
f 17/17/17 16/16/16 15/15/15
f 18/18/18 17/17/17 15/15/15
f 21/21/21 20/20/20 19/19/19
f 22/22/22 21/21/21 19/19/19
f 25/25/25 24/24/24 23/23/23
f 26/26/26 25/25/25 23/23/23
f 29/29/29 28/28/28 27/27/27
f 30/30/30 29/29/29 27/27/27
f 33/33/33 32/32/32 31/31/31
f 34/34/34 33/33/33 31/31/31
f 37/37/37 36/36/36 35/35/35
f 38/38/38 37/37/37 35/35/35
