g Building_House_00
v 6.889954 -0.7543409 2.105802
v 6.889954 -0.7543409 -2.105802
v 5.201164 -0.7543409 2.074267
v -6.889954 -0.7543409 -2.105802
v -6.889954 -0.7543409 2.074267
v 5.201164 -0.7543409 2.074267
v 6.889954 -0.7543409 -2.105802
v -6.889954 -0.7543409 2.074267
v -6.889954 -0.7543409 -2.105802
v -6.889954 -0.5289719 -2.105802
v -6.889954 0.7543409 2.023455
v -6.889954 -0.7543409 -2.105802
v 6.889954 -0.7543409 -2.105802
v 6.889954 -0.5289719 -2.105802
v -6.889954 -0.5289719 -2.105802
v 0.509964 0.7543409 2.023455
v -6.889954 0.7543409 2.023455
v -6.889954 -0.5289719 -2.105802
v 6.889954 -0.5289719 -2.105802
v 6.889954 -0.5289719 2.042732
v 6.889954 -0.5289719 -2.105802
v 6.889954 -0.7543409 -2.105802
v 6.889954 -0.7543409 2.105802
v 5.138594 -0.1766918 2.03744
v 0.509964 0.7543409 2.023455
v 6.889954 -0.5289719 -2.105802
v 6.889954 -0.5289719 2.042732
v 6.889954 -0.7543409 2.105802
v 5.201164 -0.7543409 2.074267
v 5.138594 -0.1766918 2.03744
v 6.889954 -0.5289719 2.042732
v 5.138594 -0.1766918 2.03744
v 5.201164 -0.7543409 2.074267
v -6.889954 -0.7543409 2.074267
v 0.509964 0.7543409 2.023455
v -6.889954 0.7543409 2.023455
vt 0.2931296 0.2680907
vt 0.2931296 0.2680907
vt 0.2931296 0.2680907
vt 0.2941138 0.2620453
vt 0.2941138 0.2620453
vt 0.2941138 0.2620453
vt 0.2941138 0.2620453
vt 0.2378003 0.2667733
vt 0.2378003 0.2667733
vt 0.2378003 0.2667733
vt 0.2378003 0.2667733
vt 0.2378003 0.2667733
vt 0.2378003 0.2667733
vt 0.2378003 0.2667733
vt 0.2378003 0.2667733
vt 0.2931296 0.2680907
vt 0.2931296 0.2680907
vt 0.2931296 0.2680907
vt 0.2931296 0.2680907
vt 0.2378003 0.2667733
vt 0.2378003 0.2667733
vt 0.2378003 0.2667733
vt 0.2378003 0.2667733
vt 0.2628302 0.2667733
vt 0.2628302 0.2667733
vt 0.2628302 0.2667733
vt 0.2628302 0.2667733
vt 0.2378003 0.2667733
vt 0.2378003 0.2667733
vt 0.2378003 0.2667733
vt 0.2378003 0.2667733
vt 0.2378003 0.2667733
vt 0.2378003 0.2667733
vt 0.2378003 0.2667733
vt 0.2378003 0.2667733
vt 0.2378003 0.2667733
vn 0 -1 0
vn 0 -1 0
vn 0 -1 0
vn 0 -1 0
vn 0 -1 0
vn 0 -1 0
vn 0 -1 0
vn -1 0 0
vn -1 0 0
vn -1 0 0
vn -1 0 0
vn 0 0 -1
vn 0 0 -1
vn 0 0 -1
vn 0 0 -1
vn 0 0.954945 -0.2967829
vn 0 0.954945 -0.2967829
vn 0 0.954945 -0.2967829
vn 0 0.954945 -0.2967829
vn 1 0 0
vn 1 0 0
vn 1 0 0
vn 1 0 0
vn 0.1971969 0.9803639 0
vn 0.1971969 0.9803639 0
vn 0.1971969 0.9803639 0
vn 0.197197 0.9803639 0
vn 0.002035022 0.1236068 0.9923292
vn 0.002035022 0.1236068 0.9923292
vn 0.002035022 0.1236068 0.9923292
vn 0.002035022 0.1236068 0.9923292
vn 0.0008179476 0.03620089 0.9993442
vn 0.0008179475 0.03620089 0.9993442
vn 0.0008179476 0.03620089 0.9993442
vn 0.0008179475 0.03620088 0.9993442
vn 0.0008179476 0.03620089 0.9993442
f 3/3/3 2/2/2 1/1/1
f 6/6/6 5/5/5 4/4/4
f 7/7/7 6/6/6 4/4/4
f 10/10/10 9/9/9 8/8/8
f 11/11/11 10/10/10 8/8/8
f 14/14/14 13/13/13 12/12/12
f 15/15/15 14/14/14 12/12/12
f 18/18/18 17/17/17 16/16/16
f 19/19/19 18/18/18 16/16/16
f 22/22/22 21/21/21 20/20/20
f 23/23/23 22/22/22 20/20/20
f 26/26/26 25/25/25 24/24/24
f 27/27/27 26/26/26 24/24/24
f 30/30/30 29/29/29 28/28/28
f 31/31/31 30/30/30 28/28/28
f 34/34/34 33/33/33 32/32/32
f 32/32/32 35/35/35 34/34/34
f 35/35/35 36/36/36 34/34/34
