g Building_OfficeMedium_00
v -2.46545 0.1183863 -0.7347689
v -2.456402 -0.1183863 -0.7347689
v -3.814697E-06 -0.1183863 -0.7347689
v -3.814697E-06 0.1183863 -0.7347689
v 2.46545 0.1183863 -0.7347689
v 2.456402 -0.1183863 -0.7347689
v -2.46545 0.1183863 0.7347689
v -2.46545 0.1183863 -0.7347689
v -3.814697E-06 0.1183863 -0.7347689
v -3.814697E-06 0.1183863 0.7347689
v 2.46545 0.1183863 0.7347689
v 2.46545 0.1183863 -0.7347689
v 2.46545 0.1183863 0.7347689
v 2.46545 0.1183863 -0.7347689
v 2.456402 -0.1183863 -0.7347689
v 2.456402 -0.1183863 0.7347689
v -3.814697E-06 -0.1183863 0.7347689
v -3.814697E-06 -0.1183863 -0.7347689
v -2.456402 -0.1183863 -0.7347689
v -2.456402 -0.1183863 0.7347689
v 2.456402 -0.1183863 0.7347689
v 2.456402 -0.1183863 -0.7347689
v -2.456402 -0.1183863 0.7347689
v -2.456402 -0.1183863 -0.7347689
v -2.46545 0.1183863 -0.7347689
v -2.46545 0.1183863 0.7347689
vt 0.1727453 0.6232644
vt 0.1733781 0.6232402
vt 0.1733781 0.6166756
vt 0.1727453 0.6166756
vt 0.1727453 0.6100867
vt 0.1733781 0.6101109
vt 0.1126947 0.6408246
vt 0.1166219 0.6408246
vt 0.1166219 0.6342358
vt 0.1126947 0.6342358
vt 0.1126947 0.627647
vt 0.1166219 0.627647
vt 0.158399 0.6189412
vt 0.158399 0.6150139
vt 0.1577662 0.6150139
vt 0.1577662 0.6189412
vt 0.4637439 0.4699757
vt 0.4598167 0.4699757
vt 0.4598167 0.4765404
vt 0.4637439 0.4765404
vt 0.4637439 0.4634111
vt 0.4598167 0.4634111
vt 0.1594398 0.6150139
vt 0.1594398 0.6189412
vt 0.1600726 0.6189412
vt 0.1600726 0.6150139
vn 0 0 -1
vn 0 0 -1
vn 0 0 -1
vn 0 0 -1
vn 0 0 -1
vn 0 0 -1
vn 0 1 0
vn 0 1 0
vn 0 1 0
vn 0 1 0
vn 0 1 0
vn 0 1 0
vn 0.9992706 -0.03818804 0
vn 0.9992706 -0.03818804 0
vn 0.9992706 -0.03818804 0
vn 0.9992706 -0.03818804 0
vn 0 -1 0
vn 0 -1 0
vn 0 -1 0
vn 0 -1 0
vn 0 -1 0
vn 0 -1 0
vn -0.9992706 -0.03818804 0
vn -0.9992706 -0.03818804 0
vn -0.9992706 -0.03818804 0
vn -0.9992706 -0.03818804 0
f 3/3/3 2/2/2 1/1/1
f 4/4/4 3/3/3 1/1/1
f 4/4/4 5/5/5 3/3/3
f 5/5/5 6/6/6 3/3/3
f 9/9/9 8/8/8 7/7/7
f 10/10/10 9/9/9 7/7/7
f 10/10/10 11/11/11 9/9/9
f 11/11/11 12/12/12 9/9/9
f 15/15/15 14/14/14 13/13/13
f 16/16/16 15/15/15 13/13/13
f 19/19/19 18/18/18 17/17/17
f 20/20/20 19/19/19 17/17/17
f 17/17/17 18/18/18 21/21/21
f 18/18/18 22/22/22 21/21/21
f 25/25/25 24/24/24 23/23/23
f 26/26/26 25/25/25 23/23/23
