g Building_Garage_02_door
v -0.188889 1.59863 -5.722046E-06
v -1.756111 1.59863 -5.722046E-06
v -1.756111 3.093662 -5.722046E-06
v -0.188889 3.093662 -5.722046E-06
v -1.27266 1.243885 -5.722046E-06
v -1.695046 1.243885 -5.722046E-06
v -1.695046 1.378708 -5.722046E-06
v -1.27266 1.378708 -5.722046E-06
v -0.188889 1.59863 -5.722046E-06
v -0.188889 3.093662 -5.722046E-06
v -1.621246E-05 3.364616 -5.722046E-06
v -2.384186E-05 0 9.536743E-06
v -1.944962 3.364616 -5.722046E-06
v -1.756111 3.093662 -5.722046E-06
v -1.756111 1.59863 -5.722046E-06
v -1.944963 0 9.536743E-06
v -1.695046 1.243885 -5.722046E-06
v -1.27266 1.243885 -5.722046E-06
v -1.27266 1.378708 -5.722046E-06
v -1.695046 1.378708 -5.722046E-06
v -2.336502E-05 0 -0.08802938
v -1.597404E-05 3.364616 -0.08804464
v -1.597404E-05 3.364616 -0.08804464
v -1.944963 3.364616 -0.08804417
v -1.944963 3.364616 -0.08804417
v -1.944963 0 -0.08802891
v -1.944963 0 -0.08802891
v -2.336502E-05 0 -0.08802938
v -0.1888893 1.59863 -0.08804464
v -0.1888893 3.093662 -0.08804464
v -1.756111 3.093662 -0.08804417
v -1.756111 1.59863 -0.08804417
v -1.272659 1.243885 -0.08804464
v -1.272659 1.378708 -0.08804464
v -1.695046 1.378708 -0.08804417
v -1.695046 1.243885 -0.08804417
v -0.1888893 1.59863 -0.08804464
v -2.336502E-05 0 -0.08802938
v -1.597404E-05 3.364616 -0.08804464
v -0.1888893 3.093662 -0.08804464
v -1.944963 3.364616 -0.08804417
v -1.756111 3.093662 -0.08804417
v -1.756111 1.59863 -0.08804417
v -1.944963 0 -0.08802891
v -1.695046 1.243885 -0.08804417
v -1.272659 1.243885 -0.08804464
v -1.272659 1.378708 -0.08804464
v -1.695046 1.378708 -0.08804417
vt 0.134227 0.4771551
vt 0.134227 0.4771551
vt 0.134227 0.4771551
vt 0.134227 0.4771551
vt 0.3275057 0.4808528
vt 0.3275057 0.4808528
vt 0.3275057 0.4808528
vt 0.3275057 0.4808528
vt 0.1738841 0.3568324
vt 0.1738841 0.3568324
vt 0.1738841 0.3568324
vt 0.1738841 0.3568324
vt 0.1738841 0.3568324
vt 0.1738841 0.3568324
vt 0.1738841 0.3568324
vt 0.1738841 0.3568324
vt 0.1738841 0.3568324
vt 0.1738841 0.3568324
vt 0.1738841 0.3568324
vt 0.1738841 0.3568324
vt 0.1738841 0.3568324
vt 0.1738841 0.3568324
vt 0.1738841 0.3568324
vt 0.1738841 0.3568324
vt 0.1738841 0.3568324
vt 0.1738841 0.3568324
vt 0.1738841 0.3568324
vt 0.1738841 0.3568324
vt 0.134227 0.4771551
vt 0.134227 0.4771551
vt 0.134227 0.4771551
vt 0.134227 0.4771551
vt 0.3275057 0.4808528
vt 0.3275057 0.4808528
vt 0.3275057 0.4808528
vt 0.3275057 0.4808528
vt 0.1738841 0.3568324
vt 0.1738841 0.3568324
vt 0.1738841 0.3568324
vt 0.1738841 0.3568324
vt 0.1738841 0.3568324
vt 0.1738841 0.3568324
vt 0.1738841 0.3568324
vt 0.1738841 0.3568324
vt 0.1738841 0.3568324
vt 0.1738841 0.3568324
vt 0.1738841 0.3568324
vt 0.1738841 0.3568324
vn 0 0 1
vn 0 0 1
vn 0 0 1
vn 0 0 1
vn 0 1.06122E-05 1
vn 0 1.130165E-05 1
vn 1.201779E-05 0 1
vn 0 0 1
vn 0 0 1
vn 0 0 1
vn -1.103431E-05 0 1
vn 0 1.065882E-05 1
vn 1.141429E-05 0 1
vn 0 0 1
vn 0 0 1
vn 0 1.200744E-05 1
vn 0 1.130165E-05 1
vn 0 1.06122E-05 1
vn 0 0 1
vn 1.201779E-05 0 1
vn 1 0 0
vn 1 0 0
vn 0 1 0
vn 0 1 0
vn -1 0 0
vn -1 0 0
vn 0 -1 0
vn 0 -1 0
vn 0 0 -1
vn 0 0 -1
vn 0 0 -1
vn 0 0 -1
vn 0 -1.06122E-05 -1
vn 0 0 -1
vn -1.201779E-05 0 -1
vn 0 -1.130165E-05 -1
vn 0 0 -1
vn 0 -1.065882E-05 -1
vn 1.103431E-05 0 -1
vn 0 0 -1
vn -1.141429E-05 0 -1
vn 0 0 -1
vn 0 0 -1
vn 0 -1.200744E-05 -1
vn 0 -1.130165E-05 -1
vn 0 -1.06122E-05 -1
vn 0 0 -1
vn -1.201779E-05 0 -1
f 3/3/3 2/2/2 1/1/1
f 4/4/4 3/3/3 1/1/1
f 7/7/7 6/6/6 5/5/5
f 8/8/8 7/7/7 5/5/5
f 11/11/11 10/10/10 9/9/9
f 12/12/12 11/11/11 9/9/9
f 11/11/11 13/13/13 10/10/10
f 13/13/13 14/14/14 10/10/10
f 15/15/15 14/14/14 13/13/13
f 16/16/16 15/15/15 13/13/13
f 17/17/17 16/16/16 12/12/12
f 16/16/16 17/17/17 15/15/15
f 18/18/18 17/17/17 12/12/12
f 19/19/19 18/18/18 12/12/12
f 9/9/9 19/19/19 12/12/12
f 9/9/9 15/15/15 19/19/19
f 15/15/15 20/20/20 19/19/19
f 17/17/17 20/20/20 15/15/15
f 11/11/11 12/12/12 21/21/21
f 22/22/22 11/11/11 21/21/21
f 13/13/13 11/11/11 23/23/23
f 24/24/24 13/13/13 23/23/23
f 16/16/16 13/13/13 25/25/25
f 26/26/26 16/16/16 25/25/25
f 12/12/12 16/16/16 27/27/27
f 28/28/28 12/12/12 27/27/27
f 31/31/31 30/30/30 29/29/29
f 32/32/32 31/31/31 29/29/29
f 35/35/35 34/34/34 33/33/33
f 36/36/36 35/35/35 33/33/33
f 39/39/39 38/38/38 37/37/37
f 40/40/40 39/39/39 37/37/37
f 41/41/41 39/39/39 40/40/40
f 42/42/42 41/41/41 40/40/40
f 42/42/42 43/43/43 41/41/41
f 43/43/43 44/44/44 41/41/41
f 44/44/44 45/45/45 38/38/38
f 45/45/45 44/44/44 43/43/43
f 45/45/45 46/46/46 38/38/38
f 47/47/47 37/37/37 38/38/38
f 46/46/46 47/47/47 38/38/38
f 43/43/43 37/37/37 47/47/47
f 48/48/48 43/43/43 47/47/47
f 48/48/48 45/45/45 43/43/43
