g Building_House_02
v 6.803058 -0.3548584 1.783916
v 6.803058 0.05965424 1.783916
v 6.803058 0.05965424 -1.682335
v 6.803058 -0.3548584 -1.682335
v 6.803058 0.05965424 1.783916
v 7.086884 0.05965424 1.783916
v 7.086884 0.05965424 -1.783918
v 6.803058 0.05965424 -1.682335
v 5.122274E-08 0.05965424 -1.783918
v 5.122274E-08 0.05965424 -1.682335
v -6.803058 0.05965424 -1.682335
v -7.086884 0.05965424 -1.783918
v -6.803058 0.05965424 1.783916
v -7.086884 0.05965424 1.783916
v 7.086884 0.05965424 -1.783918
v 7.086884 0.05965424 1.783916
v 7.086884 0.3548584 1.783916
v 7.086884 0.3548584 -1.783918
v 5.122274E-08 -0.3548584 -1.682335
v 5.122274E-08 -0.3548584 1.783916
v 6.803058 -0.3548584 1.783916
v 6.803058 -0.3548584 -1.682335
v -6.803058 -0.3548584 1.783916
v -6.803058 -0.3548584 -1.682335
v 5.122274E-08 0.05965424 -1.682335
v 5.122274E-08 -0.3548584 -1.682335
v 6.803058 -0.3548584 -1.682335
v 6.803058 0.05965424 -1.682335
v 5.122274E-08 0.3548584 -1.783918
v 5.122274E-08 0.05965424 -1.783918
v 7.086884 0.05965424 -1.783918
v 7.086884 0.3548584 -1.783918
v -7.086884 0.05965424 -1.783918
v -7.086884 0.3548584 -1.783918
v 7.086884 0.3548584 -1.783918
v 7.086884 0.3548584 1.783916
v 5.122274E-08 0.3548584 1.783916
v 5.122274E-08 0.3548584 -1.783918
v -7.086884 0.3548584 -1.783918
v -7.086884 0.3548584 1.783916
v -6.803058 -0.3548584 1.783916
v -6.803058 -0.3548584 -1.682335
v -6.803058 0.05965424 -1.682335
v -6.803058 0.05965424 1.783916
v -7.086884 0.05965424 -1.783918
v -7.086884 0.3548584 -1.783918
v -7.086884 0.3548584 1.783916
v -7.086884 0.05965424 1.783916
v 5.122274E-08 0.05965424 -1.682335
v -6.803058 0.05965424 -1.682335
v -6.803058 -0.3548584 -1.682335
v 5.122274E-08 -0.3548584 -1.682335
v 5.355105E-08 0.05965424 1.783918
v 6.803058 0.05965424 1.783918
v 6.803058 -0.3548584 1.783918
v 5.355105E-08 -0.3548584 1.783918
v 5.355105E-08 0.05965424 1.783918
v 5.355105E-08 -0.3548584 1.783918
v -6.803058 -0.3548584 1.783918
v -6.803058 0.05965424 1.783918
v 1.18278E-07 0.3548584 1.783918
v 7.086884 0.3548584 1.783916
v 7.086884 0.05965424 1.783916
v 1.18278E-07 0.05965424 1.783918
v -7.086884 0.05965424 1.783918
v -7.086884 0.3548584 1.783918
vt 0.2006942 0.1918228
vt 0.2006942 0.1918228
vt 0.2006942 0.1918228
vt 0.2006942 0.1918228
vt 0.2950518 0.4843583
vt 0.2950518 0.4843583
vt 0.2950518 0.4843583
vt 0.2950518 0.4843583
vt 0.2950518 0.4843583
vt 0.2950518 0.4843583
vt 0.2950518 0.4843583
vt 0.2950518 0.4843583
vt 0.2950518 0.4843583
vt 0.2950518 0.4843583
vt 0.2978478 0.4751921
vt 0.2978478 0.4751921
vt 0.2978478 0.4751921
vt 0.2978478 0.4751921
vt 0.232175 0.2030765
vt 0.232175 0.2030765
vt 0.2331468 0.2030765
vt 0.2331468 0.2030765
vt 0.2331468 0.2030765
vt 0.2331468 0.2030765
vt 0.232175 0.202375
vt 0.232175 0.2030765
vt 0.2331468 0.2030765
vt 0.2331468 0.202375
vt 0.2920437 0.4759148
vt 0.2920436 0.4759148
vt 0.2920436 0.4759148
vt 0.2920437 0.4759148
vt 0.2920436 0.4759148
vt 0.2920437 0.4759148
vt 0.2015051 0.05685878
vt 0.2015051 0.05685878
vt 0.1989424 0.05685878
vt 0.1989424 0.05685878
vt 0.2015051 0.05685878
vt 0.2015051 0.05685878
vt 0.2331468 0.2030765
vt 0.2331468 0.2030765
vt 0.2331468 0.202375
vt 0.2331468 0.2016734
vt 0.2978478 0.4751921
vt 0.2978478 0.4751921
vt 0.2978478 0.4751921
vt 0.2978478 0.4751921
vt 0.232175 0.202375
vt 0.2331468 0.202375
vt 0.2331468 0.2030765
vt 0.232175 0.2030765
vt 0.2956553 0.4719835
vt 0.2957599 0.4719835
vt 0.2957599 0.4720881
vt 0.2956553 0.4720881
vt 0.2956553 0.4719835
vt 0.2956553 0.4720881
vt 0.2957599 0.4720881
vt 0.2957599 0.4719835
vt 0.2958717 0.4705679
vt 0.2958717 0.4705679
vt 0.2958717 0.4705679
vt 0.2958717 0.4705679
vt 0.2958717 0.4705679
vt 0.2958717 0.4705679
vn 1 0 0
vn 1 0 0
vn 1 0 0
vn 1 0 0
vn 0 -1 0
vn 0 -1 0
vn 0 -1 0
vn 0 -1 0
vn 0 -1 0
vn 0 -1 0
vn 0 -1 0
vn 0 -1 0
vn 0 -1 0
vn 0 -1 0
vn 1 0 0
vn 1 0 0
vn 1 0 0
vn 1 0 0
vn 0 -1 0
vn 0 -1 0
vn 0 -1 0
vn 0 -1 0
vn 0 -1 0
vn 0 -1 0
vn 0 0 -1
vn 0 0 -1
vn 0 0 -1
vn 0 0 -1
vn 0 0 -1
vn 0 0 -1
vn 0 0 -1
vn 0 0 -1
vn 0 0 -1
vn 0 0 -1
vn 0 1 0
vn 0 1 0
vn 0 1 0
vn 0 1 0
vn 0 1 0
vn 0 1 0
vn -1 0 0
vn -1 0 0
vn -1 0 0
vn -1 0 0
vn -1 0 0
vn -1 0 0
vn -1 0 0
vn -1 0 0
vn 0 0 -1
vn 0 0 -1
vn 0 0 -1
vn 0 0 -1
vn 0 0 1
vn 0 0 1
vn 0 0 1
vn 0 0 1
vn 0 0 1
vn 0 0 1
vn 0 0 1
vn 0 0 1
vn 0 0 1
vn 0 0 1
vn 0 0 1
vn 0 0 1
vn 0 0 1
vn 0 0 1
f 3/3/3 2/2/2 1/1/1
f 4/4/4 3/3/3 1/1/1
f 7/7/7 6/6/6 5/5/5
f 7/7/7 5/5/5 8/8/8
f 7/7/7 8/8/8 9/9/9
f 8/8/8 10/10/10 9/9/9
f 10/10/10 11/11/11 9/9/9
f 11/11/11 12/12/12 9/9/9
f 13/13/13 12/12/12 11/11/11
f 14/14/14 12/12/12 13/13/13
f 17/17/17 16/16/16 15/15/15
f 18/18/18 17/17/17 15/15/15
f 21/21/21 20/20/20 19/19/19
f 22/22/22 21/21/21 19/19/19
f 20/20/20 23/23/23 19/19/19
f 23/23/23 24/24/24 19/19/19
f 27/27/27 26/26/26 25/25/25
f 28/28/28 27/27/27 25/25/25
f 31/31/31 30/30/30 29/29/29
f 32/32/32 31/31/31 29/29/29
f 30/30/30 33/33/33 29/29/29
f 33/33/33 34/34/34 29/29/29
f 37/37/37 36/36/36 35/35/35
f 38/38/38 37/37/37 35/35/35
f 37/37/37 38/38/38 39/39/39
f 40/40/40 37/37/37 39/39/39
f 43/43/43 42/42/42 41/41/41
f 44/44/44 43/43/43 41/41/41
f 47/47/47 46/46/46 45/45/45
f 48/48/48 47/47/47 45/45/45
f 51/51/51 50/50/50 49/49/49
f 52/52/52 51/51/51 49/49/49
f 55/55/55 54/54/54 53/53/53
f 56/56/56 55/55/55 53/53/53
f 59/59/59 58/58/58 57/57/57
f 60/60/60 59/59/59 57/57/57
f 63/63/63 62/62/62 61/61/61
f 64/64/64 63/63/63 61/61/61
f 65/65/65 64/64/64 61/61/61
f 66/66/66 65/65/65 61/61/61
