g building_02_top_collider
v 3.004275 0.5318607 8.46591
v 3.004274 0.5318607 -8.46591
v 5.203557 -1.667421 -8.46591
v 5.203557 -1.667421 8.46591
v -5.203556 -1.667421 8.46591
v -5.203556 -1.667421 -8.465906
v -3.004278 0.5318607 -8.465906
v -3.004277 0.5318607 8.46591
v -3.004277 0.5318607 8.46591
v -3.004278 0.5318607 -8.465906
v -2.777931E-16 1.336854 -8.46591
v -2.777931E-16 1.336854 8.46591
v -2.777931E-16 1.336854 8.46591
v -2.777931E-16 1.336854 -8.46591
v 3.004274 0.5318607 -8.46591
v 3.004275 0.5318607 8.46591
v -3.169558 0.8181409 7.457401
v -5.489836 -1.502138 7.457399
v -5.489836 -1.502138 7.04457
v -3.169558 0.8181409 7.044568
v 6.185256E-17 1.667421 7.457399
v -3.169558 0.8181409 7.457401
v -3.169558 0.8181409 7.044568
v 2.404747E-17 1.667421 7.04457
v -5.489836 -1.502138 7.457399
v -3.169558 0.8181409 7.457401
v -2.046152 -0.004249215 7.4574
v 1.703974E-07 1.125396 7.457399
v 6.185256E-17 1.667421 7.457399
v -5.489836 -1.502138 7.457399
v -2.046152 -0.004249215 7.4574
v -4.759307 -1.502138 7.457399
v -3.169558 0.8181409 7.044568
v -5.489836 -1.502138 7.04457
v -4.759306 -1.502138 7.04457
v -3.169558 0.8181409 7.044568
v -4.759306 -1.502138 7.04457
v -2.046152 -0.004249692 7.044569
v 2.404747E-17 1.667421 7.04457
v 2.404747E-17 1.667421 7.04457
v -2.046152 -0.004249692 7.044569
v 1.703975E-07 1.125396 7.04457
v -1.703975E-07 1.125396 7.04457
v 2.046152 -0.004249692 7.044569
v 3.169558 0.8181409 7.457401
v 3.169558 0.8181409 7.044568
v 5.489836 -1.502138 7.04457
v 5.489836 -1.502138 7.457399
v -1.375762E-17 1.667421 7.457399
v 2.404747E-17 1.667421 7.04457
v 3.169558 0.8181409 7.044568
v 3.169558 0.8181409 7.457401
v 5.489836 -1.502138 7.457399
v 4.759307 -1.502138 7.457399
v 2.046152 -0.004249215 7.4574
v 5.489836 -1.502138 7.457399
v 2.046152 -0.004249215 7.4574
v 3.169558 0.8181409 7.457401
v -1.703974E-07 1.125396 7.457399
v -1.375762E-17 1.667421 7.457399
v 3.169558 0.8181409 7.044568
v 2.046152 -0.004249692 7.044569
v 4.759306 -1.502138 7.04457
v 2.404747E-17 1.667421 7.04457
v 3.169558 0.8181409 7.044568
v 4.759306 -1.502138 7.04457
v 5.489836 -1.502138 7.04457
v -3.169558 0.8181409 -6.951779
v -5.489836 -1.502138 -6.951781
v -5.489836 -1.502138 -7.36461
v -3.169558 0.8181409 -7.364612
v 6.185256E-17 1.667421 -6.951781
v -3.169558 0.8181409 -6.951779
v -3.169558 0.8181409 -7.364612
v 2.404747E-17 1.667421 -7.36461
v -5.489836 -1.502138 -6.951781
v -3.169558 0.8181409 -6.951779
v -2.046152 -0.004249215 -6.95178
v 1.703974E-07 1.125396 -6.951781
v 6.185256E-17 1.667421 -6.951781
v -5.489836 -1.502138 -6.951781
v -2.046152 -0.004249215 -6.95178
v -4.759307 -1.502138 -6.951781
v -3.169558 0.8181409 -7.364612
v -5.489836 -1.502138 -7.36461
v -4.759306 -1.502138 -7.36461
v -3.169558 0.8181409 -7.364612
v -4.759306 -1.502138 -7.36461
v -2.046152 -0.004249692 -7.364611
v 2.404747E-17 1.667421 -7.36461
v 2.404747E-17 1.667421 -7.36461
v -2.046152 -0.004249692 -7.364611
v 1.703975E-07 1.125396 -7.36461
v -1.703975E-07 1.125396 -7.36461
v 2.046152 -0.004249692 -7.364611
v 3.169558 0.8181409 -6.951779
v 3.169558 0.8181409 -7.364612
v 5.489836 -1.502138 -7.36461
v 5.489836 -1.502138 -6.951781
v -1.375762E-17 1.667421 -6.951781
v 2.404747E-17 1.667421 -7.36461
v 3.169558 0.8181409 -7.364612
v 3.169558 0.8181409 -6.951779
v 5.489836 -1.502138 -6.951781
v 4.759307 -1.502138 -6.951781
v 2.046152 -0.004249215 -6.95178
v 5.489836 -1.502138 -6.951781
v 2.046152 -0.004249215 -6.95178
v 3.169558 0.8181409 -6.951779
v -1.703974E-07 1.125396 -6.951781
v -1.375762E-17 1.667421 -6.951781
v 3.169558 0.8181409 -7.364612
v 2.046152 -0.004249692 -7.364611
v 4.759306 -1.502138 -7.36461
v 2.404747E-17 1.667421 -7.36461
v 3.169558 0.8181409 -7.364612
v 4.759306 -1.502138 -7.36461
v 5.489836 -1.502138 -7.36461
vt 0.9826223 0.937095
vt 0.01545966 0.9370951
vt 0.01545978 0.9466473
vt 0.9826223 0.9466473
vt 0.9826223 0.9325297
vt 0.01545984 0.9325297
vt 0.01545972 0.9420819
vt 0.9826219 0.9420819
vt 0.9826219 0.8829488
vt 0.01545972 0.8829487
vt 0.01545984 0.892501
vt 0.9826223 0.8925009
vt 0.9826223 0.8793603
vt 0.01545984 0.8793603
vt 0.01545966 0.8889126
vt 0.9826223 0.8889124
vt 0.2757156 0.2571633
vt 0.2757639 0.2571633
vt 0.2757639 0.2580348
vt 0.2757156 0.2580348
vt 0.2762468 0.2571633
vt 0.2762951 0.2571633
vt 0.2762951 0.2580348
vt 0.2762468 0.2580348
vt 0.1578041 0.3128601
vt 0.1579366 0.3129926
vt 0.1578254 0.3130517
vt 0.1579232 0.3131713
vt 0.1579851 0.3131737
vt 0.1578041 0.3128601
vt 0.1578254 0.3130517
vt 0.15778 0.3128999
vt 0.1579366 0.3149484
vt 0.1578041 0.315081
vt 0.15778 0.3150374
vt 0.1579366 0.3149484
vt 0.15778 0.3150374
vt 0.1578254 0.3148791
vt 0.1579851 0.3147673
vt 0.1579851 0.3147673
vt 0.1578254 0.3148791
vt 0.1579232 0.3147649
vt 0.1579232 0.3147649
vt 0.1578254 0.3148791
vt 0.2757156 0.2571633
vt 0.2757156 0.2580348
vt 0.2757639 0.2580348
vt 0.2757639 0.2571633
vt 0.2762468 0.2571633
vt 0.2762468 0.2580348
vt 0.2762951 0.2580348
vt 0.2762951 0.2571633
vt 0.1578041 0.3128601
vt 0.15778 0.3128999
vt 0.1578254 0.3130517
vt 0.1578041 0.3128601
vt 0.1578254 0.3130517
vt 0.1579366 0.3129926
vt 0.1579232 0.3131713
vt 0.1579851 0.3131737
vt 0.1579366 0.3149484
vt 0.1578254 0.3148791
vt 0.15778 0.3150374
vt 0.1579851 0.3147673
vt 0.1579366 0.3149484
vt 0.15778 0.3150374
vt 0.1578041 0.315081
vt 0.2757156 0.2571633
vt 0.2757639 0.2571633
vt 0.2757639 0.2580348
vt 0.2757156 0.2580348
vt 0.2762468 0.2571633
vt 0.2762951 0.2571633
vt 0.2762951 0.2580348
vt 0.2762468 0.2580348
vt 0.1578041 0.3128601
vt 0.1579366 0.3129926
vt 0.1578254 0.3130517
vt 0.1579232 0.3131713
vt 0.1579851 0.3131737
vt 0.1578041 0.3128601
vt 0.1578254 0.3130517
vt 0.15778 0.3128999
vt 0.1579366 0.3149484
vt 0.1578041 0.315081
vt 0.15778 0.3150374
vt 0.1579366 0.3149484
vt 0.15778 0.3150374
vt 0.1578254 0.3148791
vt 0.1579851 0.3147673
vt 0.1579851 0.3147673
vt 0.1578254 0.3148791
vt 0.1579232 0.3147649
vt 0.1579232 0.3147649
vt 0.1578254 0.3148791
vt 0.2757156 0.2571633
vt 0.2757156 0.2580348
vt 0.2757639 0.2580348
vt 0.2757639 0.2571633
vt 0.2762468 0.2571633
vt 0.2762468 0.2580348
vt 0.2762951 0.2580348
vt 0.2762951 0.2571633
vt 0.1578041 0.3128601
vt 0.15778 0.3128999
vt 0.1578254 0.3130517
vt 0.1578041 0.3128601
vt 0.1578254 0.3130517
vt 0.1579366 0.3129926
vt 0.1579232 0.3131713
vt 0.1579851 0.3131737
vt 0.1579366 0.3149484
vt 0.1578254 0.3148791
vt 0.15778 0.3150374
vt 0.1579851 0.3147673
vt 0.1579366 0.3149484
vt 0.15778 0.3150374
vt 0.1578041 0.315081
vn 0.7071066 0.7071069 0
vn 0.7071067 0.7071068 0
vn 0.7071066 0.7071069 0
vn 0.7071067 0.7071068 0
vn -0.7071074 0.7071061 0
vn -0.7071074 0.7071061 0
vn -0.7071074 0.7071061 0
vn -0.7071074 0.7071061 0
vn -0.2588189 0.9659259 0
vn -0.2588189 0.9659259 0
vn -0.2588189 0.9659259 0
vn -0.2588189 0.9659259 0
vn 0.2588191 0.9659258 0
vn 0.2588191 0.9659258 0
vn 0.2588191 0.9659258 0
vn 0.2588191 0.9659258 0
vn -0.7071069 0.7071066 0
vn -0.7071069 0.7071066 0
vn -0.7071069 0.7071066 0
vn -0.7071069 0.7071066 0
vn -0.2588188 0.9659259 0
vn -0.2588188 0.9659259 0
vn -0.2588188 0.9659259 0
vn -0.2588188 0.9659259 0
vn 0 0 1
vn 0 0 1
vn 0 0 1
vn 0 0 1
vn 0 0 1
vn 0 0 1
vn 0 0 1
vn 0 0 1
vn 0 0 -1
vn 0 0 -1
vn 0 0 -1
vn 0 0 -1
vn 0 0 -1
vn 0 0 -1
vn 0 0 -1
vn 0 0 -1
vn 0 0 -1
vn 0 0 -1
vn 0 0 -1
vn 0 0 -1
vn 0.7071069 0.7071066 0
vn 0.7071069 0.7071066 0
vn 0.7071069 0.7071066 0
vn 0.7071069 0.7071066 0
vn 0.2588188 0.9659259 0
vn 0.2588188 0.9659259 0
vn 0.2588188 0.9659259 0
vn 0.2588188 0.9659259 0
vn 0 0 1
vn 0 0 1
vn 0 0 1
vn 0 0 1
vn 0 0 1
vn 0 0 1
vn 0 0 1
vn 0 0 1
vn 0 0 -1
vn 0 0 -1
vn 0 0 -1
vn 0 0 -1
vn 0 0 -1
vn 0 0 -1
vn 0 0 -1
vn -0.7071069 0.7071066 0
vn -0.7071069 0.7071066 0
vn -0.7071069 0.7071066 0
vn -0.7071069 0.7071066 0
vn -0.2588188 0.9659259 0
vn -0.2588188 0.9659259 0
vn -0.2588188 0.9659259 0
vn -0.2588188 0.9659259 0
vn 0 0 1
vn 0 0 1
vn 0 0 1
vn 0 0 1
vn 0 0 1
vn 0 0 1
vn 0 0 1
vn 0 0 1
vn 0 0 -1
vn 0 0 -1
vn 0 0 -1
vn 0 0 -1
vn 0 0 -1
vn 0 0 -1
vn 0 0 -1
vn 0 0 -1
vn 0 0 -1
vn 0 0 -1
vn 0 0 -1
vn 0 0 -1
vn 0.7071069 0.7071066 0
vn 0.7071069 0.7071066 0
vn 0.7071069 0.7071066 0
vn 0.7071069 0.7071066 0
vn 0.2588188 0.9659259 0
vn 0.2588188 0.9659259 0
vn 0.2588188 0.9659259 0
vn 0.2588188 0.9659259 0
vn 0 0 1
vn 0 0 1
vn 0 0 1
vn 0 0 1
vn 0 0 1
vn 0 0 1
vn 0 0 1
vn 0 0 1
vn 0 0 -1
vn 0 0 -1
vn 0 0 -1
vn 0 0 -1
vn 0 0 -1
vn 0 0 -1
vn 0 0 -1
f 3/3/3 2/2/2 1/1/1
f 4/4/4 3/3/3 1/1/1
f 7/7/7 6/6/6 5/5/5
f 8/8/8 7/7/7 5/5/5
f 11/11/11 10/10/10 9/9/9
f 12/12/12 11/11/11 9/9/9
f 15/15/15 14/14/14 13/13/13
f 16/16/16 15/15/15 13/13/13
f 19/19/19 18/18/18 17/17/17
f 20/20/20 19/19/19 17/17/17
f 23/23/23 22/22/22 21/21/21
f 24/24/24 23/23/23 21/21/21
f 27/27/27 26/26/26 25/25/25
f 27/27/27 28/28/28 26/26/26
f 28/28/28 29/29/29 26/26/26
f 32/32/32 31/31/31 30/30/30
f 35/35/35 34/34/34 33/33/33
f 38/38/38 37/37/37 36/36/36
f 38/38/38 36/36/36 39/39/39
f 42/42/42 41/41/41 40/40/40
f 44/44/44 43/43/43 40/40/40
f 47/47/47 46/46/46 45/45/45
f 48/48/48 47/47/47 45/45/45
f 51/51/51 50/50/50 49/49/49
f 52/52/52 51/51/51 49/49/49
f 55/55/55 54/54/54 53/53/53
f 58/58/58 57/57/57 56/56/56
f 59/59/59 57/57/57 58/58/58
f 60/60/60 59/59/59 58/58/58
f 63/63/63 62/62/62 61/61/61
f 61/61/61 62/62/62 64/64/64
f 67/67/67 66/66/66 65/65/65
f 70/70/70 69/69/69 68/68/68
f 71/71/71 70/70/70 68/68/68
f 74/74/74 73/73/73 72/72/72
f 75/75/75 74/74/74 72/72/72
f 78/78/78 77/77/77 76/76/76
f 78/78/78 79/79/79 77/77/77
f 79/79/79 80/80/80 77/77/77
f 83/83/83 82/82/82 81/81/81
f 86/86/86 85/85/85 84/84/84
f 89/89/89 88/88/88 87/87/87
f 89/89/89 87/87/87 90/90/90
f 93/93/93 92/92/92 91/91/91
f 95/95/95 94/94/94 91/91/91
f 98/98/98 97/97/97 96/96/96
f 99/99/99 98/98/98 96/96/96
f 102/102/102 101/101/101 100/100/100
f 103/103/103 102/102/102 100/100/100
f 106/106/106 105/105/105 104/104/104
f 109/109/109 108/108/108 107/107/107
f 110/110/110 108/108/108 109/109/109
f 111/111/111 110/110/110 109/109/109
f 114/114/114 113/113/113 112/112/112
f 112/112/112 113/113/113 115/115/115
f 118/118/118 117/117/117 116/116/116
