g dam_06
v 15.15819 -9.059416 62.46877
v 14.76891 -9.059416 62.46877
v 14.76891 -9.059416 58.65676
v 15.15819 -9.059416 58.65676
v 15.15819 -9.059416 47.22074
v 14.76891 -9.059416 47.22074
v 14.76891 -9.059416 43.40873
v 15.15819 -9.059416 43.40873
v 15.15819 -9.059416 31.97271
v 14.76891 -9.059416 31.97271
v 14.76891 -9.059416 28.16069
v 15.15819 -9.059416 28.16069
v 15.15819 -9.059416 16.72467
v 14.76891 -9.059416 16.72467
v 14.76891 -9.059416 12.91266
v 15.15819 -9.059416 12.91266
v 15.15819 -9.059416 1.476635
v 14.76891 -9.059416 1.476635
v 14.76891 -9.059416 -2.335369
v 15.15819 -9.059416 -2.335369
v 15.15819 -9.059416 -13.7714
v 14.76891 -9.059416 -13.7714
v 14.76891 -9.059416 -17.5834
v 15.15819 -9.059416 -17.5834
v 15.15819 -9.059414 -29.01944
v 14.76891 -9.059414 -29.01944
v 14.76891 -9.059414 -32.83144
v 15.15819 -9.059414 -32.83144
v -38.97776 17.27044 -61.98319
v -45.986 17.27044 -39.49691
v -45.986 17.27044 -70.41125
v -11.57267 17.27044 -70.41125
v 45.986 17.27044 -61.98319
v -38.97776 17.27044 -61.98319
v 45.986 17.27044 -70.41125
v -45.986 17.27044 70.41124
v -38.97776 17.27044 -61.98319
v -38.97776 17.27044 70.41124
v -38.97776 17.27044 -61.98319
v 45.986 17.27044 -61.98319
v 45.986 -9.106581 -38.39999
v -1.709361 -9.106581 -38.39999
v 20.1023 -9.106579 -38.39999
v 45.986 -17.27044 -30.51956
v 33.349 -17.27044 -30.51956
v 33.349 -17.27044 70.41125
v 33.349 -17.27044 -30.51956
v 45.986 -17.27044 -30.51956
v 45.986 -17.27044 70.41123
v -38.97776 17.27044 70.41124
v -38.97776 17.27044 -61.98319
v -1.709361 -9.106581 -38.39999
v -1.709361 -9.106583 70.41125
v 20.10231 -9.106579 70.41125
v 20.1023 -9.106579 -38.39999
v 33.349 -17.27044 -30.51956
v 33.349 -17.27044 70.41125
v 9.852311 -9.106579 70.41125
v 9.852304 -9.106579 -38.39999
v 20.1023 -9.106579 -38.39999
v 20.10231 -9.106579 70.41125
v -1.709361 -9.106583 70.41125
v -1.709361 -9.106581 -38.39999
v 9.852304 -9.106579 -38.39999
v 9.852311 -9.106579 70.41125
v 19.86562 -9.093243 70.41125
v 19.86562 -9.093243 -38.39999
v 20.2549 -9.093243 -38.39999
v 20.2549 -9.093243 70.41125
v 9.463025 -9.093243 70.41124
v 9.463029 -9.093243 -38.39999
v 9.852304 -9.093243 -38.39999
v 9.852304 -9.093243 70.41124
vt 0.07202688 0.5713306
vt 0.07060878 0.5713306
vt 0.07060878 0.5712848
vt 0.07202688 0.5712848
vt 0.07202688 0.5711475
vt 0.07060878 0.5711475
vt 0.07060878 0.5711018
vt 0.07202688 0.5711018
vt 0.07202688 0.5709645
vt 0.07060878 0.5709645
vt 0.07060878 0.5709189
vt 0.07202688 0.5709189
vt 0.07202688 0.5707816
vt 0.07060878 0.5707816
vt 0.07060878 0.5707359
vt 0.07202688 0.5707359
vt 0.07202688 0.5705987
vt 0.07060878 0.5705987
vt 0.07060878 0.570553
vt 0.07202688 0.570553
vt 0.07202688 0.5704157
vt 0.07060878 0.5704157
vt 0.07060878 0.5703699
vt 0.07202688 0.5703699
vt 0.07202688 0.5702328
vt 0.07060878 0.5702328
vt 0.07060878 0.570187
vt 0.07202688 0.570187
vt 0.09622742 0.7397802
vt 0.09531736 0.7397802
vt 0.09531736 0.7395014
vt 0.09622742 0.7395014
vt 0.09713748 0.7397802
vt 0.09622742 0.7397802
vt 0.09713748 0.7395014
vt 0.09531736 0.7408798
vt 0.09622742 0.7397802
vt 0.09622742 0.7409849
vt 0.09622742 0.7397802
vt 0.09713748 0.7397802
vt 0.09713748 0.7397802
vt 0.09622742 0.7397802
vt 0.09622742 0.7397802
vt 0.09713748 0.7397802
vt 0.09622742 0.7397802
vt 0.09622742 0.7408319
vt 0.09622742 0.7397802
vt 0.09713748 0.7397802
vt 0.09713748 0.7408319
vt 0.09622742 0.7409849
vt 0.09622742 0.7397802
vt 0.09622742 0.7397802
vt 0.09622742 0.7408742
vt 0.09622742 0.7408742
vt 0.09622742 0.7397802
vt 0.09622742 0.7397802
vt 0.09622742 0.7408319
vt 0.1131267 0.7866532
vt 0.1131267 0.7750964
vt 0.1369999 0.7750964
vt 0.1369999 0.7866533
vt 0.09622742 0.7408742
vt 0.09622742 0.7397802
vt 0.09622742 0.7397802
vt 0.09622742 0.7408742
vt 0.07060878 0.5703847
vt 0.07060878 0.5703699
vt 0.07202688 0.5703699
vt 0.07202688 0.5703847
vt 0.07060878 0.5703849
vt 0.07060878 0.5703699
vt 0.07202688 0.5703699
vt 0.07202688 0.5703849
vn 0 1 0
vn 0 1 0
vn 0 1 0
vn 0 1 0
vn 0 1 0
vn 0 1 0
vn 0 1 0
vn 0 1 0
vn 0 1 0
vn 0 1 0
vn 0 1 0
vn 0 1 0
vn 0 1 0
vn 0 1 0
vn 0 1 0
vn 0 1 0
vn 0 1 0
vn 0 1 0
vn 0 1 0
vn 0 1 0
vn 0 1 0
vn 0 1 0
vn 0 1 0
vn 0 1 0
vn 0 1 0
vn 0 1 0
vn 0 1 0
vn 0 1 0
vn 0 1 0
vn 0 1 0
vn 0 1 0
vn 0 1 0
vn 0 1 0
vn 0 1 0
vn 0 1 0
vn 0 1 0
vn 0 1 0
vn 0 1 0
vn 0 0.6665233 0.7454842
vn 0 0.6665233 0.7454842
vn 0 0.6665233 0.7454842
vn 0 0.6665233 0.7454842
vn 0 0.6945073 0.7194856
vn 0 0.6945072 0.7194856
vn 0 0.6945072 0.7194856
vn 0 1 0
vn 0 1 0
vn 0 1 0
vn 0 1 0
vn 0.5777047 0.8162458 0
vn 0.5777047 0.8162459 0
vn 0.5777047 0.8162459 0
vn 0.5777047 0.8162459 0
vn 0.524659 0.8513125 0
vn 0.524659 0.8513125 0
vn 0.524659 0.8513125 0
vn 0.5246589 0.8513125 0
vn 0 1 0
vn 0 1 0
vn 0 1 0
vn 0 1 0
vn 0 1 0
vn 0 1 0
vn 0 1 0
vn 0 1 0
vn 0 1 0
vn 0 1 0
vn 0 1 0
vn 0 1 0
vn 0 1 0
vn 0 1 0
vn 0 1 0
vn 0 1 0
f 3/3/3 2/2/2 1/1/1
f 4/4/4 3/3/3 1/1/1
f 7/7/7 6/6/6 5/5/5
f 8/8/8 7/7/7 5/5/5
f 11/11/11 10/10/10 9/9/9
f 12/12/12 11/11/11 9/9/9
f 15/15/15 14/14/14 13/13/13
f 16/16/16 15/15/15 13/13/13
f 19/19/19 18/18/18 17/17/17
f 20/20/20 19/19/19 17/17/17
f 23/23/23 22/22/22 21/21/21
f 24/24/24 23/23/23 21/21/21
f 27/27/27 26/26/26 25/25/25
f 28/28/28 27/27/27 25/25/25
f 31/31/31 30/30/30 29/29/29
f 32/32/32 31/31/31 29/29/29
f 32/32/32 34/34/34 33/33/33
f 35/35/35 32/32/32 33/33/33
f 37/37/37 30/30/30 36/36/36
f 38/38/38 37/37/37 36/36/36
f 41/41/41 40/40/40 39/39/39
f 42/42/42 41/41/41 39/39/39
f 44/44/44 41/41/41 43/43/43
f 45/45/45 44/44/44 43/43/43
f 48/48/48 47/47/47 46/46/46
f 49/49/49 48/48/48 46/46/46
f 52/52/52 51/51/51 50/50/50
f 53/53/53 52/52/52 50/50/50
f 56/56/56 55/55/55 54/54/54
f 57/57/57 56/56/56 54/54/54
f 60/60/60 59/59/59 58/58/58
f 61/61/61 60/60/60 58/58/58
f 64/64/64 63/63/63 62/62/62
f 65/65/65 64/64/64 62/62/62
f 68/68/68 67/67/67 66/66/66
f 69/69/69 68/68/68 66/66/66
f 72/72/72 71/71/71 70/70/70
f 73/73/73 72/72/72 70/70/70
