g dam_04_collider
v 20.10231 -9.106579 58.0131
v 20.1023 -9.106579 -58.0131
v 33.349 -17.27044 -58.0131
v 33.34901 -17.27044 58.0131
v -38.97775 17.27044 58.0131
v -45.98599 17.27044 58.0131
v -45.986 17.27044 -58.0131
v -38.97776 17.27044 -58.0131
v -38.97775 17.27044 58.0131
v -38.97776 17.27044 -58.0131
v -1.709362 -9.106581 -58.0131
v -1.709358 -9.106581 58.0131
v -1.709358 -9.106581 58.0131
v -1.709362 -9.106581 -58.0131
v 20.1023 -9.106579 -58.0131
v 20.10231 -9.106579 58.01307
v 33.34901 -17.27044 58.0131
v 33.34901 -17.27044 -58.0131
v 45.986 -17.27044 -58.0131
v 45.98599 -17.27044 58.0131
vt 0.09622742 0.74204
vt 0.09622742 0.7408735
vt 0.09622742 0.7408311
vt 0.09622742 0.74204
vt 0.09622742 0.74204
vt 0.09531736 0.74204
vt 0.09531736 0.7410189
vt 0.09622742 0.7409843
vt 0.09622742 0.74204
vt 0.09622742 0.7409843
vt 0.09622742 0.7408735
vt 0.09622742 0.74204
vt 0.09622742 0.74204
vt 0.09622742 0.7408735
vt 0.09622742 0.7408736
vt 0.09622742 0.74204
vt 0.09713748 0.74204
vt 0.09713748 0.7408311
vt 0.09668245 0.7408311
vt 0.09668245 0.74204
vn 0.5246589 0.8513126 0
vn 0.5246588 0.8513126 0
vn 0.5246589 0.8513126 0
vn 0.5246588 0.8513126 0
vn 0 1 0
vn 0 1 0
vn 0 1 0
vn 0 1 0
vn 0.5777048 0.8162457 0
vn 0.5777049 0.8162457 0
vn 0.5777048 0.8162457 0
vn 0.5777049 0.8162457 0
vn 0 1 0
vn 0 1 0
vn 0 1 0
vn 0 1 0
vn 0 1 0
vn 0 1 0
vn 0 1 0
vn 0 1 0
f 3/3/3 2/2/2 1/1/1
f 4/4/4 3/3/3 1/1/1
f 7/7/7 6/6/6 5/5/5
f 8/8/8 7/7/7 5/5/5
f 11/11/11 10/10/10 9/9/9
f 12/12/12 11/11/11 9/9/9
f 15/15/15 14/14/14 13/13/13
f 16/16/16 15/15/15 13/13/13
f 19/19/19 18/18/18 17/17/17
f 20/20/20 19/19/19 17/17/17
