g factory_large_corner_collider
v -11.7572 4.841745 11.87397
v -11.7572 4.841745 -11.97196
v -10.35343 4.312435 -10.56906
v -11.7572 4.841745 11.87397
v -10.35343 4.312435 10.47892
v -11.7572 3.841745 -11.97196
v -11.7572 4.841745 -11.97196
v -11.7572 4.841745 11.87397
v -11.7572 3.841745 11.87397
v 10.35275 4.312435 -10.56906
v -10.35343 4.312435 -10.56906
v -11.7572 4.841745 -11.97283
v 11.75702 4.841745 -11.97283
v 11.75702 3.841745 -11.97283
v 11.75702 4.841745 -11.97283
v -11.7572 4.841745 -11.97283
v -11.7572 3.841745 -11.97283
v 7.585051 4.841745 11.88269
v -11.7572 4.841745 11.88269
v -10.35343 4.312435 10.47892
v 7.585051 4.841745 11.88269
v 7.585051 4.312435 10.47892
v -11.7572 3.841745 11.88269
v -11.7572 4.841745 11.88269
v 7.585051 4.841745 11.88269
v 7.585051 3.841745 11.88269
v 10.35275 4.312435 7.702156
v 10.35275 4.312435 -10.56906
v 11.75652 4.841745 -11.97196
v 11.75652 4.841745 7.702156
v 10.35275 4.312435 -10.56906
v 10.35275 3.841745 -10.56906
v 11.75652 3.841745 -11.97196
v 11.75652 4.841745 -11.97196
v 11.75652 3.841745 7.702156
v 11.75652 4.841745 7.702156
v 11.75652 4.841745 -11.97196
v 11.75652 3.841745 -11.97196
v 6.587902 4.312435 10.88554
v 10.7639 4.312435 6.709541
v 11.75652 4.841745 7.702157
v 7.580518 4.841745 11.87816
v 7.580518 3.841745 11.87816
v 7.580518 4.841745 11.87816
v 11.75652 4.841745 7.702157
v 11.75652 3.841745 7.702157
v 9.133245 -6.808016 11.97283
v 9.133245 -5.407842 11.97283
v 9.591936 -5.407842 11.51414
v 9.591936 -6.808016 11.51414
v 9.133245 -5.407842 11.97283
v 7.772303 -5.407842 10.61189
v 8.230993 -5.407842 10.1532
v 9.591936 -5.407842 11.51414
v 7.772303 -5.407842 10.61189
v 7.772303 -6.808016 10.61189
v 8.230993 -6.808016 10.1532
v 8.230993 -5.407842 10.1532
v 7.772303 -6.808016 10.61189
v 9.133245 -6.808016 11.97283
v 9.591936 -6.808016 11.51414
v 8.230993 -6.808016 10.1532
v 9.591936 -6.808016 11.51414
v 9.591936 -5.407842 11.51414
v 8.230993 -5.407842 10.1532
v 8.230993 -6.808016 10.1532
v 7.772303 -6.808016 10.61189
v 7.772303 -5.407842 10.61189
v 9.133245 -5.407842 11.97283
v 9.133245 -6.808016 11.97283
v 11.38386 -6.808016 9.722221
v 11.38386 -5.407842 9.722221
v 11.84255 -5.407842 9.263531
v 11.84255 -6.808016 9.263531
v 11.38386 -5.407842 9.722221
v 10.02291 -5.407842 8.361279
v 10.4816 -5.407842 7.902588
v 11.84255 -5.407842 9.263531
v 10.02291 -5.407842 8.361279
v 10.02291 -6.808016 8.361279
v 10.4816 -6.808016 7.902588
v 10.4816 -5.407842 7.902588
v 10.02291 -6.808016 8.361279
v 11.38386 -6.808016 9.722221
v 11.84255 -6.808016 9.263531
v 10.4816 -6.808016 7.902588
v 11.84255 -6.808016 9.263531
v 11.84255 -5.407842 9.263531
v 10.4816 -5.407842 7.902588
v 10.4816 -6.808016 7.902588
v 10.02291 -6.808016 8.361279
v 10.02291 -5.407842 8.361279
v 11.38386 -5.407842 9.722221
v 11.38386 -6.808016 9.722221
v 9.591936 -6.808016 11.51414
v 8.553381 -5.407842 10.47559
v 10.3453 -5.407842 8.683666
v 11.38386 -6.808016 9.722221
v -11.84255 -6.80915 11.95721
v -11.84255 4.312435 11.95721
v 7.585051 4.312435 11.95721
v 7.585051 -6.80915 11.95721
v -11.84255 4.312435 11.95721
v -11.84255 4.312435 -11.97283
v 7.585051 4.312435 -11.97283
v 7.585051 4.312435 11.95721
v -11.84255 4.312435 -11.97283
v -11.84255 -6.80915 -11.97283
v 7.585051 -6.80915 -11.97283
v 7.585051 4.312435 -11.97283
v -11.84255 -6.80915 -11.97283
v -11.84255 -6.80915 11.95721
v 7.585051 -6.80915 11.95721
v 7.585051 -6.80915 -11.97283
v 7.585051 -6.80915 11.95721
v 7.585051 4.312435 11.95721
v 7.585051 4.312435 -11.97283
v 7.585051 -6.80915 -11.97283
v -11.84255 -6.80915 -11.97283
v -11.84255 4.312435 -11.97283
v -11.84255 4.312435 11.95721
v -11.84255 -6.80915 11.95721
v 7.585051 -6.80915 11.95721
v 7.585051 4.312435 11.95721
v 11.84187 4.312435 7.652306
v 11.84187 -6.80915 7.652306
v 7.585051 4.312435 11.95721
v 7.585051 4.312435 -11.97283
v 11.84187 4.312435 -11.97283
v 11.84187 4.312435 7.652306
v 7.585051 4.312435 -11.97283
v 7.585051 -6.80915 -11.97283
v 11.84187 -6.80915 -11.97283
v 11.84187 4.312435 -11.97283
v 7.585051 -6.80915 -11.97283
v 7.585051 -6.80915 11.95721
v 11.84187 -6.80915 7.652306
v 11.84187 -6.80915 -11.97283
v 11.84187 -6.80915 7.652306
v 11.84187 4.312435 7.652306
v 11.84187 4.312435 -11.97283
v 11.84187 -6.80915 -11.97283
v 7.585051 -6.80915 -11.97283
v 7.585051 4.312435 -11.97283
v 7.585051 4.312435 11.95721
v 7.585051 -6.80915 11.95721
v -8.512728 4.297639 6.907738
v -8.512728 5.297639 6.907738
v -6.2316 5.297639 6.907738
v -6.2316 4.297639 6.907738
v -8.512728 5.297639 6.907738
v -8.512728 5.297639 5.852257
v -6.2316 5.297639 5.852257
v -6.2316 5.297639 6.907738
v -8.512728 5.297639 5.852257
v -8.512728 4.297639 5.852257
v -6.2316 4.297639 5.852257
v -6.2316 5.297639 5.852257
v -8.512728 4.297639 5.852257
v -8.512728 4.297639 6.907738
v -6.2316 4.297639 6.907738
v -6.2316 4.297639 5.852257
v -6.2316 4.297639 6.907738
v -6.2316 5.297639 6.907738
v -6.2316 5.297639 5.852257
v -6.2316 4.297639 5.852257
v -8.512728 4.297639 5.852257
v -8.512728 5.297639 5.852257
v -8.512728 5.297639 6.907738
v -8.512728 4.297639 6.907738
v -8.512728 4.297639 9.167442
v -8.512728 5.297639 9.167442
v -6.2316 5.297639 9.167442
v -6.2316 4.297639 9.167442
v -8.512728 5.297639 9.167442
v -8.512728 5.297639 8.111961
v -6.2316 5.297639 8.111961
v -6.2316 5.297639 9.167442
v -8.512728 5.297639 8.111961
v -8.512728 4.297639 8.111961
v -6.2316 4.297639 8.111961
v -6.2316 5.297639 8.111961
v -8.512728 4.297639 8.111961
v -8.512728 4.297639 9.167442
v -6.2316 4.297639 9.167442
v -6.2316 4.297639 8.111961
v -6.2316 4.297639 9.167442
v -6.2316 5.297639 9.167442
v -6.2316 5.297639 8.111961
v -6.2316 4.297639 8.111961
v -8.512728 4.297639 8.111961
v -8.512728 5.297639 8.111961
v -8.512728 5.297639 9.167442
v -8.512728 4.297639 9.167442
v -6.462038 4.312435 -4.165443
v -6.462038 6.80915 -4.165443
v -1.801607 6.80915 -4.165443
v -1.801607 4.312435 -4.165443
v -6.462038 6.80915 -4.165443
v -6.462038 6.80915 -9.031296
v -1.801607 6.80915 -9.031296
v -1.801607 6.80915 -4.165443
v -6.462038 6.80915 -9.031296
v -6.462038 4.312435 -9.031296
v -1.801607 4.312435 -9.031296
v -1.801607 6.80915 -9.031296
v -6.462038 4.312435 -9.031296
v -6.462038 4.312435 -4.165443
v -1.801607 4.312435 -4.165443
v -1.801607 4.312435 -9.031296
v -1.801607 4.312435 -4.165443
v -1.801607 6.80915 -4.165443
v -1.801607 6.80915 -9.031296
v -1.801607 4.312435 -9.031296
v -6.462038 4.312435 -9.031296
v -6.462038 6.80915 -9.031296
v -6.462038 6.80915 -4.165443
v -6.462038 4.312435 -4.165443
vt 0.375 0.25
vt 0.375 0.5
vt 0.625 0.5
vt 0.375 0.25
vt 0.625 0.25
vt 0.125 0
vt 0.125 0.25
vt 0.375 0.25
vt 0.375 0
vt 0.375 0.25
vt 0.375 0.5
vt 0.625 0.5
vt 0.625 0.25
vt 0.625 0
vt 0.625 0.25
vt 0.875 0.25
vt 0.875 0
vt 0.375 0.25
vt 0.375 0.5
vt 0.625 0.5
vt 0.375 0.25
vt 0.625 0.25
vt 0.125 0
vt 0.125 0.25
vt 0.375 0.25
vt 0.375 0
vt 0.375 0.25
vt 0.375 0.5
vt 0.625 0.5
vt 0.625 0.25
vt 0.375 0.5
vt 0.375 0.75
vt 0.625 0.75
vt 0.625 0.5
vt 0.625 0
vt 0.625 0.25
vt 0.875 0.25
vt 0.875 0
vt 0.375 0.25
vt 0.375 0.5
vt 0.625 0.5
vt 0.625 0.25
vt 0.625 0
vt 0.625 0.25
vt 0.875 0.25
vt 0.875 0
vt 0.375 0
vt 0.375 0.25
vt 0.625 0.25
vt 0.625 0
vt 0.375 0.25
vt 0.375 0.5
vt 0.625 0.5
vt 0.625 0.25
vt 0.375 0.5
vt 0.375 0.75
vt 0.625 0.75
vt 0.625 0.5
vt 0.375 0.75
vt 0.375 1
vt 0.625 1
vt 0.625 0.75
vt 0.625 0
vt 0.625 0.25
vt 0.875 0.25
vt 0.875 0
vt 0.125 0
vt 0.125 0.25
vt 0.375 0.25
vt 0.375 0
vt 0.375 0
vt 0.375 0.25
vt 0.625 0.25
vt 0.625 0
vt 0.375 0.25
vt 0.375 0.5
vt 0.625 0.5
vt 0.625 0.25
vt 0.375 0.5
vt 0.375 0.75
vt 0.625 0.75
vt 0.625 0.5
vt 0.375 0.75
vt 0.375 1
vt 0.625 1
vt 0.625 0.75
vt 0.625 0
vt 0.625 0.25
vt 0.875 0.25
vt 0.875 0
vt 0.125 0
vt 0.125 0.25
vt 0.375 0.25
vt 0.375 0
vt 0.375 0
vt 0.375 0.25
vt 0.625 0.25
vt 0.625 0
vt 0.375 0
vt 0.375 0.25
vt 0.625 0.25
vt 0.625 0
vt 0.375 0.25
vt 0.375 0.5
vt 0.625 0.5
vt 0.625 0.25
vt 0.375 0.5
vt 0.375 0.75
vt 0.625 0.75
vt 0.625 0.5
vt 0.375 0.75
vt 0.375 1
vt 0.625 1
vt 0.625 0.75
vt 0.625 0
vt 0.625 0.25
vt 0.875 0.25
vt 0.875 0
vt 0.125 0
vt 0.125 0.25
vt 0.375 0.25
vt 0.375 0
vt 0.375 0
vt 0.375 0.25
vt 0.625 0.25
vt 0.625 0
vt 0.375 0.25
vt 0.375 0.5
vt 0.625 0.5
vt 0.625 0.25
vt 0.375 0.5
vt 0.375 0.75
vt 0.625 0.75
vt 0.625 0.5
vt 0.375 0.75
vt 0.375 1
vt 0.625 1
vt 0.625 0.75
vt 0.625 0
vt 0.625 0.25
vt 0.875 0.25
vt 0.875 0
vt 0.125 0
vt 0.125 0.25
vt 0.375 0.25
vt 0.375 0
vt 0.375 0
vt 0.375 0.25
vt 0.625 0.25
vt 0.625 0
vt 0.375 0.25
vt 0.375 0.5
vt 0.625 0.5
vt 0.625 0.25
vt 0.375 0.5
vt 0.375 0.75
vt 0.625 0.75
vt 0.625 0.5
vt 0.375 0.75
vt 0.375 1
vt 0.625 1
vt 0.625 0.75
vt 0.625 0
vt 0.625 0.25
vt 0.875 0.25
vt 0.875 0
vt 0.125 0
vt 0.125 0.25
vt 0.375 0.25
vt 0.375 0
vt 0.375 0
vt 0.375 0.25
vt 0.625 0.25
vt 0.625 0
vt 0.375 0.25
vt 0.375 0.5
vt 0.625 0.5
vt 0.625 0.25
vt 0.375 0.5
vt 0.375 0.75
vt 0.625 0.75
vt 0.625 0.5
vt 0.375 0.75
vt 0.375 1
vt 0.625 1
vt 0.625 0.75
vt 0.625 0
vt 0.625 0.25
vt 0.875 0.25
vt 0.875 0
vt 0.125 0
vt 0.125 0.25
vt 0.375 0.25
vt 0.375 0
vt 0.375 0
vt 0.375 0.25
vt 0.625 0.25
vt 0.625 0
vt 0.375 0.25
vt 0.375 0.5
vt 0.625 0.5
vt 0.625 0.25
vt 0.375 0.5
vt 0.375 0.75
vt 0.625 0.75
vt 0.625 0.5
vt 0.375 0.75
vt 0.375 1
vt 0.625 1
vt 0.625 0.75
vt 0.625 0
vt 0.625 0.25
vt 0.875 0.25
vt 0.875 0
vt 0.125 0
vt 0.125 0.25
vt 0.375 0.25
vt 0.375 0
vn 0.3528155 0.9356929 0
vn 0.3528155 0.9356928 0
vn 0.3528155 0.9356929 0
vn 0.3528155 0.9356929 0
vn 0.3528155 0.9356928 0
vn -1 0 0
vn -1 0 0
vn -1 0 0
vn -1 0 0
vn 0 0.9356931 0.3528151
vn 0 0.9356931 0.3528151
vn 0 0.9356931 0.3528151
vn 0 0.9356931 0.3528151
vn 0 0 -1
vn 0 0 -1
vn 0 0 -1
vn 0 0 -1
vn 0 0.935693 -0.3528153
vn 0 0.935693 -0.3528153
vn 0 0.935693 -0.3528153
vn 0 0.935693 -0.3528153
vn 0 0.935693 -0.3528153
vn 0 0 1
vn 0 0 1
vn 0 0 1
vn 0 0 1
vn -0.3528154 0.935693 0
vn -0.3528154 0.935693 0
vn -0.3528154 0.9356929 0
vn -0.3528154 0.935693 0
vn -0.7068877 0 -0.7073259
vn -0.7068877 0 -0.7073258
vn -0.7068877 0 -0.7073258
vn -0.7068877 0 -0.7073259
vn 1 0 0
vn 1 0 0
vn 1 0 0
vn 1 0 0
vn -0.249478 0.9356928 -0.2494787
vn -0.249478 0.9356928 -0.2494787
vn -0.249478 0.9356928 -0.2494787
vn -0.249478 0.9356928 -0.2494787
vn 0.7071065 0 0.7071071
vn 0.7071065 0 0.7071071
vn 0.7071065 0 0.7071071
vn 0.7071065 0 0.7071071
vn 0.7071074 0 0.7071062
vn 0.7071074 0 0.7071062
vn 0.7071074 0 0.7071062
vn 0.7071074 0 0.7071062
vn 0 1 0
vn 0 1 0
vn 0 1 0
vn 0 1 0
vn -0.7071069 0 -0.7071066
vn -0.7071069 0 -0.7071066
vn -0.7071069 0 -0.7071066
vn -0.7071069 0 -0.7071066
vn 0 -1 0
vn 0 -1 0
vn 0 -1 0
vn 0 -1 0
vn 0.7071068 0 -0.7071068
vn 0.7071068 0 -0.7071068
vn 0.7071068 0 -0.7071068
vn 0.7071068 0 -0.7071068
vn -0.7071069 0 0.7071066
vn -0.7071069 0 0.7071066
vn -0.7071069 0 0.7071066
vn -0.7071069 0 0.7071066
vn 0.7071069 0 0.7071066
vn 0.7071069 0 0.7071066
vn 0.7071069 0 0.7071066
vn 0.7071069 0 0.7071066
vn 0 1 0
vn 0 1 0
vn 0 1 0
vn 0 1 0
vn -0.7071069 0 -0.7071066
vn -0.7071069 0 -0.7071066
vn -0.7071069 0 -0.7071066
vn -0.7071069 0 -0.7071066
vn 0 -1 0
vn 0 -1 0
vn 0 -1 0
vn 0 -1 0
vn 0.7071068 0 -0.7071068
vn 0.7071068 0 -0.7071068
vn 0.7071068 0 -0.7071068
vn 0.7071068 0 -0.7071068
vn -0.7071068 0 0.7071068
vn -0.7071068 0 0.7071068
vn -0.7071068 0 0.7071068
vn -0.7071068 0 0.7071068
vn 0.487911 0.7237995 0.4879111
vn 0.487911 0.7237995 0.4879111
vn 0.487911 0.7237995 0.4879111
vn 0.487911 0.7237995 0.4879111
vn 0 0 1
vn 0 0 1
vn 0 0 1
vn 0 0 1
vn 0 1 0
vn 0 1 0
vn 0 1 0
vn 0 1 0
vn 0 0 -1
vn 0 0 -1
vn 0 0 -1
vn 0 0 -1
vn 0 -1 0
vn 0 -1 0
vn 0 -1 0
vn 0 -1 0
vn 1 0 0
vn 1 0 0
vn 1 0 0
vn 1 0 0
vn -1 0 0
vn -1 0 0
vn -1 0 0
vn -1 0 0
vn 0.7110665 0 0.7031248
vn 0.7110665 0 0.7031248
vn 0.7110665 0 0.7031248
vn 0.7110665 0 0.7031248
vn 0 1 0
vn 0 1 0
vn 0 1 0
vn 0 1 0
vn 0 0 -1
vn 0 0 -1
vn 0 0 -1
vn 0 0 -1
vn 0 -1 0
vn 0 -1 0
vn 0 -1 0
vn 0 -1 0
vn 1 0 0
vn 1 0 0
vn 1 0 0
vn 1 0 0
vn -1 0 0
vn -1 0 0
vn -1 0 0
vn -1 0 0
vn 0 0 1
vn 0 0 1
vn 0 0 1
vn 0 0 1
vn 0 1 0
vn 0 1 0
vn 0 1 0
vn 0 1 0
vn 0 0 -1
vn 0 0 -1
vn 0 0 -1
vn 0 0 -1
vn 0 -1 0
vn 0 -1 0
vn 0 -1 0
vn 0 -1 0
vn 1 0 0
vn 1 0 0
vn 1 0 0
vn 1 0 0
vn -1 0 0
vn -1 0 0
vn -1 0 0
vn -1 0 0
vn 0 0 1
vn 0 0 1
vn 0 0 1
vn 0 0 1
vn 0 1 0
vn 0 1 0
vn 0 1 0
vn 0 1 0
vn 0 0 -1
vn 0 0 -1
vn 0 0 -1
vn 0 0 -1
vn 0 -1 0
vn 0 -1 0
vn 0 -1 0
vn 0 -1 0
vn 1 0 0
vn 1 0 0
vn 1 0 0
vn 1 0 0
vn -1 0 0
vn -1 0 0
vn -1 0 0
vn -1 0 0
vn 0 0 1
vn 0 0 1
vn 0 0 1
vn 0 0 1
vn 0 1 0
vn 0 1 0
vn 0 1 0
vn 0 1 0
vn 0 0 -1
vn 0 0 -1
vn 0 0 -1
vn 0 0 -1
vn 0 -1 0
vn 0 -1 0
vn 0 -1 0
vn 0 -1 0
vn 1 0 0
vn 1 0 0
vn 1 0 0
vn 1 0 0
vn -1 0 0
vn -1 0 0
vn -1 0 0
vn -1 0 0
f 3/3/3 2/2/2 1/1/1
f 5/5/5 3/3/3 4/4/4
f 8/8/8 7/7/7 6/6/6
f 9/9/9 8/8/8 6/6/6
f 12/12/12 11/11/11 10/10/10
f 13/13/13 12/12/12 10/10/10
f 16/16/16 15/15/15 14/14/14
f 17/17/17 16/16/16 14/14/14
f 20/20/20 19/19/19 18/18/18
f 22/22/22 20/20/20 21/21/21
f 25/25/25 24/24/24 23/23/23
f 26/26/26 25/25/25 23/23/23
f 29/29/29 28/28/28 27/27/27
f 30/30/30 29/29/29 27/27/27
f 33/33/33 32/32/32 31/31/31
f 34/34/34 33/33/33 31/31/31
f 37/37/37 36/36/36 35/35/35
f 38/38/38 37/37/37 35/35/35
f 41/41/41 40/40/40 39/39/39
f 42/42/42 41/41/41 39/39/39
f 45/45/45 44/44/44 43/43/43
f 46/46/46 45/45/45 43/43/43
f 49/49/49 48/48/48 47/47/47
f 50/50/50 49/49/49 47/47/47
f 53/53/53 52/52/52 51/51/51
f 54/54/54 53/53/53 51/51/51
f 57/57/57 56/56/56 55/55/55
f 58/58/58 57/57/57 55/55/55
f 61/61/61 60/60/60 59/59/59
f 62/62/62 61/61/61 59/59/59
f 65/65/65 64/64/64 63/63/63
f 66/66/66 65/65/65 63/63/63
f 69/69/69 68/68/68 67/67/67
f 70/70/70 69/69/69 67/67/67
f 73/73/73 72/72/72 71/71/71
f 74/74/74 73/73/73 71/71/71
f 77/77/77 76/76/76 75/75/75
f 78/78/78 77/77/77 75/75/75
f 81/81/81 80/80/80 79/79/79
f 82/82/82 81/81/81 79/79/79
f 85/85/85 84/84/84 83/83/83
f 86/86/86 85/85/85 83/83/83
f 89/89/89 88/88/88 87/87/87
f 90/90/90 89/89/89 87/87/87
f 93/93/93 92/92/92 91/91/91
f 94/94/94 93/93/93 91/91/91
f 97/97/97 96/96/96 95/95/95
f 98/98/98 97/97/97 95/95/95
f 101/101/101 100/100/100 99/99/99
f 102/102/102 101/101/101 99/99/99
f 105/105/105 104/104/104 103/103/103
f 106/106/106 105/105/105 103/103/103
f 109/109/109 108/108/108 107/107/107
f 110/110/110 109/109/109 107/107/107
f 113/113/113 112/112/112 111/111/111
f 114/114/114 113/113/113 111/111/111
f 117/117/117 116/116/116 115/115/115
f 118/118/118 117/117/117 115/115/115
f 121/121/121 120/120/120 119/119/119
f 122/122/122 121/121/121 119/119/119
f 125/125/125 124/124/124 123/123/123
f 126/126/126 125/125/125 123/123/123
f 129/129/129 128/128/128 127/127/127
f 130/130/130 129/129/129 127/127/127
f 133/133/133 132/132/132 131/131/131
f 134/134/134 133/133/133 131/131/131
f 137/137/137 136/136/136 135/135/135
f 138/138/138 137/137/137 135/135/135
f 141/141/141 140/140/140 139/139/139
f 142/142/142 141/141/141 139/139/139
f 145/145/145 144/144/144 143/143/143
f 146/146/146 145/145/145 143/143/143
f 149/149/149 148/148/148 147/147/147
f 150/150/150 149/149/149 147/147/147
f 153/153/153 152/152/152 151/151/151
f 154/154/154 153/153/153 151/151/151
f 157/157/157 156/156/156 155/155/155
f 158/158/158 157/157/157 155/155/155
f 161/161/161 160/160/160 159/159/159
f 162/162/162 161/161/161 159/159/159
f 165/165/165 164/164/164 163/163/163
f 166/166/166 165/165/165 163/163/163
f 169/169/169 168/168/168 167/167/167
f 170/170/170 169/169/169 167/167/167
f 173/173/173 172/172/172 171/171/171
f 174/174/174 173/173/173 171/171/171
f 177/177/177 176/176/176 175/175/175
f 178/178/178 177/177/177 175/175/175
f 181/181/181 180/180/180 179/179/179
f 182/182/182 181/181/181 179/179/179
f 185/185/185 184/184/184 183/183/183
f 186/186/186 185/185/185 183/183/183
f 189/189/189 188/188/188 187/187/187
f 190/190/190 189/189/189 187/187/187
f 193/193/193 192/192/192 191/191/191
f 194/194/194 193/193/193 191/191/191
f 197/197/197 196/196/196 195/195/195
f 198/198/198 197/197/197 195/195/195
f 201/201/201 200/200/200 199/199/199
f 202/202/202 201/201/201 199/199/199
f 205/205/205 204/204/204 203/203/203
f 206/206/206 205/205/205 203/203/203
f 209/209/209 208/208/208 207/207/207
f 210/210/210 209/209/209 207/207/207
f 213/213/213 212/212/212 211/211/211
f 214/214/214 213/213/213 211/211/211
f 217/217/217 216/216/216 215/215/215
f 218/218/218 217/217/217 215/215/215
