g fence_01
v -2.358987 -1.002982 0.08775926
v -2.276146 -1.002982 0.004918337
v -2.358987 -1.002982 -0.08482623
v -2.448731 -1.002982 0.004918337
v -2.276146 -1.002982 0.004918337
v -2.276146 3.712059 0.004918337
v -2.358987 3.712059 -0.08482623
v -2.358987 -1.002982 -0.08482623
v -2.276146 4.533567 -0.7130381
v -2.358987 4.616408 -0.7061347
v -2.448731 4.533567 -0.7130381
v -2.358987 4.443822 -0.7199415
v -2.358987 3.712059 0.08775926
v -2.358987 -1.002982 0.08775926
v -2.448731 -1.002982 0.004918337
v -2.448731 3.712059 0.004918337
v -2.448731 -1.002982 0.004918337
v -2.358987 -1.002982 -0.08482623
v -2.358987 3.712059 -0.08482623
v -2.448731 3.712059 0.004918337
v -2.358987 3.712059 0.08775926
v -2.276146 3.712059 0.004918337
v -2.276146 -1.002982 0.004918337
v -2.358987 -1.002982 0.08775926
v -2.276146 3.712059 0.004918337
v -2.276146 4.533567 -0.7130381
v -2.358987 4.443822 -0.7199415
v -2.358987 3.712059 -0.08482623
v -2.358987 3.712059 -0.08482623
v -2.358987 4.443822 -0.7199415
v -2.448731 4.533567 -0.7130381
v -2.358987 3.712059 -0.08482623
v -2.448731 3.712059 0.004918337
v -2.448731 3.712059 0.004918337
v -2.448731 4.533567 -0.7130381
v -2.358987 4.616408 -0.7061347
v -2.448731 3.712059 0.004918337
v -2.358987 3.712059 0.08775926
v -2.358987 3.712059 0.08775926
v -2.358987 4.616408 -0.7061347
v -2.276146 4.533567 -0.7130381
v -2.276146 3.712059 0.004918337
v 2.335344 3.919161 -0.1814742
v 2.335344 3.967486 -0.1814742
v 2.335344 3.967486 -0.2228947
v 2.335344 3.919161 -0.2228947
v 2.335344 3.967486 -0.1814742
v -2.317566 3.967486 -0.1814742
v -2.317566 3.967486 -0.2228947
v 2.335344 3.967486 -0.2228947
v -2.317566 3.967486 -0.1814742
v -2.317566 3.919161 -0.1814742
v -2.317566 3.919161 -0.2228947
v -2.317566 3.967486 -0.2228947
v -2.317566 3.919161 -0.1814742
v 2.335344 3.919161 -0.1814742
v 2.335344 3.919161 -0.2228947
v -2.317566 3.919161 -0.2228947
v 2.335344 3.919161 -0.2228947
v 2.335344 3.967486 -0.2228947
v -2.317566 3.967486 -0.2228947
v -2.317566 3.919161 -0.2228947
v -2.317566 3.919161 -0.1814742
v -2.317566 3.967486 -0.1814742
v 2.335344 3.967486 -0.1814742
v 2.335344 3.919161 -0.1814742
v 2.335344 4.209105 -0.4438045
v 2.335344 4.25743 -0.4438045
v 2.335344 4.25743 -0.485225
v 2.335344 4.209105 -0.485225
v 2.335344 4.25743 -0.4438045
v -2.317566 4.25743 -0.4438045
v -2.317566 4.25743 -0.485225
v 2.335344 4.25743 -0.485225
v -2.317566 4.25743 -0.4438045
v -2.317566 4.209105 -0.4438045
v -2.317566 4.209105 -0.485225
v -2.317566 4.25743 -0.485225
v -2.317566 4.209105 -0.4438045
v 2.335344 4.209105 -0.4438045
v 2.335344 4.209105 -0.485225
v -2.317566 4.209105 -0.485225
v 2.335344 4.209105 -0.485225
v 2.335344 4.25743 -0.485225
v -2.317566 4.25743 -0.485225
v -2.317566 4.209105 -0.485225
v -2.317566 4.209105 -0.4438045
v -2.317566 4.25743 -0.4438045
v 2.335344 4.25743 -0.4438045
v 2.335344 4.209105 -0.4438045
v 2.356054 3.656832 0.05324221
v 2.356054 3.718962 -0.01579189
v 2.356054 3.656832 -0.07792282
v 2.356054 3.587797 -0.01579189
v 2.356054 3.718962 -0.01579189
v -2.345181 3.718962 -0.01579189
v -2.345181 3.656832 -0.07792282
v 2.356054 3.656832 -0.07792282
v -2.345181 3.718962 -0.01579189
v -2.345181 3.656832 0.05324221
v -2.345181 3.587797 -0.01579189
v -2.345181 3.656832 -0.07792282
v -2.345181 3.656832 0.05324221
v 2.356054 3.656832 0.05324221
v 2.356054 3.587797 -0.01579189
v -2.345181 3.587797 -0.01579189
v 2.356054 3.587797 -0.01579189
v 2.356054 3.656832 -0.07792282
v -2.345181 3.656832 -0.07792282
v -2.345181 3.587797 -0.01579189
v -2.345181 3.656832 0.05324221
v -2.345181 3.718962 -0.01579189
v 2.356054 3.718962 -0.01579189
v 2.356054 3.656832 0.05324221
v 2.362957 -1.002982 0.08775926
v 2.445798 -1.002982 0.004918337
v 2.362957 -1.002982 -0.08482623
v 2.273213 -1.002982 0.004918337
v 2.445798 -1.002982 0.004918337
v 2.445798 3.712059 0.004918337
v 2.362957 3.712059 -0.08482623
v 2.362957 -1.002982 -0.08482623
v 2.445798 4.533567 -0.7130381
v 2.362957 4.616408 -0.7061347
v 2.273213 4.533567 -0.7130381
v 2.362957 4.443822 -0.7199415
v 2.362957 3.712059 0.08775926
v 2.362957 -1.002982 0.08775926
v 2.273213 -1.002982 0.004918337
v 2.273213 3.712059 0.004918337
v 2.273213 -1.002982 0.004918337
v 2.362957 -1.002982 -0.08482623
v 2.362957 3.712059 -0.08482623
v 2.273213 3.712059 0.004918337
v 2.362957 3.712059 0.08775926
v 2.445798 3.712059 0.004918337
v 2.445798 -1.002982 0.004918337
v 2.362957 -1.002982 0.08775926
v 2.445798 3.712059 0.004918337
v 2.445798 4.533567 -0.7130381
v 2.362957 4.443822 -0.7199415
v 2.362957 3.712059 -0.08482623
v 2.362957 3.712059 -0.08482623
v 2.362957 4.443822 -0.7199415
v 2.273213 4.533567 -0.7130381
v 2.362957 3.712059 -0.08482623
v 2.273213 3.712059 0.004918337
v 2.273213 3.712059 0.004918337
v 2.273213 4.533567 -0.7130381
v 2.362957 4.616408 -0.7061347
v 2.273213 3.712059 0.004918337
v 2.362957 3.712059 0.08775926
v 2.362957 3.712059 0.08775926
v 2.362957 4.616408 -0.7061347
v 2.445798 4.533567 -0.7130381
v 2.445798 3.712059 0.004918337
v 2.335344 4.457629 -0.630197
v 2.335344 4.49905 -0.630197
v 2.335344 4.49905 -0.6716175
v 2.335344 4.457629 -0.6716175
v 2.335344 4.49905 -0.630197
v -2.317566 4.49905 -0.630197
v -2.317566 4.49905 -0.6716175
v 2.335344 4.49905 -0.6716175
v -2.317566 4.49905 -0.630197
v -2.317566 4.457629 -0.630197
v -2.317566 4.457629 -0.6716175
v -2.317566 4.49905 -0.6716175
v -2.317566 4.457629 -0.630197
v 2.335344 4.457629 -0.630197
v 2.335344 4.457629 -0.6716175
v -2.317566 4.457629 -0.6716175
v 2.335344 4.457629 -0.6716175
v 2.335344 4.49905 -0.6716175
v -2.317566 4.49905 -0.6716175
v -2.317566 4.457629 -0.6716175
v -2.317566 4.457629 -0.630197
v -2.317566 4.49905 -0.630197
v 2.335344 4.49905 -0.630197
v 2.335344 4.457629 -0.630197
vt 0.2718158 0.2006751
vt 0.2718158 0.2006751
vt 0.2718158 0.2006751
vt 0.2718158 0.2006751
vt 0.244454 0.2006751
vt 0.244454 0.2280369
vt 0.2471902 0.2280369
vt 0.2471902 0.2006751
vt 0.244454 0.2335093
vt 0.2471902 0.2335093
vt 0.2471902 0.2335093
vt 0.2471902 0.2335093
vt 0.2170922 0.4031527
vt 0.2170922 0.4305145
vt 0.2170922 0.4305145
vt 0.2170922 0.4031527
vt 0.1131172 0.2636073
vt 0.1131172 0.2636073
vt 0.1131172 0.2909691
vt 0.1131172 0.2909691
vt 0.2526625 0.2280369
vt 0.2526625 0.2280369
vt 0.2526625 0.2006751
vt 0.2526625 0.2006751
vt 0.244454 0.2280369
vt 0.244454 0.2335093
vt 0.2471902 0.2335093
vt 0.2471902 0.2280369
vt 0.2034112 0.5974218
vt 0.2034112 0.6028942
vt 0.2034112 0.6028942
vt 0.2034112 0.5974218
vt 0.2034112 0.5974218
vt 0.2499264 0.7533843
vt 0.2553988 0.7479119
vt 0.2553988 0.7479119
vt 0.2499264 0.7533843
vt 0.2499264 0.7533843
vt 0.08301912 0.1185895
vt 0.08301912 0.1267981
vt 0.08301912 0.1267981
vt 0.08301912 0.1185895
vt 0.2772882 0.2006751
vt 0.2772882 0.2006751
vt 0.2772882 0.2006751
vt 0.2772882 0.2006751
vt 0.2362455 0.496183
vt 0.2362455 0.5208086
vt 0.2362455 0.5208086
vt 0.2362455 0.496183
vt 0.2772882 0.2006751
vt 0.2772882 0.2006751
vt 0.2772882 0.2006751
vt 0.2772882 0.2006751
vt 0.4086251 0.4004165
vt 0.4086251 0.4250422
vt 0.4086251 0.4250422
vt 0.4086251 0.4004165
vt 0.2636073 0.2280369
vt 0.2663435 0.2280369
vt 0.2663435 0.2006751
vt 0.2636073 0.2006751
vt 0.2718158 0.2280369
vt 0.2718158 0.2280369
vt 0.2718158 0.2006751
vt 0.2718158 0.2006751
vt 0.2772882 0.2006751
vt 0.2772882 0.2006751
vt 0.2772882 0.2006751
vt 0.2772882 0.2006751
vt 0.2362455 0.496183
vt 0.2362455 0.5208086
vt 0.2362455 0.5208086
vt 0.2362455 0.496183
vt 0.2772882 0.2006751
vt 0.2772882 0.2006751
vt 0.2772882 0.2006751
vt 0.2772882 0.2006751
vt 0.4086251 0.4004165
vt 0.4086251 0.4250422
vt 0.4086251 0.4250422
vt 0.4086251 0.4004165
vt 0.2663435 0.2280369
vt 0.2663435 0.2280369
vt 0.2663435 0.2006751
vt 0.2663435 0.2006751
vt 0.2690797 0.2280369
vt 0.2690797 0.2280369
vt 0.2690797 0.2006751
vt 0.2690797 0.2006751
vt 0.274552 0.2006751
vt 0.274552 0.2006751
vt 0.274552 0.2006751
vt 0.274552 0.2006751
vt 0.2636073 0.2006751
vt 0.2636073 0.2280369
vt 0.2636073 0.2280369
vt 0.2636073 0.2006751
vt 0.2772882 0.2006751
vt 0.274552 0.2006751
vt 0.2772882 0.2006751
vt 0.2772882 0.2006751
vt 0.3566376 0.3894718
vt 0.3566376 0.4168336
vt 0.3566376 0.4168336
vt 0.3566376 0.3894718
vt 0.3566376 0.4168336
vt 0.3593737 0.4168336
vt 0.3593737 0.3894718
vt 0.3566376 0.3894718
vt 0.09396386 0.2362455
vt 0.09396386 0.2362455
vt 0.09396386 0.2088836
vt 0.09396386 0.2088836
vt 0.274552 0.2006751
vt 0.274552 0.2006751
vt 0.274552 0.2006751
vt 0.2718158 0.2006751
vt 0.1185895 0.2636073
vt 0.1185895 0.2909691
vt 0.1213257 0.2909691
vt 0.1213257 0.2636073
vt 0.2553988 0.2335093
vt 0.2553988 0.2335093
vt 0.2553988 0.2335093
vt 0.2553988 0.2335093
vt 0.2553988 0.2061474
vt 0.2553988 0.2335093
vt 0.2553988 0.2335093
vt 0.2553988 0.2061474
vt 0.2553988 0.2006751
vt 0.2553988 0.2006751
vt 0.2553988 0.2280369
vt 0.2553988 0.2280369
vt 0.2307731 0.4250422
vt 0.2307731 0.4250422
vt 0.2307731 0.3976803
vt 0.2307731 0.3976803
vt 0.2116198 0.5974218
vt 0.2116198 0.6028942
vt 0.2116198 0.6028942
vt 0.2116198 0.5974218
vt 0.2553988 0.2280369
vt 0.2553988 0.2335093
vt 0.2553988 0.2335093
vt 0.2553988 0.2280369
vt 0.2553988 0.2280369
vt 0.0857553 0.09943623
vt 0.09122767 0.09396386
vt 0.09122767 0.09122767
vt 0.0857553 0.09943623
vt 0.0857553 0.09943623
vt 0.2636073 0.7752738
vt 0.2636073 0.7807462
vt 0.2636073 0.7807462
vt 0.2636073 0.7752738
vt 0.274552 0.2006751
vt 0.274552 0.2006751
vt 0.2772882 0.2006751
vt 0.2772882 0.2006751
vt 0.2362455 0.496183
vt 0.2362455 0.5208086
vt 0.2362455 0.5208086
vt 0.2362455 0.496183
vt 0.274552 0.2006751
vt 0.274552 0.2006751
vt 0.274552 0.2006751
vt 0.274552 0.2006751
vt 0.4086251 0.4004165
vt 0.4086251 0.4250422
vt 0.4086251 0.4250422
vt 0.4086251 0.4004165
vt 0.2663435 0.2280369
vt 0.2663435 0.2280369
vt 0.2663435 0.2006751
vt 0.2663435 0.2006751
vt 0.2690797 0.2280369
vt 0.2718158 0.2280369
vt 0.2718158 0.2006751
vt 0.2690797 0.2006751
vn -0.01587105 -0.999874 -0.000345267
vn -0.01587105 -0.999874 -0.000345267
vn -0.01587105 -0.999874 -0.000345267
vn -0.01587105 -0.999874 -0.000345267
vn 0.7141957 0.01587105 -0.6997661
vn 0.7141957 0.01587105 -0.6997661
vn 0.7141957 0.01587105 -0.6997661
vn 0.7141957 0.01587105 -0.6997661
vn -0.01587105 0.07935512 -0.9967201
vn -0.01587105 0.07935512 -0.9967201
vn -0.01587105 0.07935512 -0.9967201
vn -0.01587105 0.07935512 -0.9967201
vn -0.7141957 0.01587105 0.6997661
vn -0.7141957 0.01587105 0.6997661
vn -0.7141957 0.01587105 0.6997661
vn -0.7141957 0.01587105 0.6997661
vn -0.7141957 0.01587105 -0.6997661
vn -0.7141957 0.01587105 -0.6997661
vn -0.7141957 0.01587105 -0.6997661
vn -0.7141957 0.01587105 -0.6997661
vn 0.7141957 0.01587105 0.6997661
vn 0.7141957 0.01587105 0.6997661
vn 0.7141957 0.01587105 0.6997661
vn 0.7141957 0.01587105 0.6997661
vn 0.5872276 -0.5237435 -0.6171358
vn 0.5872276 -0.5237435 -0.6171358
vn 0.5872276 -0.5237435 -0.6171358
vn 0.5872276 -0.5237435 -0.6171358
vn -0.5872276 -0.5237435 -0.6171358
vn -0.5872276 -0.5237435 -0.6171358
vn -0.5872276 -0.5237435 -0.6171358
vn -0.5872276 -0.5237435 -0.6171358
vn -0.5872276 -0.5237435 -0.6171358
vn -0.5872276 0.5237435 0.6171358
vn -0.5872276 0.5237435 0.6171358
vn -0.5872276 0.5237435 0.6171358
vn -0.5872276 0.5237435 0.6171358
vn -0.5872276 0.5237435 0.6171358
vn 0.5872276 0.5237435 0.6171358
vn 0.5872276 0.5237435 0.6171358
vn 0.5872276 0.5237435 0.6171358
vn 0.5872276 0.5237435 0.6171358
vn 0.999874 0.01587105 -0.0003439156
vn 0.999874 0.01587105 -0.0003439156
vn 0.999874 0.01587105 -0.0003439156
vn 0.999874 0.01587105 -0.0003439156
vn -0.01587105 0.999874 -0.000345267
vn -0.01587105 0.999874 -0.000345267
vn -0.01587105 0.999874 -0.000345267
vn -0.01587105 0.999874 -0.000345267
vn -0.999874 0.01587105 -0.0003439156
vn -0.999874 0.01587105 -0.0003439156
vn -0.999874 0.01587105 -0.0003439156
vn -0.999874 0.01587105 -0.0003439156
vn -0.01587105 -0.999874 -0.000345267
vn -0.01587105 -0.999874 -0.000345267
vn -0.01587105 -0.999874 -0.000345267
vn -0.01587105 -0.999874 -0.000345267
vn -0.01587105 0.01587105 -0.9997481
vn -0.01587105 0.01587105 -0.9997481
vn -0.01587105 0.01587105 -0.9997481
vn -0.01587105 0.01587105 -0.9997481
vn -0.01587105 0.01587105 0.9997481
vn -0.01587105 0.01587105 0.9997481
vn -0.01587105 0.01587105 0.9997481
vn -0.01587105 0.01587105 0.9997481
vn 0.999874 0.01587105 -0.0003439156
vn 0.999874 0.01587105 -0.0003439156
vn 0.999874 0.01587105 -0.0003439156
vn 0.999874 0.01587105 -0.0003439156
vn -0.01587105 0.999874 -0.000345267
vn -0.01587105 0.999874 -0.000345267
vn -0.01587105 0.999874 -0.000345267
vn -0.01587105 0.999874 -0.000345267
vn -0.999874 0.01587105 -0.0003439156
vn -0.999874 0.01587105 -0.0003439156
vn -0.999874 0.01587105 -0.0003439156
vn -0.999874 0.01587105 -0.0003439156
vn -0.01587105 -0.999874 -0.000345267
vn -0.01587105 -0.999874 -0.000345267
vn -0.01587105 -0.999874 -0.000345267
vn -0.01587105 -0.999874 -0.000345267
vn -0.01587105 0.01587105 -0.9997481
vn -0.01587105 0.01587105 -0.9997481
vn -0.01587105 0.01587105 -0.9997481
vn -0.01587105 0.01587105 -0.9997481
vn -0.01587105 0.01587105 0.9997481
vn -0.01587105 0.01587105 0.9997481
vn -0.01587105 0.01587105 0.9997481
vn -0.01587105 0.01587105 0.9997481
vn 0.999874 0.01587105 -0.0003439156
vn 0.999874 0.01587105 -0.0003439156
vn 0.999874 0.01587105 -0.0003439156
vn 0.999874 0.01587105 -0.0003439156
vn -0.01587105 0.7141957 -0.6997661
vn -0.01587105 0.7141957 -0.6997661
vn -0.01587105 0.7141957 -0.6997661
vn -0.01587105 0.7141957 -0.6997661
vn -0.999874 0.01587105 -0.0003439156
vn -0.999874 0.01587105 -0.0003439156
vn -0.999874 0.01587105 -0.0003439156
vn -0.999874 0.01587105 -0.0003439156
vn -0.01587105 -0.7141957 0.6997661
vn -0.01587105 -0.7141957 0.6997661
vn -0.01587105 -0.7141957 0.6997661
vn -0.01587105 -0.7141957 0.6997661
vn -0.01587105 -0.7141957 -0.6997661
vn -0.01587105 -0.7141957 -0.6997661
vn -0.01587105 -0.7141957 -0.6997661
vn -0.01587105 -0.7141957 -0.6997661
vn -0.01587105 0.7141957 0.6997661
vn -0.01587105 0.7141957 0.6997661
vn -0.01587105 0.7141957 0.6997661
vn -0.01587105 0.7141957 0.6997661
vn -0.01587105 -0.999874 -0.000345267
vn -0.01587105 -0.999874 -0.000345267
vn -0.01587105 -0.999874 -0.000345267
vn -0.01587105 -0.999874 -0.000345267
vn 0.7141957 0.01587105 -0.6997661
vn 0.7141957 0.01587105 -0.6997661
vn 0.7141957 0.01587105 -0.6997661
vn 0.7141957 0.01587105 -0.6997661
vn -0.01587105 0.07935512 -0.9967201
vn -0.01587105 0.07935512 -0.9967201
vn -0.01587105 0.07935512 -0.9967201
vn -0.01587105 0.07935512 -0.9967201
vn -0.7141957 0.01587105 0.6997661
vn -0.7141957 0.01587105 0.6997661
vn -0.7141957 0.01587105 0.6997661
vn -0.7141957 0.01587105 0.6997661
vn -0.7141957 0.01587105 -0.6997661
vn -0.7141957 0.01587105 -0.6997661
vn -0.7141957 0.01587105 -0.6997661
vn -0.7141957 0.01587105 -0.6997661
vn 0.7141957 0.01587105 0.6997661
vn 0.7141957 0.01587105 0.6997661
vn 0.7141957 0.01587105 0.6997661
vn 0.7141957 0.01587105 0.6997661
vn 0.5872276 -0.5237435 -0.6171358
vn 0.5872276 -0.5237435 -0.6171358
vn 0.5872276 -0.5237435 -0.6171358
vn 0.5872276 -0.5237435 -0.6171358
vn -0.5872276 -0.5237435 -0.6171358
vn -0.5872276 -0.5237435 -0.6171358
vn -0.5872276 -0.5237435 -0.6171358
vn -0.5872276 -0.5237435 -0.6171358
vn -0.5872276 -0.5237435 -0.6171358
vn -0.5872276 0.5237435 0.6171358
vn -0.5872276 0.5237435 0.6171358
vn -0.5872276 0.5237435 0.6171358
vn -0.5872276 0.5237435 0.6171358
vn -0.5872276 0.5237435 0.6171358
vn 0.5872276 0.5237435 0.6171358
vn 0.5872276 0.5237435 0.6171358
vn 0.5872276 0.5237435 0.6171358
vn 0.5872276 0.5237435 0.6171358
vn 0.999874 0.01587105 -0.0003439156
vn 0.999874 0.01587105 -0.0003439156
vn 0.999874 0.01587105 -0.0003439156
vn 0.999874 0.01587105 -0.0003439156
vn -0.01587105 0.999874 -0.000345267
vn -0.01587105 0.999874 -0.000345267
vn -0.01587105 0.999874 -0.000345267
vn -0.01587105 0.999874 -0.000345267
vn -0.999874 0.01587105 -0.0003439156
vn -0.999874 0.01587105 -0.0003439156
vn -0.999874 0.01587105 -0.0003439156
vn -0.999874 0.01587105 -0.0003439156
vn -0.01587105 -0.999874 -0.000345267
vn -0.01587105 -0.999874 -0.000345267
vn -0.01587105 -0.999874 -0.000345267
vn -0.01587105 -0.999874 -0.000345267
vn -0.01587105 0.01587105 -0.9997481
vn -0.01587105 0.01587105 -0.9997481
vn -0.01587105 0.01587105 -0.9997481
vn -0.01587105 0.01587105 -0.9997481
vn -0.01587105 0.01587105 0.9997481
vn -0.01587105 0.01587105 0.9997481
vn -0.01587105 0.01587105 0.9997481
vn -0.01587105 0.01587105 0.9997481
f 3/3/3 2/2/2 1/1/1
f 4/4/4 3/3/3 1/1/1
f 7/7/7 6/6/6 5/5/5
f 8/8/8 7/7/7 5/5/5
f 11/11/11 10/10/10 9/9/9
f 12/12/12 11/11/11 9/9/9
f 15/15/15 14/14/14 13/13/13
f 16/16/16 15/15/15 13/13/13
f 19/19/19 18/18/18 17/17/17
f 20/20/20 19/19/19 17/17/17
f 23/23/23 22/22/22 21/21/21
f 24/24/24 23/23/23 21/21/21
f 27/27/27 26/26/26 25/25/25
f 28/28/28 27/27/27 25/25/25
f 31/31/31 30/30/30 29/29/29
f 33/33/33 31/31/31 32/32/32
f 36/36/36 35/35/35 34/34/34
f 38/38/38 36/36/36 37/37/37
f 41/41/41 40/40/40 39/39/39
f 42/42/42 41/41/41 39/39/39
f 45/45/45 44/44/44 43/43/43
f 46/46/46 45/45/45 43/43/43
f 49/49/49 48/48/48 47/47/47
f 50/50/50 49/49/49 47/47/47
f 53/53/53 52/52/52 51/51/51
f 54/54/54 53/53/53 51/51/51
f 57/57/57 56/56/56 55/55/55
f 58/58/58 57/57/57 55/55/55
f 61/61/61 60/60/60 59/59/59
f 62/62/62 61/61/61 59/59/59
f 65/65/65 64/64/64 63/63/63
f 66/66/66 65/65/65 63/63/63
f 69/69/69 68/68/68 67/67/67
f 70/70/70 69/69/69 67/67/67
f 73/73/73 72/72/72 71/71/71
f 74/74/74 73/73/73 71/71/71
f 77/77/77 76/76/76 75/75/75
f 78/78/78 77/77/77 75/75/75
f 81/81/81 80/80/80 79/79/79
f 82/82/82 81/81/81 79/79/79
f 85/85/85 84/84/84 83/83/83
f 86/86/86 85/85/85 83/83/83
f 89/89/89 88/88/88 87/87/87
f 90/90/90 89/89/89 87/87/87
f 93/93/93 92/92/92 91/91/91
f 94/94/94 93/93/93 91/91/91
f 97/97/97 96/96/96 95/95/95
f 98/98/98 97/97/97 95/95/95
f 101/101/101 100/100/100 99/99/99
f 102/102/102 101/101/101 99/99/99
f 105/105/105 104/104/104 103/103/103
f 106/106/106 105/105/105 103/103/103
f 109/109/109 108/108/108 107/107/107
f 110/110/110 109/109/109 107/107/107
f 113/113/113 112/112/112 111/111/111
f 114/114/114 113/113/113 111/111/111
f 117/117/117 116/116/116 115/115/115
f 118/118/118 117/117/117 115/115/115
f 121/121/121 120/120/120 119/119/119
f 122/122/122 121/121/121 119/119/119
f 125/125/125 124/124/124 123/123/123
f 126/126/126 125/125/125 123/123/123
f 129/129/129 128/128/128 127/127/127
f 130/130/130 129/129/129 127/127/127
f 133/133/133 132/132/132 131/131/131
f 134/134/134 133/133/133 131/131/131
f 137/137/137 136/136/136 135/135/135
f 138/138/138 137/137/137 135/135/135
f 141/141/141 140/140/140 139/139/139
f 142/142/142 141/141/141 139/139/139
f 145/145/145 144/144/144 143/143/143
f 147/147/147 145/145/145 146/146/146
f 150/150/150 149/149/149 148/148/148
f 152/152/152 150/150/150 151/151/151
f 155/155/155 154/154/154 153/153/153
f 156/156/156 155/155/155 153/153/153
f 159/159/159 158/158/158 157/157/157
f 160/160/160 159/159/159 157/157/157
f 163/163/163 162/162/162 161/161/161
f 164/164/164 163/163/163 161/161/161
f 167/167/167 166/166/166 165/165/165
f 168/168/168 167/167/167 165/165/165
f 171/171/171 170/170/170 169/169/169
f 172/172/172 171/171/171 169/169/169
f 175/175/175 174/174/174 173/173/173
f 176/176/176 175/175/175 173/173/173
f 179/179/179 178/178/178 177/177/177
f 180/180/180 179/179/179 177/177/177
