g fence_02
v 2.363945 -0.9997289 0.08482337
v 2.445798 -0.9997289 0.002970219
v 2.363945 -0.9997289 -0.08570361
v 2.275271 -0.9997289 0.002970219
v 2.445798 -0.9997289 0.002970219
v 2.445798 3.706818 0.002970219
v 2.363945 3.706818 -0.08570361
v 2.363945 -0.9997289 -0.08570361
v 2.445798 4.532169 -0.003850698
v 2.363945 4.532169 0.08482337
v 2.275271 4.532169 -0.003850698
v 2.363945 4.532169 -0.08570361
v 2.363945 3.706818 0.08482337
v 2.363945 -0.9997289 0.08482337
v 2.275271 -0.9997289 0.002970219
v 2.275271 3.706818 0.002970219
v 2.275271 -0.9997289 0.002970219
v 2.363945 -0.9997289 -0.08570361
v 2.363945 3.706818 -0.08570361
v 2.275271 3.706818 0.002970219
v 2.275271 4.532169 -0.003850698
v 2.363945 4.532169 -0.08570361
v 2.363945 3.706818 0.08482337
v 2.445798 3.706818 0.002970219
v 2.445798 -0.9997289 0.002970219
v 2.363945 -0.9997289 0.08482337
v 2.445798 3.706818 0.002970219
v 2.445798 4.532169 -0.003850698
v 2.363945 4.532169 -0.08570361
v 2.363945 3.706818 -0.08570361
v 2.275271 3.706818 0.002970219
v 2.275271 4.532169 -0.003850698
v 2.363945 4.532169 0.08482337
v 2.363945 4.532169 0.08482337
v 2.363945 3.706818 0.08482337
v 2.363945 3.706818 0.08482337
v 2.363945 4.532169 0.08482337
v 2.445798 4.532169 -0.003850698
v 2.445798 4.532169 -0.003850698
v 2.445798 3.706818 0.002970219
v 2.357124 3.659071 0.05071783
v 2.357124 3.72046 -0.01749301
v 2.357124 3.659071 -0.07888269
v 2.357124 3.59086 -0.01749301
v 2.357124 3.72046 -0.01749301
v -2.349423 3.72046 -0.01749301
v -2.349423 3.659071 -0.07888269
v 2.357124 3.659071 -0.07888269
v -2.349423 3.72046 -0.01749301
v -2.349423 3.659071 0.05071783
v -2.349423 3.59086 -0.01749301
v -2.349423 3.659071 -0.07888269
v -2.349423 3.659071 0.05071783
v 2.357124 3.659071 0.05071783
v 2.357124 3.59086 -0.01749301
v -2.349423 3.59086 -0.01749301
v 2.357124 3.59086 -0.01749301
v 2.357124 3.659071 -0.07888269
v -2.349423 3.659071 -0.07888269
v -2.349423 3.59086 -0.01749301
v -2.349423 3.659071 0.05071783
v -2.349423 3.72046 -0.01749301
v 2.357124 3.72046 -0.01749301
v 2.357124 3.659071 0.05071783
v 2.336661 4.327537 0.01661253
v 2.336661 4.368464 0.01661253
v 2.336661 4.368464 -0.02431393
v 2.336661 4.327537 -0.02431393
v 2.336661 4.368464 0.01661253
v -2.315318 4.368464 0.01661253
v -2.315318 4.368464 -0.02431393
v 2.336661 4.368464 -0.02431393
v -2.315318 4.368464 0.01661253
v -2.315318 4.327537 0.01661253
v -2.315318 4.327537 -0.02431393
v -2.315318 4.368464 -0.02431393
v -2.315318 4.327537 0.01661253
v 2.336661 4.327537 0.01661253
v 2.336661 4.327537 -0.02431393
v -2.315318 4.327537 -0.02431393
v 2.336661 4.327537 -0.02431393
v 2.336661 4.368464 -0.02431393
v -2.315318 4.368464 -0.02431393
v -2.315318 4.327537 -0.02431393
v -2.315318 4.327537 0.01661253
v -2.315318 4.368464 0.01661253
v 2.336661 4.368464 0.01661253
v 2.336661 4.327537 0.01661253
v -2.363065 -0.9997289 0.08482337
v -2.274391 -0.9997289 0.002970219
v -2.363065 -0.9997289 -0.08570361
v -2.444918 -0.9997289 0.002970219
v -2.274391 -0.9997289 0.002970219
v -2.274391 3.706818 0.002970219
v -2.363065 3.706818 -0.08570361
v -2.363065 -0.9997289 -0.08570361
v -2.363065 4.532169 -0.08570361
v -2.274391 4.532169 -0.003850698
v -2.274391 4.532169 -0.003850698
v -2.363065 4.532169 0.08482337
v -2.444918 4.532169 -0.003850698
v -2.363065 4.532169 -0.08570361
v -2.363065 3.706818 0.08482337
v -2.363065 -0.9997289 0.08482337
v -2.444918 -0.9997289 0.002970219
v -2.444918 3.706818 0.002970219
v -2.444918 -0.9997289 0.002970219
v -2.363065 -0.9997289 -0.08570361
v -2.363065 3.706818 -0.08570361
v -2.444918 3.706818 0.002970219
v -2.363065 3.706818 0.08482337
v -2.274391 3.706818 0.002970219
v -2.274391 -0.9997289 0.002970219
v -2.363065 -0.9997289 0.08482337
v -2.363065 3.706818 -0.08570361
v -2.363065 4.532169 -0.08570361
v -2.444918 4.532169 -0.003850698
v -2.444918 3.706818 0.002970219
v -2.444918 3.706818 0.002970219
v -2.444918 4.532169 -0.003850698
v -2.363065 4.532169 0.08482337
v -2.363065 4.532169 0.08482337
v -2.363065 3.706818 0.08482337
v -2.363065 3.706818 0.08482337
v -2.363065 4.532169 0.08482337
v -2.274391 4.532169 -0.003850698
v -2.274391 4.532169 -0.003850698
v -2.274391 3.706818 0.002970219
v 2.336661 3.925093 0.01661253
v 2.336661 3.96602 0.01661253
v 2.336661 3.96602 -0.02431393
v 2.336661 3.925093 -0.02431393
v 2.336661 3.96602 0.01661253
v -2.315318 3.96602 0.01661253
v -2.315318 3.96602 -0.02431393
v 2.336661 3.96602 -0.02431393
v -2.315318 3.96602 0.01661253
v -2.315318 3.925093 0.01661253
v -2.315318 3.925093 -0.02431393
v -2.315318 3.96602 -0.02431393
v -2.315318 3.925093 0.01661253
v 2.336661 3.925093 0.01661253
v 2.336661 3.925093 -0.02431393
v -2.315318 3.925093 -0.02431393
v 2.336661 3.925093 -0.02431393
v 2.336661 3.96602 -0.02431393
v -2.315318 3.96602 -0.02431393
v -2.315318 3.925093 -0.02431393
v -2.315318 3.925093 0.01661253
v -2.315318 3.96602 0.01661253
v 2.336661 3.96602 0.01661253
v 2.336661 3.925093 0.01661253
vt 0.273804 0.2007722
vt 0.273804 0.2007722
vt 0.273804 0.2007722
vt 0.273804 0.2007722
vt 0.118888 0.2627386
vt 0.118888 0.2892956
vt 0.1211011 0.2892956
vt 0.1211011 0.2627386
vt 0.04364305 0.532735
vt 0.04364305 0.532735
vt 0.04364305 0.532735
vt 0.04364305 0.532735
vt 0.2560993 0.2074114
vt 0.2560993 0.2339684
vt 0.2560993 0.2339684
vt 0.2560993 0.2074114
vt 0.2560993 0.2007722
vt 0.2538862 0.2007722
vt 0.2538862 0.2273292
vt 0.2560993 0.2273292
vt 0.2560993 0.2339684
vt 0.2538862 0.2317554
vt 0.2295423 0.4242938
vt 0.2317554 0.4242938
vt 0.2317554 0.3977368
vt 0.2295423 0.3977368
vt 0.1056095 0.1144618
vt 0.1056095 0.1211011
vt 0.1056095 0.1211011
vt 0.1056095 0.1144618
vt 0.2251161 0.1233141
vt 0.2295423 0.1166749
vt 0.2295423 0.1166749
vt 0.2295423 0.1166749
vt 0.2251161 0.1233141
vt 0.2383946 0.455277
vt 0.2383946 0.4619163
vt 0.2383946 0.4619163
vt 0.2383946 0.4619163
vt 0.2383946 0.455277
vt 0.273804 0.2007722
vt 0.273804 0.2007722
vt 0.2760171 0.2007722
vt 0.273804 0.2007722
vt 0.2627386 0.2007722
vt 0.2627386 0.2273292
vt 0.2627386 0.2273292
vt 0.2627386 0.2007722
vt 0.2760171 0.2007722
vt 0.2760171 0.2007722
vt 0.2760171 0.2007722
vt 0.2760171 0.2007722
vt 0.3579013 0.3888845
vt 0.3579013 0.4176546
vt 0.3579013 0.4176546
vt 0.3579013 0.3888845
vt 0.3579013 0.4176546
vt 0.3579013 0.4176546
vt 0.3579013 0.3888845
vt 0.3579013 0.3888845
vt 0.09454402 0.2361815
vt 0.09454402 0.2361815
vt 0.09454402 0.2096245
vt 0.09454402 0.2096245
vt 0.2760171 0.2007722
vt 0.2760171 0.2007722
vt 0.2760171 0.2007722
vt 0.2760171 0.2007722
vt 0.2361815 0.4951126
vt 0.2361815 0.5216696
vt 0.2361815 0.5216696
vt 0.2361815 0.4951126
vt 0.2760171 0.2007722
vt 0.2760171 0.2007722
vt 0.2760171 0.2007722
vt 0.2760171 0.2007722
vt 0.4088022 0.3999499
vt 0.4088022 0.4265069
vt 0.4088022 0.4265069
vt 0.4088022 0.3999499
vt 0.2649516 0.2273292
vt 0.2649516 0.2273292
vt 0.2649516 0.2007722
vt 0.2649516 0.2007722
vt 0.2693778 0.2273292
vt 0.2693778 0.2273292
vt 0.2693778 0.2007722
vt 0.2693778 0.2007722
vt 0.2715909 0.2007722
vt 0.273804 0.2007722
vt 0.2715909 0.2007722
vt 0.2715909 0.2007722
vt 0.2450339 0.2007722
vt 0.2450339 0.2273292
vt 0.247247 0.2273292
vt 0.247247 0.2007722
vt 0.247247 0.2317554
vt 0.2450339 0.2339684
vt 0.03479071 0.532735
vt 0.03479071 0.532735
vt 0.0370038 0.532735
vt 0.03479071 0.532735
vt 0.04806922 0.1277403
vt 0.04806922 0.1343796
vt 0.04806922 0.1343796
vt 0.04806922 0.1277403
vt 0.2605255 0.4862602
vt 0.2605255 0.4862602
vt 0.2605255 0.4951126
vt 0.2605255 0.4951126
vt 0.2538862 0.2273292
vt 0.2538862 0.2273292
vt 0.2538862 0.2007722
vt 0.2538862 0.2007722
vt 0.2915087 0.5969145
vt 0.2915087 0.5991276
vt 0.2915087 0.5991276
vt 0.2915087 0.5969145
vt 0.05692157 0.2339684
vt 0.05913465 0.2317554
vt 0.05913465 0.2317554
vt 0.05913465 0.2317554
vt 0.05692157 0.2339684
vt 0.2693778 0.1432319
vt 0.2693778 0.1498712
vt 0.2715909 0.1498712
vt 0.2715909 0.1498712
vt 0.2715909 0.1432319
vt 0.2760171 0.2007722
vt 0.2760171 0.2007722
vt 0.2760171 0.2007722
vt 0.2760171 0.2007722
vt 0.2361815 0.4951126
vt 0.2361815 0.5216696
vt 0.2361815 0.5216696
vt 0.2361815 0.4951126
vt 0.2782302 0.2007722
vt 0.2782302 0.2007722
vt 0.2782302 0.2007722
vt 0.2782302 0.2007722
vt 0.4065892 0.3999499
vt 0.4065892 0.4265069
vt 0.4065892 0.4265069
vt 0.4065892 0.3999499
vt 0.2649516 0.2273292
vt 0.2649516 0.2273292
vt 0.2649516 0.2007722
vt 0.2649516 0.2007722
vt 0.2715909 0.2273292
vt 0.2715909 0.2273292
vt 0.2715909 0.2007722
vt 0.2715909 0.2007722
vn -0.01587105 -0.999874 -0.000345267
vn -0.01587105 -0.999874 -0.000345267
vn -0.01587105 -0.999874 -0.000345267
vn -0.01587105 -0.999874 -0.000345267
vn 0.7141957 0.01587105 -0.6997661
vn 0.7141957 -0.01587099 -0.6997661
vn 0.7141957 -0.01587099 -0.6997661
vn 0.7141957 0.01587105 -0.6997661
vn -0.01587105 0.999874 -0.000345267
vn -0.01587105 0.999874 -0.000345267
vn -0.01587105 0.999874 -0.000345267
vn -0.01587105 0.999874 -0.000345267
vn -0.7141957 0.01587105 0.6997661
vn -0.7141957 0.01587105 0.6997661
vn -0.7141957 0.01587105 0.6997661
vn -0.7141957 0.01587105 0.6997661
vn -0.7141957 0.01587105 -0.6997661
vn -0.7141957 0.01587105 -0.6997661
vn -0.7141957 -0.01587099 -0.6997661
vn -0.7141957 -0.01587099 -0.6997661
vn -0.7141957 -0.01587099 -0.6997661
vn -0.7141957 -0.01587099 -0.6997661
vn 0.7141957 0.01587105 0.6997661
vn 0.7141957 0.01587105 0.6997661
vn 0.7141957 0.01587105 0.6997661
vn 0.7141957 0.01587105 0.6997661
vn 0.7141957 -0.01587099 -0.6997661
vn 0.7141957 -0.01587099 -0.6997661
vn 0.7141957 -0.01587099 -0.6997661
vn 0.7141957 -0.01587099 -0.6997661
vn -0.7141957 0.01587105 0.6997661
vn -0.7141957 0.01587105 0.6997661
vn -0.7141957 0.01587105 0.6997661
vn -0.7141957 0.01587105 0.6997661
vn -0.7141957 0.01587105 0.6997661
vn 0.7141957 0.01587105 0.6997661
vn 0.7141957 0.01587105 0.6997661
vn 0.7141957 0.01587105 0.6997661
vn 0.7141957 0.01587105 0.6997661
vn 0.7141957 0.01587105 0.6997661
vn 0.999874 0.01587105 -0.0003439156
vn 0.999874 0.01587105 -0.0003439156
vn 0.999874 0.01587105 -0.0003439156
vn 0.999874 0.01587105 -0.0003439156
vn -0.01587105 0.7141957 -0.6997661
vn -0.01587105 0.7141957 -0.6997661
vn -0.01587105 0.7141957 -0.6997661
vn -0.01587105 0.7141957 -0.6997661
vn -0.999874 0.01587105 -0.0003439156
vn -0.999874 0.01587105 -0.0003439156
vn -0.999874 0.01587105 -0.0003439156
vn -0.999874 0.01587105 -0.0003439156
vn -0.01587105 -0.7141957 0.6997661
vn -0.01587105 -0.7141957 0.6997661
vn -0.01587105 -0.7141957 0.6997661
vn -0.01587105 -0.7141957 0.6997661
vn -0.01587105 -0.7141957 -0.6997661
vn -0.01587105 -0.7141957 -0.6997661
vn -0.01587105 -0.7141957 -0.6997661
vn -0.01587105 -0.7141957 -0.6997661
vn -0.01587105 0.7141957 0.6997661
vn -0.01587105 0.7141957 0.6997661
vn -0.01587105 0.7141957 0.6997661
vn -0.01587105 0.7141957 0.6997661
vn 0.999874 0.01587105 -0.0003439156
vn 0.999874 0.01587105 -0.0003439156
vn 0.999874 0.01587105 -0.0003439156
vn 0.999874 0.01587105 -0.0003439156
vn -0.01587105 0.999874 -0.000345267
vn -0.01587105 0.999874 -0.000345267
vn -0.01587105 0.999874 -0.000345267
vn -0.01587105 0.999874 -0.000345267
vn -0.999874 0.01587105 -0.0003439156
vn -0.999874 0.01587105 -0.0003439156
vn -0.999874 0.01587105 -0.0003439156
vn -0.999874 0.01587105 -0.0003439156
vn -0.01587105 -0.999874 -0.000345267
vn -0.01587105 -0.999874 -0.000345267
vn -0.01587105 -0.999874 -0.000345267
vn -0.01587105 -0.999874 -0.000345267
vn -0.01587105 0.01587105 -0.9997481
vn -0.01587105 0.01587105 -0.9997481
vn -0.01587105 0.01587105 -0.9997481
vn -0.01587105 0.01587105 -0.9997481
vn -0.01587105 0.01587105 0.9997481
vn -0.01587105 0.01587105 0.9997481
vn -0.01587105 0.01587105 0.9997481
vn -0.01587105 0.01587105 0.9997481
vn -0.01587105 -0.999874 -0.000345267
vn -0.01587105 -0.999874 -0.000345267
vn -0.01587105 -0.999874 -0.000345267
vn -0.01587105 -0.999874 -0.000345267
vn 0.7141957 0.01587105 -0.6997661
vn 0.7141957 -0.01587099 -0.6997661
vn 0.7141957 -0.01587099 -0.6997661
vn 0.7141957 0.01587105 -0.6997661
vn 0.7141957 -0.01587099 -0.6997661
vn 0.7141957 -0.01587099 -0.6997661
vn -0.01587105 0.999874 -0.000345267
vn -0.01587105 0.999874 -0.000345267
vn -0.01587105 0.999874 -0.000345267
vn -0.01587105 0.999874 -0.000345267
vn -0.7141957 0.01587105 0.6997661
vn -0.7141957 0.01587105 0.6997661
vn -0.7141957 0.01587105 0.6997661
vn -0.7141957 0.01587105 0.6997661
vn -0.7141957 0.01587105 -0.6997661
vn -0.7141957 0.01587105 -0.6997661
vn -0.7141957 -0.01587099 -0.6997661
vn -0.7141957 -0.01587099 -0.6997661
vn 0.7141957 0.01587105 0.6997661
vn 0.7141957 0.01587105 0.6997661
vn 0.7141957 0.01587105 0.6997661
vn 0.7141957 0.01587105 0.6997661
vn -0.7141957 -0.01587099 -0.6997661
vn -0.7141957 -0.01587099 -0.6997661
vn -0.7141957 -0.01587099 -0.6997661
vn -0.7141957 -0.01587099 -0.6997661
vn -0.7141957 0.01587105 0.6997661
vn -0.7141957 0.01587105 0.6997661
vn -0.7141957 0.01587105 0.6997661
vn -0.7141957 0.01587105 0.6997661
vn -0.7141957 0.01587105 0.6997661
vn 0.7141957 0.01587105 0.6997661
vn 0.7141957 0.01587105 0.6997661
vn 0.7141957 0.01587105 0.6997661
vn 0.7141957 0.01587105 0.6997661
vn 0.7141957 0.01587105 0.6997661
vn 0.999874 0.01587105 -0.0003439156
vn 0.999874 0.01587105 -0.0003439156
vn 0.999874 0.01587105 -0.0003439156
vn 0.999874 0.01587105 -0.0003439156
vn -0.01587105 0.999874 -0.000345267
vn -0.01587105 0.999874 -0.000345267
vn -0.01587105 0.999874 -0.000345267
vn -0.01587105 0.999874 -0.000345267
vn -0.999874 0.01587105 -0.0003439156
vn -0.999874 0.01587105 -0.0003439156
vn -0.999874 0.01587105 -0.0003439156
vn -0.999874 0.01587105 -0.0003439156
vn -0.01587105 -0.999874 -0.000345267
vn -0.01587105 -0.999874 -0.000345267
vn -0.01587105 -0.999874 -0.000345267
vn -0.01587105 -0.999874 -0.000345267
vn -0.01587105 0.01587105 -0.9997481
vn -0.01587105 0.01587105 -0.9997481
vn -0.01587105 0.01587105 -0.9997481
vn -0.01587105 0.01587105 -0.9997481
vn -0.01587105 0.01587105 0.9997481
vn -0.01587105 0.01587105 0.9997481
vn -0.01587105 0.01587105 0.9997481
vn -0.01587105 0.01587105 0.9997481
f 3/3/3 2/2/2 1/1/1
f 4/4/4 3/3/3 1/1/1
f 7/7/7 6/6/6 5/5/5
f 8/8/8 7/7/7 5/5/5
f 11/11/11 10/10/10 9/9/9
f 12/12/12 11/11/11 9/9/9
f 15/15/15 14/14/14 13/13/13
f 16/16/16 15/15/15 13/13/13
f 19/19/19 18/18/18 17/17/17
f 20/20/20 19/19/19 17/17/17
f 20/20/20 21/21/21 19/19/19
f 21/21/21 22/22/22 19/19/19
f 25/25/25 24/24/24 23/23/23
f 26/26/26 25/25/25 23/23/23
f 29/29/29 28/28/28 27/27/27
f 30/30/30 29/29/29 27/27/27
f 33/33/33 32/32/32 31/31/31
f 35/35/35 34/34/34 31/31/31
f 38/38/38 37/37/37 36/36/36
f 40/40/40 39/39/39 36/36/36
f 43/43/43 42/42/42 41/41/41
f 44/44/44 43/43/43 41/41/41
f 47/47/47 46/46/46 45/45/45
f 48/48/48 47/47/47 45/45/45
f 51/51/51 50/50/50 49/49/49
f 52/52/52 51/51/51 49/49/49
f 55/55/55 54/54/54 53/53/53
f 56/56/56 55/55/55 53/53/53
f 59/59/59 58/58/58 57/57/57
f 60/60/60 59/59/59 57/57/57
f 63/63/63 62/62/62 61/61/61
f 64/64/64 63/63/63 61/61/61
f 67/67/67 66/66/66 65/65/65
f 68/68/68 67/67/67 65/65/65
f 71/71/71 70/70/70 69/69/69
f 72/72/72 71/71/71 69/69/69
f 75/75/75 74/74/74 73/73/73
f 76/76/76 75/75/75 73/73/73
f 79/79/79 78/78/78 77/77/77
f 80/80/80 79/79/79 77/77/77
f 83/83/83 82/82/82 81/81/81
f 84/84/84 83/83/83 81/81/81
f 87/87/87 86/86/86 85/85/85
f 88/88/88 87/87/87 85/85/85
f 91/91/91 90/90/90 89/89/89
f 92/92/92 91/91/91 89/89/89
f 95/95/95 94/94/94 93/93/93
f 96/96/96 95/95/95 93/93/93
f 95/95/95 97/97/97 94/94/94
f 97/97/97 98/98/98 94/94/94
f 101/101/101 100/100/100 99/99/99
f 102/102/102 101/101/101 99/99/99
f 105/105/105 104/104/104 103/103/103
f 106/106/106 105/105/105 103/103/103
f 109/109/109 108/108/108 107/107/107
f 110/110/110 109/109/109 107/107/107
f 113/113/113 112/112/112 111/111/111
f 114/114/114 113/113/113 111/111/111
f 117/117/117 116/116/116 115/115/115
f 118/118/118 117/117/117 115/115/115
f 121/121/121 120/120/120 119/119/119
f 123/123/123 122/122/122 119/119/119
f 126/126/126 125/125/125 124/124/124
f 128/128/128 127/127/127 124/124/124
f 131/131/131 130/130/130 129/129/129
f 132/132/132 131/131/131 129/129/129
f 135/135/135 134/134/134 133/133/133
f 136/136/136 135/135/135 133/133/133
f 139/139/139 138/138/138 137/137/137
f 140/140/140 139/139/139 137/137/137
f 143/143/143 142/142/142 141/141/141
f 144/144/144 143/143/143 141/141/141
f 147/147/147 146/146/146 145/145/145
f 148/148/148 147/147/147 145/145/145
f 151/151/151 150/150/150 149/149/149
f 152/152/152 151/151/151 149/149/149
