g fire_station_door_2
v 2.991668 1.110223E-16 -0.09895515
v 2.991668 4.607933 -0.09895515
v 0.001173973 4.607933 -0.09895515
v -6.750156E-14 1.110223E-16 -0.09895611
v 2.991668 1.110223E-16 -1.918465E-13
v -6.750156E-14 1.110223E-16 9.536741E-07
v 0.001173973 4.607933 -1.918465E-13
v 2.991668 4.607933 -1.918465E-13
v 2.991668 1.110223E-16 -1.918465E-13
v 2.991668 1.110223E-16 -0.09895515
v -6.750156E-14 1.110223E-16 -0.09895611
v -6.750156E-14 1.110223E-16 9.536741E-07
v -6.750156E-14 1.110223E-16 9.536741E-07
v -6.750156E-14 1.110223E-16 -0.09895611
v 0.001173973 4.607933 -0.09895515
v 0.001173973 4.607933 -1.918465E-13
v 0.001173973 4.607933 -1.918465E-13
v 0.001173973 4.607933 -0.09895515
v 2.991668 4.607933 -0.09895515
v 2.991668 4.607933 -1.918465E-13
v 2.991668 4.607933 -1.918465E-13
v 2.991668 4.607933 -0.09895515
v 2.991668 1.110223E-16 -0.09895515
v 2.991668 1.110223E-16 -1.918465E-13
vt 0.6510929 0.9709322
vt 0.6510931 0.636234
vt 0.4601374 0.636234
vt 0.4601378 0.9709322
vt 0.6533844 0.9749486
vt 0.4578463 0.9749486
vt 0.4578459 0.6322176
vt 0.6533846 0.6322176
vt 0.6510929 0.9709322
vt 0.6510929 0.9709322
vt 0.4601378 0.9709322
vt 0.4601378 0.9709322
vt 0.4601378 0.9709322
vt 0.4601378 0.9709322
vt 0.4601374 0.636234
vt 0.4601374 0.636234
vt 0.4601374 0.636234
vt 0.4601374 0.636234
vt 0.6510931 0.636234
vt 0.6510931 0.636234
vt 0.6510931 0.636234
vt 0.6510931 0.636234
vt 0.6510929 0.9709322
vt 0.6510929 0.9709322
vn 0 0 -1
vn 0 0 -1
vn 0 0 -1
vn 0 0 -1
vn 0 0 1
vn 0 0 1
vn 0 0 1
vn 0 0 1
vn 0 -1 0
vn 0 -1 0
vn 0 -1 0
vn 0 -1 0
vn -0.9999999 0.0002547696 0
vn -0.9999999 0.0002547696 0
vn -0.9999999 0.0002547696 0
vn -0.9999999 0.0002547696 0
vn 0 1 0
vn 0 1 0
vn 0 1 0
vn 0 1 0
vn 1 0 0
vn 1 0 0
vn 1 0 0
vn 1 0 0
f 3/3/3 2/2/2 1/1/1
f 4/4/4 3/3/3 1/1/1
f 7/7/7 6/6/6 5/5/5
f 8/8/8 7/7/7 5/5/5
f 11/11/11 10/10/10 9/9/9
f 12/12/12 11/11/11 9/9/9
f 15/15/15 14/14/14 13/13/13
f 16/16/16 15/15/15 13/13/13
f 19/19/19 18/18/18 17/17/17
f 20/20/20 19/19/19 17/17/17
f 23/23/23 22/22/22 21/21/21
f 24/24/24 23/23/23 21/21/21
