g fire_station_top_collider
v -6.243584 -4.012208 11.50387
v -6.243584 1.858753 11.50387
v 6.107704 1.858753 11.50387
v 6.091492 -4.012208 11.50387
v -6.243584 1.858753 11.50387
v -5.800358 1.489395 11.0602
v 5.664562 1.489395 11.0602
v 6.107704 1.858753 11.50387
v -5.800358 1.489395 11.0602
v -5.800358 -4.012208 11.06073
v 5.664562 -4.012208 11.06073
v 5.664562 1.489395 11.0602
v -5.800358 -4.012208 11.06073
v -6.243584 -4.012208 11.50387
v 6.091492 -4.012208 11.50387
v 5.664562 -4.012208 11.06073
v 6.091492 -4.012208 11.50387
v 6.107704 1.858753 11.50387
v 5.664562 1.489395 11.0602
v 5.664562 -4.012208 11.06073
v -5.800358 -4.012208 11.06073
v -5.800358 1.489395 11.0602
v -6.243584 1.858753 11.50387
v -6.243584 -4.012208 11.50387
v -6.243584 -4.012208 -11.5325
v -5.800358 1.489395 -11.08855
v 5.240097 1.488697 -11.08909
v 5.664562 -4.012208 -11.08909
v -5.800358 1.489395 -11.08855
v -6.243584 1.858753 -11.53223
v 6.107704 1.858753 -11.53223
v 5.240097 1.488697 -11.08909
v -6.243584 1.858753 -11.53223
v -6.243584 -4.012208 -11.53223
v 6.107704 -4.012208 -11.53223
v 6.107704 1.858753 -11.53223
v -6.243584 -4.012208 -11.53223
v -6.243584 -4.012208 -11.5325
v 5.664562 -4.012208 -11.08909
v 6.107704 -4.012208 -11.53223
v 5.664562 -4.012208 -11.08909
v 5.240097 1.488697 -11.08909
v 6.107704 1.858753 -11.53223
v 6.107704 -4.012208 -11.53223
v -6.243584 -4.012208 -11.53223
v -6.243584 1.858753 -11.53223
v -5.800358 1.489395 -11.08855
v -6.243584 -4.012208 -11.5325
v -5.800358 -4.013619 11.0602
v -5.800358 1.489395 11.0602
v -5.800358 1.489395 -11.08855
v -5.800358 -4.013619 -11.08855
v -5.800358 1.489395 11.0602
v -6.2435 1.857341 11.50387
v -6.2435 1.857341 -11.53223
v -5.800358 1.489395 -11.08855
v -6.2435 1.857341 11.50387
v -6.2435 -4.013619 11.50387
v -6.2435 -4.013619 -11.53196
v -6.2435 1.857341 -11.53223
v -6.2435 -4.013619 11.50387
v -5.800358 -4.013619 11.0602
v -5.800358 -4.013619 -11.08855
v -6.2435 -4.013619 -11.53196
v -5.800358 -4.013619 -11.08855
v -5.800358 1.489395 -11.08855
v -6.2435 1.857341 -11.53223
v -6.2435 -4.013619 -11.53196
v -6.2435 -4.013619 11.50387
v -6.2435 1.857341 11.50387
v -5.800358 1.489395 11.0602
v -5.800358 -4.013619 11.0602
v 6.091492 -4.013619 11.50387
v 6.107704 1.857341 11.50387
v 6.107704 1.857341 -11.53223
v 6.107704 -4.013619 -11.53223
v 6.107704 1.857341 11.50387
v 5.240181 1.488697 11.06073
v 5.240097 1.488697 -11.08909
v 6.107704 1.857341 -11.53223
v 5.240181 1.488697 11.06073
v 5.664562 -4.013619 11.0602
v 5.664562 -4.013619 -11.08855
v 5.240097 1.488697 -11.08909
v 5.664562 -4.013619 11.0602
v 6.091492 -4.013619 11.50387
v 6.107704 -4.013619 -11.53223
v 5.664562 -4.013619 -11.08855
v 6.107704 -4.013619 -11.53223
v 6.107704 1.857341 -11.53223
v 5.240097 1.488697 -11.08909
v 5.664562 -4.013619 -11.08855
v 5.664562 -4.013619 11.0602
v 5.240181 1.488697 11.06073
v 6.107704 1.857341 11.50387
v 6.091492 -4.013619 11.50387
v 6.243584 2.177745 8.190327
v 6.243584 4.013618 8.190327
v 6.243584 4.013618 -8.223392
v 6.243584 2.177745 -8.223392
v 6.243584 4.013618 8.190327
v 5.240181 4.013618 8.190327
v 5.240181 4.013618 -8.223392
v 6.243584 4.013618 -8.223392
v 5.240181 4.013618 8.190327
v 5.240181 2.177745 8.190327
v 5.240181 2.177745 -8.223392
v 5.240181 4.013618 -8.223392
v 5.240181 2.177745 8.190327
v 6.243584 2.177745 8.190327
v 6.243584 2.177745 -8.223392
v 5.240181 2.177745 -8.223392
v 6.243584 2.177745 -8.223392
v 6.243584 4.013618 -8.223392
v 5.240181 4.013618 -8.223392
v 5.240181 2.177745 -8.223392
v 5.240181 2.177745 8.190327
v 5.240181 4.013618 8.190327
v 6.243584 4.013618 8.190327
v 6.243584 2.177745 8.190327
v -5.813255 1.195884 11.06073
v -5.813255 1.488697 11.06073
v 5.240181 1.488697 11.06073
v 5.240181 1.195884 11.06073
v -5.813255 1.488697 11.06073
v -5.813255 1.488697 -11.08855
v 5.240181 1.488697 -11.08855
v 5.240181 1.488697 11.06073
v -5.813255 1.488697 -11.08855
v -5.813255 1.195884 -11.08855
v 5.240181 1.195884 -11.08855
v 5.240181 1.488697 -11.08855
v -5.813255 1.195884 -11.08855
v -5.813255 1.195884 11.06073
v 5.240181 1.195884 11.06073
v 5.240181 1.195884 -11.08855
v 5.240181 1.195884 11.06073
v 5.240181 1.488697 11.06073
v 5.240181 1.488697 -11.08855
v 5.240181 1.195884 -11.08855
v -5.813255 1.195884 -11.08855
v -5.813255 1.488697 -11.08855
v -5.813255 1.488697 11.06073
v -5.813255 1.195884 11.06073
v 6.238716 1.858165 11.53693
v 6.238716 2.177745 11.53693
v 6.238716 2.177745 -11.53693
v 6.238716 1.858165 -11.53693
v 6.238716 2.177745 11.53693
v 5.240097 2.177745 11.53693
v 5.240097 2.177745 -11.53693
v 6.238716 2.177745 -11.53693
v 5.240097 2.177745 11.53693
v 5.240097 1.858165 11.53693
v 5.240097 1.858165 -11.53693
v 5.240097 2.177745 -11.53693
v 5.240097 1.858165 11.53693
v 6.238716 1.858165 11.53693
v 6.238716 1.858165 -11.53693
v 5.240097 1.858165 -11.53693
v 6.238716 1.858165 -11.53693
v 6.238716 2.177745 -11.53693
v 5.240097 2.177745 -11.53693
v 5.240097 1.858165 -11.53693
v 5.240097 1.858165 11.53693
v 5.240097 2.177745 11.53693
v 6.238716 2.177745 11.53693
v 6.238716 1.858165 11.53693
vt 0.6395891 0.589207
vt 0.6395891 0.589207
vt 0.6395891 0.589207
vt 0.6395891 0.589207
vt 0.6395891 0.589207
vt 0.6395891 0.589207
vt 0.6395891 0.589207
vt 0.6395891 0.589207
vt 0.6395891 0.589207
vt 0.6395891 0.589207
vt 0.6395891 0.589207
vt 0.6395891 0.589207
vt 0.6395891 0.589207
vt 0.6395891 0.589207
vt 0.6395891 0.589207
vt 0.6395891 0.589207
vt 0.6395891 0.589207
vt 0.6395891 0.589207
vt 0.6395891 0.589207
vt 0.6395891 0.589207
vt 0.6395891 0.589207
vt 0.6395891 0.589207
vt 0.6395891 0.589207
vt 0.6395891 0.589207
vt 0.6395891 0.589207
vt 0.6395891 0.589207
vt 0.6395891 0.589207
vt 0.6395891 0.589207
vt 0.6395891 0.589207
vt 0.6395891 0.589207
vt 0.6395891 0.589207
vt 0.6395891 0.589207
vt 0.6395891 0.589207
vt 0.6395891 0.589207
vt 0.6395891 0.589207
vt 0.6395891 0.589207
vt 0.6395891 0.589207
vt 0.6395891 0.589207
vt 0.6395891 0.589207
vt 0.6395891 0.589207
vt 0.6395891 0.589207
vt 0.6395891 0.589207
vt 0.6395891 0.589207
vt 0.6395891 0.589207
vt 0.6395891 0.589207
vt 0.6395891 0.589207
vt 0.6395891 0.589207
vt 0.6395891 0.589207
vt 0.6395891 0.589207
vt 0.6395891 0.589207
vt 0.6395891 0.589207
vt 0.6395891 0.589207
vt 0.6395891 0.589207
vt 0.6395891 0.589207
vt 0.6395891 0.589207
vt 0.6395891 0.589207
vt 0.6395891 0.589207
vt 0.6395891 0.589207
vt 0.6395891 0.589207
vt 0.6395891 0.589207
vt 0.6395891 0.589207
vt 0.6395891 0.589207
vt 0.6395891 0.589207
vt 0.6395891 0.589207
vt 0.6395891 0.589207
vt 0.6395891 0.589207
vt 0.6395891 0.589207
vt 0.6395891 0.589207
vt 0.6395891 0.589207
vt 0.6395891 0.589207
vt 0.6395891 0.589207
vt 0.6395891 0.589207
vt 0.6395891 0.589207
vt 0.6395891 0.589207
vt 0.6395891 0.589207
vt 0.6395891 0.589207
vt 0.6395891 0.589207
vt 0.6395891 0.589207
vt 0.6395891 0.589207
vt 0.6395891 0.589207
vt 0.6395891 0.589207
vt 0.6395891 0.589207
vt 0.6395891 0.589207
vt 0.6395891 0.589207
vt 0.6395891 0.589207
vt 0.6395891 0.589207
vt 0.6395891 0.589207
vt 0.6395891 0.589207
vt 0.6395891 0.589207
vt 0.6395891 0.589207
vt 0.6395891 0.589207
vt 0.6395891 0.589207
vt 0.6395891 0.589207
vt 0.6395891 0.589207
vt 0.6395891 0.589207
vt 0.6395891 0.589207
vt 0.6395891 0.589207
vt 0.6395891 0.589207
vt 0.6395891 0.589207
vt 0.6395891 0.589207
vt 0.6395891 0.589207
vt 0.6395891 0.589207
vt 0.6395891 0.589207
vt 0.6395891 0.589207
vt 0.6395891 0.589207
vt 0.6395891 0.589207
vt 0.6395891 0.589207
vt 0.6395891 0.589207
vt 0.6395891 0.589207
vt 0.6395891 0.589207
vt 0.6395891 0.589207
vt 0.6395891 0.589207
vt 0.6395891 0.589207
vt 0.6395891 0.589207
vt 0.6395891 0.589207
vt 0.6395891 0.589207
vt 0.6395891 0.589207
vt 0.6395891 0.589207
vt 0.6395891 0.589207
vt 0.6395891 0.589207
vt 0.6395891 0.589207
vt 0.6395891 0.589207
vt 0.6395891 0.589207
vt 0.6395891 0.589207
vt 0.6395891 0.589207
vt 0.6395891 0.589207
vt 0.6395891 0.589207
vt 0.6395891 0.589207
vt 0.6395891 0.589207
vt 0.6395891 0.589207
vt 0.6395891 0.589207
vt 0.6395891 0.589207
vt 0.6395891 0.589207
vt 0.6395891 0.589207
vt 0.6395891 0.589207
vt 0.6395891 0.589207
vt 0.6395891 0.589207
vt 0.6395891 0.589207
vt 0.6395891 0.589207
vt 0.6395891 0.589207
vt 0.6395891 0.589207
vt 0.6395891 0.589207
vt 0.6395891 0.589207
vt 0.6395891 0.589207
vt 0.6395891 0.589207
vt 0.6395891 0.589207
vt 0.6395891 0.589207
vt 0.6395891 0.589207
vt 0.6395891 0.589207
vt 0.6395891 0.589207
vt 0.6395891 0.589207
vt 0.6395891 0.589207
vt 0.6395891 0.589207
vt 0.6395891 0.589207
vt 0.6395891 0.589207
vt 0.6395891 0.589207
vt 0.6395891 0.589207
vt 0.6395891 0.589207
vt 0.6395891 0.589207
vt 0.6395891 0.589207
vt 0.6395891 0.589207
vt 0.6395891 0.589207
vt 0.6395891 0.589207
vt 0.6395891 0.589207
vt 0.6395891 0.589207
vt 0.6395891 0.589207
vt 0.6395891 0.589207
vt 0.6395891 0.589207
vn 0 0 1
vn 0 0 1
vn 0 0 1
vn 0 0 1
vn 0 0.7685356 -0.639807
vn 0 0.7685356 -0.6398071
vn 0 0.7685356 -0.6398071
vn 0 0.7685356 -0.639807
vn 0 -9.637974E-05 -1
vn 0 -9.637974E-05 -1
vn 0 -9.637974E-05 -1
vn 0 -9.637974E-05 -1
vn 0 -1 0
vn 0 -1 0
vn 0 -1 0
vn 0 -1 0
vn 0.7140322 -0.001050507 -0.7001122
vn 0.7140322 -0.001050507 -0.7001121
vn 0.7140322 -0.001050507 -0.7001121
vn 0.7140322 -0.001050507 -0.7001121
vn -0.7072585 -3.296232E-05 -0.706955
vn -0.7072586 -3.296233E-05 -0.706955
vn -0.7072585 -3.296232E-05 -0.706955
vn -0.7072586 -3.296232E-05 -0.706955
vn -0.01928049 -0.04027666 0.9990025
vn -0.01928049 -0.04027666 0.9990025
vn -0.01928049 -0.04027667 0.9990025
vn -0.01928049 -0.04027666 0.9990025
vn 3.763994E-05 0.7680435 0.6403977
vn 3.763994E-05 0.7680434 0.6403978
vn 3.763994E-05 0.7680434 0.6403978
vn 3.763993E-05 0.7680434 0.6403977
vn 0 0 -1
vn 0 0 -1
vn 0 0 -1
vn 0 0 -1
vn 0 -1 0
vn 0 -1 0
vn 0 -1 0
vn 0 -1 0
vn 0.5559879 0.02075278 0.8309312
vn 0.5559878 0.02075279 0.8309313
vn 0.5559879 0.02075279 0.8309312
vn 0.5559879 0.02075279 0.8309312
vn -0.707268 -3.238635E-05 0.7069455
vn -0.707268 -3.238635E-05 0.7069455
vn -0.7072681 -3.238635E-05 0.7069455
vn -0.7072679 -3.238634E-05 0.7069455
vn 1 0 0
vn 1 0 0
vn 1 0 0
vn 1 0 0
vn 0.6388118 0.769363 0
vn 0.6388118 0.7693631 0
vn 0.6388118 0.7693631 0
vn 0.6388118 0.769363 0
vn -1 0 0
vn -1 0 0
vn -1 0 0
vn -1 0 0
vn 0 -1 0
vn 0 -1 0
vn 0 -1 0
vn 0 -1 0
vn 0.7074249 -1.671647E-05 -0.7067885
vn 0.7074249 -1.671647E-05 -0.7067885
vn 0.7074249 -1.671647E-05 -0.7067885
vn 0.7074249 -1.671647E-05 -0.7067885
vn 0.7075291 0 0.7066842
vn 0.7075291 0 0.7066842
vn 0.7075291 0 0.7066842
vn 0.7075291 0 0.7066842
vn 0.999999 -0.00138074 0.0003518921
vn 0.999999 -0.00138074 0.0003518921
vn 0.999999 -0.00138074 0.0003518921
vn 0.999999 -0.00138074 0.0003518921
vn -0.3910772 0.9203579 0
vn -0.3910772 0.9203579 0
vn -0.3910772 0.9203579 0
vn -0.3910772 0.9203579 0
vn -0.9970383 -0.07690696 0
vn -0.9970383 -0.07690696 0
vn -0.9970383 -0.07690696 0
vn -0.9970383 -0.07690696 0
vn 0 -1 0
vn 0 -1 0
vn 0 -1 0
vn 0 -1 0
vn -0.556228 -0.02079846 -0.8307694
vn -0.556228 -0.02079846 -0.8307694
vn -0.556228 -0.02079846 -0.8307694
vn -0.556228 -0.02079846 -0.8307694
vn -0.5611452 -0.02017714 0.8274714
vn -0.5611452 -0.02017713 0.8274714
vn -0.5611452 -0.02017713 0.8274714
vn -0.5611452 -0.02017713 0.8274714
vn 1 0 0
vn 1 0 0
vn 1 0 0
vn 1 0 0
vn 0 1 0
vn 0 1 0
vn 0 1 0
vn 0 1 0
vn -1 0 0
vn -1 0 0
vn -1 0 0
vn -1 0 0
vn 0 -1 0
vn 0 -1 0
vn 0 -1 0
vn 0 -1 0
vn 0 0 -1
vn 0 0 -1
vn 0 0 -1
vn 0 0 -1
vn 0 0 1
vn 0 0 1
vn 0 0 1
vn 0 0 1
vn 0 0 1
vn 0 0 1
vn 0 0 1
vn 0 0 1
vn 0 1 0
vn 0 1 0
vn 0 1 0
vn 0 1 0
vn 0 0 -1
vn 0 0 -1
vn 0 0 -1
vn 0 0 -1
vn 0 -1 0
vn 0 -1 0
vn 0 -1 0
vn 0 -1 0
vn 1 0 0
vn 1 0 0
vn 1 0 0
vn 1 0 0
vn -1 0 0
vn -1 0 0
vn -1 0 0
vn -1 0 0
vn 1 0 0
vn 1 0 0
vn 1 0 0
vn 1 0 0
vn 0 1 0
vn 0 1 0
vn 0 1 0
vn 0 1 0
vn -1 0 0
vn -1 0 0
vn -1 0 0
vn -1 0 0
vn 0 -1 0
vn 0 -1 0
vn 0 -1 0
vn 0 -1 0
vn 0 0 -1
vn 0 0 -1
vn 0 0 -1
vn 0 0 -1
vn 0 0 1
vn 0 0 1
vn 0 0 1
vn 0 0 1
f 3/3/3 2/2/2 1/1/1
f 4/4/4 3/3/3 1/1/1
f 7/7/7 6/6/6 5/5/5
f 8/8/8 7/7/7 5/5/5
f 11/11/11 10/10/10 9/9/9
f 12/12/12 11/11/11 9/9/9
f 15/15/15 14/14/14 13/13/13
f 16/16/16 15/15/15 13/13/13
f 19/19/19 18/18/18 17/17/17
f 20/20/20 19/19/19 17/17/17
f 23/23/23 22/22/22 21/21/21
f 24/24/24 23/23/23 21/21/21
f 27/27/27 26/26/26 25/25/25
f 28/28/28 27/27/27 25/25/25
f 31/31/31 30/30/30 29/29/29
f 32/32/32 31/31/31 29/29/29
f 35/35/35 34/34/34 33/33/33
f 36/36/36 35/35/35 33/33/33
f 39/39/39 38/38/38 37/37/37
f 40/40/40 39/39/39 37/37/37
f 43/43/43 42/42/42 41/41/41
f 44/44/44 43/43/43 41/41/41
f 47/47/47 46/46/46 45/45/45
f 48/48/48 47/47/47 45/45/45
f 51/51/51 50/50/50 49/49/49
f 52/52/52 51/51/51 49/49/49
f 55/55/55 54/54/54 53/53/53
f 56/56/56 55/55/55 53/53/53
f 59/59/59 58/58/58 57/57/57
f 60/60/60 59/59/59 57/57/57
f 63/63/63 62/62/62 61/61/61
f 64/64/64 63/63/63 61/61/61
f 67/67/67 66/66/66 65/65/65
f 68/68/68 67/67/67 65/65/65
f 71/71/71 70/70/70 69/69/69
f 72/72/72 71/71/71 69/69/69
f 75/75/75 74/74/74 73/73/73
f 76/76/76 75/75/75 73/73/73
f 79/79/79 78/78/78 77/77/77
f 80/80/80 79/79/79 77/77/77
f 83/83/83 82/82/82 81/81/81
f 84/84/84 83/83/83 81/81/81
f 87/87/87 86/86/86 85/85/85
f 88/88/88 87/87/87 85/85/85
f 91/91/91 90/90/90 89/89/89
f 92/92/92 91/91/91 89/89/89
f 95/95/95 94/94/94 93/93/93
f 96/96/96 95/95/95 93/93/93
f 99/99/99 98/98/98 97/97/97
f 100/100/100 99/99/99 97/97/97
f 103/103/103 102/102/102 101/101/101
f 104/104/104 103/103/103 101/101/101
f 107/107/107 106/106/106 105/105/105
f 108/108/108 107/107/107 105/105/105
f 111/111/111 110/110/110 109/109/109
f 112/112/112 111/111/111 109/109/109
f 115/115/115 114/114/114 113/113/113
f 116/116/116 115/115/115 113/113/113
f 119/119/119 118/118/118 117/117/117
f 120/120/120 119/119/119 117/117/117
f 123/123/123 122/122/122 121/121/121
f 124/124/124 123/123/123 121/121/121
f 127/127/127 126/126/126 125/125/125
f 128/128/128 127/127/127 125/125/125
f 131/131/131 130/130/130 129/129/129
f 132/132/132 131/131/131 129/129/129
f 135/135/135 134/134/134 133/133/133
f 136/136/136 135/135/135 133/133/133
f 139/139/139 138/138/138 137/137/137
f 140/140/140 139/139/139 137/137/137
f 143/143/143 142/142/142 141/141/141
f 144/144/144 143/143/143 141/141/141
f 147/147/147 146/146/146 145/145/145
f 148/148/148 147/147/147 145/145/145
f 151/151/151 150/150/150 149/149/149
f 152/152/152 151/151/151 149/149/149
f 155/155/155 154/154/154 153/153/153
f 156/156/156 155/155/155 153/153/153
f 159/159/159 158/158/158 157/157/157
f 160/160/160 159/159/159 157/157/157
f 163/163/163 162/162/162 161/161/161
f 164/164/164 163/163/163 161/161/161
f 167/167/167 166/166/166 165/165/165
f 168/168/168 167/167/167 165/165/165
