g garage_SL_01
v 7.648453 -3.14773 10.8936
v 7.648453 3.147729 10.8936
v 7.648453 3.147729 -10.89359
v 7.648453 -3.14773 -10.89359
v 7.648453 3.147729 -11.35896
v 7.648453 -3.14773 -11.35896
v 7.648453 3.147729 10.8936
v 7.18309 3.147729 10.8936
v 7.18309 3.147729 -10.89359
v 7.648453 3.147729 -10.89359
v 7.18309 3.147729 10.8936
v 7.18309 -3.14773 10.8936
v 7.18309 -3.14773 -10.89359
v 7.18309 3.147729 -10.89359
v -7.648453 -3.14773 11.35898
v -7.648453 3.147729 11.35898
v 7.648453 3.147729 11.35898
v 7.648453 -3.14773 11.35898
v -7.648453 3.147729 11.35898
v -7.648453 3.147729 10.8936
v 7.648453 3.147729 10.8936
v 7.648453 3.147729 11.35898
v -7.648453 3.147729 10.8936
v -7.648453 -3.14773 10.8936
v 7.648453 -3.14773 10.8936
v 7.648453 3.147729 10.8936
v 7.648453 -3.14773 11.35898
v 7.648453 3.147729 11.35898
v 7.648453 3.147729 10.8936
v 7.648453 -3.14773 10.8936
v -7.648453 -3.14773 10.8936
v -7.648453 3.147729 10.8936
v -7.648453 3.147729 11.35898
v -7.648453 -3.14773 11.35898
v 3.96257 -3.14773 -10.89359
v 3.96257 3.147729 -10.89359
v 7.648453 3.147729 -10.89359
v 7.648453 -3.14773 -10.89359
v 3.96257 3.147729 -10.89359
v 3.96257 3.147729 -11.35896
v 7.648453 3.147729 -11.35896
v 7.648453 3.147729 -10.89359
v 3.96257 3.147729 -11.35896
v 3.96257 -3.14773 -11.35896
v 7.648453 -3.14773 -11.35896
v 7.648453 3.147729 -11.35896
v 3.96257 -3.14773 -11.35896
v 3.96257 3.147729 -11.35896
v 3.96257 3.147729 -10.89359
v 3.96257 -3.14773 -10.89359
v -7.648453 -3.14773 -10.8936
v -7.648453 3.14773 -10.8936
v -7.648453 3.14773 10.89359
v -7.648453 -3.14773 10.89359
v -7.648453 3.14773 -10.8936
v -7.183075 3.14773 -10.8936
v -7.183075 3.14773 10.89359
v -7.648453 3.14773 10.89359
v -7.183075 3.14773 -10.8936
v -7.183075 -3.14773 -10.8936
v -7.183075 -3.14773 10.89359
v -7.183075 3.14773 10.89359
v -3.962555 -3.14773 -11.35898
v -3.962555 3.14773 -11.35898
v -7.648453 3.14773 -11.35898
v -7.648453 -3.14773 -11.35898
v -3.962555 3.14773 -11.35898
v -3.962555 3.14773 -10.8936
v -7.648453 3.14773 -10.8936
v -7.648453 3.14773 -11.35898
v -3.962555 3.14773 -10.8936
v -3.962555 -3.14773 -10.8936
v -7.648453 -3.14773 -10.8936
v -7.648453 3.14773 -10.8936
v -7.648453 -3.14773 -11.35898
v -7.648453 3.14773 -11.35898
v -7.648453 3.14773 -10.8936
v -7.648453 -3.14773 -10.8936
v -3.962555 -3.14773 -10.8936
v -3.962555 3.14773 -10.8936
v -3.962555 3.14773 -11.35898
v -3.962555 -3.14773 -11.35898
vt 0.3832792 0.4626515
vt 0.3832792 0.4658812
vt 0.3865089 0.4658812
vt 0.3865089 0.4626515
vt 0.3897386 0.4658812
vt 0.3897386 0.4626515
vt 0.3832792 0.4658812
vt 0.3832792 0.4691109
vt 0.3865089 0.4691109
vt 0.3865089 0.4658812
vt 0.3832792 0.4691109
vt 0.3832792 0.4723407
vt 0.3865089 0.4723407
vt 0.3865089 0.4691109
vt 0.3832792 0.4626515
vt 0.3832792 0.4658812
vt 0.3865089 0.4658812
vt 0.3865089 0.4626515
vt 0.3832792 0.4658812
vt 0.3832792 0.4691109
vt 0.3865089 0.4691109
vt 0.3865089 0.4658812
vt 0.3832792 0.4691109
vt 0.3832792 0.4723407
vt 0.3865089 0.4723407
vt 0.3865089 0.4691109
vt 0.3865089 0.4626515
vt 0.3865089 0.4658812
vt 0.3897386 0.4658812
vt 0.3897386 0.4626515
vt 0.3800494 0.4626515
vt 0.3800494 0.4658812
vt 0.3832792 0.4658812
vt 0.3832792 0.4626515
vt 0.3832792 0.4626515
vt 0.3832792 0.4658812
vt 0.3865089 0.4658812
vt 0.3865089 0.4626515
vt 0.3832792 0.4658812
vt 0.3832792 0.4691109
vt 0.3865089 0.4691109
vt 0.3865089 0.4658812
vt 0.3832792 0.4691109
vt 0.3832792 0.4723407
vt 0.3865089 0.4723407
vt 0.3865089 0.4691109
vt 0.3800494 0.4626515
vt 0.3800494 0.4658812
vt 0.3832792 0.4658812
vt 0.3832792 0.4626515
vt 0.3832792 0.4626515
vt 0.3832792 0.4658812
vt 0.3865089 0.4658812
vt 0.3865089 0.4626515
vt 0.3832792 0.4658812
vt 0.3832792 0.4691109
vt 0.3865089 0.4691109
vt 0.3865089 0.4658812
vt 0.3832792 0.4691109
vt 0.3832792 0.4723407
vt 0.3865089 0.4723407
vt 0.3865089 0.4691109
vt 0.3832792 0.4626515
vt 0.3832792 0.4658812
vt 0.3865089 0.4658812
vt 0.3865089 0.4626515
vt 0.3832792 0.4658812
vt 0.3832792 0.4691109
vt 0.3865089 0.4691109
vt 0.3865089 0.4658812
vt 0.3832792 0.4691109
vt 0.3832792 0.4723407
vt 0.3865089 0.4723407
vt 0.3865089 0.4691109
vt 0.3865089 0.4626515
vt 0.3865089 0.4658812
vt 0.3897386 0.4658812
vt 0.3897386 0.4626515
vt 0.3800494 0.4626515
vt 0.3800494 0.4658812
vt 0.3832792 0.4658812
vt 0.3832792 0.4626515
vn 1 0 0
vn 1 0 0
vn 1 0 0
vn 1 0 0
vn 1 0 0
vn 1 0 0
vn 0 1 0
vn 0 1 0
vn 0 1 0
vn 0 1 0
vn -1 0 0
vn -1 0 0
vn -1 0 0
vn -1 0 0
vn 0 0 1
vn 0 0 1
vn 0 0 1
vn 0 0 1
vn 0 1 0
vn 0 1 0
vn 0 1 0
vn 0 1 0
vn 0 0 -1
vn 0 0 -1
vn 0 0 -1
vn 0 0 -1
vn 1 0 0
vn 1 0 0
vn 1 0 0
vn 1 0 0
vn -1 0 0
vn -1 0 0
vn -1 0 0
vn -1 0 0
vn 0 0 1
vn 0 0 1
vn 0 0 1
vn 0 0 1
vn 0 1 0
vn 0 1 0
vn 0 1 0
vn 0 1 0
vn 0 0 -1
vn 0 0 -1
vn 0 0 -1
vn 0 0 -1
vn -1 0 0
vn -1 0 0
vn -1 0 0
vn -1 0 0
vn -1 0 0
vn -1 0 0
vn -1 0 0
vn -1 0 0
vn 0 1 0
vn 0 1 0
vn 0 1 0
vn 0 1 0
vn 1 0 0
vn 1 0 0
vn 1 0 0
vn 1 0 0
vn 0 0 -1
vn 0 0 -1
vn 0 0 -1
vn 0 0 -1
vn 0 1 0
vn 0 1 0
vn 0 1 0
vn 0 1 0
vn 0 0 1
vn 0 0 1
vn 0 0 1
vn 0 0 1
vn -1 0 0
vn -1 0 0
vn -1 0 0
vn -1 0 0
vn 1 0 0
vn 1 0 0
vn 1 0 0
vn 1 0 0
f 3/3/3 2/2/2 1/1/1
f 4/4/4 3/3/3 1/1/1
f 5/5/5 3/3/3 4/4/4
f 6/6/6 5/5/5 4/4/4
f 9/9/9 8/8/8 7/7/7
f 10/10/10 9/9/9 7/7/7
f 13/13/13 12/12/12 11/11/11
f 14/14/14 13/13/13 11/11/11
f 17/17/17 16/16/16 15/15/15
f 18/18/18 17/17/17 15/15/15
f 21/21/21 20/20/20 19/19/19
f 22/22/22 21/21/21 19/19/19
f 25/25/25 24/24/24 23/23/23
f 26/26/26 25/25/25 23/23/23
f 29/29/29 28/28/28 27/27/27
f 30/30/30 29/29/29 27/27/27
f 33/33/33 32/32/32 31/31/31
f 34/34/34 33/33/33 31/31/31
f 37/37/37 36/36/36 35/35/35
f 38/38/38 37/37/37 35/35/35
f 41/41/41 40/40/40 39/39/39
f 42/42/42 41/41/41 39/39/39
f 45/45/45 44/44/44 43/43/43
f 46/46/46 45/45/45 43/43/43
f 49/49/49 48/48/48 47/47/47
f 50/50/50 49/49/49 47/47/47
f 53/53/53 52/52/52 51/51/51
f 54/54/54 53/53/53 51/51/51
f 57/57/57 56/56/56 55/55/55
f 58/58/58 57/57/57 55/55/55
f 61/61/61 60/60/60 59/59/59
f 62/62/62 61/61/61 59/59/59
f 65/65/65 64/64/64 63/63/63
f 66/66/66 65/65/65 63/63/63
f 69/69/69 68/68/68 67/67/67
f 70/70/70 69/69/69 67/67/67
f 73/73/73 72/72/72 71/71/71
f 74/74/74 73/73/73 71/71/71
f 77/77/77 76/76/76 75/75/75
f 78/78/78 77/77/77 75/75/75
f 81/81/81 80/80/80 79/79/79
f 82/82/82 81/81/81 79/79/79
