g garage_05_02
v 7.342148 0.07009745 11.05267
v -0.1720581 0.978899 11.05266
v -0.1720428 0.978899 -11.05267
v 7.342148 0.07009745 -11.05267
v -0.1720581 0.978899 11.05266
v -7.342148 0.07009745 11.05266
v -7.342148 0.07009745 -11.05266
v -0.1720428 0.978899 -11.05267
v 7.342148 -0.9789 -11.35898
v 7.342148 0.9789 -11.35898
v -7.342148 0.9789 -11.35898
v -7.342148 -0.9789 -11.35898
v -7.648453 0.9789 -11.35898
v -7.648453 -0.9789 -11.35898
v 7.342148 0.9789 -11.35898
v 7.342148 0.9789 -11.05267
v -7.342148 0.9789 -11.05266
v -7.342148 0.9789 -11.35898
v 7.342148 0.9789 -11.05267
v 7.342148 -0.9789 -11.05267
v -7.342148 -0.9789 -11.05266
v -7.342148 0.9789 -11.05266
v 7.648453 -0.9789 11.35896
v 7.648453 0.9789 11.35896
v 7.648453 0.9789 -11.35898
v 7.648453 -0.9789 -11.35898
v 7.648453 0.9789 11.35896
v 7.342148 0.9789 11.35898
v 7.342148 0.9789 -11.35898
v 7.648453 0.9789 -11.35898
v 7.342148 0.9789 11.35898
v 7.342148 -0.9789 11.35898
v 7.342148 -0.9789 -11.35898
v 7.342148 0.9789 -11.35898
v 7.648453 -0.9789 -11.35898
v 7.648453 0.9789 -11.35898
v 7.342148 0.9789 -11.35898
v 7.342148 -0.9789 -11.35898
v 7.342148 -0.9789 11.35898
v 7.342148 0.9789 11.35898
v 7.648453 0.9789 11.35896
v 7.648453 -0.9789 11.35896
v -7.342148 -0.9789 11.35896
v -7.342148 0.9789 11.35896
v -7.342148 0.9789 -11.35898
v -7.342148 -0.9789 -11.35898
v -7.342148 0.9789 11.35896
v -7.648453 0.9789 11.35898
v -7.648453 0.9789 -11.35898
v -7.342148 0.9789 -11.35898
v -7.648453 0.9789 11.35898
v -7.648453 -0.9789 11.35898
v -7.648453 -0.9789 -11.35898
v -7.648453 0.9789 -11.35898
v -7.648453 -0.9789 11.35898
v -7.648453 0.9789 11.35898
v -7.342148 0.9789 11.35896
v -7.342148 -0.9789 11.35896
v 7.342148 -0.9789 11.05267
v 7.342148 0.9789 11.05267
v -7.342148 0.9789 11.05266
v -7.342148 -0.9789 11.05266
v 7.342148 0.9789 11.05267
v 7.342148 0.9789 11.35898
v -7.342148 0.9789 11.35896
v -7.342148 0.9789 11.05266
v 7.342148 0.9789 11.35898
v 7.342148 -0.9789 11.35898
v -7.342148 -0.9789 11.35896
v -7.342148 0.9789 11.35896
v -7.342148 0.205409 11.81615
v -7.835953 0.205409 11.81615
v -7.835953 0.205409 -11.81615
v -7.342148 0.205409 -11.81616
v -7.835953 0.205409 11.81615
v -7.835953 -0.3272376 11.81615
v -7.835953 -0.3272376 -11.81615
v -7.835953 0.205409 -11.81615
v -7.342148 -0.3272376 -11.81616
v -7.342148 0.205409 -11.81616
v -7.835953 0.205409 -11.81615
v -7.835953 -0.3272376 -11.81615
v -7.835953 -0.3272376 11.81615
v -7.835953 0.205409 11.81615
v -7.342148 0.205409 11.81615
v -7.342148 -0.3272376 11.81615
v 7.342148 -0.3272376 11.81613
v 7.342148 0.205409 11.81613
v 7.342148 0.205409 11.05267
v 7.342148 -0.3272376 11.05267
v 7.342148 0.205409 11.81613
v -7.342133 0.205409 11.81615
v -7.342148 0.205409 11.05266
v 7.342148 0.205409 11.05267
v -7.342133 0.205409 11.81615
v -7.342133 -0.3272376 11.81615
v -7.342148 -0.3272376 11.05266
v -7.342148 0.205409 11.05266
v -7.342133 -0.3272376 11.81615
v -7.342133 0.205409 11.81615
v 7.342148 0.205409 11.81613
v 7.342148 -0.3272376 11.81613
v 7.342148 -0.3272376 -11.05267
v 7.342148 0.205409 -11.05267
v 7.342148 0.205409 -11.81616
v 7.342148 -0.3272376 -11.81616
v 7.342148 0.205409 -11.05267
v -7.342148 0.205409 -11.05266
v -7.342148 0.205409 -11.81616
v 7.342148 0.205409 -11.81616
v -7.342148 0.205409 -11.05266
v -7.342148 -0.3272376 -11.05266
v -7.342148 -0.3272376 -11.81616
v -7.342148 0.205409 -11.81616
v 7.342148 -0.3272376 -11.81616
v 7.342148 0.205409 -11.81616
v -7.342148 0.205409 -11.81616
v -7.342148 -0.3272376 -11.81616
v 7.835938 -0.3272376 11.81616
v 7.835938 0.205409 11.81616
v 7.835953 0.205409 -11.81616
v 7.835953 -0.3272376 -11.81616
v 7.835938 0.205409 11.81616
v 7.342148 0.205409 11.81613
v 7.342148 0.205409 -11.81616
v 7.835953 0.205409 -11.81616
v 7.835953 -0.3272376 -11.81616
v 7.835953 0.205409 -11.81616
v 7.342148 0.205409 -11.81616
v 7.342148 -0.3272376 -11.81616
v 7.342148 -0.3272376 11.81613
v 7.342148 0.205409 11.81613
v 7.835938 0.205409 11.81616
v 7.835938 -0.3272376 11.81616
vt 0.2353512 0.2699749
vt 0.23993 0.2699749
vt 0.23993 0.2643301
vt 0.2353512 0.2643301
vt 0.326951 0.2699749
vt 0.3315298 0.2699749
vt 0.3315297 0.26433
vt 0.3269509 0.2643301
vt 0.3832791 0.4626515
vt 0.3832791 0.4658812
vt 0.3865089 0.4658812
vt 0.3865089 0.4626515
vt 0.3897386 0.4658812
vt 0.3897386 0.4626515
vt 0.3832791 0.4658812
vt 0.3832791 0.469111
vt 0.3865089 0.469111
vt 0.3865089 0.4658812
vt 0.3832791 0.469111
vt 0.3832791 0.4723407
vt 0.3865089 0.4723407
vt 0.3865089 0.469111
vt 0.3832791 0.4626515
vt 0.3832791 0.4658812
vt 0.3865089 0.4658812
vt 0.3865089 0.4626515
vt 0.3832791 0.4658812
vt 0.3832791 0.469111
vt 0.3865089 0.469111
vt 0.3865089 0.4658812
vt 0.3832791 0.469111
vt 0.3832791 0.4723407
vt 0.3865089 0.4723407
vt 0.3865089 0.469111
vt 0.3865089 0.4626515
vt 0.3865089 0.4658812
vt 0.3897386 0.4658812
vt 0.3897386 0.4626515
vt 0.3800494 0.4626515
vt 0.3800494 0.4658812
vt 0.3832791 0.4658812
vt 0.3832791 0.4626515
vt 0.3832791 0.4626515
vt 0.3832791 0.4658812
vt 0.3865089 0.4658812
vt 0.3865089 0.4626515
vt 0.3832791 0.4658812
vt 0.3832791 0.469111
vt 0.3865089 0.469111
vt 0.3865089 0.4658812
vt 0.3832791 0.469111
vt 0.3832791 0.4723407
vt 0.3865089 0.4723407
vt 0.3865089 0.469111
vt 0.3800494 0.4626515
vt 0.3800494 0.4658812
vt 0.3832791 0.4658812
vt 0.3832791 0.4626515
vt 0.3832791 0.4626515
vt 0.3832791 0.4658812
vt 0.3865089 0.4658812
vt 0.3865089 0.4626515
vt 0.3832791 0.4658812
vt 0.3832791 0.469111
vt 0.3865089 0.469111
vt 0.3865089 0.4658812
vt 0.3832791 0.469111
vt 0.3832791 0.4723407
vt 0.3865089 0.4723407
vt 0.3865089 0.469111
vt 0.2939174 0.09113827
vt 0.2939174 0.09436801
vt 0.2971471 0.09436801
vt 0.2971471 0.09113827
vt 0.2939174 0.09436801
vt 0.2939174 0.09759778
vt 0.2971471 0.09759778
vt 0.2971471 0.09436801
vt 0.2971471 0.08790857
vt 0.2971471 0.09113827
vt 0.3003768 0.09113827
vt 0.3003768 0.08790857
vt 0.2906876 0.08790857
vt 0.2906876 0.09113827
vt 0.2939174 0.09113827
vt 0.2939174 0.08790857
vt 0.2939174 0.08790857
vt 0.2939174 0.09113827
vt 0.2971471 0.09113827
vt 0.2971471 0.08790857
vt 0.2939174 0.09113827
vt 0.2939174 0.09436801
vt 0.2971471 0.09436801
vt 0.2971471 0.09113827
vt 0.2939174 0.09436801
vt 0.2939174 0.09759778
vt 0.2971471 0.09759778
vt 0.2971471 0.09436801
vt 0.2906876 0.08790857
vt 0.2906876 0.09113827
vt 0.2939174 0.09113827
vt 0.2939174 0.08790857
vt 0.2939174 0.08790857
vt 0.2939174 0.09113827
vt 0.2971471 0.09113827
vt 0.2971471 0.08790857
vt 0.2939174 0.09113827
vt 0.2939174 0.09436801
vt 0.2971471 0.09436801
vt 0.2971471 0.09113827
vt 0.2939174 0.09436801
vt 0.2939174 0.09759778
vt 0.2971471 0.09759778
vt 0.2971471 0.09436801
vt 0.2971471 0.08790857
vt 0.2971471 0.09113827
vt 0.3003768 0.09113827
vt 0.3003768 0.08790857
vt 0.2939174 0.08790857
vt 0.2939174 0.09113827
vt 0.2971471 0.09113827
vt 0.2971471 0.08790857
vt 0.2939174 0.09113827
vt 0.2939174 0.09436801
vt 0.2971471 0.09436801
vt 0.2971471 0.09113827
vt 0.2971471 0.08790857
vt 0.2971471 0.09113827
vt 0.3003768 0.09113827
vt 0.3003768 0.08790857
vt 0.2906876 0.08790857
vt 0.2906876 0.09113827
vt 0.2939174 0.09113827
vt 0.2939174 0.08790857
vn 0.1200699 0.9927654 0
vn 0.1200699 0.9927654 0
vn 0.1200699 0.9927654 0
vn 0.1200699 0.9927654 0
vn -0.1257426 0.9920629 0
vn -0.1257426 0.9920629 0
vn -0.1257426 0.9920629 0
vn -0.1257426 0.9920629 0
vn 0 0 -1
vn 0 0 -1
vn 0 0 -1
vn 0 0 -1
vn 0 0 -1
vn 0 0 -1
vn 0 1 0
vn 0 1 0
vn 0 1 0
vn 0 1 0
vn 0 0 1
vn 0 0 1
vn 0 0 1
vn 0 0 1
vn 1 0 0
vn 1 0 0
vn 1 0 0
vn 1 0 0
vn 0 1 0
vn 0 1 0
vn 0 1 0
vn 0 1 0
vn -1 0 0
vn -1 0 0
vn -1 0 0
vn -1 0 0
vn 0 0 -1
vn 0 0 -1
vn 0 0 -1
vn 0 0 -1
vn 5.088946E-05 0 1
vn 5.088946E-05 0 1
vn 5.088946E-05 0 1
vn 5.088946E-05 0 1
vn 1 0 0
vn 1 0 0
vn 1 0 0
vn 1 0 0
vn 0 1 0
vn 0 1 0
vn 0 1 0
vn 0 1 0
vn -1 0 0
vn -1 0 0
vn -1 0 0
vn -1 0 0
vn 5.088946E-05 0 1
vn 5.088946E-05 0 1
vn 5.088946E-05 0 1
vn 5.088946E-05 0 1
vn 0 0 -1
vn 0 0 -1
vn 0 0 -1
vn 0 0 -1
vn 0 1 0
vn 0 1 0
vn 0 1 0
vn 0 1 0
vn 0 0 1
vn 0 0 1
vn 0 0 1
vn 0 0 1
vn 0 1 0
vn 0 1 0
vn 0 1 0
vn 0 1 0
vn -1 0 0
vn -1 0 0
vn -1 0 0
vn -1 0 0
vn -2.900653E-05 0 -1
vn -2.900653E-05 0 -1
vn -2.900653E-05 0 -1
vn -2.900653E-05 0 -1
vn 0 0 1
vn 0 0 1
vn 0 0 1
vn 0 0 1
vn 1 0 0
vn 1 0 0
vn 1 0 0
vn 1 0 0
vn 0 1 0
vn 0 1 0
vn 0 1 0
vn 0 1 0
vn -1 0 1.998561E-05
vn -1 0 1.998561E-05
vn -1 0 1.998561E-05
vn -1 0 1.998561E-05
vn 0 0 1
vn 0 0 1
vn 0 0 1
vn 0 0 1
vn 1 0 0
vn 1 0 0
vn 1 0 0
vn 1 0 0
vn 0 1 0
vn 0 1 0
vn 0 1 0
vn 0 1 0
vn -1 0 0
vn -1 0 0
vn -1 0 0
vn -1 0 0
vn 0 0 -1
vn 0 0 -1
vn 0 0 -1
vn 0 0 -1
vn 1 0 0
vn 1 0 0
vn 1 0 0
vn 1 0 0
vn 0 1 0
vn 0 1 0
vn 0 1 0
vn 0 1 0
vn 0 0 -1
vn 0 0 -1
vn 0 0 -1
vn 0 0 -1
vn -5.801479E-05 0 1
vn -5.801479E-05 0 1
vn -5.801479E-05 0 1
vn -5.801479E-05 0 1
f 3/3/3 2/2/2 1/1/1
f 4/4/4 3/3/3 1/1/1
f 7/7/7 6/6/6 5/5/5
f 8/8/8 7/7/7 5/5/5
f 11/11/11 10/10/10 9/9/9
f 12/12/12 11/11/11 9/9/9
f 13/13/13 11/11/11 12/12/12
f 14/14/14 13/13/13 12/12/12
f 17/17/17 16/16/16 15/15/15
f 18/18/18 17/17/17 15/15/15
f 21/21/21 20/20/20 19/19/19
f 22/22/22 21/21/21 19/19/19
f 25/25/25 24/24/24 23/23/23
f 26/26/26 25/25/25 23/23/23
f 29/29/29 28/28/28 27/27/27
f 30/30/30 29/29/29 27/27/27
f 33/33/33 32/32/32 31/31/31
f 34/34/34 33/33/33 31/31/31
f 37/37/37 36/36/36 35/35/35
f 38/38/38 37/37/37 35/35/35
f 41/41/41 40/40/40 39/39/39
f 42/42/42 41/41/41 39/39/39
f 45/45/45 44/44/44 43/43/43
f 46/46/46 45/45/45 43/43/43
f 49/49/49 48/48/48 47/47/47
f 50/50/50 49/49/49 47/47/47
f 53/53/53 52/52/52 51/51/51
f 54/54/54 53/53/53 51/51/51
f 57/57/57 56/56/56 55/55/55
f 58/58/58 57/57/57 55/55/55
f 61/61/61 60/60/60 59/59/59
f 62/62/62 61/61/61 59/59/59
f 65/65/65 64/64/64 63/63/63
f 66/66/66 65/65/65 63/63/63
f 69/69/69 68/68/68 67/67/67
f 70/70/70 69/69/69 67/67/67
f 73/73/73 72/72/72 71/71/71
f 74/74/74 73/73/73 71/71/71
f 77/77/77 76/76/76 75/75/75
f 78/78/78 77/77/77 75/75/75
f 81/81/81 80/80/80 79/79/79
f 82/82/82 81/81/81 79/79/79
f 85/85/85 84/84/84 83/83/83
f 86/86/86 85/85/85 83/83/83
f 89/89/89 88/88/88 87/87/87
f 90/90/90 89/89/89 87/87/87
f 93/93/93 92/92/92 91/91/91
f 94/94/94 93/93/93 91/91/91
f 97/97/97 96/96/96 95/95/95
f 98/98/98 97/97/97 95/95/95
f 101/101/101 100/100/100 99/99/99
f 102/102/102 101/101/101 99/99/99
f 105/105/105 104/104/104 103/103/103
f 106/106/106 105/105/105 103/103/103
f 109/109/109 108/108/108 107/107/107
f 110/110/110 109/109/109 107/107/107
f 113/113/113 112/112/112 111/111/111
f 114/114/114 113/113/113 111/111/111
f 117/117/117 116/116/116 115/115/115
f 118/118/118 117/117/117 115/115/115
f 121/121/121 120/120/120 119/119/119
f 122/122/122 121/121/121 119/119/119
f 125/125/125 124/124/124 123/123/123
f 126/126/126 125/125/125 123/123/123
f 129/129/129 128/128/128 127/127/127
f 130/130/130 129/129/129 127/127/127
f 133/133/133 132/132/132 131/131/131
f 134/134/134 133/133/133 131/131/131
