g GardenShed_Wood_bottom
v -2.384186E-07 0.02756726 1.649893
v -2.384186E-07 0.02756726 -1.657197
v 2.00022 0.02756726 -1.657197
v 2.00022 0.02756726 1.649893
v -2.00022 0.02756726 1.649893
v -2.00022 0.02756726 -1.657197
v -2.384186E-07 0.02756726 -1.657197
v -2.384186E-07 0.02756726 1.649893
v -7.152557E-07 0.02756726 1.649893
v -7.152557E-07 0.02756726 -1.657197
v 2.000219 0.02756726 -1.657197
v 2.000219 0.02756726 1.649893
v -2.000221 0.02756726 1.649893
v -2.000221 0.02756726 -1.657197
v -7.152557E-07 0.02756726 -1.657197
v -7.152557E-07 0.02756726 1.649893
v -7.152557E-07 0.02756726 -1.657197
v -7.152557E-07 -1.192093E-07 -1.657197
v 2.000219 -1.192093E-07 -1.657197
v 2.000219 0.02756726 -1.657197
v -2.384186E-07 -1.192093E-07 1.749892
v 2.087804 -1.192093E-07 1.749892
v 2.087804 -1.192093E-07 -1.749893
v -2.384186E-07 -1.192093E-07 -1.749893
v -2.087804 -1.192093E-07 1.749892
v -2.384186E-07 -1.192093E-07 1.749892
v -2.384186E-07 -1.192093E-07 -1.749893
v -2.087804 -1.192093E-07 -1.749893
v 2.00022 1.784223 0.0134057
v 2.00022 -1.192093E-07 0.0134057
v 2.00022 -1.192093E-07 -1.657197
v 2.00022 3.053423 0.0134057
v 2.00022 3.49217 -1.657197
v 2.00022 3.49217 0.0134057
v 2.00022 3.053423 0.0134057
v 2.00022 3.49217 0.0134057
v 2.00022 3.49217 1.649893
v 2.00022 3.053424 1.518379
v 2.00022 1.784223 1.518379
v 2.00022 -1.192093E-07 1.649893
v 2.00022 1.784223 0.0134057
v 2.00022 -1.192093E-07 0.0134057
v 2.087804 1.784223 0.0134057
v 2.087804 -1.192093E-07 -1.657197
v 2.087804 -1.192093E-07 0.0134057
v 2.087804 3.053423 0.0134057
v 2.087804 3.49217 -1.657197
v 2.087804 3.49217 0.0134057
v 2.087804 3.053423 0.0134057
v 2.087804 3.053424 1.518379
v 2.087804 3.49217 1.649893
v 2.087804 3.49217 0.0134057
v 2.087804 1.784223 1.518379
v 2.087804 -1.192093E-07 1.649893
v 2.087804 1.784223 0.0134057
v 2.087804 -1.192093E-07 0.0134057
v 2.087804 -1.192093E-07 -1.657197
v 2.087804 3.49217 -1.657197
v 2.00022 3.49217 -1.657197
v 2.00022 -1.192093E-07 -1.657197
v 2.087804 3.49217 0.0134057
v 2.087804 3.49217 1.649893
v 2.00022 3.49217 1.649893
v 2.00022 3.49217 0.0134057
v 2.087804 3.49217 1.649893
v 2.087804 -1.192093E-07 1.649893
v 2.00022 -1.192093E-07 1.649893
v 2.00022 3.49217 1.649893
v 2.087804 3.49217 -1.657197
v 2.087804 3.49217 0.0134057
v 2.00022 3.49217 0.0134057
v 2.00022 3.49217 -1.657197
v 2.087804 1.784223 1.518379
v 2.00022 1.784223 1.518379
v 2.00022 1.784223 0.0134057
v 2.087804 1.784223 0.0134057
v 2.087804 1.784223 0.0134057
v 2.00022 1.784223 0.0134057
v 2.00022 3.053423 0.0134057
v 2.087804 3.053423 0.0134057
v 2.087804 3.053423 0.0134057
v 2.00022 3.053423 0.0134057
v 2.00022 3.053424 1.518379
v 2.087804 3.053424 1.518379
v 2.087804 3.053424 1.518379
v 2.00022 3.053424 1.518379
v 2.00022 1.784223 1.518379
v 2.087804 1.784223 1.518379
v -2.087804 -1.192093E-07 1.649893
v -2.481326E-07 -1.192093E-07 1.649893
v -2.481326E-07 4.089905 1.649893
v -2.087804 3.49217 1.649893
v -2.481326E-07 4.089905 1.649893
v -2.481326E-07 -1.192093E-07 1.649893
v 2.087804 -1.192093E-07 1.649893
v 2.087804 3.49217 1.649893
v -2.087804 -1.192093E-07 1.749892
v -2.087804 3.49217 1.749892
v -2.488856E-07 4.089905 1.749892
v -2.488856E-07 -1.192093E-07 1.749892
v -2.488856E-07 4.089905 1.749892
v 2.087804 3.49217 1.749892
v 2.087804 -1.192093E-07 1.749892
v -2.488856E-07 -1.192093E-07 1.749892
v -2.488856E-07 4.089905 1.749892
v -2.087804 3.49217 1.749892
v -2.087804 3.49217 1.649893
v -2.481326E-07 4.089905 1.649893
v -2.087804 3.49217 1.749892
v -2.087804 -1.192093E-07 1.749892
v -2.087804 -1.192093E-07 1.649893
v -2.087804 3.49217 1.649893
v 2.087804 -1.192093E-07 1.749892
v 2.087804 3.49217 1.749892
v 2.087804 3.49217 1.649893
v 2.087804 -1.192093E-07 1.649893
v 2.087804 3.49217 1.749892
v -2.488856E-07 4.089905 1.749892
v -2.481326E-07 4.089905 1.649893
v 2.087804 3.49217 1.649893
v -2.488856E-07 4.089905 -1.657197
v 2.087804 3.49217 -1.657197
v 1.939058 3.001257 -1.657197
v 0.09827942 3.001257 -1.657197
v 1.939058 -1.192093E-07 -1.657197
v 2.087804 -1.192093E-07 -1.657197
v 0.09827945 -1.192093E-07 -1.657197
v -2.488857E-07 -1.192093E-07 -1.657197
v -2.087804 3.49217 -1.657197
v -2.488856E-07 4.089905 -1.657197
v -0.1752884 3.090329 -1.657197
v -1.912516 3.090329 -1.657197
v -0.1752884 1.736353 -1.657197
v -2.488857E-07 -1.192093E-07 -1.657197
v -1.912516 1.736353 -1.657197
v -2.087804 -1.192093E-07 -1.657197
v 0.09827942 3.001257 -1.657197
v 1.939058 3.001257 -1.657197
v 1.853465 2.904715 -1.657197
v 0.1838727 2.904715 -1.657197
v 1.853465 -1.192093E-07 -1.657197
v 1.939058 -1.192093E-07 -1.657197
v 0.1838727 -1.192093E-07 -1.657197
v 0.09827945 -1.192093E-07 -1.657197
v -2.488856E-07 4.089905 -1.749892
v 0.09827942 3.001257 -1.749892
v 1.939058 3.001257 -1.749892
v 2.087804 3.49217 -1.749892
v 2.087804 -1.192093E-07 -1.749893
v 1.939058 -1.192093E-07 -1.749893
v -2.087804 3.49217 -1.749892
v -1.912516 3.090329 -1.749893
v -0.1752884 3.090329 -1.749893
v -2.488856E-07 4.089905 -1.749892
v -0.1752884 1.736353 -1.749893
v -2.488857E-07 -1.192093E-07 -1.749893
v -2.087804 -1.192093E-07 -1.749893
v -1.912516 1.736353 -1.749893
v 0.09827942 3.001257 -1.749892
v 0.1838727 2.904715 -1.749892
v 1.853465 2.904715 -1.749892
v 1.939058 3.001257 -1.749892
v 1.939058 -1.192093E-07 -1.749893
v 1.853465 -1.192093E-07 -1.749893
v 0.09827945 -1.192093E-07 -1.749893
v 0.1838727 -1.192093E-07 -1.749893
v -2.488856E-07 4.089905 -1.749892
v 2.087804 3.49217 -1.749892
v 2.087804 3.49217 -1.657197
v -2.488856E-07 4.089905 -1.657197
v 2.087804 3.49217 -1.749892
v 2.087804 -1.192093E-07 -1.749893
v 2.087804 -1.192093E-07 -1.657197
v 2.087804 3.49217 -1.657197
v -2.087804 3.49217 -1.749892
v -2.488856E-07 4.089905 -1.749892
v -2.488856E-07 4.089905 -1.657197
v -2.087804 3.49217 -1.657197
v 1.853465 2.904715 -1.657197
v 1.853465 2.904715 -1.749892
v 0.1838727 2.904715 -1.749892
v 0.1838727 2.904715 -1.657197
v 0.1838727 2.904715 -1.749892
v 0.1838727 -1.192093E-07 -1.749893
v 0.1838727 -1.192093E-07 -1.657197
v 0.1838727 2.904715 -1.657197
v -1.912516 3.090329 -1.749893
v -1.912516 3.090329 -1.657197
v -0.1752884 3.090329 -1.657197
v -0.1752884 3.090329 -1.749893
v -0.1752884 3.090329 -1.749893
v -0.1752884 3.090329 -1.657197
v -0.1752884 1.736353 -1.657197
v -0.1752884 1.736353 -1.749893
v -0.1752884 1.736353 -1.749893
v -0.1752884 1.736353 -1.657197
v -1.912516 1.736353 -1.657197
v -1.912516 1.736353 -1.749893
v -1.912516 1.736353 -1.749893
v -1.912516 1.736353 -1.657197
v -1.912516 3.090329 -1.657197
v -1.912516 3.090329 -1.749893
v 1.853465 2.904715 -1.749892
v 1.853465 2.904715 -1.657197
v 1.853465 -1.192093E-07 -1.657197
v 1.853465 -1.192093E-07 -1.749893
v 0.09827942 3.001257 -1.749892
v -2.488856E-07 4.089905 -1.749892
v -2.488857E-07 -1.192093E-07 -1.749893
v 0.09827945 -1.192093E-07 -1.749893
v -2.087804 3.49217 -1.749892
v -2.087804 3.49217 -1.657197
v -2.087804 -1.192093E-07 -1.657197
v -2.087804 -1.192093E-07 -1.749893
v -2.087804 1.784223 0.0134057
v -2.087804 -1.192093E-07 0.0134057
v -2.087804 -1.192093E-07 -1.657197
v -2.087804 3.053423 0.0134057
v -2.087804 3.49217 -1.657197
v -2.087804 3.49217 0.0134057
v -2.087804 3.053423 0.0134057
v -2.087804 3.49217 0.0134057
v -2.087804 3.49217 1.649893
v -2.087804 3.053424 1.518379
v -2.087804 1.784223 1.518379
v -2.087804 -1.192093E-07 1.649893
v -2.087804 1.784223 0.0134057
v -2.087804 -1.192093E-07 0.0134057
v -2.00022 1.784223 0.0134057
v -2.00022 -1.192093E-07 -1.657197
v -2.00022 -1.192093E-07 0.0134057
v -2.00022 3.053423 0.0134057
v -2.00022 3.49217 -1.657197
v -2.00022 3.49217 0.0134057
v -2.00022 3.053423 0.0134057
v -2.00022 3.053424 1.518379
v -2.00022 3.49217 1.649893
v -2.00022 3.49217 0.0134057
v -2.00022 1.784223 1.518379
v -2.00022 -1.192093E-07 1.649893
v -2.00022 1.784223 0.0134057
v -2.00022 -1.192093E-07 0.0134057
v -2.00022 -1.192093E-07 -1.657197
v -2.00022 3.49217 -1.657197
v -2.087804 3.49217 -1.657197
v -2.087804 -1.192093E-07 -1.657197
v -2.00022 3.49217 0.0134057
v -2.00022 3.49217 1.649893
v -2.087804 3.49217 1.649893
v -2.087804 3.49217 0.0134057
v -2.00022 3.49217 1.649893
v -2.00022 -1.192093E-07 1.649893
v -2.087804 -1.192093E-07 1.649893
v -2.087804 3.49217 1.649893
v -2.00022 3.49217 -1.657197
v -2.00022 3.49217 0.0134057
v -2.087804 3.49217 0.0134057
v -2.087804 3.49217 -1.657197
v -2.087804 1.784223 0.0134057
v -2.00022 1.784223 0.0134057
v -2.00022 1.784223 1.518379
v -2.087804 1.784223 1.518379
v -2.087804 3.053423 0.0134057
v -2.00022 3.053423 0.0134057
v -2.00022 1.784223 0.0134057
v -2.087804 1.784223 0.0134057
v -2.087804 3.053424 1.518379
v -2.00022 3.053424 1.518379
v -2.00022 3.053423 0.0134057
v -2.087804 3.053423 0.0134057
v -2.087804 1.784223 1.518379
v -2.00022 1.784223 1.518379
v -2.00022 3.053424 1.518379
v -2.087804 3.053424 1.518379
vt 0.25209 0.6026582
vt 0.2189445 0.602658
vt 0.2189445 0.9951944
vt 0.25209 0.9951944
vt 0.25209 0.6026582
vt 0.2189445 0.602658
vt 0.2189445 0.9951944
vt 0.25209 0.9951944
vt 0.25209 0.6026582
vt 0.2189445 0.602658
vt 0.2189445 0.9951944
vt 0.25209 0.9951944
vt 0.25209 0.6026582
vt 0.2189445 0.602658
vt 0.2189445 0.9951944
vt 0.25209 0.9951944
vt 0.2187599 0.755484
vt 0.2187599 0.7837718
vt 0.2470477 0.7837718
vt 0.2470477 0.755484
vt 0.25209 0.6026582
vt 0.25209 0.9951944
vt 0.2189445 0.9951944
vt 0.2189445 0.602658
vt 0.25209 0.6026582
vt 0.25209 0.9951944
vt 0.2189445 0.9951944
vt 0.2189445 0.602658
vt 0.05235463 0.9906101
vt 0.02349847 0.9906102
vt 0.02349847 0.59793
vt 0.07279413 0.99061
vt 0.07985979 0.59793
vt 0.07985979 0.9906102
vt 0.07279413 0.59779
vt 0.07985979 0.5977901
vt 0.07985979 0.9679523
vt 0.07279413 0.9358728
vt 0.05235463 0.9358732
vt 0.02349847 0.9679523
vt 0.05235463 0.5977899
vt 0.02349847 0.5977901
vt 0.05235463 0.9906101
vt 0.02349847 0.59793
vt 0.02349847 0.9906102
vt 0.07279413 0.99061
vt 0.07985979 0.59793
vt 0.07985979 0.9906102
vt 0.07279413 0.59779
vt 0.07279413 0.9358728
vt 0.07985979 0.9679523
vt 0.07985979 0.5977901
vt 0.05235463 0.9358732
vt 0.02349847 0.9679523
vt 0.05235463 0.5977899
vt 0.02349847 0.5977901
vt 0.02349847 0.59793
vt 0.07985979 0.59793
vt 0.07985979 0.59793
vt 0.02349847 0.59793
vt 0.07985979 0.5977901
vt 0.07985979 0.9679523
vt 0.07985979 0.9679523
vt 0.07985979 0.5977901
vt 0.07985979 0.9679523
vt 0.02349847 0.9679523
vt 0.02349847 0.9679523
vt 0.07985979 0.9679523
vt 0.07985979 0.59793
vt 0.07985979 0.9906102
vt 0.07985979 0.9906102
vt 0.07985979 0.59793
vt 0.03369176 0.8299168
vt 0.03369176 0.8637738
vt 0.06754863 0.8637738
vt 0.06754863 0.8299168
vt 0.03369176 0.8299168
vt 0.03369176 0.8637738
vt 0.06754863 0.8637738
vt 0.06754863 0.8299168
vt 0.03369176 0.8299168
vt 0.03369176 0.8637738
vt 0.06754863 0.8637738
vt 0.06754863 0.8299168
vt 0.03369176 0.8299168
vt 0.03369176 0.8637738
vt 0.06754863 0.8637738
vt 0.06754863 0.8299168
vt 0.1175916 0.9849854
vt 0.1175917 0.5952916
vt 0.183579 0.5952916
vt 0.173953 0.9849855
vt 0.183579 0.9851806
vt 0.1175917 0.9851806
vt 0.1175916 0.5954866
vt 0.173953 0.5954869
vt 0.1175916 0.9849854
vt 0.173953 0.9849855
vt 0.183579 0.5952916
vt 0.1175917 0.5952916
vt 0.183579 0.9851806
vt 0.173953 0.5954869
vt 0.1175916 0.5954866
vt 0.1175917 0.9851806
vt 0.183579 0.5952916
vt 0.173953 0.9849855
vt 0.173953 0.9849855
vt 0.183579 0.5952916
vt 0.05774046 0.9259458
vt 0.05774046 0.9259458
vt 0.05774046 0.9197278
vt 0.05774046 0.9197278
vt 0.05152243 0.9259458
vt 0.05152243 0.9259458
vt 0.05152243 0.9197278
vt 0.05152243 0.9197278
vt 0.173953 0.5954869
vt 0.183579 0.9851806
vt 0.183579 0.9851806
vt 0.173953 0.5954869
vt 0.1175916 0.9355676
vt 0.1272177 0.5974226
vt 0.1351235 0.6251866
vt 0.1351234 0.9170081
vt 0.1835791 0.6251867
vt 0.183579 0.5974226
vt 0.183579 0.9170082
vt 0.183579 0.9871166
vt 0.1272177 0.986921
vt 0.1175916 0.5972273
vt 0.133689 0.6299454
vt 0.133689 0.9542032
vt 0.1554937 0.6299455
vt 0.183579 0.5972276
vt 0.1554937 0.9542034
vt 0.183579 0.986921
vt 0.04918197 0.8456783
vt 0.0553602 0.8456783
vt 0.0553602 0.8456783
vt 0.04918197 0.8456783
vt 0.0553602 0.8598645
vt 0.0553602 0.8598645
vt 0.04918197 0.8598645
vt 0.04918197 0.8598645
vt 0.1175916 0.9355676
vt 0.1351234 0.9170081
vt 0.1351235 0.6251866
vt 0.1272177 0.5974226
vt 0.183579 0.5974226
vt 0.1835791 0.6251867
vt 0.1272177 0.986921
vt 0.133689 0.9542032
vt 0.133689 0.6299454
vt 0.1175916 0.5972273
vt 0.1554937 0.6299455
vt 0.183579 0.5972276
vt 0.183579 0.986921
vt 0.1554937 0.9542034
vt 0.04918197 0.8456783
vt 0.04918197 0.8456783
vt 0.0553602 0.8456783
vt 0.0553602 0.8456783
vt 0.0553602 0.8598645
vt 0.0553602 0.8598645
vt 0.04918197 0.8598645
vt 0.04918197 0.8598645
vt 0.1175916 0.9355676
vt 0.1272177 0.5974226
vt 0.1272177 0.5974226
vt 0.1175916 0.9355676
vt 0.06195337 0.9135017
vt 0.06195337 0.9135017
vt 0.06195337 0.9003188
vt 0.06195337 0.9003188
vt 0.1272177 0.986921
vt 0.1175916 0.5972273
vt 0.1175916 0.5972273
vt 0.1272177 0.986921
vt 0.148295 0.8426762
vt 0.148295 0.8597792
vt 0.165398 0.8597792
vt 0.165398 0.8426762
vt 0.148295 0.8597792
vt 0.165398 0.8597792
vt 0.165398 0.8426762
vt 0.148295 0.8426762
vt 0.1587883 0.7689322
vt 0.1587883 0.7804505
vt 0.1703066 0.7804505
vt 0.1703066 0.7689322
vt 0.1587883 0.7689322
vt 0.1587883 0.7804505
vt 0.1703066 0.7804505
vt 0.1703066 0.7689322
vt 0.1587883 0.7689322
vt 0.1587883 0.7804505
vt 0.1703066 0.7804505
vt 0.1703066 0.7689322
vt 0.1587883 0.7689322
vt 0.1587883 0.7804505
vt 0.1703066 0.7804505
vt 0.1703066 0.7689322
vt 0.165398 0.8597792
vt 0.165398 0.8426762
vt 0.148295 0.8426762
vt 0.148295 0.8597792
vt 0.1351234 0.9219754
vt 0.1175916 0.9268652
vt 0.183579 0.9404468
vt 0.183579 0.9219754
vt 0.04877038 0.9135017
vt 0.04877038 0.9003188
vt 0.04877038 0.9003188
vt 0.04877038 0.9135017
vt 0.05235463 0.9906101
vt 0.02349847 0.9906102
vt 0.02349847 0.59793
vt 0.07279413 0.99061
vt 0.07985979 0.59793
vt 0.07985979 0.9906102
vt 0.07279413 0.59779
vt 0.07985979 0.5977901
vt 0.07985979 0.9679523
vt 0.07279413 0.9358728
vt 0.05235463 0.9358732
vt 0.02349847 0.9679523
vt 0.05235463 0.5977899
vt 0.02349847 0.5977901
vt 0.05235463 0.9906101
vt 0.02349847 0.59793
vt 0.02349847 0.9906102
vt 0.07279413 0.99061
vt 0.07985979 0.59793
vt 0.07985979 0.9906102
vt 0.07279413 0.59779
vt 0.07279413 0.9358728
vt 0.07985979 0.9679523
vt 0.07985979 0.5977901
vt 0.05235463 0.9358732
vt 0.02349847 0.9679523
vt 0.05235463 0.5977899
vt 0.02349847 0.5977901
vt 0.02349847 0.59793
vt 0.07985979 0.59793
vt 0.07985979 0.59793
vt 0.02349847 0.59793
vt 0.07985979 0.5977901
vt 0.07985979 0.9679523
vt 0.07985979 0.9679523
vt 0.07985979 0.5977901
vt 0.07985979 0.9679523
vt 0.02349847 0.9679523
vt 0.02349847 0.9679523
vt 0.07985979 0.9679523
vt 0.07985979 0.59793
vt 0.07985979 0.9906102
vt 0.07985979 0.9906102
vt 0.07985979 0.59793
vt 0.05320081 0.830438
vt 0.05320081 0.8531256
vt 0.0758884 0.8531256
vt 0.0758884 0.830438
vt 0.05320081 0.830438
vt 0.05320081 0.8531256
vt 0.0758884 0.8531256
vt 0.0758884 0.830438
vt 0.05320081 0.830438
vt 0.05320081 0.8531256
vt 0.0758884 0.8531256
vt 0.0758884 0.830438
vt 0.05320081 0.830438
vt 0.05320081 0.8531256
vt 0.0758884 0.8531256
vt 0.0758884 0.830438
vn 0 1 0
vn 0 1 0
vn 0 1 0
vn 0 1 0
vn 0 1 0
vn 0 1 0
vn 0 1 0
vn 0 1 0
vn 0 1 0
vn 0 1 0
vn 0 1 0
vn 0 1 0
vn 0 1 0
vn 0 1 0
vn 0 1 0
vn 0 1 0
vn 0 0 -1
vn 0 0 -1
vn 0 0 -1
vn 0 0 -1
vn 0 -1 0
vn 0 -1 0
vn 0 -1 0
vn 0 -1 0
vn 0 -1 0
vn 0 -1 0
vn 0 -1 0
vn 0 -1 0
vn -1 0 0
vn -1 0 0
vn -1 0 0
vn -1 0 0
vn -1 0 0
vn -1 0 0
vn -1 0 0
vn -1 0 0
vn -1 0 0
vn -1 0 0
vn -1 0 0
vn -1 0 0
vn -1 0 0
vn -1 0 0
vn 1 0 0
vn 1 0 0
vn 1 0 0
vn 1 0 0
vn 1 0 0
vn 1 0 0
vn 1 0 0
vn 1 0 0
vn 1 0 0
vn 1 0 0
vn 1 0 0
vn 1 0 0
vn 1 0 0
vn 1 0 0
vn 0 0 -1
vn 0 0 -1
vn 0 0 -1
vn 0 0 -1
vn 0 1 0
vn 0 1 0
vn 0 1 0
vn 0 1 0
vn 0 0 1
vn 0 0 1
vn 0 0 1
vn 0 0 1
vn 0 1 0
vn 0 1 0
vn 0 1 0
vn 0 1 0
vn 0 1 0
vn 0 1 0
vn 0 1 0
vn 0 1 0
vn 0 0 1
vn 0 0 1
vn 0 0 1
vn 0 0 1
vn 0 -1 0
vn 0 -1 0
vn 0 -1 0
vn 0 -1 0
vn 0 0 -1
vn 0 0 -1
vn 0 0 -1
vn 0 0 -1
vn 0 0 -1
vn 0 0 -1
vn 0 0 -1
vn 0 0 -1
vn 0 0 -1
vn 0 0 -1
vn 0 0 -1
vn 0 0 -1
vn 0 0 1
vn 0 0 1
vn 0 0 1
vn 0 0 1
vn 0 0 1
vn 0 0 1
vn 0 0 1
vn 0 0 1
vn -0.27524 0.9613755 0
vn -0.27524 0.9613755 0
vn -0.27524 0.9613755 0
vn -0.27524 0.9613755 0
vn -1 0 0
vn -1 0 0
vn -1 0 0
vn -1 0 0
vn 1 0 0
vn 1 0 0
vn 1 0 0
vn 1 0 0
vn 0.27524 0.9613755 0
vn 0.27524 0.9613755 0
vn 0.27524 0.9613755 0
vn 0.27524 0.9613755 0
vn 0 0 1
vn 0 0 1
vn 0 0 1
vn 0 0 1
vn 0 0 1
vn 0 0 1
vn 0 0 1
vn 0 0 1
vn 0 0 1
vn 0 0 1
vn 0 0 1
vn 0 0 1
vn 0 0 1
vn 0 0 1
vn 0 0 1
vn 0 0 1
vn 0 0 1
vn 0 0 1
vn 0 0 1
vn 0 0 1
vn 0 0 1
vn 0 0 1
vn 0 0 1
vn 0 0 1
vn 0 0 -1
vn 0 0 -1
vn 0 0 -1
vn 0 0 -1
vn 0 0 -1
vn 0 0 -1
vn 0 0 -1
vn 0 0 -1
vn 0 0 -1
vn 0 0 -1
vn 0 0 -1
vn 0 0 -1
vn 0 0 -1
vn 0 0 -1
vn 0 0 -1
vn 0 0 -1
vn 0 0 -1
vn 0 0 -1
vn 0 0 -1
vn 0 0 -1
vn 0 0 -1
vn 0 0 -1
vn 0.2752402 0.9613755 0
vn 0.2752402 0.9613755 0
vn 0.2752402 0.9613755 0
vn 0.2752402 0.9613755 0
vn 1 0 0
vn 1 0 0
vn 1 0 0
vn 1 0 0
vn -0.2752402 0.9613755 0
vn -0.2752402 0.9613755 0
vn -0.2752402 0.9613755 0
vn -0.2752402 0.9613755 0
vn 0 -1 0
vn 0 -1 0
vn 0 -1 0
vn 0 -1 0
vn 1 0 0
vn 1 0 0
vn 1 0 0
vn 1 0 0
vn 0 -1 0
vn 0 -1 0
vn 0 -1 0
vn 0 -1 0
vn -1 0 0
vn -1 0 0
vn -1 0 0
vn -1 0 0
vn 0 1 0
vn 0 1 0
vn 0 1 0
vn 0 1 0
vn 1 0 0
vn 1 0 0
vn 1 0 0
vn 1 0 0
vn -1 0 0
vn -1 0 0
vn -1 0 0
vn -1 0 0
vn 0 0 -1
vn 0 0 -1
vn 0 0 -1
vn 0 0 -1
vn -1 0 0
vn -1 0 0
vn -1 0 0
vn -1 0 0
vn -1 0 0
vn -1 0 0
vn -1 0 0
vn -1 0 0
vn -1 0 0
vn -1 0 0
vn -1 0 0
vn -1 0 0
vn -1 0 0
vn -1 0 0
vn -1 0 0
vn -1 0 0
vn -1 0 0
vn -1 0 0
vn 1 0 0
vn 1 0 0
vn 1 0 0
vn 1 0 0
vn 1 0 0
vn 1 0 0
vn 1 0 0
vn 1 0 0
vn 1 0 0
vn 1 0 0
vn 1 0 0
vn 1 0 0
vn 1 0 0
vn 1 0 0
vn 0 0 -1
vn 0 0 -1
vn 0 0 -1
vn 0 0 -1
vn 0 1 0
vn 0 1 0
vn 0 1 0
vn 0 1 0
vn 0 0 1
vn 0 0 1
vn 0 0 1
vn 0 0 1
vn 0 1 0
vn 0 1 0
vn 0 1 0
vn 0 1 0
vn 0 1 0
vn 0 1 0
vn 0 1 0
vn 0 1 0
vn 0 0 1
vn 0 0 1
vn 0 0 1
vn 0 0 1
vn 0 -1 0
vn 0 -1 0
vn 0 -1 0
vn 0 -1 0
vn 0 0 -1
vn 0 0 -1
vn 0 0 -1
vn 0 0 -1
f 3/3/3 2/2/2 1/1/1
f 4/4/4 3/3/3 1/1/1
f 7/7/7 6/6/6 5/5/5
f 8/8/8 7/7/7 5/5/5
f 11/11/11 10/10/10 9/9/9
f 12/12/12 11/11/11 9/9/9
f 15/15/15 14/14/14 13/13/13
f 16/16/16 15/15/15 13/13/13
f 19/19/19 18/18/18 17/17/17
f 20/20/20 19/19/19 17/17/17
f 23/23/23 22/22/22 21/21/21
f 24/24/24 23/23/23 21/21/21
f 27/27/27 26/26/26 25/25/25
f 28/28/28 27/27/27 25/25/25
f 31/31/31 30/30/30 29/29/29
f 29/29/29 32/32/32 31/31/31
f 32/32/32 33/33/33 31/31/31
f 32/32/32 34/34/34 33/33/33
f 37/37/37 36/36/36 35/35/35
f 38/38/38 37/37/37 35/35/35
f 38/38/38 39/39/39 37/37/37
f 39/39/39 40/40/40 37/37/37
f 39/39/39 41/41/41 40/40/40
f 41/41/41 42/42/42 40/40/40
f 45/45/45 44/44/44 43/43/43
f 46/46/46 43/43/43 44/44/44
f 47/47/47 46/46/46 44/44/44
f 48/48/48 46/46/46 47/47/47
f 51/51/51 50/50/50 49/49/49
f 52/52/52 51/51/51 49/49/49
f 53/53/53 50/50/50 51/51/51
f 54/54/54 53/53/53 51/51/51
f 55/55/55 53/53/53 54/54/54
f 56/56/56 55/55/55 54/54/54
f 59/59/59 58/58/58 57/57/57
f 60/60/60 59/59/59 57/57/57
f 63/63/63 62/62/62 61/61/61
f 64/64/64 63/63/63 61/61/61
f 67/67/67 66/66/66 65/65/65
f 68/68/68 67/67/67 65/65/65
f 71/71/71 70/70/70 69/69/69
f 72/72/72 71/71/71 69/69/69
f 75/75/75 74/74/74 73/73/73
f 76/76/76 75/75/75 73/73/73
f 79/79/79 78/78/78 77/77/77
f 80/80/80 79/79/79 77/77/77
f 83/83/83 82/82/82 81/81/81
f 84/84/84 83/83/83 81/81/81
f 87/87/87 86/86/86 85/85/85
f 88/88/88 87/87/87 85/85/85
f 91/91/91 90/90/90 89/89/89
f 92/92/92 91/91/91 89/89/89
f 95/95/95 94/94/94 93/93/93
f 96/96/96 95/95/95 93/93/93
f 99/99/99 98/98/98 97/97/97
f 100/100/100 99/99/99 97/97/97
f 103/103/103 102/102/102 101/101/101
f 104/104/104 103/103/103 101/101/101
f 107/107/107 106/106/106 105/105/105
f 108/108/108 107/107/107 105/105/105
f 111/111/111 110/110/110 109/109/109
f 112/112/112 111/111/111 109/109/109
f 115/115/115 114/114/114 113/113/113
f 116/116/116 115/115/115 113/113/113
f 119/119/119 118/118/118 117/117/117
f 120/120/120 119/119/119 117/117/117
f 123/123/123 122/122/122 121/121/121
f 124/124/124 123/123/123 121/121/121
f 123/123/123 125/125/125 122/122/122
f 125/125/125 126/126/126 122/122/122
f 127/127/127 124/124/124 121/121/121
f 128/128/128 127/127/127 121/121/121
f 131/131/131 130/130/130 129/129/129
f 132/132/132 131/131/131 129/129/129
f 131/131/131 133/133/133 130/130/130
f 133/133/133 134/134/134 130/130/130
f 134/134/134 133/133/133 135/135/135
f 135/135/135 132/132/132 129/129/129
f 136/136/136 134/134/134 135/135/135
f 136/136/136 135/135/135 129/129/129
f 139/139/139 138/138/138 137/137/137
f 140/140/140 139/139/139 137/137/137
f 139/139/139 141/141/141 138/138/138
f 141/141/141 142/142/142 138/138/138
f 143/143/143 140/140/140 137/137/137
f 144/144/144 143/143/143 137/137/137
f 147/147/147 146/146/146 145/145/145
f 148/148/148 147/147/147 145/145/145
f 148/148/148 149/149/149 147/147/147
f 149/149/149 150/150/150 147/147/147
f 153/153/153 152/152/152 151/151/151
f 154/154/154 153/153/153 151/151/151
f 153/153/153 154/154/154 155/155/155
f 154/154/154 156/156/156 155/155/155
f 156/156/156 157/157/157 155/155/155
f 157/157/157 158/158/158 155/155/155
f 151/151/151 152/152/152 158/158/158
f 157/157/157 151/151/151 158/158/158
f 161/161/161 160/160/160 159/159/159
f 162/162/162 161/161/161 159/159/159
f 162/162/162 163/163/163 161/161/161
f 163/163/163 164/164/164 161/161/161
f 165/165/165 159/159/159 160/160/160
f 166/166/166 165/165/165 160/160/160
f 169/169/169 168/168/168 167/167/167
f 170/170/170 169/169/169 167/167/167
f 173/173/173 172/172/172 171/171/171
f 174/174/174 173/173/173 171/171/171
f 177/177/177 176/176/176 175/175/175
f 178/178/178 177/177/177 175/175/175
f 181/181/181 180/180/180 179/179/179
f 182/182/182 181/181/181 179/179/179
f 185/185/185 184/184/184 183/183/183
f 186/186/186 185/185/185 183/183/183
f 189/189/189 188/188/188 187/187/187
f 190/190/190 189/189/189 187/187/187
f 193/193/193 192/192/192 191/191/191
f 194/194/194 193/193/193 191/191/191
f 197/197/197 196/196/196 195/195/195
f 198/198/198 197/197/197 195/195/195
f 201/201/201 200/200/200 199/199/199
f 202/202/202 201/201/201 199/199/199
f 205/205/205 204/204/204 203/203/203
f 206/206/206 205/205/205 203/203/203
f 209/209/209 208/208/208 207/207/207
f 210/210/210 209/209/209 207/207/207
f 213/213/213 212/212/212 211/211/211
f 214/214/214 213/213/213 211/211/211
f 217/217/217 216/216/216 215/215/215
f 215/215/215 218/218/218 217/217/217
f 218/218/218 219/219/219 217/217/217
f 218/218/218 220/220/220 219/219/219
f 223/223/223 222/222/222 221/221/221
f 224/224/224 223/223/223 221/221/221
f 224/224/224 225/225/225 223/223/223
f 225/225/225 226/226/226 223/223/223
f 225/225/225 227/227/227 226/226/226
f 227/227/227 228/228/228 226/226/226
f 231/231/231 230/230/230 229/229/229
f 232/232/232 229/229/229 230/230/230
f 233/233/233 232/232/232 230/230/230
f 234/234/234 232/232/232 233/233/233
f 237/237/237 236/236/236 235/235/235
f 238/238/238 237/237/237 235/235/235
f 239/239/239 236/236/236 237/237/237
f 240/240/240 239/239/239 237/237/237
f 241/241/241 239/239/239 240/240/240
f 242/242/242 241/241/241 240/240/240
f 245/245/245 244/244/244 243/243/243
f 246/246/246 245/245/245 243/243/243
f 249/249/249 248/248/248 247/247/247
f 250/250/250 249/249/249 247/247/247
f 253/253/253 252/252/252 251/251/251
f 254/254/254 253/253/253 251/251/251
f 257/257/257 256/256/256 255/255/255
f 258/258/258 257/257/257 255/255/255
f 261/261/261 260/260/260 259/259/259
f 262/262/262 261/261/261 259/259/259
f 265/265/265 264/264/264 263/263/263
f 266/266/266 265/265/265 263/263/263
f 269/269/269 268/268/268 267/267/267
f 270/270/270 269/269/269 267/267/267
f 273/273/273 272/272/272 271/271/271
f 274/274/274 273/273/273 271/271/271
