g GardenShed_Wood_top
v -2.310809 -0.4662321 1.972895
v -2.310809 -0.1963429 1.972895
v -2.488856E-07 0.4662321 1.988859
v -2.488856E-07 0.1963437 1.988859
v 2.310809 -0.1963429 1.972895
v 2.310809 -0.4662321 1.972895
v -7.46657E-07 0.1963437 -1.988859
v -7.46657E-07 0.4662321 -1.988859
v -2.310809 -0.1963429 -1.972895
v -2.310809 -0.4662321 -1.972895
v 2.310808 -0.4662321 -1.972895
v 2.310808 -0.1963429 -1.972895
v -2.310809 -0.4662321 -1.972895
v -2.310809 -0.1963429 -1.972895
v -2.310809 -0.1963429 1.972895
v -2.310809 -0.4662321 1.972895
v 2.310809 -0.4662321 1.972895
v 2.310809 -0.1963429 1.972895
v 2.310808 -0.1963429 -1.972895
v 2.310808 -0.4662321 -1.972895
v -2.087804 -0.4013908 1.749892
v -2.310809 -0.4662321 1.972895
v -2.488856E-07 0.1963437 1.988859
v -2.488856E-07 0.1963437 1.749892
v -2.087804 -0.4013908 0.0134057
v -2.310809 -0.4662321 -1.972895
v -2.087804 -0.4013908 -1.749892
v -2.488856E-07 0.1963437 -1.749892
v -7.46657E-07 0.1963437 -1.988859
v -2.310809 -0.1963429 1.972895
v -2.310809 -0.1963429 -1.972895
v -7.46657E-07 0.4662321 -1.988859
v -2.488856E-07 0.4662321 1.988859
v -2.488856E-07 0.1963437 1.749892
v -2.488856E-07 0.1963437 1.988859
v 2.310809 -0.4662321 1.972895
v 2.087804 -0.4013908 1.749892
v 2.087804 -0.4013908 0.0134057
v 2.310808 -0.4662321 -1.972895
v 2.087804 -0.4013908 -1.749892
v -7.46657E-07 0.1963437 -1.988859
v -2.488856E-07 0.1963437 -1.749892
v 2.310809 -0.1963429 1.972895
v -2.488856E-07 0.4662321 1.988859
v -7.46657E-07 0.4662321 -1.988859
v 2.310808 -0.1963429 -1.972895
vt 0.9195494 0.2032969
vt 0.9191335 0.2032969
vt 0.9181126 0.2134195
vt 0.9185285 0.2134195
vt 0.9191335 0.2235421
vt 0.9195494 0.2235421
vt 0.9206722 0.2134195
vt 0.921088 0.2134195
vt 0.9200671 0.2032969
vt 0.9196513 0.2032969
vt 0.9196513 0.2235421
vt 0.9200671 0.2235421
vt 0.9180108 0.1410453
vt 0.9175949 0.1410453
vt 0.9175949 0.1616678
vt 0.9180108 0.1616678
vt 0.917493 0.1410453
vt 0.9170772 0.1410453
vt 0.9170772 0.1616678
vt 0.917493 0.1616678
vt 0.9106168 0.2040017
vt 0.9109047 0.2028362
vt 0.9079204 0.2027527
vt 0.9079204 0.2040017
vt 0.9106167 0.2135651
vt 0.9109047 0.2234587
vt 0.9106168 0.2222932
vt 0.9079204 0.2222932
vt 0.9079204 0.2235421
vt 0.7882768 0.1541594
vt 0.7882768 0.1335369
vt 0.7852924 0.1334535
vt 0.7852924 0.1542429
vt 0.9079204 0.2040017
vt 0.9079204 0.2027527
vt 0.904936 0.2028362
vt 0.905224 0.2040017
vt 0.905224 0.2134096
vt 0.904936 0.2234587
vt 0.905224 0.2222932
vt 0.9079204 0.2235421
vt 0.9079204 0.2222932
vt 0.782308 0.1541594
vt 0.7852924 0.1542429
vt 0.7852924 0.1334535
vt 0.782308 0.1335369
vn -0.006908174 0 0.9999762
vn -0.006908174 0 0.9999762
vn 0 0 1
vn 0 0 1
vn 0.00690827 0 0.9999762
vn 0.00690827 0 0.9999762
vn 0 0 -1
vn 0 0 -1
vn -0.006908271 0 -0.9999762
vn -0.006908271 0 -0.9999762
vn 0.006908174 0 -0.9999762
vn 0.006908174 0 -0.9999762
vn -1 0 0
vn -1 0 0
vn -1 0 0
vn -1 0 0
vn 1 0 0
vn 1 0 0
vn 1 0 0
vn 1 0 0
vn 0.27647 -0.9610215 -0.001427913
vn 0.2766506 -0.9609696 -0.001333483
vn 0.2754473 -0.9613142 -0.001962521
vn 0.2754472 -0.9613142 -0.001962521
vn 0.2791991 -0.9602332 0
vn 0.2766579 -0.9609675 0.001329011
vn 0.2764814 -0.9610183 0.001421267
vn 0.2754473 -0.9613141 0.001961603
vn 0.2754473 -0.9613142 0.001961603
vn -0.2756225 0.961266 0
vn -0.2756225 0.961266 0
vn -0.2756225 0.961266 0
vn -0.2756225 0.961266 0
vn -0.2754472 -0.9613142 -0.001961845
vn -0.2754472 -0.9613142 -0.001961845
vn -0.2766503 -0.9609697 -0.00133302
vn -0.2764696 -0.9610216 -0.001427421
vn -0.2791995 -0.9602332 0
vn -0.2766578 -0.9609675 0.001329941
vn -0.2764813 -0.9610183 0.001422258
vn -0.2754472 -0.9613142 0.001962972
vn -0.2754472 -0.9613142 0.001962972
vn 0.2756224 0.961266 0
vn 0.2756224 0.961266 0
vn 0.2756224 0.961266 0
vn 0.2756224 0.961266 0
f 3/3/3 2/2/2 1/1/1
f 4/4/4 3/3/3 1/1/1
f 5/5/5 3/3/3 4/4/4
f 6/6/6 5/5/5 4/4/4
f 9/9/9 8/8/8 7/7/7
f 10/10/10 9/9/9 7/7/7
f 7/7/7 8/8/8 11/11/11
f 8/8/8 12/12/12 11/11/11
f 15/15/15 14/14/14 13/13/13
f 16/16/16 15/15/15 13/13/13
f 19/19/19 18/18/18 17/17/17
f 20/20/20 19/19/19 17/17/17
f 23/23/23 22/22/22 21/21/21
f 24/24/24 23/23/23 21/21/21
f 25/25/25 21/21/21 22/22/22
f 25/25/25 22/22/22 26/26/26
f 25/25/25 26/26/26 27/27/27
f 27/27/27 26/26/26 28/28/28
f 26/26/26 29/29/29 28/28/28
f 32/32/32 31/31/31 30/30/30
f 33/33/33 32/32/32 30/30/30
f 36/36/36 35/35/35 34/34/34
f 37/37/37 36/36/36 34/34/34
f 38/38/38 36/36/36 37/37/37
f 38/38/38 39/39/39 36/36/36
f 38/38/38 40/40/40 39/39/39
f 41/41/41 39/39/39 40/40/40
f 42/42/42 41/41/41 40/40/40
f 45/45/45 44/44/44 43/43/43
f 46/46/46 45/45/45 43/43/43
