g GardenShed_Wood_bottom_collider
v -2.087804 -1.192093E-07 1.749892
v -2.087804 3.49217 1.749892
v -2.384186E-07 4.089905 1.749892
v -2.384186E-07 -1.192093E-07 1.749892
v 2.087804 -1.192093E-07 1.749892
v 2.087804 3.49217 1.749892
v -2.087804 3.49217 1.749892
v -2.087804 3.49217 1.649893
v -2.384186E-07 4.089905 1.649893
v -2.384186E-07 4.089905 1.749892
v 2.087804 3.49217 1.649893
v 2.087804 3.49217 1.749892
v -2.087804 3.49217 1.649893
v -2.087804 -1.192093E-07 1.649893
v -2.384186E-07 -1.192093E-07 1.649893
v -2.384186E-07 4.089905 1.649893
v 2.087804 3.49217 1.649893
v 2.087804 -1.192093E-07 1.649893
v -2.087804 -1.192093E-07 1.649893
v -2.087804 -1.192093E-07 1.749892
v -2.384186E-07 -1.192093E-07 1.749892
v -2.384186E-07 -1.192093E-07 1.649893
v 2.087804 -1.192093E-07 1.649893
v 2.087804 -1.192093E-07 1.749892
v 2.087804 -1.192093E-07 1.749892
v 2.087804 3.49217 1.749892
v 2.087804 3.49217 1.649893
v 2.087804 -1.192093E-07 1.649893
v -2.087804 -1.192093E-07 1.649893
v -2.087804 3.49217 1.649893
v -2.087804 3.49217 1.749892
v -2.087804 -1.192093E-07 1.749892
v -2.087804 -1.192093E-07 0.01340556
v -2.087804 3.49217 0.01340556
v -2.00022 3.49217 0.01340556
v -2.00022 -1.192093E-07 0.01340556
v -2.087804 3.49217 0.01340556
v -2.087804 3.49217 -1.749893
v -2.00022 3.49217 -1.749893
v -2.00022 3.49217 0.01340556
v -2.087804 3.49217 -1.749893
v -2.087804 -1.192093E-07 -1.749893
v -2.00022 -1.192093E-07 -1.749893
v -2.00022 3.49217 -1.749893
v -2.00022 -1.192093E-07 0.01340556
v -2.00022 3.49217 0.01340556
v -2.00022 3.49217 -1.749893
v -2.00022 -1.192093E-07 -1.749893
v -2.087804 -1.192093E-07 -1.749893
v -2.087804 3.49217 -1.749893
v -2.087804 3.49217 0.01340556
v -2.087804 -1.192093E-07 0.01340556
v -2.087804 1.784223 1.649893
v -2.087804 1.784223 0.01340568
v -2.00022 1.784223 0.01340568
v -2.00022 1.784223 1.649893
v -2.00022 -1.192093E-07 1.649893
v -2.00022 1.784223 1.649893
v -2.00022 1.784223 0.01340568
v -2.00022 -1.192093E-07 0.01340568
v -2.087804 -1.192093E-07 0.01340568
v -2.087804 1.784223 0.01340568
v -2.087804 1.784223 1.649893
v -2.087804 -1.192093E-07 1.649893
v -2.087804 3.49217 1.649893
v -2.087804 3.49217 0.01340568
v -2.00022 3.49217 0.01340568
v -2.00022 3.49217 1.649893
v -2.00022 3.053423 1.649893
v -2.00022 3.49217 1.649893
v -2.00022 3.49217 0.01340568
v -2.00022 3.053423 0.01340568
v -2.087804 3.053423 0.01340568
v -2.087804 3.49217 0.01340568
v -2.087804 3.49217 1.649893
v -2.087804 3.053423 1.649893
v 2.00022 -1.192093E-07 0.01340556
v 2.00022 3.49217 0.01340556
v 2.087804 3.49217 0.01340556
v 2.087804 -1.192093E-07 0.01340556
v 2.00022 3.49217 0.01340556
v 2.00022 3.49217 -1.749893
v 2.087804 3.49217 -1.749893
v 2.087804 3.49217 0.01340556
v 2.00022 3.49217 -1.749893
v 2.00022 -1.192093E-07 -1.749893
v 2.087804 -1.192093E-07 -1.749893
v 2.087804 3.49217 -1.749893
v 2.087804 -1.192093E-07 0.01340556
v 2.087804 3.49217 0.01340556
v 2.087804 3.49217 -1.749893
v 2.087804 -1.192093E-07 -1.749893
v 2.00022 -1.192093E-07 -1.749893
v 2.00022 3.49217 -1.749893
v 2.00022 3.49217 0.01340556
v 2.00022 -1.192093E-07 0.01340556
v 2.00022 1.784223 1.649893
v 2.00022 1.784223 0.01340568
v 2.087804 1.784223 0.01340568
v 2.087804 1.784223 1.649893
v 2.087804 -1.192093E-07 1.649893
v 2.087804 1.784223 1.649893
v 2.087804 1.784223 0.01340568
v 2.087804 -1.192093E-07 0.01340568
v 2.00022 -1.192093E-07 0.01340568
v 2.00022 1.784223 0.01340568
v 2.00022 1.784223 1.649893
v 2.00022 -1.192093E-07 1.649893
v 2.00022 3.49217 1.649893
v 2.00022 3.49217 0.01340568
v 2.087804 3.49217 0.01340568
v 2.087804 3.49217 1.649893
v 2.087804 3.053423 1.649893
v 2.087804 3.49217 1.649893
v 2.087804 3.49217 0.01340568
v 2.087804 3.053423 0.01340568
v 2.00022 3.053423 0.01340568
v 2.00022 3.49217 0.01340568
v 2.00022 3.49217 1.649893
v 2.00022 3.053423 1.649893
v 2.00022 1.784223 1.649893
v 2.00022 3.053424 1.649893
v 2.087804 3.053424 1.649893
v 2.087804 1.784223 1.649893
v 2.00022 3.053424 1.649893
v 2.00022 3.053424 1.518379
v 2.087804 3.053424 1.518379
v 2.087804 3.053424 1.649893
v 2.00022 3.053424 1.518379
v 2.00022 1.784223 1.518379
v 2.087804 1.784223 1.518379
v 2.087804 3.053424 1.518379
v 2.087804 1.784223 1.649893
v 2.087804 3.053424 1.649893
v 2.087804 3.053424 1.518379
v 2.087804 1.784223 1.518379
v 2.00022 1.784223 1.518379
v 2.00022 3.053424 1.518379
v 2.00022 3.053424 1.649893
v 2.00022 1.784223 1.649893
v -2.087804 1.784223 1.649893
v -2.087804 3.053424 1.649893
v -2.00022 3.053424 1.649893
v -2.00022 1.784223 1.649893
v -2.087804 3.053424 1.649893
v -2.087804 3.053424 1.518379
v -2.00022 3.053424 1.518379
v -2.00022 3.053424 1.649893
v -2.087804 3.053424 1.518379
v -2.087804 1.784223 1.518379
v -2.00022 1.784223 1.518379
v -2.00022 3.053424 1.518379
v -2.00022 1.784223 1.649893
v -2.00022 3.053424 1.649893
v -2.00022 3.053424 1.518379
v -2.00022 1.784223 1.518379
v -2.087804 1.784223 1.518379
v -2.087804 3.053424 1.518379
v -2.087804 3.053424 1.649893
v -2.087804 1.784223 1.649893
v 2.087804 2.898961 -1.649893
v 2.087804 3.49217 -1.649893
v 2.087804 3.49217 -1.749893
v 2.087804 2.898961 -1.749893
v 2.087804 -1.192093E-07 -1.649893
v 2.087804 -1.192093E-07 -1.749893
v -2.384186E-07 4.089905 -1.649893
v -2.384186E-07 4.089905 -1.749893
v 0.1712828 4.040867 -1.749893
v 0.1712828 4.040867 -1.649893
v 1.857831 3.558011 -1.649893
v 1.857831 3.558011 -1.749893
v 2.087804 3.49217 -1.649893
v 2.087804 3.49217 -1.749893
v -2.384186E-07 3.001257 -1.749893
v 0.1712826 3.001257 -1.749893
v 0.1712828 4.040867 -1.749893
v -2.384186E-07 4.089905 -1.749893
v 1.857831 3.558011 -1.749893
v 1.857831 3.001257 -1.749893
v 2.087804 3.49217 -1.749893
v 2.087804 2.898961 -1.749893
v 1.857831 -1.192093E-07 -1.749893
v 2.087804 -1.192093E-07 -1.749893
v -2.384186E-07 -1.192093E-07 -1.749893
v 0.1712828 -1.192093E-07 -1.749893
v -0.1752884 4.038718 -1.749893
v -2.384186E-07 3.090329 -1.749893
v -0.1752884 3.090329 -1.749893
v -0.1752884 1.736353 -1.749893
v -2.384186E-07 1.736353 -1.749893
v -0.1752884 -1.192093E-07 -1.749893
v -1.912516 3.540846 -1.749893
v -1.912516 3.090329 -1.749893
v -1.912516 1.736353 -1.749893
v -1.912516 -1.192093E-07 -1.749893
v -2.087804 3.49217 -1.749893
v -2.087804 3.090329 -1.749893
v -2.087804 1.736353 -1.749893
v -2.087804 -1.192093E-07 -1.749893
v -2.384186E-07 -1.192093E-07 -1.649893
v 0.1712828 -1.192093E-07 -1.649893
v 0.1712828 -1.192093E-07 -1.749893
v -2.384186E-07 -1.192093E-07 -1.749893
v -0.1752884 -1.192093E-07 -1.749893
v -0.1752884 -1.192093E-07 -1.649893
v -1.912516 -1.192093E-07 -1.749893
v -1.912516 -1.192093E-07 -1.649893
v -2.087804 -1.192093E-07 -1.749893
v -2.087804 -1.192093E-07 -1.649893
v -2.384186E-07 4.089905 -1.649893
v 0.1712828 4.040867 -1.649893
v 0.1712828 3.001257 -1.649893
v -2.384186E-07 3.001257 -1.649893
v 1.857831 3.001257 -1.649893
v 1.857831 3.558011 -1.649893
v 2.087804 2.898961 -1.649893
v 2.087804 3.49217 -1.649893
v 0.1712828 -1.192093E-07 -1.649893
v -2.384186E-07 -1.192093E-07 -1.649893
v 1.857831 -1.192093E-07 -1.649893
v 2.087804 -1.192093E-07 -1.649893
v -0.1752884 3.090329 -1.649893
v -0.1752884 4.038718 -1.649893
v -2.384186E-07 3.090329 -1.649893
v -0.1752884 1.736353 -1.649893
v -2.384186E-07 1.736353 -1.649893
v -0.1752884 -1.192093E-07 -1.649893
v -1.912516 3.090329 -1.649893
v -1.912516 3.540846 -1.649893
v -1.912516 -1.192093E-07 -1.649893
v -1.912516 1.736353 -1.649893
v -2.087804 3.090329 -1.649893
v -2.087804 3.49217 -1.649893
v -2.087804 1.736353 -1.649893
v -2.087804 -1.192093E-07 -1.649893
v 1.857831 -1.192093E-07 -1.649893
v 2.087804 -1.192093E-07 -1.649893
v 2.087804 -1.192093E-07 -1.749893
v 1.857831 -1.192093E-07 -1.749893
v -0.1752884 4.038718 -1.649893
v -0.1752884 4.038718 -1.749893
v -2.384186E-07 4.089905 -1.749893
v -2.384186E-07 4.089905 -1.649893
v -1.912516 3.540846 -1.649893
v -1.912516 3.540846 -1.749893
v -2.087804 3.49217 -1.649893
v -2.087804 3.49217 -1.749893
v -2.087804 3.090329 -1.749893
v -2.087804 3.49217 -1.749893
v -2.087804 3.49217 -1.649893
v -2.087804 3.090329 -1.649893
v -2.087804 1.736353 -1.749893
v -2.087804 1.736353 -1.649893
v -2.087804 -1.192093E-07 -1.749893
v -2.087804 -1.192093E-07 -1.649893
vt 0.5614169 0.5110807
vt 0.5614169 0.520445
vt 0.5660991 0.520445
vt 0.5660991 0.5110807
vt 0.5707813 0.5110807
vt 0.5707813 0.520445
vt 0.5614169 0.520445
vt 0.5614169 0.5298094
vt 0.5660991 0.5298094
vt 0.5660991 0.520445
vt 0.5707813 0.5298094
vt 0.5707813 0.520445
vt 0.5614169 0.5298094
vt 0.5614169 0.5391738
vt 0.5660991 0.5391738
vt 0.5660991 0.5298094
vt 0.5707813 0.5298094
vt 0.5707813 0.5391738
vt 0.5614169 0.5391738
vt 0.5614169 0.5485381
vt 0.5660991 0.5485381
vt 0.5660991 0.5391738
vt 0.5707813 0.5391738
vt 0.5707813 0.5485381
vt 0.5707813 0.5110807
vt 0.5707813 0.520445
vt 0.5801457 0.520445
vt 0.5801457 0.5110807
vt 0.5520526 0.5110807
vt 0.5520526 0.520445
vt 0.5614169 0.520445
vt 0.5614169 0.5110807
vt 0.5614169 0.5110807
vt 0.5614169 0.520445
vt 0.5707813 0.520445
vt 0.5707813 0.5110807
vt 0.5614169 0.520445
vt 0.5614169 0.5298094
vt 0.5707813 0.5298094
vt 0.5707813 0.520445
vt 0.5614169 0.5298094
vt 0.5614169 0.5391738
vt 0.5707813 0.5391738
vt 0.5707813 0.5298094
vt 0.5707813 0.5110807
vt 0.5707813 0.520445
vt 0.5801457 0.520445
vt 0.5801457 0.5110807
vt 0.5520526 0.5110807
vt 0.5520526 0.520445
vt 0.5614169 0.520445
vt 0.5614169 0.5110807
vt 0.5768569 0.5364295
vt 0.5768569 0.5563878
vt 0.5968153 0.5563878
vt 0.5968153 0.5364295
vt 0.5968153 0.5164711
vt 0.5968153 0.5364295
vt 0.6167737 0.5364295
vt 0.6167737 0.5164711
vt 0.5568985 0.5164711
vt 0.5568985 0.5364295
vt 0.5768569 0.5364295
vt 0.5768569 0.5164711
vt 0.5768569 0.5364295
vt 0.5768569 0.5563878
vt 0.5968153 0.5563878
vt 0.5968153 0.5364295
vt 0.5968153 0.5164711
vt 0.5968153 0.5364295
vt 0.6167737 0.5364295
vt 0.6167737 0.5164711
vt 0.5568985 0.5164711
vt 0.5568985 0.5364295
vt 0.5768569 0.5364295
vt 0.5768569 0.5164711
vt 0.5614169 0.5110807
vt 0.5614169 0.520445
vt 0.5707813 0.520445
vt 0.5707813 0.5110807
vt 0.5614169 0.520445
vt 0.5614169 0.5298094
vt 0.5707813 0.5298094
vt 0.5707813 0.520445
vt 0.5614169 0.5298094
vt 0.5614169 0.5391738
vt 0.5707813 0.5391738
vt 0.5707813 0.5298094
vt 0.5707813 0.5110807
vt 0.5707813 0.520445
vt 0.5801457 0.520445
vt 0.5801457 0.5110807
vt 0.5520526 0.5110807
vt 0.5520526 0.520445
vt 0.5614169 0.520445
vt 0.5614169 0.5110807
vt 0.5768569 0.5364295
vt 0.5768569 0.5563878
vt 0.5968153 0.5563878
vt 0.5968153 0.5364295
vt 0.5968153 0.5164711
vt 0.5968153 0.5364295
vt 0.6167737 0.5364295
vt 0.6167737 0.5164711
vt 0.5568985 0.5164711
vt 0.5568985 0.5364295
vt 0.5768569 0.5364295
vt 0.5768569 0.5164711
vt 0.5768569 0.5364295
vt 0.5768569 0.5563878
vt 0.5968153 0.5563878
vt 0.5968153 0.5364295
vt 0.5968153 0.5164711
vt 0.5968153 0.5364295
vt 0.6167737 0.5364295
vt 0.6167737 0.5164711
vt 0.5568985 0.5164711
vt 0.5568985 0.5364295
vt 0.5768569 0.5364295
vt 0.5768569 0.5164711
vt 0.5614169 0.5110807
vt 0.5614169 0.520445
vt 0.5707813 0.520445
vt 0.5707813 0.5110807
vt 0.5614169 0.520445
vt 0.5614169 0.5298094
vt 0.5707813 0.5298094
vt 0.5707813 0.520445
vt 0.5614169 0.5298094
vt 0.5614169 0.5391738
vt 0.5707813 0.5391738
vt 0.5707813 0.5298094
vt 0.5707813 0.5110807
vt 0.5707813 0.520445
vt 0.5801457 0.520445
vt 0.5801457 0.5110807
vt 0.5520526 0.5110807
vt 0.5520526 0.520445
vt 0.5614169 0.520445
vt 0.5614169 0.5110807
vt 0.5614169 0.5110807
vt 0.5614169 0.520445
vt 0.5707813 0.520445
vt 0.5707813 0.5110807
vt 0.5614169 0.520445
vt 0.5614169 0.5298094
vt 0.5707813 0.5298094
vt 0.5707813 0.520445
vt 0.5614169 0.5298094
vt 0.5614169 0.5391738
vt 0.5707813 0.5391738
vt 0.5707813 0.5298094
vt 0.5707813 0.5110807
vt 0.5707813 0.520445
vt 0.5801457 0.520445
vt 0.5801457 0.5110807
vt 0.5520526 0.5110807
vt 0.5520526 0.520445
vt 0.5614169 0.520445
vt 0.5614169 0.5110807
vt 0.5707813 0.5188543
vt 0.5707813 0.520445
vt 0.5801457 0.520445
vt 0.5801457 0.5188543
vt 0.5707813 0.5110807
vt 0.5801457 0.5110807
vt 0.5660991 0.520445
vt 0.5660991 0.5298094
vt 0.5664833 0.5298094
vt 0.5664833 0.520445
vt 0.5702655 0.520445
vt 0.5702655 0.5298094
vt 0.5707813 0.520445
vt 0.5707813 0.5298094
vt 0.5660991 0.5314001
vt 0.5664833 0.5314001
vt 0.5664833 0.5298094
vt 0.5660991 0.5298094
vt 0.5702655 0.5298094
vt 0.5702655 0.5314001
vt 0.5707813 0.5298094
vt 0.5707813 0.5314001
vt 0.5702655 0.5391738
vt 0.5707813 0.5391738
vt 0.5660991 0.5391738
vt 0.5664833 0.5391738
vt 0.5656981 0.5298094
vt 0.5660991 0.5310466
vt 0.5656981 0.5310466
vt 0.5656981 0.5345356
vt 0.5660991 0.5345356
vt 0.5656981 0.5391738
vt 0.5617982 0.5298094
vt 0.5617982 0.5310466
vt 0.5617982 0.5345356
vt 0.5617982 0.5391738
vt 0.5614169 0.5298094
vt 0.5614169 0.5310466
vt 0.5614169 0.5345356
vt 0.5614169 0.5391738
vt 0.5660991 0.5485381
vt 0.5664833 0.5485381
vt 0.5664833 0.5391738
vt 0.5660991 0.5391738
vt 0.5656981 0.5391738
vt 0.5656981 0.5485381
vt 0.5617982 0.5391738
vt 0.5617982 0.5485381
vt 0.5614169 0.5391738
vt 0.5614169 0.5485381
vt 0.5660991 0.520445
vt 0.5664833 0.520445
vt 0.5664833 0.5188543
vt 0.5660991 0.5188543
vt 0.5702655 0.5188543
vt 0.5702655 0.520445
vt 0.5707813 0.5188543
vt 0.5707813 0.520445
vt 0.5664833 0.5110807
vt 0.5660991 0.5110807
vt 0.5702655 0.5110807
vt 0.5707813 0.5110807
vt 0.5656981 0.5192078
vt 0.5656981 0.520445
vt 0.5660991 0.5192078
vt 0.5656981 0.5157188
vt 0.5660991 0.5157188
vt 0.5656981 0.5110807
vt 0.5617982 0.5192078
vt 0.5617982 0.520445
vt 0.5617982 0.5110807
vt 0.5617982 0.5157188
vt 0.5614169 0.5192078
vt 0.5614169 0.520445
vt 0.5614169 0.5157188
vt 0.5614169 0.5110807
vt 0.5702655 0.5485381
vt 0.5707813 0.5485381
vt 0.5707813 0.5391738
vt 0.5702655 0.5391738
vt 0.5656981 0.520445
vt 0.5656981 0.5298094
vt 0.5660991 0.5298094
vt 0.5660991 0.520445
vt 0.5617982 0.520445
vt 0.5617982 0.5298094
vt 0.5614169 0.520445
vt 0.5614169 0.5298094
vt 0.5520526 0.5192078
vt 0.5520526 0.520445
vt 0.5614169 0.520445
vt 0.5614169 0.5192078
vt 0.5520526 0.5157188
vt 0.5614169 0.5157188
vt 0.5520526 0.5110807
vt 0.5614169 0.5110807
vn 0 0 1
vn 0 0 1
vn 0 0 1
vn 0 0 1
vn 0 0 1
vn 0 0 1
vn -0.27524 0.9613755 0
vn -0.27524 0.9613755 0
vn 0 1 0
vn 0 1 0
vn 0.27524 0.9613755 0
vn 0.27524 0.9613755 0
vn 0 0 -1
vn 0 0 -1
vn 0 0 -1
vn 0 0 -1
vn 0 0 -1
vn 0 0 -1
vn 0 -1 0
vn 0 -1 0
vn 0 -1 0
vn 0 -1 0
vn 0 -1 0
vn 0 -1 0
vn 1 0 0
vn 1 0 0
vn 1 0 0
vn 1 0 0
vn -1 0 0
vn -1 0 0
vn -1 0 0
vn -1 0 0
vn 0 0 1
vn 0 0 1
vn 0 0 1
vn 0 0 1
vn 0 1 0
vn 0 1 0
vn 0 1 0
vn 0 1 0
vn 0 0 -1
vn 0 0 -1
vn 0 0 -1
vn 0 0 -1
vn 1 0 0
vn 1 0 0
vn 1 0 0
vn 1 0 0
vn -1 0 0
vn -1 0 0
vn -1 0 0
vn -1 0 0
vn 0 1 0
vn 0 1 0
vn 0 1 0
vn 0 1 0
vn 1 0 0
vn 1 0 0
vn 1 0 0
vn 1 0 0
vn -1 0 0
vn -1 0 0
vn -1 0 0
vn -1 0 0
vn 0 1 0
vn 0 1 0
vn 0 1 0
vn 0 1 0
vn 1 0 0
vn 1 0 0
vn 1 0 0
vn 1 0 0
vn -1 0 0
vn -1 0 0
vn -1 0 0
vn -1 0 0
vn 0 0 1
vn 0 0 1
vn 0 0 1
vn 0 0 1
vn 0 1 0
vn 0 1 0
vn 0 1 0
vn 0 1 0
vn 0 0 -1
vn 0 0 -1
vn 0 0 -1
vn 0 0 -1
vn 1 0 0
vn 1 0 0
vn 1 0 0
vn 1 0 0
vn -1 0 0
vn -1 0 0
vn -1 0 0
vn -1 0 0
vn 0 1 0
vn 0 1 0
vn 0 1 0
vn 0 1 0
vn 1 0 0
vn 1 0 0
vn 1 0 0
vn 1 0 0
vn -1 0 0
vn -1 0 0
vn -1 0 0
vn -1 0 0
vn 0 1 0
vn 0 1 0
vn 0 1 0
vn 0 1 0
vn 1 0 0
vn 1 0 0
vn 1 0 0
vn 1 0 0
vn -1 0 0
vn -1 0 0
vn -1 0 0
vn -1 0 0
vn 0 0 1
vn 0 0 1
vn 0 0 1
vn 0 0 1
vn 0 1 0
vn 0 1 0
vn 0 1 0
vn 0 1 0
vn 0 0 -1
vn 0 0 -1
vn 0 0 -1
vn 0 0 -1
vn 1 0 0
vn 1 0 0
vn 1 0 0
vn 1 0 0
vn -1 0 0
vn -1 0 0
vn -1 0 0
vn -1 0 0
vn 0 0 1
vn 0 0 1
vn 0 0 1
vn 0 0 1
vn 0 1 0
vn 0 1 0
vn 0 1 0
vn 0 1 0
vn 0 0 -1
vn 0 0 -1
vn 0 0 -1
vn 0 0 -1
vn 1 0 0
vn 1 0 0
vn 1 0 0
vn 1 0 0
vn -1 0 0
vn -1 0 0
vn -1 0 0
vn -1 0 0
vn 1 0 0
vn 1 0 0
vn 1 0 0
vn 1 0 0
vn 1 0 0
vn 1 0 0
vn 0.2752399 0.9613756 0
vn 0.2752399 0.9613756 0
vn 0.2752402 0.9613755 0
vn 0.2752402 0.9613755 0
vn 0.2752401 0.9613755 0
vn 0.2752401 0.9613755 0
vn 0.2752395 0.9613757 0
vn 0.2752395 0.9613757 0
vn 0 0 -1
vn 0 0 -1
vn 0 0 -1
vn 0 0 -1
vn 0 0 -1
vn 0 0 -1
vn 0 0 -1
vn 0 0 -1
vn 0 0 -1
vn 0 0 -1
vn 0 0 -1
vn 0 0 -1
vn 0 0 -1
vn 0 0 -1
vn 0 0 -1
vn 0 0 -1
vn 0 0 -1
vn 0 0 -1
vn 0 0 -1
vn 0 0 -1
vn 0 0 -1
vn 0 0 -1
vn 0 0 -1
vn 0 0 -1
vn 0 0 -1
vn 0 0 -1
vn 0 -1 0
vn 0 -1 0
vn 0 -1 0
vn 0 -1 0
vn 0 -1 0
vn 0 -1 0
vn 0 -1 0
vn 0 -1 0
vn 0 -1 0
vn 0 -1 0
vn 0 0 1
vn 0 0 1
vn 0 0 1
vn 0 0 1
vn 0 0 1
vn 0 0 1
vn 0 0 1
vn 0 0 1
vn 0 0 1
vn 0 0 1
vn 0 0 1
vn 0 0 1
vn 0 0 1
vn 0 0 1
vn 0 0 1
vn 0 0 1
vn 0 0 1
vn 0 0 1
vn 0 0 1
vn 0 0 1
vn 0 0 1
vn 0 0 1
vn 0 0 1
vn 0 0 1
vn 0 0 1
vn 0 0 1
vn 0 -1 0
vn 0 -1 0
vn 0 -1 0
vn 0 -1 0
vn -0.2759408 0.9611747 0
vn -0.2759408 0.9611747 0
vn -0.2803094 0.9599097 0
vn -0.2803094 0.9599097 0
vn -0.2747743 0.9615088 0
vn -0.2747743 0.9615088 0
vn -0.2675666 0.9635394 0
vn -0.2675666 0.9635394 0
vn -1 0 0
vn -1 0 0
vn -1 0 0
vn -1 0 0
vn -1 0 0
vn -1 0 0
vn -1 0 0
vn -1 0 0
f 3/3/3 2/2/2 1/1/1
f 4/4/4 3/3/3 1/1/1
f 4/4/4 5/5/5 3/3/3
f 5/5/5 6/6/6 3/3/3
f 9/9/9 8/8/8 7/7/7
f 10/10/10 9/9/9 7/7/7
f 11/11/11 9/9/9 10/10/10
f 12/12/12 11/11/11 10/10/10
f 15/15/15 14/14/14 13/13/13
f 16/16/16 15/15/15 13/13/13
f 16/16/16 17/17/17 15/15/15
f 17/17/17 18/18/18 15/15/15
f 21/21/21 20/20/20 19/19/19
f 22/22/22 21/21/21 19/19/19
f 22/22/22 23/23/23 21/21/21
f 23/23/23 24/24/24 21/21/21
f 27/27/27 26/26/26 25/25/25
f 28/28/28 27/27/27 25/25/25
f 31/31/31 30/30/30 29/29/29
f 32/32/32 31/31/31 29/29/29
f 35/35/35 34/34/34 33/33/33
f 36/36/36 35/35/35 33/33/33
f 39/39/39 38/38/38 37/37/37
f 40/40/40 39/39/39 37/37/37
f 43/43/43 42/42/42 41/41/41
f 44/44/44 43/43/43 41/41/41
f 47/47/47 46/46/46 45/45/45
f 48/48/48 47/47/47 45/45/45
f 51/51/51 50/50/50 49/49/49
f 52/52/52 51/51/51 49/49/49
f 55/55/55 54/54/54 53/53/53
f 56/56/56 55/55/55 53/53/53
f 59/59/59 58/58/58 57/57/57
f 60/60/60 59/59/59 57/57/57
f 63/63/63 62/62/62 61/61/61
f 64/64/64 63/63/63 61/61/61
f 67/67/67 66/66/66 65/65/65
f 68/68/68 67/67/67 65/65/65
f 71/71/71 70/70/70 69/69/69
f 72/72/72 71/71/71 69/69/69
f 75/75/75 74/74/74 73/73/73
f 76/76/76 75/75/75 73/73/73
f 79/79/79 78/78/78 77/77/77
f 80/80/80 79/79/79 77/77/77
f 83/83/83 82/82/82 81/81/81
f 84/84/84 83/83/83 81/81/81
f 87/87/87 86/86/86 85/85/85
f 88/88/88 87/87/87 85/85/85
f 91/91/91 90/90/90 89/89/89
f 92/92/92 91/91/91 89/89/89
f 95/95/95 94/94/94 93/93/93
f 96/96/96 95/95/95 93/93/93
f 99/99/99 98/98/98 97/97/97
f 100/100/100 99/99/99 97/97/97
f 103/103/103 102/102/102 101/101/101
f 104/104/104 103/103/103 101/101/101
f 107/107/107 106/106/106 105/105/105
f 108/108/108 107/107/107 105/105/105
f 111/111/111 110/110/110 109/109/109
f 112/112/112 111/111/111 109/109/109
f 115/115/115 114/114/114 113/113/113
f 116/116/116 115/115/115 113/113/113
f 119/119/119 118/118/118 117/117/117
f 120/120/120 119/119/119 117/117/117
f 123/123/123 122/122/122 121/121/121
f 124/124/124 123/123/123 121/121/121
f 127/127/127 126/126/126 125/125/125
f 128/128/128 127/127/127 125/125/125
f 131/131/131 130/130/130 129/129/129
f 132/132/132 131/131/131 129/129/129
f 135/135/135 134/134/134 133/133/133
f 136/136/136 135/135/135 133/133/133
f 139/139/139 138/138/138 137/137/137
f 140/140/140 139/139/139 137/137/137
f 143/143/143 142/142/142 141/141/141
f 144/144/144 143/143/143 141/141/141
f 147/147/147 146/146/146 145/145/145
f 148/148/148 147/147/147 145/145/145
f 151/151/151 150/150/150 149/149/149
f 152/152/152 151/151/151 149/149/149
f 155/155/155 154/154/154 153/153/153
f 156/156/156 155/155/155 153/153/153
f 159/159/159 158/158/158 157/157/157
f 160/160/160 159/159/159 157/157/157
f 163/163/163 162/162/162 161/161/161
f 164/164/164 163/163/163 161/161/161
f 164/164/164 161/161/161 165/165/165
f 166/166/166 164/164/164 165/165/165
f 169/169/169 168/168/168 167/167/167
f 170/170/170 169/169/169 167/167/167
f 170/170/170 171/171/171 169/169/169
f 171/171/171 172/172/172 169/169/169
f 171/171/171 173/173/173 172/172/172
f 173/173/173 174/174/174 172/172/172
f 177/177/177 176/176/176 175/175/175
f 178/178/178 177/177/177 175/175/175
f 177/177/177 179/179/179 176/176/176
f 179/179/179 180/180/180 176/176/176
f 179/179/179 181/181/181 180/180/180
f 181/181/181 182/182/182 180/180/180
f 180/180/180 182/182/182 183/183/183
f 182/182/182 184/184/184 183/183/183
f 175/175/175 176/176/176 185/185/185
f 176/176/176 186/186/186 185/185/185
f 178/178/178 188/188/188 187/187/187
f 188/188/188 189/189/189 187/187/187
f 189/189/189 188/188/188 190/190/190
f 188/188/188 191/191/191 190/190/190
f 191/191/191 185/185/185 190/190/190
f 185/185/185 192/192/192 190/190/190
f 187/187/187 189/189/189 193/193/193
f 189/189/189 194/194/194 193/193/193
f 190/190/190 192/192/192 195/195/195
f 192/192/192 196/196/196 195/195/195
f 193/193/193 194/194/194 197/197/197
f 194/194/194 198/198/198 197/197/197
f 194/194/194 195/195/195 198/198/198
f 195/195/195 196/196/196 199/199/199
f 195/195/195 199/199/199 198/198/198
f 196/196/196 200/200/200 199/199/199
f 203/203/203 202/202/202 201/201/201
f 204/204/204 203/203/203 201/201/201
f 204/204/204 201/201/201 205/205/205
f 201/201/201 206/206/206 205/205/205
f 205/205/205 206/206/206 207/207/207
f 206/206/206 208/208/208 207/207/207
f 207/207/207 208/208/208 209/209/209
f 208/208/208 210/210/210 209/209/209
f 213/213/213 212/212/212 211/211/211
f 214/214/214 213/213/213 211/211/211
f 213/213/213 215/215/215 212/212/212
f 215/215/215 216/216/216 212/212/212
f 215/215/215 217/217/217 216/216/216
f 217/217/217 218/218/218 216/216/216
f 219/219/219 213/213/213 214/214/214
f 220/220/220 219/219/219 214/214/214
f 215/215/215 221/221/221 217/217/217
f 221/221/221 222/222/222 217/217/217
f 211/211/211 224/224/224 223/223/223
f 225/225/225 211/211/211 223/223/223
f 225/225/225 223/223/223 226/226/226
f 227/227/227 225/225/225 226/226/226
f 227/227/227 226/226/226 228/228/228
f 220/220/220 227/227/227 228/228/228
f 223/223/223 224/224/224 229/229/229
f 224/224/224 230/230/230 229/229/229
f 228/228/228 226/226/226 231/231/231
f 226/226/226 232/232/232 231/231/231
f 229/229/229 230/230/230 233/233/233
f 230/230/230 234/234/234 233/233/233
f 229/229/229 233/233/233 235/235/235
f 232/232/232 229/229/229 235/235/235
f 232/232/232 235/235/235 236/236/236
f 231/231/231 232/232/232 236/236/236
f 239/239/239 238/238/238 237/237/237
f 240/240/240 239/239/239 237/237/237
f 243/243/243 242/242/242 241/241/241
f 244/244/244 243/243/243 241/241/241
f 241/241/241 242/242/242 245/245/245
f 242/242/242 246/246/246 245/245/245
f 245/245/245 246/246/246 247/247/247
f 246/246/246 248/248/248 247/247/247
f 251/251/251 250/250/250 249/249/249
f 252/252/252 251/251/251 249/249/249
f 252/252/252 249/249/249 253/253/253
f 254/254/254 252/252/252 253/253/253
f 254/254/254 253/253/253 255/255/255
f 256/256/256 254/254/254 255/255/255
