g GrassStraight_Light
v 0.2873888 0.2052794 14
v 0.2873888 -0.01368427 14
v 0.2873888 -0.01368427 -0.01368427
v 0.2873888 0.2052794 -0.01368427
v 0.9169102 0.2052794 -0.01368427
v 0.9169102 0.2052794 14
v 0.2873888 0.2052794 14
v 0.2873888 0.2052794 -0.01368427
v 0.01368427 -0.01368427 -0.01368427
v 0.2873888 -0.01368427 -0.01368427
v 0.2873888 -0.01368427 14
v 0.01368427 -0.01368427 14
v 0.9169102 0.3147612 14
v 0.9169102 0.3147612 -0.01368427
v 14 0.3147612 0.01368618
v 14 0.3147612 14
v 0.9169102 0.2052794 -0.01368427
v 0.9169102 0.3147612 -0.01368427
v 0.9169102 0.3147612 14
v 0.9169102 0.2052794 14
vt 0.5961255 0.5696477
vt 0.6020094 0.5696477
vt 0.6020094 0.5755316
vt 0.5961255 0.5755316
vt 0.5872995 0.6108353
vt 0.5872995 0.5961255
vt 0.5667057 0.5961255
vt 0.5667057 0.6108353
vt 0.2960441 0.4813884
vt 0.2960441 0.4813884
vt 0.2931021 0.4813884
vt 0.2931021 0.4813884
vt 0.2960441 0.4254909
vt 0.2989861 0.4254909
vt 0.2960441 0.419607
vt 0.2960441 0.419607
vt 0.2372046 0.416665
vt 0.2372046 0.416665
vt 0.2372046 0.419607
vt 0.2372046 0.419607
vn -1 0 0
vn -1 0 0
vn -1 0 0
vn -1 0 0
vn 0 1 0
vn 0 1 0
vn 0 1 0
vn 0 1 0
vn 0 1 0
vn 0 1 0
vn 0 1 0
vn 0 1 0
vn 0 1 0
vn 0 1 0
vn 0 1 0
vn 0 1 0
vn -1 0 0
vn -1 0 0
vn -1 0 0
vn -1 0 0
f 3/3/3 2/2/2 1/1/1
f 4/4/4 3/3/3 1/1/1
f 7/7/7 6/6/6 5/5/5
f 8/8/8 7/7/7 5/5/5
f 11/11/11 10/10/10 9/9/9
f 12/12/12 11/11/11 9/9/9
f 15/15/15 14/14/14 13/13/13
f 16/16/16 15/15/15 13/13/13
f 19/19/19 18/18/18 17/17/17
f 20/20/20 19/19/19 17/17/17
