g grave_medium_mesh
v -0.5462171 1.383979 0.1295064
v -0.5462171 1.383979 -0.1135749
v 0.5476485 1.383979 -0.1135749
v 0.5476485 1.383979 0.1295064
v -0.4420394 1.171283 -0.1135749
v -0.4420394 1.101831 -0.1135749
v 0.4434709 1.101831 -0.1135749
v 0.4434709 1.171283 -0.1135749
v -0.5462171 0.1468694 -0.1135749
v -0.5462171 0.1468694 0.1295064
v 0.5476485 0.1468694 0.1295064
v 0.5476485 0.1468694 -0.1135749
v 0.5476485 1.383979 0.1295064
v 0.5476485 1.383979 -0.1135749
v 0.5476485 0.8826241 -0.1135749
v 0.5476485 0.8826241 0.1295064
v 0.5476485 0.6503948 -0.1135749
v 0.5476485 0.6503948 0.1295064
v 0.5476485 0.1468694 -0.1135749
v 0.5476485 0.1468694 0.1295064
v -0.5462171 0.8826241 0.1295064
v -0.5462171 0.8826241 -0.1135749
v -0.5462171 1.383979 -0.1135749
v -0.5462171 1.383979 0.1295064
v -0.5462171 0.6503948 0.1295064
v -0.5462171 0.6503948 -0.1135749
v -0.5462171 0.1468694 0.1295064
v -0.5462171 0.1468694 -0.1135749
v -0.5462171 1.383979 -0.1135749
v -0.4420394 1.171283 -0.1135749
v 0.4434709 1.171283 -0.1135749
v 0.5476485 1.383979 -0.1135749
v 0.4434709 1.101831 -0.1135749
v 0.5476485 0.8826241 -0.1135749
v -0.5462171 0.8826241 -0.1135749
v -0.4420394 1.101831 -0.1135749
v 0.4434709 0.9607575 -0.1135749
v 0.5476485 0.6503948 -0.1135749
v 0.4434709 0.8826241 -0.1135749
v 0.4434709 0.7415502 -0.1135749
v 0.5476485 0.1468694 -0.1135749
v 0.4434709 0.6742688 -0.1135749
v -0.4420394 0.6742688 -0.1135749
v -0.5462171 0.1468694 -0.1135749
v -0.4420394 0.7415502 -0.1135749
v -0.5462171 0.6503948 -0.1135749
v -0.4420394 0.8826241 -0.1135749
v -0.4420394 0.9607575 -0.1135749
v -0.4420394 0.7415502 -0.1135749
v -0.4420394 0.6742688 -0.1135749
v 0.4434709 0.6742688 -0.1135749
v 0.4434709 0.7415502 -0.1135749
v -0.4420394 0.9607575 -0.1135749
v -0.4420394 0.8826241 -0.1135749
v 0.4434709 0.8826241 -0.1135749
v 0.4434709 0.9607575 -0.1135749
v -0.5462171 1.383979 0.1295064
v 0.5476485 1.383979 0.1295064
v 0.5476485 0.8826241 0.1295064
v -0.5462171 0.8826241 0.1295064
v 0.5476485 0.6503948 0.1295064
v -0.5462171 0.6503948 0.1295064
v 0.5476485 0.1468694 0.1295064
v -0.5462171 0.1468694 0.1295064
v -0.8370465 -0.0007157326 0.344373
v -0.8370465 0.2467064 0.344373
v 0.8363075 0.2467064 0.344373
v 0.8363075 -0.0007157326 0.344373
v -0.8370465 0.2467064 0.344373
v -0.8370465 0.2467064 -0.3458043
v 0.8363075 0.2467064 -0.3458043
v 0.8363075 0.2467064 0.344373
v -0.8370465 0.2467064 -0.3458043
v -0.8370465 -0.0007157326 -0.3458043
v 0.8363075 -0.0007157326 -0.3458043
v 0.8363075 0.2467064 -0.3458043
v 0.8363075 -0.0007157326 0.344373
v 0.8363075 0.2467064 0.344373
v 0.8363075 0.2467064 -0.3458043
v 0.8363075 -0.0007157326 -0.3458043
v -0.8370465 -0.0007157326 -0.3458043
v -0.8370465 0.2467064 -0.3458043
v -0.8370465 0.2467064 0.344373
v -0.8370465 -0.0007157326 0.344373
v -0.8370465 -0.0007157326 0.344373
v 0.8363075 -0.0007157326 0.344373
v 0.8363075 -0.0007157326 -0.3458043
v -0.8370465 -0.0007157326 -0.3458043
vt 0.5819504 0.2817773
vt 0.5819504 0.2713062
vt 0.5714793 0.2713062
vt 0.5714793 0.2817773
vt 0.3411139 0.2852677
vt 0.3411139 0.2852677
vt 0.3306427 0.2852677
vt 0.3306427 0.2852677
vt 0.170085 0.1735754
vt 0.170085 0.1631042
vt 0.1596138 0.1631042
vt 0.1596138 0.1735754
vt 0.1910273 0.1631042
vt 0.1910273 0.1526331
vt 0.1875369 0.1526331
vt 0.1875369 0.1631042
vt 0.1805561 0.1526331
vt 0.1805561 0.1631042
vt 0.1805561 0.1526331
vt 0.1805561 0.1631042
vt 0.170085 0.1631042
vt 0.170085 0.1526331
vt 0.1665946 0.1526331
vt 0.1665946 0.1631042
vt 0.1770658 0.1631042
vt 0.1770658 0.1526331
vt 0.1770658 0.1631042
vt 0.1770658 0.1526331
vt 0.2992292 0.1840465
vt 0.2992292 0.1840465
vt 0.2852677 0.1840465
vt 0.2852677 0.1840465
vt 0.2852677 0.1840465
vt 0.2852677 0.1805561
vt 0.2992292 0.1805561
vt 0.2992292 0.1840465
vt 0.2852677 0.1805561
vt 0.2852677 0.1770658
vt 0.2852677 0.1770658
vt 0.2852677 0.1770658
vt 0.2852677 0.1735754
vt 0.2852677 0.1735754
vt 0.2992292 0.1735754
vt 0.2992292 0.1735754
vt 0.2992292 0.1770658
vt 0.2992292 0.1770658
vt 0.2992292 0.1770658
vt 0.2992292 0.1805561
vt 0.3411139 0.2782869
vt 0.3411139 0.2747965
vt 0.3306427 0.2747965
vt 0.3306427 0.2782869
vt 0.3411139 0.2817773
vt 0.3411139 0.2782869
vt 0.3306427 0.2782869
vt 0.3306427 0.2817773
vt 0.1631042 0.3306427
vt 0.2119696 0.3306427
vt 0.2119696 0.3166811
vt 0.1631042 0.3166811
vt 0.2119696 0.2957388
vt 0.1631042 0.2957388
vt 0.2119696 0.2817773
vt 0.1631042 0.2817773
vt 0.4109215 0.2922485
vt 0.4109215 0.2992292
vt 0.4144119 0.2992292
vt 0.4144119 0.2922485
vt 0.3271523 0.30621
vt 0.3341331 0.30621
vt 0.3341331 0.2747965
vt 0.3271523 0.2747965
vt 0.4144119 0.2922485
vt 0.4144119 0.2992292
vt 0.4179023 0.2992292
vt 0.4179023 0.2922485
vt 0.1596138 0.1386715
vt 0.1596138 0.1526331
vt 0.1631042 0.1526331
vt 0.1631042 0.1386715
vt 0.1631042 0.1526331
vt 0.1631042 0.1665946
vt 0.1665946 0.1665946
vt 0.1665946 0.1526331
vt 0.1596138 0.1386715
vt 0.1596138 0.1526331
vt 0.1631042 0.1526331
vt 0.1631042 0.1386715
vn -0.01587105 0.999874 -0.000345267
vn -0.01587105 0.999874 -0.000345267
vn -0.01587105 0.999874 -0.000345267
vn -0.01587105 0.999874 -0.000345267
vn -0.01587105 0.01587105 -0.9997481
vn -0.01587105 0.01587105 -0.9997481
vn -0.01587105 0.01587105 -0.9997481
vn -0.01587105 0.01587105 -0.9997481
vn -0.01587105 -0.999874 -0.000345267
vn -0.01587105 -0.999874 -0.000345267
vn -0.01587105 -0.999874 -0.000345267
vn -0.01587105 -0.999874 -0.000345267
vn 0.999874 0.01587105 -0.0003439156
vn 0.999874 0.01587105 -0.0003439156
vn 0.999874 0.01587105 -0.0003439156
vn 0.999874 0.01587105 -0.0003439156
vn 0.999874 0.01587105 -0.0003439156
vn 0.999874 0.01587105 -0.0003439156
vn 0.999874 0.01587105 -0.0003439156
vn 0.999874 0.01587105 -0.0003439156
vn -0.999874 0.01587105 -0.0003439156
vn -0.999874 0.01587105 -0.0003439156
vn -0.999874 0.01587105 -0.0003439156
vn -0.999874 0.01587105 -0.0003439156
vn -0.999874 0.01587105 -0.0003439156
vn -0.999874 0.01587105 -0.0003439156
vn -0.999874 0.01587105 -0.0003439156
vn -0.999874 0.01587105 -0.0003439156
vn -0.01587105 0.01587105 -0.9997481
vn -0.01587105 0.01587105 -0.9997481
vn -0.01587105 0.01587105 -0.9997481
vn -0.01587105 0.01587105 -0.9997481
vn -0.01587105 0.01587105 -0.9997481
vn -0.01587105 0.01587105 -0.9997481
vn -0.01587105 0.01587105 -0.9997481
vn -0.01587105 0.01587105 -0.9997481
vn -0.01587105 0.01587105 -0.9997481
vn -0.01587105 0.01587105 -0.9997481
vn -0.01587105 0.01587105 -0.9997481
vn -0.01587105 0.01587105 -0.9997481
vn -0.01587105 0.01587105 -0.9997481
vn -0.01587105 0.01587105 -0.9997481
vn -0.01587105 0.01587105 -0.9997481
vn -0.01587105 0.01587105 -0.9997481
vn -0.01587105 0.01587105 -0.9997481
vn -0.01587105 0.01587105 -0.9997481
vn -0.01587105 0.01587105 -0.9997481
vn -0.01587105 0.01587105 -0.9997481
vn -0.01587105 0.01587105 -0.9997481
vn -0.01587105 0.01587105 -0.9997481
vn -0.01587105 0.01587105 -0.9997481
vn -0.01587105 0.01587105 -0.9997481
vn -0.01587105 0.01587105 -0.9997481
vn -0.01587105 0.01587105 -0.9997481
vn -0.01587105 0.01587105 -0.9997481
vn -0.01587105 0.01587105 -0.9997481
vn -0.01587105 0.01587105 0.9997481
vn -0.01587105 0.01587105 0.9997481
vn -0.01587105 0.01587105 0.9997481
vn -0.01587105 0.01587105 0.9997481
vn -0.01587105 0.01587105 0.9997481
vn -0.01587105 0.01587105 0.9997481
vn -0.01587105 0.01587105 0.9997481
vn -0.01587105 0.01587105 0.9997481
vn -0.01587105 0.01587105 0.9997481
vn -0.01587105 0.01587105 0.9997481
vn -0.01587105 0.01587105 0.9997481
vn -0.01587105 0.01587105 0.9997481
vn -0.01587105 0.999874 -0.000345267
vn -0.01587105 0.999874 -0.000345267
vn -0.01587105 0.999874 -0.000345267
vn -0.01587105 0.999874 -0.000345267
vn -0.01587105 0.01587105 -0.9997481
vn -0.01587105 0.01587105 -0.9997481
vn -0.01587105 0.01587105 -0.9997481
vn -0.01587105 0.01587105 -0.9997481
vn 0.999874 0.01587105 -0.0003439156
vn 0.999874 0.01587105 -0.0003439156
vn 0.999874 0.01587105 -0.0003439156
vn 0.999874 0.01587105 -0.0003439156
vn -0.999874 0.01587105 -0.0003439156
vn -0.999874 0.01587105 -0.0003439156
vn -0.999874 0.01587105 -0.0003439156
vn -0.999874 0.01587105 -0.0003439156
vn -0.01587105 -0.999874 -0.000345267
vn -0.01587105 -0.999874 -0.000345267
vn -0.01587105 -0.999874 -0.000345267
vn -0.01587105 -0.999874 -0.000345267
f 3/3/3 2/2/2 1/1/1
f 4/4/4 3/3/3 1/1/1
f 7/7/7 6/6/6 5/5/5
f 8/8/8 7/7/7 5/5/5
f 11/11/11 10/10/10 9/9/9
f 12/12/12 11/11/11 9/9/9
f 15/15/15 14/14/14 13/13/13
f 16/16/16 15/15/15 13/13/13
f 17/17/17 15/15/15 16/16/16
f 18/18/18 17/17/17 16/16/16
f 19/19/19 17/17/17 18/18/18
f 20/20/20 19/19/19 18/18/18
f 23/23/23 22/22/22 21/21/21
f 24/24/24 23/23/23 21/21/21
f 21/21/21 22/22/22 25/25/25
f 22/22/22 26/26/26 25/25/25
f 25/25/25 26/26/26 27/27/27
f 26/26/26 28/28/28 27/27/27
f 31/31/31 30/30/30 29/29/29
f 32/32/32 31/31/31 29/29/29
f 33/33/33 31/31/31 32/32/32
f 34/34/34 33/33/33 32/32/32
f 29/29/29 30/30/30 35/35/35
f 30/30/30 36/36/36 35/35/35
f 34/34/34 37/37/37 33/33/33
f 33/33/33 37/37/37 36/36/36
f 34/34/34 38/38/38 37/37/37
f 38/38/38 39/39/39 37/37/37
f 38/38/38 40/40/40 39/39/39
f 38/38/38 41/41/41 40/40/40
f 41/41/41 42/42/42 40/40/40
f 43/43/43 42/42/42 41/41/41
f 44/44/44 43/43/43 41/41/41
f 45/45/45 43/43/43 44/44/44
f 46/46/46 45/45/45 44/44/44
f 40/40/40 45/45/45 47/47/47
f 39/39/39 40/40/40 47/47/47
f 47/47/47 45/45/45 46/46/46
f 48/48/48 47/47/47 46/46/46
f 35/35/35 48/48/48 46/46/46
f 37/37/37 48/48/48 36/36/36
f 36/36/36 48/48/48 35/35/35
f 51/51/51 50/50/50 49/49/49
f 52/52/52 51/51/51 49/49/49
f 55/55/55 54/54/54 53/53/53
f 56/56/56 55/55/55 53/53/53
f 59/59/59 58/58/58 57/57/57
f 60/60/60 59/59/59 57/57/57
f 59/59/59 60/60/60 61/61/61
f 60/60/60 62/62/62 61/61/61
f 63/63/63 61/61/61 62/62/62
f 64/64/64 63/63/63 62/62/62
f 67/67/67 66/66/66 65/65/65
f 68/68/68 67/67/67 65/65/65
f 71/71/71 70/70/70 69/69/69
f 72/72/72 71/71/71 69/69/69
f 75/75/75 74/74/74 73/73/73
f 76/76/76 75/75/75 73/73/73
f 79/79/79 78/78/78 77/77/77
f 80/80/80 79/79/79 77/77/77
f 83/83/83 82/82/82 81/81/81
f 84/84/84 83/83/83 81/81/81
f 87/87/87 86/86/86 85/85/85
f 88/88/88 87/87/87 85/85/85
