g gunstock
v 0.5803977 0.3909789 -0.0913901
v 0.5803983 -0.3909789 -0.0913901
v 0.5783423 0.3909789 0.1036053
v 0.5783421 -0.3909789 0.1036053
v -0.5782852 0.3909786 -0.1036048
v 0.5803977 0.3909789 -0.0913901
v -0.580341 0.3909789 0.09139073
v 0.5783423 0.3909789 0.1036053
v -0.5803984 0.1293472 0.0913901
v 0.4082618 -0.3907584 0.1018125
v -0.5783435 0.1293475 -0.1036053
v 0.4103174 -0.3907584 -0.09318295
v 0.5783423 0.3909789 0.1036053
v 0.5783421 -0.3909789 0.1036053
v 0.4082618 -0.3907584 0.1018125
v -0.5803984 0.1293472 0.0913901
v -0.580341 0.3909789 0.09139073
v 0.4103174 -0.3907584 -0.09318295
v 0.5803977 0.3909789 -0.0913901
v -0.5783435 0.1293475 -0.1036053
v -0.5782852 0.3909786 -0.1036048
v 0.5803983 -0.3909789 -0.0913901
v 0.4082618 -0.3907584 0.1018125
v 0.5783421 -0.3909789 0.1036053
v 0.4103174 -0.3907584 -0.09318295
v 0.5803983 -0.3909789 -0.0913901
v -0.5782852 0.3909786 -0.1036048
v -0.580341 0.3909789 0.09139073
v -0.5803984 0.1293472 0.0913901
v -0.5783435 0.1293475 -0.1036053
vt 0.8003242 0.3589597
vt 0.8003242 0.4248593
vt 0.8167583 0.3589597
vt 0.8167583 0.4248593
vt 0.7552825 0.1460667
vt 0.1641212 0.1460667
vt 0.7552819 0.1762338
vt 0.1641209 0.1762338
vt 0.7579602 0.05460779
vt 0.2511775 0.05460779
vt 0.7579605 0.02429942
vt 0.2511775 0.02429942
vt 0.1638553 0.0953213
vt 0.1638553 0.1060372
vt 0.2510374 0.1060342
vt 0.75782 0.0989067
vt 0.7577906 0.09532128
vt 0.2511872 0.08921251
vt 0.1640047 0.09992543
vt 0.7579696 0.09634003
vt 0.75794 0.09992543
vt 0.164005 0.0892095
vt 0.2511775 0.05460779
vt 0.163995 0.05460779
vt 0.2511775 0.02429942
vt 0.163995 0.02429942
vt 0.7928625 0.5783447
vt 0.7928625 0.6096154
vt 0.8072897 0.6096154
vt 0.8072897 0.5783447
vn 0.9999444 0 0.01054132
vn 0.9999444 0 0.01054132
vn 0.9999444 0 0.01054132
vn 0.9999444 0 0.01054132
vn 0 1 0
vn 0 1 0
vn 0 1 0
vn 0 1 0
vn -0.4655307 -0.8850181 -0.004907578
vn -0.4655307 -0.8850181 -0.004907578
vn -0.4655307 -0.8850181 -0.004907578
vn -0.4655307 -0.8850181 -0.004907578
vn -0.01054133 0 0.9999444
vn -0.01054133 0 0.9999444
vn -0.01054133 0 0.9999444
vn -0.01054133 0 0.9999444
vn -0.01054133 0 0.9999444
vn 0.01054133 0 -0.9999444
vn 0.01054133 0 -0.9999444
vn 0.01054133 0 -0.9999444
vn 0.01054133 0 -0.9999444
vn 0.01054133 0 -0.9999444
vn -0.001295832 -0.9999992 -1.366343E-05
vn -0.001295832 -0.9999992 -1.366343E-05
vn -0.001295832 -0.9999992 -1.366343E-05
vn -0.001295832 -0.9999992 -1.366343E-05
vn -0.9999444 0.0002208359 -0.01054004
vn -0.9999444 0.0002208359 -0.01054004
vn -0.9999444 0.0002208359 -0.01054004
vn -0.9999444 0.0002208359 -0.01054004
f 3/3/3 2/2/2 1/1/1
f 3/3/3 4/4/4 2/2/2
f 7/7/7 6/6/6 5/5/5
f 7/7/7 8/8/8 6/6/6
f 11/11/11 10/10/10 9/9/9
f 11/11/11 12/12/12 10/10/10
f 15/15/15 14/14/14 13/13/13
f 16/16/16 15/15/15 13/13/13
f 16/16/16 13/13/13 17/17/17
f 20/20/20 19/19/19 18/18/18
f 20/20/20 21/21/21 19/19/19
f 19/19/19 22/22/22 18/18/18
f 25/25/25 24/24/24 23/23/23
f 25/25/25 26/26/26 24/24/24
f 29/29/29 28/28/28 27/27/27
f 30/30/30 29/29/29 27/27/27
