g Hanger_Small_collider
v 12.94377 -6.895979 9.547462
v 12.94377 -3.381294 9.547462
v 15.94423 -3.381294 9.547462
v 15.94423 -6.895979 9.547462
v 12.94377 -3.381294 9.547462
v 12.94377 -3.381294 7.287209
v 15.94423 -3.381294 7.287209
v 15.94423 -3.381294 9.547462
v 12.94377 -3.381294 7.287209
v 12.94377 -6.895979 7.287209
v 15.94423 -6.895979 7.287209
v 15.94423 -3.381294 7.287209
v 15.94423 -6.895979 9.547462
v 15.94423 -3.381294 9.547462
v 15.94423 -3.381294 7.287209
v 15.94423 -6.895979 7.287209
v 12.94377 -6.895979 7.287209
v 12.94377 -3.381294 7.287209
v 12.94377 -3.381294 9.547462
v 12.94377 -6.895979 9.547462
v 14.76404 -6.895979 -15.47475
v 14.76404 -5.191509 -15.47475
v 8.277725 -5.191509 -15.47475
v 8.277725 -6.895979 -15.47475
v 8.277725 1.087686 -15.47475
v 10.09636 2.469507 -15.47475
v 14.76404 -5.191509 15.47475
v 14.76404 -6.895979 15.47475
v 8.277725 -6.895979 15.47475
v 8.277725 -5.191509 15.47475
v 10.09636 2.469507 15.47475
v 8.277725 1.087686 15.47475
v 8.277725 -6.895979 -15.47475
v 8.277725 -5.191509 -15.47475
v 8.277725 -5.191509 -14.67089
v 8.277725 -6.895979 -14.67089
v 8.277725 1.087687 -14.67089
v 8.277725 1.087686 -15.47475
v 14.3018 -6.895979 -14.47646
v 14.3018 -5.191509 -14.47646
v 14.3018 -6.895979 14.57853
v 14.3018 -5.191509 14.57853
v 9.813591 2.250915 -14.47646
v 9.813591 2.250915 14.57853
v 14.3018 -5.191509 14.57853
v 8.277725 -6.895979 14.67091
v 8.277725 -5.191509 14.67091
v 8.277725 1.087686 14.67091
v 9.813591 2.250915 14.57853
v 8.277725 -6.895979 15.47475
v 8.277725 -5.191509 15.47475
v 8.277725 1.087686 15.47475
v 14.76404 -6.895979 -14.67089
v 14.76404 -5.191509 -14.67089
v 14.76404 -5.191509 -15.47475
v 14.76404 -6.895979 -15.47475
v 10.09636 2.469507 -15.47475
v 10.09636 2.469507 -14.67089
v 14.76404 -5.191509 -14.47646
v 14.76404 -6.895979 -14.47646
v 14.76404 -5.191509 14.57853
v 14.76404 -6.895979 14.57853
v 14.76404 -6.895979 14.67091
v 14.76404 -5.191509 14.67091
v 10.09636 2.469507 14.57853
v 10.09636 2.469507 14.67091
v 14.76404 -5.191509 15.47475
v 10.09636 2.469507 15.47475
v 14.76404 -6.895979 15.47475
v 10.09636 2.469507 -14.47646
v 10.09636 2.469507 -15.47475
v -0.5900955 6.895979 -15.47475
v -0.5900955 1.087686 -15.47475
v 8.277725 1.087686 -15.47475
v 8.277725 1.087686 -15.47475
v -0.5900955 1.087686 -15.47475
v -0.5900955 1.087687 -14.6709
v 8.277725 1.087687 -14.67089
v 10.09636 2.469507 -14.67089
v -0.5900955 6.895979 -14.6709
v -0.5900955 6.895979 -15.47475
v 10.09636 2.469507 -15.47475
v 10.09636 2.469507 -14.47646
v -0.5901031 6.895979 -14.47646
v 10.09636 2.469507 14.57853
v -0.5901031 6.895979 14.57853
v 10.09636 2.469507 14.67091
v -0.5900955 6.895979 14.6709
v 10.09636 2.469507 15.47475
v -0.5900955 6.895979 15.47475
v 9.813591 2.250915 14.57853
v -0.5901031 6.467443 14.57853
v -0.5900955 1.087687 14.6709
v 8.277725 1.087686 14.67091
v 8.277725 1.087686 14.67091
v -0.5900955 1.087687 14.6709
v -0.5900955 1.087686 15.47475
v 8.277725 1.087686 15.47475
v 8.277725 1.087686 15.47475
v -0.5900955 1.087686 15.47475
v -0.5900955 6.895979 15.47475
v 10.09636 2.469507 15.47475
v 9.813591 2.250915 -14.47646
v -0.5901031 6.467443 -14.47646
v -0.5901031 6.467443 14.57853
v 9.813591 2.250915 14.57853
v 8.277725 1.087687 -14.67089
v -0.5900955 1.087687 -14.6709
v -0.5901031 6.467443 -14.47646
v 9.813591 2.250915 -14.47646
v -15.94423 -6.895979 15.47475
v -15.94423 -5.191509 15.47475
v -9.457916 -5.191509 15.47475
v -9.457916 -6.895979 15.47475
v -9.457916 1.087686 15.47475
v -11.27655 2.469507 15.47475
v -15.94423 -5.191509 -15.47475
v -15.94423 -6.895979 -15.47475
v -9.457916 -6.895979 -15.47475
v -9.457916 -5.191509 -15.47475
v -11.27655 2.469507 -15.47475
v -9.457916 1.087686 -15.47475
v -9.457916 -6.895979 15.47475
v -9.457916 -5.191509 15.47475
v -9.457916 -5.191509 14.67089
v -9.457916 -6.895979 14.67089
v -9.457916 1.087687 14.67089
v -9.457916 1.087686 15.47475
v -15.48199 -6.895979 14.47646
v -15.48199 -5.191509 14.47646
v -15.48199 -6.895979 -14.57853
v -15.48199 -5.191509 -14.57853
v -10.99378 2.250915 14.47646
v -10.99378 2.250915 -14.57853
v -15.48199 -5.191509 -14.57853
v -9.457916 -6.895979 -14.67091
v -9.457916 -5.191509 -14.67091
v -9.457916 1.087686 -14.67091
v -10.99378 2.250915 -14.57853
v -9.457916 -6.895979 -15.47475
v -9.457916 -5.191509 -15.47475
v -9.457916 1.087686 -15.47475
v -15.94423 -6.895979 14.67089
v -15.94423 -5.191509 14.67089
v -15.94423 -5.191509 15.47475
v -15.94423 -6.895979 15.47475
v -11.27655 2.469507 15.47475
v -11.27655 2.469507 14.67089
v -15.94423 -5.191509 14.47646
v -15.94423 -6.895979 14.47646
v -15.94423 -5.191509 -14.57853
v -15.94423 -6.895979 -14.57853
v -15.94423 -6.895979 -14.67091
v -15.94423 -5.191509 -14.67091
v -11.27655 2.469507 -14.57853
v -11.27655 2.469507 -14.67091
v -15.94423 -5.191509 -15.47475
v -11.27655 2.469507 -15.47475
v -15.94423 -6.895979 -15.47475
v -11.27655 2.469507 14.47646
v -11.27655 2.469507 15.47475
v -0.5900955 6.895979 15.47475
v -0.5900955 1.087686 15.47475
v -9.457916 1.087686 15.47475
v -9.457916 1.087686 15.47475
v -0.5900955 1.087686 15.47475
v -0.5900955 1.087687 14.6709
v -9.457916 1.087687 14.67089
v -11.27655 2.469507 14.67089
v -0.5900955 6.895979 14.6709
v -0.5900955 6.895979 15.47475
v -11.27655 2.469507 15.47475
v -11.27655 2.469507 14.47646
v -0.5900879 6.895979 14.47646
v -11.27655 2.469507 -14.57853
v -0.5900879 6.895979 -14.57853
v -11.27655 2.469507 -14.67091
v -0.5900955 6.895979 -14.6709
v -11.27655 2.469507 -15.47475
v -0.5900955 6.895979 -15.47475
v -10.99378 2.250915 -14.57853
v -0.5900879 6.467443 -14.57853
v -0.5900955 1.087687 -14.6709
v -9.457916 1.087686 -14.67091
v -9.457916 1.087686 -14.67091
v -0.5900955 1.087687 -14.6709
v -0.5900955 1.087686 -15.47475
v -9.457916 1.087686 -15.47475
v -9.457916 1.087686 -15.47475
v -0.5900955 1.087686 -15.47475
v -0.5900955 6.895979 -15.47475
v -11.27655 2.469507 -15.47475
v -10.99378 2.250915 14.47646
v -0.5900879 6.467443 14.47646
v -0.5900879 6.467443 -14.57853
v -10.99378 2.250915 -14.57853
v -9.457916 1.087687 14.67089
v -0.5900955 1.087687 14.6709
v -0.5900879 6.467443 14.47646
v -10.99378 2.250915 14.47646
vt 0.375 0
vt 0.375 0.25
vt 0.625 0.25
vt 0.625 0
vt 0.375 0.25
vt 0.375 0.5
vt 0.625 0.5
vt 0.625 0.25
vt 0.375 0.5
vt 0.375 0.75
vt 0.625 0.75
vt 0.625 0.5
vt 0.625 0
vt 0.625 0.25
vt 0.875 0.25
vt 0.875 0
vt 0.125 0
vt 0.125 0.25
vt 0.375 0.25
vt 0.375 0
vt 0.375 0
vt 0.375 0.2225082
vt 0.625 0.2225082
vt 0.625 0
vt 0.625 0.25
vt 0.375 0.25
vt 0.375 0.5274918
vt 0.375 0.75
vt 0.625 0.75
vt 0.625 0.5274918
vt 0.375 0.5
vt 0.625 0.5
vt 0.625 0
vt 0.625 0.2225082
vt 0.6334866 0.2225082
vt 0.6334866 0
vt 0.6334866 0.25
vt 0.625 0.25
vt 0.6350417 0
vt 0.6350417 0.2225082
vt 0.8674212 0
vt 0.8674212 0.2225082
vt 0.6350417 0.25
vt 0.8674212 0.25
vt 0.8674212 0.2225082
vt 0.8681601 0
vt 0.8681601 0.2225082
vt 0.8681601 0.25
vt 0.8674212 0.25
vt 0.875 0
vt 0.875 0.2225082
vt 0.875 0.25
vt 0.3665134 0
vt 0.3665134 0.2225082
vt 0.375 0.2225082
vt 0.375 0
vt 0.375 0.25
vt 0.3665134 0.25
vt 0.3649583 0.2225082
vt 0.3649583 0
vt 0.1325787 0.2225082
vt 0.1325787 0
vt 0.1318398 0
vt 0.1318398 0.2225082
vt 0.1325787 0.25
vt 0.1318398 0.25
vt 0.125 0.2225082
vt 0.125 0.25
vt 0.125 0
vt 0.3649583 0.25
vt 0.375 0.25
vt 0.375 0.25
vt 0.625 0.25
vt 0.625 0.25
vt 0.625 0.25
vt 0.625 0.25
vt 0.625 0.2584866
vt 0.625 0.2584866
vt 0.375 0.2584866
vt 0.375 0.2584866
vt 0.375 0.25
vt 0.375 0.25
vt 0.375 0.2600417
vt 0.375 0.2600417
vt 0.375 0.4924213
vt 0.375 0.4924213
vt 0.375 0.4931602
vt 0.375 0.4931602
vt 0.375 0.5
vt 0.375 0.5
vt 0.625 0.4924213
vt 0.625 0.4924213
vt 0.625 0.4931602
vt 0.625 0.4931602
vt 0.625 0.4931602
vt 0.625 0.4931602
vt 0.625 0.5
vt 0.625 0.5
vt 0.625 0.5
vt 0.625 0.5
vt 0.375 0.5
vt 0.375 0.5
vt 0.625 0.2600417
vt 0.625 0.2600417
vt 0.625 0.4924213
vt 0.625 0.4924213
vt 0.625 0.2584866
vt 0.625 0.2584866
vt 0.625 0.2600417
vt 0.625 0.2600417
vt 0.375 0
vt 0.375 0.2225082
vt 0.625 0.2225082
vt 0.625 0
vt 0.625 0.25
vt 0.375 0.25
vt 0.375 0.5274918
vt 0.375 0.75
vt 0.625 0.75
vt 0.625 0.5274918
vt 0.375 0.5
vt 0.625 0.5
vt 0.625 0
vt 0.625 0.2225082
vt 0.6334866 0.2225082
vt 0.6334866 0
vt 0.6334866 0.25
vt 0.625 0.25
vt 0.6350417 0
vt 0.6350417 0.2225082
vt 0.8674212 0
vt 0.8674212 0.2225082
vt 0.6350417 0.25
vt 0.8674212 0.25
vt 0.8674212 0.2225082
vt 0.8681601 0
vt 0.8681601 0.2225082
vt 0.8681601 0.25
vt 0.8674212 0.25
vt 0.875 0
vt 0.875 0.2225082
vt 0.875 0.25
vt 0.3665134 0
vt 0.3665134 0.2225082
vt 0.375 0.2225082
vt 0.375 0
vt 0.375 0.25
vt 0.3665134 0.25
vt 0.3649583 0.2225082
vt 0.3649583 0
vt 0.1325787 0.2225082
vt 0.1325787 0
vt 0.1318398 0
vt 0.1318398 0.2225082
vt 0.1325787 0.25
vt 0.1318398 0.25
vt 0.125 0.2225082
vt 0.125 0.25
vt 0.125 0
vt 0.3649583 0.25
vt 0.375 0.25
vt 0.375 0.25
vt 0.625 0.25
vt 0.625 0.25
vt 0.625 0.25
vt 0.625 0.25
vt 0.625 0.2584866
vt 0.625 0.2584866
vt 0.375 0.2584866
vt 0.375 0.2584866
vt 0.375 0.25
vt 0.375 0.25
vt 0.375 0.2600417
vt 0.375 0.2600417
vt 0.375 0.4924213
vt 0.375 0.4924213
vt 0.375 0.4931602
vt 0.375 0.4931602
vt 0.375 0.5
vt 0.375 0.5
vt 0.625 0.4924213
vt 0.625 0.4924213
vt 0.625 0.4931602
vt 0.625 0.4931602
vt 0.625 0.4931602
vt 0.625 0.4931602
vt 0.625 0.5
vt 0.625 0.5
vt 0.625 0.5
vt 0.625 0.5
vt 0.375 0.5
vt 0.375 0.5
vt 0.625 0.2600417
vt 0.625 0.2600417
vt 0.625 0.4924213
vt 0.625 0.4924213
vt 0.625 0.2584866
vt 0.625 0.2584866
vt 0.625 0.2600417
vt 0.625 0.2600417
vn 0 0 1
vn 0 0 1
vn 0 0 1
vn 0 0 1
vn 0 1 0
vn 0 1 0
vn 0 1 0
vn 0 1 0
vn 0 0 -1
vn 0 0 -1
vn 0 0 -1
vn 0 0 -1
vn 1 0 0
vn 1 0 0
vn 1 0 0
vn 1 0 0
vn -1 0 0
vn -1 0 0
vn -1 0 0
vn -1 0 0
vn 0 0 -1
vn 0 0 -1
vn 0 0 -1
vn 0 0 -1
vn 0 0 -1
vn 0 0 -1
vn 0 0 1
vn 0 0 1
vn 0 0 1
vn 0 0 1
vn 0 0 1
vn 0 0 1
vn -1 0 0
vn -1 0 0
vn -0.2106614 -0.01137154 0.977493
vn -0.1634879 0 0.9865453
vn -0.1774901 -0.01576228 0.9839964
vn -1 0 0
vn -0.9794429 0 0.2017216
vn -0.8941671 -0.4377283 0.09412309
vn -0.9793031 0 -0.202399
vn -0.8939397 -0.4381527 -0.09430844
vn -0.8526679 -0.5128613 0.09965367
vn -0.8523363 -0.5133668 -0.09988693
vn -0.8939397 -0.4381527 -0.09430844
vn -0.1471541 0 -0.9891136
vn -0.1887452 -0.005428114 -0.9820111
vn -0.152679 -0.007521739 -0.9882472
vn -0.8523363 -0.5133668 -0.09988693
vn -1 0 0
vn -1 0 0
vn -1 0 0
vn 1 0 0
vn 0.8950022 0.4460616 0
vn 0.8950022 0.4460617 0
vn 1 0 0
vn 0.853978 0.5203091 0
vn 0.853978 0.5203091 0
vn 0.8950022 0.4460616 0
vn 1 0 0
vn 0.8950022 0.4460616 0
vn 1 0 0
vn 1 0 0
vn 0.8950024 0.4460614 0
vn 0.8539781 0.520309 0
vn 0.8539783 0.5203087 0
vn 0.8950024 0.4460613 0
vn 0.8539783 0.5203086 0
vn 1 0 0
vn 0.8539781 0.520309 0
vn 0 0 -1
vn 0 0 -1
vn 0 0 -1
vn 0 0 -1
vn 0 -1 0
vn 0 -1 0
vn 0 -1 0
vn 0 -1 0
vn 0.3826829 0.9238797 0
vn 0.3826829 0.9238797 0
vn 0.3826829 0.9238797 0
vn 0.3826829 0.9238797 0
vn 0.382683 0.9238797 0
vn 0.382683 0.9238797 0
vn 0.3826825 0.9238799 -1.428E-05
vn 0.3826825 0.9238799 -1.428E-05
vn 0.3826825 0.9238799 -1.428E-05
vn 0.3826824 0.9238799 -1.428E-05
vn 0.3826834 0.9238796 0
vn 0.3826834 0.9238796 0
vn -0.005873895 -0.02684818 -0.9996223
vn -0.005873895 -0.02684818 -0.9996223
vn -0.005873895 -0.02684818 -0.9996223
vn -0.005873895 -0.02684818 -0.9996223
vn 0 -1 0
vn 0 -1 0
vn 0 -1 0
vn 0 -1 0
vn 0 0 1
vn 0 0 1
vn 0 0 1
vn 0 0 1
vn -0.3756145 -0.926776 0
vn -0.3756145 -0.926776 0
vn -0.3756145 -0.926776 0
vn -0.3756145 -0.926776 0
vn -0.01234851 -0.05643643 0.9983298
vn -0.01234851 -0.05643643 0.9983298
vn -0.01234851 -0.05643643 0.9983298
vn -0.01234851 -0.05643643 0.9983298
vn 0 0 1
vn 0 0 1
vn 0 0 1
vn 0 0 1
vn 0 0 1
vn 0 0 1
vn 0 0 -1
vn 0 0 -1
vn 0 0 -1
vn 0 0 -1
vn 0 0 -1
vn 0 0 -1
vn 1 0 0
vn 1 0 0
vn 0.2106616 -0.01137154 -0.9774929
vn 0.1634879 0 -0.9865453
vn 0.1774902 -0.01576228 -0.9839963
vn 1 0 0
vn 0.9794429 0 -0.2017216
vn 0.8941671 -0.4377283 -0.09412309
vn 0.9793031 0 0.202399
vn 0.8939397 -0.4381527 0.09430844
vn 0.8526679 -0.5128613 -0.09965367
vn 0.8523363 -0.5133668 0.09988693
vn 0.8939397 -0.4381527 0.09430844
vn 0.1471541 0 0.9891136
vn 0.1887451 -0.005428112 0.9820111
vn 0.1526788 -0.007521737 0.9882472
vn 0.8523363 -0.5133668 0.09988693
vn 1 0 0
vn 1 0 0
vn 1 0 0
vn -1 0 0
vn -0.8950024 0.4460613 0
vn -0.8950024 0.4460612 0
vn -1 0 0
vn -0.8539783 0.5203086 0
vn -0.8539783 0.5203086 0
vn -0.8950023 0.4460616 0
vn -1 0 0
vn -0.8950023 0.4460616 0
vn -1 0 0
vn -1 0 0
vn -0.8950023 0.4460614 0
vn -0.8539782 0.5203089 0
vn -0.8539782 0.5203088 0
vn -0.8950022 0.4460617 0
vn -0.853978 0.5203092 0
vn -1 0 0
vn -0.8539782 0.520309 0
vn 0 0 1
vn 0 0 1
vn 0 0 1
vn 0 0 1
vn 0 -1 0
vn 0 -1 0
vn 0 -1 0
vn 0 -1 0
vn -0.3826829 0.9238797 0
vn -0.3826829 0.9238797 0
vn -0.3826829 0.9238797 0
vn -0.3826829 0.9238797 0
vn -0.382683 0.9238797 0
vn -0.382683 0.9238797 0
vn -0.3826825 0.9238799 1.428E-05
vn -0.3826825 0.9238799 1.428E-05
vn -0.3826825 0.9238799 1.428E-05
vn -0.3826824 0.9238799 1.428E-05
vn -0.3826834 0.9238796 0
vn -0.3826834 0.9238796 0
vn 0.005873895 -0.02684818 0.9996223
vn 0.005873895 -0.02684818 0.9996223
vn 0.005873895 -0.02684818 0.9996223
vn 0.005873895 -0.02684818 0.9996223
vn 0 -1 0
vn 0 -1 0
vn 0 -1 0
vn 0 -1 0
vn 0 0 -1
vn 0 0 -1
vn 0 0 -1
vn 0 0 -1
vn 0.3756144 -0.926776 0
vn 0.3756144 -0.926776 0
vn 0.3756144 -0.926776 0
vn 0.3756144 -0.926776 0
vn 0.01234874 -0.05643643 -0.9983298
vn 0.01234874 -0.05643643 -0.9983298
vn 0.01234874 -0.05643643 -0.9983298
vn 0.01234874 -0.05643643 -0.9983298
f 3/3/3 2/2/2 1/1/1
f 4/4/4 3/3/3 1/1/1
f 7/7/7 6/6/6 5/5/5
f 8/8/8 7/7/7 5/5/5
f 11/11/11 10/10/10 9/9/9
f 12/12/12 11/11/11 9/9/9
f 15/15/15 14/14/14 13/13/13
f 16/16/16 15/15/15 13/13/13
f 19/19/19 18/18/18 17/17/17
f 20/20/20 19/19/19 17/17/17
f 23/23/23 22/22/22 21/21/21
f 24/24/24 23/23/23 21/21/21
f 23/23/23 25/25/25 22/22/22
f 25/25/25 26/26/26 22/22/22
f 29/29/29 28/28/28 27/27/27
f 30/30/30 29/29/29 27/27/27
f 30/30/30 27/27/27 31/31/31
f 32/32/32 30/30/30 31/31/31
f 35/35/35 34/34/34 33/33/33
f 36/36/36 35/35/35 33/33/33
f 35/35/35 37/37/37 34/34/34
f 37/37/37 38/38/38 34/34/34
f 36/36/36 39/39/39 35/35/35
f 39/39/39 40/40/40 35/35/35
f 35/35/35 40/40/40 37/37/37
f 39/39/39 41/41/41 40/40/40
f 41/41/41 42/42/42 40/40/40
f 40/40/40 42/42/42 43/43/43
f 40/40/40 43/43/43 37/37/37
f 42/42/42 44/44/44 43/43/43
f 41/41/41 46/46/46 45/45/45
f 46/46/46 47/47/47 45/45/45
f 47/47/47 48/48/48 44/44/44
f 45/45/45 47/47/47 49/49/49
f 46/46/46 50/50/50 47/47/47
f 50/50/50 51/51/51 47/47/47
f 47/47/47 51/51/51 48/48/48
f 51/51/51 52/52/52 48/48/48
f 55/55/55 54/54/54 53/53/53
f 56/56/56 55/55/55 53/53/53
f 55/55/55 57/57/57 54/54/54
f 57/57/57 58/58/58 54/54/54
f 53/53/53 54/54/54 59/59/59
f 60/60/60 53/53/53 59/59/59
f 60/60/60 59/59/59 61/61/61
f 62/62/62 60/60/60 61/61/61
f 62/62/62 61/61/61 63/63/63
f 61/61/61 64/64/64 63/63/63
f 61/61/61 65/65/65 64/64/64
f 61/61/61 59/59/59 65/65/65
f 65/65/65 66/66/66 64/64/64
f 64/64/64 66/66/66 67/67/67
f 66/66/66 68/68/68 67/67/67
f 64/64/64 67/67/67 69/69/69
f 63/63/63 64/64/64 69/69/69
f 59/59/59 70/70/70 65/65/65
f 54/54/54 58/58/58 70/70/70
f 59/59/59 54/54/54 70/70/70
f 73/73/73 72/72/72 71/71/71
f 74/74/74 73/73/73 71/71/71
f 77/77/77 76/76/76 75/75/75
f 78/78/78 77/77/77 75/75/75
f 81/81/81 80/80/80 79/79/79
f 82/82/82 81/81/81 79/79/79
f 79/79/79 80/80/80 83/83/83
f 80/80/80 84/84/84 83/83/83
f 83/83/83 84/84/84 85/85/85
f 84/84/84 86/86/86 85/85/85
f 85/85/85 86/86/86 87/87/87
f 86/86/86 88/88/88 87/87/87
f 87/87/87 88/88/88 89/89/89
f 88/88/88 90/90/90 89/89/89
f 93/93/93 92/92/92 91/91/91
f 94/94/94 93/93/93 91/91/91
f 97/97/97 96/96/96 95/95/95
f 98/98/98 97/97/97 95/95/95
f 101/101/101 100/100/100 99/99/99
f 102/102/102 101/101/101 99/99/99
f 105/105/105 104/104/104 103/103/103
f 106/106/106 105/105/105 103/103/103
f 109/109/109 108/108/108 107/107/107
f 110/110/110 109/109/109 107/107/107
f 113/113/113 112/112/112 111/111/111
f 114/114/114 113/113/113 111/111/111
f 113/113/113 115/115/115 112/112/112
f 115/115/115 116/116/116 112/112/112
f 119/119/119 118/118/118 117/117/117
f 120/120/120 119/119/119 117/117/117
f 120/120/120 117/117/117 121/121/121
f 122/122/122 120/120/120 121/121/121
f 125/125/125 124/124/124 123/123/123
f 126/126/126 125/125/125 123/123/123
f 125/125/125 127/127/127 124/124/124
f 127/127/127 128/128/128 124/124/124
f 126/126/126 129/129/129 125/125/125
f 129/129/129 130/130/130 125/125/125
f 125/125/125 130/130/130 127/127/127
f 129/129/129 131/131/131 130/130/130
f 131/131/131 132/132/132 130/130/130
f 130/130/130 132/132/132 133/133/133
f 130/130/130 133/133/133 127/127/127
f 132/132/132 134/134/134 133/133/133
f 131/131/131 136/136/136 135/135/135
f 136/136/136 137/137/137 135/135/135
f 137/137/137 138/138/138 134/134/134
f 135/135/135 137/137/137 139/139/139
f 136/136/136 140/140/140 137/137/137
f 140/140/140 141/141/141 137/137/137
f 137/137/137 141/141/141 138/138/138
f 141/141/141 142/142/142 138/138/138
f 145/145/145 144/144/144 143/143/143
f 146/146/146 145/145/145 143/143/143
f 145/145/145 147/147/147 144/144/144
f 147/147/147 148/148/148 144/144/144
f 143/143/143 144/144/144 149/149/149
f 150/150/150 143/143/143 149/149/149
f 150/150/150 149/149/149 151/151/151
f 152/152/152 150/150/150 151/151/151
f 152/152/152 151/151/151 153/153/153
f 151/151/151 154/154/154 153/153/153
f 151/151/151 155/155/155 154/154/154
f 151/151/151 149/149/149 155/155/155
f 155/155/155 156/156/156 154/154/154
f 154/154/154 156/156/156 157/157/157
f 156/156/156 158/158/158 157/157/157
f 154/154/154 157/157/157 159/159/159
f 153/153/153 154/154/154 159/159/159
f 149/149/149 160/160/160 155/155/155
f 144/144/144 148/148/148 160/160/160
f 149/149/149 144/144/144 160/160/160
f 163/163/163 162/162/162 161/161/161
f 164/164/164 163/163/163 161/161/161
f 167/167/167 166/166/166 165/165/165
f 168/168/168 167/167/167 165/165/165
f 171/171/171 170/170/170 169/169/169
f 172/172/172 171/171/171 169/169/169
f 169/169/169 170/170/170 173/173/173
f 170/170/170 174/174/174 173/173/173
f 173/173/173 174/174/174 175/175/175
f 174/174/174 176/176/176 175/175/175
f 175/175/175 176/176/176 177/177/177
f 176/176/176 178/178/178 177/177/177
f 177/177/177 178/178/178 179/179/179
f 178/178/178 180/180/180 179/179/179
f 183/183/183 182/182/182 181/181/181
f 184/184/184 183/183/183 181/181/181
f 187/187/187 186/186/186 185/185/185
f 188/188/188 187/187/187 185/185/185
f 191/191/191 190/190/190 189/189/189
f 192/192/192 191/191/191 189/189/189
f 195/195/195 194/194/194 193/193/193
f 196/196/196 195/195/195 193/193/193
f 199/199/199 198/198/198 197/197/197
f 200/200/200 199/199/199 197/197/197
