g icecream_rr_wheel
v 0.08704975 0.3721693 -0.214891
v -0.08704978 0.3721693 -0.214891
v -0.08704978 0.214891 -0.3721693
v 0.08704975 0.214891 -0.3721693
v -0.08704978 -0.0004205406 -0.4302025
v 0.08704975 -0.0004205406 -0.4302025
v -0.08704978 -0.214891 -0.3721693
v 0.08704975 -0.214891 -0.3721693
v -0.08704978 -0.3721693 -0.214891
v 0.08704975 -0.3721693 -0.214891
v -0.08704978 -0.4302025 0.0004205406
v 0.08704975 -0.4302025 0.0004205406
v -0.08704978 -0.3721693 0.214891
v 0.08704975 -0.3721693 0.214891
v 0.08704975 -0.3721693 0.214891
v -0.08704978 -0.3721693 0.214891
v -0.08704978 -0.214891 0.3721693
v 0.08704975 -0.214891 0.3721693
v -0.08704978 -0.0004205406 0.4302025
v 0.08704975 -0.0004205406 0.4302025
v -0.08704978 0.214891 0.3721693
v 0.08704975 0.214891 0.3721693
v -0.08704978 0.3721693 0.214891
v 0.08704975 0.3721693 0.214891
v -0.08704978 0.4302025 0.0004205406
v 0.08704975 0.4302025 0.0004205406
v -0.08704978 0.3721693 -0.214891
v 0.08704975 0.3721693 -0.214891
v 0.08704975 0.214891 -0.3721693
v 0.08704975 -0.0004205406 0.0004205406
v 0.08704975 0.3721693 -0.214891
v 0.08704975 -0.0004205406 -0.4302025
v 0.08704975 -0.214891 -0.3721693
v 0.08704975 -0.3721693 -0.214891
v 0.08704975 -0.4302025 0.0004205406
v 0.08704975 -0.3721693 0.214891
v 0.08704975 -0.214891 0.3721693
v 0.08704975 -0.0004205406 0.4302025
v 0.08704975 0.214891 0.3721693
v 0.08704975 0.3721693 0.214891
v 0.08704975 0.4302025 0.0004205406
v -0.08704978 0.214891 -0.3721693
v -0.08704978 0.3721693 -0.214891
v -0.08704978 -0.0004205406 -0.4302025
v -0.08704978 -0.214891 -0.3721693
v -0.08704978 -0.3721693 -0.214891
v -0.08704978 -0.4302025 0.0004205406
v -0.08704978 -0.3721693 0.214891
v -0.08704978 -0.214891 0.3721693
v -0.08704978 0.4302025 0.0004205406
v -0.08704978 -0.0004205406 0.4302025
v -0.08704978 0.214891 0.3721693
v -0.08704978 0.3721693 0.214891
vt 0.6499865 0.9683191
vt 0.6499865 0.9744409
vt 0.6520271 0.9744409
vt 0.6520271 0.9683191
vt 0.6520271 0.9744409
vt 0.6520271 0.9683191
vt 0.6540677 0.9744409
vt 0.6540677 0.9683191
vt 0.6561083 0.9744409
vt 0.6561083 0.9683191
vt 0.6561083 0.9744409
vt 0.6561083 0.9683191
vt 0.6581489 0.9744409
vt 0.6581489 0.9683191
vt 0.6499865 0.9683191
vt 0.6499865 0.9744409
vt 0.6520271 0.9744409
vt 0.6520271 0.9683191
vt 0.6520271 0.9744409
vt 0.6520271 0.9683191
vt 0.6540677 0.9744409
vt 0.6540677 0.9683191
vt 0.6561083 0.9744409
vt 0.6561083 0.9683191
vt 0.6561083 0.9744409
vt 0.6561083 0.9683191
vt 0.6581489 0.9744409
vt 0.6581489 0.9683191
vt 0.572444 0.6561083
vt 0.5316321 0.7234479
vt 0.6010122 0.6846766
vt 0.5316321 0.6438648
vt 0.4928608 0.6561083
vt 0.4642925 0.6846766
vt 0.4540895 0.7234479
vt 0.4642925 0.7622192
vt 0.4928608 0.7907875
vt 0.5316321 0.8009905
vt 0.572444 0.7907875
vt 0.6010122 0.7622192
vt 0.6112152 0.7234479
vt 0.5704033 0.7887468
vt 0.5989717 0.7601786
vt 0.5316321 0.7989498
vt 0.4928608 0.7887468
vt 0.4642925 0.7601786
vt 0.4540895 0.7214073
vt 0.4642925 0.682636
vt 0.4928608 0.6561083
vt 0.6091746 0.7214073
vt 0.5316321 0.6438648
vt 0.5704033 0.6561083
vt 0.5989717 0.682636
vn -0.01587105 0.8729059 -0.4876305
vn -0.01587105 0.8729059 -0.4876305
vn -0.01587105 0.4920015 -0.8704497
vn -0.01587105 0.4920015 -0.8704497
vn -0.01587105 0.01587105 -0.9997481
vn -0.01587105 0.01587105 -0.9997481
vn -0.01587105 -0.4920015 -0.8704497
vn -0.01587105 -0.4920015 -0.8704497
vn -0.01587105 -0.8729059 -0.4876305
vn -0.01587105 -0.8729059 -0.4876305
vn -0.01587105 -0.999874 -0.000345267
vn -0.01587105 -0.999874 -0.000345267
vn -0.01587105 -0.8729059 0.4876305
vn -0.01587105 -0.8729059 0.4876305
vn -0.01587105 -0.8729059 0.4876305
vn -0.01587105 -0.8729059 0.4876305
vn -0.01587105 -0.4920015 0.8704497
vn -0.01587105 -0.4920015 0.8704497
vn -0.01587105 0.01587105 0.9997481
vn -0.01587105 0.01587105 0.9997481
vn -0.01587105 0.4920015 0.8704497
vn -0.01587105 0.4920015 0.8704497
vn -0.01587105 0.8729059 0.4876305
vn -0.01587105 0.8729059 0.4876305
vn -0.01587105 0.999874 -0.000345267
vn -0.01587105 0.999874 -0.000345267
vn -0.01587105 0.8729059 -0.4876305
vn -0.01587105 0.8729059 -0.4876305
vn 0.999874 0.01587105 -0.0003439156
vn 0.999874 0.01587105 -0.0003439156
vn 0.999874 0.01587105 -0.0003439156
vn 0.999874 0.01587105 -0.0003439156
vn 0.999874 0.01587105 -0.0003439156
vn 0.999874 0.01587105 -0.0003439156
vn 0.999874 0.01587105 -0.0003439156
vn 0.999874 0.01587105 -0.0003439156
vn 0.999874 0.01587105 -0.0003439156
vn 0.999874 0.01587105 -0.0003439156
vn 0.999874 0.01587105 -0.0003439156
vn 0.999874 0.01587105 -0.0003439156
vn 0.999874 0.01587105 -0.0003439156
vn -0.999874 0.01587105 -0.0003439156
vn -0.999874 0.01587105 -0.0003439156
vn -0.999874 0.01587105 -0.0003439156
vn -0.999874 0.01587105 -0.0003439156
vn -0.999874 0.01587105 -0.0003439156
vn -0.999874 0.01587105 -0.0003439156
vn -0.999874 0.01587105 -0.0003439156
vn -0.999874 0.01587105 -0.0003439156
vn -0.999874 0.01587105 -0.0003439156
vn -0.999874 0.01587105 -0.0003439156
vn -0.999874 0.01587105 -0.0003439156
vn -0.999874 0.01587105 -0.0003439156
f 3/3/3 2/2/2 1/1/1
f 4/4/4 3/3/3 1/1/1
f 5/5/5 3/3/3 4/4/4
f 6/6/6 5/5/5 4/4/4
f 7/7/7 5/5/5 6/6/6
f 8/8/8 7/7/7 6/6/6
f 9/9/9 7/7/7 8/8/8
f 10/10/10 9/9/9 8/8/8
f 11/11/11 9/9/9 10/10/10
f 12/12/12 11/11/11 10/10/10
f 13/13/13 11/11/11 12/12/12
f 14/14/14 13/13/13 12/12/12
f 17/17/17 16/16/16 15/15/15
f 18/18/18 17/17/17 15/15/15
f 19/19/19 17/17/17 18/18/18
f 20/20/20 19/19/19 18/18/18
f 21/21/21 19/19/19 20/20/20
f 22/22/22 21/21/21 20/20/20
f 23/23/23 21/21/21 22/22/22
f 24/24/24 23/23/23 22/22/22
f 25/25/25 23/23/23 24/24/24
f 26/26/26 25/25/25 24/24/24
f 27/27/27 25/25/25 26/26/26
f 28/28/28 27/27/27 26/26/26
f 31/31/31 30/30/30 29/29/29
f 29/29/29 30/30/30 32/32/32
f 32/32/32 30/30/30 33/33/33
f 33/33/33 30/30/30 34/34/34
f 34/34/34 30/30/30 35/35/35
f 35/35/35 30/30/30 36/36/36
f 36/36/36 30/30/30 37/37/37
f 37/37/37 30/30/30 38/38/38
f 38/38/38 30/30/30 39/39/39
f 39/39/39 30/30/30 40/40/40
f 40/40/40 30/30/30 41/41/41
f 41/41/41 30/30/30 31/31/31
f 44/44/44 43/43/43 42/42/42
f 45/45/45 43/43/43 44/44/44
f 46/46/46 43/43/43 45/45/45
f 47/47/47 43/43/43 46/46/46
f 48/48/48 43/43/43 47/47/47
f 49/49/49 43/43/43 48/48/48
f 49/49/49 50/50/50 43/43/43
f 51/51/51 50/50/50 49/49/49
f 52/52/52 50/50/50 51/51/51
f 53/53/53 50/50/50 52/52/52
