g Items_HealthPack_01
v -0.2759882 -0.0903603 0.2759884
v 0.2759882 -0.0903603 0.2759884
v -0.2759882 0.0903603 0.2759884
v 0.2759882 0.0903603 0.2759884
v -0.2759882 0.0903603 -0.2759884
v 0.2759882 0.0903603 -0.2759884
v -0.2759882 -0.0903603 -0.2759884
v 0.2759882 -0.0903603 -0.2759884
v 0.2759882 0.01305997 0.2759884
v -0.2759882 0.01305997 0.2759884
v -0.2759882 0.01305997 -0.2759884
v 0.2759882 0.01305997 -0.2759884
v 0.2759882 -0.0190608 0.2759884
v -0.2759882 -0.0190608 0.2759884
v -0.2759882 -0.0190608 -0.2759884
v 0.2759882 -0.0190608 -0.2759884
v -0.2759882 -0.0903603 -0.2759884
v -0.2759882 -0.0903603 0.2759884
v 0.2759882 -0.0903603 0.2759884
v 0.2759882 -0.0903603 -0.2759884
v 0.2759882 -0.0903603 0.2759884
v 0.2759882 -0.0190608 0.2759884
v 0.2759882 -0.0190608 -0.2759884
v 0.2759882 -0.0903603 -0.2759884
v -0.2759882 -0.0903603 -0.2759884
v -0.2759882 -0.0190608 -0.2759884
v -0.2759882 -0.0190608 0.2759884
v -0.2759882 -0.0903603 0.2759884
v -0.2759882 0.0903603 0.2759884
v 0.2759882 0.0903603 0.2759884
v -0.2759882 0.0903603 -0.2759884
v -0.2759882 0.0903603 0.2759884
v -0.2759882 0.01305997 0.2759884
v -0.2759882 0.0903603 -0.2759884
v -0.2759882 0.01305997 -0.2759884
v 0.2759882 0.0903603 -0.2759884
v 0.2759882 0.01305997 0.2759884
v 0.2759882 0.0903603 0.2759884
v 0.2759882 0.0903603 -0.2759884
v 0.2759882 0.01305997 -0.2759884
v -0.2759882 -0.0190608 0.2759884
v -0.2759882 0.01305997 0.2759884
v 0.2759882 0.01305997 0.2759884
v 0.2759882 -0.0190608 0.2759884
v -0.2759882 -0.0190608 -0.2759884
v -0.2759882 0.01305997 -0.2759884
v -0.2759882 0.01305997 0.2759884
v -0.2759882 -0.0190608 0.2759884
v -0.2759882 0.01305997 -0.2759884
v -0.2759882 -0.0190608 -0.2759884
v 0.2759882 -0.0190608 -0.2759884
v 0.2759882 0.01305997 -0.2759884
v 0.2759882 -0.0190608 0.2759884
v 0.2759882 0.01305997 0.2759884
v 0.2759882 0.01305997 -0.2759884
v 0.2759882 -0.0190608 -0.2759884
vt 0.3896705 0.3108397
vt 0.3896705 0.3108397
vt 0.5045955 0.5493878
vt 0.5940732 0.5493878
vt 0.5045955 0.6388655
vt 0.5940732 0.6388655
vt 0.3896705 0.3108397
vt 0.3896705 0.3108397
vt 0.3896705 0.3108397
vt 0.3896705 0.3108397
vt 0.3285191 0.3108397
vt 0.3896705 0.3108397
vt 0.3896705 0.3108397
vt 0.3896705 0.3108397
vt 0.3896705 0.3108397
vt 0.3896705 0.3108397
vt 0.236575 0.3108397
vt 0.236575 0.3108397
vt 0.236575 0.3108397
vt 0.236575 0.3108397
vt 0.3285191 0.3108397
vt 0.3285191 0.3108397
vt 0.3285191 0.3108397
vt 0.3285191 0.3108397
vt 0.3285191 0.3108397
vt 0.3285191 0.3108397
vt 0.3285191 0.3108397
vt 0.3285191 0.3108397
vt 0.3896705 0.3108397
vt 0.3896705 0.3108397
vt 0.3285191 0.3108397
vt 0.3285191 0.3108397
vt 0.3285191 0.3108397
vt 0.3896705 0.3108397
vt 0.3896705 0.3108397
vt 0.3896705 0.3108397
vt 0.3285191 0.3108397
vt 0.3285191 0.3108397
vt 0.3285191 0.3108397
vt 0.3285191 0.3108397
vt 0.01579844 0.4775717
vt 0.01579844 0.4775717
vt 0.01579844 0.4775717
vt 0.01579844 0.4775717
vt 0.01579844 0.4775717
vt 0.01579844 0.4775717
vt 0.01579844 0.4775717
vt 0.01579844 0.4775717
vt 0.01579844 0.4775717
vt 0.01579844 0.4775717
vt 0.01579844 0.4775717
vt 0.01579844 0.4775717
vt 0.01579844 0.4775717
vt 0.01579844 0.4775717
vt 0.01579844 0.4775717
vt 0.01579844 0.4775717
vn 0 0 1
vn 0 0 1
vn 0 1 0
vn 0 1 0
vn 0 1 0
vn 0 1 0
vn 0 0 -1
vn 0 0 -1
vn 0 0 1
vn 0 0 1
vn -1 0 0
vn 0 0 -1
vn 0 0 1
vn 0 0 1
vn 0 0 -1
vn 0 0 -1
vn 0 -1 0
vn 0 -1 0
vn 0 -1 0
vn 0 -1 0
vn 1 0 0
vn 1 0 0
vn 1 0 0
vn 1 0 0
vn -1 0 0
vn -1 0 0
vn -1 0 0
vn -1 0 0
vn 0 0 1
vn 0 0 1
vn -1 0 0
vn -1 0 0
vn -1 0 0
vn 0 0 -1
vn 0 0 -1
vn 0 0 -1
vn 1 0 0
vn 1 0 0
vn 1 0 0
vn 1 0 0
vn 0 0 1
vn 0 0 1
vn 0 0 1
vn 0 0 1
vn -1 0 0
vn -1 0 0
vn -1 0 0
vn -1 0 0
vn 0 0 -1
vn 0 0 -1
vn 0 0 -1
vn 0 0 -1
vn 1 0 0
vn 1 0 0
vn 1 0 0
vn 1 0 0
f 13/13/13 14/14/14 1/1/1
f 2/2/2 13/13/13 1/1/1
f 6/6/6 5/5/5 3/3/3
f 4/4/4 6/6/6 3/3/3
f 8/8/8 7/7/7 15/15/15
f 16/16/16 8/8/8 15/15/15
f 19/19/19 18/18/18 17/17/17
f 20/20/20 19/19/19 17/17/17
f 23/23/23 22/22/22 21/21/21
f 24/24/24 23/23/23 21/21/21
f 27/27/27 26/26/26 25/25/25
f 28/28/28 27/27/27 25/25/25
f 30/30/30 29/29/29 10/10/10
f 9/9/9 30/30/30 10/10/10
f 32/32/32 31/31/31 11/11/11
f 33/33/33 32/32/32 11/11/11
f 12/12/12 35/35/35 34/34/34
f 36/36/36 12/12/12 34/34/34
f 39/39/39 38/38/38 37/37/37
f 40/40/40 39/39/39 37/37/37
f 43/43/43 42/42/42 41/41/41
f 44/44/44 43/43/43 41/41/41
f 47/47/47 46/46/46 45/45/45
f 48/48/48 47/47/47 45/45/45
f 51/51/51 50/50/50 49/49/49
f 52/52/52 51/51/51 49/49/49
f 55/55/55 54/54/54 53/53/53
f 56/56/56 55/55/55 53/53/53
