g limo_rl_wheel
v 0.1099089 0.3297266 -0.1903846
v -0.1099089 0.3297266 -0.1903846
v -0.1099089 0.1903846 -0.3297267
v 0.1099089 0.1903846 -0.3297267
v -0.1099089 0.0003725588 -0.3811417
v 0.1099089 0.0003725588 -0.3811417
v -0.1099089 -0.1903846 -0.3297267
v 0.1099089 -0.1903846 -0.3297267
v -0.1099089 -0.3297267 -0.1903846
v 0.1099089 -0.3297267 -0.1903846
v -0.1099089 -0.3811417 0.0003725588
v 0.1099089 -0.3811417 0.0003725588
v -0.1099089 -0.3297267 0.1903846
v 0.1099089 -0.3297267 0.1903846
v -0.1099089 -0.1903846 0.3297266
v 0.1099089 -0.1903846 0.3297266
v -0.1099089 0.0003725588 0.3811417
v 0.1099089 0.0003725588 0.3811417
v -0.1099089 0.1903846 0.3297266
v 0.1099089 0.1903846 0.3297266
v -0.1099089 0.3297266 0.1903846
v 0.1099089 0.3297266 0.1903846
v -0.1099089 0.3811417 0.0003725588
v 0.1099089 0.3811417 0.0003725588
v -0.1099089 0.3297266 -0.1903846
v -0.1099089 0.0003725588 0.0003725588
v -0.1099089 0.1903846 -0.3297267
v -0.1099089 0.0003725588 -0.3811417
v -0.1099089 -0.1903846 -0.3297267
v -0.1099089 -0.3297267 -0.1903846
v -0.1099089 -0.3811417 0.0003725588
v -0.1099089 -0.3297267 0.1903846
v -0.1099089 -0.1903846 0.3297266
v -0.1099089 0.0003725588 0.3811417
v -0.1099089 0.1903846 0.3297266
v -0.1099089 0.3297266 0.1903846
v -0.1099089 0.3811417 0.0003725588
v 0.1099089 0.1903846 -0.3297267
v 0.1099089 0.0003725588 -0.3811417
v 0.1099089 0.3297266 -0.1903846
v 0.1099089 -0.1903846 -0.3297267
v 0.1099089 -0.3297267 -0.1903846
v 0.1099089 -0.3811417 0.0003725588
v 0.1099089 -0.3297267 0.1903846
v 0.1099089 -0.1903846 0.3297266
v 0.1099089 0.0003725588 0.3811417
v 0.1099089 0.1903846 0.3297266
v 0.1099089 0.3297266 0.1903846
v 0.1099089 0.3811417 0.0003725588
vt 0.8486388 0.8057719
vt 0.8486388 0.8057719
vt 0.8486388 0.8057719
vt 0.8486388 0.8057719
vt 0.8486388 0.8057719
vt 0.8486388 0.8057719
vt 0.8486388 0.8057719
vt 0.8486388 0.8057719
vt 0.8486388 0.8057719
vt 0.8486388 0.8057719
vt 0.8486388 0.8057719
vt 0.8486388 0.8057719
vt 0.8486388 0.8057719
vt 0.8486388 0.8057719
vt 0.8486388 0.8057719
vt 0.8486388 0.8057719
vt 0.8486388 0.8057719
vt 0.8486388 0.8057719
vt 0.8486388 0.8057719
vt 0.8486388 0.8057719
vt 0.8486388 0.8057719
vt 0.8486388 0.8057719
vt 0.8486388 0.8057719
vt 0.8486388 0.8057719
vt 0.8731342 0.9894872
vt 0.9098772 0.9251869
vt 0.8455769 0.9619299
vt 0.8363912 0.9251869
vt 0.8455769 0.8853819
vt 0.8731342 0.8578246
vt 0.9098772 0.8486388
vt 0.9496822 0.8578246
vt 0.9772395 0.8853819
vt 0.9864253 0.9251869
vt 0.9772395 0.9619299
vt 0.9496822 0.9894872
vt 0.9098772 0.998673
vt 0.9466203 0.9894872
vt 0.9098772 0.998673
vt 0.9741776 0.9619299
vt 0.8731342 0.9894872
vt 0.8455769 0.9619299
vt 0.8363912 0.9251869
vt 0.8455769 0.8884438
vt 0.8731342 0.8608865
vt 0.9098772 0.8486388
vt 0.9466203 0.8608865
vt 0.9741776 0.8884438
vt 0.9864253 0.9251869
vn -0.01587105 0.8729059 -0.4876305
vn -0.01587105 0.8729059 -0.4876305
vn -0.01587105 0.4920015 -0.8704497
vn -0.01587105 0.4920015 -0.8704497
vn -0.01587105 0.01587105 -0.9997481
vn -0.01587105 0.01587105 -0.9997481
vn -0.01587105 -0.4920015 -0.8704497
vn -0.01587105 -0.4920015 -0.8704497
vn -0.01587105 -0.8729059 -0.4876305
vn -0.01587105 -0.8729059 -0.4876305
vn -0.01587105 -0.999874 -0.000345267
vn -0.01587105 -0.999874 -0.000345267
vn -0.01587105 -0.8729059 0.4876305
vn -0.01587105 -0.8729059 0.4876305
vn -0.01587105 -0.4920015 0.8704497
vn -0.01587105 -0.4920015 0.8704497
vn -0.01587105 0.01587105 0.9997481
vn -0.01587105 0.01587105 0.9997481
vn -0.01587105 0.4920015 0.8704497
vn -0.01587105 0.4920015 0.8704497
vn -0.01587105 0.8729059 0.4876305
vn -0.01587105 0.8729059 0.4876305
vn -0.01587105 0.999874 -0.000345267
vn -0.01587105 0.999874 -0.000345267
vn -0.999874 0.01587105 -0.0003439156
vn -0.999874 0.01587105 -0.0003439156
vn -0.999874 0.01587105 -0.0003439156
vn -0.999874 0.01587105 -0.0003439156
vn -0.999874 0.01587105 -0.0003439156
vn -0.999874 0.01587105 -0.0003439156
vn -0.999874 0.01587105 -0.0003439156
vn -0.999874 0.01587105 -0.0003439156
vn -0.999874 0.01587105 -0.0003439156
vn -0.999874 0.01587105 -0.0003439156
vn -0.999874 0.01587105 -0.0003439156
vn -0.999874 0.01587105 -0.0003439156
vn -0.999874 0.01587105 -0.0003439156
vn 0.999874 0.01587105 -0.0003439156
vn 0.999874 0.01587105 -0.0003439156
vn 0.999874 0.01587105 -0.0003439156
vn 0.999874 0.01587105 -0.0003439156
vn 0.999874 0.01587105 -0.0003439156
vn 0.999874 0.01587105 -0.0003439156
vn 0.999874 0.01587105 -0.0003439156
vn 0.999874 0.01587105 -0.0003439156
vn 0.999874 0.01587105 -0.0003439156
vn 0.999874 0.01587105 -0.0003439156
vn 0.999874 0.01587105 -0.0003439156
vn 0.999874 0.01587105 -0.0003439156
f 3/3/3 2/2/2 1/1/1
f 4/4/4 3/3/3 1/1/1
f 5/5/5 3/3/3 4/4/4
f 6/6/6 5/5/5 4/4/4
f 7/7/7 5/5/5 6/6/6
f 8/8/8 7/7/7 6/6/6
f 9/9/9 7/7/7 8/8/8
f 10/10/10 9/9/9 8/8/8
f 11/11/11 9/9/9 10/10/10
f 12/12/12 11/11/11 10/10/10
f 13/13/13 11/11/11 12/12/12
f 14/14/14 13/13/13 12/12/12
f 15/15/15 13/13/13 14/14/14
f 16/16/16 15/15/15 14/14/14
f 17/17/17 15/15/15 16/16/16
f 18/18/18 17/17/17 16/16/16
f 19/19/19 17/17/17 18/18/18
f 20/20/20 19/19/19 18/18/18
f 21/21/21 19/19/19 20/20/20
f 22/22/22 21/21/21 20/20/20
f 23/23/23 21/21/21 22/22/22
f 24/24/24 23/23/23 22/22/22
f 2/2/2 23/23/23 24/24/24
f 1/1/1 2/2/2 24/24/24
f 27/27/27 26/26/26 25/25/25
f 28/28/28 26/26/26 27/27/27
f 29/29/29 26/26/26 28/28/28
f 30/30/30 26/26/26 29/29/29
f 31/31/31 26/26/26 30/30/30
f 32/32/32 26/26/26 31/31/31
f 33/33/33 26/26/26 32/32/32
f 34/34/34 26/26/26 33/33/33
f 35/35/35 26/26/26 34/34/34
f 36/36/36 26/26/26 35/35/35
f 37/37/37 26/26/26 36/36/36
f 25/25/25 26/26/26 37/37/37
f 40/40/40 39/39/39 38/38/38
f 40/40/40 41/41/41 39/39/39
f 40/40/40 42/42/42 41/41/41
f 40/40/40 43/43/43 42/42/42
f 40/40/40 44/44/44 43/43/43
f 40/40/40 45/45/45 44/44/44
f 40/40/40 46/46/46 45/45/45
f 40/40/40 47/47/47 46/46/46
f 40/40/40 48/48/48 47/47/47
f 40/40/40 49/49/49 48/48/48
