g limo_fr_wheel
v -0.1099089 0.3297269 -0.1903847
v -0.1099089 0.1903847 -0.3297269
v 0.109909 0.1903847 -0.3297269
v 0.109909 0.3297269 -0.1903847
v 0.109909 -0.0003725588 -0.3811419
v -0.1099089 -0.0003725588 -0.3811419
v 0.109909 -0.1903847 -0.3297269
v -0.1099089 -0.1903847 -0.3297269
v 0.109909 -0.3297269 -0.1903847
v -0.1099089 -0.3297269 -0.1903847
v 0.109909 -0.3811419 -0.0003725588
v -0.1099089 -0.3811419 -0.0003725588
v 0.109909 -0.3297269 0.1903847
v -0.1099089 -0.3297269 0.1903847
v 0.109909 -0.1903847 0.3297269
v -0.1099089 -0.1903847 0.3297269
v 0.109909 -0.0003725588 0.3811419
v -0.1099089 -0.0003725588 0.3811419
v 0.109909 0.1903847 0.3297269
v -0.1099089 0.1903847 0.3297269
v 0.109909 0.3297269 0.1903847
v -0.1099089 0.3297269 0.1903847
v 0.109909 0.3811419 -0.0003725588
v -0.1099089 0.3811419 -0.0003725588
v 0.109909 0.3297269 -0.1903847
v 0.109909 0.1903847 -0.3297269
v 0.109909 0.0003725588 -0.0003725588
v 0.109909 -0.0003725588 -0.3811419
v 0.109909 -0.1903847 -0.3297269
v 0.109909 -0.3297269 -0.1903847
v 0.109909 -0.3811419 -0.0003725588
v 0.109909 -0.3297269 0.1903847
v 0.109909 -0.1903847 0.3297269
v 0.109909 -0.0003725588 0.3811419
v 0.109909 0.1903847 0.3297269
v 0.109909 0.3297269 0.1903847
v 0.109909 0.3811419 -0.0003725588
v -0.1099089 0.1903847 -0.3297269
v -0.1099089 0.3297269 -0.1903847
v -0.1099089 -0.0003725588 -0.3811419
v -0.1099089 -0.1903847 -0.3297269
v -0.1099089 -0.3297269 -0.1903847
v -0.1099089 -0.3811419 -0.0003725588
v -0.1099089 -0.3297269 0.1903847
v -0.1099089 -0.1903847 0.3297269
v -0.1099089 -0.0003725588 0.3811419
v -0.1099089 0.1903847 0.3297269
v -0.1099089 0.3297269 0.1903847
v -0.1099089 0.3811419 -0.0003725588
vt 0.8485852 0.8057719
vt 0.8485852 0.8057719
vt 0.8485852 0.8057719
vt 0.8485852 0.8057719
vt 0.8485852 0.8057719
vt 0.8485852 0.8057719
vt 0.8485852 0.8057719
vt 0.8485852 0.8057719
vt 0.8485852 0.8057719
vt 0.8485852 0.8057719
vt 0.8485852 0.8057719
vt 0.8485852 0.8057719
vt 0.8485852 0.8057719
vt 0.8485852 0.8057719
vt 0.8485852 0.8057719
vt 0.8485852 0.8057719
vt 0.8485852 0.8057719
vt 0.8485852 0.8057719
vt 0.8485852 0.8057719
vt 0.8485852 0.8057719
vt 0.8485852 0.8057719
vt 0.8485852 0.8057719
vt 0.8485852 0.8057719
vt 0.8485852 0.8057719
vt 0.87305 0.9892576
vt 0.8455272 0.9617348
vt 0.9097471 0.9250376
vt 0.8363529 0.9250376
vt 0.8455272 0.8852824
vt 0.87305 0.8577595
vt 0.9097471 0.8485852
vt 0.9495023 0.8577595
vt 0.9770252 0.8852824
vt 0.9861995 0.9250376
vt 0.9770252 0.9617348
vt 0.9495023 0.9892576
vt 0.9097471 0.9984319
vt 0.9495023 0.9892576
vt 0.9770252 0.9617348
vt 0.9128053 0.9984319
vt 0.87305 0.9892576
vt 0.8455272 0.9617348
vt 0.8363529 0.9250376
vt 0.8455272 0.8852824
vt 0.87305 0.8577595
vt 0.9128053 0.8485852
vt 0.9495023 0.8577595
vt 0.9770252 0.8852824
vt 0.9861995 0.9250376
vn -0.01587105 0.8729059 -0.4876305
vn -0.01587105 0.4920015 -0.8704497
vn -0.01587105 0.4920015 -0.8704497
vn -0.01587105 0.8729059 -0.4876305
vn -0.01587105 0.01587105 -0.9997481
vn -0.01587105 0.01587105 -0.9997481
vn -0.01587105 -0.4920015 -0.8704497
vn -0.01587105 -0.4920015 -0.8704497
vn -0.01587105 -0.8729059 -0.4876305
vn -0.01587105 -0.8729059 -0.4876305
vn -0.01587105 -0.999874 -0.000345267
vn -0.01587105 -0.999874 -0.000345267
vn -0.01587105 -0.8729059 0.4876305
vn -0.01587105 -0.8729059 0.4876305
vn -0.01587105 -0.4920015 0.8704497
vn -0.01587105 -0.4920015 0.8704497
vn -0.01587105 0.01587105 0.9997481
vn -0.01587105 0.01587105 0.9997481
vn -0.01587105 0.4920015 0.8704497
vn -0.01587105 0.4920015 0.8704497
vn -0.01587105 0.8729059 0.4876305
vn -0.01587105 0.8729059 0.4876305
vn -0.01587105 0.999874 -0.000345267
vn -0.01587105 0.999874 -0.000345267
vn 0.999874 0.01587105 -0.0003439156
vn 0.999874 0.01587105 -0.0003439156
vn 0.999874 0.01587105 -0.0003439156
vn 0.999874 0.01587105 -0.0003439156
vn 0.999874 0.01587105 -0.0003439156
vn 0.999874 0.01587105 -0.0003439156
vn 0.999874 0.01587105 -0.0003439156
vn 0.999874 0.01587105 -0.0003439156
vn 0.999874 0.01587105 -0.0003439156
vn 0.999874 0.01587105 -0.0003439156
vn 0.999874 0.01587105 -0.0003439156
vn 0.999874 0.01587105 -0.0003439156
vn 0.999874 0.01587105 -0.0003439156
vn -0.999874 0.01587105 -0.0003439156
vn -0.999874 0.01587105 -0.0003439156
vn -0.999874 0.01587105 -0.0003439156
vn -0.999874 0.01587105 -0.0003439156
vn -0.999874 0.01587105 -0.0003439156
vn -0.999874 0.01587105 -0.0003439156
vn -0.999874 0.01587105 -0.0003439156
vn -0.999874 0.01587105 -0.0003439156
vn -0.999874 0.01587105 -0.0003439156
vn -0.999874 0.01587105 -0.0003439156
vn -0.999874 0.01587105 -0.0003439156
vn -0.999874 0.01587105 -0.0003439156
f 3/3/3 2/2/2 1/1/1
f 4/4/4 3/3/3 1/1/1
f 3/3/3 5/5/5 2/2/2
f 5/5/5 6/6/6 2/2/2
f 5/5/5 7/7/7 6/6/6
f 7/7/7 8/8/8 6/6/6
f 7/7/7 9/9/9 8/8/8
f 9/9/9 10/10/10 8/8/8
f 9/9/9 11/11/11 10/10/10
f 11/11/11 12/12/12 10/10/10
f 11/11/11 13/13/13 12/12/12
f 13/13/13 14/14/14 12/12/12
f 13/13/13 15/15/15 14/14/14
f 15/15/15 16/16/16 14/14/14
f 15/15/15 17/17/17 16/16/16
f 17/17/17 18/18/18 16/16/16
f 17/17/17 19/19/19 18/18/18
f 19/19/19 20/20/20 18/18/18
f 19/19/19 21/21/21 20/20/20
f 21/21/21 22/22/22 20/20/20
f 21/21/21 23/23/23 22/22/22
f 23/23/23 24/24/24 22/22/22
f 23/23/23 4/4/4 24/24/24
f 4/4/4 1/1/1 24/24/24
f 27/27/27 26/26/26 25/25/25
f 27/27/27 28/28/28 26/26/26
f 27/27/27 29/29/29 28/28/28
f 27/27/27 30/30/30 29/29/29
f 27/27/27 31/31/31 30/30/30
f 27/27/27 32/32/32 31/31/31
f 27/27/27 33/33/33 32/32/32
f 27/27/27 34/34/34 33/33/33
f 27/27/27 35/35/35 34/34/34
f 27/27/27 36/36/36 35/35/35
f 27/27/27 37/37/37 36/36/36
f 27/27/27 25/25/25 37/37/37
f 40/40/40 39/39/39 38/38/38
f 41/41/41 39/39/39 40/40/40
f 42/42/42 39/39/39 41/41/41
f 43/43/43 39/39/39 42/42/42
f 44/44/44 39/39/39 43/43/43
f 45/45/45 39/39/39 44/44/44
f 46/46/46 39/39/39 45/45/45
f 47/47/47 39/39/39 46/46/46
f 48/48/48 39/39/39 47/47/47
f 49/49/49 39/39/39 48/48/48
