g memorial_mesh
v -0.7873552 0.3910446 0.7873552
v -0.7873552 0.7190259 0.7873552
v 0.7842216 0.7190259 0.7873552
v 0.7842216 0.3910446 0.7873552
v -0.07672906 4.647968 0.07672906
v -0.07672906 4.647968 -0.07359576
v 0.07359576 4.647968 -0.07359576
v 0.07359576 4.647968 0.07672906
v -0.7873552 0.7190259 -0.7842216
v -0.7873552 0.3910446 -0.7842216
v 0.7842216 0.3910446 -0.7842216
v 0.7842216 0.7190259 -0.7842216
v -0.7873552 0.3910446 -0.7842216
v -0.7873552 0.3910446 0.7873552
v 0.7842216 0.3910446 0.7873552
v 0.7842216 0.3910446 -0.7842216
v 0.7842216 0.3910446 0.7873552
v 0.7842216 0.7190259 0.7873552
v 0.7842216 0.7190259 -0.7842216
v 0.7842216 0.3910446 -0.7842216
v -0.7873552 0.3910446 -0.7842216
v -0.7873552 0.7190259 -0.7842216
v -0.7873552 0.7190259 0.7873552
v -0.7873552 0.3910446 0.7873552
v -0.7873552 0.7190259 0.7873552
v -0.568701 0.7190259 0.568701
v 0.5655675 0.7190259 0.568701
v 0.7842216 0.7190259 0.7873552
v 0.5655675 0.7190259 -0.5655675
v 0.7842216 0.7190259 -0.7842216
v -0.568701 0.7190259 -0.5655675
v -0.7873552 0.7190259 -0.7842216
v -0.568701 0.7190259 0.568701
v -0.336381 4.14233 0.336381
v 0.3332474 4.14233 0.336381
v 0.5655675 0.7190259 0.568701
v 0.5655675 0.7190259 0.568701
v 0.3332474 4.14233 0.336381
v 0.3332474 4.14233 -0.3332474
v 0.5655675 0.7190259 -0.5655675
v 0.5655675 0.7190259 -0.5655675
v 0.3332474 4.14233 -0.3332474
v -0.336381 4.14233 -0.3332474
v -0.568701 0.7190259 -0.5655675
v -0.568701 0.7190259 -0.5655675
v -0.336381 4.14233 -0.3332474
v -0.336381 4.14233 0.336381
v -0.568701 0.7190259 0.568701
v -0.336381 4.14233 0.336381
v -0.07672906 4.647968 0.07672906
v 0.07359576 4.647968 0.07672906
v 0.3332474 4.14233 0.336381
v 0.3332474 4.14233 0.336381
v 0.07359576 4.647968 0.07672906
v 0.07359576 4.647968 -0.07359576
v 0.3332474 4.14233 -0.3332474
v 0.3332474 4.14233 -0.3332474
v 0.07359576 4.647968 -0.07359576
v -0.07672906 4.647968 -0.07359576
v -0.336381 4.14233 -0.3332474
v -0.336381 4.14233 -0.3332474
v -0.07672906 4.647968 -0.07359576
v -0.07672906 4.647968 0.07672906
v -0.336381 4.14233 0.336381
v -0.4115434 1.593642 -0.4630733
v -0.4115434 1.593642 -0.6133981
v 0.4152427 1.593642 -0.6133981
v 0.4152427 1.593642 -0.4630733
v -0.336381 1.463817 -0.6133981
v -0.336381 1.422819 -0.6133981
v 0.3332474 1.422819 -0.6133981
v 0.3332474 1.463817 -0.6133981
v -0.4115434 1.047007 -0.6133981
v -0.4115434 1.047007 -0.4630733
v 0.4152427 1.047007 -0.4630733
v 0.4152427 1.047007 -0.6133981
v 0.4152427 1.593642 -0.4630733
v 0.4152427 1.593642 -0.6133981
v 0.4152427 1.484315 -0.6133981
v 0.4152427 1.484315 -0.4630733
v 0.4152427 1.374989 -0.6133981
v 0.4152427 1.374989 -0.4630733
v 0.4152427 1.265661 -0.6133981
v 0.4152427 1.265661 -0.4630733
v 0.4152427 1.156334 -0.6133981
v 0.4152427 1.156334 -0.4630733
v 0.4152427 1.047007 -0.6133981
v 0.4152427 1.047007 -0.4630733
v -0.4115434 1.484315 -0.4630733
v -0.4115434 1.484315 -0.6133981
v -0.4115434 1.593642 -0.6133981
v -0.4115434 1.593642 -0.4630733
v -0.4115434 1.374989 -0.4630733
v -0.4115434 1.374989 -0.6133981
v -0.4115434 1.265661 -0.4630733
v -0.4115434 1.265661 -0.6133981
v -0.4115434 1.156334 -0.4630733
v -0.4115434 1.156334 -0.6133981
v -0.4115434 1.047007 -0.4630733
v -0.4115434 1.047007 -0.6133981
v -0.4115434 1.593642 -0.6133981
v -0.336381 1.463817 -0.6133981
v 0.3332474 1.463817 -0.6133981
v 0.4152427 1.593642 -0.6133981
v 0.3332474 1.422819 -0.6133981
v 0.4152427 1.484315 -0.6133981
v -0.4115434 1.484315 -0.6133981
v -0.336381 1.422819 -0.6133981
v 0.4152427 1.374989 -0.6133981
v 0.3332474 1.340823 -0.6133981
v 0.4152427 1.265661 -0.6133981
v 0.3332474 1.292993 -0.6133981
v 0.4152427 1.156334 -0.6133981
v 0.3332474 1.210998 -0.6133981
v 0.4152427 1.047007 -0.6133981
v 0.3332474 1.176833 -0.6133981
v -0.336381 1.176833 -0.6133981
v -0.4115434 1.047007 -0.6133981
v -0.336381 1.210998 -0.6133981
v -0.4115434 1.156334 -0.6133981
v -0.336381 1.292993 -0.6133981
v -0.4115434 1.265661 -0.6133981
v -0.336381 1.340823 -0.6133981
v -0.4115434 1.374989 -0.6133981
v -0.336381 1.210998 -0.6133981
v -0.336381 1.176833 -0.6133981
v 0.3332474 1.176833 -0.6133981
v 0.3332474 1.210998 -0.6133981
v -0.336381 1.340823 -0.6133981
v -0.336381 1.292993 -0.6133981
v 0.3332474 1.292993 -0.6133981
v 0.3332474 1.340823 -0.6133981
v -2.345266 0.001566887 2.345266
v -2.345266 0.1655574 2.345266
v 2.342133 0.1655574 2.345266
v 2.342133 0.001566887 2.345266
v -2.345266 0.1655574 2.345266
v -2.345266 0.1655574 -2.342133
v 2.342133 0.1655574 -2.342133
v 2.342133 0.1655574 2.345266
v -2.345266 0.1655574 -2.342133
v -2.345266 0.001566887 -2.342133
v 2.342133 0.001566887 -2.342133
v 2.342133 0.1655574 -2.342133
v 2.342133 0.001566887 2.345266
v 2.342133 0.1655574 2.345266
v 2.342133 0.1655574 -2.342133
v 2.342133 0.001566887 -2.342133
v -2.345266 0.001566887 -2.342133
v -2.345266 0.1655574 -2.342133
v -2.345266 0.1655574 2.345266
v -2.345266 0.001566887 2.345266
v -1.81913 0.0152328 1.81913
v -1.81913 0.3432138 1.81913
v 1.815996 0.3432138 1.81913
v 1.815996 0.0152328 1.81913
v -1.81913 0.3432138 1.81913
v -1.81913 0.3432138 -1.815996
v 1.815996 0.3432138 -1.815996
v 1.815996 0.3432138 1.81913
v -1.81913 0.3432138 -1.815996
v -1.81913 0.0152328 -1.815996
v 1.815996 0.0152328 -1.815996
v 1.815996 0.3432138 -1.815996
v 1.815996 0.0152328 1.81913
v 1.815996 0.3432138 1.81913
v 1.815996 0.3432138 -1.815996
v 1.815996 0.0152328 -1.815996
v -1.81913 0.0152328 -1.815996
v -1.81913 0.3432138 -1.815996
v -1.81913 0.3432138 1.81913
v -1.81913 0.0152328 1.81913
v -1.299826 0.1928892 1.299826
v -1.299826 0.5208704 1.299826
v 1.303525 0.5208704 1.299826
v 1.303525 0.1928892 1.299826
v -1.299826 0.5208704 1.299826
v -1.299826 0.5208704 -1.303525
v 1.303525 0.5208704 -1.303525
v 1.303525 0.5208704 1.299826
v -1.299826 0.5208704 -1.303525
v -1.299826 0.1928892 -1.303525
v 1.303525 0.1928892 -1.303525
v 1.303525 0.5208704 -1.303525
v 1.303525 0.1928892 1.299826
v 1.303525 0.5208704 1.299826
v 1.303525 0.5208704 -1.303525
v 1.303525 0.1928892 -1.303525
v -1.299826 0.1928892 -1.303525
v -1.299826 0.5208704 -1.303525
v -1.299826 0.5208704 1.299826
v -1.299826 0.1928892 1.299826
vt 0.4415587 0.1634655
vt 0.4475392 0.1634655
vt 0.4475392 0.1544947
vt 0.4415587 0.1544947
vt 0.5492076 0.133563
vt 0.5492076 0.1425337
vt 0.5581784 0.1425337
vt 0.5581784 0.133563
vt 0.3996952 0.1634655
vt 0.4056757 0.1634655
vt 0.4056757 0.1544947
vt 0.3996952 0.1544947
vt 0.6688176 0.001992039
vt 0.6688176 0.09768002
vt 0.7645056 0.09768002
vt 0.7645056 0.001992039
vt 0.4176367 0.301017
vt 0.4445489 0.301017
vt 0.4445489 0.2711145
vt 0.4176367 0.2711145
vt 0.4475392 0.301017
vt 0.4744514 0.301017
vt 0.4744514 0.2711145
vt 0.4475392 0.2711145
vt 0.5222954 0.1126313
vt 0.5342564 0.1275825
vt 0.6030321 0.1275825
vt 0.6149931 0.1126313
vt 0.6030321 0.1963582
vt 0.6149931 0.2083192
vt 0.5342564 0.1963582
vt 0.5222954 0.2083192
vt 0.5611686 0.2681242
vt 0.5641589 0.3219487
vt 0.5641589 0.3219487
vt 0.5671492 0.2681242
vt 0.4325879 0.2561632
vt 0.4325879 0.301017
vt 0.4355782 0.301017
vt 0.4355782 0.2561632
vt 0.4565099 0.193368
vt 0.4535197 0.1425337
vt 0.4415587 0.1425337
vt 0.4385684 0.193368
vt 0.4415587 0.2561632
vt 0.4415587 0.301017
vt 0.4445489 0.301017
vt 0.4445489 0.2561632
vt 0.5761199 0.157485
vt 0.5821004 0.21729
vt 0.5880809 0.21729
vt 0.5940614 0.157485
vt 0.4385684 0.181407
vt 0.4415587 0.205329
vt 0.4445489 0.205329
vt 0.4475392 0.181407
vt 0.5551881 0.2202802
vt 0.5492076 0.1604753
vt 0.5462174 0.1604753
vt 0.5372466 0.2202802
vt 0.4684709 0.181407
vt 0.4714612 0.205329
vt 0.4744514 0.205329
vt 0.4774417 0.181407
vt 0.5821004 0.2830755
vt 0.5821004 0.2711145
vt 0.5701394 0.2711145
vt 0.5701394 0.2830755
vt 0.05581652 0.1843972
vt 0.05581652 0.181407
vt 0.04385553 0.181407
vt 0.04385553 0.1843972
vt 0.169446 0.1724362
vt 0.169446 0.1634655
vt 0.157485 0.1634655
vt 0.157485 0.1724362
vt 0.1903777 0.1634655
vt 0.1903777 0.1515045
vt 0.1873875 0.1515045
vt 0.1873875 0.1634655
vt 0.1843972 0.1515045
vt 0.1843972 0.1634655
vt 0.1843972 0.1515045
vt 0.1843972 0.1634655
vt 0.181407 0.1515045
vt 0.181407 0.1634655
vt 0.1784167 0.1515045
vt 0.1784167 0.1634655
vt 0.169446 0.1634655
vt 0.169446 0.1515045
vt 0.1664557 0.1515045
vt 0.1664557 0.1634655
vt 0.1724362 0.1634655
vt 0.1724362 0.1515045
vt 0.1754265 0.1634655
vt 0.1754265 0.1515045
vt 0.1754265 0.1634655
vt 0.1754265 0.1515045
vt 0.1784167 0.1634655
vt 0.1784167 0.1515045
vt 0.2980267 0.1843972
vt 0.2980267 0.1843972
vt 0.2860657 0.1843972
vt 0.2860657 0.1843972
vt 0.2860657 0.181407
vt 0.2860657 0.181407
vt 0.2980267 0.181407
vt 0.2980267 0.181407
vt 0.2860657 0.181407
vt 0.2860657 0.181407
vt 0.2860657 0.1784167
vt 0.2860657 0.1784167
vt 0.2860657 0.1754265
vt 0.2860657 0.1754265
vt 0.2860657 0.1724362
vt 0.2860657 0.1724362
vt 0.2980267 0.1724362
vt 0.2980267 0.1724362
vt 0.2980267 0.1754265
vt 0.2980267 0.1754265
vt 0.2980267 0.1784167
vt 0.2980267 0.1784167
vt 0.2980267 0.181407
vt 0.2980267 0.181407
vt 0.05581652 0.1754265
vt 0.05581652 0.1724362
vt 0.04385553 0.1724362
vt 0.04385553 0.1754265
vt 0.05581652 0.1784167
vt 0.05581652 0.1754265
vt 0.04385553 0.1754265
vt 0.04385553 0.1784167
vt 0.3996952 0.1305728
vt 0.3996952 0.1515045
vt 0.4206269 0.1515045
vt 0.4206269 0.1305728
vt 0.5402369 0.1425337
vt 0.5402369 0.1963582
vt 0.5940614 0.1963582
vt 0.5940614 0.1425337
vt 0.4355782 0.1515045
vt 0.4355782 0.1724362
vt 0.4565099 0.1724362
vt 0.4565099 0.1515045
vt 0.2741047 0.1843972
vt 0.2741047 0.2023387
vt 0.2950365 0.2023387
vt 0.2950365 0.1843972
vt 0.2950365 0.1843972
vt 0.2950365 0.2023387
vt 0.312978 0.2023387
vt 0.312978 0.1843972
vt 0.3996952 0.1305728
vt 0.3996952 0.1515045
vt 0.4206269 0.1515045
vt 0.4206269 0.1305728
vt 0.5402369 0.1425337
vt 0.5402369 0.1963582
vt 0.5940614 0.1963582
vt 0.5940614 0.1425337
vt 0.4355782 0.1515045
vt 0.4355782 0.1724362
vt 0.4565099 0.1724362
vt 0.4565099 0.1515045
vt 0.2741047 0.1843972
vt 0.2741047 0.2023387
vt 0.2950365 0.2023387
vt 0.2950365 0.1843972
vt 0.2950365 0.1843972
vt 0.2950365 0.2023387
vt 0.312978 0.2023387
vt 0.312978 0.1843972
vt 0.3996952 0.1305728
vt 0.3996952 0.1515045
vt 0.4206269 0.1515045
vt 0.4206269 0.1305728
vt 0.5402369 0.1425337
vt 0.5402369 0.1963582
vt 0.5940614 0.1963582
vt 0.5940614 0.1425337
vt 0.4355782 0.1515045
vt 0.4355782 0.1724362
vt 0.4565099 0.1724362
vt 0.4565099 0.1515045
vt 0.2741047 0.1843972
vt 0.2741047 0.2023387
vt 0.2950365 0.2023387
vt 0.2950365 0.1843972
vt 0.2950365 0.1843972
vt 0.2950365 0.2023387
vt 0.312978 0.2023387
vt 0.312978 0.1843972
vn -0.01587105 0.01587105 0.9997481
vn -0.01587105 0.01587105 0.9997481
vn -0.01587105 0.01587105 0.9997481
vn -0.01587105 0.01587105 0.9997481
vn -0.01587105 0.999874 -0.000345267
vn -0.01587105 0.999874 -0.000345267
vn -0.01587105 0.999874 -0.000345267
vn -0.01587105 0.999874 -0.000345267
vn -0.01587105 0.01587105 -0.9997481
vn -0.01587105 0.01587105 -0.9997481
vn -0.01587105 0.01587105 -0.9997481
vn -0.01587105 0.01587105 -0.9997481
vn -0.01587105 -0.999874 -0.000345267
vn -0.01587105 -0.999874 -0.000345267
vn -0.01587105 -0.999874 -0.000345267
vn -0.01587105 -0.999874 -0.000345267
vn 0.999874 0.01587105 -0.0003439156
vn 0.999874 0.01587105 -0.0003439156
vn 0.999874 0.01587105 -0.0003439156
vn 0.999874 0.01587105 -0.0003439156
vn -0.999874 0.01587105 -0.0003439156
vn -0.999874 0.01587105 -0.0003439156
vn -0.999874 0.01587105 -0.0003439156
vn -0.999874 0.01587105 -0.0003439156
vn -0.01587105 0.999874 -0.000345267
vn -0.01587105 0.999874 -0.000345267
vn -0.01587105 0.999874 -0.000345267
vn -0.01587105 0.999874 -0.000345267
vn -0.01587105 0.999874 -0.000345267
vn -0.01587105 0.999874 -0.000345267
vn -0.01587105 0.999874 -0.000345267
vn -0.01587105 0.999874 -0.000345267
vn -0.01587105 0.07935512 0.9967201
vn -0.01587105 0.07935512 0.9967201
vn -0.01587105 0.07935512 0.9967201
vn -0.01587105 0.07935512 0.9967201
vn 0.999874 0.07935512 NaN
vn 0.999874 0.07935512 NaN
vn 0.999874 0.07935512 NaN
vn 0.999874 0.07935512 NaN
vn -0.01587105 0.07935512 -0.9967201
vn -0.01587105 0.07935512 -0.9967201
vn -0.01587105 0.07935512 -0.9967201
vn -0.01587105 0.07935512 -0.9967201
vn -0.999874 0.07935512 NaN
vn -0.999874 0.07935512 NaN
vn -0.999874 0.07935512 NaN
vn -0.999874 0.07935512 NaN
vn -0.01587105 0.4602594 0.8876426
vn -0.01587105 0.4602594 0.8876426
vn -0.01587105 0.4602594 0.8876426
vn -0.01587105 0.4602594 0.8876426
vn 0.8729059 0.4602594 -0.1618537
vn 0.8729059 0.4602594 -0.1618537
vn 0.8729059 0.4602594 -0.1618537
vn 0.8729059 0.4602594 -0.1618537
vn -0.01587105 0.4602594 -0.8876426
vn -0.01587105 0.4602594 -0.8876426
vn -0.01587105 0.4602594 -0.8876426
vn -0.01587105 0.4602594 -0.8876426
vn -0.8729059 0.4602594 -0.1618537
vn -0.8729059 0.4602594 -0.1618537
vn -0.8729059 0.4602594 -0.1618537
vn -0.8729059 0.4602594 -0.1618537
vn -0.01587105 0.999874 -0.000345267
vn -0.01587105 0.999874 -0.000345267
vn -0.01587105 0.999874 -0.000345267
vn -0.01587105 0.999874 -0.000345267
vn -0.01587105 0.01587105 -0.9997481
vn -0.01587105 0.01587105 -0.9997481
vn -0.01587105 0.01587105 -0.9997481
vn -0.01587105 0.01587105 -0.9997481
vn -0.01587105 -0.999874 -0.000345267
vn -0.01587105 -0.999874 -0.000345267
vn -0.01587105 -0.999874 -0.000345267
vn -0.01587105 -0.999874 -0.000345267
vn 0.999874 0.01587105 -0.0003439156
vn 0.999874 0.01587105 -0.0003439156
vn 0.999874 0.01587105 -0.0003439156
vn 0.999874 0.01587105 -0.0003439156
vn 0.999874 0.01587105 -0.0003439156
vn 0.999874 0.01587105 -0.0003439156
vn 0.999874 0.01587105 -0.0003439156
vn 0.999874 0.01587105 -0.0003439156
vn 0.999874 0.01587105 -0.0003439156
vn 0.999874 0.01587105 -0.0003439156
vn 0.999874 0.01587105 -0.0003439156
vn 0.999874 0.01587105 -0.0003439156
vn -0.999874 0.01587105 -0.0003439156
vn -0.999874 0.01587105 -0.0003439156
vn -0.999874 0.01587105 -0.0003439156
vn -0.999874 0.01587105 -0.0003439156
vn -0.999874 0.01587105 -0.0003439156
vn -0.999874 0.01587105 -0.0003439156
vn -0.999874 0.01587105 -0.0003439156
vn -0.999874 0.01587105 -0.0003439156
vn -0.999874 0.01587105 -0.0003439156
vn -0.999874 0.01587105 -0.0003439156
vn -0.999874 0.01587105 -0.0003439156
vn -0.999874 0.01587105 -0.0003439156
vn -0.01587105 0.01587105 -0.9997481
vn -0.01587105 0.01587105 -0.9997481
vn -0.01587105 0.01587105 -0.9997481
vn -0.01587105 0.01587105 -0.9997481
vn -0.01587105 0.01587105 -0.9997481
vn -0.01587105 0.01587105 -0.9997481
vn -0.01587105 0.01587105 -0.9997481
vn -0.01587105 0.01587105 -0.9997481
vn -0.01587105 0.01587105 -0.9997481
vn -0.01587105 0.01587105 -0.9997481
vn -0.01587105 0.01587105 -0.9997481
vn -0.01587105 0.01587105 -0.9997481
vn -0.01587105 0.01587105 -0.9997481
vn -0.01587105 0.01587105 -0.9997481
vn -0.01587105 0.01587105 -0.9997481
vn -0.01587105 0.01587105 -0.9997481
vn -0.01587105 0.01587105 -0.9997481
vn -0.01587105 0.01587105 -0.9997481
vn -0.01587105 0.01587105 -0.9997481
vn -0.01587105 0.01587105 -0.9997481
vn -0.01587105 0.01587105 -0.9997481
vn -0.01587105 0.01587105 -0.9997481
vn -0.01587105 0.01587105 -0.9997481
vn -0.01587105 0.01587105 -0.9997481
vn -0.01587105 0.01587105 -0.9997481
vn -0.01587105 0.01587105 -0.9997481
vn -0.01587105 0.01587105 -0.9997481
vn -0.01587105 0.01587105 -0.9997481
vn -0.01587105 0.01587105 -0.9997481
vn -0.01587105 0.01587105 -0.9997481
vn -0.01587105 0.01587105 -0.9997481
vn -0.01587105 0.01587105 -0.9997481
vn -0.01587105 0.01587105 0.9997481
vn -0.01587105 0.01587105 0.9997481
vn -0.01587105 0.01587105 0.9997481
vn -0.01587105 0.01587105 0.9997481
vn -0.01587105 0.999874 -0.000345267
vn -0.01587105 0.999874 -0.000345267
vn -0.01587105 0.999874 -0.000345267
vn -0.01587105 0.999874 -0.000345267
vn -0.01587105 0.01587105 -0.9997481
vn -0.01587105 0.01587105 -0.9997481
vn -0.01587105 0.01587105 -0.9997481
vn -0.01587105 0.01587105 -0.9997481
vn 0.999874 0.01587105 -0.0003439156
vn 0.999874 0.01587105 -0.0003439156
vn 0.999874 0.01587105 -0.0003439156
vn 0.999874 0.01587105 -0.0003439156
vn -0.999874 0.01587105 -0.0003439156
vn -0.999874 0.01587105 -0.0003439156
vn -0.999874 0.01587105 -0.0003439156
vn -0.999874 0.01587105 -0.0003439156
vn -0.01587105 0.01587105 0.9997481
vn -0.01587105 0.01587105 0.9997481
vn -0.01587105 0.01587105 0.9997481
vn -0.01587105 0.01587105 0.9997481
vn -0.01587105 0.999874 -0.000345267
vn -0.01587105 0.999874 -0.000345267
vn -0.01587105 0.999874 -0.000345267
vn -0.01587105 0.999874 -0.000345267
vn -0.01587105 0.01587105 -0.9997481
vn -0.01587105 0.01587105 -0.9997481
vn -0.01587105 0.01587105 -0.9997481
vn -0.01587105 0.01587105 -0.9997481
vn 0.999874 0.01587105 -0.0003439156
vn 0.999874 0.01587105 -0.0003439156
vn 0.999874 0.01587105 -0.0003439156
vn 0.999874 0.01587105 -0.0003439156
vn -0.999874 0.01587105 -0.0003439156
vn -0.999874 0.01587105 -0.0003439156
vn -0.999874 0.01587105 -0.0003439156
vn -0.999874 0.01587105 -0.0003439156
vn -0.01587105 0.01587105 0.9997481
vn -0.01587105 0.01587105 0.9997481
vn -0.01587105 0.01587105 0.9997481
vn -0.01587105 0.01587105 0.9997481
vn -0.01587105 0.999874 -0.000345267
vn -0.01587105 0.999874 -0.000345267
vn -0.01587105 0.999874 -0.000345267
vn -0.01587105 0.999874 -0.000345267
vn -0.01587105 0.01587105 -0.9997481
vn -0.01587105 0.01587105 -0.9997481
vn -0.01587105 0.01587105 -0.9997481
vn -0.01587105 0.01587105 -0.9997481
vn 0.999874 0.01587105 -0.0003439156
vn 0.999874 0.01587105 -0.0003439156
vn 0.999874 0.01587105 -0.0003439156
vn 0.999874 0.01587105 -0.0003439156
vn -0.999874 0.01587105 -0.0003439156
vn -0.999874 0.01587105 -0.0003439156
vn -0.999874 0.01587105 -0.0003439156
vn -0.999874 0.01587105 -0.0003439156
f 3/3/3 2/2/2 1/1/1
f 4/4/4 3/3/3 1/1/1
f 7/7/7 6/6/6 5/5/5
f 8/8/8 7/7/7 5/5/5
f 11/11/11 10/10/10 9/9/9
f 12/12/12 11/11/11 9/9/9
f 15/15/15 14/14/14 13/13/13
f 16/16/16 15/15/15 13/13/13
f 19/19/19 18/18/18 17/17/17
f 20/20/20 19/19/19 17/17/17
f 23/23/23 22/22/22 21/21/21
f 24/24/24 23/23/23 21/21/21
f 27/27/27 26/26/26 25/25/25
f 28/28/28 27/27/27 25/25/25
f 29/29/29 27/27/27 28/28/28
f 30/30/30 29/29/29 28/28/28
f 31/31/31 29/29/29 30/30/30
f 32/32/32 31/31/31 30/30/30
f 26/26/26 31/31/31 32/32/32
f 25/25/25 26/26/26 32/32/32
f 35/35/35 34/34/34 33/33/33
f 36/36/36 35/35/35 33/33/33
f 39/39/39 38/38/38 37/37/37
f 40/40/40 39/39/39 37/37/37
f 43/43/43 42/42/42 41/41/41
f 44/44/44 43/43/43 41/41/41
f 47/47/47 46/46/46 45/45/45
f 48/48/48 47/47/47 45/45/45
f 51/51/51 50/50/50 49/49/49
f 52/52/52 51/51/51 49/49/49
f 55/55/55 54/54/54 53/53/53
f 56/56/56 55/55/55 53/53/53
f 59/59/59 58/58/58 57/57/57
f 60/60/60 59/59/59 57/57/57
f 63/63/63 62/62/62 61/61/61
f 64/64/64 63/63/63 61/61/61
f 67/67/67 66/66/66 65/65/65
f 68/68/68 67/67/67 65/65/65
f 71/71/71 70/70/70 69/69/69
f 72/72/72 71/71/71 69/69/69
f 75/75/75 74/74/74 73/73/73
f 76/76/76 75/75/75 73/73/73
f 79/79/79 78/78/78 77/77/77
f 80/80/80 79/79/79 77/77/77
f 81/81/81 79/79/79 80/80/80
f 82/82/82 81/81/81 80/80/80
f 83/83/83 81/81/81 82/82/82
f 84/84/84 83/83/83 82/82/82
f 85/85/85 83/83/83 84/84/84
f 86/86/86 85/85/85 84/84/84
f 87/87/87 85/85/85 86/86/86
f 88/88/88 87/87/87 86/86/86
f 91/91/91 90/90/90 89/89/89
f 92/92/92 91/91/91 89/89/89
f 89/89/89 90/90/90 93/93/93
f 90/90/90 94/94/94 93/93/93
f 93/93/93 94/94/94 95/95/95
f 94/94/94 96/96/96 95/95/95
f 95/95/95 96/96/96 97/97/97
f 96/96/96 98/98/98 97/97/97
f 97/97/97 98/98/98 99/99/99
f 98/98/98 100/100/100 99/99/99
f 103/103/103 102/102/102 101/101/101
f 104/104/104 103/103/103 101/101/101
f 105/105/105 103/103/103 104/104/104
f 106/106/106 105/105/105 104/104/104
f 101/101/101 102/102/102 107/107/107
f 102/102/102 108/108/108 107/107/107
f 106/106/106 109/109/109 105/105/105
f 109/109/109 110/110/110 105/105/105
f 105/105/105 110/110/110 108/108/108
f 109/109/109 111/111/111 110/110/110
f 111/111/111 112/112/112 110/110/110
f 111/111/111 113/113/113 112/112/112
f 113/113/113 114/114/114 112/112/112
f 113/113/113 115/115/115 114/114/114
f 115/115/115 116/116/116 114/114/114
f 117/117/117 116/116/116 115/115/115
f 118/118/118 117/117/117 115/115/115
f 119/119/119 117/117/117 118/118/118
f 120/120/120 119/119/119 118/118/118
f 114/114/114 119/119/119 121/121/121
f 112/112/112 114/114/114 121/121/121
f 121/121/121 119/119/119 120/120/120
f 122/122/122 121/121/121 120/120/120
f 123/123/123 121/121/121 122/122/122
f 110/110/110 123/123/123 108/108/108
f 124/124/124 123/123/123 122/122/122
f 108/108/108 123/123/123 124/124/124
f 107/107/107 108/108/108 124/124/124
f 127/127/127 126/126/126 125/125/125
f 128/128/128 127/127/127 125/125/125
f 131/131/131 130/130/130 129/129/129
f 132/132/132 131/131/131 129/129/129
f 135/135/135 134/134/134 133/133/133
f 136/136/136 135/135/135 133/133/133
f 139/139/139 138/138/138 137/137/137
f 140/140/140 139/139/139 137/137/137
f 143/143/143 142/142/142 141/141/141
f 144/144/144 143/143/143 141/141/141
f 147/147/147 146/146/146 145/145/145
f 148/148/148 147/147/147 145/145/145
f 151/151/151 150/150/150 149/149/149
f 152/152/152 151/151/151 149/149/149
f 155/155/155 154/154/154 153/153/153
f 156/156/156 155/155/155 153/153/153
f 159/159/159 158/158/158 157/157/157
f 160/160/160 159/159/159 157/157/157
f 163/163/163 162/162/162 161/161/161
f 164/164/164 163/163/163 161/161/161
f 167/167/167 166/166/166 165/165/165
f 168/168/168 167/167/167 165/165/165
f 171/171/171 170/170/170 169/169/169
f 172/172/172 171/171/171 169/169/169
f 175/175/175 174/174/174 173/173/173
f 176/176/176 175/175/175 173/173/173
f 179/179/179 178/178/178 177/177/177
f 180/180/180 179/179/179 177/177/177
f 183/183/183 182/182/182 181/181/181
f 184/184/184 183/183/183 181/181/181
f 187/187/187 186/186/186 185/185/185
f 188/188/188 187/187/187 185/185/185
f 191/191/191 190/190/190 189/189/189
f 192/192/192 191/191/191 189/189/189
