g mine_04
v -70.21395 16.87022 -71.76245
v 0.3604565 16.87022 -36.95896
v -27.28749 16.87022 -22.87164
v -70.21395 16.87022 -71.76248
v -49.22903 16.87022 -0.9300869
v -70.21395 16.87022 -71.76245
v -63.31635 16.87022 26.71786
v -70.21395 16.87022 68.03806
v -68.17052 16.87022 57.36584
v -69.93221 16.87022 68.03806
v 70.21395 16.87022 -71.76245
v 70.21395 16.87022 -70.96004
v 31.00844 16.87022 -41.81311
v 70.21395 16.87022 -38.92951
v 61.65643 16.87022 -36.95899
v 70.21395 16.87022 -32.59871
v -66.48023 16.87022 68.03806
v 61.65643 16.87022 -36.95896
v 56.77771 16.87022 -22.06229
v 27.70033 16.87022 -16.05811
v 31.00844 16.87022 -41.81308
v 5.239187 16.87022 -27.08539
v 0.3604641 16.87022 -36.95893
v -14.93962 16.87022 -6.174289
v -27.28749 16.87022 -22.87161
v -35.20087 16.87022 11.0661
v -49.22902 16.87022 -0.9300563
v -48.30118 16.87022 31.47812
v -63.31635 16.87022 26.71789
v -52.38263 16.87022 57.24737
v -68.17052 16.87022 57.36587
v -50.67356 16.87022 68.03806
v -66.48022 16.87022 68.03806
v 70.21395 16.87022 -15.21617
v 70.21395 16.87022 -32.59868
v 56.77771 16.87022 -22.06229
v 31.00845 16.87022 -7.234286
v 27.70033 16.87022 -16.05811
v 27.70033 16.87022 -16.05811
v 31.00845 16.87022 -7.234286
v 13.7493 -16.87022 4.247678
v 5.239187 16.87022 -27.08539
v 5.239187 16.87022 -27.08539
v 13.7493 -16.87022 4.247678
v -5.086687 -16.87022 11.75222
v -14.93962 16.87022 -6.174289
v -14.93962 16.87022 -6.174289
v -5.086687 -16.87022 11.75222
v -24.54653 -16.87022 21.83902
v -35.20087 16.87022 11.0661
v -35.20087 16.87022 11.0661
v -24.54653 -16.87022 21.83902
v -35.92773 -16.51102 34.45291
v -48.30118 16.87022 31.47812
v -48.30118 16.87022 31.47812
v -35.92773 -16.51102 34.45291
v -45.90085 -15.25924 57.36587
v -52.38263 16.87022 57.24737
v -52.38263 16.87022 57.24737
v -45.90085 -15.25924 57.36587
v -44.93124 -13.64799 68.03806
v -50.67356 16.87022 68.03806
v 56.77771 16.87022 -22.06229
v 50.971 16.87022 -4.072543
v 31.00845 16.87022 -7.234286
v 13.7493 -16.87022 4.247678
v -0.4202366 -16.87022 20.58487
v -5.086687 -16.87022 11.75222
v -13.54201 -16.87022 30.85809
v -24.54653 -16.87022 21.83902
v -24.54653 -16.87022 21.83902
v -13.54201 -16.87022 30.85809
v -21.41586 -16.69062 41.20126
v -35.92773 -16.51102 34.45291
v -35.92773 -16.51102 34.45291
v -21.41586 -16.69062 41.20126
v -24.61187 -15.25924 57.36587
v -45.90085 -15.25924 57.36587
v -45.90085 -15.25924 57.36587
v -24.61187 -15.25924 57.36587
v -23.66091 -13.73567 68.03806
v -44.93124 -13.64799 68.03806
v 63.6296 14.60291 4.25488
v 47.95564 -16.87022 37.72219
v 43.48666 -16.87022 31.62964
v 50.971 16.87022 -4.072543
v 50.971 16.87022 -4.072543
v 43.48666 -16.87022 31.62964
v 27.53248 -16.87022 28.55581
v 31.00845 16.87022 -7.234286
v 31.00845 16.87022 -7.234286
v 27.53248 -16.87022 28.55581
v 13.7493 -16.87022 4.247678
v -21.41586 -16.69062 41.20126
v -21.16882 -16.87022 61.78924
v -24.61187 -15.25924 57.36587
v -21.16882 -16.87022 61.78924
v -18.44029 -16.87022 68.03806
v -23.66091 -13.73567 68.03806
v -24.61187 -15.25924 57.36587
v 63.54395 -16.87022 63.56082
v 67.18506 -16.87022 68.03806
v 56.69064 -16.87022 68.03806
v 31.00845 -16.87022 57.36587
v 60.9301 -16.87022 46.30166
v 63.54395 -16.87022 63.56082
v 31.00845 -16.87022 57.36587
v 53.7795 -16.87022 40.24688
v 60.9301 -16.87022 46.30166
v 31.00845 -16.87022 57.36587
v 47.95564 -16.87022 37.72219
v 53.7795 -16.87022 40.24688
v 31.00845 -16.87022 57.36587
v 27.53248 -16.87022 28.55581
v 43.48666 -16.87022 31.62964
v 13.7493 -16.87022 4.247678
v 43.48666 -16.87022 31.62964
v 47.95564 -16.87022 37.72219
v 31.00845 -16.87022 57.36587
v -0.4202366 -16.87022 20.58487
v 13.7493 -16.87022 4.247678
v 31.00845 -16.87022 57.36587
v -13.54201 -16.87022 30.85809
v -0.4202366 -16.87022 20.58487
v 31.00845 -16.87022 57.36587
v -21.41586 -16.69062 41.20126
v -13.54201 -16.87022 30.85809
v 31.00845 -16.87022 57.36587
v -21.16882 -16.87022 61.78924
v -21.41586 -16.69062 41.20126
v 31.00845 -16.87022 57.36587
v 7.109789 -16.87022 68.03806
v 16.31944 -16.87022 68.03806
v 31.00845 -16.87022 57.36587
v 26.91781 -16.87022 68.03806
v 24.67539 -16.87022 68.03806
v 70.21395 15.3769 -11.6025
v 56.77771 16.87022 -22.06229
v 70.21395 16.87022 -15.21617
v 70.21395 13.55754 11.00778
v 63.6296 14.60291 4.25488
v 70.21395 14.60291 -0.8168666
v 50.971 16.87022 -4.072543
v 56.77771 16.87022 -22.06229
v 70.21395 15.3769 -11.6025
v 70.21395 14.60291 -0.8168666
v 63.6296 14.60291 4.25488
v 70.21395 -16.87022 71.76248
v 67.18506 -16.87022 68.03806
v 70.21395 -14.33914 68.03806
v 70.21395 -10.15549 61.88192
v 63.54395 -16.87022 63.56082
v 70.21395 -10.15549 61.88192
v 63.54395 -16.87022 63.56082
v 60.9301 -16.87022 46.30166
v 70.21395 -6.176468 42.74265
v 70.21395 -6.176468 42.74265
v 60.9301 -16.87022 46.30166
v 53.7795 -16.87022 40.24688
v 70.21395 2.149045 26.92529
v 47.95564 -16.87022 37.72219
v 63.6296 14.60291 4.25488
v 70.21395 13.55754 11.00778
v 70.21395 2.149045 26.92529
v 53.7795 -16.87022 40.24688
v 16.31944 -16.87022 68.03806
v 31.00845 -16.87022 57.36587
v 24.09585 -16.86525 68.03806
v 26.91781 -16.87022 68.03806
v 31.00845 -16.87022 57.36587
v 32.23377 -16.87022 68.03806
v 32.23377 -16.87022 68.03806
v 31.00845 -16.87022 57.36587
v 35.76926 -16.87022 68.03806
v 35.76926 -16.87022 68.03806
v 31.00845 -16.87022 57.36587
v 39.51463 -16.87022 68.03806
v 39.51463 -16.87022 68.03806
v 31.00845 -16.87022 57.36587
v 44.11227 -16.87022 68.03806
v -18.44029 -16.87022 68.03806
v -21.16882 -16.87022 61.78924
v 31.00845 -16.87022 57.36587
v 7.109789 -16.87022 68.03806
v 24.09585 -16.86525 68.03806
v 31.00845 -16.87022 57.36587
v 24.67539 -16.87022 68.03806
v 44.11227 -16.87022 68.03806
v 31.00845 -16.87022 57.36587
v 56.69064 -16.87022 68.03806
vt 0 1
vt 0.2493668 0.8770258
vt 0.1516759 0.8272498
vt 0 1
vt 0.07414794 0.7497218
vt 0 1
vt 0.02437192 0.6520308
vt 0 0.5060307
vt 0.007220268 0.5437397
vt 0.0009954792 0.5060306
vt 0.4961863 1
vt 0.4961863 0.9971647
vt 0.357658 0.8941774
vt 0.4961863 0.8839884
vt 0.4659492 0.8770258
vt 0.4961863 0.8616192
vt 0.01319274 0.5060306
vt 0.6873666 0.3855797
vt 0.6873666 0.3806009
vt 0.6863734 0.3806009
vt 0.6863734 0.3855797
vt 0.6853801 0.3806009
vt 0.6853801 0.3855797
vt 0.6843868 0.3806009
vt 0.6843868 0.3855797
vt 0.6833936 0.3806009
vt 0.6833936 0.3855797
vt 0.6824002 0.3806009
vt 0.6824002 0.3855797
vt 0.681407 0.3806009
vt 0.681407 0.3855797
vt 0.6809911 0.3806009
vt 0.6810611 0.3855796
vt 0.6879407 0.3806009
vt 0.687674 0.3855796
vt 0.6977044 0.3899448
vt 0.6976913 0.3899118
vt 0.6976913 0.3899778
vt 0.7236941 0.3907355
vt 0.7236941 0.3915654
vt 0.7238597 0.3915654
vt 0.7238597 0.3907355
vt 0.7238597 0.3907355
vt 0.7238597 0.3915654
vt 0.7240252 0.3915654
vt 0.7240252 0.3907355
vt 0.7240252 0.3907355
vt 0.7240252 0.3915654
vt 0.7241907 0.3915654
vt 0.7241907 0.3907355
vt 0.7241907 0.3907355
vt 0.7241907 0.3915654
vt 0.7243563 0.3915654
vt 0.7243563 0.3907355
vt 0.7243563 0.3907355
vt 0.7243563 0.3915654
vt 0.7245219 0.3915654
vt 0.7245219 0.3907355
vt 0.7245219 0.3907355
vt 0.7245219 0.3915654
vt 0.7245947 0.3915654
vt 0.7245913 0.3907355
vt 0.6899166 0.3886507
vt 0.6899166 0.3897208
vt 0.69013 0.3891858
vt 0.7374163 0.4011109
vt 0.7376298 0.4016459
vt 0.7376298 0.4005759
vt 0.7378433 0.4016459
vt 0.7378433 0.4005759
vt 0.7378433 0.4005759
vt 0.7378433 0.4016459
vt 0.7380568 0.4016459
vt 0.7380568 0.4005759
vt 0.6909839 0.3886507
vt 0.6909839 0.3897208
vt 0.6911973 0.3897208
vt 0.6911973 0.3886507
vt 0.6911973 0.3886507
vt 0.6911973 0.3897208
vt 0.6913 0.3897208
vt 0.6912912 0.3886507
vt 0.7231141 0.3960832
vt 0.7231141 0.3967213
vt 0.7232413 0.3967213
vt 0.7232413 0.3960832
vt 0.7232413 0.3960832
vt 0.7232413 0.3967213
vt 0.7233688 0.3967213
vt 0.7233688 0.3960832
vt 0.7233688 0.3960832
vt 0.7233688 0.3967213
vt 0.723496 0.3964023
vt 0.7238779 0.3964023
vt 0.7240053 0.3967213
vt 0.7240053 0.3960832
vt 0.7240053 0.3967213
vt 0.7240556 0.3967213
vt 0.7240666 0.3960832
vt 0.7240053 0.3960832
vt 0.7367768 0.4074366
vt 0.7365882 0.4074367
vt 0.7366665 0.4104469
vt 0.7372424 0.4153241
vt 0.7372424 0.4074366
vt 0.7367768 0.4074366
vt 0.7372424 0.4153241
vt 0.737708 0.4074366
vt 0.7372424 0.4074366
vt 0.7372424 0.4153241
vt 0.7381738 0.4074366
vt 0.737708 0.4074366
vt 0.7372424 0.4153241
vt 0.739105 0.4074366
vt 0.7386394 0.4074366
vt 0.7395708 0.4074366
vt 0.7386394 0.4074366
vt 0.7381738 0.4074366
vt 0.7372424 0.4153241
vt 0.7400364 0.4074366
vt 0.7395708 0.4074366
vt 0.7372424 0.4153241
vt 0.7405022 0.4074366
vt 0.7400364 0.4074366
vt 0.7372424 0.4153241
vt 0.7409679 0.4074366
vt 0.7405022 0.4074366
vt 0.7372424 0.4153241
vt 0.7414336 0.4074366
vt 0.7409679 0.4074366
vt 0.7372424 0.4153241
vt 0.7347845 0.4111611
vt 0.7358799 0.41276
vt 0.7372424 0.4153241
vt 0.7361258 0.4126224
vt 0.7361681 0.4129203
vt 0.7234194 0.3914238
vt 0.7235285 0.3911505
vt 0.7234328 0.3909107
vt 0.6896109 0.3897208
vt 0.689703 0.3897208
vt 0.689703 0.3892007
vt 0.6899166 0.3897208
vt 0.6899166 0.3886507
vt 0.6897759 0.3886507
vt 0.689703 0.3892007
vt 0.689703 0.3897208
vt 0.7226378 0.3967213
vt 0.7226807 0.3967213
vt 0.7226734 0.3966562
vt 0.7227322 0.3965484
vt 0.7227322 0.3967213
vt 0.7227322 0.3965484
vt 0.7227322 0.3967213
vt 0.7228595 0.3967213
vt 0.7228595 0.3964661
vt 0.7228595 0.3964661
vt 0.7228595 0.3967213
vt 0.7229868 0.3967213
vt 0.7229868 0.3963035
vt 0.7231141 0.3967213
vt 0.7231141 0.3960832
vt 0.7230592 0.3960832
vt 0.7229868 0.3963035
vt 0.7229868 0.3967213
vt 0.7358799 0.41276
vt 0.7372424 0.4153241
vt 0.7360699 0.4128417
vt 0.7361258 0.4126224
vt 0.7372424 0.4153241
vt 0.7365628 0.4134056
vt 0.7365628 0.4134056
vt 0.7372424 0.4153241
vt 0.7365698 0.4130455
vt 0.7365698 0.4130455
vt 0.7372424 0.4153241
vt 0.7366896 0.4129835
vt 0.7366896 0.4129835
vt 0.7372424 0.4153241
vt 0.7366829 0.4121653
vt 0.7416178 0.4074366
vt 0.7414336 0.4074366
vt 0.7372424 0.4153241
vt 0.7397003 0.4111611
vt 0.7360699 0.4128417
vt 0.7372424 0.4153241
vt 0.7361681 0.4129203
vt 0.7366829 0.4121653
vt 0.7372424 0.4153241
vt 0.7366665 0.4104469
vn 0 1 0
vn 0 1 0
vn 0 1 0
vn 0 1 0
vn 0 1 0
vn 0 1 0
vn 0 1 0
vn 0 1 0
vn 0 1 0
vn 0 1 0
vn 0 1 0
vn 0 1 0
vn 0 1 0
vn 0 1 0
vn 0 1 0
vn 0 1 0
vn 0 1 0
vn 0 1 0
vn 0 1 0
vn 0 1 0
vn 0 1 0
vn 0 1 0
vn 0 1 0
vn 0 1 0
vn 0 1 0
vn 0 1 0
vn 0 1 0
vn 0 1 0
vn 0 1 0
vn 0 1 0
vn 0 1 0
vn 0 1 0
vn 0 1 0
vn 0 1 0
vn 0 1 0
vn 0 1 0
vn 0 1 0
vn 0 1 0
vn -0.4931135 0.589135 0.6401242
vn -0.4931135 0.589135 0.6401243
vn -0.4931135 0.589135 0.6401242
vn -0.4931135 0.589135 0.6401242
vn 0.4709236 0.6001379 0.6465799
vn 0.4709236 0.6001379 0.6465799
vn 0.4709236 0.6001379 0.6465799
vn 0.4709236 0.6001378 0.6465799
vn 0.502328 0.4631884 0.7301528
vn 0.5023279 0.4631884 0.7301528
vn 0.502328 0.4631884 0.7301528
vn 0.5023279 0.4631884 0.7301528
vn 0.748396 0.3695604 0.5507528
vn 0.7483959 0.3695604 0.5507528
vn 0.748396 0.3695604 0.5507528
vn 0.748396 0.3695604 0.5507528
vn 0.9246623 0.2784024 0.2597916
vn 0.9246623 0.2784024 0.2597916
vn 0.9246623 0.2784024 0.2597916
vn 0.9246624 0.2784024 0.2597916
vn 0.974076 0.1810539 -0.1356301
vn 0.974076 0.1810538 -0.1356301
vn 0.9724734 0.1894971 -0.1355957
vn 0.9724734 0.1894971 -0.1355957
vn 0 1 0
vn 0 1 0
vn 0 1 0
vn 0 1 0
vn 0 1 0
vn 0 1 0
vn 0 1 0
vn 0 1 0
vn 0.01418531 0.9998325 -0.01156778
vn 0.0141853 0.9998325 -0.01156778
vn 0.01418531 0.9998325 -0.01156778
vn 0.0141853 0.9998325 -0.01156778
vn 0.01685075 0.9978814 -0.06283835
vn 0.01685075 0.9978814 -0.06283835
vn 0.01685075 0.9978814 -0.06283835
vn 0.01685075 0.9978814 -0.06283835
vn 0.004429374 0.9892927 -0.1458777
vn 0.004429374 0.9892927 -0.1458777
vn 0.00203836 0.9893577 -0.1454892
vn 0.00203836 0.9893577 -0.1454892
vn -0.3783953 0.7333921 0.5647594
vn -0.3783953 0.7333921 0.5647594
vn -0.3783952 0.7333921 0.5647593
vn -0.3783953 0.7333921 0.5647594
vn -0.1167018 0.731114 0.6722001
vn -0.1167018 0.731114 0.6722001
vn -0.1167018 0.731114 0.6722002
vn -0.1167018 0.731114 0.6722001
vn -0.7416958 0.5225134 0.4205557
vn -0.7416958 0.5225135 0.4205557
vn -0.7416958 0.5225134 0.4205556
vn 0.4207724 0.9071617 0.002864263
vn 0.4207724 0.9071617 0.002864263
vn 0.4207724 0.9071617 0.002864263
vn 0.497355 0.847186 -0.1868525
vn 0.5450587 0.8161154 -0.1920067
vn 0.5450587 0.8161154 -0.1920067
vn 0.497355 0.847186 -0.1868525
vn 0 1 0
vn 0 1 0
vn 0 1 0
vn 0 1 0
vn 0 1 0
vn 0 1 0
vn 0 1 0
vn 0 1 0
vn 0 1 0
vn 0 1 0
vn 0 1 0
vn 0 1 0
vn 0 1 0
vn 0 1 0
vn 0 1 0
vn 0 1 0
vn 0 1 0
vn 0 1 0
vn 0 1 0
vn 0 1 0
vn 0 1 0
vn 0 1 0
vn 0 1 0
vn 0 1 0
vn 0 1 0
vn 0.007110008 0.9999033 -0.01194941
vn 0.007110007 0.9999033 -0.01194941
vn 0.007110007 0.9999033 -0.01194941
vn 0.0007387485 0.9999617 0.00871407
vn 0.0007387485 0.9999617 0.00871407
vn 0.0007387485 0.9999617 0.008714069
vn 0 1 0
vn 0 1 0
vn 0 1 0
vn 0 1 0
vn 0 1 0
vn -0.1910135 0.9071804 0.3748836
vn -0.1910133 0.9071801 0.3748842
vn -0.1910134 0.9071804 0.3748836
vn 0.06767631 0.9938313 0.08786007
vn 0.06800904 0.9938106 0.08783647
vn 0.06767631 0.9938313 0.08786007
vn 0.09097364 0.9939249 0.06194416
vn 0.09097362 0.9939249 0.06194415
vn 0.09524482 0.9935951 0.06080374
vn 0.09524483 0.9935951 0.06080374
vn 0.09097363 0.9939249 0.06194415
vn -0.5685656 0.6803908 0.4623868
vn -0.5685658 0.680391 0.4623863
vn -0.5685658 0.680391 0.4623863
vn -0.5685659 0.680391 0.4623863
vn -0.7296406 0.6355733 0.2523315
vn -0.7120302 0.6906355 0.1266316
vn -0.6992913 0.6964265 0.1611886
vn -0.6992913 0.6964265 0.1611886
vn -0.7120302 0.6906355 0.1266316
vn -0.5344698 0.71692 0.4476247
vn -0.5906734 0.7112914 0.3810112
vn -0.5906734 0.7112913 0.3810112
vn -0.5344698 0.7169199 0.4476247
vn -0.3848176 0.7444322 0.545652
vn -0.3848176 0.7444322 0.5456521
vn -0.3778566 0.7457497 0.5487092
vn -0.3778566 0.7457497 0.5487092
vn -0.3848176 0.7444322 0.5456521
vn -0.0006382026 0.9999994 -0.0008773814
vn -0.0007024217 0.9999995 -0.0007325059
vn -0.0006382026 0.9999994 -0.0008773815
vn 0 1 0
vn 0 1 0
vn 0 1 0
vn 0 1 0
vn 0 1 0
vn 0 1 0
vn 0 1 0
vn 0 1 0
vn 0 1 0
vn 0 1 0
vn 0 1 0
vn 0 1 0
vn 0 1 0
vn 0 1 0
vn 0 1 0
vn 0 1 0
vn 0.00856299 0.9999505 0.005076918
vn 0.008565659 0.9999504 0.005084325
vn 0.00856299 0.9999505 0.005076918
vn 0 1 0
vn 0 1 0
vn 0 1 0
f 3/3/3 2/2/2 1/1/1
f 4/4/4 3/3/3 1/1/1
f 5/5/5 3/3/3 4/4/4
f 1/1/1 5/5/5 4/4/4
f 7/7/7 5/5/5 6/6/6
f 7/7/7 6/6/6 8/8/8
f 8/8/8 9/9/9 7/7/7
f 8/8/8 10/10/10 9/9/9
f 11/11/11 6/6/6 2/2/2
f 2/2/2 12/12/12 11/11/11
f 2/2/2 13/13/13 12/12/12
f 12/12/12 13/13/13 14/14/14
f 13/13/13 15/15/15 14/14/14
f 14/14/14 15/15/15 16/16/16
f 17/17/17 9/9/9 10/10/10
f 20/20/20 19/19/19 18/18/18
f 21/21/21 20/20/20 18/18/18
f 22/22/22 20/20/20 21/21/21
f 23/23/23 22/22/22 21/21/21
f 24/24/24 22/22/22 23/23/23
f 25/25/25 24/24/24 23/23/23
f 26/26/26 24/24/24 25/25/25
f 27/27/27 26/26/26 25/25/25
f 28/28/28 26/26/26 27/27/27
f 29/29/29 28/28/28 27/27/27
f 30/30/30 28/28/28 29/29/29
f 31/31/31 30/30/30 29/29/29
f 32/32/32 30/30/30 31/31/31
f 33/33/33 32/32/32 31/31/31
f 18/18/18 19/19/19 34/34/34
f 35/35/35 18/18/18 34/34/34
f 38/38/38 37/37/37 36/36/36
f 41/41/41 40/40/40 39/39/39
f 42/42/42 41/41/41 39/39/39
f 45/45/45 44/44/44 43/43/43
f 46/46/46 45/45/45 43/43/43
f 49/49/49 48/48/48 47/47/47
f 50/50/50 49/49/49 47/47/47
f 53/53/53 52/52/52 51/51/51
f 54/54/54 53/53/53 51/51/51
f 57/57/57 56/56/56 55/55/55
f 58/58/58 57/57/57 55/55/55
f 61/61/61 60/60/60 59/59/59
f 62/62/62 61/61/61 59/59/59
f 65/65/65 64/64/64 63/63/63
f 68/68/68 67/67/67 66/66/66
f 69/69/69 67/67/67 68/68/68
f 70/70/70 69/69/69 68/68/68
f 73/73/73 72/72/72 71/71/71
f 74/74/74 73/73/73 71/71/71
f 77/77/77 76/76/76 75/75/75
f 78/78/78 77/77/77 75/75/75
f 81/81/81 80/80/80 79/79/79
f 82/82/82 81/81/81 79/79/79
f 85/85/85 84/84/84 83/83/83
f 86/86/86 85/85/85 83/83/83
f 89/89/89 88/88/88 87/87/87
f 90/90/90 89/89/89 87/87/87
f 93/93/93 92/92/92 91/91/91
f 96/96/96 95/95/95 94/94/94
f 99/99/99 98/98/98 97/97/97
f 100/100/100 99/99/99 97/97/97
f 103/103/103 102/102/102 101/101/101
f 104/104/104 103/103/103 101/101/101
f 107/107/107 106/106/106 105/105/105
f 110/110/110 109/109/109 108/108/108
f 113/113/113 112/112/112 111/111/111
f 113/113/113 115/115/115 114/114/114
f 113/113/113 114/114/114 116/116/116
f 119/119/119 118/118/118 117/117/117
f 122/122/122 121/121/121 120/120/120
f 125/125/125 124/124/124 123/123/123
f 128/128/128 127/127/127 126/126/126
f 131/131/131 130/130/130 129/129/129
f 133/133/133 131/131/131 132/132/132
f 136/136/136 135/135/135 134/134/134
f 139/139/139 138/138/138 137/137/137
f 142/142/142 141/141/141 140/140/140
f 145/145/145 144/144/144 143/143/143
f 143/143/143 146/146/146 145/145/145
f 143/143/143 147/147/147 146/146/146
f 150/150/150 149/149/149 148/148/148
f 150/150/150 151/151/151 149/149/149
f 151/151/151 152/152/152 149/149/149
f 155/155/155 154/154/154 153/153/153
f 156/156/156 155/155/155 153/153/153
f 159/159/159 158/158/158 157/157/157
f 160/160/160 159/159/159 157/157/157
f 163/163/163 162/162/162 161/161/161
f 161/161/161 164/164/164 163/163/163
f 161/161/161 165/165/165 164/164/164
f 168/168/168 167/167/167 166/166/166
f 171/171/171 170/170/170 169/169/169
f 174/174/174 173/173/173 172/172/172
f 177/177/177 176/176/176 175/175/175
f 180/180/180 179/179/179 178/178/178
f 183/183/183 182/182/182 181/181/181
f 184/184/184 183/183/183 181/181/181
f 187/187/187 186/186/186 185/185/185
f 190/190/190 189/189/189 188/188/188
