g mine_01
v -70.21396 16.87022 71.60699
v -71.29329 16.87022 70.14123
v -71.2933 16.87022 15.41789
v 71.2933 16.87022 71.60699
v 71.2933 16.87022 71.60697
v -71.2933 16.87022 7.685353
v -52.20285 16.87022 -2.041713
v -30.26132 16.87022 -23.98324
v 71.2933 16.87022 71.60699
v -16.17399 16.87022 -51.63122
v 71.2933 16.87022 -69.90026
v 59.90319 16.87022 -71.60699
v -13.01014 16.87022 -71.60699
v 71.2933 16.87022 -71.60699
v -71.29328 16.87022 71.60699
v -52.20285 16.87022 -2.041682
v -61.48273 16.87022 -14.93286
v -43.03398 16.87022 -33.38162
v -30.26131 16.87022 -23.98321
v -31.18915 16.87022 -56.62841
v -16.17398 16.87022 -51.63119
v -28.81678 16.87022 -71.60699
v -13.01012 16.87022 -71.60699
v -71.29329 16.87022 -9.934123
v -71.29329 16.87022 7.685384
v -61.48273 16.87022 -14.93286
v -64.32919 1.815506 -18.73214
v -50.5125 3.636696 -37.84011
v -43.03398 16.87022 -33.38162
v -43.03398 16.87022 -33.38162
v -50.5125 3.636696 -37.84011
v -40.79338 5.573608 -59.18386
v -31.18915 16.87022 -56.62841
v -31.18915 16.87022 -56.62841
v -40.79338 5.573608 -59.18386
v -40.04579 6.828373 -71.60698
v -28.81678 16.87022 -71.60699
v -71.2933 2.068882 -36.29346
v -63.65482 3.636696 -49.07965
v -50.5125 3.636696 -37.84011
v -64.32919 1.815506 -18.73214
v -71.29329 1.815506 -31.894
v -50.5125 3.636696 -37.84011
v -63.65482 3.636696 -49.07965
v -54.05896 5.573608 -63.49411
v -40.79338 5.573608 -59.18386
v -40.79338 5.573608 -59.18386
v -54.05896 5.573608 -63.49411
v -53.75356 6.581044 -71.60699
v -40.04579 6.828373 -71.60698
v -71.29329 -7.453501 -52.62274
v -71.29329 -16.87022 -62.54018
v -68.96533 -16.87022 -65.02001
v -54.05896 5.573608 -63.49411
v -63.65482 3.636696 -49.07965
v -54.05896 5.573608 -63.49411
v -68.96533 -16.87022 -65.02001
v -71.2933 -16.87022 -67.88256
v -71.2933 -14.33914 -71.60699
v -53.75356 6.581044 -71.60699
v -68.96533 -16.87022 -65.02001
v -71.29329 -16.87022 -62.54018
v -71.29329 -16.87022 -65.9874
v -71.29329 1.274179 -15.18374
v -64.32919 1.815506 -18.73214
v -61.48273 16.87022 -14.93286
v -71.29329 16.87022 -9.934123
v -71.29329 1.815506 -31.894
v -64.32919 1.815506 -18.73214
v -71.29329 1.274179 -15.18374
v -71.29329 -7.453501 -52.62274
v -63.65482 3.636696 -49.07965
v -71.2933 2.068882 -36.29346
v -71.2933 -16.87022 -67.88256
v -68.96533 -16.87022 -65.02001
v -71.29329 -16.87022 -65.9874
vt 0.5 1.192093E-07
vt 0.4961863 0.005179181
vt 0.4961863 0.198538
vt 1 1.192093E-07
vt 1 1.788139E-07
vt 0.4961863 0.22586
vt 0.5636402 0.2602295
vt 0.6411682 0.3377575
vt 1 1.192093E-07
vt 0.6909442 0.4354485
vt 1 0.5000001
vt 0.9597543 0.5060306
vt 0.7021233 0.5060306
vt 1 0.5060306
vt 0.4961863 1.192093E-07
vt 0.6943196 0.3855797
vt 0.6943196 0.3806009
vt 0.6933263 0.3806009
vt 0.6933263 0.3855797
vt 0.692333 0.3806009
vt 0.692333 0.3855797
vt 0.6917557 0.3806009
vt 0.6916856 0.3855797
vt 0.6947387 0.3806009
vt 0.6950054 0.3855797
vt 0.7223696 0.3907355
vt 0.7223696 0.3915654
vt 0.7225351 0.3915654
vt 0.7225351 0.3907355
vt 0.7225351 0.3907355
vt 0.7225351 0.3915654
vt 0.7227006 0.3915654
vt 0.7227006 0.3907355
vt 0.7227006 0.3907355
vt 0.7227006 0.3915654
vt 0.7227897 0.3915654
vt 0.7227969 0.3907355
vt 0.688452 0.3897208
vt 0.6886357 0.3897208
vt 0.6886357 0.3886507
vt 0.6884223 0.3886507
vt 0.6884223 0.3895597
vt 0.6886357 0.3886507
vt 0.6886357 0.3897208
vt 0.6888492 0.3897208
vt 0.6888492 0.3886507
vt 0.6888492 0.3886507
vt 0.6888492 0.3897208
vt 0.6889414 0.3897208
vt 0.688964 0.3886507
vt 0.7224777 0.3964283
vt 0.7225714 0.3967214
vt 0.7226049 0.3967213
vt 0.7226049 0.3960832
vt 0.7224777 0.3960832
vt 0.7226049 0.3960832
vt 0.7226049 0.3967213
vt 0.7226378 0.3967213
vt 0.7226734 0.3966562
vt 0.7226599 0.3960832
vt 0.736311 0.4074366
vt 0.7361881 0.4074367
vt 0.7363632 0.4078787
vt 0.7223169 0.3915654
vt 0.7223696 0.3915654
vt 0.7223696 0.3907355
vt 0.7222997 0.3907355
vt 0.6884223 0.3895597
vt 0.6884223 0.3886507
vt 0.6883544 0.3886507
vt 0.7224777 0.3964283
vt 0.7224777 0.3960832
vt 0.7223679 0.3960832
vt 0.7364315 0.4074367
vt 0.736311 0.4074366
vt 0.7363632 0.4078787
vn 0 1 0
vn 0 1 0
vn 0 1 0
vn 0 1 0
vn 0 1 0
vn 0 1 0
vn 0 1 0
vn 0 1 0
vn 0 1 0
vn 0 1 0
vn 0 1 0
vn 0 1 0
vn 0 1 0
vn 0 1 0
vn 0 1 0
vn 0 1 0
vn 0 1 0
vn 0 1 0
vn 0 1 0
vn 0 1 0
vn 0 1 0
vn 0 1 0
vn 0 1 0
vn 0 1 0
vn 0 1 0
vn -0.6972369 0.4233519 -0.5784755
vn -0.6972369 0.4233519 -0.5784755
vn -0.6972369 0.4233519 -0.5784755
vn -0.6972368 0.423352 -0.5784755
vn -0.7292847 0.6012481 -0.3265646
vn -0.7292848 0.6012482 -0.3265646
vn -0.7292847 0.6012482 -0.3265646
vn -0.7292847 0.6012481 -0.3265646
vn -0.6760989 0.7356925 -0.04058111
vn -0.6760988 0.7356925 -0.04058111
vn -0.7117323 0.7007433 -0.04894989
vn -0.7117322 0.7007433 -0.0489499
vn -0.07253286 0.99567 0.05813956
vn -0.07282377 0.9956492 0.05813183
vn -0.07282376 0.9956492 0.05813183
vn -0.07282377 0.9956492 0.05813183
vn -0.07253286 0.99567 0.05813957
vn -0.04817845 0.9954819 0.08182056
vn -0.04817845 0.9954819 0.08182056
vn -0.04817845 0.9954819 0.08182056
vn -0.04817845 0.9954819 0.08182056
vn -0.01739619 0.9937975 0.1098353
vn -0.01739619 0.9937975 0.1098353
vn -0.02638964 0.9937875 0.1081203
vn -0.02638964 0.9937875 0.1081203
vn -0.6953303 0.5445986 -0.468965
vn -0.6953303 0.5445986 -0.468965
vn -0.6811845 0.5510626 -0.4819934
vn -0.6811846 0.5510626 -0.4819934
vn -0.6811845 0.5510626 -0.4819934
vn -0.7296406 0.6355733 0.2523315
vn -0.7296406 0.6355733 0.2523315
vn -0.7750537 0.5791757 0.2526802
vn -0.7750537 0.5791757 0.2526802
vn -0.7750537 0.5791757 0.2526802
vn 0 1 0
vn 0 1 0
vn 0 1 0
vn -0.4417247 0.2915121 -0.8484693
vn -0.4439706 0.2821434 -0.8504617
vn -0.4439706 0.2821434 -0.8504617
vn -0.4417247 0.2915121 -0.8484693
vn -0.06107851 0.9976096 0.03231736
vn -0.07494556 0.9968706 0.0251429
vn -0.06107851 0.9976096 0.03231737
vn -0.7142599 0.604591 -0.3525658
vn -0.725381 0.596788 -0.3430254
vn -0.7142599 0.6045909 -0.3525658
vn 0 1 0
vn 0 1 0
vn 0 1 0
f 3/3/3 2/2/2 1/1/1
f 4/4/4 3/3/3 1/1/1
f 3/3/3 4/4/4 5/5/5
f 6/6/6 3/3/3 5/5/5
f 5/5/5 7/7/7 6/6/6
f 8/8/8 7/7/7 5/5/5
f 9/9/9 8/8/8 5/5/5
f 10/10/10 8/8/8 4/4/4
f 11/11/11 10/10/10 4/4/4
f 10/10/10 11/11/11 12/12/12
f 12/12/12 13/13/13 10/10/10
f 14/14/14 12/12/12 11/11/11
f 15/15/15 1/1/1 2/2/2
f 18/18/18 17/17/17 16/16/16
f 19/19/19 18/18/18 16/16/16
f 20/20/20 18/18/18 19/19/19
f 21/21/21 20/20/20 19/19/19
f 22/22/22 20/20/20 21/21/21
f 23/23/23 22/22/22 21/21/21
f 16/16/16 17/17/17 24/24/24
f 25/25/25 16/16/16 24/24/24
f 28/28/28 27/27/27 26/26/26
f 29/29/29 28/28/28 26/26/26
f 32/32/32 31/31/31 30/30/30
f 33/33/33 32/32/32 30/30/30
f 36/36/36 35/35/35 34/34/34
f 37/37/37 36/36/36 34/34/34
f 40/40/40 39/39/39 38/38/38
f 38/38/38 41/41/41 40/40/40
f 38/38/38 42/42/42 41/41/41
f 45/45/45 44/44/44 43/43/43
f 46/46/46 45/45/45 43/43/43
f 49/49/49 48/48/48 47/47/47
f 50/50/50 49/49/49 47/47/47
f 53/53/53 52/52/52 51/51/51
f 51/51/51 54/54/54 53/53/53
f 51/51/51 55/55/55 54/54/54
f 58/58/58 57/57/57 56/56/56
f 56/56/56 59/59/59 58/58/58
f 56/56/56 60/60/60 59/59/59
f 63/63/63 62/62/62 61/61/61
f 66/66/66 65/65/65 64/64/64
f 67/67/67 66/66/66 64/64/64
f 70/70/70 69/69/69 68/68/68
f 73/73/73 72/72/72 71/71/71
f 76/76/76 75/75/75 74/74/74
