g mine_02_collider
v -22.02305 16.87022 16.3005
v -12.74316 16.87022 3.409324
v 18.1618 16.87022 17.88399
v 5.624916 16.87022 30.38781
v -12.74316 16.87022 3.409324
v -0.8434296 -8.454422 -0.3899622
v 22.02305 -5.302475 13.90772
v 18.1618 16.87022 17.88399
v -0.5357285 -9.56356 -21.88667
v -0.4000626 -16.77324 -28.67032
v 2.751534 -11.04878 -20.96122
v 11.91166 -12.34092 -30.38781
v 11.91168 -12.34092 -16.98656
v 12.87555 -14.66792 -16.98656
v 12.87555 -14.66792 -30.38781
v 7.382393 -10.46483 -30.38781
v 7.382393 -10.46483 -16.98656
v 11.91168 -12.34092 -16.98656
v 11.91166 -12.34092 -30.38781
v 2.853104 -12.34092 -30.38781
v 2.853104 -12.34092 -16.98656
v 7.382393 -10.46483 -16.98656
v 7.382393 -10.46483 -30.38781
v 11.91168 -12.34092 -16.98656
v 12.98728 -11.26532 -16.98656
v 14.39668 -14.66792 -16.98656
v 12.87555 -14.66792 -16.98656
v 7.382393 -10.46483 -16.98656
v 7.382393 -8.943703 -16.98656
v 2.853104 -12.34092 -16.98656
v 1.777481 -11.26532 -16.98656
v 0.3680954 -14.66792 -16.98656
v 1.889229 -14.66792 -16.98656
v 12.98728 -11.26532 -16.98656
v 12.98729 -11.26532 -30.38781
v 14.39668 -14.66792 -30.38781
v 14.39668 -14.66792 -16.98656
v 7.382393 -8.943703 -16.98656
v 7.382393 -8.943703 -30.38781
v 12.98729 -11.26532 -30.38781
v 12.98728 -11.26532 -16.98656
v 1.777481 -11.26532 -16.98656
v 1.777481 -11.26532 -30.38781
v 7.382393 -8.943703 -30.38781
v 7.382393 -8.943703 -16.98656
v 12.98729 -11.26532 -30.38781
v 11.91166 -12.34092 -30.38781
v 12.87555 -14.66792 -30.38781
v 14.39668 -14.66792 -30.38781
v 7.382393 -8.943703 -30.38781
v 7.382393 -10.46483 -30.38781
v 1.777481 -11.26532 -30.38781
v 2.853104 -12.34092 -30.38781
v 1.889206 -14.66792 -30.38781
v 0.3680954 -14.66792 -30.38781
v 1.889229 -14.66792 -16.98656
v 2.853104 -12.34092 -16.98656
v 2.853104 -12.34092 -30.38781
v 1.889206 -14.66792 -30.38781
v 0.3680954 -14.66792 -30.38781
v 1.777481 -11.26532 -30.38781
v 1.777481 -11.26532 -16.98656
v 0.3680954 -14.66792 -16.98656
v -0.5357285 -9.56356 -21.88667
v 3.680206 -8.454422 -18.92634
v -0.8434296 -8.454422 -0.3899622
v 2.751534 -11.04878 -20.96122
v 3.680206 -8.454422 -18.92634
v -0.5357285 -9.56356 -21.88667
v 4.893227 -10.43968 -20.59591
v 3.680206 -8.454422 -18.92634
v 2.751534 -11.04878 -20.96122
v -0.8434296 -8.454422 -0.3899622
v 3.680206 -8.454422 -18.92634
v 9.002983 -7.579504 -17.91828
v -0.8434296 -8.454422 -0.3899622
v 9.002983 -7.579504 -17.91828
v 19.68554 -6.476646 -16.64759
v 22.02305 -5.302475 13.90772
v 9.002983 -7.579504 -17.91828
v 13.52878 -10.55524 -21.44905
v 18.20389 -10.14918 -20.98347
v 19.68554 -6.476646 -16.64759
v 9.002983 -7.579504 -17.91828
v 3.680206 -8.454422 -18.92634
v 4.893227 -10.43968 -20.59591
v 11.00023 -10.55524 -21.44905
v 11.00023 -10.55524 -21.44905
v 13.78185 -14.42132 -26.019
v 13.70173 -13.19733 -24.57217
v 13.52878 -10.55524 -21.44905
v 13.70173 -13.19733 -24.57217
v 16.35082 -14.74236 -26.40629
v 18.20389 -10.14918 -20.98347
v 13.52878 -10.55524 -21.44905
v 13.78185 -14.42132 -26.019
v 15.49236 -16.87022 -28.9185
v 9.002983 -7.579504 -17.91828
v 11.00023 -10.55524 -21.44905
vt 0.6982926 0.3855797
vt 0.6982926 0.3806009
vt 0.6972994 0.3806009
vt 0.6972994 0.3855797
vt 0.7217073 0.3907355
vt 0.7217073 0.3915654
vt 0.7218729 0.3915654
vt 0.7218729 0.3907355
vt 0.7218043 0.3960873
vt 0.7217728 0.3967129
vt 0.7218268 0.3962147
vt 0.7633307 0.3359616
vt 0.7633307 0.3341737
vt 0.7628714 0.3341737
vt 0.7628714 0.3359616
vt 0.7642246 0.3359616
vt 0.7642246 0.3341737
vt 0.7633307 0.3341737
vt 0.7633307 0.3359616
vt 0.7651186 0.3359616
vt 0.7651186 0.3341737
vt 0.7642246 0.3341737
vt 0.7642246 0.3359616
vt 0.7633307 0.3341737
vt 0.7633307 0.3323859
vt 0.762788 0.3323859
vt 0.7628714 0.3341737
vt 0.7642246 0.3341737
vt 0.7642246 0.3323859
vt 0.7651186 0.3341737
vt 0.7651186 0.3323859
vt 0.7656612 0.3323859
vt 0.7655778 0.3341737
vt 0.7633307 0.3323859
vt 0.7633307 0.3305981
vt 0.762788 0.3305981
vt 0.762788 0.3323859
vt 0.7642246 0.3323859
vt 0.7642246 0.3305981
vt 0.7633307 0.3305981
vt 0.7633307 0.3323859
vt 0.7651186 0.3323859
vt 0.7651186 0.3305981
vt 0.7642246 0.3305981
vt 0.7642246 0.3323859
vt 0.7633307 0.3305981
vt 0.7633307 0.3288102
vt 0.7628714 0.3288102
vt 0.762788 0.3305981
vt 0.7642246 0.3305981
vt 0.7642246 0.3288102
vt 0.7651186 0.3305981
vt 0.7651186 0.3288102
vt 0.7655778 0.3288102
vt 0.7656612 0.3305981
vt 0.7655778 0.3341737
vt 0.7651186 0.3341737
vt 0.7651186 0.3359616
vt 0.7655778 0.3359616
vt 0.7656612 0.3305981
vt 0.7651186 0.3305981
vt 0.7651186 0.3323859
vt 0.7656612 0.3323859
vt 0.6875071 0.3897208
vt 0.6875684 0.3897208
vt 0.6875684 0.3886651
vt 0.7218268 0.3962147
vt 0.721841 0.3960832
vt 0.7218043 0.3960873
vt 0.721841 0.3962337
vt 0.721841 0.3960832
vt 0.7218268 0.3962147
vt 0.6875684 0.388665
vt 0.6875684 0.3897208
vt 0.6876277 0.3897208
vt 0.6875684 0.388665
vt 0.6876277 0.3897208
vt 0.6877023 0.3897208
vt 0.6877818 0.3886558
vt 0.7218763 0.3960832
vt 0.7218932 0.3962794
vt 0.7219144 0.3962455
vt 0.7219208 0.3960832
vt 0.7218763 0.3960832
vt 0.721841 0.3960832
vt 0.721841 0.3962337
vt 0.7218828 0.3962961
vt 0.7218828 0.3962961
vt 0.7218947 0.3964439
vt 0.7218943 0.3963918
vt 0.7218932 0.3962794
vt 0.7218943 0.3963918
vt 0.7219064 0.3964486
vt 0.7219144 0.3962455
vt 0.7218932 0.3962794
vt 0.7218947 0.3964439
vt 0.7219027 0.3965426
vt 0.7218763 0.3960832
vt 0.7218828 0.3962961
vn 0 1 0
vn 0 1 0
vn 0 1 0
vn 0 1 0
vn 0.4391484 0.2851903 -0.8519479
vn 0.4391484 0.2851903 -0.8519479
vn 0.4391483 0.2851903 -0.8519479
vn 0.4391483 0.2851903 -0.8519479
vn 0.4582652 0.6136312 -0.6430006
vn 0.4582652 0.6136312 -0.6430006
vn 0.4582652 0.6136312 -0.6430007
vn -0.92388 -0.3826824 0
vn -0.92388 -0.3826823 0
vn -0.92388 -0.3826824 0
vn -0.92388 -0.3826824 0
vn -0.3826834 -0.9238796 0
vn -0.3826834 -0.9238796 0
vn -0.3826835 -0.9238795 0
vn -0.3826834 -0.9238796 0
vn 0.3826824 -0.92388 0
vn 0.3826824 -0.92388 0
vn 0.3826824 -0.92388 0
vn 0.3826824 -0.92388 0
vn 0 0 1
vn 0 0 1
vn 0 0 1
vn 0 0 1
vn 0 0 1
vn 0 0 1
vn 0 0 1
vn 0 0 1
vn 0 0 1
vn 0 0 1
vn 0.9238807 0.3826806 0
vn 0.9238807 0.3826806 0
vn 0.9238807 0.3826807 0
vn 0.9238807 0.3826807 0
vn 0.3826827 0.9238799 0
vn 0.3826827 0.9238799 0
vn 0.3826827 0.9238799 0
vn 0.3826827 0.9238799 0
vn -0.3826811 0.9238805 0
vn -0.3826811 0.9238805 0
vn -0.3826811 0.9238805 0
vn -0.3826811 0.9238805 0
vn 0 0 -1
vn 0 0 -1
vn 0 0 -1
vn 0 0 -1
vn 0 0 -1
vn 0 0 -1
vn 0 0 -1
vn 0 0 -1
vn 0 0 -1
vn 0 0 -1
vn 0.9238787 -0.3826855 0
vn 0.9238787 -0.3826855 0
vn 0.9238787 -0.3826855 0
vn 0.9238787 -0.3826855 0
vn -0.9238816 0.3826785 0
vn -0.9238816 0.3826785 0
vn -0.9238816 0.3826785 0
vn -0.9238816 0.3826785 0
vn -0.2188248 0.9743018 -0.05340219
vn -0.2188248 0.9743018 -0.05340219
vn -0.2188248 0.9743018 -0.05340219
vn 0.4266677 0.458657 -0.7794796
vn 0.4266677 0.458657 -0.7794796
vn 0.4266677 0.4586571 -0.7794796
vn -0.04547717 0.6265463 -0.7780563
vn -0.04547717 0.6265462 -0.7780564
vn -0.04547717 0.6265463 -0.7780563
vn -0.155096 0.9871741 -0.03784949
vn -0.155096 0.9871741 -0.03784949
vn -0.155096 0.9871741 -0.03784949
vn -0.1147637 0.9931003 -0.02410252
vn -0.1147637 0.9931003 -0.02410252
vn -0.1147637 0.9931003 -0.02410252
vn -0.1147637 0.9931003 -0.02410252
vn -0.001979431 0.7633964 -0.6459273
vn -0.001979431 0.7633964 -0.6459273
vn -0.001979431 0.7633964 -0.6459273
vn -0.001979431 0.7633964 -0.6459273
vn -0.03774368 0.7113063 -0.7018681
vn -0.03774369 0.7113063 -0.7018681
vn -0.03774369 0.7113063 -0.7018681
vn -0.03774369 0.7113063 -0.7018681
vn 0 0.7634522 -0.6458644
vn 0 0.7634522 -0.6458644
vn 0 0.7634522 -0.6458644
vn 0 0.7634522 -0.6458644
vn -0.001978943 0.7633959 -0.6459278
vn -0.001979087 0.763396 -0.6459277
vn -0.001978893 0.7633959 -0.6459278
vn -0.001978893 0.7633959 -0.6459278
vn -0.001979407 0.7633961 -0.6459275
vn -0.001979408 0.7633961 -0.6459275
vn 0 0.7646509 -0.6444447
vn 0 0.7646509 -0.6444447
f 3/3/3 2/2/2 1/1/1
f 4/4/4 3/3/3 1/1/1
f 7/7/7 6/6/6 5/5/5
f 8/8/8 7/7/7 5/5/5
f 11/11/11 10/10/10 9/9/9
f 14/14/14 13/13/13 12/12/12
f 15/15/15 14/14/14 12/12/12
f 18/18/18 17/17/17 16/16/16
f 19/19/19 18/18/18 16/16/16
f 22/22/22 21/21/21 20/20/20
f 23/23/23 22/22/22 20/20/20
f 26/26/26 25/25/25 24/24/24
f 27/27/27 26/26/26 24/24/24
f 24/24/24 25/25/25 28/28/28
f 25/25/25 29/29/29 28/28/28
f 28/28/28 29/29/29 30/30/30
f 29/29/29 31/31/31 30/30/30
f 30/30/30 31/31/31 32/32/32
f 33/33/33 30/30/30 32/32/32
f 36/36/36 35/35/35 34/34/34
f 37/37/37 36/36/36 34/34/34
f 40/40/40 39/39/39 38/38/38
f 41/41/41 40/40/40 38/38/38
f 44/44/44 43/43/43 42/42/42
f 45/45/45 44/44/44 42/42/42
f 48/48/48 47/47/47 46/46/46
f 49/49/49 48/48/48 46/46/46
f 46/46/46 47/47/47 50/50/50
f 47/47/47 51/51/51 50/50/50
f 50/50/50 51/51/51 52/52/52
f 51/51/51 53/53/53 52/52/52
f 52/52/52 53/53/53 54/54/54
f 55/55/55 52/52/52 54/54/54
f 58/58/58 57/57/57 56/56/56
f 59/59/59 58/58/58 56/56/56
f 62/62/62 61/61/61 60/60/60
f 63/63/63 62/62/62 60/60/60
f 66/66/66 65/65/65 64/64/64
f 69/69/69 68/68/68 67/67/67
f 72/72/72 71/71/71 70/70/70
f 75/75/75 74/74/74 73/73/73
f 78/78/78 77/77/77 76/76/76
f 79/79/79 78/78/78 76/76/76
f 82/82/82 81/81/81 80/80/80
f 83/83/83 82/82/82 80/80/80
f 86/86/86 85/85/85 84/84/84
f 87/87/87 86/86/86 84/84/84
f 90/90/90 89/89/89 88/88/88
f 91/91/91 90/90/90 88/88/88
f 94/94/94 93/93/93 92/92/92
f 95/95/95 94/94/94 92/92/92
f 92/92/92 93/93/93 96/96/96
f 93/93/93 97/97/97 96/96/96
f 95/95/95 99/99/99 98/98/98
