g mine_03
v 71.2933 15.60468 -69.90024
v -16.174 15.60468 28.58007
v -30.26133 15.60468 0.9321253
v 71.2933 15.60468 -69.90027
v 71.2933 15.60468 -69.90027
v -52.20287 15.60468 -21.00943
v -71.29329 15.60468 -37.0673
v -71.2933 15.60468 -30.7365
v -71.2933 15.60468 -69.09782
v -70.21396 15.60468 -69.90024
v 71.2933 15.60468 -69.90024
v 71.2933 15.60468 69.90027
v -11.31982 15.60468 59.22805
v 59.90319 15.60468 69.90027
v -13.01014 15.60468 69.90027
v -71.2933 15.60468 -69.90024
v -11.31982 15.60468 59.22808
v -27.1077 15.60468 59.10958
v -31.18916 15.60468 33.3403
v -16.17399 15.60468 28.5801
v -43.03399 15.60468 10.09353
v -30.26132 15.60468 0.9321558
v -61.48275 15.60468 -8.355228
v -52.20287 15.60468 -21.0094
v -71.2933 15.60468 -13.35396
v -71.2933 15.60468 -30.73647
v -28.81678 15.60468 69.90027
v -13.01013 15.60468 69.90027
v -27.1077 15.60468 59.10958
v -39.40357 6.640749 59.22808
v -42.03931 8.601053 34.95529
v -31.18916 15.60468 33.3403
v -31.18916 15.60468 33.3403
v -42.03931 8.601053 34.95529
v -52.10559 10.9157 13.56207
v -43.03399 15.60468 10.09353
v -43.03399 15.60468 10.09353
v -52.10559 10.9157 13.56207
v -64.32919 13.33737 -4.318913
v -61.48275 15.60468 -8.355228
v -61.48275 15.60468 -8.355228
v -64.32919 13.33737 -4.318913
v -71.2933 14.11136 -9.740292
v -71.2933 15.60468 -13.35396
v -39.40357 6.640749 59.22808
v -53.35181 6.640749 59.22808
v -57.36541 8.601053 39.26553
v -42.03931 8.601053 34.95529
v -42.03931 8.601053 34.95529
v -57.36541 8.601053 39.26553
v -62.62452 10.9157 21.76068
v -52.10559 10.9157 13.56207
v -71.2933 13.33737 1.045346
v -64.32919 13.33737 -4.318913
v -52.10559 10.9157 13.56207
v -71.2933 12.292 12.86999
v -62.62452 10.9157 21.76068
v -64.32919 13.33737 -4.318913
v -71.2933 13.33737 1.045346
v -71.2933 14.11136 -9.740292
v -53.35181 6.640749 59.22808
v -71.2933 -11.42103 63.74413
v -71.2933 -7.442007 44.60486
v -57.36541 8.601053 39.26553
v -57.36541 8.601053 39.26553
v -71.2933 -7.442007 44.60486
v -71.2933 0.8835058 28.7875
v -62.62452 10.9157 21.76068
v -62.62452 10.9157 21.76068
v -71.2933 0.8835058 28.7875
v -71.2933 12.292 12.86999
v -40.04579 5.562834 69.90027
v -39.40357 6.640749 59.22808
v -27.1077 15.60468 59.10958
v -28.81678 15.60468 69.90027
v -53.75356 5.315505 69.90027
v -53.35181 6.640749 59.22808
v -39.40357 6.640749 59.22808
v -40.04579 5.562834 69.90027
v -71.2933 -15.60468 69.90027
v -71.2933 -11.42103 63.74413
v -53.35181 6.640749 59.22808
v -53.75356 5.315505 69.90027
vt 1 1
vt 0.6909442 0.6520308
vt 0.6411681 0.7497218
vt 1 1
vt 1 1
vt 0.5636402 0.8272498
vt 0.4961863 0.8839884
vt 0.4961863 0.8616192
vt 0.4961863 0.9971647
vt 0.5 1
vt 1 1
vt 1 0.5060306
vt 0.7080959 0.5437397
vt 0.9597543 0.5060306
vt 0.7021233 0.5060306
vt 0.4961863 1
vt 0.6913397 0.3855797
vt 0.6913397 0.3806009
vt 0.6903465 0.3806009
vt 0.6903465 0.3855797
vt 0.6893532 0.3806009
vt 0.6893532 0.3855797
vt 0.6883599 0.3806009
vt 0.6883599 0.3855797
vt 0.6879407 0.3806009
vt 0.687674 0.3855796
vt 0.6917557 0.3806009
vt 0.6916856 0.3855797
vt 0.7228663 0.3907355
vt 0.7228663 0.3915654
vt 0.7230319 0.3915654
vt 0.7230319 0.3907355
vt 0.7230319 0.3907355
vt 0.7230319 0.3915654
vt 0.7231973 0.3915654
vt 0.7231973 0.3907355
vt 0.7231973 0.3907355
vt 0.7231973 0.3915654
vt 0.7233629 0.3915654
vt 0.7233629 0.3907355
vt 0.7233629 0.3907355
vt 0.7233629 0.3915654
vt 0.7234194 0.3914238
vt 0.7234328 0.3909107
vt 0.6890627 0.3886507
vt 0.6890627 0.3897208
vt 0.6892762 0.3897208
vt 0.6892762 0.3886507
vt 0.6892762 0.3886507
vt 0.6892762 0.3897208
vt 0.6894896 0.3897208
vt 0.6894896 0.3886507
vt 0.689703 0.3892007
vt 0.689703 0.3886507
vt 0.6894896 0.3886507
vt 0.6896109 0.3897208
vt 0.6894896 0.3897208
vt 0.689703 0.3886507
vt 0.689703 0.3892007
vt 0.6897759 0.3886507
vt 0.7227322 0.3960832
vt 0.7227322 0.3965484
vt 0.7228595 0.3964661
vt 0.7228595 0.3960832
vt 0.7228595 0.3960832
vt 0.7228595 0.3964661
vt 0.7229868 0.3963035
vt 0.7229868 0.3960832
vt 0.7229868 0.3960832
vt 0.7229868 0.3963035
vt 0.7230592 0.3960832
vt 0.7227897 0.3915654
vt 0.7228663 0.3915654
vt 0.7228663 0.3907355
vt 0.7227969 0.3907355
vt 0.6889414 0.3897208
vt 0.6890627 0.3897208
vt 0.6890627 0.3886507
vt 0.688964 0.3886507
vt 0.7226734 0.3966562
vt 0.7227322 0.3965484
vt 0.7227322 0.3960832
vt 0.7226599 0.3960832
vn 0 1 0
vn 0 1 0
vn 0 1 0
vn 0 1 0
vn 0 1 0
vn 0 1 0
vn 0 1 0
vn 0 1 0
vn 0 1 0
vn 0 1 0
vn 0 1 0
vn 0 1 0
vn 0 1 0
vn 0 1 0
vn 0 1 0
vn 0 1 0
vn 0 1 0
vn 0 1 0
vn 0 1 0
vn 0 1 0
vn 0 1 0
vn 0 1 0
vn 0 1 0
vn 0 1 0
vn 0 1 0
vn 0 1 0
vn 0 1 0
vn 0 1 0
vn -0.5591173 0.8221216 0.1072558
vn -0.5591174 0.8221216 0.1072558
vn -0.5591174 0.8221216 0.1072558
vn -0.5591174 0.8221216 0.1072558
vn -0.4386036 0.860281 0.2598913
vn -0.4386036 0.860281 0.2598913
vn -0.4386036 0.860281 0.2598913
vn -0.4386036 0.860281 0.2598913
vn -0.3152652 0.8914028 0.3255901
vn -0.3152652 0.8914028 0.3255901
vn -0.3152652 0.8914028 0.3255901
vn -0.3152652 0.8914028 0.3255901
vn -0.1910133 0.9071801 0.3748841
vn -0.1910133 0.9071801 0.3748842
vn -0.1910131 0.9071802 0.3748839
vn -0.1910131 0.9071802 0.3748839
vn 0.01271832 0.9961811 0.08638041
vn 0.01271832 0.9961811 0.08638042
vn 0.01271832 0.9961811 0.08638041
vn 0.01271832 0.9961811 0.08638044
vn 0.04808048 0.9938912 0.09934097
vn 0.04808048 0.9938912 0.09934098
vn 0.04808047 0.9938912 0.09934097
vn 0.04808047 0.9938912 0.09934096
vn 0.06805358 0.9938079 0.0878333
vn 0.06800905 0.9938106 0.08783648
vn 0.06800904 0.9938106 0.08783647
vn 0.06805359 0.9938079 0.08783332
vn 0.06800904 0.9938106 0.08783649
vn 0.09097365 0.9939249 0.06194416
vn 0.05505074 0.9959225 0.0714691
vn 0.05505075 0.9959225 0.0714691
vn -0.6992913 0.6964265 0.1611886
vn -0.6929989 0.698803 0.1772764
vn -0.6929988 0.6988031 0.1772764
vn -0.6992913 0.6964265 0.1611886
vn -0.5906734 0.7112914 0.3810112
vn -0.6333286 0.7026466 0.3243188
vn -0.6333286 0.7026466 0.3243188
vn -0.5906734 0.7112914 0.3810112
vn -0.3848176 0.7444322 0.5456521
vn -0.4241891 0.7360449 0.5275429
vn -0.4241891 0.7360449 0.5275429
vn -0.6282473 0.7774435 -0.02978063
vn -0.6760988 0.7356925 -0.04058111
vn -0.6760989 0.7356925 -0.04058111
vn -0.6282473 0.7774435 -0.02978063
vn -0.008886975 0.9937304 0.1114492
vn -0.01739619 0.9937975 0.1098353
vn -0.01739619 0.9937975 0.1098353
vn -0.008886975 0.9937304 0.1114492
vn -0.7123277 0.6718677 0.2029362
vn -0.7123277 0.6718677 0.2029362
vn -0.7296405 0.6355733 0.2523315
vn -0.7123277 0.6718677 0.2029362
f 3/3/3 2/2/2 1/1/1
f 4/4/4 3/3/3 1/1/1
f 6/6/6 3/3/3 5/5/5
f 6/6/6 5/5/5 7/7/7
f 7/7/7 8/8/8 6/6/6
f 9/9/9 7/7/7 5/5/5
f 10/10/10 9/9/9 5/5/5
f 12/12/12 11/11/11 2/2/2
f 2/2/2 13/13/13 12/12/12
f 13/13/13 14/14/14 12/12/12
f 14/14/14 13/13/13 15/15/15
f 16/16/16 9/9/9 10/10/10
f 19/19/19 18/18/18 17/17/17
f 20/20/20 19/19/19 17/17/17
f 21/21/21 19/19/19 20/20/20
f 22/22/22 21/21/21 20/20/20
f 23/23/23 21/21/21 22/22/22
f 24/24/24 23/23/23 22/22/22
f 25/25/25 23/23/23 24/24/24
f 26/26/26 25/25/25 24/24/24
f 17/17/17 18/18/18 27/27/27
f 28/28/28 17/17/17 27/27/27
f 31/31/31 30/30/30 29/29/29
f 32/32/32 31/31/31 29/29/29
f 35/35/35 34/34/34 33/33/33
f 36/36/36 35/35/35 33/33/33
f 39/39/39 38/38/38 37/37/37
f 40/40/40 39/39/39 37/37/37
f 43/43/43 42/42/42 41/41/41
f 44/44/44 43/43/43 41/41/41
f 47/47/47 46/46/46 45/45/45
f 48/48/48 47/47/47 45/45/45
f 51/51/51 50/50/50 49/49/49
f 52/52/52 51/51/51 49/49/49
f 55/55/55 54/54/54 53/53/53
f 53/53/53 56/56/56 55/55/55
f 56/56/56 57/57/57 55/55/55
f 60/60/60 59/59/59 58/58/58
f 63/63/63 62/62/62 61/61/61
f 64/64/64 63/63/63 61/61/61
f 67/67/67 66/66/66 65/65/65
f 68/68/68 67/67/67 65/65/65
f 71/71/71 70/70/70 69/69/69
f 74/74/74 73/73/73 72/72/72
f 75/75/75 74/74/74 72/72/72
f 78/78/78 77/77/77 76/76/76
f 79/79/79 78/78/78 76/76/76
f 82/82/82 81/81/81 80/80/80
f 83/83/83 82/82/82 80/80/80
