g missile_01
v -0.0008659363 -0.02857727 0.3316684
v -0.0008659363 -0.02857727 0.8408617
v 0.2398751 -0.02857727 0.8408617
v 0.2398751 -0.02857727 0.5169871
v -0.239875 -0.02857727 0.5169871
v -0.239875 -0.02857727 0.8408617
v 0.2398751 -0.02857727 0.5169871
v 0.2398751 -0.02857727 0.8408617
v 0.2398751 0.009525657 0.8408617
v 0.2398751 0.009525657 0.5169871
v 0.2398751 0.009525657 0.5169871
v 0.2398751 0.009525657 0.8408617
v -0.0008659363 0.009525657 0.8408617
v -0.0008659363 0.009525657 0.3316684
v -0.239875 0.009525657 0.8408617
v -0.239875 0.009525657 0.5169871
v -0.239875 0.009525657 0.5169871
v -0.239875 0.009525657 0.8408617
v -0.239875 -0.02857727 0.8408617
v -0.239875 -0.02857727 0.5169871
v -0.0008659363 -0.02857727 0.8408617
v -0.0008659363 0.009525657 0.8408617
v 0.2398751 0.009525657 0.8408617
v 0.2398751 -0.02857727 0.8408617
v -0.239875 -0.02857727 0.8408617
v -0.239875 0.009525657 0.8408617
v -0.0008659363 0.009525657 0.3316684
v -0.0008659363 -0.02857727 0.3316684
v 0.2398751 -0.02857727 0.5169871
v 0.2398751 0.009525657 0.5169871
v -0.239875 0.009525657 0.5169871
v -0.239875 -0.02857727 0.5169871
v -0.0008659363 -0.02857727 0.3316684
v -0.0008659363 0.009525657 0.3316684
v 0.01991749 -0.2398751 0.5169871
v 0.01991749 -0.2398751 0.8408617
v 0.01991749 0.0008659363 0.8408617
v 0.01991749 0.0008659363 0.3316684
v 0.01991749 0.239875 0.8408617
v 0.01991749 0.239875 0.5169871
v 0.01991749 0.239875 0.5169871
v 0.01991749 0.239875 0.8408617
v -0.01991737 0.239875 0.8408617
v -0.01991737 0.239875 0.5169871
v -0.01991737 0.0008659363 0.3316684
v -0.01991737 0.0008659363 0.8408617
v -0.01991737 -0.2398751 0.8408617
v -0.01991737 -0.2398751 0.5169871
v -0.01991737 0.239875 0.5169871
v -0.01991737 0.239875 0.8408617
v -0.01991737 -0.2398751 0.5169871
v -0.01991737 -0.2398751 0.8408617
v 0.01991749 -0.2398751 0.8408617
v 0.01991749 -0.2398751 0.5169871
v 0.01991749 -0.2398751 0.8408617
v -0.01991737 -0.2398751 0.8408617
v -0.01991737 0.0008659363 0.8408617
v 0.01991749 0.0008659363 0.8408617
v -0.01991737 0.239875 0.8408617
v 0.01991749 0.239875 0.8408617
v -0.01991737 -0.2398751 0.5169871
v 0.01991749 -0.2398751 0.5169871
v 0.01991749 0.0008659363 0.3316684
v -0.01991737 0.0008659363 0.3316684
v -0.01991737 0.0008659363 0.3316684
v 0.01991749 0.0008659363 0.3316684
v 0.01991749 0.239875 0.5169871
v -0.01991737 0.239875 0.5169871
v 0.04070091 -0.0476287 -0.8858925
v 0.08919549 -0.09612328 -0.4910079
v 0.08919549 0.08053565 -0.4910079
v 0.04070091 0.03204101 -0.8858925
v 0.04070091 0.03204101 -0.8858925
v 0.08919549 0.08053565 -0.4910079
v -0.08746344 0.08053565 -0.4910079
v -0.0389688 0.03204101 -0.8858925
v -0.0389688 0.03204101 -0.8858925
v -0.08746344 0.08053565 -0.4910079
v -0.08746344 -0.09612328 -0.4910079
v -0.0389688 -0.0476287 -0.8858925
v -0.0389688 -0.0476287 -0.8858925
v -0.08746344 -0.09612328 -0.4910079
v 0.08919549 -0.09612328 -0.4910079
v 0.04070091 -0.0476287 -0.8858925
v 0.08919549 -0.09612328 0.8858924
v -0.08746344 -0.09612328 0.8858924
v -0.08746344 0.08053565 0.8858924
v 0.08919549 0.08053565 0.8858924
v -0.0389688 -0.0476287 -0.8858925
v 0.04070091 -0.0476287 -0.8858925
v 0.04070091 0.03204101 -0.8858925
v -0.0389688 0.03204101 -0.8858925
v -0.08746344 0.08053565 0.8858924
v -0.08746344 0.08053565 -0.4910079
v 0.08919549 0.08053565 -0.4910079
v 0.08919549 0.08053565 0.8858924
v -0.08746344 -0.09612328 0.8858924
v -0.08746344 -0.09612328 -0.4910079
v -0.08746344 0.08053565 -0.4910079
v -0.08746344 0.08053565 0.8858924
v 0.08919549 -0.09612328 0.8858924
v 0.08919549 -0.09612328 -0.4910079
v -0.08746344 -0.09612328 -0.4910079
v -0.08746344 -0.09612328 0.8858924
v 0.08919549 0.08053565 0.8858924
v 0.08919549 0.08053565 -0.4910079
v 0.08919549 -0.09612328 -0.4910079
v 0.08919549 -0.09612328 0.8858924
vt 0.7408771 0.1924225
vt 0.7408771 0.1950095
vt 0.73829 0.1950095
vt 0.73829 0.1950095
vt 0.7408771 0.1950095
vt 0.7408771 0.1950095
vt 0.7926181 0.1975966
vt 0.7926181 0.2001836
vt 0.7926181 0.2001836
vt 0.7926181 0.1975966
vt 0.8365979 0.1975966
vt 0.8365979 0.1975966
vt 0.8340109 0.1975966
vt 0.8340109 0.1975966
vt 0.8340109 0.1975966
vt 0.8340109 0.1975966
vt 0.790031 0.1975966
vt 0.790031 0.2001836
vt 0.790031 0.2001836
vt 0.790031 0.1975966
vt 0.7486382 0.2079448
vt 0.7486382 0.2079448
vt 0.7486382 0.2079448
vt 0.7486382 0.2079448
vt 0.7486382 0.2105318
vt 0.7486382 0.2105318
vt 0.7563994 0.1872484
vt 0.7563994 0.1872484
vt 0.7563994 0.1872484
vt 0.7563994 0.1872484
vt 0.7538123 0.1872484
vt 0.7538123 0.1872484
vt 0.7538123 0.1872484
vt 0.7538123 0.1872484
vt 0.7977922 0.1924225
vt 0.7977922 0.1950095
vt 0.7977922 0.1950095
vt 0.7977922 0.1924225
vt 0.7977922 0.1950095
vt 0.7977922 0.1924225
vt 0.841772 0.1924225
vt 0.841772 0.1950095
vt 0.841772 0.1950095
vt 0.841772 0.1924225
vt 0.7952051 0.1924225
vt 0.7952051 0.1950095
vt 0.7952051 0.1950095
vt 0.7952051 0.1924225
vt 0.7952051 0.1924225
vt 0.7952051 0.1950095
vt 0.7408771 0.1950095
vt 0.7408771 0.1950095
vt 0.7408771 0.1950095
vt 0.7408771 0.1950095
vt 0.7486382 0.2105318
vt 0.7486382 0.2105318
vt 0.7486382 0.2079448
vt 0.7486382 0.2079448
vt 0.7486382 0.2079448
vt 0.7486382 0.2079448
vt 0.7563994 0.2105318
vt 0.7563994 0.2105318
vt 0.7563994 0.2079448
vt 0.7563994 0.2079448
vt 0.7589864 0.2053577
vt 0.7589864 0.2053577
vt 0.7589864 0.2053577
vt 0.7589864 0.2053577
vt 0.6425692 0.2027707
vt 0.6425692 0.2053577
vt 0.6425692 0.2053577
vt 0.6425692 0.2027707
vt 0.683962 0.1950095
vt 0.683962 0.1950095
vt 0.683962 0.1950095
vt 0.683962 0.1950095
vt 0.6399821 0.2027707
vt 0.6399821 0.2053577
vt 0.6399821 0.2053577
vt 0.6399821 0.2027707
vt 0.5908282 0.1924225
vt 0.5908282 0.1950095
vt 0.5908282 0.1950095
vt 0.5908282 0.1924225
vt 0.5960023 0.2855563
vt 0.5494354 0.2855563
vt 0.5494354 0.2389894
vt 0.5960023 0.2389894
vt 0.6451562 0.1898354
vt 0.6451562 0.1898354
vt 0.6451562 0.1898354
vt 0.6451562 0.1898354
vt 0.8469461 0.2027707
vt 0.8469461 0.1975966
vt 0.8469461 0.1975966
vt 0.8469461 0.2027707
vt 0.8003792 0.2027707
vt 0.8003792 0.1975966
vt 0.8003792 0.1975966
vt 0.8003792 0.2027707
vt 0.7538123 0.2001836
vt 0.7538123 0.1950095
vt 0.7538123 0.1950095
vt 0.7538123 0.2001836
vt 0.8029663 0.2027707
vt 0.8029663 0.1975966
vt 0.8029663 0.1975966
vt 0.8029663 0.2027707
vn -0.01587105 -0.999874 -0.000345267
vn -0.01587105 -0.999874 -0.000345267
vn -0.01587105 -0.999874 -0.000345267
vn -0.01587105 -0.999874 -0.000345267
vn -0.01587105 -0.999874 -0.000345267
vn -0.01587105 -0.999874 -0.000345267
vn 0.999874 0.01587105 -0.0003439156
vn 0.999874 0.01587105 -0.0003439156
vn 0.999874 0.01587105 -0.0003439156
vn 0.999874 0.01587105 -0.0003439156
vn -0.01587105 0.999874 -0.000345267
vn -0.01587105 0.999874 -0.000345267
vn -0.01587105 0.999874 -0.000345267
vn -0.01587105 0.999874 -0.000345267
vn -0.01587105 0.999874 -0.000345267
vn -0.01587105 0.999874 -0.000345267
vn -0.999874 0.01587105 -0.0003439156
vn -0.999874 0.01587105 -0.0003439156
vn -0.999874 0.01587105 -0.0003439156
vn -0.999874 0.01587105 -0.0003439156
vn -0.01587105 0.01587105 0.9997481
vn -0.01587105 0.01587105 0.9997481
vn -0.01587105 0.01587105 0.9997481
vn -0.01587105 0.01587105 0.9997481
vn -0.01587105 0.01587105 0.9997481
vn -0.01587105 0.01587105 0.9997481
vn 0.6189696 0.01587105 -0.7852545
vn 0.6189696 0.01587105 -0.7852545
vn 0.6189696 0.01587105 -0.7852545
vn 0.6189696 0.01587105 -0.7852545
vn -0.6189697 0.01587105 -0.7852545
vn -0.6189697 0.01587105 -0.7852545
vn -0.6189697 0.01587105 -0.7852545
vn -0.6189697 0.01587105 -0.7852545
vn 0.999874 0.01587105 -0.0003439156
vn 0.999874 0.01587105 -0.0003439156
vn 0.999874 0.01587105 -0.0003439156
vn 0.999874 0.01587105 -0.0003439156
vn 0.999874 0.01587105 -0.0003439156
vn 0.999874 0.01587105 -0.0003439156
vn -0.01587105 0.999874 -0.000345267
vn -0.01587105 0.999874 -0.000345267
vn -0.01587105 0.999874 -0.000345267
vn -0.01587105 0.999874 -0.000345267
vn -0.999874 0.01587105 -0.0003439156
vn -0.999874 0.01587105 -0.0003439156
vn -0.999874 0.01587105 -0.0003439156
vn -0.999874 0.01587105 -0.0003439156
vn -0.999874 0.01587105 -0.0003439156
vn -0.999874 0.01587105 -0.0003439156
vn -0.01587105 -0.999874 -0.000345267
vn -0.01587105 -0.999874 -0.000345267
vn -0.01587105 -0.999874 -0.000345267
vn -0.01587105 -0.999874 -0.000345267
vn -0.01587105 0.01587105 0.9997481
vn -0.01587105 0.01587105 0.9997481
vn -0.01587105 0.01587105 0.9997481
vn -0.01587105 0.01587105 0.9997481
vn -0.01587105 0.01587105 0.9997481
vn -0.01587105 0.01587105 0.9997481
vn -0.01587105 -0.6189696 -0.7852545
vn -0.01587105 -0.6189696 -0.7852545
vn -0.01587105 -0.6189696 -0.7852545
vn -0.01587105 -0.6189696 -0.7852545
vn -0.01587105 0.6189697 -0.7852545
vn -0.01587105 0.6189697 -0.7852545
vn -0.01587105 0.6189697 -0.7852545
vn -0.01587105 0.6189697 -0.7852545
vn 0.999874 0.01587105 -0.0003439156
vn 0.999874 0.01587105 -0.0003439156
vn 0.999874 0.01587105 -0.0003439156
vn 0.999874 0.01587105 -0.0003439156
vn -0.01587105 0.999874 -0.000345267
vn -0.01587105 0.999874 -0.000345267
vn -0.01587105 0.999874 -0.000345267
vn -0.01587105 0.999874 -0.000345267
vn -0.999874 0.01587105 -0.0003439156
vn -0.999874 0.01587105 -0.0003439156
vn -0.999874 0.01587105 -0.0003439156
vn -0.999874 0.01587105 -0.0003439156
vn -0.01587105 -0.999874 -0.000345267
vn -0.01587105 -0.999874 -0.000345267
vn -0.01587105 -0.999874 -0.000345267
vn -0.01587105 -0.999874 -0.000345267
vn -0.01587105 0.01587105 0.9997481
vn -0.01587105 0.01587105 0.9997481
vn -0.01587105 0.01587105 0.9997481
vn -0.01587105 0.01587105 0.9997481
vn -0.01587105 0.01587105 -0.9997481
vn -0.01587105 0.01587105 -0.9997481
vn -0.01587105 0.01587105 -0.9997481
vn -0.01587105 0.01587105 -0.9997481
vn -0.01587105 0.999874 -0.000345267
vn -0.01587105 0.999874 -0.000345267
vn -0.01587105 0.999874 -0.000345267
vn -0.01587105 0.999874 -0.000345267
vn -0.999874 0.01587105 -0.0003439156
vn -0.999874 0.01587105 -0.0003439156
vn -0.999874 0.01587105 -0.0003439156
vn -0.999874 0.01587105 -0.0003439156
vn -0.01587105 -0.999874 -0.000345267
vn -0.01587105 -0.999874 -0.000345267
vn -0.01587105 -0.999874 -0.000345267
vn -0.01587105 -0.999874 -0.000345267
vn 0.999874 0.01587105 -0.0003439156
vn 0.999874 0.01587105 -0.0003439156
vn 0.999874 0.01587105 -0.0003439156
vn 0.999874 0.01587105 -0.0003439156
f 3/3/3 2/2/2 1/1/1
f 4/4/4 3/3/3 1/1/1
f 1/1/1 2/2/2 5/5/5
f 2/2/2 6/6/6 5/5/5
f 9/9/9 8/8/8 7/7/7
f 10/10/10 9/9/9 7/7/7
f 13/13/13 12/12/12 11/11/11
f 14/14/14 13/13/13 11/11/11
f 15/15/15 13/13/13 14/14/14
f 16/16/16 15/15/15 14/14/14
f 19/19/19 18/18/18 17/17/17
f 20/20/20 19/19/19 17/17/17
f 23/23/23 22/22/22 21/21/21
f 24/24/24 23/23/23 21/21/21
f 21/21/21 22/22/22 25/25/25
f 22/22/22 26/26/26 25/25/25
f 29/29/29 28/28/28 27/27/27
f 30/30/30 29/29/29 27/27/27
f 33/33/33 32/32/32 31/31/31
f 34/34/34 33/33/33 31/31/31
f 37/37/37 36/36/36 35/35/35
f 38/38/38 37/37/37 35/35/35
f 39/39/39 37/37/37 38/38/38
f 40/40/40 39/39/39 38/38/38
f 43/43/43 42/42/42 41/41/41
f 44/44/44 43/43/43 41/41/41
f 47/47/47 46/46/46 45/45/45
f 48/48/48 47/47/47 45/45/45
f 45/45/45 46/46/46 49/49/49
f 46/46/46 50/50/50 49/49/49
f 53/53/53 52/52/52 51/51/51
f 54/54/54 53/53/53 51/51/51
f 57/57/57 56/56/56 55/55/55
f 58/58/58 57/57/57 55/55/55
f 59/59/59 57/57/57 58/58/58
f 60/60/60 59/59/59 58/58/58
f 63/63/63 62/62/62 61/61/61
f 64/64/64 63/63/63 61/61/61
f 67/67/67 66/66/66 65/65/65
f 68/68/68 67/67/67 65/65/65
f 71/71/71 70/70/70 69/69/69
f 72/72/72 71/71/71 69/69/69
f 75/75/75 74/74/74 73/73/73
f 76/76/76 75/75/75 73/73/73
f 79/79/79 78/78/78 77/77/77
f 80/80/80 79/79/79 77/77/77
f 83/83/83 82/82/82 81/81/81
f 84/84/84 83/83/83 81/81/81
f 87/87/87 86/86/86 85/85/85
f 88/88/88 87/87/87 85/85/85
f 91/91/91 90/90/90 89/89/89
f 92/92/92 91/91/91 89/89/89
f 95/95/95 94/94/94 93/93/93
f 96/96/96 95/95/95 93/93/93
f 99/99/99 98/98/98 97/97/97
f 100/100/100 99/99/99 97/97/97
f 103/103/103 102/102/102 101/101/101
f 104/104/104 103/103/103 101/101/101
f 107/107/107 106/106/106 105/105/105
f 108/108/108 107/107/107 105/105/105
