g mountain17
v -11.19781 -1.099677 3.594444
v -8.601257 -1.099675 1.664948
v -7.634125 -0.4419945 4.262398
v -11.19778 -0.8591934 4.125458
v -10.11472 0.07280192 5.378616
v -7.634125 -0.4419945 4.262398
v -4.214722 0.1243751 5.487968
v -8.245453 1.113366 6.465897
v -10.11472 0.07280192 5.378616
v -0.5789185 -1.099677 14.76978
v -0.1997375 -1.099677 16.077
v -1.621124 -0.2023599 16.07703
v -1.717773 -0.2035846 15.2508
v -1.717773 -0.2035846 15.2508
v -1.621124 -0.2023599 16.07703
v -3.297089 0.8565727 16.07703
v -3.298248 0.8730634 15.14275
v -10.23724 -0.3639536 15.27293
v -10.26215 -0.3396597 16.07703
v -11.19781 -1.082893 16.07703
v -11.19778 -1.099624 15.70591
v -0.3527222 -0.4371537 11.22412
v -1.717773 -0.2035846 15.2508
v -3.298248 0.8730634 15.14275
v -2.863525 -0.1840554 11.44946
v 1.729706 -1.099626 11.56426
v -0.5789185 -1.099677 14.76978
v -1.717773 -0.2035846 15.2508
v -0.3527222 -0.4371537 11.22412
v -1.844543 0.125135 7.667389
v -0.3527222 -0.4371537 11.22412
v -2.863525 -0.1840554 11.44946
v -4.571381 0.5258994 9.827034
v -8.245453 1.113366 6.465897
v -11.19778 1.098898 8.412056
v -11.19778 0.2037464 6.023491
v -10.11472 0.07280192 5.378616
v -2.863525 -0.1840554 11.44946
v -8.595337 -0.5429314 14.75854
v -9.49408 0.8357104 12.48409
v -4.571381 0.5258994 9.827034
v -8.595337 -0.5429314 14.75854
v -2.863525 -0.1840554 11.44946
v -3.298248 0.8730634 15.14275
v -8.078339 0.06297359 16.077
v -5.346466 0.7209129 16.07703
v -11.19778 1.098898 8.412056
v -8.245453 1.113366 6.465897
v -4.571381 0.5258994 9.827034
v -11.19778 0.9434167 11.3867
v -9.49408 0.8357104 12.48409
v -4.214722 0.1243751 5.487968
v -1.844543 0.125135 7.667389
v -4.571381 0.5258994 9.827034
v -8.245453 1.113366 6.465897
v -9.49408 0.8357104 12.48409
v -11.19778 0.4186867 13.12388
v -11.19778 0.9434167 11.3867
v -11.19778 0.4186867 13.12388
v -9.49408 0.8357104 12.48409
v -8.595337 -0.5429314 14.75854
v -11.19778 -0.3131659 14.92863
v -10.23724 -0.3639536 15.27293
v -0.3527222 -0.4371537 11.22412
v -1.844543 0.125135 7.667389
v 1.134186 -1.099624 6.184067
v 1.729706 -1.099626 11.56426
v -4.214722 0.1243751 5.487968
v -7.634125 -0.4419945 4.262398
v -8.601257 -1.099675 1.664948
v -2.134247 -1.099624 4.088829
v -1.844543 0.125135 7.667389
v -4.214722 0.1243751 5.487968
v -2.134247 -1.099624 4.088829
v 1.134186 -1.099624 6.184067
v -11.19778 -0.3131659 14.92863
v -10.23724 -0.3639536 15.27293
v -11.19778 -1.099624 15.70591
v -11.19778 -0.8591934 4.125458
v -10.11472 0.07280192 5.378616
v -11.19778 0.2037464 6.023491
v -5.346466 0.7209129 16.07703
v -3.298248 0.8730634 15.14275
v -3.297089 0.8565727 16.07703
v -10.26215 -0.3396597 16.07703
v -10.23724 -0.3639536 15.27293
v -8.595337 -0.5429314 14.75854
v -8.078339 0.06297359 16.077
v -11.19781 -1.099677 3.594444
v -11.17535 -1.102473 -0.165062
v -8.178192 -0.8358005 -1.700363
v -8.601257 -1.099675 1.664948
v 0.2200928 -1.102416 0.228157
v -2.134247 -1.099624 4.088829
v 2.820801 -1.102416 5.386925
v 1.134186 -1.099624 6.184067
v 2.358032 -0.9355852 -3.277657
v -7.794037 -0.9384837 -4.75634
v 4.7948 -0.9047716 -7.273521
v -7.356171 -1.107906 -8.239494
v -11.15494 -1.105013 -3.578995
v -11.13171 -1.107908 -7.470139
v 11.19781 -1.113294 -16.07703
v 11.19781 -1.113294 2.282173
v 6.098053 -1.107843 3.83799
v 11.19781 -1.113297 9.541344
v 6.33548 -0.7751983 10.34795
v -6.530487 -1.113364 -16.07619
v -11.08786 -1.113366 -16.07619
v 2.358032 -0.9355852 -3.277657
v 4.7948 -0.9047716 -7.273521
v 4.352386 -0.9613738 4.663048
v 4.715759 -1.104955 10.7757
v 3.294647 -0.8246041 11.15098
v 4.715759 -1.104955 10.7757
v 3.307068 -0.8519061 14.41762
v 5.414948 -1.107908 14.22659
v 6.33548 -0.7751983 10.34795
v 4.352386 -0.9613738 4.663048
v 6.098053 -1.107843 3.83799
v 1.457672 -1.102474 14.58521
v -0.5789185 -1.099677 14.76978
v 1.759369 -1.102474 15.9857
v -0.1997375 -1.099677 16.077
v 11.19781 -1.113366 13.86636
v 11.19781 -1.113366 15.63011
v 5.566132 -1.107908 15.8083
v 0.2200928 -1.102416 0.228157
v 2.358032 -0.9355852 -3.277657
v 2.820801 -1.102416 5.386925
v 1.729706 -1.099626 11.56426
v 3.294647 -0.8246041 11.15098
v 1.457672 -1.102474 14.58521
v -0.5789185 -1.099677 14.76978
v 1.134186 -1.099624 6.184067
v 2.820801 -1.102416 5.386925
v 3.307068 -0.8519061 14.41762
v 5.414948 -1.107908 14.22659
v 5.566132 -1.107908 15.8083
v 3.538422 -1.105013 15.90279
v 6.33548 -0.7751983 10.34795
v 11.19781 -1.113366 13.86636
v 11.19781 -1.113297 9.541344
v 1.457672 -1.102474 14.58521
v 3.307068 -0.8519061 14.41762
v 3.538422 -1.105013 15.90279
v 1.759369 -1.102474 15.9857
v -11.17535 -1.102473 -0.165062
v -7.794037 -0.9384837 -4.75634
v -8.178192 -0.8358005 -1.700363
vt 0.3297355 0.05601788
vt 0.3277338 0.05616784
vt 0.3283355 0.05777931
vt 0.3299513 0.05626702
vt 0.3299524 0.05729485
vt 0.3283355 0.05777931
vt 0.3272295 0.0597434
vt 0.3295173 0.05856442
vt 0.3299524 0.05729485
vt 0.329295 0.06557441
vt 0.3296483 0.06634164
vt 0.330315 0.06576419
vt 0.3300247 0.06533718
vt 0.3300247 0.06533718
vt 0.330315 0.06576419
vt 0.3311011 0.06508327
vt 0.3307221 0.06464434
vt 0.3340299 0.06188634
vt 0.3343685 0.06225336
vt 0.3347821 0.06184429
vt 0.3346434 0.061712
vt 0.3277485 0.06400323
vt 0.3300247 0.06533718
vt 0.3307221 0.06464434
vt 0.3290176 0.06308866
vt 0.32691 0.06500888
vt 0.329295 0.06557441
vt 0.3300247 0.06533718
vt 0.3277485 0.06400323
vt 0.3270032 0.06172872
vt 0.3277485 0.06400323
vt 0.3290176 0.06308866
vt 0.3291595 0.06163383
vt 0.3295173 0.05856442
vt 0.3316928 0.05827785
vt 0.3307225 0.05715752
vt 0.3299524 0.05729485
vt 0.3290176 0.06308866
vt 0.3330506 0.06231213
vt 0.3325481 0.06088012
vt 0.3291595 0.06163383
vt 0.3330506 0.06231213
vt 0.3290176 0.06308866
vt 0.3307221 0.06464434
vt 0.3333437 0.06314063
vt 0.3320624 0.06425047
vt 0.3316928 0.05827785
vt 0.3295173 0.05856442
vt 0.3291595 0.06163383
vt 0.3329015 0.05967319
vt 0.3325481 0.06088012
vt 0.3272295 0.0597434
vt 0.3270032 0.06172872
vt 0.3291595 0.06163383
vt 0.3295173 0.05856442
vt 0.3325481 0.06088012
vt 0.3336073 0.06048799
vt 0.3329015 0.05967319
vt 0.3336073 0.06048799
vt 0.3325481 0.06088012
vt 0.3330506 0.06231213
vt 0.3343406 0.06133455
vt 0.3340299 0.06188634
vt 0.3277485 0.06400323
vt 0.3270032 0.06172872
vt 0.3250031 0.06224316
vt 0.32691 0.06500888
vt 0.3272295 0.0597434
vt 0.3283355 0.05777931
vt 0.3277338 0.05616784
vt 0.3256853 0.05993235
vt 0.3270032 0.06172872
vt 0.3272295 0.0597434
vt 0.3256853 0.05993235
vt 0.3250031 0.06224316
vt 0.3343406 0.06133455
vt 0.3340299 0.06188634
vt 0.3346434 0.061712
vt 0.3299513 0.05626702
vt 0.3299524 0.05729485
vt 0.3307225 0.05715752
vt 0.3320624 0.06425047
vt 0.3307221 0.06464434
vt 0.3311011 0.06508327
vt 0.3343685 0.06225336
vt 0.3340299 0.06188634
vt 0.3330506 0.06231213
vt 0.3333437 0.06314063
vt 0.3307225 0.05715752
vt 0.3307225 0.05715752
vt 0.3307225 0.05715752
vt 0.3307225 0.05715752
vt 0.3307225 0.05715752
vt 0.3307225 0.05715752
vt 0.3307225 0.05715752
vt 0.3307225 0.05715752
vt 0.3307225 0.05715752
vt 0.3307225 0.05715752
vt 0.3307225 0.05715752
vt 0.3307225 0.05715752
vt 0.3307225 0.05715752
vt 0.3307225 0.05715752
vt 0.3307225 0.05715752
vt 0.3307225 0.05715752
vt 0.3307225 0.05715752
vt 0.3307225 0.05715752
vt 0.3307225 0.05715752
vt 0.3307225 0.05715752
vt 0.3307225 0.05715752
vt 0.3307225 0.05715752
vt 0.3307225 0.05715752
vt 0.3307225 0.05715752
vt 0.3307225 0.05715752
vt 0.3307225 0.05715752
vt 0.3307225 0.05715752
vt 0.3307225 0.05715752
vt 0.3307225 0.05715752
vt 0.3307225 0.05715752
vt 0.3307225 0.05715752
vt 0.3307225 0.05715752
vt 0.3307225 0.05715752
vt 0.3307225 0.05715752
vt 0.3307225 0.05715752
vt 0.3307225 0.05715752
vt 0.3307225 0.05715752
vt 0.3307225 0.05715752
vt 0.3307225 0.05715752
vt 0.3307225 0.05715752
vt 0.3307225 0.05715752
vt 0.3307225 0.05715752
vt 0.3307225 0.05715752
vt 0.3307225 0.05715752
vt 0.3307225 0.05715752
vt 0.3307225 0.05715752
vt 0.3307225 0.05715752
vt 0.3307225 0.05715752
vt 0.3307225 0.05715752
vt 0.3307225 0.05715752
vt 0.3307225 0.05715752
vt 0.3307225 0.05715752
vt 0.3307225 0.05715752
vt 0.3307225 0.05715752
vt 0.3307225 0.05715752
vt 0.3307225 0.05715752
vt 0.3307225 0.05715752
vt 0.3307225 0.05715752
vt 0.3307225 0.05715752
vt 0.3307225 0.05715752
vt 0.3307225 0.05715752
vt 0.3307225 0.05715752
vn -0.1165759 0.9324732 -0.341912
vn -0.1002052 0.9441721 -0.3138437
vn -0.1002053 0.9441721 -0.3138437
vn -0.1165759 0.9324732 -0.341912
vn -0.1002052 0.9441721 -0.3138437
vn 0.09830691 0.9023327 -0.4196801
vn 0.09830692 0.9023327 -0.4196802
vn 0.09830701 0.9023327 -0.4196801
vn 0.09830691 0.9023327 -0.4196802
vn 0.4607091 0.8827901 -0.09180809
vn 0.5535624 0.8235343 -0.1239355
vn 0.5535623 0.8235343 -0.1239355
vn 0.4607091 0.8827901 -0.09180808
vn 0.4320966 0.9003443 -0.05169914
vn 0.5487989 0.8356313 -0.02324307
vn 0.5487988 0.8356313 -0.02324307
vn 0.4320966 0.9003443 -0.05169917
vn -0.4976382 0.8634512 -0.08251224
vn -0.6202288 0.7833745 -0.04050451
vn -0.6202288 0.7833745 -0.04050451
vn -0.4976382 0.8634512 -0.08251221
vn 0.1744594 0.9747368 -0.139471
vn 0.1744594 0.9747368 -0.139471
vn 0.1744594 0.9747368 -0.139471
vn 0.1744594 0.9747368 -0.139471
vn 0.370576 0.9250659 0.08322637
vn 0.370576 0.9250659 0.08322637
vn 0.370576 0.9250659 0.08322637
vn 0.370576 0.9250659 0.08322637
vn 0.2674234 0.962975 -0.0341171
vn 0.2674234 0.962975 -0.0341171
vn 0.2674234 0.962975 -0.03411712
vn 0.2674234 0.962975 -0.03411712
vn -0.1228191 0.9452096 -0.3024803
vn -0.2193589 0.8977523 -0.3819978
vn -0.2193589 0.8977524 -0.3819978
vn -0.122819 0.9452096 -0.3024802
vn 0.2026961 0.917505 0.3421971
vn 0.2026961 0.917505 0.3421971
vn 0.202696 0.917505 0.3421971
vn 0.2026961 0.917505 0.3421971
vn -0.1688454 0.9317566 -0.3214355
vn -0.1688455 0.9317566 -0.3214356
vn -0.1688455 0.9317566 -0.3214356
vn -0.2250458 0.9249648 -0.3062589
vn -0.2250458 0.9249648 -0.3062589
vn 0.06833147 0.9958495 0.06012186
vn 0.06616983 0.9972705 0.03275969
vn 0.06616983 0.9972705 0.03275969
vn 0.06833149 0.9958495 0.06012186
vn 0.06616983 0.9972705 0.03275969
vn 0.2643508 0.9327903 -0.2449918
vn 0.2643508 0.9327903 -0.2449918
vn 0.2643509 0.9327903 -0.2449919
vn 0.2643509 0.9327903 -0.2449919
vn -0.1357007 0.9485583 0.2860464
vn -0.1247511 0.9498052 0.2868924
vn -0.1247511 0.9498052 0.2868924
vn 0.05011062 0.9125419 0.4059019
vn 0.02353191 0.9495115 0.3128485
vn 0.023532 0.9495115 0.3128485
vn 0.05011062 0.9125419 0.4059019
vn 0.023532 0.9495115 0.3128485
vn 0.2840701 0.9586353 0.01795828
vn 0.2840701 0.9586353 0.01795828
vn 0.2840701 0.9586353 0.01795828
vn 0.2840701 0.9586353 0.01795828
vn 0.08041321 0.8403044 -0.5361177
vn 0.08041329 0.8403044 -0.5361177
vn 0.0804133 0.8403044 -0.5361177
vn 0.08041329 0.8403044 -0.5361177
vn 0.1774429 0.9536448 -0.2430548
vn 0.1774429 0.9536448 -0.2430548
vn 0.1774429 0.9536448 -0.2430548
vn 0.1774429 0.9536448 -0.2430548
vn -0.2127817 0.6868771 0.6949273
vn -0.08041329 0.8403044 0.5361177
vn -0.08041337 0.8403044 0.5361177
vn -0.1823272 0.8578815 -0.4804123
vn -0.2294568 0.8644494 -0.4472995
vn -0.1823272 0.8578816 -0.4804123
vn -0.06603982 0.9976602 0.01769085
vn -0.02787314 0.9982083 -0.05294545
vn -0.06603981 0.9976602 0.01769085
vn -0.09161178 0.9602041 -0.2638473
vn -0.2183784 0.9610565 -0.1693551
vn -0.2183784 0.9610565 -0.1693551
vn -0.09161178 0.9602041 -0.2638473
vn -0.2183784 0.9610565 -0.1693551
vn -0.02595855 0.9990507 0.03498507
vn -0.02595855 0.9990507 0.03498507
vn -0.02595855 0.9990507 0.03498507
vn 0.006604451 0.9992313 0.03864165
vn 0.006604451 0.9992313 0.03864165
vn 0.0007152316 0.9999996 -0.0005786816
vn 0.0007152315 0.9999996 -0.0005786815
vn -0.0069134 0.9997517 -0.02118557
vn -0.0069134 0.9997517 -0.02118557
vn -0.006913398 0.9997517 -0.02118556
vn -0.006913399 0.9997517 -0.02118557
vn -0.03020138 0.9992252 -0.0252373
vn -0.03020138 0.9992252 -0.0252373
vn 0.02385016 0.9996985 0.005833836
vn 0.02861898 0.9992868 -0.02463467
vn 0.03457442 0.999384 0.00602034
vn 0.02861897 0.9992868 -0.02463467
vn 0.02861898 0.9992868 -0.02463467
vn -0.006296215 0.9998586 -0.01559256
vn -6.20865E-05 0.9999998 -0.0006671783
vn 0.03457442 0.999384 0.00602034
vn 0.03457441 0.999384 0.00602034
vn 0.03457442 0.999384 0.00602034
vn 0.0418315 0.9990232 -0.01423947
vn 0.01048674 0.9999104 0.00831741
vn -0.01900099 0.9998084 0.004705404
vn -0.01900098 0.9998084 0.004705403
vn -0.01900099 0.9998084 0.004705404
vn -0.01900098 0.9998084 0.004705404
vn -0.05888773 0.9981907 -0.01214854
vn -0.05888772 0.9981907 -0.01214854
vn 0.001375937 0.999999 -0.0003459892
vn 0.001375937 0.999999 -0.0003459891
vn 0.001375937 0.999999 -0.0003459891
vn 0.001375937 0.999999 -0.0003459891
vn 0.0009543327 0.9999995 -4.312544E-05
vn 0.0009543327 0.9999995 -4.312544E-05
vn 0.0009543328 0.9999995 -4.312544E-05
vn -0.05801614 0.9980662 0.02231593
vn -0.05801614 0.9980662 0.02231593
vn -0.05801614 0.9980662 0.02231593
vn -0.07634772 0.9970636 -0.005935094
vn -0.07634773 0.9970636 -0.005935094
vn -0.07634772 0.9970636 -0.005935094
vn -0.07634772 0.9970636 -0.005935094
vn -0.08942527 0.9958611 -0.01624495
vn -0.08942529 0.9958611 -0.01624495
vn 0.06737874 0.9950007 0.07371295
vn 0.06737874 0.9950007 0.07371294
vn 0.06737873 0.9950007 0.07371295
vn 0.06737874 0.9950007 0.07371296
vn 0.03711417 0.9983126 0.04466063
vn 0.03711417 0.9983126 0.04466063
vn 0.03711417 0.9983126 0.04466063
vn -0.06110117 0.9932688 0.09840553
vn -0.06110117 0.9932688 0.09840553
vn -0.06110116 0.9932688 0.09840553
vn -0.06110117 0.9932688 0.09840553
vn -0.07688622 0.9968183 -0.02101968
vn -0.07688623 0.9968183 -0.02101969
vn -0.07688621 0.9968183 -0.02101968
f 3/3/3 2/2/2 1/1/1
f 1/1/1 4/4/4 3/3/3
f 4/4/4 5/5/5 3/3/3
f 8/8/8 7/7/7 6/6/6
f 9/9/9 8/8/8 6/6/6
f 12/12/12 11/11/11 10/10/10
f 13/13/13 12/12/12 10/10/10
f 16/16/16 15/15/15 14/14/14
f 17/17/17 16/16/16 14/14/14
f 20/20/20 19/19/19 18/18/18
f 21/21/21 20/20/20 18/18/18
f 24/24/24 23/23/23 22/22/22
f 25/25/25 24/24/24 22/22/22
f 28/28/28 27/27/27 26/26/26
f 29/29/29 28/28/28 26/26/26
f 32/32/32 31/31/31 30/30/30
f 33/33/33 32/32/32 30/30/30
f 36/36/36 35/35/35 34/34/34
f 37/37/37 36/36/36 34/34/34
f 40/40/40 39/39/39 38/38/38
f 41/41/41 40/40/40 38/38/38
f 44/44/44 43/43/43 42/42/42
f 42/42/42 45/45/45 44/44/44
f 45/45/45 46/46/46 44/44/44
f 49/49/49 48/48/48 47/47/47
f 47/47/47 50/50/50 49/49/49
f 50/50/50 51/51/51 49/49/49
f 54/54/54 53/53/53 52/52/52
f 55/55/55 54/54/54 52/52/52
f 58/58/58 57/57/57 56/56/56
f 61/61/61 60/60/60 59/59/59
f 59/59/59 62/62/62 61/61/61
f 62/62/62 63/63/63 61/61/61
f 66/66/66 65/65/65 64/64/64
f 67/67/67 66/66/66 64/64/64
f 70/70/70 69/69/69 68/68/68
f 71/71/71 70/70/70 68/68/68
f 74/74/74 73/73/73 72/72/72
f 75/75/75 74/74/74 72/72/72
f 78/78/78 77/77/77 76/76/76
f 81/81/81 80/80/80 79/79/79
f 84/84/84 83/83/83 82/82/82
f 87/87/87 86/86/86 85/85/85
f 88/88/88 87/87/87 85/85/85
f 91/91/91 90/90/90 89/89/89
f 92/92/92 91/91/91 89/89/89
f 93/93/93 91/91/91 92/92/92
f 94/94/94 93/93/93 92/92/92
f 95/95/95 93/93/93 94/94/94
f 96/96/96 95/95/95 94/94/94
f 93/93/93 97/97/97 91/91/91
f 97/97/97 98/98/98 91/91/91
f 97/97/97 99/99/99 98/98/98
f 99/99/99 100/100/100 98/98/98
f 98/98/98 100/100/100 101/101/101
f 100/100/100 102/102/102 101/101/101
f 99/99/99 103/103/103 100/100/100
f 104/104/104 103/103/103 99/99/99
f 105/105/105 104/104/104 99/99/99
f 106/106/106 104/104/104 105/105/105
f 107/107/107 106/106/106 105/105/105
f 103/103/103 108/108/108 100/100/100
f 100/100/100 108/108/108 102/102/102
f 108/108/108 109/109/109 102/102/102
f 105/105/105 111/111/111 110/110/110
f 112/112/112 105/105/105 110/110/110
f 113/113/113 112/112/112 95/95/95
f 114/114/114 113/113/113 95/95/95
f 116/116/116 115/115/115 114/114/114
f 116/116/116 117/117/117 115/115/115
f 117/117/117 118/118/118 115/115/115
f 115/115/115 118/118/118 119/119/119
f 118/118/118 120/120/120 119/119/119
f 121/121/121 116/116/116 114/114/114
f 123/123/123 121/121/121 122/122/122
f 124/124/124 123/123/123 122/122/122
f 126/126/126 125/125/125 117/117/117
f 127/127/127 126/126/126 117/117/117
f 119/119/119 129/129/129 128/128/128
f 130/130/130 119/119/119 128/128/128
f 133/133/133 132/132/132 131/131/131
f 134/134/134 133/133/133 131/131/131
f 131/131/131 132/132/132 135/135/135
f 132/132/132 136/136/136 135/135/135
f 139/139/139 138/138/138 137/137/137
f 140/140/140 139/139/139 137/137/137
f 138/138/138 142/142/142 141/141/141
f 142/142/142 143/143/143 141/141/141
f 146/146/146 145/145/145 144/144/144
f 147/147/147 146/146/146 144/144/144
f 149/149/149 101/101/101 148/148/148
f 150/150/150 149/149/149 148/148/148
