g mountain18
v -30.41737 5.485092 36.11618
v -29.98996 3.775444 3.917908
v -15.60047 9.046844 12.89353
v -10.04414 6.482384 55.34966
v -13.74836 9.046844 -21.72672
v -44.23698 4.630272 -22.86648
v 17.73756 5.342621 61.04846
v 14.03333 6.197441 6.624847
v 35.40386 5.057678 19.44717
v 35.40386 5.627563 49.65084
v -44.23698 4.630272 -22.86648
v -25.28844 6.624847 -55.49216
v -9.616722 4.345322 -55.63463
v -13.74836 9.046844 -21.72672
v -40.24781 0.0712204 47.08638
v -30.41737 5.485092 36.11618
v -10.04414 6.482384 55.34966
v -9.616722 0.0712204 68.17197
v -41.95746 0.0712204 5.342621
v -29.98996 3.775444 3.917908
v -30.41737 5.485092 36.11618
v -40.24781 0.0712204 47.08638
v 18.0225 0.0712204 72.87349
v 17.73756 5.342621 61.04846
v 35.40386 5.627563 49.65084
v 47.51382 0.0712204 55.34966
v 47.51382 0.0712204 55.34966
v 35.40386 5.627563 49.65084
v 35.40386 5.057678 19.44717
v 52.07287 0.0712204 15.31554
v 52.07287 0.0712204 15.31554
v 35.40386 5.057678 19.44717
v 14.03333 6.197441 6.624847
v 26.85565 0.0712204 1.923332
v 26.85565 0.0712204 1.923332
v 14.03333 6.197441 6.624847
v 5.057709 4.772743 -15.17309
v 16.74026 0.0712204 -12.46616
v -56.48941 0.0712204 -29.13517
v -44.23698 4.630272 -22.86648
v -29.98996 3.775444 3.917908
v -41.95746 0.0712204 5.342621
v 16.74026 0.0712204 -12.46616
v 5.057709 4.772743 -15.17309
v 8.334526 4.487793 -41.24514
v 19.87461 0.0712204 -51.36052
v -3.205559 0.0712204 -71.30635
v -9.616722 4.345322 -55.63463
v -25.28844 6.624847 -55.49216
v -28.42279 0.0712204 -72.87352
v -28.42279 0.0712204 -72.87352
v -25.28844 6.624847 -55.49216
v -44.23698 4.630272 -22.86648
v -56.48941 0.0712204 -29.13517
v -10.04414 6.482384 55.34966
v 17.73756 5.342621 61.04846
v 18.0225 0.0712204 72.87349
v -9.616722 0.0712204 68.17197
v -15.60047 9.046844 12.89353
v 14.03333 6.197441 6.624847
v 17.73756 5.342621 61.04846
v -10.04414 6.482384 55.34966
v -13.74836 9.046844 -21.72672
v 5.057709 4.772743 -15.17309
v 14.03333 6.197441 6.624847
v -15.60047 9.046844 12.89353
v -9.616722 4.345322 -55.63463
v 8.334526 4.487793 -41.24514
v 19.87461 0.0712204 -51.36052
v 8.334526 4.487793 -41.24514
v -9.616722 4.345322 -55.63463
v -3.205559 0.0712204 -71.30635
vt -0.9123932 -1.168893
vt -0.889374 0.3174906
vt -0.1692014 -0.0968554
vt 0.1070292 -2.056777
vt -0.07383609 1.501336
vt -1.596393 1.55724
vt 1.498047 -2.319854
vt 1.313893 0.1925292
vt 2.376066 -0.3961051
vt 2.376066 -1.7937
vt -1.596393 1.55724
vt -0.6526048 3.060066
vt 0.1300485 3.066643
vt -0.07383609 1.501336
vt -1.399085 -1.675316
vt -0.9123932 -1.168893
vt 0.1070292 -2.056777
vt 0.12676 -2.645411
vt -1.487874 0.2550099
vt -0.889374 0.3174906
vt -0.9123932 -1.168893
vt -1.399085 -1.675316
vt 1.511201 -2.865738
vt 1.498047 -2.319854
vt 2.376066 -1.7937
vt 2.984431 -2.056777
vt 2.984431 -2.056777
vt 2.376066 -1.7937
vt 2.376066 -0.3961051
vt 3.211335 -0.2053745
vt 3.211335 -0.2053745
vt 2.376066 -0.3961051
vt 1.313893 0.1925292
vt 1.955143 0.4095674
vt 1.955143 0.4095674
vt 1.313893 0.1925292
vt 0.8633747 1.202086
vt 1.44872 1.077124
vt -2.211334 1.846624
vt -1.596393 1.55724
vt -0.889374 0.3174906
vt -1.487874 0.2550099
vt 1.44872 1.077124
vt 0.8633747 1.202086
vt 1.024509 2.405662
vt 1.606566 2.872623
vt 0.449029 3.79668
vt 0.1300485 3.066643
vt -0.6526048 3.060066
vt -0.8071625 3.865738
vt -0.8071625 3.865738
vt -0.6526048 3.060066
vt -1.596393 1.55724
vt -2.211334 1.846624
vt 0.1070292 -2.056777
vt 1.498047 -2.319854
vt 1.511201 -2.865738
vt 0.12676 -2.645411
vt -0.1692014 -0.0968554
vt 1.313893 0.1925292
vt 1.498047 -2.319854
vt 0.1070292 -2.056777
vt -0.07383609 1.501336
vt 0.8633747 1.202086
vt 1.313893 0.1925292
vt -0.1692014 -0.0968554
vt 0.1300485 3.066643
vt 1.024509 2.405662
vt 1.606566 2.872623
vt 1.024509 2.405662
vt 0.1300485 3.066643
vt 0.449029 3.79668
vn -0.1782105 0.9766446 0.1200266
vn -0.1782105 0.9766446 0.1200266
vn -0.1782105 0.9766446 0.1200266
vn -0.1782105 0.9766446 0.1200266
vn -0.1571991 0.9766446 0.1464711
vn -0.1571991 0.9766446 0.1464711
vn 0.05291519 0.997656 -0.04338703
vn 0.05291519 0.997656 -0.04338703
vn 0.05291519 0.997656 -0.04338703
vn 0.05291519 0.997656 -0.04338703
vn -0.05214196 0.997656 -0.0443127
vn -0.05214196 0.997656 -0.0443127
vn -0.05214196 0.997656 -0.0443127
vn -0.05214196 0.997656 -0.0443127
vn -0.304279 0.8925989 0.3326882
vn -0.304279 0.8925989 0.3326882
vn -0.304279 0.8925989 0.3326882
vn -0.304279 0.8925989 0.3326882
vn -0.4303476 0.8925989 0.1344175
vn -0.4303476 0.8925989 0.1344175
vn -0.4303476 0.8925989 0.1344175
vn -0.4303476 0.8925989 0.1344175
vn 0.1789837 0.9136104 0.3650765
vn 0.1789837 0.9136104 0.3650765
vn 0.1789837 0.9136104 0.3650765
vn 0.1789837 0.9136104 0.3650765
vn 0.2630294 0.9556332 -0.1325922
vn 0.2630294 0.9556332 -0.1325922
vn 0.2630294 0.9556332 -0.1325922
vn 0.2630294 0.9556332 -0.1325922
vn 0.1789837 0.9556332 -0.2339444
vn 0.1789837 0.9556332 -0.2339444
vn 0.1789837 0.9556332 -0.2339444
vn 0.1789837 0.9556332 -0.2339444
vn 0.3050523 0.9346218 -0.1828258
vn 0.3050523 0.9346218 -0.1828258
vn 0.3050523 0.9346218 -0.1828258
vn 0.3050523 0.9346218 -0.1828258
vn -0.4303476 0.8925989 0.1344175
vn -0.4303476 0.8925989 0.1344175
vn -0.4303476 0.8925989 0.1344175
vn -0.4303476 0.8925989 0.1344175
vn 0.3260637 0.9346218 0.1420024
vn 0.3260637 0.9346218 0.1420024
vn 0.3260637 0.9346218 0.1420024
vn 0.3260637 0.9346218 0.1420024
vn 0.03190374 0.9556332 -0.2928264
vn 0.03190374 0.9556332 -0.2928264
vn 0.03190374 0.9556332 -0.2928264
vn 0.03190374 0.9556332 -0.2928264
vn -0.3252904 0.9346218 -0.1437648
vn -0.3252904 0.9346218 -0.1437648
vn -0.3252904 0.9346218 -0.1437648
vn -0.3252904 0.9346218 -0.1437648
vn -0.05214196 0.8925989 0.4478262
vn -0.05214196 0.8925989 0.4478262
vn -0.05214196 0.8925989 0.4478262
vn -0.05214196 0.8925989 0.4478262
vn 0.09493802 0.997656 NaN
vn 0.09493802 0.997656 NaN
vn 0.09493802 0.997656 NaN
vn 0.09493802 0.997656 NaN
vn 0.1789837 0.9766446 -0.1188704
vn 0.1789837 0.9766446 -0.1188704
vn 0.1789837 0.9766446 -0.1188704
vn 0.1789837 0.9766446 -0.1188704
vn 0.1579723 0.9766446 -0.1456368
vn 0.1579723 0.9766446 -0.1456368
vn 0.1579723 0.9766446 -0.1456368
vn 0.1579723 0.9766446 -0.1456368
vn 0.1579723 0.9766446 -0.1456368
vn 0.1579723 0.9766446 -0.1456368
f 3/3/3 2/2/2 1/1/1
f 4/4/4 3/3/3 1/1/1
f 3/3/3 5/5/5 2/2/2
f 5/5/5 6/6/6 2/2/2
f 9/9/9 8/8/8 7/7/7
f 10/10/10 9/9/9 7/7/7
f 13/13/13 12/12/12 11/11/11
f 14/14/14 13/13/13 11/11/11
f 17/17/17 16/16/16 15/15/15
f 18/18/18 17/17/17 15/15/15
f 21/21/21 20/20/20 19/19/19
f 22/22/22 21/21/21 19/19/19
f 25/25/25 24/24/24 23/23/23
f 26/26/26 25/25/25 23/23/23
f 29/29/29 28/28/28 27/27/27
f 30/30/30 29/29/29 27/27/27
f 33/33/33 32/32/32 31/31/31
f 34/34/34 33/33/33 31/31/31
f 37/37/37 36/36/36 35/35/35
f 38/38/38 37/37/37 35/35/35
f 41/41/41 40/40/40 39/39/39
f 42/42/42 41/41/41 39/39/39
f 45/45/45 44/44/44 43/43/43
f 46/46/46 45/45/45 43/43/43
f 49/49/49 48/48/48 47/47/47
f 50/50/50 49/49/49 47/47/47
f 53/53/53 52/52/52 51/51/51
f 54/54/54 53/53/53 51/51/51
f 57/57/57 56/56/56 55/55/55
f 58/58/58 57/57/57 55/55/55
f 61/61/61 60/60/60 59/59/59
f 62/62/62 61/61/61 59/59/59
f 65/65/65 64/64/64 63/63/63
f 66/66/66 65/65/65 63/63/63
f 63/63/63 64/64/64 67/67/67
f 64/64/64 68/68/68 67/67/67
f 71/71/71 70/70/70 69/69/69
f 72/72/72 71/71/71 69/69/69
