g mountain13
v -22.22572 0.05922699 32.80518
v -7.112206 5.097061 33.68681
v -0.05922699 0.05922699 57.61655
v -0.05922699 0.05922699 57.61655
v -7.112206 5.097061 33.68681
v 34.95376 4.089493 34.69437
v 29.41214 0.05922699 56.48303
v 29.41214 0.05922699 56.48303
v 34.95376 4.089493 34.69437
v 60.01702 0.05922699 24.99654
v -22.22572 0.05922699 32.80518
v -32.80518 0.05922699 0.05922699
v -12.77977 6.734367 0.05922699
v -7.112206 5.097061 33.68681
v -7.112206 5.097061 33.68681
v -12.77977 6.734367 0.05922699
v 34.95376 6.734367 0.05922699
v 34.95376 4.089493 34.69437
v 34.95376 4.089493 34.69437
v 34.95376 6.734367 0.05922699
v 61.27648 0.05922699 0.05922699
v 60.01702 0.05922699 24.99654
v -32.80518 0.05922699 0.05922699
v -26.38194 0.05922699 -30.29376
v -10.1349 5.223007 -39.36187
v -12.77977 6.734367 0.05922699
v -12.77977 6.734367 0.05922699
v -10.1349 5.223007 -39.36187
v 34.95376 5.223007 -39.36187
v 34.95376 6.734367 0.05922699
v 34.95376 6.734367 0.05922699
v 34.95376 5.223007 -39.36187
v 53.97161 0.05922699 -25.00403
v 61.27648 0.05922699 0.05922699
v -26.38194 0.05922699 -30.29376
v -0.05922699 0.05922699 -71.22621
v -10.1349 5.223007 -39.36187
v -10.1349 5.223007 -39.36187
v -0.05922699 0.05922699 -71.22621
v 34.95376 0.05922699 -61.15053
v 34.95376 5.223007 -39.36187
v 34.95376 5.223007 -39.36187
v 34.95376 0.05922699 -61.15053
v 53.97161 0.05922699 -25.00403
vt 0.9682879 1.286202
vt 1.507091 0.4976096
vt 2.919126 0.8320389
vt 2.919126 0.8320389
vt 1.507091 0.4976096
vt 2.937706 -1.744306
vt 3.831582 -0.7905631
vt 3.831582 -0.7905631
vt 2.937706 -1.744306
vt 3.276264 -3.385488
vt 0.9682879 1.286202
vt -1.00113 0.8733263
vt -0.3467216 -0.2042794
vt 1.507091 0.4976096
vt 1.507091 0.4976096
vt -0.3467216 -0.2042794
vt 1.222207 -2.786818
vt 2.937706 -1.744306
vt 2.937706 -1.744306
vt 1.222207 -2.786818
vt 2.085117 -4.20711
vt 3.276264 -3.385488
vt -1.00113 0.8733263
vt -2.283109 -0.3818159
vt -2.202598 -1.531675
vt -0.3467216 -0.2042794
vt -0.3467216 -0.2042794
vt -2.202598 -1.531675
vt -0.7224386 -3.967643
vt 1.222207 -2.786818
vt 1.222207 -2.786818
vt -0.7224386 -3.967643
vt 0.6111503 -4.562184
vt 2.085117 -4.20711
vt -2.283109 -0.3818159
vt -3.44329 -3.034543
vt -2.202598 -1.531675
vt -2.202598 -1.531675
vt -3.44329 -3.034543
vt -1.79798 -4.622051
vt -0.7224386 -3.967643
vt -0.7224386 -3.967643
vt -1.79798 -4.622051
vt 0.6111503 -4.562184
vn -0.3289774 0.9098738 0.2527912
vn -0.3289774 0.9098738 0.2527912
vn -0.3289774 0.9098738 0.2527912
vn 0.006155193 0.9769003 0.2136067
vn 0.006155193 0.9769003 0.2136067
vn 0.006155193 0.9769003 0.2136067
vn 0.006155193 0.9769003 0.2136067
vn 0.2519191 0.932216 0.2598269
vn 0.2519191 0.932216 0.2598269
vn 0.2519191 0.932216 0.2598269
vn -0.3289774 0.932216 0.1508212
vn -0.3289774 0.932216 0.1508212
vn -0.3289774 0.932216 0.1508212
vn -0.3289774 0.932216 0.1508212
vn 0.006155193 0.9992425 0.03842404
vn 0.006155193 0.9992425 0.03842404
vn 0.006155193 0.9992425 0.03842404
vn 0.006155193 0.9992425 0.03842404
vn 0.2072348 0.9769003 0.05214903
vn 0.2072348 0.9769003 0.05214903
vn 0.2072348 0.9769003 0.05214903
vn 0.2072348 0.9769003 0.05214903
vn -0.3289774 0.932216 -0.1508212
vn -0.3289774 0.932216 -0.1508212
vn -0.3289774 0.932216 -0.1508212
vn -0.3289774 0.932216 -0.1508212
vn 0.006155193 0.9992425 -0.03842404
vn 0.006155193 0.9992425 -0.03842404
vn 0.006155193 0.9992425 -0.03842404
vn 0.006155193 0.9992425 -0.03842404
vn 0.2742613 0.9545583 -0.1166159
vn 0.2742613 0.9545583 -0.1166159
vn 0.2742613 0.9545583 -0.1166159
vn 0.2742613 0.9545583 -0.1166159
vn -0.4406883 0.8651896 -0.2392506
vn -0.4406883 0.8651896 -0.2392506
vn -0.4406883 0.8651896 -0.2392506
vn 0.02849737 0.9769003 -0.2117867
vn 0.02849737 0.9769003 -0.2117867
vn 0.02849737 0.9769003 -0.2117867
vn 0.02849737 0.9769003 -0.2117867
vn 0.4083143 0.8875316 -0.2134644
vn 0.4083143 0.8875316 -0.2134644
vn 0.4083143 0.8875316 -0.2134644
f 3/3/3 2/2/2 1/1/1
f 6/6/6 5/5/5 4/4/4
f 7/7/7 6/6/6 4/4/4
f 10/10/10 9/9/9 8/8/8
f 13/13/13 12/12/12 11/11/11
f 14/14/14 13/13/13 11/11/11
f 17/17/17 16/16/16 15/15/15
f 18/18/18 17/17/17 15/15/15
f 21/21/21 20/20/20 19/19/19
f 22/22/22 21/21/21 19/19/19
f 25/25/25 24/24/24 23/23/23
f 26/26/26 25/25/25 23/23/23
f 29/29/29 28/28/28 27/27/27
f 30/30/30 29/29/29 27/27/27
f 33/33/33 32/32/32 31/31/31
f 34/34/34 33/33/33 31/31/31
f 37/37/37 36/36/36 35/35/35
f 40/40/40 39/39/39 38/38/38
f 41/41/41 40/40/40 38/38/38
f 44/44/44 43/43/43 42/42/42
