g mountain10
v -54.20158 3.078171 86.32101
v -60.62549 3.078171 61.69614
v -28.50606 3.078171 71.86728
v -25.82944 3.078171 95.68919
v 3.078049 3.078171 76.95285
v 8.698944 3.078171 112.0166
v 50.45421 3.078171 75.07921
v 39.74773 3.078171 99.70412
v 90.87115 3.078171 78.82649
v 65.44328 3.078171 97.29517
v -42.1568 3.078171 34.92993
v -92.20958 3.078171 21.27917
v -3.345825 3.078171 30.37968
v 53.13082 3.078171 20.74385
v 101.8453 3.078171 11.3757
v -50.45433 3.078171 2.007523
v -89.2653 3.078171 4.951797
v -8.699081 3.078171 -4.684021
v 48.58057 3.078171 -18.06712
v 124.3289 3.078171 -45.36863
v -67.31703 3.078171 -40.81838
v -124.329 3.078171 -26.63229
v -100.2394 3.078171 -99.97165
v -110.9459 3.078171 -63.8373
v -34.12695 3.078171 -112.0164
v -14.31998 3.078171 -59.28705
v 36.26812 3.078171 -87.39154
v 49.65122 3.078171 -62.76665
v 69.72586 3.078171 -95.68906
v 99.43633 3.078171 -78.5587
v -25.82944 3.078171 95.68919
v -28.50606 -0.1337738 105.5927
v -59.82248 -0.1337738 95.15387
v -54.20158 3.078171 86.32101
v 8.698944 3.078171 112.0166
v 9.7696 -0.1337738 123.2584
v -54.20158 3.078171 86.32101
v -59.82248 -0.1337738 95.15387
v -66.78171 -0.1337738 68.12001
v -60.62549 3.078171 61.69614
v 39.74773 3.078171 99.70412
v 43.76266 -0.1337738 109.6076
v 9.7696 -0.1337738 123.2584
v 8.698944 3.078171 112.0166
v 65.44328 3.078171 97.29517
v 72.13482 -0.1337738 107.1986
v 43.76266 -0.1337738 109.6076
v 39.74773 3.078171 99.70412
v 90.87115 3.078171 78.82649
v 99.97165 -0.1337738 86.85634
v 72.13482 -0.1337738 107.1986
v 65.44328 3.078171 97.29517
v -60.62549 3.078171 61.69614
v -66.78171 -0.1337738 68.12001
v -101.5777 -0.1337738 23.42047
v -92.20958 3.078171 21.27917
v 101.8453 3.078171 11.3757
v 112.0164 -0.1337738 12.714
v 99.97165 -0.1337738 86.85634
v 90.87115 3.078171 78.82649
v -92.20958 3.078171 21.27917
v -101.5777 -0.1337738 23.42047
v -98.36581 -0.1337738 5.219467
v -89.2653 3.078171 4.951797
v 124.3289 3.078171 -45.36863
v 136.909 -0.1337738 -49.91888
v 112.0164 -0.1337738 12.714
v 101.8453 3.078171 11.3757
v -89.2653 3.078171 4.951797
v -98.36581 -0.1337738 5.219467
v -136.9091 -0.1337738 -29.57658
v -124.329 3.078171 -26.63229
v 99.43633 3.078171 -78.5587
v 109.6075 -0.1337738 -86.58856
v 136.909 -0.1337738 -49.91888
v 124.3289 3.078171 -45.36863
v -110.9459 3.078171 -63.8373
v -122.1877 -0.1337738 -70.26118
v -110.4106 -0.1337738 -110.1428
v -100.2394 3.078171 -99.97165
v -124.329 3.078171 -26.63229
v -136.9091 -0.1337738 -29.57658
v -100.2394 3.078171 -99.97165
v -110.4106 -0.1337738 -110.1428
v -37.60655 -0.1337738 -123.2582
v -34.12695 3.078171 -112.0164
v -34.12695 3.078171 -112.0164
v -37.60655 -0.1337738 -123.2582
v 40.0154 -0.1337738 -96.22439
v 36.26812 3.078171 -87.39154
v 36.26812 3.078171 -87.39154
v 40.0154 -0.1337738 -96.22439
v 76.95273 -0.1337738 -105.5926
v 69.72586 3.078171 -95.68906
v 69.72586 3.078171 -95.68906
v 76.95273 -0.1337738 -105.5926
v 109.6075 -0.1337738 -86.58856
v 99.43633 3.078171 -78.5587
v 18.8701 4.951797 10.57271
v 7.360641 4.951797 -5.219345
v 22.34971 4.951797 -4.416367
v 26.89996 4.951797 10.57271
v 37.07111 4.951797 -0.9367523
v 35.7328 4.951797 19.6732
v 51.25719 4.951797 3.613495
v 43.76266 4.951797 25.56177
v 74.00845 4.951797 4.951797
v 51.79251 4.951797 25.56177
v 18.33478 4.951797 -22.34971
v 2.542725 4.951797 -26.63229
v 35.19748 4.951797 -19.13776
v 53.66615 4.951797 -15.3905
v 75.88209 4.951797 -15.92582
v 13.51687 4.951797 -44.29798
v -12.44635 4.951797 -40.0154
v 32.78852 4.951797 -39.21241
v 54.73679 4.951797 -34.12683
v 73.47313 4.951797 -33.59151
v 11.37556 4.951797 -57.41341
v -9.50206 4.951797 -55.53978
v 28.50593 4.951797 -60.09003
v 51.25719 4.951797 -49.1159
v 67.85223 4.951797 -47.50993
v 26.89996 4.951797 10.57271
v 23.42036 3.078171 17.53192
v 13.78453 3.078171 17.53192
v 18.8701 4.951797 10.57271
v 18.8701 4.951797 10.57271
v 13.78453 3.078171 17.53192
v -0.1338959 3.078171 -2.007401
v 7.360641 4.951797 -5.219345
v 35.7328 4.951797 19.6732
v 34.39449 3.078171 28.50606
v 23.42036 3.078171 17.53192
v 26.89996 4.951797 10.57271
v 43.76266 4.951797 25.56177
v 44.03032 3.078171 35.73293
v 51.79251 4.951797 25.56177
v 53.93381 3.078171 35.73293
v 44.03032 3.078171 35.73293
v 43.76266 4.951797 25.56177
v 74.00845 4.951797 4.951797
v 80.96767 3.078171 10.57271
v 53.93381 3.078171 35.73293
v 51.79251 4.951797 25.56177
v 7.360641 4.951797 -5.219345
v -0.1338959 3.078171 -2.007401
v -6.290115 3.078171 -27.9706
v 2.542725 4.951797 -26.63229
v 75.88209 4.951797 -15.92582
v 83.10896 3.078171 -14.85518
v 80.96767 3.078171 10.57271
v 74.00845 4.951797 4.951797
v 73.47313 4.951797 -33.59151
v 80.43234 3.078171 -36.53578
v 2.542725 4.951797 -26.63229
v -6.290115 3.078171 -27.9706
v -24.49112 3.078171 -44.29798
v -12.44635 4.951797 -40.0154
v -12.44635 4.951797 -40.0154
v -24.49112 3.078171 -44.29798
v -21.01152 3.078171 -63.03431
v -9.50206 4.951797 -55.53978
v 67.85223 4.951797 -47.50993
v 73.47313 3.078171 -53.66615
v 80.43234 3.078171 -36.53578
v 73.47313 4.951797 -33.59151
v -9.50206 4.951797 -55.53978
v -21.01152 3.078171 -63.03431
v 4.684021 3.078171 -65.44328
v 11.37556 4.951797 -57.41341
v 25.56165 3.078171 -68.92287
v 28.50593 4.951797 -60.09003
v 28.50593 4.951797 -60.09003
v 25.56165 3.078171 -68.92287
v 53.13082 3.078171 -55.53978
v 51.25719 4.951797 -49.1159
v 51.25719 4.951797 -49.1159
v 53.13082 3.078171 -55.53978
v 73.47313 3.078171 -53.66615
v 67.85223 4.951797 -47.50993
vt -2.506077 -4.806477
vt -2.850582 -3.298808
vt -1.087313 -3.917434
vt -0.9280257 -5.391764
vt 0.6759567 -4.232303
vt 0.9871216 -6.384529
vt 3.298635 -4.121173
vt 2.702234 -5.625137
vt 5.528651 -4.343433
vt 4.128407 -5.480668
vt -1.839295 -1.642964
vt -4.610147 -0.8057823
vt 0.3203392 -1.376252
vt 3.435695 -0.7798519
vt 6.136164 -0.205678
vt -2.298634 0.3684955
vt -4.450859 0.2017999
vt 0.01658297 0.7870874
vt 3.194913 1.605748
vt 7.384528 3.283817
vt -3.232129 3.013399
vt -6.384529 2.142879
vt -5.050963 6.651068
vt -5.639955 4.417347
vt -1.387364 7.384528
vt -0.2945824 4.139521
vt 2.505904 5.869451
vt 3.246774 4.358077
vt 4.36919 6.38806
vt 6.006512 5.328616
vt -0.9280257 -5.391764
vt -1.0762 -5.988163
vt -2.809834 -5.347311
vt -2.506077 -4.806477
vt 0.9871216 -6.384529
vt 1.038983 -7.08465
vt -2.506077 -4.806477
vt -2.809834 -5.347311
vt -3.191381 -3.687764
vt -2.850582 -3.298808
vt 2.702234 -5.625137
vt 2.9282 -6.247468
vt 1.038983 -7.08465
vt 0.9871216 -6.384529
vt 4.128407 -5.480668
vt 4.498842 -6.091885
vt 2.9282 -6.247468
vt 2.702234 -5.625137
vt 5.528651 -4.343433
vt 6.039851 -4.836112
vt 4.498842 -6.091885
vt 4.128407 -5.480668
vt -2.850582 -3.298808
vt -3.191381 -3.687764
vt -5.128755 -0.9391384
vt -4.610147 -0.8057823
vt 6.136164 -0.205678
vt 6.710338 -0.2797651
vt 6.039851 -4.836112
vt 5.528651 -4.343433
vt -4.610147 -0.8057823
vt -5.128755 -0.9391384
vt -4.954651 0.1721654
vt -4.450859 0.2017999
vt 7.384528 3.283817
vt 8.08465 3.569052
vt 6.710338 -0.2797651
vt 6.136164 -0.205678
vt -4.450859 0.2017999
vt -4.954651 0.1721654
vt -7.08465 2.309574
vt -6.384529 2.142879
vt 6.006512 5.328616
vt 6.565868 5.821294
vt 8.08465 3.569052
vt 7.384528 3.283817
vt -5.639955 4.417347
vt -6.265989 4.817416
vt -5.614024 7.273398
vt -5.050963 6.651068
vt -6.384529 2.142879
vt -7.08465 2.309574
vt -5.050963 6.651068
vt -5.614024 7.273398
vt -1.57999 8.08465
vt -1.387364 7.384528
vt -1.387364 7.384528
vt -1.57999 8.08465
vt 2.709643 6.41399
vt 2.505904 5.869451
vt 2.505904 5.869451
vt 2.709643 6.41399
vt 4.761851 6.984459
vt 4.36919 6.38806
vt 4.36919 6.38806
vt 4.761851 6.984459
vt 6.565868 5.821294
vt 6.006512 5.328616
vt 1.550182 -0.1538172
vt 0.9130349 0.8278351
vt 1.7354 0.7722697
vt 1.994704 -0.1538172
vt 2.561469 0.5537133
vt 2.487382 -0.7131734
vt 3.335678 0.2832956
vt 2.931904 -1.068791
vt 4.59886 0.1906872
vt 3.372722 -1.068791
vt 1.520548 1.879869
vt 0.6352091 2.142879
vt 2.44293 1.683539
vt 3.472738 1.442757
vt 4.706286 1.4798
vt 1.246427 3.217138
vt -0.1834521 2.965243
vt 2.313278 2.917087
vt 3.528304 2.594809
vt 4.576633 2.568878
vt 1.135296 4.024686
vt -0.02416515 3.906147
vt 2.083609 4.198791
vt 3.335678 3.528304
vt 4.265469 3.428287
vt 1.994704 -0.1538172
vt 1.802078 -0.5761127
vt 1.261244 -0.5761127
vt 1.550182 -0.1538172
vt 1.550182 -0.1538172
vt 1.261244 -0.5761127
vt 0.4870348 0.6240959
vt 0.9130349 0.8278351
vt 2.487382 -0.7131734
vt 2.402183 -1.257712
vt 1.802078 -0.5761127
vt 1.994704 -0.1538172
vt 2.931904 -1.068791
vt 2.943017 -1.691121
vt 3.372722 -1.068791
vt 3.483851 -1.691121
vt 2.943017 -1.691121
vt 2.931904 -1.068791
vt 4.59886 0.1906872
vt 4.980408 -0.1575217
vt 3.483851 -1.691121
vt 3.372722 -1.068791
vt 0.9130349 0.8278351
vt 0.4870348 0.6240959
vt 0.146235 2.228078
vt 0.6352091 2.142879
vt 4.706286 1.4798
vt 5.11006 1.416826
vt 4.980408 -0.1575217
vt 4.59886 0.1906872
vt 4.576633 2.568878
vt 4.950773 2.746687
vt 0.6352091 2.142879
vt 0.146235 2.228078
vt -0.8539386 3.231956
vt -0.1834521 2.965243
vt -0.1834521 2.965243
vt -0.8539386 3.231956
vt -0.6613126 4.376599
vt -0.02416515 3.906147
vt 4.265469 3.428287
vt 4.572929 3.795016
vt 4.950773 2.746687
vt 4.576633 2.568878
vt -0.02416515 3.906147
vt -0.6613126 4.376599
vt 0.7537484 4.521069
vt 1.135296 4.024686
vt 1.909504 4.735921
vt 2.083609 4.198791
vt 2.083609 4.198791
vt 1.909504 4.735921
vt 3.4394 3.91726
vt 3.335678 3.528304
vt 3.335678 3.528304
vt 3.4394 3.91726
vt 4.572929 3.795016
vt 4.265469 3.428287
vn -0.005663455 0.999984 0
vn -0.005663455 0.999984 0
vn -0.005663455 0.999984 0
vn -0.005663455 0.999984 0
vn -0.005663455 0.999984 0
vn -0.005663455 0.999984 0
vn -0.005663455 0.999984 0
vn -0.005663455 0.999984 0
vn -0.005663455 0.999984 0
vn -0.005663455 0.999984 0
vn -0.005663455 0.999984 0
vn -0.005663455 0.999984 0
vn -0.005663455 0.999984 0
vn -0.005663455 0.999984 0
vn -0.005663455 0.999984 0
vn -0.005663455 0.999984 0
vn -0.005663455 0.999984 0
vn -0.005663455 0.999984 0
vn -0.005663455 0.999984 0
vn -0.005663455 0.999984 0
vn -0.005663455 0.999984 0
vn -0.005663455 0.999984 0
vn -0.005663455 0.999984 0
vn -0.005663455 0.999984 0
vn -0.005663455 0.999984 0
vn -0.005663455 0.999984 0
vn -0.005663455 0.999984 0
vn -0.005663455 0.999984 0
vn -0.005663455 0.999984 0
vn -0.005663455 0.999984 0
vn -0.08683249 0.9593994 0.2683522
vn -0.08683249 0.9593994 0.2683522
vn -0.08683249 0.9593994 0.2683522
vn -0.08683249 0.9593994 0.2683522
vn -0.127417 0.9593994 0.25163
vn -0.127417 0.9593994 0.25163
vn -0.3709241 0.918815 0.1348865
vn -0.3709241 0.918815 0.1348865
vn -0.3709241 0.918815 0.1348865
vn -0.3709241 0.918815 0.1348865
vn 0.09579782 0.9593994 0.2652839
vn 0.09579782 0.9593994 0.2652839
vn 0.09579782 0.9593994 0.2652839
vn 0.09579782 0.9593994 0.2652839
vn 0.03492106 0.9593994 0.2798809
vn 0.03492106 0.9593994 0.2798809
vn 0.03492106 0.9593994 0.2798809
vn 0.03492106 0.9593994 0.2798809
vn 0.1566746 0.9593994 0.2345333
vn 0.1566746 0.9593994 0.2345333
vn 0.1566746 0.9593994 0.2345333
vn 0.1566746 0.9593994 0.2345333
vn -0.2694628 0.9391072 0.2132308
vn -0.2694628 0.9391072 0.2132308
vn -0.2694628 0.9391072 0.2132308
vn -0.2694628 0.9391072 0.2132308
vn 0.2784281 0.9593994 0.04506164
vn 0.2784281 0.9593994 0.04506164
vn 0.2784281 0.9593994 0.04506164
vn 0.2784281 0.9593994 0.04506164
vn -0.3303396 0.9391072 -0.09462205
vn -0.3303396 0.9391072 -0.09462205
vn -0.3303396 0.9391072 -0.09462205
vn -0.3303396 0.9391072 -0.09462205
vn 0.2784281 0.9593994 0.04506164
vn 0.2784281 0.9593994 0.04506164
vn 0.2784281 0.9593994 0.04506164
vn 0.2784281 0.9593994 0.04506164
vn -0.289755 0.8985227 0.3296953
vn -0.289755 0.8985227 0.3296953
vn -0.289755 0.8985227 0.3296953
vn -0.289755 0.8985227 0.3296953
vn 0.1769668 0.9796917 -0.09427085
vn 0.1769668 0.9796917 -0.09427085
vn 0.1769668 0.9796917 -0.09427085
vn 0.1769668 0.9796917 -0.09427085
vn -0.2288783 0.9796917 NaN
vn -0.2288783 0.9796917 NaN
vn -0.2288783 0.9796917 NaN
vn -0.2288783 0.9796917 NaN
vn -0.208586 0.9796917 NaN
vn -0.208586 0.9796917 NaN
vn -0.04624796 0.9593994 -0.2782336
vn -0.04624796 0.9593994 -0.2782336
vn -0.04624796 0.9593994 -0.2782336
vn -0.04624796 0.9593994 -0.2782336
vn 0.09579782 0.9593994 -0.2652839
vn 0.09579782 0.9593994 -0.2652839
vn 0.09579782 0.9593994 -0.2652839
vn 0.09579782 0.9593994 -0.2652839
vn -0.08683249 0.9391072 -0.3324721
vn -0.08683249 0.9391072 -0.3324721
vn -0.08683249 0.9391072 -0.3324721
vn -0.08683249 0.9391072 -0.3324721
vn 0.1160901 0.9593994 -0.2570522
vn 0.1160901 0.9593994 -0.2570522
vn 0.1160901 0.9593994 -0.2570522
vn 0.1160901 0.9593994 -0.2570522
vn -0.005663455 0.999984 0
vn -0.005663455 0.999984 0
vn -0.005663455 0.999984 0
vn -0.005663455 0.999984 0
vn -0.005663455 0.999984 0
vn -0.005663455 0.999984 0
vn -0.005663455 0.999984 0
vn -0.005663455 0.999984 0
vn -0.005663455 0.999984 0
vn -0.005663455 0.999984 0
vn -0.005663455 0.999984 0
vn -0.005663455 0.999984 0
vn -0.005663455 0.999984 0
vn -0.005663455 0.999984 0
vn -0.005663455 0.999984 0
vn -0.005663455 0.999984 0
vn -0.005663455 0.999984 0
vn -0.005663455 0.999984 0
vn -0.005663455 0.999984 0
vn -0.005663455 0.999984 0
vn -0.005663455 0.999984 0
vn -0.005663455 0.999984 0
vn -0.005663455 0.999984 0
vn -0.005663455 0.999984 0
vn -0.005663455 0.999984 0
vn -0.005663455 0.9796917 0.2004299
vn -0.005663455 0.9796917 0.2004299
vn -0.005663455 0.9796917 0.2004299
vn -0.005663455 0.9796917 0.2004299
vn -0.1477093 0.9796917 0.1355957
vn -0.1477093 0.9796917 0.1355957
vn -0.1477093 0.9796917 0.1355957
vn -0.1477093 0.9796917 0.1355957
vn -0.1477093 0.9796917 0.1355957
vn -0.1477093 0.9796917 0.1355957
vn -0.1477093 0.9796917 0.1355957
vn -0.1477093 0.9796917 0.1355957
vn -0.1071247 0.9796917 0.169495
vn -0.1071247 0.9796917 0.169495
vn -0.005663455 0.9796917 0.2004299
vn -0.005663455 0.9796917 0.2004299
vn -0.005663455 0.9796917 0.2004299
vn -0.005663455 0.9796917 0.2004299
vn 0.1160901 0.9796917 0.1634849
vn 0.1160901 0.9796917 0.1634849
vn 0.1160901 0.9796917 0.1634849
vn 0.1160901 0.9796917 0.1634849
vn -0.1680015 0.9796917 0.1094518
vn -0.1680015 0.9796917 0.1094518
vn -0.1680015 0.9796917 0.1094518
vn -0.1680015 0.9796917 0.1094518
vn 0.1972591 0.9796917 0.03595919
vn 0.1972591 0.9796917 0.03595919
vn 0.1972591 0.9796917 0.03595919
vn 0.1972591 0.9796917 0.03595919
vn 0.2175514 0.9796917 NaN
vn 0.2175514 0.9796917 NaN
vn -0.208586 0.9593994 0.1898543
vn -0.208586 0.9593994 0.1898543
vn -0.208586 0.9593994 0.1898543
vn -0.208586 0.9593994 0.1898543
vn -0.127417 0.999984 NaN
vn -0.127417 0.999984 NaN
vn -0.127417 0.999984 NaN
vn -0.127417 0.999984 NaN
vn 0.1972591 0.9796917 -0.03595919
vn 0.1972591 0.9796917 -0.03595919
vn 0.1972591 0.9796917 -0.03595919
vn 0.1972591 0.9796917 -0.03595919
vn -0.005663455 0.9796917 -0.2004299
vn -0.005663455 0.9796917 -0.2004299
vn -0.005663455 0.9796917 -0.2004299
vn -0.005663455 0.9796917 -0.2004299
vn -0.02595571 0.9796917 -0.1988228
vn -0.02595571 0.9796917 -0.1988228
vn 0.09579782 0.9796917 -0.1761449
vn 0.09579782 0.9796917 -0.1761449
vn 0.09579782 0.9796917 -0.1761449
vn 0.09579782 0.9796917 -0.1761449
vn 0.0146288 0.9796917 -0.1999756
vn 0.0146288 0.9796917 -0.1999756
vn 0.0146288 0.9796917 -0.1999756
vn 0.0146288 0.9796917 -0.1999756
f 3/3/3 2/2/2 1/1/1
f 4/4/4 3/3/3 1/1/1
f 5/5/5 3/3/3 4/4/4
f 6/6/6 5/5/5 4/4/4
f 7/7/7 5/5/5 6/6/6
f 8/8/8 7/7/7 6/6/6
f 9/9/9 7/7/7 8/8/8
f 10/10/10 9/9/9 8/8/8
f 3/3/3 11/11/11 2/2/2
f 11/11/11 12/12/12 2/2/2
f 13/13/13 11/11/11 3/3/3
f 5/5/5 13/13/13 3/3/3
f 14/14/14 13/13/13 5/5/5
f 7/7/7 14/14/14 5/5/5
f 15/15/15 14/14/14 7/7/7
f 9/9/9 15/15/15 7/7/7
f 11/11/11 16/16/16 12/12/12
f 16/16/16 17/17/17 12/12/12
f 18/18/18 16/16/16 11/11/11
f 13/13/13 18/18/18 11/11/11
f 19/19/19 18/18/18 13/13/13
f 14/14/14 19/19/19 13/13/13
f 20/20/20 19/19/19 14/14/14
f 15/15/15 20/20/20 14/14/14
f 16/16/16 21/21/21 17/17/17
f 21/21/21 22/22/22 17/17/17
f 21/21/21 23/23/23 22/22/22
f 23/23/23 24/24/24 22/22/22
f 25/25/25 23/23/23 21/21/21
f 26/26/26 25/25/25 21/21/21
f 26/26/26 21/21/21 16/16/16
f 18/18/18 26/26/26 16/16/16
f 27/27/27 25/25/25 26/26/26
f 28/28/28 27/27/27 26/26/26
f 28/28/28 26/26/26 18/18/18
f 19/19/19 28/28/28 18/18/18
f 29/29/29 27/27/27 28/28/28
f 30/30/30 29/29/29 28/28/28
f 30/30/30 28/28/28 19/19/19
f 20/20/20 30/30/30 19/19/19
f 33/33/33 32/32/32 31/31/31
f 34/34/34 33/33/33 31/31/31
f 31/31/31 32/32/32 35/35/35
f 32/32/32 36/36/36 35/35/35
f 39/39/39 38/38/38 37/37/37
f 40/40/40 39/39/39 37/37/37
f 43/43/43 42/42/42 41/41/41
f 44/44/44 43/43/43 41/41/41
f 47/47/47 46/46/46 45/45/45
f 48/48/48 47/47/47 45/45/45
f 51/51/51 50/50/50 49/49/49
f 52/52/52 51/51/51 49/49/49
f 55/55/55 54/54/54 53/53/53
f 56/56/56 55/55/55 53/53/53
f 59/59/59 58/58/58 57/57/57
f 60/60/60 59/59/59 57/57/57
f 63/63/63 62/62/62 61/61/61
f 64/64/64 63/63/63 61/61/61
f 67/67/67 66/66/66 65/65/65
f 68/68/68 67/67/67 65/65/65
f 71/71/71 70/70/70 69/69/69
f 72/72/72 71/71/71 69/69/69
f 75/75/75 74/74/74 73/73/73
f 76/76/76 75/75/75 73/73/73
f 79/79/79 78/78/78 77/77/77
f 80/80/80 79/79/79 77/77/77
f 77/77/77 78/78/78 81/81/81
f 78/78/78 82/82/82 81/81/81
f 85/85/85 84/84/84 83/83/83
f 86/86/86 85/85/85 83/83/83
f 89/89/89 88/88/88 87/87/87
f 90/90/90 89/89/89 87/87/87
f 93/93/93 92/92/92 91/91/91
f 94/94/94 93/93/93 91/91/91
f 97/97/97 96/96/96 95/95/95
f 98/98/98 97/97/97 95/95/95
f 101/101/101 100/100/100 99/99/99
f 102/102/102 101/101/101 99/99/99
f 103/103/103 101/101/101 102/102/102
f 104/104/104 103/103/103 102/102/102
f 105/105/105 103/103/103 104/104/104
f 106/106/106 105/105/105 104/104/104
f 107/107/107 105/105/105 106/106/106
f 108/108/108 107/107/107 106/106/106
f 101/101/101 109/109/109 100/100/100
f 109/109/109 110/110/110 100/100/100
f 111/111/111 109/109/109 101/101/101
f 103/103/103 111/111/111 101/101/101
f 112/112/112 111/111/111 103/103/103
f 105/105/105 112/112/112 103/103/103
f 113/113/113 112/112/112 105/105/105
f 107/107/107 113/113/113 105/105/105
f 109/109/109 114/114/114 110/110/110
f 114/114/114 115/115/115 110/110/110
f 116/116/116 114/114/114 109/109/109
f 111/111/111 116/116/116 109/109/109
f 117/117/117 116/116/116 111/111/111
f 112/112/112 117/117/117 111/111/111
f 118/118/118 117/117/117 112/112/112
f 113/113/113 118/118/118 112/112/112
f 114/114/114 119/119/119 115/115/115
f 119/119/119 120/120/120 115/115/115
f 121/121/121 119/119/119 114/114/114
f 116/116/116 121/121/121 114/114/114
f 122/122/122 121/121/121 116/116/116
f 117/117/117 122/122/122 116/116/116
f 123/123/123 122/122/122 117/117/117
f 118/118/118 123/123/123 117/117/117
f 126/126/126 125/125/125 124/124/124
f 127/127/127 126/126/126 124/124/124
f 130/130/130 129/129/129 128/128/128
f 131/131/131 130/130/130 128/128/128
f 134/134/134 133/133/133 132/132/132
f 135/135/135 134/134/134 132/132/132
f 132/132/132 133/133/133 136/136/136
f 133/133/133 137/137/137 136/136/136
f 140/140/140 139/139/139 138/138/138
f 141/141/141 140/140/140 138/138/138
f 144/144/144 143/143/143 142/142/142
f 145/145/145 144/144/144 142/142/142
f 148/148/148 147/147/147 146/146/146
f 149/149/149 148/148/148 146/146/146
f 152/152/152 151/151/151 150/150/150
f 153/153/153 152/152/152 150/150/150
f 150/150/150 151/151/151 154/154/154
f 151/151/151 155/155/155 154/154/154
f 158/158/158 157/157/157 156/156/156
f 159/159/159 158/158/158 156/156/156
f 162/162/162 161/161/161 160/160/160
f 163/163/163 162/162/162 160/160/160
f 166/166/166 165/165/165 164/164/164
f 167/167/167 166/166/166 164/164/164
f 170/170/170 169/169/169 168/168/168
f 171/171/171 170/170/170 168/168/168
f 172/172/172 170/170/170 171/171/171
f 173/173/173 172/172/172 171/171/171
f 176/176/176 175/175/175 174/174/174
f 177/177/177 176/176/176 174/174/174
f 180/180/180 179/179/179 178/178/178
f 181/181/181 180/180/180 178/178/178
