g Officer_mesh
v -0.4163267 2.607916 -0.4665883
v -0.4163267 2.716165 -0.4665883
v -0.4163267 2.607916 0.562994
v -0.4163267 2.716165 0.562994
v -0.4036145 2.958153 -0.4487945
v 0.4036145 2.958153 -0.4487946
v -0.4036169 3.079011 0.4507152
v 0.4036169 3.079011 0.4507152
v 0.4163267 2.716165 -0.4665883
v 0.4163267 2.607916 -0.4665883
v 0.4163267 2.716165 0.562994
v 0.4163267 2.607916 0.562994
v -0.4163267 2.607916 0.562994
v 0.4163267 2.607916 0.562994
v -0.4163267 2.607916 -0.4665883
v 0.4163267 2.607916 -0.4665883
v 0.4163267 2.716165 0.562994
v 0.4163267 2.607916 0.562994
v -0.4163267 2.716165 0.562994
v -0.4163267 2.607916 0.562994
v -0.4163267 2.607916 -0.4665883
v 0.4163267 2.607916 -0.4665883
v -0.4163267 2.716165 -0.4665883
v 0.4163267 2.716165 -0.4665883
v -0.4163267 2.716165 0.562994
v -0.4163267 2.716165 -0.4665883
v -0.3198838 2.783822 0.4028324
v -0.4163267 2.716165 -0.4665883
v -0.3198838 2.783822 -0.3701491
v -0.4163267 2.716165 0.562994
v -0.3198838 2.783822 0.4028324
v 0.4163267 2.716165 0.562994
v 0.3198838 2.783822 0.4028324
v 0.4163267 2.716165 0.562994
v 0.3198838 2.783822 0.4028324
v 0.4163267 2.716165 -0.4665883
v 0.3198838 2.783822 -0.3701492
v 0.4163267 2.716165 -0.4665883
v 0.4163267 2.716165 -0.4665883
v 0.3198838 2.783822 -0.3701492
v -0.4163267 2.716165 -0.4665883
v -0.3198838 2.783822 -0.3701491
v -0.3198838 2.783822 -0.3701491
v -0.3198838 2.863637 -0.3701491
v -0.3198847 2.959289 0.3947334
v -0.3198838 2.783822 0.4028324
v -0.3198847 2.959289 0.3947334
v 0.3198838 2.783822 0.4028324
v 0.3198847 2.959289 0.3947334
v 0.3198847 2.959289 0.3947334
v 0.3198838 2.863637 -0.3701492
v 0.3198838 2.783822 -0.3701492
v 0.3198838 2.783822 -0.3701492
v 0.3198838 2.863637 -0.3701492
v -0.3198838 2.783822 -0.3701491
v -0.3198838 2.863637 -0.3701491
v -0.3198838 2.863637 -0.3701491
v -0.3946105 2.888787 -0.4296667
v -0.3198847 2.959289 0.3947334
v -0.3946118 2.999614 0.4505503
v 0.3198838 2.863637 -0.3701492
v 0.3946105 2.888787 -0.4296667
v -0.3198838 2.863637 -0.3701491
v -0.3946105 2.888787 -0.4296667
v -0.3198838 2.863637 -0.3701491
v 0.3198838 2.863637 -0.3701492
v 0.3198847 2.959289 0.3947334
v 0.3946105 2.888787 -0.4296667
v 0.3198847 2.959289 0.3947334
v 0.3946118 2.999614 0.4505503
v -0.3198847 2.959289 0.3947334
v -0.3946118 2.999614 0.4505503
v 0.3198847 2.959289 0.3947334
v 0.3946118 2.999614 0.4505503
v 0.3198847 2.959289 0.3947334
v -0.4036145 2.958153 -0.4487945
v -0.4036169 3.079011 0.4507152
v -0.3946105 2.888787 -0.4296667
v -0.3946118 2.999614 0.4505503
v 0.4036145 2.958153 -0.4487946
v -0.4036145 2.958153 -0.4487945
v 0.3946105 2.888787 -0.4296667
v -0.3946105 2.888787 -0.4296667
v 0.4036169 3.079011 0.4507152
v 0.4036145 2.958153 -0.4487946
v 0.3946118 2.999614 0.4505503
v 0.3946105 2.888787 -0.4296667
v -0.4036169 3.079011 0.4507152
v 0.4036169 3.079011 0.4507152
v -0.3946118 2.999614 0.4505503
v 0.3946118 2.999614 0.4505503
v 0.3198838 2.783822 0.4028324
v 0.3198847 2.959289 0.3947334
v 0.3198838 2.783822 -0.3701492
v -0.3198838 2.783822 -0.3701491
v -0.3198847 2.959289 0.3947334
v -0.3198838 2.783822 0.4028324
vt 0.6696909 0.3035734
vt 0.6418883 0.3035733
vt 0.6696881 0.4410306
vt 0.6418847 0.4410306
vt 0.5792609 0.1825018
vt 0.5792609 0.08136892
vt 0.4768636 0.1825018
vt 0.4768637 0.0813694
vt 0.6418877 0.1719505
vt 0.6696908 0.1719506
vt 0.6418869 0.01926994
vt 0.6696899 0.01926982
vt 0.4321035 0.4067523
vt 0.4321035 0.5383751
vt 0.5847842 0.4067522
vt 0.5847842 0.5383753
vt 0.641884 0.587877
vt 0.6696869 0.587877
vt 0.6418847 0.4410306
vt 0.6696881 0.4410306
vt 0.6696909 0.3035734
vt 0.6696908 0.1719506
vt 0.6418883 0.3035733
vt 0.6418877 0.1719505
vt 0.6418847 0.4410306
vt 0.6418883 0.3035733
vt 0.6227455 0.4410306
vt 0.6418883 0.3035733
vt 0.6266429 0.3188179
vt 0.6418847 0.4410306
vt 0.6227456 0.4410306
vt 0.641884 0.587877
vt 0.622745 0.587877
vt 0.6418869 0.01926994
vt 0.6266422 0.03451478
vt 0.6418877 0.1719505
vt 0.6266425 0.1567055
vt 0.6418877 0.1719505
vt 0.6418877 0.1719505
vt 0.6266426 0.1871957
vt 0.6418883 0.3035733
vt 0.6266434 0.2883284
vt 0.5610722 0.02415286
vt 0.5590503 0.04595518
vt 0.5031803 0.04651739
vt 0.4495107 0.1645076
vt 0.467917 0.1645076
vt 0.4495107 0.09936306
vt 0.4679171 0.09936322
vt 0.5031803 0.04651739
vt 0.5590503 0.04595518
vt 0.5610722 0.02415287
vt 0.6129137 0.08136868
vt 0.5960873 0.0813688
vt 0.6129137 0.1825016
vt 0.5960873 0.1825017
vt 0.5921347 0.1294785
vt 0.592127 0.1294467
vt 0.5887013 0.1298941
vt 0.5887098 0.1298363
vt 0.5960873 0.0813688
vt 0.5950357 0.08136881
vt 0.5960873 0.1825017
vt 0.5950357 0.1825017
vt 0.5960873 0.1825017
vt 0.5941668 0.1323895
vt 0.5923981 0.1321754
vt 0.5941628 0.1324059
vt 0.5923981 0.1321754
vt 0.5924025 0.1322052
vt 0.5874416 0.1424232
vt 0.5891845 0.1424232
vt 0.5874416 0.1195378
vt 0.5891846 0.1195378
vt 0.5874416 0.1195378
vt 0.5792609 0.1825018
vt 0.4768636 0.1825018
vt 0.5830204 0.1978915
vt 0.4727423 0.2104658
vt 0.5792609 0.08136892
vt 0.5792609 0.1825018
vt 0.5950357 0.08136881
vt 0.5950357 0.1825017
vt 0.4768637 0.0813694
vt 0.5792609 0.08136892
vt 0.4727418 0.05340569
vt 0.5830202 0.06597874
vt 0.4768636 0.1825018
vt 0.4768637 0.0813694
vt 0.4674295 0.1825018
vt 0.4674295 0.08136918
vt 0.5009634 0.02415286
vt 0.5031803 0.04651739
vt 0.5610722 0.02415287
vt 0.5610722 0.02415286
vt 0.5031803 0.04651739
vt 0.5009634 0.02415286
vn -1 0 0
vn -1 0 0
vn -1 0 0
vn -1 0 0
vn 0 0.9910941 -0.1331639
vn 0 0.991094 -0.133164
vn 0 0.991094 -0.133164
vn 0 0.991094 -0.1331641
vn 1 0 0
vn 1 0 0
vn 1 0 0
vn 1 0 0
vn 0 -1 0
vn 0 -1 0
vn 0 -1 0
vn 0 -1 0
vn -1.354327E-07 0 1
vn -1.242863E-07 0 1
vn 0 0 1
vn 0 0 1
vn 0 0 -1
vn 0 0 -1
vn 0 0 -1
vn 0 0 -1
vn -0.5743003 0.8186447 0
vn -0.5742998 0.8186451 0
vn -0.5743003 0.8186447 0
vn -0.5742998 0.8186451 0
vn -0.5742997 0.8186451 0
vn 0 0.9211807 0.3891352
vn 0 0.9211807 0.389135
vn 0 0.921181 0.3891345
vn 0 0.9211811 0.3891342
vn 0.5743001 0.8186449 0
vn 0.5743001 0.8186449 0
vn 0.5742996 0.8186452 0
vn 0.5742995 0.8186453 0
vn 0.5742996 0.8186452 0
vn 0 0.8186339 -0.5743157
vn 0 0.818634 -0.5743156
vn 0 0.8186346 -0.5743147
vn 0 0.8186348 -0.5743144
vn -1 0 -1.271761E-06
vn -1 0 -1.27176E-06
vn -1 0 -1.27176E-06
vn 0 0.04610771 0.9989365
vn 0 0.0461077 0.9989365
vn 0 0.04610766 0.9989365
vn 0 0.04610765 0.9989365
vn 1 0 -1.27176E-06
vn 1 0 -1.27176E-06
vn 1 0 -1.27176E-06
vn -1.195285E-07 0 -1
vn -1.100841E-07 0 -1
vn 0 0 -1
vn 0 0 -1
vn -0.3971928 -0.9106423 0.1138797
vn -0.3980206 -0.9102753 0.1139234
vn -0.4040691 -0.9075667 0.1142403
vn -0.4043458 -0.9074417 0.1142547
vn 0 -0.9211299 -0.3892552
vn 0 -0.921131 -0.3892527
vn 0 -0.9211369 -0.3892387
vn 0 -0.9211372 -0.3892382
vn 0 -0.9211369 -0.3892387
vn 0.3971929 -0.9106422 0.1138797
vn 0.4040688 -0.9075668 0.1142401
vn 0.3980207 -0.9102753 0.1139233
vn 0.4040688 -0.9075668 0.1142401
vn 0.4043455 -0.9074418 0.1142545
vn 0 -0.8105909 0.5856129
vn 0 -0.8105904 0.5856135
vn 0 -0.8105882 0.5856165
vn 0 -0.8105881 0.5856166
vn 0 -0.8105882 0.5856165
vn -0.9921193 -0.1241817 0.01668265
vn -0.9934565 -0.1133103 0.01431942
vn -0.9922006 -0.1235489 0.01654506
vn -0.9935259 -0.1127161 0.0141903
vn -1.050808E-07 -0.2658318 -0.9640194
vn 0 -0.2658328 -0.9640192
vn 0 -0.2658318 -0.9640194
vn 0 -0.2658328 -0.9640192
vn 0.993512 -0.1127145 0.01514185
vn 0.9922022 -0.1236539 0.01563298
vn 0.9934557 -0.1132069 0.01516398
vn 0.992101 -0.1244596 0.0156691
vn 0 -0.002076543 0.9999979
vn 0 -0.002076533 0.9999979
vn 0 -0.002076542 0.9999979
vn 0 -0.002076532 0.9999979
vn 1 -5.799398E-06 0
vn 1 -5.799398E-06 0
vn 1 -5.799397E-06 0
vn -1 -5.400021E-06 0
vn -1 -5.400021E-06 0
vn -1 -5.400021E-06 0
f 3/3/3 2/2/2 1/1/1
f 3/3/3 4/4/4 2/2/2
f 7/7/7 6/6/6 5/5/5
f 7/7/7 8/8/8 6/6/6
f 11/11/11 10/10/10 9/9/9
f 11/11/11 12/12/12 10/10/10
f 15/15/15 14/14/14 13/13/13
f 15/15/15 16/16/16 14/14/14
f 19/19/19 18/18/18 17/17/17
f 19/19/19 20/20/20 18/18/18
f 23/23/23 22/22/22 21/21/21
f 23/23/23 24/24/24 22/22/22
f 27/27/27 26/26/26 25/25/25
f 27/27/27 29/29/29 28/28/28
f 32/32/32 31/31/31 30/30/30
f 32/32/32 33/33/33 31/31/31
f 36/36/36 35/35/35 34/34/34
f 38/38/38 37/37/37 35/35/35
f 41/41/41 40/40/40 39/39/39
f 41/41/41 42/42/42 40/40/40
f 45/45/45 44/44/44 43/43/43
f 48/48/48 47/47/47 46/46/46
f 48/48/48 49/49/49 47/47/47
f 52/52/52 51/51/51 50/50/50
f 55/55/55 54/54/54 53/53/53
f 55/55/55 56/56/56 54/54/54
f 59/59/59 58/58/58 57/57/57
f 59/59/59 60/60/60 58/58/58
f 63/63/63 62/62/62 61/61/61
f 65/65/65 64/64/64 62/62/62
f 68/68/68 67/67/67 66/66/66
f 68/68/68 70/70/70 69/69/69
f 73/73/73 72/72/72 71/71/71
f 75/75/75 74/74/74 72/72/72
f 78/78/78 77/77/77 76/76/76
f 78/78/78 79/79/79 77/77/77
f 82/82/82 81/81/81 80/80/80
f 82/82/82 83/83/83 81/81/81
f 86/86/86 85/85/85 84/84/84
f 86/86/86 87/87/87 85/85/85
f 90/90/90 89/89/89 88/88/88
f 90/90/90 91/91/91 89/89/89
f 94/94/94 93/93/93 92/92/92
f 97/97/97 96/96/96 95/95/95
