g ondertanden
v 0.01212965 -0.03358357 0.007654889
v -0.01212965 -0.03358357 0.007654889
v -0.01212965 -0.01577569 0.007654889
v 0.01212965 -0.01546341 0.007654889
v -0.008605984 0.01125147 0.004333552
v 0.008605984 0.01125147 0.004333552
v -0.004599899 0.03033156 -0.001478306
v 0.004599899 0.03033156 -0.001478306
v 0.01212965 -0.03358357 -0.007654889
v 0.01212965 -0.03358357 0.007654889
v 0.01212965 -0.01546341 0.007654889
v 0.01212965 -0.01546341 -0.007654889
v 0.008605984 0.01125147 0.004333552
v 0.008605984 0.01125147 -0.006528735
v 0.004599899 0.03033156 -0.001478306
v 0.004599899 0.03033156 -0.007284199
v -0.01212965 -0.03358357 -0.007654889
v 0.01212965 -0.03358357 -0.007654889
v 0.01212965 -0.01546341 -0.007654889
v -0.01212965 -0.01577569 -0.007654889
v 0.008605984 0.01125147 -0.006528735
v -0.008605984 0.01125147 -0.006528735
v 0.004599899 0.03033156 -0.007284199
v -0.004599899 0.03033156 -0.007284199
v -0.01212965 -0.03358357 0.007654889
v -0.01212965 -0.03358357 -0.007654889
v -0.01212965 -0.01577569 -0.007654889
v -0.01212965 -0.01577569 0.007654889
v -0.008605984 0.01125147 -0.006528735
v -0.008605984 0.01125147 0.004333552
v -0.004599899 0.03033156 -0.007284199
v -0.004599899 0.03033156 -0.001478306
v 0.004599899 0.03033156 -0.001478306
v -0.004599899 0.03033156 -0.001478306
v -0.004599899 0.03033156 -0.007284199
v 0.004599899 0.03033156 -0.007284199
v 0.01212965 -0.03358357 -0.007654889
v -0.01212965 -0.03358357 -0.007654889
v -0.01212965 -0.03358357 0.007654889
v 0.01212965 -0.03358357 0.007654889
v 0.04874639 -0.03358357 0.007654889
v 0.02448709 -0.03358357 0.007654889
v 0.02448709 -0.01577569 0.007654889
v 0.04874639 -0.01546341 0.007654889
v 0.02801076 0.01125147 0.004333552
v 0.04522273 0.01125147 0.004333552
v 0.03201684 0.03033156 -0.001478306
v 0.04121664 0.03033156 -0.001478306
v 0.04874639 -0.03358357 -0.007654889
v 0.04874639 -0.03358357 0.007654889
v 0.04874639 -0.01546341 0.007654889
v 0.04874639 -0.01546341 -0.007654889
v 0.04522273 0.01125147 0.004333552
v 0.04522273 0.01125147 -0.006528735
v 0.04121664 0.03033156 -0.001478306
v 0.04121664 0.03033156 -0.007284199
v 0.02448709 -0.03358357 -0.007654889
v 0.04874639 -0.03358357 -0.007654889
v 0.04874639 -0.01546341 -0.007654889
v 0.02448709 -0.01577569 -0.007654889
v 0.04522273 0.01125147 -0.006528735
v 0.02801076 0.01125147 -0.006528735
v 0.04121664 0.03033156 -0.007284199
v 0.03201684 0.03033156 -0.007284199
v 0.02448709 -0.03358357 0.007654889
v 0.02448709 -0.03358357 -0.007654889
v 0.02448709 -0.01577569 -0.007654889
v 0.02448709 -0.01577569 0.007654889
v 0.02801076 0.01125147 -0.006528735
v 0.02801076 0.01125147 0.004333552
v 0.03201684 0.03033156 -0.007284199
v 0.03201684 0.03033156 -0.001478306
v 0.04121664 0.03033156 -0.001478306
v 0.03201684 0.03033156 -0.001478306
v 0.03201684 0.03033156 -0.007284199
v 0.04121664 0.03033156 -0.007284199
v 0.04874639 -0.03358357 -0.007654889
v 0.02448709 -0.03358357 -0.007654889
v 0.02448709 -0.03358357 0.007654889
v 0.04874639 -0.03358357 0.007654889
v -0.0608265 -0.01577569 0.0008728716
v -0.0608265 -0.03358357 0.0008728717
v -0.08416262 -0.03358357 -0.00575575
v -0.08416262 -0.01546341 -0.00575575
v -0.06330854 0.01125147 -0.003284881
v -0.07986552 0.01125147 -0.007987889
v -0.06557415 0.03033156 -0.009970199
v -0.07442386 0.03033156 -0.01248396
v -0.08416262 -0.01546341 -0.00575575
v -0.08416262 -0.03358357 -0.00575575
v -0.07997937 -0.03358357 -0.02048293
v -0.07997937 -0.01546341 -0.02048293
v -0.07986552 0.01125147 -0.007987889
v -0.07689751 0.01125147 -0.01843682
v -0.07442386 0.03033156 -0.01248396
v -0.07283745 0.03033156 -0.01806891
v -0.07997937 -0.01546341 -0.02048293
v -0.07997937 -0.03358357 -0.02048293
v -0.05664325 -0.03358357 -0.0138543
v -0.05664325 -0.01577569 -0.0138543
v -0.07689751 0.01125147 -0.01843682
v -0.06034053 0.01125147 -0.01373381
v -0.07283745 0.03033156 -0.01806891
v -0.06398775 0.03033156 -0.01555515
v -0.05664325 -0.01577569 -0.0138543
v -0.05664325 -0.03358357 -0.0138543
v -0.0608265 -0.03358357 0.0008728717
v -0.0608265 -0.01577569 0.0008728716
v -0.06034053 0.01125147 -0.01373381
v -0.06330854 0.01125147 -0.003284881
v -0.06398775 0.03033156 -0.01555515
v -0.06557415 0.03033156 -0.009970199
v -0.06398775 0.03033156 -0.01555515
v -0.06557415 0.03033156 -0.009970199
v -0.07442386 0.03033156 -0.01248396
v -0.07283745 0.03033156 -0.01806891
v -0.0608265 -0.03358357 0.0008728717
v -0.05664325 -0.03358357 -0.0138543
v -0.07997937 -0.03358357 -0.02048293
v -0.08416262 -0.03358357 -0.00575575
v -0.09604982 -0.0157757 -0.009132304
v -0.09604982 -0.03358357 -0.009132304
v -0.1193859 -0.03358357 -0.01576093
v -0.1193859 -0.01546341 -0.01576093
v -0.09853186 0.01125147 -0.01329006
v -0.1150888 0.01125146 -0.01799306
v -0.1007975 0.03033156 -0.01997538
v -0.1096472 0.03033156 -0.02248913
v -0.1193859 -0.01546341 -0.01576093
v -0.1193859 -0.03358357 -0.01576093
v -0.1152027 -0.03358357 -0.0304881
v -0.1152027 -0.01546341 -0.0304881
v -0.1150888 0.01125146 -0.01799306
v -0.1121208 0.01125146 -0.028442
v -0.1096472 0.03033156 -0.02248913
v -0.1080608 0.03033156 -0.02807409
v -0.1152027 -0.01546341 -0.0304881
v -0.1152027 -0.03358357 -0.0304881
v -0.09186657 -0.03358357 -0.02385948
v -0.09186657 -0.0157757 -0.02385948
v -0.1121208 0.01125146 -0.028442
v -0.09556385 0.01125147 -0.02373899
v -0.1080608 0.03033156 -0.02807409
v -0.09921106 0.03033156 -0.02556033
v -0.09186657 -0.0157757 -0.02385948
v -0.09186657 -0.03358357 -0.02385948
v -0.09604982 -0.03358357 -0.009132304
v -0.09604982 -0.0157757 -0.009132304
v -0.09556385 0.01125147 -0.02373899
v -0.09853186 0.01125147 -0.01329006
v -0.09921106 0.03033156 -0.02556033
v -0.1007975 0.03033156 -0.01997538
v -0.09921106 0.03033156 -0.02556033
v -0.1007975 0.03033156 -0.01997538
v -0.1096472 0.03033156 -0.02248913
v -0.1080608 0.03033156 -0.02807409
v -0.09604982 -0.03358357 -0.009132304
v -0.09186657 -0.03358357 -0.02385948
v -0.1152027 -0.03358357 -0.0304881
v -0.1193859 -0.03358357 -0.01576093
v -0.02367516 -0.03358357 0.007778961
v -0.04770255 -0.03358357 0.004432662
v -0.04770255 -0.01577569 0.004432662
v -0.02367516 -0.01546341 0.007778961
v -0.04375443 0.01125147 0.001629125
v -0.026707 0.01125147 0.004003324
v -0.03898497 0.03033156 -0.003574582
v -0.02987311 0.03033156 -0.002305572
v -0.02156335 -0.03358357 -0.007384467
v -0.02367516 -0.03358357 0.007778961
v -0.02367516 -0.01546341 0.007778961
v -0.02156335 -0.01546341 -0.007384467
v -0.026707 0.01125147 0.004003324
v -0.02520867 0.01125147 -0.006755129
v -0.02987311 0.03033156 -0.002305572
v -0.02907225 0.03033156 -0.008055965
v -0.04559074 -0.03358357 -0.01073077
v -0.02156335 -0.03358357 -0.007384467
v -0.02156335 -0.01546341 -0.007384467
v -0.04559074 -0.01577569 -0.01073077
v -0.02520867 0.01125147 -0.006755129
v -0.04225611 0.01125147 -0.009129328
v -0.02907225 0.03033156 -0.008055965
v -0.03818411 0.03033156 -0.009324974
v -0.04770255 -0.03358357 0.004432662
v -0.04559074 -0.03358357 -0.01073077
v -0.04559074 -0.01577569 -0.01073077
v -0.04770255 -0.01577569 0.004432662
v -0.04225611 0.01125147 -0.009129328
v -0.04375443 0.01125147 0.001629125
v -0.03818411 0.03033156 -0.009324974
v -0.03898497 0.03033156 -0.003574582
v -0.02987311 0.03033156 -0.002305572
v -0.03898497 0.03033156 -0.003574582
v -0.03818411 0.03033156 -0.009324974
v -0.02907225 0.03033156 -0.008055965
v -0.02156335 -0.03358357 -0.007384467
v -0.04559074 -0.03358357 -0.01073077
v -0.04770255 -0.03358357 0.004432662
v -0.02367516 -0.03358357 0.007778961
vt 1 0
vt 0 0
vt 0 0.3333334
vt 1 0.3333334
vt 0 0.6666667
vt 1 0.6666667
vt 0 1
vt 1 1
vt 1 0
vt 0 0
vt 0 0.3333334
vt 1 0.3333334
vt 0 0.6666667
vt 1 0.6666667
vt 0 1
vt 1 1
vt 1 0
vt 0 0
vt 0 0.3333334
vt 1 0.3333334
vt 0 0.6666667
vt 1 0.6666667
vt 0 1
vt 1 1
vt 1 0
vt 0 0
vt 0 0.3333334
vt 1 0.3333334
vt 0 0.6666667
vt 1 0.6666667
vt 0 1
vt 1 1
vt 1 0
vt 0 0
vt 0 1
vt 1 1
vt 1 0
vt 0 0
vt 0 1
vt 1 1
vt 1 0
vt 0 0
vt 0 0.3333334
vt 1 0.3333334
vt 0 0.6666667
vt 1 0.6666667
vt 0 1
vt 1 1
vt 1 0
vt 0 0
vt 0 0.3333334
vt 1 0.3333334
vt 0 0.6666667
vt 1 0.6666667
vt 0 1
vt 1 1
vt 1 0
vt 0 0
vt 0 0.3333334
vt 1 0.3333334
vt 0 0.6666667
vt 1 0.6666667
vt 0 1
vt 1 1
vt 1 0
vt 0 0
vt 0 0.3333334
vt 1 0.3333334
vt 0 0.6666667
vt 1 0.6666667
vt 0 1
vt 1 1
vt 1 0
vt 0 0
vt 0 1
vt 1 1
vt 1 0
vt 0 0
vt 0 1
vt 1 1
vt 0 0.3333334
vt 0 0
vt 1 0
vt 1 0.3333334
vt 0 0.6666667
vt 1 0.6666667
vt 0 1
vt 1 1
vt 0 0.3333334
vt 0 0
vt 1 0
vt 1 0.3333334
vt 0 0.6666667
vt 1 0.6666667
vt 0 1
vt 1 1
vt 0 0.3333334
vt 0 0
vt 1 0
vt 1 0.3333334
vt 0 0.6666667
vt 1 0.6666667
vt 0 1
vt 1 1
vt 0 0.3333334
vt 0 0
vt 1 0
vt 1 0.3333334
vt 0 0.6666667
vt 1 0.6666667
vt 0 1
vt 1 1
vt 0 1
vt 0 0
vt 1 0
vt 1 1
vt 0 1
vt 0 0
vt 1 0
vt 1 1
vt 0 0.3333334
vt 0 0
vt 1 0
vt 1 0.3333334
vt 0 0.6666667
vt 1 0.6666667
vt 0 1
vt 1 1
vt 0 0.3333334
vt 0 0
vt 1 0
vt 1 0.3333334
vt 0 0.6666667
vt 1 0.6666667
vt 0 1
vt 1 1
vt 0 0.3333334
vt 0 0
vt 1 0
vt 1 0.3333334
vt 0 0.6666667
vt 1 0.6666667
vt 0 1
vt 1 1
vt 0 0.3333334
vt 0 0
vt 1 0
vt 1 0.3333334
vt 0 0.6666667
vt 1 0.6666667
vt 0 1
vt 1 1
vt 0 1
vt 0 0
vt 1 0
vt 1 1
vt 0 1
vt 0 0
vt 1 0
vt 1 1
vt 1 0
vt 0 0
vt 0 0.3333334
vt 1 0.3333334
vt 0 0.6666667
vt 1 0.6666667
vt 0 1
vt 1 1
vt 1 0
vt 0 0
vt 0 0.3333334
vt 1 0.3333334
vt 0 0.6666667
vt 1 0.6666667
vt 0 1
vt 1 1
vt 1 0
vt 0 0
vt 0 0.3333334
vt 1 0.3333334
vt 0 0.6666667
vt 1 0.6666667
vt 0 1
vt 1 1
vt 1 0
vt 0 0
vt 0 0.3333334
vt 1 0.3333334
vt 0 0.6666667
vt 1 0.6666667
vt 0 1
vt 1 1
vt 1 0
vt 0 0
vt 0 1
vt 1 1
vt 1 0
vt 0 0
vt 0 1
vt 1 1
vn 0 0 1
vn 0 0 1
vn -0.0003971338 0.06140107 0.9981131
vn -0.0003971338 0.06140107 0.9981131
vn -0.0003978685 0.2077528 0.9781813
vn -0.0003978685 0.2077528 0.9781813
vn -0.4825336 0.7380373 0.4716592
vn 0.4825336 0.7380373 0.4716592
vn 1 0 0
vn 1 0 0
vn 0.997851 0.06552397 0
vn 0.997851 0.06552397 0
vn 0.9857453 0.1682446 0
vn 0.9857453 0.1682446 0
vn 0.4825336 0.7380373 0.4716592
vn 0.6302851 0.7763637 0
vn 0 0 -1
vn 0 0 -1
vn -0.0001342325 0.0209592 -0.9997803
vn -0.0001342325 0.0209592 -0.9997803
vn -0.0001343146 0.001173897 -0.9999993
vn -0.0001343146 0.001173897 -0.9999993
vn 0 -0.03956335 -0.999217
vn 0 -0.03956335 -0.999217
vn -1 0 0
vn -1 0 0
vn -0.9978998 0.06477643 0
vn -0.9978998 0.06477643 0
vn -0.985871 0.1675061 0
vn -0.985871 0.1675061 0
vn -0.6302851 0.7763637 0
vn -0.4825336 0.7380373 0.4716592
vn 0.4825336 0.7380373 0.4716592
vn -0.4825336 0.7380373 0.4716592
vn -0.6302851 0.7763637 0
vn 0.6302851 0.7763637 0
vn 0 -1 0
vn 0 -1 0
vn 0 -1 0
vn 0 -1 0
vn 0 0 1
vn 0 0 1
vn -0.0003971339 0.06140108 0.9981131
vn -0.0003971339 0.06140108 0.9981131
vn -0.0003978686 0.2077527 0.9781813
vn -0.0003978686 0.2077527 0.9781813
vn -0.4825336 0.7380373 0.4716592
vn 0.4825336 0.7380373 0.4716592
vn 1 0 0
vn 1 0 0
vn 0.997851 0.065524 0
vn 0.997851 0.065524 0
vn 0.9857453 0.1682446 0
vn 0.9857453 0.1682446 0
vn 0.4825336 0.7380373 0.4716592
vn 0.6302851 0.7763637 0
vn 0 0 -1
vn 0 0 -1
vn -0.0001342325 0.02095921 -0.9997803
vn -0.0001342325 0.02095921 -0.9997803
vn -0.0001343146 0.001173903 -0.9999993
vn -0.0001343146 0.001173903 -0.9999993
vn 0 -0.03956334 -0.999217
vn 0 -0.03956334 -0.999217
vn -1 0 0
vn -1 0 0
vn -0.9978998 0.06477641 0
vn -0.9978998 0.06477641 0
vn -0.985871 0.1675062 0
vn -0.985871 0.1675062 0
vn -0.6302851 0.7763637 0
vn -0.4825336 0.7380373 0.4716592
vn 0.4825336 0.7380373 0.4716592
vn -0.4825336 0.7380373 0.4716592
vn -0.6302851 0.7763637 0
vn 0.6302851 0.7763637 0
vn 0 -1 0
vn 0 -1 0
vn 0 -1 0
vn 0 -1 0
vn -0.2723429 0.06140107 0.9602392
vn -0.2732404 0 0.9619458
vn -0.2732404 0 0.9619458
vn -0.2723429 0.06140107 0.9602392
vn -0.266896 0.2077527 0.9410661
vn -0.266896 0.2077527 0.9410661
vn 0.3352947 0.7380373 0.5855582
vn -0.5930476 0.7380372 0.3218628
vn -0.9598785 0.06552398 -0.2726534
vn -0.9619457 0 -0.2732407
vn -0.9619457 0 -0.2732407
vn -0.9598785 0.06552398 -0.2726534
vn -0.9482335 0.1682446 -0.2693455
vn -0.9482335 0.1682446 -0.2693455
vn -0.5930476 0.7380372 0.3218628
vn -0.6063002 0.7763637 -0.1722193
vn 0.2733096 0.02095919 -0.9616978
vn 0.2732405 0 -0.9619458
vn 0.2732405 0 -0.9619458
vn 0.2733096 0.02095919 -0.9616978
vn 0.2733695 0.00117391 -0.9619084
vn 0.2733695 0.00117391 -0.9619084
vn 0.2730266 -0.0395633 -0.9611926
vn 0.2730266 -0.0395633 -0.9611926
vn 0.9599255 0.06477644 0.2726666
vn 0.9619458 0 0.2732404
vn 0.9619458 0 0.2732404
vn 0.9599255 0.06477644 0.2726666
vn 0.9483544 0.1675062 0.26938
vn 0.9483544 0.1675062 0.26938
vn 0.6063001 0.7763637 0.1722194
vn 0.3352947 0.7380373 0.5855582
vn 0.6063001 0.7763637 0.1722194
vn 0.3352947 0.7380373 0.5855582
vn -0.5930476 0.7380372 0.3218628
vn -0.6063002 0.7763637 -0.1722193
vn 0 -1 0
vn 0 -1 0
vn 0 -1 0
vn 0 -1 0
vn -0.2723429 0.06140106 0.9602392
vn -0.2732405 0 0.9619458
vn -0.2732405 0 0.9619458
vn -0.2723429 0.06140106 0.9602392
vn -0.266896 0.2077527 0.9410661
vn -0.266896 0.2077527 0.9410661
vn 0.3352947 0.7380372 0.5855584
vn -0.5930476 0.7380372 0.3218627
vn -0.9598786 0.06552397 -0.272653
vn -0.9619458 0 -0.2732401
vn -0.9619458 0 -0.2732401
vn -0.9598786 0.06552397 -0.272653
vn -0.9482335 0.1682445 -0.2693455
vn -0.9482335 0.1682445 -0.2693455
vn -0.5930476 0.7380372 0.3218627
vn -0.6063002 0.7763636 -0.1722196
vn 0.2733096 0.02095919 -0.9616978
vn 0.2732404 0 -0.9619458
vn 0.2732404 0 -0.9619458
vn 0.2733096 0.02095919 -0.9616978
vn 0.2733696 0.001173874 -0.9619083
vn 0.2733696 0.001173874 -0.9619083
vn 0.2730266 -0.03956336 -0.9611926
vn 0.2730266 -0.03956336 -0.9611926
vn 0.9599255 0.06477641 0.2726663
vn 0.9619458 0 0.2732401
vn 0.9619458 0 0.2732401
vn 0.9599255 0.06477641 0.2726663
vn 0.9483545 0.1675061 0.2693799
vn 0.9483545 0.1675061 0.2693799
vn 0.6063001 0.7763637 0.1722196
vn 0.3352947 0.7380372 0.5855584
vn 0.6063001 0.7763637 0.1722196
vn 0.3352947 0.7380372 0.5855584
vn -0.5930476 0.7380372 0.3218627
vn -0.6063002 0.7763636 -0.1722196
vn 0 -1 0
vn 0 -1 0
vn 0 -1 0
vn 0 -1 0
vn -0.1379389 0 0.9904407
vn -0.1379389 0 0.9904407
vn -0.1380719 0.06140107 0.9885171
vn -0.1380719 0.06140107 0.9885171
vn -0.1353233 0.2077527 0.9687757
vn -0.1353233 0.2077527 0.9687757
vn -0.5429811 0.7380372 0.4005903
vn 0.4128608 0.7380373 0.5337106
vn 0.9904407 0 0.1379389
vn 0.9904407 0 0.1379389
vn 0.9883123 0.06552397 0.1376425
vn 0.9883123 0.06552397 0.1376425
vn 0.9763223 0.1682446 0.1359726
vn 0.9763223 0.1682446 0.1359726
vn 0.4128608 0.7380373 0.5337106
vn 0.62426 0.7763637 0.08694079
vn 0.1379388 0 -0.9904407
vn 0.1379388 0 -0.9904407
vn 0.1377756 0.02095921 -0.9902417
vn 0.1377756 0.02095921 -0.9902417
vn 0.1378057 0.001173906 -0.9904586
vn 0.1378057 0.001173906 -0.9904586
vn 0.1378309 -0.03956334 -0.9896653
vn 0.1378309 -0.03956334 -0.9896653
vn -0.9904407 0 -0.1379388
vn -0.9904407 0 -0.1379388
vn -0.9883606 0.06477641 -0.137649
vn -0.9883606 0.06477641 -0.137649
vn -0.9764469 0.1675061 -0.1359898
vn -0.9764469 0.1675061 -0.1359898
vn -0.6242601 0.7763637 -0.08694079
vn -0.5429811 0.7380372 0.4005903
vn 0.4128608 0.7380373 0.5337106
vn -0.5429811 0.7380372 0.4005903
vn -0.6242601 0.7763637 -0.08694079
vn 0.62426 0.7763637 0.08694079
vn 0 -1 0
vn 0 -1 0
vn 0 -1 0
vn 0 -1 0
f 3/3/3 2/2/2 1/1/1
f 4/4/4 3/3/3 1/1/1
f 5/5/5 3/3/3 4/4/4
f 6/6/6 5/5/5 4/4/4
f 7/7/7 5/5/5 6/6/6
f 8/8/8 7/7/7 6/6/6
f 11/11/11 10/10/10 9/9/9
f 12/12/12 11/11/11 9/9/9
f 13/13/13 11/11/11 12/12/12
f 14/14/14 13/13/13 12/12/12
f 15/15/15 13/13/13 14/14/14
f 16/16/16 15/15/15 14/14/14
f 19/19/19 18/18/18 17/17/17
f 20/20/20 19/19/19 17/17/17
f 21/21/21 19/19/19 20/20/20
f 22/22/22 21/21/21 20/20/20
f 23/23/23 21/21/21 22/22/22
f 24/24/24 23/23/23 22/22/22
f 27/27/27 26/26/26 25/25/25
f 28/28/28 27/27/27 25/25/25
f 29/29/29 27/27/27 28/28/28
f 30/30/30 29/29/29 28/28/28
f 31/31/31 29/29/29 30/30/30
f 32/32/32 31/31/31 30/30/30
f 35/35/35 34/34/34 33/33/33
f 36/36/36 35/35/35 33/33/33
f 39/39/39 38/38/38 37/37/37
f 40/40/40 39/39/39 37/37/37
f 43/43/43 42/42/42 41/41/41
f 44/44/44 43/43/43 41/41/41
f 45/45/45 43/43/43 44/44/44
f 46/46/46 45/45/45 44/44/44
f 47/47/47 45/45/45 46/46/46
f 48/48/48 47/47/47 46/46/46
f 51/51/51 50/50/50 49/49/49
f 52/52/52 51/51/51 49/49/49
f 53/53/53 51/51/51 52/52/52
f 54/54/54 53/53/53 52/52/52
f 55/55/55 53/53/53 54/54/54
f 56/56/56 55/55/55 54/54/54
f 59/59/59 58/58/58 57/57/57
f 60/60/60 59/59/59 57/57/57
f 61/61/61 59/59/59 60/60/60
f 62/62/62 61/61/61 60/60/60
f 63/63/63 61/61/61 62/62/62
f 64/64/64 63/63/63 62/62/62
f 67/67/67 66/66/66 65/65/65
f 68/68/68 67/67/67 65/65/65
f 69/69/69 67/67/67 68/68/68
f 70/70/70 69/69/69 68/68/68
f 71/71/71 69/69/69 70/70/70
f 72/72/72 71/71/71 70/70/70
f 75/75/75 74/74/74 73/73/73
f 76/76/76 75/75/75 73/73/73
f 79/79/79 78/78/78 77/77/77
f 80/80/80 79/79/79 77/77/77
f 83/83/83 82/82/82 81/81/81
f 84/84/84 83/83/83 81/81/81
f 84/84/84 81/81/81 85/85/85
f 86/86/86 84/84/84 85/85/85
f 86/86/86 85/85/85 87/87/87
f 88/88/88 86/86/86 87/87/87
f 91/91/91 90/90/90 89/89/89
f 92/92/92 91/91/91 89/89/89
f 92/92/92 89/89/89 93/93/93
f 94/94/94 92/92/92 93/93/93
f 94/94/94 93/93/93 95/95/95
f 96/96/96 94/94/94 95/95/95
f 99/99/99 98/98/98 97/97/97
f 100/100/100 99/99/99 97/97/97
f 100/100/100 97/97/97 101/101/101
f 102/102/102 100/100/100 101/101/101
f 102/102/102 101/101/101 103/103/103
f 104/104/104 102/102/102 103/103/103
f 107/107/107 106/106/106 105/105/105
f 108/108/108 107/107/107 105/105/105
f 108/108/108 105/105/105 109/109/109
f 110/110/110 108/108/108 109/109/109
f 110/110/110 109/109/109 111/111/111
f 112/112/112 110/110/110 111/111/111
f 115/115/115 114/114/114 113/113/113
f 116/116/116 115/115/115 113/113/113
f 119/119/119 118/118/118 117/117/117
f 120/120/120 119/119/119 117/117/117
f 123/123/123 122/122/122 121/121/121
f 124/124/124 123/123/123 121/121/121
f 124/124/124 121/121/121 125/125/125
f 126/126/126 124/124/124 125/125/125
f 126/126/126 125/125/125 127/127/127
f 128/128/128 126/126/126 127/127/127
f 131/131/131 130/130/130 129/129/129
f 132/132/132 131/131/131 129/129/129
f 132/132/132 129/129/129 133/133/133
f 134/134/134 132/132/132 133/133/133
f 134/134/134 133/133/133 135/135/135
f 136/136/136 134/134/134 135/135/135
f 139/139/139 138/138/138 137/137/137
f 140/140/140 139/139/139 137/137/137
f 140/140/140 137/137/137 141/141/141
f 142/142/142 140/140/140 141/141/141
f 142/142/142 141/141/141 143/143/143
f 144/144/144 142/142/142 143/143/143
f 147/147/147 146/146/146 145/145/145
f 148/148/148 147/147/147 145/145/145
f 148/148/148 145/145/145 149/149/149
f 150/150/150 148/148/148 149/149/149
f 150/150/150 149/149/149 151/151/151
f 152/152/152 150/150/150 151/151/151
f 155/155/155 154/154/154 153/153/153
f 156/156/156 155/155/155 153/153/153
f 159/159/159 158/158/158 157/157/157
f 160/160/160 159/159/159 157/157/157
f 163/163/163 162/162/162 161/161/161
f 164/164/164 163/163/163 161/161/161
f 165/165/165 163/163/163 164/164/164
f 166/166/166 165/165/165 164/164/164
f 167/167/167 165/165/165 166/166/166
f 168/168/168 167/167/167 166/166/166
f 171/171/171 170/170/170 169/169/169
f 172/172/172 171/171/171 169/169/169
f 173/173/173 171/171/171 172/172/172
f 174/174/174 173/173/173 172/172/172
f 175/175/175 173/173/173 174/174/174
f 176/176/176 175/175/175 174/174/174
f 179/179/179 178/178/178 177/177/177
f 180/180/180 179/179/179 177/177/177
f 181/181/181 179/179/179 180/180/180
f 182/182/182 181/181/181 180/180/180
f 183/183/183 181/181/181 182/182/182
f 184/184/184 183/183/183 182/182/182
f 187/187/187 186/186/186 185/185/185
f 188/188/188 187/187/187 185/185/185
f 189/189/189 187/187/187 188/188/188
f 190/190/190 189/189/189 188/188/188
f 191/191/191 189/189/189 190/190/190
f 192/192/192 191/191/191 190/190/190
f 195/195/195 194/194/194 193/193/193
f 196/196/196 195/195/195 193/193/193
f 199/199/199 198/198/198 197/197/197
f 200/200/200 199/199/199 197/197/197
