g paperStand_Red
v -0.5002922 0.000146091 0.3964367
v -0.5002922 0.9594426 0.3964367
v 0.5 0.9594426 0.3964367
v 0.5 0.000146091 0.3964367
v 0.5 1.69463 0.3964367
v -0.5002922 1.69463 0.3964367
v -0.5002922 1.69463 0.3964367
v -0.5002922 1.69463 -0.0982433
v 0.5 1.69463 -0.0982433
v 0.5 1.69463 0.3964367
v 0.5 1.69463 -0.3332846
v -0.5002922 1.69463 -0.3332846
v -0.3800385 0.8555872 -0.286823
v -0.3800385 0.3253777 -0.286823
v 0.3797463 0.3253777 -0.286823
v 0.3797463 0.8555872 -0.286823
v -0.5002922 0.000146091 -0.0982433
v -0.5002922 0.000146091 0.3964367
v 0.5 0.000146091 0.3964367
v 0.5 0.000146091 -0.0982433
v -0.5002922 0.000146091 -0.3332846
v 0.5 0.000146091 -0.3332846
v 0.5 0.000146091 0.3964367
v 0.5 0.9594426 0.3964367
v 0.5 0.9594426 -0.0982433
v 0.5 0.000146091 -0.0982433
v 0.5 1.69463 -0.0982433
v 0.5 1.69463 0.3964367
v -0.5002922 0.000146091 -0.0982433
v -0.5002922 0.9594426 -0.0982433
v -0.5002922 0.9594426 0.3964367
v -0.5002922 0.000146091 0.3964367
v -0.5002922 1.69463 0.3964367
v -0.5002922 1.69463 -0.0982433
v 0.3879454 1.041434 -0.3332846
v 0.3879454 1.612639 -0.3332846
v -0.3855045 1.612639 -0.3332846
v -0.3855045 1.041434 -0.3332846
v 0.5 0.9594426 -0.3332846
v 0.3879454 1.041434 -0.3332846
v -0.3855045 1.041434 -0.3332846
v -0.5002922 0.9594426 -0.3332846
v -0.3855045 1.612639 -0.3332846
v -0.5002922 1.69463 -0.3332846
v 0.3879454 1.612639 -0.3332846
v 0.5 1.69463 -0.3332846
v 0.3797463 0.8555872 -0.3332846
v -0.3800385 0.8555872 -0.3332846
v -0.5002922 0.000146091 -0.3332846
v -0.3800385 0.3253777 -0.3332846
v 0.5 0.000146091 -0.3332846
v 0.3797463 0.3253777 -0.3332846
v 0.5 0.9594426 -0.3332846
v 0.3797463 0.8555872 -0.3332846
v 0.3797463 0.3253777 -0.3332846
v -0.3800385 0.8555872 -0.3332846
v -0.3800385 0.8555872 -0.286823
v 0.3797463 0.8555872 -0.286823
v 0.3797463 0.8555872 -0.3332846
v 0.3797463 0.8555872 -0.3332846
v 0.3797463 0.8555872 -0.286823
v 0.3797463 0.3253777 -0.286823
v 0.3797463 0.3253777 -0.3332846
v 0.3797463 0.3253777 -0.3332846
v 0.3797463 0.3253777 -0.286823
v -0.3800385 0.3253777 -0.286823
v 0.3797463 0.3253777 -0.3332846
v -0.3800385 0.3253777 -0.286823
v -0.3800385 0.3253777 -0.3332846
v -0.3800385 0.3253777 -0.3332846
v -0.3800385 0.3253777 -0.286823
v -0.3800385 0.8555872 -0.286823
v -0.3800385 0.8555872 -0.3332846
v -0.2324544 1.69463 -0.1228406
v -0.2324544 2.295899 -0.1228406
v 0.2321622 2.295899 -0.1228406
v 0.2321622 1.69463 -0.1228406
v -0.2324544 2.295899 -0.1228406
v -0.2324544 2.295899 -0.3496829
v 0.2321622 2.295899 -0.3496829
v 0.2321622 2.295899 -0.1228406
v -0.2324544 2.295899 -0.3496829
v -0.2324544 1.69463 -0.3496829
v 0.2321622 1.69463 -0.3496829
v 0.2321622 2.295899 -0.3496829
v -0.2324544 1.69463 -0.3496829
v -0.2324544 1.69463 -0.1228406
v 0.2321622 1.69463 -0.1228406
v 0.2321622 1.69463 -0.3496829
v 0.2321622 1.69463 -0.1228406
v 0.2321622 2.295899 -0.1228406
v 0.2321622 2.295899 -0.3496829
v 0.2321622 1.69463 -0.3496829
v -0.2324544 1.69463 -0.3496829
v -0.2324544 2.295899 -0.3496829
v -0.2324544 2.295899 -0.1228406
v -0.2324544 1.69463 -0.1228406
v -0.06847209 1.549779 -0.3442168
v -0.06847209 1.929672 -0.3442168
v 0.0709129 1.929672 -0.3442168
v 0.0709129 1.549779 -0.3442168
v -0.06847209 1.929672 -0.3442168
v -0.06847209 1.929672 -0.3961445
v 0.0709129 1.929672 -0.3961445
v 0.0709129 1.929672 -0.3442168
v -0.06847209 1.929672 -0.3961445
v -0.06847209 1.549779 -0.3961445
v 0.0709129 1.549779 -0.3961445
v 0.0709129 1.929672 -0.3961445
v -0.06847209 1.549779 -0.3961445
v -0.06847209 1.549779 -0.3442168
v 0.0709129 1.549779 -0.3442168
v 0.0709129 1.549779 -0.3961445
v 0.0709129 1.549779 -0.3442168
v 0.0709129 1.929672 -0.3442168
v 0.0709129 1.929672 -0.3961445
v 0.0709129 1.549779 -0.3961445
v -0.06847209 1.549779 -0.3961445
v -0.06847209 1.929672 -0.3961445
v -0.06847209 1.929672 -0.3442168
v -0.06847209 1.549779 -0.3442168
v -0.02201039 2.033527 -0.3414837
v -0.02201039 2.077256 -0.3414837
v 0.02445126 2.077256 -0.3414837
v 0.02445126 2.033527 -0.3414837
v -0.02201039 2.077256 -0.3414837
v -0.02201039 2.077256 -0.3715472
v 0.02445126 2.077256 -0.3715472
v 0.02445126 2.077256 -0.3414837
v -0.02201039 2.077256 -0.3715472
v -0.02201039 2.033527 -0.3715472
v 0.02445126 2.033527 -0.3715472
v 0.02445126 2.077256 -0.3715472
v -0.02201039 2.033527 -0.3715472
v -0.02201039 2.033527 -0.3414837
v 0.02445126 2.033527 -0.3414837
v 0.02445126 2.033527 -0.3715472
v 0.02445126 2.033527 -0.3414837
v 0.02445126 2.077256 -0.3414837
v 0.02445126 2.077256 -0.3715472
v 0.02445126 2.033527 -0.3715472
v -0.02201039 2.033527 -0.3715472
v -0.02201039 2.077256 -0.3715472
v -0.02201039 2.077256 -0.3414837
v -0.02201039 2.033527 -0.3414837
v -0.5002922 0.9594426 -0.3332846
v -0.5002922 1.69463 -0.3332846
v -0.5002922 1.69463 -0.0982433
v -0.5002922 0.9594426 -0.0982433
v -0.5002922 0.000146091 -0.3332846
v -0.5002922 0.9594426 -0.3332846
v -0.5002922 0.9594426 -0.0982433
v -0.5002922 0.000146091 -0.0982433
v 0.5 0.9594426 -0.0982433
v 0.5 0.9594426 -0.3332846
v 0.5 0.000146091 -0.3332846
v 0.5 0.000146091 -0.0982433
v 0.5 1.69463 -0.0982433
v 0.5 1.69463 -0.3332846
v 0.5 0.9594426 -0.3332846
v 0.5 0.9594426 -0.0982433
vt 0.03163221 0.6434014
vt 0.03163221 0.651001
vt 0.03923183 0.651001
vt 0.03923183 0.6434014
vt 0.03923183 0.6586007
vt 0.03163221 0.6586007
vt 0.970185 0.6775997
vt 0.970185 0.6775997
vt 0.970185 0.6775997
vt 0.970185 0.6775997
vt 0.970185 0.6775997
vt 0.970185 0.6775997
vt 0.6775997 0.9777846
vt 0.6775997 0.7231974
vt 0.3850144 0.7231974
vt 0.3850144 0.9777846
vt 0.04303164 0.6662003
vt 0.04683144 0.6662003
vt 0.04683144 0.6586007
vt 0.04303164 0.6586007
vt 0.03923183 0.6662003
vt 0.03923183 0.6586007
vt 0.9397865 0.9473861
vt 0.9397865 0.9549857
vt 0.9397865 0.9549857
vt 0.9397865 0.9473861
vt 0.9397865 0.9587855
vt 0.9397865 0.9587855
vt 0.9473861 0.9473861
vt 0.9473861 0.9549857
vt 0.9473861 0.9549857
vt 0.9473861 0.9473861
vt 0.9473861 0.9587855
vt 0.9473861 0.9587855
vt 0.0278324 0.7155978
vt 0.0278324 0.9777846
vt 0.3470163 0.9777846
vt 0.3470163 0.7155978
vt 0.06203068 0.6662003
vt 0.06203068 0.6662003
vt 0.05443107 0.6662003
vt 0.05443107 0.6662003
vt 0.05443107 0.6586007
vt 0.05443107 0.6586007
vt 0.06203068 0.6586007
vt 0.06203068 0.6586007
vt 0.06583049 0.6662003
vt 0.05823087 0.6662003
vt 0.05443107 0.6737999
vt 0.05823087 0.6700001
vt 0.06203068 0.6737999
vt 0.06203068 0.6700001
vt 0.06203068 0.6662003
vt 0.06583049 0.6662003
vt 0.06203068 0.6700001
vt 0.7687951 0.7611955
vt 0.7687951 0.7611955
vt 0.7687951 0.7535959
vt 0.7687951 0.7535959
vt 0.7801945 0.7649953
vt 0.7801945 0.7649953
vt 0.7801945 0.7611955
vt 0.7725949 0.7611955
vt 0.7649953 0.7535959
vt 0.7687951 0.7535959
vt 0.7687951 0.7611955
vt 0.7649953 0.7535959
vt 0.7687951 0.7611955
vt 0.7687951 0.7611955
vt 0.7801945 0.7611955
vt 0.7801945 0.7611955
vt 0.7801945 0.7649953
vt 0.7801945 0.7649953
vt 0.03163221 0.6662003
vt 0.03163221 0.6700001
vt 0.03543202 0.6700001
vt 0.03543202 0.6662003
vt 0.970185 0.6775997
vt 0.970185 0.6775997
vt 0.970185 0.6775997
vt 0.970185 0.6775997
vt 0.3432165 0.6700001
vt 0.3432165 0.3432165
vt 0.05063125 0.3432165
vt 0.05063125 0.6700001
vt 0.04683144 0.6700001
vt 0.05063125 0.6700001
vt 0.05063125 0.6662003
vt 0.04683144 0.6662003
vt 0.9359867 0.7573957
vt 0.9359867 0.7725949
vt 0.9397865 0.7725949
vt 0.9397865 0.7573957
vt 0.9169877 0.7459962
vt 0.9169877 0.7535959
vt 0.9207875 0.7535959
vt 0.9207875 0.7459962
vt 0.9131879 0.8751898
vt 0.9131879 0.8789896
vt 0.9131879 0.8789896
vt 0.9131879 0.8751898
vt 0.928387 0.6813995
vt 0.9321869 0.6813995
vt 0.9321869 0.6775997
vt 0.928387 0.6775997
vt 0.05063125 0.6662003
vt 0.05063125 0.6700001
vt 0.05063125 0.6700001
vt 0.05063125 0.6662003
vt 0.928387 0.8865892
vt 0.9397865 0.8865892
vt 0.9397865 0.8485911
vt 0.928387 0.8485911
vt 0.9169877 0.8751898
vt 0.9169877 0.8789896
vt 0.9169877 0.8789896
vt 0.9169877 0.8751898
vt 0.8865892 0.8485911
vt 0.8865892 0.9511859
vt 0.9017884 0.9511859
vt 0.9017884 0.8485911
vt 0.5104082 0.03543202
vt 0.514208 0.03543202
vt 0.514208 0.02403259
vt 0.5104082 0.02403259
vt 0.5978037 0.03923183
vt 0.6016036 0.03923183
vt 0.6016036 0.0278324
vt 0.5978037 0.0278324
vt 0.514208 0.03543202
vt 0.5218076 0.03543202
vt 0.5218076 0.02403259
vt 0.514208 0.02403259
vt 0.3964139 0.04303164
vt 0.4002137 0.04303164
vt 0.4002137 0.03163221
vt 0.3964139 0.03163221
vt 0.4002137 0.03163221
vt 0.4002137 0.04303164
vt 0.4040135 0.04303164
vt 0.4040135 0.03163221
vt 0.4078133 0.03163221
vt 0.4078133 0.04303164
vt 0.4116131 0.04303164
vt 0.4116131 0.03163221
vt 0.8029934 0.9245872
vt 0.7459962 0.9245872
vt 0.7459962 0.9473861
vt 0.8029934 0.9473861
vt 0.9815844 0.8865892
vt 0.711798 0.8865892
vt 0.711798 0.9929838
vt 0.9815844 0.9929838
vt 0.711798 0.8865892
vt 0.711798 0.9929838
vt 0.9815844 0.9929838
vt 0.9815844 0.8865892
vt 0.7459962 0.9245872
vt 0.7459962 0.9473861
vt 0.8029934 0.9473861
vt 0.8029934 0.9245872
vn -0.01587105 0.01587105 0.9997481
vn -0.01587105 0.01587105 0.9997481
vn -0.01587105 0.01587105 0.9997481
vn -0.01587105 0.01587105 0.9997481
vn -0.01587105 0.01587105 0.9997481
vn -0.01587105 0.01587105 0.9997481
vn -0.01587105 0.999874 -0.000345267
vn -0.01587105 0.999874 -0.000345267
vn -0.01587105 0.999874 -0.000345267
vn -0.01587105 0.999874 -0.000345267
vn -0.01587105 0.999874 -0.000345267
vn -0.01587105 0.999874 -0.000345267
vn -0.01587105 0.01587105 -0.9997481
vn -0.01587105 0.01587105 -0.9997481
vn -0.01587105 0.01587105 -0.9997481
vn -0.01587105 0.01587105 -0.9997481
vn -0.01587105 -0.999874 -0.000345267
vn -0.01587105 -0.999874 -0.000345267
vn -0.01587105 -0.999874 -0.000345267
vn -0.01587105 -0.999874 -0.000345267
vn -0.01587105 -0.999874 -0.000345267
vn -0.01587105 -0.999874 -0.000345267
vn 0.999874 0.01587105 -0.0003439156
vn 0.999874 0.01587105 -0.0003439156
vn 0.999874 0.01587105 -0.0003439156
vn 0.999874 0.01587105 -0.0003439156
vn 0.999874 0.01587105 -0.0003439156
vn 0.999874 0.01587105 -0.0003439156
vn -0.999874 0.01587105 -0.0003439156
vn -0.999874 0.01587105 -0.0003439156
vn -0.999874 0.01587105 -0.0003439156
vn -0.999874 0.01587105 -0.0003439156
vn -0.999874 0.01587105 -0.0003439156
vn -0.999874 0.01587105 -0.0003439156
vn -0.01587105 0.01587105 -0.9997481
vn -0.01587105 0.01587105 -0.9997481
vn -0.01587105 0.01587105 -0.9997481
vn -0.01587105 0.01587105 -0.9997481
vn -0.01587105 0.01587105 -0.9997481
vn -0.01587105 0.01587105 -0.9997481
vn -0.01587105 0.01587105 -0.9997481
vn -0.01587105 0.01587105 -0.9997481
vn -0.01587105 0.01587105 -0.9997481
vn -0.01587105 0.01587105 -0.9997481
vn -0.01587105 0.01587105 -0.9997481
vn -0.01587105 0.01587105 -0.9997481
vn -0.01587105 0.01587105 -0.9997481
vn -0.01587105 0.01587105 -0.9997481
vn -0.01587105 0.01587105 -0.9997481
vn -0.01587105 0.01587105 -0.9997481
vn -0.01587105 0.01587105 -0.9997481
vn -0.01587105 0.01587105 -0.9997481
vn -0.01587105 0.01587105 -0.9997481
vn -0.01587105 0.01587105 -0.9997481
vn -0.01587105 0.01587105 -0.9997481
vn -0.01587105 -0.999874 -0.000345267
vn -0.01587105 -0.999874 -0.000345267
vn -0.01587105 -0.999874 -0.000345267
vn -0.01587105 -0.999874 -0.000345267
vn -0.999874 0.01587105 -0.0003439156
vn -0.999874 0.01587105 -0.0003439156
vn -0.999874 0.01587105 -0.0003439156
vn -0.999874 0.01587105 -0.0003439156
vn -0.01587105 0.999874 -0.000345267
vn -0.01587105 0.999874 -0.000345267
vn -0.01587105 0.999874 -0.000345267
vn -0.01587105 0.999874 -0.000345267
vn -0.01587105 0.999874 -0.000345267
vn -0.01587105 0.999874 -0.000345267
vn 0.999874 0.01587105 -0.0003439156
vn 0.999874 0.01587105 -0.0003439156
vn 0.999874 0.01587105 -0.0003439156
vn 0.999874 0.01587105 -0.0003439156
vn -0.01587105 0.01587105 0.9997481
vn -0.01587105 0.01587105 0.9997481
vn -0.01587105 0.01587105 0.9997481
vn -0.01587105 0.01587105 0.9997481
vn -0.01587105 0.999874 -0.000345267
vn -0.01587105 0.999874 -0.000345267
vn -0.01587105 0.999874 -0.000345267
vn -0.01587105 0.999874 -0.000345267
vn -0.01587105 0.01587105 -0.9997481
vn -0.01587105 0.01587105 -0.9997481
vn -0.01587105 0.01587105 -0.9997481
vn -0.01587105 0.01587105 -0.9997481
vn -0.01587105 -0.999874 -0.000345267
vn -0.01587105 -0.999874 -0.000345267
vn -0.01587105 -0.999874 -0.000345267
vn -0.01587105 -0.999874 -0.000345267
vn 0.999874 0.01587105 -0.0003439156
vn 0.999874 0.01587105 -0.0003439156
vn 0.999874 0.01587105 -0.0003439156
vn 0.999874 0.01587105 -0.0003439156
vn -0.999874 0.01587105 -0.0003439156
vn -0.999874 0.01587105 -0.0003439156
vn -0.999874 0.01587105 -0.0003439156
vn -0.999874 0.01587105 -0.0003439156
vn -0.01587105 0.01587105 0.9997481
vn -0.01587105 0.01587105 0.9997481
vn -0.01587105 0.01587105 0.9997481
vn -0.01587105 0.01587105 0.9997481
vn -0.01587105 0.999874 -0.000345267
vn -0.01587105 0.999874 -0.000345267
vn -0.01587105 0.999874 -0.000345267
vn -0.01587105 0.999874 -0.000345267
vn -0.01587105 0.01587105 -0.9997481
vn -0.01587105 0.01587105 -0.9997481
vn -0.01587105 0.01587105 -0.9997481
vn -0.01587105 0.01587105 -0.9997481
vn -0.01587105 -0.999874 -0.000345267
vn -0.01587105 -0.999874 -0.000345267
vn -0.01587105 -0.999874 -0.000345267
vn -0.01587105 -0.999874 -0.000345267
vn 0.999874 0.01587105 -0.0003439156
vn 0.999874 0.01587105 -0.0003439156
vn 0.999874 0.01587105 -0.0003439156
vn 0.999874 0.01587105 -0.0003439156
vn -0.999874 0.01587105 -0.0003439156
vn -0.999874 0.01587105 -0.0003439156
vn -0.999874 0.01587105 -0.0003439156
vn -0.999874 0.01587105 -0.0003439156
vn -0.01587105 0.01587105 0.9997481
vn -0.01587105 0.01587105 0.9997481
vn -0.01587105 0.01587105 0.9997481
vn -0.01587105 0.01587105 0.9997481
vn -0.01587105 0.999874 -0.000345267
vn -0.01587105 0.999874 -0.000345267
vn -0.01587105 0.999874 -0.000345267
vn -0.01587105 0.999874 -0.000345267
vn -0.01587105 0.01587105 -0.9997481
vn -0.01587105 0.01587105 -0.9997481
vn -0.01587105 0.01587105 -0.9997481
vn -0.01587105 0.01587105 -0.9997481
vn -0.01587105 -0.999874 -0.000345267
vn -0.01587105 -0.999874 -0.000345267
vn -0.01587105 -0.999874 -0.000345267
vn -0.01587105 -0.999874 -0.000345267
vn 0.999874 0.01587105 -0.0003439156
vn 0.999874 0.01587105 -0.0003439156
vn 0.999874 0.01587105 -0.0003439156
vn 0.999874 0.01587105 -0.0003439156
vn -0.999874 0.01587105 -0.0003439156
vn -0.999874 0.01587105 -0.0003439156
vn -0.999874 0.01587105 -0.0003439156
vn -0.999874 0.01587105 -0.0003439156
vn -0.999874 0.01587105 -0.0003439156
vn -0.999874 0.01587105 -0.0003439156
vn -0.999874 0.01587105 -0.0003439156
vn -0.999874 0.01587105 -0.0003439156
vn -0.999874 0.01587105 -0.0003439156
vn -0.999874 0.01587105 -0.0003439156
vn -0.999874 0.01587105 -0.0003439156
vn -0.999874 0.01587105 -0.0003439156
vn 0.999874 0.01587105 -0.0003439156
vn 0.999874 0.01587105 -0.0003439156
vn 0.999874 0.01587105 -0.0003439156
vn 0.999874 0.01587105 -0.0003439156
vn 0.999874 0.01587105 -0.0003439156
vn 0.999874 0.01587105 -0.0003439156
vn 0.999874 0.01587105 -0.0003439156
vn 0.999874 0.01587105 -0.0003439156
f 3/3/3 2/2/2 1/1/1
f 4/4/4 3/3/3 1/1/1
f 3/3/3 5/5/5 2/2/2
f 5/5/5 6/6/6 2/2/2
f 9/9/9 8/8/8 7/7/7
f 10/10/10 9/9/9 7/7/7
f 9/9/9 11/11/11 8/8/8
f 11/11/11 12/12/12 8/8/8
f 15/15/15 14/14/14 13/13/13
f 16/16/16 15/15/15 13/13/13
f 19/19/19 18/18/18 17/17/17
f 20/20/20 19/19/19 17/17/17
f 20/20/20 17/17/17 21/21/21
f 22/22/22 20/20/20 21/21/21
f 25/25/25 24/24/24 23/23/23
f 26/26/26 25/25/25 23/23/23
f 25/25/25 27/27/27 24/24/24
f 27/27/27 28/28/28 24/24/24
f 31/31/31 30/30/30 29/29/29
f 32/32/32 31/31/31 29/29/29
f 31/31/31 33/33/33 30/30/30
f 33/33/33 34/34/34 30/30/30
f 37/37/37 36/36/36 35/35/35
f 38/38/38 37/37/37 35/35/35
f 41/41/41 40/40/40 39/39/39
f 42/42/42 41/41/41 39/39/39
f 43/43/43 41/41/41 42/42/42
f 44/44/44 43/43/43 42/42/42
f 45/45/45 43/43/43 44/44/44
f 46/46/46 45/45/45 44/44/44
f 40/40/40 45/45/45 46/46/46
f 39/39/39 40/40/40 46/46/46
f 39/39/39 47/47/47 42/42/42
f 47/47/47 48/48/48 42/42/42
f 42/42/42 48/48/48 49/49/49
f 48/48/48 50/50/50 49/49/49
f 49/49/49 50/50/50 51/51/51
f 51/51/51 52/52/52 39/39/39
f 50/50/50 52/52/52 51/51/51
f 55/55/55 54/54/54 53/53/53
f 58/58/58 57/57/57 56/56/56
f 59/59/59 58/58/58 56/56/56
f 62/62/62 61/61/61 60/60/60
f 63/63/63 62/62/62 60/60/60
f 66/66/66 65/65/65 64/64/64
f 69/69/69 68/68/68 67/67/67
f 72/72/72 71/71/71 70/70/70
f 73/73/73 72/72/72 70/70/70
f 76/76/76 75/75/75 74/74/74
f 77/77/77 76/76/76 74/74/74
f 80/80/80 79/79/79 78/78/78
f 81/81/81 80/80/80 78/78/78
f 84/84/84 83/83/83 82/82/82
f 85/85/85 84/84/84 82/82/82
f 88/88/88 87/87/87 86/86/86
f 89/89/89 88/88/88 86/86/86
f 92/92/92 91/91/91 90/90/90
f 93/93/93 92/92/92 90/90/90
f 96/96/96 95/95/95 94/94/94
f 97/97/97 96/96/96 94/94/94
f 100/100/100 99/99/99 98/98/98
f 101/101/101 100/100/100 98/98/98
f 104/104/104 103/103/103 102/102/102
f 105/105/105 104/104/104 102/102/102
f 108/108/108 107/107/107 106/106/106
f 109/109/109 108/108/108 106/106/106
f 112/112/112 111/111/111 110/110/110
f 113/113/113 112/112/112 110/110/110
f 116/116/116 115/115/115 114/114/114
f 117/117/117 116/116/116 114/114/114
f 120/120/120 119/119/119 118/118/118
f 121/121/121 120/120/120 118/118/118
f 124/124/124 123/123/123 122/122/122
f 125/125/125 124/124/124 122/122/122
f 128/128/128 127/127/127 126/126/126
f 129/129/129 128/128/128 126/126/126
f 132/132/132 131/131/131 130/130/130
f 133/133/133 132/132/132 130/130/130
f 136/136/136 135/135/135 134/134/134
f 137/137/137 136/136/136 134/134/134
f 140/140/140 139/139/139 138/138/138
f 141/141/141 140/140/140 138/138/138
f 144/144/144 143/143/143 142/142/142
f 145/145/145 144/144/144 142/142/142
f 148/148/148 147/147/147 146/146/146
f 149/149/149 148/148/148 146/146/146
f 152/152/152 151/151/151 150/150/150
f 153/153/153 152/152/152 150/150/150
f 156/156/156 155/155/155 154/154/154
f 157/157/157 156/156/156 154/154/154
f 160/160/160 159/159/159 158/158/158
f 161/161/161 160/160/160 158/158/158
