g petrol_station_cover_mesh_top
v -7.164677 7.906253 9.888632
v -7.164677 9.326251 9.888632
v 7.164677 9.326251 9.888632
v 7.164677 7.906253 9.888632
v -6.680586 9.326251 9.365943
v -6.680586 9.326251 -9.365942
v 6.680586 9.326251 -9.365942
v 6.680586 9.326251 9.365943
v -7.164677 9.326251 -9.888632
v -7.164677 7.906253 -9.888632
v 7.164677 7.906253 -9.888632
v 7.164677 9.326251 -9.888632
v -7.164677 7.906253 -9.888632
v -7.164677 7.906253 9.888632
v 7.164677 7.906253 9.888632
v 7.164677 7.906253 -9.888632
v 7.164677 7.906253 9.888632
v 7.164677 9.326251 9.888632
v 7.164677 9.326251 -9.888632
v 7.164677 7.906253 -9.888632
v -7.164677 7.906253 -9.888632
v -7.164677 9.326251 -9.888632
v -7.164677 9.326251 9.888632
v -7.164677 7.906253 9.888632
v -7.164677 9.326251 9.888632
v -6.680586 9.326251 9.365943
v 6.680586 9.326251 9.365943
v 7.164677 9.326251 9.888632
v 6.680586 9.326251 -9.365942
v 7.164677 9.326251 -9.888632
v -6.680586 9.326251 -9.365942
v -7.164677 9.326251 -9.888632
v -7.437849 8.206153 10.16421
v -7.437849 8.595413 10.16421
v 7.437849 8.595413 10.16421
v 7.437849 8.206153 10.16421
v -7.437849 8.595413 10.16421
v -7.437849 8.595413 -10.16421
v 7.437849 8.595413 -10.16421
v 7.437849 8.595413 10.16421
v -7.437849 8.595413 -10.16421
v -7.437849 8.206153 -10.16421
v 7.437849 8.206153 -10.16421
v 7.437849 8.595413 -10.16421
v -7.437849 8.206153 -10.16421
v -7.437849 8.206153 10.16421
v 7.437849 8.206153 10.16421
v 7.437849 8.206153 -10.16421
v 7.437849 8.206153 10.16421
v 7.437849 8.595413 10.16421
v 7.437849 8.595413 -10.16421
v 7.437849 8.206153 -10.16421
v -7.437849 8.206153 -10.16421
v -7.437849 8.595413 -10.16421
v -7.437849 8.595413 10.16421
v -7.437849 8.206153 10.16421
vt 0.5588193 0.1151553
vt 0.5626778 0.1151553
vt 0.5626778 0.09910816
vt 0.5588193 0.09910816
vt 0.1165796 0.3207563
vt 0.1301433 0.3207563
vt 0.1301433 0.2998489
vt 0.1165796 0.299849
vt 0.5544167 0.1151553
vt 0.5582752 0.1151553
vt 0.5582752 0.09910816
vt 0.5544167 0.09910816
vt 0.1114024 0.4701553
vt 0.1114024 0.4981865
vt 0.132857 0.4981865
vt 0.132857 0.4701553
vt 0.5021549 0.04326856
vt 0.5434655 0.04326856
vt 0.5434655 0.02161738
vt 0.5021549 0.02161738
vt 0.3448621 0.1697333
vt 0.3861726 0.1697333
vt 0.3861726 0.1506311
vt 0.3448621 0.1506311
vt 0.05149695 0.7697326
vt 0.05149695 0.7697326
vt 0.08478066 0.7697326
vt 0.08478066 0.7697326
vt 0.08478066 0.7832963
vt 0.08478066 0.7832963
vt 0.05149695 0.7832963
vt 0.05149695 0.7832963
vt 0.563352 0.2589098
vt 0.5633521 0.2565413
vt 0.5229392 0.2565413
vt 0.5229392 0.2589098
vt 0.5195354 0.1936864
vt 0.5195354 0.2205256
vt 0.5626707 0.2205256
vt 0.5626707 0.1936864
vt 0.5635726 0.2596892
vt 0.5635726 0.2573153
vt 0.5231597 0.2573153
vt 0.5231597 0.2596892
vt 0.5158696 0.1900875
vt 0.5158696 0.2232134
vt 0.570242 0.2232134
vt 0.570242 0.1900875
vt 0.4984694 0.3126771
vt 0.5008429 0.3126771
vt 0.5008429 0.2928504
vt 0.4984694 0.2928504
vt 0.5942193 0.3126771
vt 0.5965928 0.3126771
vt 0.5965928 0.2928504
vt 0.5942193 0.2928504
vn 0 0 1
vn 0 0 1
vn 0 0 1
vn 0 0 1
vn 0 1 0
vn 0 1 0
vn 0 1 0
vn 0 1 0
vn 0 0 -1
vn 0 0 -1
vn 0 0 -1
vn 0 0 -1
vn 0 -1 0
vn 0 -1 0
vn 0 -1 0
vn 0 -1 0
vn 1 0 0
vn 1 0 0
vn 1 0 0
vn 1 0 0
vn -1 0 0
vn -1 0 0
vn -1 0 0
vn -1 0 0
vn 0 1 0
vn 0 1 0
vn 0 1 0
vn 0 1 0
vn 0 1 0
vn 0 1 0
vn 0 1 0
vn 0 1 0
vn 0 0 1
vn 0 0 1
vn 0 0 1
vn 0 0 1
vn 0 1 0
vn 0 1 0
vn 0 1 0
vn 0 1 0
vn 0 0 -1
vn 0 0 -1
vn 0 0 -1
vn 0 0 -1
vn 0 -1 0
vn 0 -1 0
vn 0 -1 0
vn 0 -1 0
vn 1 0 0
vn 1 0 0
vn 1 0 0
vn 1 0 0
vn -1 0 0
vn -1 0 0
vn -1 0 0
vn -1 0 0
f 3/3/3 2/2/2 1/1/1
f 4/4/4 3/3/3 1/1/1
f 7/7/7 6/6/6 5/5/5
f 8/8/8 7/7/7 5/5/5
f 11/11/11 10/10/10 9/9/9
f 12/12/12 11/11/11 9/9/9
f 15/15/15 14/14/14 13/13/13
f 16/16/16 15/15/15 13/13/13
f 19/19/19 18/18/18 17/17/17
f 20/20/20 19/19/19 17/17/17
f 23/23/23 22/22/22 21/21/21
f 24/24/24 23/23/23 21/21/21
f 27/27/27 26/26/26 25/25/25
f 28/28/28 27/27/27 25/25/25
f 29/29/29 27/27/27 28/28/28
f 30/30/30 29/29/29 28/28/28
f 31/31/31 29/29/29 30/30/30
f 32/32/32 31/31/31 30/30/30
f 26/26/26 31/31/31 32/32/32
f 25/25/25 26/26/26 32/32/32
f 35/35/35 34/34/34 33/33/33
f 36/36/36 35/35/35 33/33/33
f 39/39/39 38/38/38 37/37/37
f 40/40/40 39/39/39 37/37/37
f 43/43/43 42/42/42 41/41/41
f 44/44/44 43/43/43 41/41/41
f 47/47/47 46/46/46 45/45/45
f 48/48/48 47/47/47 45/45/45
f 51/51/51 50/50/50 49/49/49
f 52/52/52 51/51/51 49/49/49
f 55/55/55 54/54/54 53/53/53
f 56/56/56 55/55/55 53/53/53
