g petrol_station_base_fuel_top
v -3.787097 0.6456702 10.53316
v 3.759947 0.6456702 10.53316
v 3.759948 -1.429176 10.53316
v -3.787097 -1.429176 10.53316
v -3.385982 0.6456702 -10.06485
v 3.358833 0.6456702 -10.06485
v 3.358833 0.6456702 -3.332026
v -3.385982 0.6456702 -3.332026
v 3.358833 0.6456702 0.03438473
v -3.385982 0.6456702 0.03438473
v -3.385982 0.6456702 3.400795
v 3.358833 0.6456702 3.400795
v 3.358833 0.6456702 10.13362
v -3.385982 0.6456702 10.13362
v 3.759947 0.6456702 -3.465206
v 3.759947 0.6456702 -10.46439
v 3.759947 -1.429176 -10.46439
v 3.759947 -1.429176 -3.465206
v 3.759947 0.6456702 0.03438473
v 3.759947 -1.429176 0.03438473
v 3.759947 0.6456702 3.533976
v 3.759948 -1.429176 3.533976
v 3.759948 -1.429176 10.53316
v 3.759947 0.6456702 10.53316
v -3.787097 0.6456702 3.533976
v -3.787097 0.6456702 10.53316
v -3.787097 -1.429176 10.53316
v -3.787097 -1.429176 3.533976
v -3.787097 0.6456702 0.03438473
v -3.787097 -1.429176 0.03438473
v -3.787097 0.6456702 -3.465206
v -3.787097 -1.429176 -3.465206
v -3.787097 -1.429176 -10.46439
v -3.787097 0.6456702 -10.46439
v -3.787097 0.6456702 -10.46439
v -3.385982 0.6456702 -10.06485
v -3.385982 0.6456702 -3.332026
v -3.787097 0.6456702 -3.465206
v 3.759947 0.6456702 -10.46439
v 3.358833 0.6456702 -10.06485
v 3.759947 0.6456702 -3.465206
v 3.358833 0.6456702 -3.332026
v -3.385982 0.6456702 0.03438473
v -3.787097 0.6456702 0.03438473
v 3.759947 0.6456702 0.03438473
v 3.358833 0.6456702 0.03438473
v -3.385982 0.6456702 3.400795
v -3.787097 0.6456702 3.533976
v -3.385982 0.6456702 10.13362
v -3.787097 0.6456702 10.53316
v 3.358833 0.6456702 10.13362
v 3.759947 0.6456702 10.53316
v 3.358833 0.6456702 3.400795
v 3.759947 0.6456702 3.533976
v 3.759947 -1.429176 -10.46439
v 3.759947 0.6456702 -10.46439
v -3.787097 0.6456702 -10.46439
v -3.787097 -1.429176 -10.46439
v -4.280599 -0.6694667 11.08463
v -4.280599 0.09050012 11.08463
v 4.253448 0.09050012 11.08463
v 4.253448 -0.6694667 11.08463
v -4.280599 0.09050012 11.08463
v -4.280599 0.09050012 -11.01586
v 4.253448 0.09050012 -11.01586
v 4.253448 0.09050012 9.24705
v 4.253448 0.09050012 9.24705
v 4.253448 0.09050012 11.08463
v -4.280599 0.09050012 -11.01586
v -4.280599 -0.6694667 -11.01586
v 4.253448 -0.6694667 -11.01586
v 4.253448 0.09050012 -11.01586
v -4.280599 -0.6694667 -11.01586
v -4.280599 -0.6694667 11.08463
v 4.253448 -0.6694667 9.246203
v 4.253448 -0.6694667 -11.01586
v 4.253448 -0.6694667 9.246203
v 4.253448 0.09050012 9.24705
v 4.253448 0.09050012 -11.01586
v 4.253448 -0.6694667 -11.01586
v -4.280599 -0.6694667 -11.01586
v -4.280599 0.09050012 -11.01586
v -4.280599 0.09050012 11.08463
v -4.280599 -0.6694667 11.08463
v 4.253448 -0.6694667 11.08463
v 4.253448 0.09050012 11.08463
v 4.253448 0.09050012 9.24705
v 4.253448 -0.6694667 9.246203
v -4.280599 -0.6694667 11.08463
v 4.253448 -0.6694667 11.08463
v 4.253448 -0.6694667 9.246203
v 3.034482 -0.6320226 9.778025
v 3.034482 -1.264652 9.778025
v 4.034482 -1.264653 9.778024
v 4.034482 -0.6320226 9.778025
v 3.034482 -1.264653 10.77802
v 3.034482 -0.6320226 10.77802
v 4.034482 -0.6320226 10.77802
v 4.034482 -1.264652 10.77802
v 4.034482 -1.264652 10.77802
v 4.034482 -0.6320226 10.77802
v 4.034482 -0.6320226 9.778025
v 4.034482 -1.264653 9.778024
v 3.034482 -1.264652 9.778025
v 3.034482 -0.6320226 9.778025
v 3.034482 -0.6320226 10.77802
v 3.034482 -1.264653 10.77802
v -4.027042 -0.6320226 9.778025
v -4.027042 -1.264652 9.778025
v -3.027042 -1.264653 9.778024
v -3.027042 -0.6320226 9.778025
v -4.027042 -1.264653 10.77802
v -4.027042 -0.6320226 10.77802
v -3.027042 -0.6320226 10.77802
v -3.027042 -1.264652 10.77802
v -3.027042 -1.264652 10.77802
v -3.027042 -0.6320226 10.77802
v -3.027042 -0.6320226 9.778025
v -3.027042 -1.264653 9.778024
v -4.027042 -1.264652 9.778025
v -4.027042 -0.6320226 9.778025
v -4.027042 -0.6320226 10.77802
v -4.027042 -1.264653 10.77802
v 3.034482 -0.6320226 -10.72125
v 3.034482 -1.264652 -10.72125
v 4.034482 -1.264653 -10.72125
v 4.034482 -0.6320226 -10.72125
v 3.034482 -1.264653 -9.721247
v 3.034482 -0.6320226 -9.721247
v 4.034482 -0.6320226 -9.721247
v 4.034482 -1.264652 -9.721247
v 4.034482 -1.264652 -9.721247
v 4.034482 -0.6320226 -9.721247
v 4.034482 -0.6320226 -10.72125
v 4.034482 -1.264653 -10.72125
v 3.034482 -1.264652 -10.72125
v 3.034482 -0.6320226 -10.72125
v 3.034482 -0.6320226 -9.721247
v 3.034482 -1.264653 -9.721247
v -4.027042 -0.6320226 -10.72125
v -4.027042 -1.264652 -10.72125
v -3.027042 -1.264653 -10.72125
v -3.027042 -0.6320226 -10.72125
v -4.027042 -1.264653 -9.721247
v -4.027042 -0.6320226 -9.721247
v -3.027042 -0.6320226 -9.721247
v -3.027042 -1.264652 -9.721247
v -3.027042 -1.264652 -9.721247
v -3.027042 -0.6320226 -9.721247
v -3.027042 -0.6320226 -10.72125
v -3.027042 -1.264653 -10.72125
v -4.027042 -1.264652 -10.72125
v -4.027042 -0.6320226 -10.72125
v -4.027042 -0.6320226 -9.721247
v -4.027042 -1.264653 -9.721247
v -4.44865 -0.5117853 11.23709
v -4.44865 -0.2756178 11.23709
v 4.44865 -0.2756178 11.23709
v 4.44865 -0.5117853 11.23709
v -4.44865 -0.2756178 11.23709
v -4.44865 -0.2756178 -11.23709
v 4.44865 -0.2756178 -11.23709
v 4.44865 -0.2756178 11.23709
v -4.44865 -0.2756178 -11.23709
v -4.44865 -0.5117853 -11.23709
v 4.44865 -0.5117853 -11.23709
v 4.44865 -0.2756178 -11.23709
v -4.44865 -0.5117853 -11.23709
v -4.44865 -0.5117853 11.23709
v 4.44865 -0.5117853 11.23709
v 4.44865 -0.5117853 -11.23709
v 4.44865 -0.5117853 11.23709
v 4.44865 -0.2756178 11.23709
v 4.44865 -0.2756178 -11.23709
v 4.44865 -0.5117853 -11.23709
v -4.44865 -0.5117853 -11.23709
v -4.44865 -0.2756178 -11.23709
v -4.44865 -0.2756178 11.23709
v -4.44865 -0.5117853 11.23709
v -0.004924297 0.5708315 9.353267
v -0.004924297 1.429177 9.353267
v 2.276204 1.429177 9.353267
v 2.276204 0.5708315 9.353267
v -0.004924297 1.429177 9.353267
v -0.004924297 1.429177 8.297799
v 2.276204 1.429177 8.297799
v 2.276204 1.429177 9.353267
v -0.004924297 1.429177 8.297799
v -0.004924297 0.5708315 8.297799
v 2.276204 0.5708315 8.297799
v 2.276204 1.429177 8.297799
v 2.276204 0.5708315 9.353267
v 2.276204 1.429177 9.353267
v 2.276204 1.429177 8.297799
v 2.276204 0.5708315 8.297799
v -0.004924297 0.5708315 8.297799
v -0.004924297 1.429177 8.297799
v -0.004924297 1.429177 9.353267
v -0.004924297 0.5708315 9.353267
v -0.004924297 0.5708315 -8.181674
v -0.004924297 1.429177 -8.181674
v 2.276204 1.429177 -8.181674
v 2.276204 0.5708315 -8.181674
v -0.004924297 1.429177 -8.181674
v -0.004924297 1.429177 -9.237142
v 2.276204 1.429177 -9.237142
v 2.276204 1.429177 -8.181674
v -0.004924297 1.429177 -9.237142
v -0.004924297 0.5708315 -9.237142
v 2.276204 0.5708315 -9.237142
v 2.276204 1.429177 -9.237142
v 2.276204 0.5708315 -8.181674
v 2.276204 1.429177 -8.181674
v 2.276204 1.429177 -9.237142
v 2.276204 0.5708315 -9.237142
v -0.004924297 0.5708315 -9.237142
v -0.004924297 1.429177 -9.237142
v -0.004924297 1.429177 -8.181674
v -0.004924297 0.5708315 -8.181674
vt 0.02616656 0.07563436
vt 0.0115326 0.07563436
vt 0.0115326 0.2120971
vt 0.02616658 0.2120971
vt 0.1121862 0.4094922
vt 0.1224842 0.4094922
vt 0.1224842 0.3878093
vt 0.1121862 0.3878093
vt 0.1224842 0.3769679
vt 0.1121862 0.3769679
vt 0.1121862 0.3661264
vt 0.1224842 0.3661264
vt 0.1224842 0.3444436
vt 0.1121862 0.3444436
vt 0.06615549 0.08044946
vt 0.06919533 0.08044928
vt 0.06919512 0.2119706
vt 0.0661556 0.2119712
vt 0.06463605 0.08044994
vt 0.06463605 0.2119714
vt 0.06311589 0.0804497
vt 0.06311589 0.211971
vt 0.06007638 0.2119718
vt 0.06007618 0.08044928
vt 0.01314908 0.07828125
vt 0.004898172 0.07828134
vt 0.00489821 0.2130743
vt 0.01314907 0.2130744
vt 0.01727455 0.07828119
vt 0.01727461 0.2130743
vt 0.02140004 0.07828122
vt 0.02140004 0.2130742
vt 0.02725673 0.2157411
vt 0.02725671 0.08011316
vt 0.01182259 0.4927758
vt 0.01228197 0.4910997
vt 0.01228197 0.468271
vt 0.01182259 0.4688297
vt 0.02046582 0.4927758
vt 0.02000645 0.4910997
vt 0.02046582 0.4688297
vt 0.02000645 0.468271
vt 0.01228197 0.4568566
vt 0.01182259 0.4568566
vt 0.02046582 0.4568566
vt 0.02000645 0.4568566
vt 0.01228197 0.4454423
vt 0.01182259 0.4448835
vt 0.01228197 0.4226135
vt 0.01182259 0.4209374
vt 0.02000645 0.4226135
vt 0.02046582 0.4209374
vt 0.02000645 0.4454423
vt 0.02046582 0.4448835
vt 0.01022858 0.218408
vt 0.01022858 0.08194518
vt 0.02725671 0.08011316
vt 0.02725673 0.2157411
vt 0.5347855 0.1168841
vt 0.5347855 0.1161889
vt 0.5269797 0.1161888
vt 0.5269797 0.116884
vt 0.5492629 0.1589117
vt 0.5454303 0.1673487
vt 0.5518205 0.1673487
vt 0.5518205 0.1594989
vt 0.5794854 0.1647185
vt 0.5794854 0.1590362
vt 0.5426666 0.1163304
vt 0.5426666 0.1156353
vt 0.5348608 0.1156353
vt 0.5348608 0.1163304
vt 0.5659316 0.115042
vt 0.5659316 0.1236036
vt 0.5723217 0.1228914
vt 0.5723217 0.115042
vt 0.3450474 0.01776952
vt 0.3450516 0.01396412
vt 0.2435849 0.01396408
vt 0.2435848 0.01776963
vt 0.3542533 0.01332015
vt 0.3542533 0.009514511
vt 0.2435848 0.009514548
vt 0.2435848 0.01332007
vt 0.1603528 0.1921982
vt 0.1603528 0.2403341
vt 0.2901715 0.2403341
vt 0.2902313 0.1921982
vt 0.5561479 0.1593224
vt 0.5825377 0.1593224
vt 0.5825377 0.1536375
vt 0.1285347 0.515041
vt 0.1285347 0.4400063
vt 0.1285347 0.4400063
vt 0.1285347 0.515041
vt 0.01087439 0.4400063
vt 0.01087439 0.515041
vt 0.01087439 0.515041
vt 0.01087439 0.4400063
vt 0.04403752 0.4400063
vt 0.04403752 0.515041
vt 0.09055072 0.515041
vt 0.09055072 0.4400063
vt 0.1285347 0.4400063
vt 0.1285347 0.515041
vt 0.1098594 0.515041
vt 0.1098594 0.4400063
vt 0.1285347 0.515041
vt 0.1285347 0.4400063
vt 0.1285347 0.4400063
vt 0.1285347 0.515041
vt 0.01087439 0.4400063
vt 0.01087439 0.515041
vt 0.01087439 0.515041
vt 0.01087439 0.4400063
vt 0.1098594 0.4400063
vt 0.1098594 0.515041
vt 0.1285347 0.515041
vt 0.1285347 0.4400063
vt 0.09055072 0.4400063
vt 0.09055072 0.515041
vt 0.04403752 0.515041
vt 0.04403752 0.4400063
vt 0.02825814 0.515041
vt 0.02825814 0.4400063
vt 0.02825814 0.4400063
vt 0.02825814 0.515041
vt 0.1104357 0.4400063
vt 0.1104357 0.515041
vt 0.1104357 0.515041
vt 0.1104357 0.4400063
vt 0.0454728 0.4400063
vt 0.0454728 0.515041
vt 0.09198612 0.515041
vt 0.09198611 0.4400063
vt 0.129111 0.4400063
vt 0.129111 0.515041
vt 0.1104357 0.515041
vt 0.1104357 0.4400063
vt 0.02825814 0.515041
vt 0.02825814 0.4400063
vt 0.02825814 0.4400063
vt 0.02825814 0.515041
vt 0.1104357 0.4400063
vt 0.1104357 0.515041
vt 0.1104357 0.515041
vt 0.1104357 0.4400063
vt 0.1104357 0.4400063
vt 0.1104357 0.515041
vt 0.129111 0.515041
vt 0.129111 0.4400063
vt 0.09198612 0.4400063
vt 0.09198612 0.515041
vt 0.0454728 0.515041
vt 0.0454728 0.4400063
vt 0.563352 0.2589098
vt 0.5633521 0.2565413
vt 0.5229392 0.2565413
vt 0.5229392 0.2589098
vt 0.5195354 0.1936864
vt 0.5195354 0.2205256
vt 0.5626707 0.2205256
vt 0.5626707 0.1936864
vt 0.5635726 0.2596892
vt 0.5635726 0.2573153
vt 0.5231597 0.2573153
vt 0.5231597 0.2596892
vt 0.5158696 0.1900875
vt 0.5158696 0.2232134
vt 0.570242 0.2232134
vt 0.570242 0.1900875
vt 0.4984694 0.3126771
vt 0.5008429 0.3126771
vt 0.5008429 0.2928504
vt 0.4984694 0.2928504
vt 0.5942193 0.3126771
vt 0.5965928 0.3126771
vt 0.5965928 0.2928504
vt 0.5942193 0.2928504
vt 0.02517571 0.6754823
vt 0.057299 0.6754823
vt 0.057299 0.5361548
vt 0.02517571 0.5361548
vt 0.057299 0.6754823
vt 0.1227592 0.6754823
vt 0.1227592 0.5361548
vt 0.057299 0.5361548
vt 0.02519578 0.6754823
vt 0.05814826 0.6754823
vt 0.05814826 0.5361548
vt 0.02519578 0.5361548
vt 0.03071439 0.7223426
vt 0.06376314 0.7223426
vt 0.06376314 0.681848
vt 0.03071439 0.681848
vt 0.06449598 0.7223426
vt 0.09754485 0.7223426
vt 0.09754485 0.681848
vt 0.06449598 0.681848
vt 0.02517571 0.6754823
vt 0.057299 0.6754823
vt 0.057299 0.5361548
vt 0.02517571 0.5361548
vt 0.057299 0.6754823
vt 0.1227592 0.6754823
vt 0.1227592 0.5361548
vt 0.057299 0.5361548
vt 0.02519578 0.6754823
vt 0.05814826 0.6754823
vt 0.05814826 0.5361548
vt 0.02519578 0.5361548
vt 0.03071439 0.7223426
vt 0.06376314 0.7223426
vt 0.06376314 0.681848
vt 0.03071439 0.681848
vt 0.06449598 0.7223426
vt 0.09754485 0.7223426
vt 0.09754485 0.681848
vt 0.06449598 0.681848
vn 0 0 1
vn 0 0 1
vn 0 0 1
vn 0 0 1
vn 0 1 0
vn 0 1 0
vn 0 1 0
vn 0 1 0
vn 0 1 0
vn 0 1 0
vn 0 1 0
vn 0 1 0
vn 0 1 0
vn 0 1 0
vn 1 0 0
vn 1 0 0
vn 1 0 0
vn 1 0 0
vn 1 0 0
vn 1 0 0
vn 1 0 0
vn 1 0 0
vn 1 0 0
vn 1 0 0
vn -1 0 0
vn -1 0 0
vn -1 0 0
vn -1 0 0
vn -1 0 0
vn -1 0 0
vn -1 0 0
vn -1 0 0
vn -1 0 0
vn -1 0 0
vn 0 1 0
vn 0 1 0
vn 0 1 0
vn 0 1 0
vn 0 1 0
vn 0 1 0
vn 0 1 0
vn 0 1 0
vn 0 1 0
vn 0 1 0
vn 0 1 0
vn 0 1 0
vn 0 1 0
vn 0 1 0
vn 0 1 0
vn 0 1 0
vn 0 1 0
vn 0 1 0
vn 0 1 0
vn 0 1 0
vn 0 0 -1
vn 0 0 -1
vn 0 0 -1
vn 0 0 -1
vn 0 0 1
vn 0 0 1
vn 0 0 1
vn 0 0 1
vn 0 1 0
vn 0 1 0
vn 0 1 0
vn 0 1 0
vn 0 1 0
vn 0 1 0
vn 0 0 -1
vn 0 0 -1
vn 0 0 -1
vn 0 0 -1
vn 0 -1 0
vn 0 -1 0
vn 0 -1 0
vn 0 -1 0
vn 1 0 0
vn 1 0 0
vn 1 0 0
vn 1 0 0
vn -1 0 0
vn -1 0 0
vn -1 0 0
vn -1 0 0
vn 1 0 0
vn 1 0 0
vn 1 0 0
vn 1 0 0
vn 0 -1 0
vn 0 -1 0
vn 0 -1 0
vn 0 0 -1
vn 0 0 -1
vn 0 0 -1
vn 0 0 -1
vn 0 0 1
vn 0 0 1
vn 0 0 1
vn 0 0 1
vn 1 0 0
vn 1 0 0
vn 1 0 0
vn 1 0 0
vn -1 0 0
vn -1 0 0
vn -1 0 0
vn -1 0 0
vn 0 0 -1
vn 0 0 -1
vn 0 0 -1
vn 0 0 -1
vn 0 0 1
vn 0 0 1
vn 0 0 1
vn 0 0 1
vn 1 0 0
vn 1 0 0
vn 1 0 0
vn 1 0 0
vn -1 0 0
vn -1 0 0
vn -1 0 0
vn -1 0 0
vn 0 0 -1
vn 0 0 -1
vn 0 0 -1
vn 0 0 -1
vn 0 0 1
vn 0 0 1
vn 0 0 1
vn 0 0 1
vn 1 0 0
vn 1 0 0
vn 1 0 0
vn 1 0 0
vn -1 0 0
vn -1 0 0
vn -1 0 0
vn -1 0 0
vn 0 0 -1
vn 0 0 -1
vn 0 0 -1
vn 0 0 -1
vn 0 0 1
vn 0 0 1
vn 0 0 1
vn 0 0 1
vn 1 0 0
vn 1 0 0
vn 1 0 0
vn 1 0 0
vn -1 0 0
vn -1 0 0
vn -1 0 0
vn -1 0 0
vn 0 0 1
vn 0 0 1
vn 0 0 1
vn 0 0 1
vn 0 1 0
vn 0 1 0
vn 0 1 0
vn 0 1 0
vn 0 0 -1
vn 0 0 -1
vn 0 0 -1
vn 0 0 -1
vn 0 -1 0
vn 0 -1 0
vn 0 -1 0
vn 0 -1 0
vn 1 0 0
vn 1 0 0
vn 1 0 0
vn 1 0 0
vn -1 0 0
vn -1 0 0
vn -1 0 0
vn -1 0 0
vn 0 0 1
vn 0 0 1
vn 0 0 1
vn 0 0 1
vn 0 1 0
vn 0 1 0
vn 0 1 0
vn 0 1 0
vn 0 0 -1
vn 0 0 -1
vn 0 0 -1
vn 0 0 -1
vn 1 0 0
vn 1 0 0
vn 1 0 0
vn 1 0 0
vn -1 0 0
vn -1 0 0
vn -1 0 0
vn -1 0 0
vn 0 0 1
vn 0 0 1
vn 0 0 1
vn 0 0 1
vn 0 1 0
vn 0 1 0
vn 0 1 0
vn 0 1 0
vn 0 0 -1
vn 0 0 -1
vn 0 0 -1
vn 0 0 -1
vn 1 0 0
vn 1 0 0
vn 1 0 0
vn 1 0 0
vn -1 0 0
vn -1 0 0
vn -1 0 0
vn -1 0 0
f 3/3/3 2/2/2 1/1/1
f 4/4/4 3/3/3 1/1/1
f 7/7/7 6/6/6 5/5/5
f 8/8/8 7/7/7 5/5/5
f 9/9/9 7/7/7 8/8/8
f 10/10/10 9/9/9 8/8/8
f 10/10/10 11/11/11 9/9/9
f 11/11/11 12/12/12 9/9/9
f 13/13/13 12/12/12 11/11/11
f 14/14/14 13/13/13 11/11/11
f 17/17/17 16/16/16 15/15/15
f 18/18/18 17/17/17 15/15/15
f 18/18/18 15/15/15 19/19/19
f 20/20/20 18/18/18 19/19/19
f 20/20/20 19/19/19 21/21/21
f 22/22/22 20/20/20 21/21/21
f 22/22/22 21/21/21 23/23/23
f 21/21/21 24/24/24 23/23/23
f 27/27/27 26/26/26 25/25/25
f 28/28/28 27/27/27 25/25/25
f 28/28/28 25/25/25 29/29/29
f 30/30/30 28/28/28 29/29/29
f 30/30/30 29/29/29 31/31/31
f 32/32/32 30/30/30 31/31/31
f 32/32/32 31/31/31 33/33/33
f 31/31/31 34/34/34 33/33/33
f 37/37/37 36/36/36 35/35/35
f 38/38/38 37/37/37 35/35/35
f 35/35/35 36/36/36 39/39/39
f 36/36/36 40/40/40 39/39/39
f 39/39/39 40/40/40 41/41/41
f 40/40/40 42/42/42 41/41/41
f 43/43/43 37/37/37 38/38/38
f 44/44/44 43/43/43 38/38/38
f 41/41/41 42/42/42 45/45/45
f 42/42/42 46/46/46 45/45/45
f 47/47/47 43/43/43 44/44/44
f 48/48/48 47/47/47 44/44/44
f 49/49/49 47/47/47 48/48/48
f 50/50/50 49/49/49 48/48/48
f 51/51/51 49/49/49 50/50/50
f 52/52/52 51/51/51 50/50/50
f 53/53/53 51/51/51 52/52/52
f 54/54/54 53/53/53 52/52/52
f 46/46/46 53/53/53 54/54/54
f 45/45/45 46/46/46 54/54/54
f 57/57/57 56/56/56 55/55/55
f 58/58/58 57/57/57 55/55/55
f 61/61/61 60/60/60 59/59/59
f 62/62/62 61/61/61 59/59/59
f 65/65/65 64/64/64 63/63/63
f 66/66/66 65/65/65 63/63/63
f 68/68/68 67/67/67 63/63/63
f 71/71/71 70/70/70 69/69/69
f 72/72/72 71/71/71 69/69/69
f 75/75/75 74/74/74 73/73/73
f 76/76/76 75/75/75 73/73/73
f 79/79/79 78/78/78 77/77/77
f 80/80/80 79/79/79 77/77/77
f 83/83/83 82/82/82 81/81/81
f 84/84/84 83/83/83 81/81/81
f 87/87/87 86/86/86 85/85/85
f 88/88/88 87/87/87 85/85/85
f 91/91/91 90/90/90 89/89/89
f 94/94/94 93/93/93 92/92/92
f 95/95/95 94/94/94 92/92/92
f 98/98/98 97/97/97 96/96/96
f 99/99/99 98/98/98 96/96/96
f 102/102/102 101/101/101 100/100/100
f 103/103/103 102/102/102 100/100/100
f 106/106/106 105/105/105 104/104/104
f 107/107/107 106/106/106 104/104/104
f 110/110/110 109/109/109 108/108/108
f 111/111/111 110/110/110 108/108/108
f 114/114/114 113/113/113 112/112/112
f 115/115/115 114/114/114 112/112/112
f 118/118/118 117/117/117 116/116/116
f 119/119/119 118/118/118 116/116/116
f 122/122/122 121/121/121 120/120/120
f 123/123/123 122/122/122 120/120/120
f 126/126/126 125/125/125 124/124/124
f 127/127/127 126/126/126 124/124/124
f 130/130/130 129/129/129 128/128/128
f 131/131/131 130/130/130 128/128/128
f 134/134/134 133/133/133 132/132/132
f 135/135/135 134/134/134 132/132/132
f 138/138/138 137/137/137 136/136/136
f 139/139/139 138/138/138 136/136/136
f 142/142/142 141/141/141 140/140/140
f 143/143/143 142/142/142 140/140/140
f 146/146/146 145/145/145 144/144/144
f 147/147/147 146/146/146 144/144/144
f 150/150/150 149/149/149 148/148/148
f 151/151/151 150/150/150 148/148/148
f 154/154/154 153/153/153 152/152/152
f 155/155/155 154/154/154 152/152/152
f 158/158/158 157/157/157 156/156/156
f 159/159/159 158/158/158 156/156/156
f 162/162/162 161/161/161 160/160/160
f 163/163/163 162/162/162 160/160/160
f 166/166/166 165/165/165 164/164/164
f 167/167/167 166/166/166 164/164/164
f 170/170/170 169/169/169 168/168/168
f 171/171/171 170/170/170 168/168/168
f 174/174/174 173/173/173 172/172/172
f 175/175/175 174/174/174 172/172/172
f 178/178/178 177/177/177 176/176/176
f 179/179/179 178/178/178 176/176/176
f 182/182/182 181/181/181 180/180/180
f 183/183/183 182/182/182 180/180/180
f 186/186/186 185/185/185 184/184/184
f 187/187/187 186/186/186 184/184/184
f 190/190/190 189/189/189 188/188/188
f 191/191/191 190/190/190 188/188/188
f 194/194/194 193/193/193 192/192/192
f 195/195/195 194/194/194 192/192/192
f 198/198/198 197/197/197 196/196/196
f 199/199/199 198/198/198 196/196/196
f 202/202/202 201/201/201 200/200/200
f 203/203/203 202/202/202 200/200/200
f 206/206/206 205/205/205 204/204/204
f 207/207/207 206/206/206 204/204/204
f 210/210/210 209/209/209 208/208/208
f 211/211/211 210/210/210 208/208/208
f 214/214/214 213/213/213 212/212/212
f 215/215/215 214/214/214 212/212/212
f 218/218/218 217/217/217 216/216/216
f 219/219/219 218/218/218 216/216/216
