g petrol_station_sign_mesh
v -1.464858 0.3215921 0.3787556
v -1.464858 2.791046 0.3787556
v 1.473335 2.791046 0.3787556
v 1.473335 0.3215921 0.3787556
v -1.464858 9.764967 0.3787556
v -1.464858 9.764967 -0.3757998
v 1.473335 9.764967 -0.3757998
v 1.473335 9.764967 0.3787556
v -1.464858 2.791046 -0.3757998
v -1.464858 0.3215921 -0.3757998
v 1.473335 0.3215921 -0.3757998
v 1.473335 2.791046 -0.3757998
v 1.473335 0.3215921 0.3787556
v 1.473335 2.791046 0.3787556
v 1.473335 2.791046 -0.3757998
v 1.473335 0.3215921 -0.3757998
v -1.464858 0.3215921 -0.3757998
v -1.464858 2.791046 -0.3757998
v -1.464858 2.791046 0.3787556
v -1.464858 0.3215921 0.3787556
v -1.464858 7.421272 0.3787556
v -1.464858 9.764967 0.3787556
v 1.473335 9.764967 0.3787556
v 1.473335 7.421272 0.3787556
v -1.464858 6.575256 0.3787556
v 1.473335 6.575256 0.3787556
v -1.464858 7.421272 -0.3757998
v -1.464858 9.764967 -0.3757998
v -1.464858 9.764967 0.3787556
v -1.464858 7.421272 0.3787556
v -1.464858 6.575256 -0.3757998
v -1.464858 6.575256 0.3787556
v 1.473335 7.421272 -0.3757998
v 1.473335 9.764967 -0.3757998
v -1.464858 9.764967 -0.3757998
v -1.464858 7.421272 -0.3757998
v 1.473335 6.575256 -0.3757998
v -1.464858 6.575256 -0.3757998
v 1.473335 9.764967 0.3787556
v 1.473335 9.764967 -0.3757998
v 1.473335 7.421272 -0.3757998
v 1.473335 7.421272 0.3787556
v 1.473335 6.575256 0.3787556
v 1.473335 6.575256 -0.3757998
v -1.464858 5.283366 0.3787556
v -1.464858 6.575256 0.3787556
v 1.473335 6.575256 0.3787556
v 1.473335 5.283366 0.3787556
v -1.464858 5.283366 -0.3757998
v -1.464858 6.575256 -0.3757998
v -1.464858 6.575256 0.3787556
v -1.464858 5.283366 0.3787556
v -1.464858 6.575256 -0.3757998
v -1.464858 5.283366 -0.3757998
v 1.473335 5.283366 -0.3757998
v 1.473335 6.575256 -0.3757998
v 1.473335 5.283366 0.3787556
v 1.473335 6.575256 0.3787556
v 1.473335 6.575256 -0.3757998
v 1.473335 5.283366 -0.3757998
v -1.464858 4.951818 0.3787556
v -1.464858 5.283366 0.3787556
v 1.473335 5.283366 0.3787556
v 1.473335 4.951818 0.3787556
v -1.464858 4.951818 -0.3757998
v -1.464858 5.283366 -0.3757998
v -1.464858 5.283366 0.3787556
v -1.464858 4.951818 0.3787556
v -1.464858 3.922879 -0.3757998
v -1.464858 3.922879 0.3787556
v -1.464858 2.791046 -0.3757998
v -1.464858 2.791046 0.3787556
v -1.464858 5.283366 -0.3757998
v -1.464858 4.951818 -0.3757998
v 1.473335 4.951818 -0.3757998
v 1.473335 5.283366 -0.3757998
v 1.473335 4.951818 0.3787556
v 1.473335 5.283366 0.3787556
v 1.473335 5.283366 -0.3757998
v 1.473335 4.951818 -0.3757998
v 1.473335 3.922879 0.3787556
v 1.473335 3.922879 -0.3757998
v 1.473335 2.791046 0.3787556
v 1.473335 2.791046 -0.3757998
v -1.464858 3.922879 0.3787556
v -1.464858 4.951818 0.3787556
v 1.473335 4.951818 0.3787556
v 1.473335 3.922879 0.3787556
v -1.464858 4.951818 -0.3757998
v -1.464858 3.922879 -0.3757998
v 1.473335 3.922879 -0.3757998
v 1.473335 4.951818 -0.3757998
v -1.464858 2.791046 0.3787556
v -1.464858 3.922879 0.3787556
v 1.473335 3.922879 0.3787556
v 1.473335 2.791046 0.3787556
v -1.464858 3.922879 -0.3757998
v -1.464858 2.791046 -0.3757998
v 1.473335 2.791046 -0.3757998
v 1.473335 3.922879 -0.3757998
v -1.933597 -0.04425287 0.893225
v -1.933597 0.3558903 0.893225
v 1.930641 0.3558903 0.893225
v 1.930641 -0.04425287 0.893225
v -1.933597 0.3558903 0.893225
v -1.933597 0.3558903 -0.8902694
v 1.930641 0.3558903 -0.8902694
v 1.930641 0.3558903 0.893225
v -1.933597 0.3558903 -0.8902694
v -1.933597 -0.04425287 -0.8902694
v 1.930641 -0.04425287 -0.8902694
v 1.930641 0.3558903 -0.8902694
v 1.930641 -0.04425287 0.893225
v 1.930641 0.3558903 0.893225
v 1.930641 0.3558903 -0.8902694
v 1.930641 -0.04425287 -0.8902694
v -1.933597 -0.04425287 -0.8902694
v -1.933597 0.3558903 -0.8902694
v -1.933597 0.3558903 0.893225
v -1.933597 -0.04425287 0.893225
v 1.930641 -0.04425287 0.893225
v 1.930641 -0.04425287 -0.8902694
v -1.933597 -0.04425287 -0.8902694
v -1.933597 -0.04425287 0.893225
vt 0.05740809 0.08467661
vt 0.05740809 0.1859597
vt 0.08857211 0.1859597
vt 0.08857211 0.08467661
vt 0.5326594 0.6144649
vt 0.5482414 0.6144649
vt 0.5482414 0.5521369
vt 0.5326594 0.5521369
vt 0.06130359 0.1820642
vt 0.06130359 0.08467661
vt 0.0807811 0.08467661
vt 0.0807811 0.1820642
vt 0.01845306 0.08467661
vt 0.01845306 0.1859597
vt 0.02234856 0.1859597
vt 0.02234856 0.08467661
vt 0.01066206 0.08467661
vt 0.01066206 0.1859597
vt 0.01845306 0.1859597
vt 0.01845306 0.08467661
vt 0.6495245 0.1119451
vt 0.6495245 0.3612573
vt 0.9611647 0.3612573
vt 0.9611647 0.1119451
vt 0.6495245 0.02234856
vt 0.9611647 0.02234856
vt 0.01845306 0.4625403
vt 0.01845306 0.5131819
vt 0.02234856 0.5131819
vt 0.02234856 0.4625403
vt 0.01845306 0.4469584
vt 0.02234856 0.4469584
vt 0.6495245 0.1119451
vt 0.6495245 0.3612573
vt 0.9611647 0.3612573
vt 0.9611647 0.1119451
vt 0.6495245 0.02234856
vt 0.9611647 0.02234856
vt 0.01455756 0.5131819
vt 0.01845306 0.5131819
vt 0.01845306 0.4625403
vt 0.01455756 0.4625403
vt 0.01455756 0.4469584
vt 0.01845306 0.4469584
vt 0.1703777 0.01066206
vt 0.1703777 0.1470046
vt 0.4820179 0.1470046
vt 0.4820179 0.01066206
vt 0.5638234 0.1002586
vt 0.5638234 0.1314226
vt 0.5794054 0.1314226
vt 0.5794054 0.1002586
vt 0.4859133 0.1470046
vt 0.4859133 0.01066206
vt 0.1703777 0.01066206
vt 0.1703777 0.1470046
vt 0.5443459 0.1002586
vt 0.5443459 0.1314226
vt 0.5599279 0.1314226
vt 0.5599279 0.1002586
vt 0.6222559 0.4080033
vt 0.6222559 0.4157943
vt 0.6495245 0.4157943
vt 0.6495245 0.4080033
vt 0.006766554 0.4703314
vt 0.006766554 0.4781224
vt 0.006766554 0.4781224
vt 0.006766554 0.4703314
vt 0.006766554 0.4586449
vt 0.006766554 0.4586449
vt 0.006766554 0.4469584
vt 0.006766554 0.4469584
vt 0.6495245 0.4157943
vt 0.6495245 0.4080033
vt 0.6222559 0.4080033
vt 0.6222559 0.4157943
vt 0.002871051 0.4703314
vt 0.002871051 0.4781224
vt 0.006766554 0.4781224
vt 0.006766554 0.4703314
vt 0.002871051 0.4586449
vt 0.006766554 0.4586449
vt 0.002871051 0.4469584
vt 0.006766554 0.4469584
vt 0.6651065 0.3768393
vt 0.6651065 0.4975998
vt 0.9962242 0.4975998
vt 0.9962242 0.3768393
vt 0.9962242 0.4975998
vt 0.9962242 0.3768393
vt 0.6651065 0.3768393
vt 0.6651065 0.4975998
vt 0.6651065 0.3768393
vt 0.6651065 0.4975998
vt 0.9962242 0.4975998
vt 0.9962242 0.3768393
vt 0.9962242 0.4975998
vt 0.9962242 0.3768393
vt 0.6651065 0.3768393
vt 0.6651065 0.4975998
vt 0.1158406 0.08467661
vt 0.1197361 0.08467661
vt 0.1197361 0.03793057
vt 0.1158406 0.03793057
vt 0.1041541 0.3612573
vt 0.1041541 0.4391673
vt 0.1275271 0.4391673
vt 0.1275271 0.3612573
vt 0.1197361 0.08467661
vt 0.1275271 0.08467661
vt 0.1275271 0.03793057
vt 0.1197361 0.03793057
vt 0.01455756 0.1080496
vt 0.01845306 0.1080496
vt 0.01845306 0.002871051
vt 0.01455756 0.002871051
vt 0.01845306 0.1080496
vt 0.02234856 0.1080496
vt 0.02234856 0.002871051
vt 0.01845306 0.002871051
vt 0.1158406 0.05740809
vt 0.1158406 0.06130359
vt 0.1197361 0.06130359
vt 0.1197361 0.05740809
vn -0.01587105 0.01587105 0.9997481
vn -0.01587105 0.01587105 0.9997481
vn -0.01587105 0.01587105 0.9997481
vn -0.01587105 0.01587105 0.9997481
vn -0.01587105 0.999874 -0.000345267
vn -0.01587105 0.999874 -0.000345267
vn -0.01587105 0.999874 -0.000345267
vn -0.01587105 0.999874 -0.000345267
vn -0.01587105 0.01587105 -0.9997481
vn -0.01587105 0.01587105 -0.9997481
vn -0.01587105 0.01587105 -0.9997481
vn -0.01587105 0.01587105 -0.9997481
vn 0.999874 0.01587105 -0.0003439156
vn 0.999874 0.01587105 -0.0003439156
vn 0.999874 0.01587105 -0.0003439156
vn 0.999874 0.01587105 -0.0003439156
vn -0.999874 0.01587105 -0.0003439156
vn -0.999874 0.01587105 -0.0003439156
vn -0.999874 0.01587105 -0.0003439156
vn -0.999874 0.01587105 -0.0003439156
vn -0.01587105 0.01587105 0.9997481
vn -0.01587105 0.01587105 0.9997481
vn -0.01587105 0.01587105 0.9997481
vn -0.01587105 0.01587105 0.9997481
vn -0.01587105 0.01587105 0.9997481
vn -0.01587105 0.01587105 0.9997481
vn -0.999874 0.01587105 -0.0003439156
vn -0.999874 0.01587105 -0.0003439156
vn -0.999874 0.01587105 -0.0003439156
vn -0.999874 0.01587105 -0.0003439156
vn -0.999874 0.01587105 -0.0003439156
vn -0.999874 0.01587105 -0.0003439156
vn -0.01587105 0.01587105 -0.9997481
vn -0.01587105 0.01587105 -0.9997481
vn -0.01587105 0.01587105 -0.9997481
vn -0.01587105 0.01587105 -0.9997481
vn -0.01587105 0.01587105 -0.9997481
vn -0.01587105 0.01587105 -0.9997481
vn 0.999874 0.01587105 -0.0003439156
vn 0.999874 0.01587105 -0.0003439156
vn 0.999874 0.01587105 -0.0003439156
vn 0.999874 0.01587105 -0.0003439156
vn 0.999874 0.01587105 -0.0003439156
vn 0.999874 0.01587105 -0.0003439156
vn -0.01587105 0.01587105 0.9997481
vn -0.01587105 0.01587105 0.9997481
vn -0.01587105 0.01587105 0.9997481
vn -0.01587105 0.01587105 0.9997481
vn -0.999874 0.01587105 -0.0003439156
vn -0.999874 0.01587105 -0.0003439156
vn -0.999874 0.01587105 -0.0003439156
vn -0.999874 0.01587105 -0.0003439156
vn -0.01587105 0.01587105 -0.9997481
vn -0.01587105 0.01587105 -0.9997481
vn -0.01587105 0.01587105 -0.9997481
vn -0.01587105 0.01587105 -0.9997481
vn 0.999874 0.01587105 -0.0003439156
vn 0.999874 0.01587105 -0.0003439156
vn 0.999874 0.01587105 -0.0003439156
vn 0.999874 0.01587105 -0.0003439156
vn -0.01587105 0.01587105 0.9997481
vn -0.01587105 0.01587105 0.9997481
vn -0.01587105 0.01587105 0.9997481
vn -0.01587105 0.01587105 0.9997481
vn -0.999874 0.01587105 -0.0003439156
vn -0.999874 0.01587105 -0.0003439156
vn -0.999874 0.01587105 -0.0003439156
vn -0.999874 0.01587105 -0.0003439156
vn -0.999874 0.01587105 -0.0003439156
vn -0.999874 0.01587105 -0.0003439156
vn -0.999874 0.01587105 -0.0003439156
vn -0.999874 0.01587105 -0.0003439156
vn -0.01587105 0.01587105 -0.9997481
vn -0.01587105 0.01587105 -0.9997481
vn -0.01587105 0.01587105 -0.9997481
vn -0.01587105 0.01587105 -0.9997481
vn 0.999874 0.01587105 -0.0003439156
vn 0.999874 0.01587105 -0.0003439156
vn 0.999874 0.01587105 -0.0003439156
vn 0.999874 0.01587105 -0.0003439156
vn 0.999874 0.01587105 -0.0003439156
vn 0.999874 0.01587105 -0.0003439156
vn 0.999874 0.01587105 -0.0003439156
vn 0.999874 0.01587105 -0.0003439156
vn -0.01587105 0.01587105 0.9997481
vn -0.01587105 0.01587105 0.9997481
vn -0.01587105 0.01587105 0.9997481
vn -0.01587105 0.01587105 0.9997481
vn -0.01587105 0.01587105 -0.9997481
vn -0.01587105 0.01587105 -0.9997481
vn -0.01587105 0.01587105 -0.9997481
vn -0.01587105 0.01587105 -0.9997481
vn -0.01587105 0.01587105 0.9997481
vn -0.01587105 0.01587105 0.9997481
vn -0.01587105 0.01587105 0.9997481
vn -0.01587105 0.01587105 0.9997481
vn -0.01587105 0.01587105 -0.9997481
vn -0.01587105 0.01587105 -0.9997481
vn -0.01587105 0.01587105 -0.9997481
vn -0.01587105 0.01587105 -0.9997481
vn -0.01587105 0.01587105 0.9997481
vn -0.01587105 0.01587105 0.9997481
vn -0.01587105 0.01587105 0.9997481
vn -0.01587105 0.01587105 0.9997481
vn -0.01587105 0.999874 -0.000345267
vn -0.01587105 0.999874 -0.000345267
vn -0.01587105 0.999874 -0.000345267
vn -0.01587105 0.999874 -0.000345267
vn -0.01587105 0.01587105 -0.9997481
vn -0.01587105 0.01587105 -0.9997481
vn -0.01587105 0.01587105 -0.9997481
vn -0.01587105 0.01587105 -0.9997481
vn 0.999874 0.01587105 -0.0003439156
vn 0.999874 0.01587105 -0.0003439156
vn 0.999874 0.01587105 -0.0003439156
vn 0.999874 0.01587105 -0.0003439156
vn -0.999874 0.01587105 -0.0003439156
vn -0.999874 0.01587105 -0.0003439156
vn -0.999874 0.01587105 -0.0003439156
vn -0.999874 0.01587105 -0.0003439156
vn -0.01587105 -0.999874 -0.000345267
vn -0.01587105 -0.999874 -0.000345267
vn -0.01587105 -0.999874 -0.000345267
vn -0.01587105 -0.999874 -0.000345267
f 3/3/3 2/2/2 1/1/1
f 4/4/4 3/3/3 1/1/1
f 7/7/7 6/6/6 5/5/5
f 8/8/8 7/7/7 5/5/5
f 11/11/11 10/10/10 9/9/9
f 12/12/12 11/11/11 9/9/9
f 15/15/15 14/14/14 13/13/13
f 16/16/16 15/15/15 13/13/13
f 19/19/19 18/18/18 17/17/17
f 20/20/20 19/19/19 17/17/17
f 23/23/23 22/22/22 21/21/21
f 24/24/24 23/23/23 21/21/21
f 24/24/24 21/21/21 25/25/25
f 26/26/26 24/24/24 25/25/25
f 29/29/29 28/28/28 27/27/27
f 30/30/30 29/29/29 27/27/27
f 30/30/30 27/27/27 31/31/31
f 32/32/32 30/30/30 31/31/31
f 35/35/35 34/34/34 33/33/33
f 36/36/36 35/35/35 33/33/33
f 33/33/33 37/37/37 36/36/36
f 37/37/37 38/38/38 36/36/36
f 41/41/41 40/40/40 39/39/39
f 42/42/42 41/41/41 39/39/39
f 41/41/41 42/42/42 43/43/43
f 44/44/44 41/41/41 43/43/43
f 47/47/47 46/46/46 45/45/45
f 48/48/48 47/47/47 45/45/45
f 51/51/51 50/50/50 49/49/49
f 52/52/52 51/51/51 49/49/49
f 55/55/55 54/54/54 53/53/53
f 56/56/56 55/55/55 53/53/53
f 59/59/59 58/58/58 57/57/57
f 60/60/60 59/59/59 57/57/57
f 63/63/63 62/62/62 61/61/61
f 64/64/64 63/63/63 61/61/61
f 67/67/67 66/66/66 65/65/65
f 68/68/68 67/67/67 65/65/65
f 68/68/68 65/65/65 69/69/69
f 70/70/70 68/68/68 69/69/69
f 70/70/70 69/69/69 71/71/71
f 72/72/72 70/70/70 71/71/71
f 75/75/75 74/74/74 73/73/73
f 76/76/76 75/75/75 73/73/73
f 79/79/79 78/78/78 77/77/77
f 80/80/80 79/79/79 77/77/77
f 80/80/80 77/77/77 81/81/81
f 82/82/82 80/80/80 81/81/81
f 82/82/82 81/81/81 83/83/83
f 84/84/84 82/82/82 83/83/83
f 87/87/87 86/86/86 85/85/85
f 88/88/88 87/87/87 85/85/85
f 91/91/91 90/90/90 89/89/89
f 92/92/92 91/91/91 89/89/89
f 95/95/95 94/94/94 93/93/93
f 96/96/96 95/95/95 93/93/93
f 99/99/99 98/98/98 97/97/97
f 100/100/100 99/99/99 97/97/97
f 103/103/103 102/102/102 101/101/101
f 104/104/104 103/103/103 101/101/101
f 107/107/107 106/106/106 105/105/105
f 108/108/108 107/107/107 105/105/105
f 111/111/111 110/110/110 109/109/109
f 112/112/112 111/111/111 109/109/109
f 115/115/115 114/114/114 113/113/113
f 116/116/116 115/115/115 113/113/113
f 119/119/119 118/118/118 117/117/117
f 120/120/120 119/119/119 117/117/117
f 123/123/123 122/122/122 121/121/121
f 124/124/124 123/123/123 121/121/121
