g petrol_station_cover_mesh
v -0.2743244 7.993387 5.054836
v -0.2743244 0.265409 5.054836
v 0.1671162 0.265409 5.054836
v 0.1671162 7.993387 5.054836
v -0.2743244 0.265409 5.495752
v -0.2743244 7.993387 5.495752
v 0.1671162 7.993387 5.495752
v 0.1671162 0.265409 5.495752
v 0.1671162 7.993387 5.495752
v 0.1671162 7.993387 5.054836
v 0.1671162 0.265409 5.054836
v 0.1671162 0.265409 5.495752
v -0.2743244 0.265409 5.495752
v -0.2743244 0.265409 5.054836
v -0.2743244 7.993387 5.054836
v -0.2743244 7.993387 5.495752
v -0.2743244 7.993387 -4.970828
v -0.2743244 0.265409 -4.970828
v 0.1671162 0.265409 -4.970828
v 0.1671162 7.993387 -4.970828
v -0.2743244 0.265409 -4.529912
v -0.2743244 7.993387 -4.529912
v 0.1671162 7.993387 -4.529912
v 0.1671162 0.265409 -4.529912
v 0.1671162 7.993387 -4.529912
v 0.1671162 7.993387 -4.970828
v 0.1671162 0.265409 -4.970828
v 0.1671162 0.265409 -4.529912
v -0.2743244 0.265409 -4.529912
v -0.2743244 0.265409 -4.970828
v -0.2743244 7.993387 -4.970828
v -0.2743244 7.993387 -4.529912
vt 0.008146465 0.3028131
vt 0.008146465 0.5141333
vt 0.01729997 0.5141333
vt 0.01729997 0.3028131
vt 0.01838681 0.3028132
vt 0.01838681 0.5141333
vt 0.02754033 0.5141333
vt 0.02754033 0.3028132
vt 0.04866292 0.5148667
vt 0.06692396 0.5148667
vt 0.06692396 0.3035465
vt 0.04866292 0.3035465
vt 0.08731751 0.3035465
vt 0.06905647 0.3035465
vt 0.06905647 0.5148667
vt 0.08731751 0.5148667
vt 0.008146465 0.3028131
vt 0.008146465 0.5141333
vt 0.01729997 0.5141333
vt 0.01729997 0.3028131
vt 0.01838681 0.3028132
vt 0.01838681 0.5141333
vt 0.02754033 0.5141333
vt 0.02754033 0.3028132
vt 0.04866292 0.5148667
vt 0.06692396 0.5148667
vt 0.06692396 0.3035465
vt 0.04866292 0.3035465
vt 0.08731751 0.3035465
vt 0.06905647 0.3035465
vt 0.06905647 0.5148667
vt 0.08731751 0.5148667
vn 0 0 -1
vn 0 0 -1
vn 0 0 -1
vn 0 0 -1
vn 0 0 1
vn 0 0 1
vn 0 0 1
vn 0 0 1
vn 1 0 0
vn 1 0 0
vn 1 0 0
vn 1 0 0
vn -1 0 0
vn -1 0 0
vn -1 0 0
vn -1 0 0
vn 0 0 -1
vn 0 0 -1
vn 0 0 -1
vn 0 0 -1
vn 0 0 1
vn 0 0 1
vn 0 0 1
vn 0 0 1
vn 1 0 0
vn 1 0 0
vn 1 0 0
vn 1 0 0
vn -1 0 0
vn -1 0 0
vn -1 0 0
vn -1 0 0
f 3/3/3 2/2/2 1/1/1
f 4/4/4 3/3/3 1/1/1
f 7/7/7 6/6/6 5/5/5
f 8/8/8 7/7/7 5/5/5
f 11/11/11 10/10/10 9/9/9
f 12/12/12 11/11/11 9/9/9
f 15/15/15 14/14/14 13/13/13
f 16/16/16 15/15/15 13/13/13
f 19/19/19 18/18/18 17/17/17
f 20/20/20 19/19/19 17/17/17
f 23/23/23 22/22/22 21/21/21
f 24/24/24 23/23/23 21/21/21
f 27/27/27 26/26/26 25/25/25
f 28/28/28 27/27/27 25/25/25
f 31/31/31 30/30/30 29/29/29
f 32/32/32 31/31/31 29/29/29
