g Pilot_mesh
v 0.3452334 0.4614102 -0.3452334
v 0.3452334 0.4614102 0.3452334
v -0.3452334 0.4614102 -0.3452334
v -0.3452334 0.4614102 0.3452334
v -0.5044951 0.4079437 -0.4483618
v -0.5044951 0.08834808 -0.4483618
v 0.5044951 0.4079437 -0.4483618
v 0.5044951 0.08834808 -0.4483618
v -0.5044951 -0.371407 -0.4483618
v 0.5044951 -0.371407 -0.4483618
v 0.3920912 -0.371407 0.2683894
v 0.5044951 -0.371407 0.2683892
v 0.3920912 -0.371407 0.1798623
v 0.5044951 -0.371407 -0.4483618
v -0.3920912 -0.371407 0.1798623
v -0.5044951 -0.371407 -0.4483618
v -0.5044951 -0.371407 0.2683892
v -0.3920912 -0.371407 0.2683892
v 0.5044951 0.08834808 -0.4483618
v 0.5044951 0.08834808 0.2683892
v 0.5044951 0.4079437 -0.4483618
v 0.5044951 0.4079437 0.4483618
v 0.5044951 -0.371407 -0.4483618
v 0.5044951 -0.371407 0.2683892
v 0.5044951 0.08834808 0.4483618
v -0.5044951 0.08834808 -0.4483618
v -0.5044951 0.4079437 -0.4483618
v -0.5044951 0.08834808 0.2683892
v -0.5044951 0.4079437 0.4483618
v -0.5044951 -0.371407 0.2683892
v -0.5044951 -0.371407 -0.4483618
v -0.5044951 0.08834808 0.4483618
v 0.5044951 0.4079437 0.4483618
v 0.5044951 0.08834808 0.4483618
v -0.5044951 0.4079437 0.4483618
v -0.5044951 0.08834808 0.4483618
v -0.3920912 -0.371407 0.1798623
v -0.3920912 0.08834808 0.1798623
v 0.3920912 -0.371407 0.1798623
v 0.3920912 0.08834808 0.1798623
v -0.3920912 0.08834808 0.1798623
v -0.3920912 0.08834808 0.2683893
v 0.3920912 0.08834808 0.1798623
v 0.3920912 0.08834808 0.2683893
v -0.5044951 0.08834808 0.4483618
v 0.5044951 0.08834808 0.4483618
v 0.5044951 0.08834808 0.2683892
v -0.5044951 0.08834808 0.2683892
v -0.3920912 -0.371407 0.2683892
v -0.3920912 0.08834808 0.2683893
v -0.3920912 -0.371407 0.1798623
v -0.3920912 0.08834808 0.1798623
v 0.3920912 0.08834808 0.2683893
v 0.3920912 -0.371407 0.2683894
v 0.3920912 0.08834808 0.1798623
v 0.3920912 -0.371407 0.1798623
v -0.5044951 0.08834808 0.2683892
v -0.3920912 0.08834808 0.2683893
v -0.5044951 -0.371407 0.2683892
v -0.3920912 -0.371407 0.2683892
v 0.3920912 -0.371407 0.2683894
v 0.3920912 0.08834808 0.2683893
v 0.5044951 -0.371407 0.2683892
v 0.5044951 0.08834808 0.2683892
v 0.5044951 0.4079437 -0.4483618
v 0.3452334 0.4079437 -0.3452334
v -0.5044951 0.4079437 -0.4483618
v -0.3452334 0.4079437 -0.3452334
v -0.5044951 0.4079437 0.4483618
v -0.3452334 0.4079437 0.3452334
v 0.5044951 0.4079437 0.4483618
v 0.3452334 0.4079437 0.3452334
v 0.3452334 0.4079437 -0.3452334
v 0.3452334 0.4614102 -0.3452334
v -0.3452334 0.4079437 -0.3452334
v -0.3452334 0.4614102 -0.3452334
v -0.3452334 0.4079437 -0.3452334
v -0.3452334 0.4614102 -0.3452334
v -0.3452334 0.4079437 0.3452334
v -0.3452334 0.4614102 0.3452334
v -0.3452334 0.4079437 0.3452334
v -0.3452334 0.4614102 0.3452334
v 0.3452334 0.4079437 0.3452334
v 0.3452334 0.4614102 0.3452334
v 0.3452334 0.4079437 0.3452334
v 0.3452334 0.4614102 0.3452334
v 0.3452334 0.4079437 -0.3452334
v 0.3452334 0.4614102 -0.3452334
vt 0.4910322 0.2028297
vt 0.4910322 0.1470688
vt 0.4352714 0.2028297
vt 0.4352714 0.1470688
vt 0.5001595 0.3079026
vt 0.5001595 0.2719563
vt 0.4250751 0.3079026
vt 0.4250751 0.2719563
vt 0.5001595 0.2202456
vt 0.4250751 0.2202455
vt 0.5458199 0.0829615
vt 0.5458199 0.07918024
vt 0.5428419 0.0829615
vt 0.5217085 0.07918024
vt 0.5428419 0.1093412
vt 0.5217085 0.1131225
vt 0.5458199 0.1131225
vt 0.5458199 0.1093412
vt 0.3703899 0.2111099
vt 0.37039 0.1525768
vt 0.3442899 0.2111099
vt 0.3442899 0.1378795
vt 0.4079362 0.2111099
vt 0.4079362 0.1525769
vt 0.3703899 0.1378795
vt 0.5679349 0.2103693
vt 0.5938904 0.2103693
vt 0.5679348 0.1521602
vt 0.5938904 0.1375441
vt 0.5305963 0.1521602
vt 0.5305963 0.2103694
vt 0.5679349 0.1375441
vt 0.6976472 0.3057932
vt 0.6976473 0.2451778
vt 0.5136313 0.3057932
vt 0.5136315 0.2451778
vt 0.5871422 0.2876988
vt 0.6046916 0.2876988
vt 0.5871422 0.2577662
vt 0.6046916 0.2577662
vt 0.5248412 0.1073241
vt 0.527338 0.1073241
vt 0.5248412 0.08520775
vt 0.527338 0.08520775
vt 0.5324137 0.1104942
vt 0.5324137 0.08203761
vt 0.527338 0.08203761
vt 0.527338 0.1104942
vt 0.567491 0.2582613
vt 0.567491 0.2920581
vt 0.5781698 0.2582613
vt 0.5781698 0.2920581
vt 0.5791156 0.2920581
vt 0.5791156 0.2582613
vt 0.5684368 0.2920581
vt 0.5684368 0.2582613
vt 0.4737289 0.08780678
vt 0.4872879 0.08780678
vt 0.4737289 0.03234662
vt 0.4872879 0.03234662
vt 0.444602 0.02915694
vt 0.444602 0.08461717
vt 0.458161 0.02915694
vt 0.458161 0.08461717
vt 0.4954747 0.1360208
vt 0.4875201 0.1483053
vt 0.4954747 0.213848
vt 0.4875201 0.2015635
vt 0.4263071 0.213848
vt 0.4342618 0.2015635
vt 0.4263071 0.1360208
vt 0.4342618 0.1483053
vt 0.450991 0.1010446
vt 0.4574407 0.101065
vt 0.4512545 0.0177594
vt 0.4577042 0.01777217
vt 0.3468613 0.2116199
vt 0.353311 0.2116312
vt 0.3469277 0.1377198
vt 0.3533774 0.1377221
vt 0.4810014 0.1002762
vt 0.4874511 0.1002788
vt 0.4810014 0.01698914
vt 0.4874511 0.016987
vt 0.5782303 0.2068665
vt 0.5846801 0.2068649
vt 0.5781756 0.1429731
vt 0.5846254 0.1429698
vn 0 1 0
vn 0 1 0
vn 0 1 0
vn 0 1 0
vn 0 0 -1
vn 0 0 -1
vn 0 0 -1
vn 0 0 -1
vn 0 0 -1
vn 0 0 -1
vn 0 -1 0
vn 0 -1 0
vn 0 -1 0
vn 0 -1 -1.895517E-07
vn 0 -1 -2.319073E-07
vn 0 -1 -3.790377E-07
vn 0 -1 0
vn 0 -1 0
vn 1 0 0
vn 1 0 0
vn 1 0 0
vn 1 1.552698E-07 0
vn 1 0 0
vn 1 0 0
vn 1 0 0
vn -1 0 0
vn -1 1.066822E-07 0
vn -1 1.41139E-07 0
vn -1 3.105395E-07 0
vn -1 0 0
vn -1 0 0
vn -1 0 0
vn 0 0 1
vn 0 0 1
vn 0 0 1
vn 0 0 1
vn 0 0 1
vn 0 0 1
vn 0 0 1
vn 0 0 1
vn 0 -1 0
vn 0 -1 -2.417598E-07
vn 0 -1 0
vn 0 -1 0
vn 0 -1 -2.451593E-07
vn 0 -1 0
vn 0 -1 0
vn 0 -1 0
vn 1 0 0
vn 1 0 0
vn 1 0 0
vn 1 0 0
vn -1 0 0
vn -1 0 0
vn -1 0 0
vn -1 0 0
vn -9.448482E-07 0 1
vn -8.006167E-07 0 1
vn -1.442316E-07 -1.054599E-07 1
vn 0 -1.244585E-07 1
vn 1.417272E-06 0 1
vn 1.016964E-06 0 1
vn 1.345157E-06 0 1
vn 9.448482E-07 0 1
vn 0 1 3.191358E-07
vn 0 1 3.841327E-07
vn 0 1 -3.687077E-06
vn 0 1 -5.485786E-06
vn 0 1 -3.191358E-07
vn 0 1 -3.841328E-07
vn 0 1 3.687077E-06
vn 0 1 5.485786E-06
vn 0 0 -1
vn 0 0 -1
vn 0 0 -1
vn 0 0 -1
vn -1 0 0
vn -1 0 0
vn -1 0 0
vn -1 0 0
vn 0 0 1
vn 0 0 1
vn 0 0 1
vn 0 0 1
vn 1 0 0
vn 1 0 0
vn 1 0 0
vn 1 0 0
f 3/3/3 2/2/2 1/1/1
f 3/3/3 4/4/4 2/2/2
f 7/7/7 6/6/6 5/5/5
f 7/7/7 8/8/8 6/6/6
f 8/8/8 9/9/9 6/6/6
f 8/8/8 10/10/10 9/9/9
f 13/13/13 12/12/12 11/11/11
f 14/14/14 12/12/12 13/13/13
f 14/14/14 13/13/13 15/15/15
f 14/14/14 15/15/15 16/16/16
f 15/15/15 17/17/17 16/16/16
f 17/17/17 15/15/15 18/18/18
f 21/21/21 20/20/20 19/19/19
f 21/21/21 22/22/22 20/20/20
f 23/23/23 19/19/19 20/20/20
f 23/23/23 20/20/20 24/24/24
f 20/20/20 22/22/22 25/25/25
f 28/28/28 27/27/27 26/26/26
f 28/28/28 29/29/29 27/27/27
f 30/30/30 28/28/28 26/26/26
f 30/30/30 26/26/26 31/31/31
f 32/32/32 29/29/29 28/28/28
f 35/35/35 34/34/34 33/33/33
f 35/35/35 36/36/36 34/34/34
f 39/39/39 38/38/38 37/37/37
f 39/39/39 40/40/40 38/38/38
f 43/43/43 42/42/42 41/41/41
f 43/43/43 44/44/44 42/42/42
f 44/44/44 45/45/45 42/42/42
f 44/44/44 46/46/46 45/45/45
f 47/47/47 46/46/46 44/44/44
f 42/42/42 45/45/45 48/48/48
f 51/51/51 50/50/50 49/49/49
f 51/51/51 52/52/52 50/50/50
f 55/55/55 54/54/54 53/53/53
f 55/55/55 56/56/56 54/54/54
f 59/59/59 58/58/58 57/57/57
f 59/59/59 60/60/60 58/58/58
f 63/63/63 62/62/62 61/61/61
f 63/63/63 64/64/64 62/62/62
f 67/67/67 66/66/66 65/65/65
f 67/67/67 68/68/68 66/66/66
f 69/69/69 68/68/68 67/67/67
f 69/69/69 70/70/70 68/68/68
f 71/71/71 70/70/70 69/69/69
f 71/71/71 72/72/72 70/70/70
f 65/65/65 72/72/72 71/71/71
f 65/65/65 66/66/66 72/72/72
f 75/75/75 74/74/74 73/73/73
f 75/75/75 76/76/76 74/74/74
f 79/79/79 78/78/78 77/77/77
f 79/79/79 80/80/80 78/78/78
f 83/83/83 82/82/82 81/81/81
f 83/83/83 84/84/84 82/82/82
f 87/87/87 86/86/86 85/85/85
f 87/87/87 88/88/88 86/86/86
