g Pointer
v 0.2 0.4007052 0
v 0 -0.0007052 0
v 0 0.4007052 0.2
v 0 0.4007052 -0.2
v 0 -0.0007052 0
v 0.2 0.4007052 0
v 0 0.4007052 -0.2
v -0.2 0.4007052 0
v 0 -0.0007052 0
v 0 -0.0007052 0
v -0.2 0.4007052 0
v 0 0.4007052 0.2
v 0 0.4007052 0.2
v -0.2 0.4007052 0
v 0 0.4007052 -0.2
v 0.2 0.4007052 0
vt 0 0
vt 0 0
vt 0 0
vt 0 0
vt 0 0
vt 0 0
vt 0 0
vt 0 0
vt 0 0
vt 0 0
vt 0 0
vt 0 0
vt 0 0
vt 0 0
vt 0 0
vt 0 0
vn 0.6669266 -0.3322916 0.6669266
vn 0.6669266 -0.3322916 0.6669266
vn 0.6669266 -0.3322916 0.6669266
vn 0.6669266 -0.3322916 -0.6669266
vn 0.6669266 -0.3322916 -0.6669266
vn 0.6669266 -0.3322916 -0.6669266
vn -0.6669266 -0.3322916 -0.6669266
vn -0.6669266 -0.3322916 -0.6669266
vn -0.6669266 -0.3322916 -0.6669266
vn -0.6669266 -0.3322916 0.6669266
vn -0.6669266 -0.3322916 0.6669266
vn -0.6669266 -0.3322916 0.6669266
vn 0 1 0
vn 0 1 0
vn 0 1 0
vn 0 1 0
f 3/3/3 2/2/2 1/1/1
f 6/6/6 5/5/5 4/4/4
f 9/9/9 8/8/8 7/7/7
f 12/12/12 11/11/11 10/10/10
f 15/15/15 14/14/14 13/13/13
f 16/16/16 15/15/15 13/13/13
