g pole
v -4.306741 -0.09281908 -0.04440308
v -4.306741 0.0749618 -0.04440308
v -4.306741 0.0749618 0.04082489
v -4.306741 -0.09281908 0.04082489
v -4.306741 0.0749618 -0.04440308
v 0.8980801 0.0749618 -0.04440308
v 0.8980801 0.0749618 0.04082489
v -4.306741 0.0749618 0.04082489
v 0.8980801 0.0749618 -0.04440308
v 0.8980801 -0.09281908 -0.04440308
v 0.8980801 -0.09281908 0.04082489
v 0.8980801 0.0749618 0.04082489
v 0.8980801 -0.09281908 -0.04440308
v -4.306741 -0.09281908 -0.04440308
v -4.306741 -0.09281908 0.04082489
v 0.8980801 -0.09281908 0.04082489
v -4.306741 -0.09281908 0.04082489
v -4.306741 0.0749618 0.04082489
v 0.8980801 0.0749618 0.04082489
v 0.8980801 -0.09281908 0.04082489
v 0.8980801 -0.09281908 -0.04440308
v 0.8980801 0.0749618 -0.04440308
v -4.306741 0.0749618 -0.04440308
v -4.306741 -0.09281908 -0.04440308
v 0.4053394 -0.3800882 -0.07259178
v 0.4053394 0.19445 -0.07259178
v 0.4053394 0.19445 0.07259178
v 0.4053394 -0.3800882 0.07259178
v 0.4053394 0.19445 -0.07259178
v 0.6762821 0.19445 -0.07259178
v 0.6762821 0.19445 0.07259178
v 0.4053394 0.19445 0.07259178
v 0.6762821 0.19445 -0.07259178
v 0.6762821 -0.3800882 -0.07259178
v 0.6762821 -0.3800882 0.07259178
v 0.6762821 0.19445 0.07259178
v 0.6762821 -0.3800882 -0.07259178
v 0.4053394 -0.3800882 -0.07259178
v 0.4053394 -0.3800882 0.07259178
v 0.6762821 -0.3800882 0.07259178
v 0.4053394 -0.3800882 0.07259178
v 0.4053394 0.19445 0.07259178
v 0.6762821 0.19445 0.07259178
v 0.6762821 -0.3800882 0.07259178
v 0.6762821 -0.3800882 -0.07259178
v 0.6762821 0.19445 -0.07259178
v 0.4053394 0.19445 -0.07259178
v 0.4053394 -0.3800882 -0.07259178
vt 0.7312731 0.009783432
vt 0.7312731 0.03110135
vt 0.7421018 0.03110135
vt 0.7421018 0.009783432
vt 0.9444872 0.1314091
vt 0.1031094 0.1314091
vt 0.1031095 0.1467389
vt 0.9444872 0.1467389
vt 0.7168198 0.009783588
vt 0.7168198 0.0311015
vt 0.7276486 0.0311015
vt 0.7276486 0.009783588
vt 0.1031098 0.01047278
vt 0.9444873 0.01047282
vt 0.9444873 0.02580278
vt 0.1031098 0.02580264
vt 0.9444873 0.06729463
vt 0.9444873 0.07676664
vt 0.1031096 0.07676663
vt 0.1031096 0.06729462
vt 0.1031098 0.08519775
vt 0.1031098 0.09466974
vt 0.9444873 0.09466976
vt 0.9444873 0.08519776
vt 0.2242995 0.2251863
vt 0.2242995 0.2350062
vt 0.2267809 0.2350062
vt 0.2267809 0.2251863
vt 0.233334 0.4469392
vt 0.233334 0.4515702
vt 0.2358155 0.4515702
vt 0.2358155 0.4469392
vt 0.2379276 0.2251863
vt 0.2379276 0.2350062
vt 0.240409 0.2350062
vt 0.240409 0.2251863
vt 0.2627544 0.2303357
vt 0.2627544 0.2349666
vt 0.2652358 0.2349666
vt 0.2652358 0.2303357
vt 0.0978395 0.3952302
vt 0.0978395 0.4050501
vt 0.1024704 0.4050501
vt 0.1024704 0.3952302
vt 0.1031049 0.3952302
vt 0.1031049 0.4050501
vt 0.1077358 0.4050501
vt 0.1077358 0.3952302
vn -1 0 0
vn -1 0 0
vn -1 0 0
vn -1 0 0
vn 0 1 0
vn 0 1 0
vn 0 1 0
vn 0 1 0
vn 1 0 0
vn 1 0 0
vn 1 0 0
vn 1 0 0
vn 0 -1 0
vn 0 -1 0
vn 0 -1 0
vn 0 -1 0
vn 0 0 1
vn 0 0 1
vn 0 0 1
vn 0 0 1
vn 0 0 -1
vn 0 0 -1
vn 0 0 -1
vn 0 0 -1
vn -1 0 0
vn -1 0 0
vn -1 0 0
vn -1 0 0
vn 0 1 0
vn 0 1 0
vn 0 1 0
vn 0 1 0
vn 1 0 0
vn 1 0 0
vn 1 0 0
vn 1 0 0
vn 0 -1 0
vn 0 -1 0
vn 0 -1 0
vn 0 -1 0
vn 0 0 1
vn 0 0 1
vn 0 0 1
vn 0 0 1
vn 0 0 -1
vn 0 0 -1
vn 0 0 -1
vn 0 0 -1
f 3/3/3 2/2/2 1/1/1
f 4/4/4 3/3/3 1/1/1
f 7/7/7 6/6/6 5/5/5
f 8/8/8 7/7/7 5/5/5
f 11/11/11 10/10/10 9/9/9
f 12/12/12 11/11/11 9/9/9
f 15/15/15 14/14/14 13/13/13
f 16/16/16 15/15/15 13/13/13
f 19/19/19 18/18/18 17/17/17
f 20/20/20 19/19/19 17/17/17
f 23/23/23 22/22/22 21/21/21
f 24/24/24 23/23/23 21/21/21
f 27/27/27 26/26/26 25/25/25
f 28/28/28 27/27/27 25/25/25
f 31/31/31 30/30/30 29/29/29
f 32/32/32 31/31/31 29/29/29
f 35/35/35 34/34/34 33/33/33
f 36/36/36 35/35/35 33/33/33
f 39/39/39 38/38/38 37/37/37
f 40/40/40 39/39/39 37/37/37
f 43/43/43 42/42/42 41/41/41
f 44/44/44 43/43/43 41/41/41
f 47/47/47 46/46/46 45/45/45
f 48/48/48 47/47/47 45/45/45
