g pPyramid1
v -4.768372E-07 3.448351 -3.448352
v 0 -4.338354 0
v 3.448352 3.448351 -3.014645E-07
v 3.448352 3.448351 -3.014645E-07
v 0 -4.338354 0
v 1.192093E-07 3.448351 3.448352
v 1.192093E-07 3.448351 3.448352
v 0 -4.338354 0
v -3.448352 3.448351 0
v -3.448352 3.448351 0
v 0 -4.338354 0
v -4.768372E-07 3.448351 -3.448352
v -2.586372 4.310332 -7.747829E-08
v -4.768372E-07 4.310332 -2.586372
v 2.586371 4.310332 -2.239862E-07
v 1.192093E-07 4.310332 2.586371
v -4.768372E-07 4.310332 -2.586372
v -2.586372 4.310332 -7.747829E-08
v -3.448352 3.448351 0
v -4.768372E-07 3.448351 -3.448352
v -4.768372E-07 3.448351 -3.448352
v 3.448352 3.448351 -3.014645E-07
v 2.586371 4.310332 -2.239862E-07
v -4.768372E-07 4.310332 -2.586372
v 3.448352 3.448351 -3.014645E-07
v 1.192093E-07 3.448351 3.448352
v 1.192093E-07 4.310332 2.586371
v 2.586371 4.310332 -2.239862E-07
v 1.192093E-07 3.448351 3.448352
v -3.448352 3.448351 0
v -2.586372 4.310332 -7.747829E-08
v 1.192093E-07 4.310332 2.586371
vt 0.299995 0.59999
vt 0.5 1
vt 0.3999975 0.59999
vt 0.3999975 0.59999
vt 0.5 1
vt 0.5 0.59999
vt 0.5 0.59999
vt 0.5 1
vt 0.6000025 0.59999
vt 0.6000025 0.59999
vt 0.5 1
vt 0.700005 0.59999
vt 0.65001 0.25
vt 0.5 0.09999
vt 0.34999 0.25
vt 0.5 0.40001
vt 0.5 0.09999
vt 0.65001 0.25
vt 0.700005 0.25
vt 0.5000001 0.04999499
vt 0.5000001 0.04999499
vt 0.299995 0.25
vt 0.34999 0.25
vt 0.5 0.09999
vt 0.299995 0.25
vt 0.5 0.450005
vt 0.5 0.40001
vt 0.34999 0.25
vt 0.5 0.450005
vt 0.700005 0.25
vt 0.65001 0.25
vt 0.5 0.40001
vn 0.5773502 -0.5773503 -0.5773503
vn 0.5773502 -0.5773503 -0.5773503
vn 0.5773501 -0.5773503 -0.5773503
vn 0.5773503 -0.5773503 0.5773503
vn 0.5773503 -0.5773503 0.5773503
vn 0.5773503 -0.5773503 0.5773503
vn -0.5773502 -0.5773503 0.5773503
vn -0.5773502 -0.5773503 0.5773503
vn -0.5773503 -0.5773503 0.5773503
vn -0.5773502 -0.5773503 -0.5773502
vn -0.5773503 -0.5773503 -0.5773503
vn -0.5773502 -0.5773503 -0.5773502
vn 0 1 0
vn 0 1 0
vn 0 1 0
vn 0 1 0
vn -0.5773503 0.5773503 -0.5773503
vn -0.5773503 0.5773503 -0.5773503
vn -0.5773503 0.5773501 -0.5773503
vn -0.5773503 0.5773502 -0.5773503
vn 0.5773502 0.5773503 -0.5773503
vn 0.5773502 0.5773503 -0.5773503
vn 0.5773502 0.5773503 -0.5773503
vn 0.5773502 0.5773503 -0.5773503
vn 0.5773503 0.5773503 0.5773503
vn 0.5773503 0.5773503 0.5773503
vn 0.5773503 0.5773503 0.5773503
vn 0.5773503 0.5773503 0.5773503
vn -0.5773501 0.5773503 0.5773504
vn -0.5773501 0.5773503 0.5773504
vn -0.5773501 0.5773503 0.5773504
vn -0.5773501 0.5773503 0.5773504
f 3/3/3 2/2/2 1/1/1
f 6/6/6 5/5/5 4/4/4
f 9/9/9 8/8/8 7/7/7
f 12/12/12 11/11/11 10/10/10
f 15/15/15 14/14/14 13/13/13
f 16/16/16 15/15/15 13/13/13
f 19/19/19 18/18/18 17/17/17
f 20/20/20 19/19/19 17/17/17
f 23/23/23 22/22/22 21/21/21
f 24/24/24 23/23/23 21/21/21
f 27/27/27 26/26/26 25/25/25
f 28/28/28 27/27/27 25/25/25
f 31/31/31 30/30/30 29/29/29
f 32/32/32 31/31/31 29/29/29
