g Prop_Windsock_Pole
v -0.4967993 0.00381577 0.4967993
v -0.4967993 0.2139399 0.4967993
v 0.4972496 0.2139399 0.4967993
v 0.4972496 0.00381577 0.4967993
v -0.08463275 7.770329 0.08463275
v -0.08463275 7.770329 -0.08508295
v 0.08508295 7.770329 -0.08508295
v 0.08508295 7.770329 0.08463275
v -0.4967993 0.2139399 -0.4972496
v -0.4967993 0.00381577 -0.4972496
v 0.4972496 0.00381577 -0.4972496
v 0.4972496 0.2139399 -0.4972496
v -0.4967993 0.00381577 -0.4972496
v -0.4967993 0.00381577 0.4967993
v 0.4972496 0.00381577 0.4967993
v 0.4972496 0.00381577 -0.4972496
v 0.4972496 0.00381577 0.4967993
v 0.4972496 0.2139399 0.4967993
v 0.4972496 0.2139399 -0.4972496
v 0.4972496 0.00381577 -0.4972496
v -0.4967993 0.00381577 -0.4972496
v -0.4967993 0.2139399 -0.4972496
v -0.4967993 0.2139399 0.4967993
v -0.4967993 0.00381577 0.4967993
v -0.4967993 0.2139399 0.4967993
v -0.08463275 0.2139399 0.08463275
v 0.08508295 0.2139399 0.08463275
v 0.4972496 0.2139399 0.4967993
v 0.08508295 0.2139399 -0.08508295
v 0.4972496 0.2139399 -0.4972496
v -0.08463275 0.2139399 -0.08508295
v -0.4967993 0.2139399 -0.4972496
v -0.08463275 0.2139399 0.08463275
v -0.08463275 7.770329 0.08463275
v 0.08508295 7.770329 0.08463275
v 0.08508295 0.2139399 0.08463275
v 0.08508295 0.2139399 0.08463275
v 0.08508295 7.770329 0.08463275
v 0.08508295 7.770329 -0.08508295
v 0.08508295 0.2139399 -0.08508295
v 0.08508295 0.2139399 -0.08508295
v 0.08508295 7.770329 -0.08508295
v -0.08463275 7.770329 -0.08508295
v -0.08463275 0.2139399 -0.08508295
v -0.08463275 0.2139399 -0.08508295
v -0.08463275 7.770329 -0.08508295
v -0.08463275 7.770329 0.08463275
v -0.08463275 0.2139399 0.08463275
vt 0.1728666 0.4799047
vt 0.1728666 0.4799047
vt 0.1728666 0.4799047
vt 0.1728666 0.4799047
vt 0.1987224 0.5283844
vt 0.1987224 0.5283844
vt 0.1987224 0.5283844
vt 0.1987224 0.5283844
vt 0.1728666 0.4799047
vt 0.1728666 0.4799047
vt 0.1728666 0.4799047
vt 0.1728666 0.4799047
vt 0.1728666 0.4799047
vt 0.1728666 0.4799047
vt 0.1728666 0.4799047
vt 0.1728666 0.4799047
vt 0.2019544 0.4799047
vt 0.2019544 0.4799047
vt 0.2019544 0.4799047
vt 0.2019544 0.4799047
vt 0.2019544 0.4799047
vt 0.2019544 0.4799047
vt 0.2019544 0.4799047
vt 0.2019544 0.4799047
vt 0.2342742 0.4799047
vt 0.2342742 0.4799047
vt 0.2342742 0.4799047
vt 0.2342742 0.4799047
vt 0.2342742 0.4799047
vt 0.2342742 0.4799047
vt 0.2342742 0.4799047
vt 0.2342742 0.4799047
vt 0.1179229 0.5122245
vt 0.2762899 0.5122245
vt 0.2762899 0.5122245
vt 0.1179229 0.5122245
vt 0.1179229 0.5283844
vt 0.2762899 0.5283844
vt 0.2762899 0.5283844
vt 0.1179229 0.5283844
vt 0.1179229 0.5057606
vt 0.2762899 0.5057606
vt 0.2762899 0.5089926
vt 0.1179229 0.5089926
vt 0.1179229 0.5251524
vt 0.2762899 0.5251524
vt 0.2762899 0.5251524
vt 0.1179229 0.5251524
vn -0.01587105 0.01587105 0.9997481
vn -0.01587105 0.01587105 0.9997481
vn -0.01587105 0.01587105 0.9997481
vn -0.01587105 0.01587105 0.9997481
vn -0.01587105 0.999874 -0.000345267
vn -0.01587105 0.999874 -0.000345267
vn -0.01587105 0.999874 -0.000345267
vn -0.01587105 0.999874 -0.000345267
vn -0.01587105 0.01587105 -0.9997481
vn -0.01587105 0.01587105 -0.9997481
vn -0.01587105 0.01587105 -0.9997481
vn -0.01587105 0.01587105 -0.9997481
vn -0.01587105 -0.999874 -0.000345267
vn -0.01587105 -0.999874 -0.000345267
vn -0.01587105 -0.999874 -0.000345267
vn -0.01587105 -0.999874 -0.000345267
vn 0.999874 0.01587105 -0.0003439156
vn 0.999874 0.01587105 -0.0003439156
vn 0.999874 0.01587105 -0.0003439156
vn 0.999874 0.01587105 -0.0003439156
vn -0.999874 0.01587105 -0.0003439156
vn -0.999874 0.01587105 -0.0003439156
vn -0.999874 0.01587105 -0.0003439156
vn -0.999874 0.01587105 -0.0003439156
vn -0.01587105 0.999874 -0.000345267
vn -0.01587105 0.999874 -0.000345267
vn -0.01587105 0.999874 -0.000345267
vn -0.01587105 0.999874 -0.000345267
vn -0.01587105 0.999874 -0.000345267
vn -0.01587105 0.999874 -0.000345267
vn -0.01587105 0.999874 -0.000345267
vn -0.01587105 0.999874 -0.000345267
vn -0.01587105 0.01587105 0.9997481
vn -0.01587105 0.01587105 0.9997481
vn -0.01587105 0.01587105 0.9997481
vn -0.01587105 0.01587105 0.9997481
vn 0.999874 0.01587105 -0.0003439156
vn 0.999874 0.01587105 -0.0003439156
vn 0.999874 0.01587105 -0.0003439156
vn 0.999874 0.01587105 -0.0003439156
vn -0.01587105 0.01587105 -0.9997481
vn -0.01587105 0.01587105 -0.9997481
vn -0.01587105 0.01587105 -0.9997481
vn -0.01587105 0.01587105 -0.9997481
vn -0.999874 0.01587105 -0.0003439156
vn -0.999874 0.01587105 -0.0003439156
vn -0.999874 0.01587105 -0.0003439156
vn -0.999874 0.01587105 -0.0003439156
f 3/3/3 2/2/2 1/1/1
f 4/4/4 3/3/3 1/1/1
f 7/7/7 6/6/6 5/5/5
f 8/8/8 7/7/7 5/5/5
f 11/11/11 10/10/10 9/9/9
f 12/12/12 11/11/11 9/9/9
f 15/15/15 14/14/14 13/13/13
f 16/16/16 15/15/15 13/13/13
f 19/19/19 18/18/18 17/17/17
f 20/20/20 19/19/19 17/17/17
f 23/23/23 22/22/22 21/21/21
f 24/24/24 23/23/23 21/21/21
f 27/27/27 26/26/26 25/25/25
f 28/28/28 27/27/27 25/25/25
f 29/29/29 27/27/27 28/28/28
f 30/30/30 29/29/29 28/28/28
f 31/31/31 29/29/29 30/30/30
f 32/32/32 31/31/31 30/30/30
f 26/26/26 31/31/31 32/32/32
f 25/25/25 26/26/26 32/32/32
f 35/35/35 34/34/34 33/33/33
f 36/36/36 35/35/35 33/33/33
f 39/39/39 38/38/38 37/37/37
f 40/40/40 39/39/39 37/37/37
f 43/43/43 42/42/42 41/41/41
f 44/44/44 43/43/43 41/41/41
f 47/47/47 46/46/46 45/45/45
f 48/48/48 47/47/47 45/45/45
