g Prop_Airport_Cabnet
v 1.20813 0.1145942 0.3908812
v 1.20813 0.6533539 0.3908812
v 1.20813 0.6533539 -0.393083
v 1.20813 0.1145942 -0.393083
v 1.263387 2.269633 0.7293328
v -1.264639 2.269633 0.7293328
v -1.264639 2.269633 -0.7280809
v 1.263387 2.269633 -0.7280809
v -1.209381 1.927727 0.677529
v -1.209381 0.0006258488 0.677529
v -1.209381 0.0006258488 -0.6797307
v -1.209381 1.927727 -0.6797307
v -1.209381 0.0006258488 0.677529
v -0.0006258488 0.0006258488 0.677529
v -1.209381 0.0006258488 -0.6797307
v 1.20813 0.0006258488 -0.6797307
v 1.20813 0.0006258488 0.677529
v 0.7867919 0.4254171 -0.6797307
v 0.7867919 0.5048496 -0.6797307
v -0.78459 0.5048496 -0.6797307
v -0.78459 0.4254171 -0.6797307
v -0.2700057 0.8018579 0.677529
v -0.2700057 1.126495 0.677529
v -0.1698517 1.126495 0.677529
v -0.1698517 0.8018579 0.677529
v 1.20813 1.927727 0.677529
v 1.263387 1.927727 0.7293328
v 1.263387 1.927727 -0.7280809
v 1.20813 1.927727 -0.6797307
v -1.264639 1.927727 -0.7280809
v -1.209381 1.927727 -0.6797307
v -1.264639 1.927727 0.7293328
v -1.209381 1.927727 0.677529
v -0.0006258488 1.927727 0.677529
v 1.263387 1.927727 0.7293328
v 1.263387 2.269633 0.7293328
v 1.263387 2.269633 -0.7280809
v 1.263387 1.927727 -0.7280809
v 1.263387 1.927727 -0.7280809
v 1.263387 2.269633 -0.7280809
v -1.264639 2.269633 -0.7280809
v -1.264639 1.927727 -0.7280809
v -1.264639 1.927727 -0.7280809
v -1.264639 2.269633 -0.7280809
v -1.264639 2.269633 0.7293328
v -1.264639 1.927727 0.7293328
v -1.264639 1.927727 0.7293328
v -1.264639 2.269633 0.7293328
v 1.263387 2.269633 0.7293328
v 1.263387 1.927727 0.7293328
v 0.1685998 1.126495 0.677529
v 0.2687539 1.126495 0.677529
v 0.2687539 0.8018579 0.677529
v 0.1685998 0.8018579 0.677529
v -1.209381 0.0006258488 0.677529
v -1.157578 0.08005834 0.677529
v -0.04897606 0.08005834 0.677529
v -0.0006258488 0.0006258488 0.677529
v -0.04897606 1.848295 0.677529
v -0.0006258488 1.927727 0.677529
v -1.157578 1.848295 0.677529
v -1.209381 1.927727 0.677529
v 0.05117786 0.08005834 0.677529
v 0.05117786 1.848295 0.677529
v 1.159779 0.08005834 0.677529
v 1.20813 0.0006258488 0.677529
v 1.159779 1.848295 0.677529
v 1.20813 1.927727 0.677529
v -1.157578 0.08005834 0.677529
v -0.2700057 0.8018579 0.677529
v -0.1698517 0.8018579 0.677529
v -0.04897606 0.08005834 0.677529
v -0.1698517 1.126495 0.677529
v -0.04897606 1.848295 0.677529
v -0.2700057 1.126495 0.677529
v -1.157578 1.848295 0.677529
v 0.05117786 1.848295 0.677529
v 0.1685998 1.126495 0.677529
v 0.1685998 0.8018579 0.677529
v 0.05117786 0.08005834 0.677529
v 0.2687539 0.8018579 0.677529
v 1.159779 0.08005834 0.677529
v 0.2687539 1.126495 0.677529
v 1.159779 1.848295 0.677529
v 1.20813 0.0006258488 0.677529
v 1.20813 0.1145942 0.3908812
v 1.20813 0.1145942 -0.393083
v 1.20813 0.0006258488 -0.6797307
v 1.20813 0.6533539 -0.393083
v 1.20813 1.927727 -0.6797307
v 1.20813 0.6533539 0.3908812
v 1.20813 1.927727 0.677529
v 1.20813 0.0006258488 -0.6797307
v 0.7867919 0.2285627 -0.6797307
v -0.78459 0.2285627 -0.6797307
v -1.209381 0.0006258488 -0.6797307
v 0.7867919 0.3045416 -0.6797307
v -0.78459 0.3045416 -0.6797307
v -0.78459 0.4254171 -0.6797307
v -0.78459 0.5048496 -0.6797307
v -1.209381 1.927727 -0.6797307
v 0.7867919 0.5048496 -0.6797307
v 1.20813 1.927727 -0.6797307
v 0.7867919 0.4254171 -0.6797307
v 0.7867919 0.2285627 -0.6797307
v 0.7867919 0.3045416 -0.6797307
v -0.78459 0.3045416 -0.6797307
v -0.78459 0.2285627 -0.6797307
vt 0.3596218 0.4783357
vt 0.3596218 0.4783357
vt 0.3596218 0.4783357
vt 0.3596218 0.4783357
vt 0.3596218 0.4783357
vt 0.3596218 0.4783357
vt 0.3596218 0.4783357
vt 0.3596218 0.4783357
vt 0.3277717 0.4783357
vt 0.3277717 0.4783357
vt 0.3277717 0.4783357
vt 0.3277717 0.4783357
vt 0.2003714 0.4783357
vt 0.2003714 0.4783357
vt 0.2003714 0.4783357
vt 0.2003714 0.4783357
vt 0.2003714 0.4783357
vt 0.1424621 0.4783357
vt 0.1424621 0.4783357
vt 0.1424621 0.4783357
vt 0.1424621 0.4783357
vt 0.1106121 0.4783357
vt 0.1106121 0.4783357
vt 0.1106121 0.4783357
vt 0.1106121 0.4783357
vt 0.1714168 0.4783357
vt 0.1714168 0.4783357
vt 0.1714168 0.4783357
vt 0.1714168 0.4783357
vt 0.1714168 0.4783357
vt 0.1714168 0.4783357
vt 0.1714168 0.4783357
vt 0.1714168 0.4783357
vt 0.1714168 0.4783357
vt 0.3277717 0.4783357
vt 0.3277717 0.4783357
vt 0.3277717 0.4783357
vt 0.3277717 0.4783357
vt 0.2988171 0.4783357
vt 0.2988171 0.4783357
vt 0.2988171 0.4783357
vt 0.2988171 0.4783357
vt 0.3277717 0.4783357
vt 0.3277717 0.4783357
vt 0.3277717 0.4783357
vt 0.3277717 0.4783357
vt 0.2988171 0.4783357
vt 0.2988171 0.4783357
vt 0.2988171 0.4783357
vt 0.2988171 0.4783357
vt 0.1106121 0.4783357
vt 0.1106121 0.4783357
vt 0.1106121 0.4783357
vt 0.1106121 0.4783357
vt 0.2988171 0.4783357
vt 0.2988171 0.4783357
vt 0.2988171 0.4783357
vt 0.2988171 0.4783357
vt 0.2988171 0.4783357
vt 0.2988171 0.4783357
vt 0.2988171 0.4783357
vt 0.2988171 0.4783357
vt 0.2988171 0.4783357
vt 0.2988171 0.4783357
vt 0.2988171 0.4783357
vt 0.2988171 0.4783357
vt 0.2988171 0.4783357
vt 0.2988171 0.4783357
vt 0.2351169 0.4783357
vt 0.2351169 0.4783357
vt 0.2351169 0.4783357
vt 0.2351169 0.4783357
vt 0.2351169 0.4783357
vt 0.2351169 0.4783357
vt 0.2351169 0.4783357
vt 0.2351169 0.4783357
vt 0.2351169 0.4783357
vt 0.2351169 0.4783357
vt 0.2351169 0.4783357
vt 0.2351169 0.4783357
vt 0.2351169 0.4783357
vt 0.2351169 0.4783357
vt 0.2351169 0.4783357
vt 0.2351169 0.4783357
vt 0.3277717 0.4783357
vt 0.3277717 0.4783357
vt 0.3277717 0.4783357
vt 0.3277717 0.4783357
vt 0.3277717 0.4783357
vt 0.3277717 0.4783357
vt 0.3277717 0.4783357
vt 0.3277717 0.4783357
vt 0.2988171 0.4783357
vt 0.2988171 0.4783357
vt 0.2988171 0.4783357
vt 0.2988171 0.4783357
vt 0.2988171 0.4783357
vt 0.2988171 0.4783357
vt 0.2988171 0.4783357
vt 0.2988171 0.4783357
vt 0.2988171 0.4783357
vt 0.2988171 0.4783357
vt 0.2988171 0.4783357
vt 0.2988171 0.4783357
vt 0.1424621 0.4783357
vt 0.1424621 0.4783357
vt 0.1424621 0.4783357
vt 0.1424621 0.4783357
vn 0.999874 0.01587105 -0.0003439156
vn 0.999874 0.01587105 -0.0003439156
vn 0.999874 0.01587105 -0.0003439156
vn 0.999874 0.01587105 -0.0003439156
vn -0.01587105 0.999874 -0.000345267
vn -0.01587105 0.999874 -0.000345267
vn -0.01587105 0.999874 -0.000345267
vn -0.01587105 0.999874 -0.000345267
vn -0.999874 0.01587105 -0.0003439156
vn -0.999874 0.01587105 -0.0003439156
vn -0.999874 0.01587105 -0.0003439156
vn -0.999874 0.01587105 -0.0003439156
vn -0.01587105 -0.999874 -0.000345267
vn -0.01587105 -0.999874 -0.000345267
vn -0.01587105 -0.999874 -0.000345267
vn -0.01587105 -0.999874 -0.000345267
vn -0.01587105 -0.999874 -0.000345267
vn -0.01587105 0.01587105 -0.9997481
vn -0.01587105 0.01587105 -0.9997481
vn -0.01587105 0.01587105 -0.9997481
vn -0.01587105 0.01587105 -0.9997481
vn -0.01587105 0.01587105 0.9997481
vn -0.01587105 0.01587105 0.9997481
vn -0.01587105 0.01587105 0.9997481
vn -0.01587105 0.01587105 0.9997481
vn -0.01587105 -0.999874 -0.000345267
vn -0.01587105 -0.999874 -0.000345267
vn -0.01587105 -0.999874 -0.000345267
vn -0.01587105 -0.999874 -0.000345267
vn -0.01587105 -0.999874 -0.000345267
vn -0.01587105 -0.999874 -0.000345267
vn -0.01587105 -0.999874 -0.000345267
vn -0.01587105 -0.999874 -0.000345267
vn -0.01587105 -0.999874 -0.000345267
vn 0.999874 0.01587105 -0.0003439156
vn 0.999874 0.01587105 -0.0003439156
vn 0.999874 0.01587105 -0.0003439156
vn 0.999874 0.01587105 -0.0003439156
vn -0.01587105 0.01587105 -0.9997481
vn -0.01587105 0.01587105 -0.9997481
vn -0.01587105 0.01587105 -0.9997481
vn -0.01587105 0.01587105 -0.9997481
vn -0.999874 0.01587105 -0.0003439156
vn -0.999874 0.01587105 -0.0003439156
vn -0.999874 0.01587105 -0.0003439156
vn -0.999874 0.01587105 -0.0003439156
vn -0.01587105 0.01587105 0.9997481
vn -0.01587105 0.01587105 0.9997481
vn -0.01587105 0.01587105 0.9997481
vn -0.01587105 0.01587105 0.9997481
vn -0.01587105 0.01587105 0.9997481
vn -0.01587105 0.01587105 0.9997481
vn -0.01587105 0.01587105 0.9997481
vn -0.01587105 0.01587105 0.9997481
vn -0.01587105 0.01587105 0.9997481
vn -0.01587105 0.01587105 0.9997481
vn -0.01587105 0.01587105 0.9997481
vn -0.01587105 0.01587105 0.9997481
vn -0.01587105 0.01587105 0.9997481
vn -0.01587105 0.01587105 0.9997481
vn -0.01587105 0.01587105 0.9997481
vn -0.01587105 0.01587105 0.9997481
vn -0.01587105 0.01587105 0.9997481
vn -0.01587105 0.01587105 0.9997481
vn -0.01587105 0.01587105 0.9997481
vn -0.01587105 0.01587105 0.9997481
vn -0.01587105 0.01587105 0.9997481
vn -0.01587105 0.01587105 0.9997481
vn -0.01587105 0.01587105 0.9997481
vn -0.01587105 0.01587105 0.9997481
vn -0.01587105 0.01587105 0.9997481
vn -0.01587105 0.01587105 0.9997481
vn -0.01587105 0.01587105 0.9997481
vn -0.01587105 0.01587105 0.9997481
vn -0.01587105 0.01587105 0.9997481
vn -0.01587105 0.01587105 0.9997481
vn -0.01587105 0.01587105 0.9997481
vn -0.01587105 0.01587105 0.9997481
vn -0.01587105 0.01587105 0.9997481
vn -0.01587105 0.01587105 0.9997481
vn -0.01587105 0.01587105 0.9997481
vn -0.01587105 0.01587105 0.9997481
vn -0.01587105 0.01587105 0.9997481
vn -0.01587105 0.01587105 0.9997481
vn 0.999874 0.01587105 -0.0003439156
vn 0.999874 0.01587105 -0.0003439156
vn 0.999874 0.01587105 -0.0003439156
vn 0.999874 0.01587105 -0.0003439156
vn 0.999874 0.01587105 -0.0003439156
vn 0.999874 0.01587105 -0.0003439156
vn 0.999874 0.01587105 -0.0003439156
vn 0.999874 0.01587105 -0.0003439156
vn -0.01587105 0.01587105 -0.9997481
vn -0.01587105 0.01587105 -0.9997481
vn -0.01587105 0.01587105 -0.9997481
vn -0.01587105 0.01587105 -0.9997481
vn -0.01587105 0.01587105 -0.9997481
vn -0.01587105 0.01587105 -0.9997481
vn -0.01587105 0.01587105 -0.9997481
vn -0.01587105 0.01587105 -0.9997481
vn -0.01587105 0.01587105 -0.9997481
vn -0.01587105 0.01587105 -0.9997481
vn -0.01587105 0.01587105 -0.9997481
vn -0.01587105 0.01587105 -0.9997481
vn -0.01587105 0.01587105 -0.9997481
vn -0.01587105 0.01587105 -0.9997481
vn -0.01587105 0.01587105 -0.9997481
vn -0.01587105 0.01587105 -0.9997481
f 3/3/3 2/2/2 1/1/1
f 4/4/4 3/3/3 1/1/1
f 7/7/7 6/6/6 5/5/5
f 8/8/8 7/7/7 5/5/5
f 11/11/11 10/10/10 9/9/9
f 12/12/12 11/11/11 9/9/9
f 15/15/15 14/14/14 13/13/13
f 15/15/15 16/16/16 14/14/14
f 16/16/16 17/17/17 14/14/14
f 20/20/20 19/19/19 18/18/18
f 21/21/21 20/20/20 18/18/18
f 24/24/24 23/23/23 22/22/22
f 25/25/25 24/24/24 22/22/22
f 28/28/28 27/27/27 26/26/26
f 29/29/29 28/28/28 26/26/26
f 30/30/30 28/28/28 29/29/29
f 31/31/31 30/30/30 29/29/29
f 32/32/32 30/30/30 31/31/31
f 33/33/33 32/32/32 31/31/31
f 34/34/34 27/27/27 32/32/32
f 34/34/34 32/32/32 33/33/33
f 34/34/34 26/26/26 27/27/27
f 37/37/37 36/36/36 35/35/35
f 38/38/38 37/37/37 35/35/35
f 41/41/41 40/40/40 39/39/39
f 42/42/42 41/41/41 39/39/39
f 45/45/45 44/44/44 43/43/43
f 46/46/46 45/45/45 43/43/43
f 49/49/49 48/48/48 47/47/47
f 50/50/50 49/49/49 47/47/47
f 53/53/53 52/52/52 51/51/51
f 54/54/54 53/53/53 51/51/51
f 57/57/57 56/56/56 55/55/55
f 58/58/58 57/57/57 55/55/55
f 59/59/59 57/57/57 58/58/58
f 60/60/60 59/59/59 58/58/58
f 61/61/61 59/59/59 60/60/60
f 62/62/62 61/61/61 60/60/60
f 56/56/56 61/61/61 62/62/62
f 55/55/55 56/56/56 62/62/62
f 58/58/58 63/63/63 60/60/60
f 63/63/63 64/64/64 60/60/60
f 65/65/65 63/63/63 58/58/58
f 66/66/66 65/65/65 58/58/58
f 67/67/67 65/65/65 66/66/66
f 68/68/68 67/67/67 66/66/66
f 64/64/64 67/67/67 68/68/68
f 60/60/60 64/64/64 68/68/68
f 71/71/71 70/70/70 69/69/69
f 72/72/72 71/71/71 69/69/69
f 73/73/73 71/71/71 72/72/72
f 74/74/74 73/73/73 72/72/72
f 75/75/75 73/73/73 74/74/74
f 76/76/76 75/75/75 74/74/74
f 70/70/70 75/75/75 76/76/76
f 69/69/69 70/70/70 76/76/76
f 79/79/79 78/78/78 77/77/77
f 80/80/80 79/79/79 77/77/77
f 81/81/81 79/79/79 80/80/80
f 82/82/82 81/81/81 80/80/80
f 83/83/83 81/81/81 82/82/82
f 84/84/84 83/83/83 82/82/82
f 78/78/78 83/83/83 84/84/84
f 77/77/77 78/78/78 84/84/84
f 87/87/87 86/86/86 85/85/85
f 88/88/88 87/87/87 85/85/85
f 89/89/89 87/87/87 88/88/88
f 90/90/90 89/89/89 88/88/88
f 91/91/91 89/89/89 90/90/90
f 92/92/92 91/91/91 90/90/90
f 86/86/86 91/91/91 92/92/92
f 85/85/85 86/86/86 92/92/92
f 95/95/95 94/94/94 93/93/93
f 96/96/96 95/95/95 93/93/93
f 93/93/93 94/94/94 97/97/97
f 98/98/98 95/95/95 96/96/96
f 98/98/98 99/99/99 97/97/97
f 99/99/99 98/98/98 96/96/96
f 100/100/100 99/99/99 96/96/96
f 101/101/101 100/100/100 96/96/96
f 102/102/102 100/100/100 101/101/101
f 103/103/103 102/102/102 101/101/101
f 104/104/104 102/102/102 103/103/103
f 93/93/93 104/104/104 103/103/103
f 99/99/99 104/104/104 97/97/97
f 93/93/93 97/97/97 104/104/104
f 107/107/107 106/106/106 105/105/105
f 108/108/108 107/107/107 105/105/105
