g road_crossing_mesh1
v 0 -0.1948576 -3.165331
v 0 -0.1948576 -10
v 2.500038 -0.1948576 -10
v 2.500038 -0.1948576 -3.165331
v 0 -0.1948576 -2.869153
v 2.500038 -0.1948576 -2.869153
v 2.500038 -0.1948576 -2.869153
v 2.500038 0 -2.869153
v 0 0 -2.869153
v 0 -0.1948576 -2.869153
v 2.500038 0 0
v 0 0 0
v 0 0 -2.869153
v 2.500038 0 -2.869153
v 4.999924 0 0
v 2.500038 0 0
v 2.500038 0 -2.869153
v 4.999924 0 -2.869153
v 4.999924 -0.1948576 -2.869153
v 4.999924 0 -2.869153
v 2.500038 0 -2.869153
v 2.500038 -0.1948576 -2.869153
v 2.500038 -0.1948576 -3.165331
v 4.999924 -0.1948576 -3.165331
v 4.999924 -0.1948576 -2.869153
v 2.500038 -0.1948576 -2.869153
v 2.500038 -0.1948576 -10
v 4.999924 -0.1948576 -10
v 2.500038 0 0
v 2.500038 -0.1948576 0
v 0 -0.1948576 0
v 0 0 0
v 4.999924 0 0
v 4.999924 -0.1948576 0
v 2.500038 -0.1948576 0
v 2.500038 0 0
vt 0.3757981 0.00642401
vt 0.9930289 0.00642401
vt 0.9930289 0.4886356
vt 0.3757981 0.4886356
vt 0.3410789 0.00642401
vt 0.3410789 0.5002087
vt 0.3410789 0.5002087
vt 0.3179327 0.5002087
vt 0.3179327 0.00642401
vt 0.3410789 0.00642401
vt 0.007388433 0.5002087
vt 0.007388433 0.00642401
vt 0.3179327 0.00642401
vt 0.3179327 0.5002087
vt 0.007388433 0.00642401
vt 0.007388433 0.5002087
vt 0.3179327 0.5002087
vt 0.3179327 0.00642401
vt 0.3410789 0.00642401
vt 0.3179327 0.00642401
vt 0.3179327 0.5002087
vt 0.3410789 0.5002087
vt 0.3757981 0.4886356
vt 0.3757981 0.00642401
vt 0.3410789 0.00642401
vt 0.3410789 0.5002087
vt 0.9930289 0.4886356
vt 0.9930289 0.00642401
vt 0.3323991 0.464525
vt 0.3323991 0.4568096
vt 0.3246837 0.4568096
vt 0.3246837 0.464525
vt 0.3323991 0.464525
vt 0.3323991 0.4568096
vt 0.3246837 0.4568096
vt 0.3246837 0.464525
vn 0 1 0
vn 0 1 0
vn 0 1 0
vn 0 1 0
vn 0 1 0
vn 0 1 0
vn 0 0 -1
vn 0 0 -1
vn 0 0 -1
vn 0 0 -1
vn 0 1 0
vn 0 1 0
vn 0 1 0
vn 0 1 0
vn 0 1 0
vn 0 1 0
vn 0 1 0
vn 0 1 0
vn 0 0 -1
vn 0 0 -1
vn 0 0 -1
vn 0 0 -1
vn 0 1 0
vn 0 1 0
vn 0 1 0
vn 0 1 0
vn 0 1 0
vn 0 1 0
vn 0 0 1
vn 0 0 1
vn 0 0 1
vn 0 0 1
vn 0 0 1
vn 0 0 1
vn 0 0 1
vn 0 0 1
f 3/3/3 2/2/2 1/1/1
f 4/4/4 3/3/3 1/1/1
f 4/4/4 1/1/1 5/5/5
f 6/6/6 4/4/4 5/5/5
f 9/9/9 8/8/8 7/7/7
f 10/10/10 9/9/9 7/7/7
f 13/13/13 12/12/12 11/11/11
f 14/14/14 13/13/13 11/11/11
f 17/17/17 16/16/16 15/15/15
f 18/18/18 17/17/17 15/15/15
f 21/21/21 20/20/20 19/19/19
f 22/22/22 21/21/21 19/19/19
f 25/25/25 24/24/24 23/23/23
f 26/26/26 25/25/25 23/23/23
f 23/23/23 24/24/24 27/27/27
f 24/24/24 28/28/28 27/27/27
f 31/31/31 30/30/30 29/29/29
f 32/32/32 31/31/31 29/29/29
f 35/35/35 34/34/34 33/33/33
f 36/36/36 35/35/35 33/33/33
