g road_straight_clear_mesh_2
v -9.999968 -0.1947958 10.00001
v -9.999987 -0.1947958 3.165332
v -4.99999 -0.1947958 10.00001
v -4.99999 -0.1947958 3.165332
v -7.499978 -0.1947958 2.869124
v 7.525086E-06 -0.1947958 10.00001
v 7.525086E-06 -0.1947958 3.165332
v -2.500001 -0.1947958 2.869124
v -14.99996 -0.1947958 3.165332
v -14.99996 -0.1947958 10.00001
v -19.99996 -0.1947958 3.165332
v -19.99996 -0.1947958 10.00001
v -17.49997 -0.1947958 2.869124
v -12.49998 -0.1947958 2.869124
v -9.999968 -0.1947958 16.83468
v -14.99996 -0.1947958 16.83468
v -12.49996 -0.1947958 17.13087
v -19.99994 -0.1947958 16.83468
v -17.49995 -0.1947958 17.13087
v 7.525086E-06 -0.1947958 16.83468
v -4.99997 -0.1947958 16.83468
v -2.499981 -0.1947958 17.13087
v -7.499978 -0.1947958 17.13087
v -7.499978 -0.1947958 2.869124
v -7.499978 -7.525086E-06 2.869124
v -4.99999 -0.1947958 2.869124
v -4.99999 -7.525086E-06 2.869124
v -7.499978 -7.525086E-06 -7.525086E-06
v -4.99999 -7.525086E-06 -7.525086E-06
v -7.499978 -7.525086E-06 2.869124
v -4.99999 -7.525086E-06 2.869124
v -4.99999 -0.1947958 3.165332
v -7.499978 -0.1947958 2.869124
v -4.99999 -0.1947958 2.869124
v -9.999987 -7.525086E-06 -7.525086E-06
v -7.499978 -7.525086E-06 -7.525086E-06
v -9.999987 -7.525086E-06 2.869124
v -7.499978 -7.525086E-06 2.869124
v -9.999987 -0.1947958 2.869124
v -9.999987 -7.525086E-06 2.869124
v -7.499978 -0.1947958 2.869124
v -7.499978 -7.525086E-06 2.869124
v -7.499978 -7.525086E-06 -7.525086E-06
v -7.499978 -0.1947958 -7.525086E-06
v -4.99999 -7.525086E-06 -7.525086E-06
v -4.99999 -0.1947958 -7.525086E-06
v -9.999987 -7.525086E-06 -7.525086E-06
v -9.999987 -0.1947958 -7.525086E-06
v -7.499978 -7.525086E-06 -7.525086E-06
v -7.499978 -0.1947958 -7.525086E-06
v -9.999987 -0.1947958 3.165332
v -9.999987 -0.1947958 2.869124
v -7.499978 -0.1947958 2.869124
v -2.500001 -0.1947958 2.869124
v -2.500001 -7.525086E-06 2.869124
v 7.525086E-06 -0.1947958 2.869124
v 7.525086E-06 -7.525086E-06 2.869124
v -2.500001 -7.525086E-06 -7.525086E-06
v 7.525086E-06 -7.525086E-06 -7.525086E-06
v -2.500001 -7.525086E-06 2.869124
v 7.525086E-06 -7.525086E-06 2.869124
v 7.525086E-06 -0.1947958 3.165332
v -2.500001 -0.1947958 2.869124
v 7.525086E-06 -0.1947958 2.869124
v -4.99999 -7.525086E-06 -7.525086E-06
v -2.500001 -7.525086E-06 -7.525086E-06
v -4.99999 -7.525086E-06 2.869124
v -2.500001 -7.525086E-06 2.869124
v -4.99999 -0.1947958 2.869124
v -4.99999 -7.525086E-06 2.869124
v -2.500001 -0.1947958 2.869124
v -2.500001 -7.525086E-06 2.869124
v -2.500001 -7.525086E-06 -7.525086E-06
v -2.500001 -0.1947958 -7.525086E-06
v 7.525086E-06 -7.525086E-06 -7.525086E-06
v 7.525086E-06 -0.1947958 -7.525086E-06
v -4.99999 -7.525086E-06 -7.525086E-06
v -4.99999 -0.1947958 -7.525086E-06
v -2.500001 -7.525086E-06 -7.525086E-06
v -2.500001 -0.1947958 -7.525086E-06
v -4.99999 -0.1947958 3.165332
v -4.99999 -0.1947958 2.869124
v -2.500001 -0.1947958 2.869124
v -17.49997 -0.1947958 2.869124
v -17.49997 -7.525086E-06 2.869124
v -14.99996 -0.1947958 2.869124
v -14.99996 -7.525086E-06 2.869124
v -17.49997 -7.525086E-06 -7.525086E-06
v -14.99996 -7.525086E-06 -7.525086E-06
v -17.49997 -7.525086E-06 2.869124
v -14.99996 -7.525086E-06 2.869124
v -14.99996 -0.1947958 3.165332
v -17.49997 -0.1947958 2.869124
v -14.99996 -0.1947958 2.869124
v -19.99996 -7.525086E-06 -7.525086E-06
v -17.49997 -7.525086E-06 -7.525086E-06
v -19.99996 -7.525086E-06 2.869124
v -17.49997 -7.525086E-06 2.869124
v -19.99996 -0.1947958 2.869124
v -19.99996 -7.525086E-06 2.869124
v -17.49997 -0.1947958 2.869124
v -17.49997 -7.525086E-06 2.869124
v -17.49997 -7.525086E-06 -7.525086E-06
v -17.49997 -0.1947958 -7.525086E-06
v -14.99996 -7.525086E-06 -7.525086E-06
v -14.99996 -0.1947958 -7.525086E-06
v -19.99996 -7.525086E-06 -7.525086E-06
v -19.99996 -0.1947958 -7.525086E-06
v -17.49997 -7.525086E-06 -7.525086E-06
v -17.49997 -0.1947958 -7.525086E-06
v -19.99996 -0.1947958 3.165332
v -19.99996 -0.1947958 2.869124
v -17.49997 -0.1947958 2.869124
v -12.49998 -0.1947958 2.869124
v -12.49998 -7.525086E-06 2.869124
v -9.999987 -0.1947958 2.869124
v -9.999987 -7.525086E-06 2.869124
v -12.49998 -7.525086E-06 -7.525086E-06
v -9.999987 -7.525086E-06 -7.525086E-06
v -12.49998 -7.525086E-06 2.869124
v -9.999987 -7.525086E-06 2.869124
v -9.999987 -0.1947958 3.165332
v -12.49998 -0.1947958 2.869124
v -9.999987 -0.1947958 2.869124
v -14.99996 -7.525086E-06 -7.525086E-06
v -12.49998 -7.525086E-06 -7.525086E-06
v -14.99996 -7.525086E-06 2.869124
v -12.49998 -7.525086E-06 2.869124
v -14.99996 -0.1947958 2.869124
v -14.99996 -7.525086E-06 2.869124
v -12.49998 -0.1947958 2.869124
v -12.49998 -7.525086E-06 2.869124
v -12.49998 -7.525086E-06 -7.525086E-06
v -12.49998 -0.1947958 -7.525086E-06
v -9.999987 -7.525086E-06 -7.525086E-06
v -9.999987 -0.1947958 -7.525086E-06
v -14.99996 -7.525086E-06 -7.525086E-06
v -14.99996 -0.1947958 -7.525086E-06
v -12.49998 -7.525086E-06 -7.525086E-06
v -12.49998 -0.1947958 -7.525086E-06
v -14.99996 -0.1947958 3.165332
v -14.99996 -0.1947958 2.869124
v -12.49998 -0.1947958 2.869124
v -12.49996 -0.1947958 17.13087
v -12.49996 -7.525086E-06 17.13087
v -14.99996 -0.1947958 17.13087
v -14.99996 -7.525086E-06 17.13087
v -12.49996 -7.525086E-06 20
v -14.99996 -7.525086E-06 20
v -12.49996 -7.525086E-06 17.13087
v -14.99996 -7.525086E-06 17.13087
v -14.99996 -0.1947958 16.83468
v -12.49996 -0.1947958 17.13087
v -14.99996 -0.1947958 17.13087
v -9.999968 -7.525086E-06 20
v -12.49996 -7.525086E-06 20
v -9.999968 -7.525086E-06 17.13087
v -12.49996 -7.525086E-06 17.13087
v -9.999968 -0.1947958 17.13087
v -9.999968 -7.525086E-06 17.13087
v -12.49996 -0.1947958 17.13087
v -12.49996 -7.525086E-06 17.13087
v -12.49996 -7.525086E-06 20
v -12.49996 -0.1947958 20
v -14.99996 -7.525086E-06 20
v -14.99996 -0.1947958 20
v -9.999968 -7.525086E-06 20
v -9.999968 -0.1947958 20
v -12.49996 -7.525086E-06 20
v -12.49996 -0.1947958 20
v -9.999968 -0.1947958 16.83468
v -9.999968 -0.1947958 17.13087
v -12.49996 -0.1947958 17.13087
v -17.49995 -0.1947958 17.13087
v -17.49995 -7.525086E-06 17.13087
v -19.99994 -0.1947958 17.13087
v -19.99994 -7.525086E-06 17.13087
v -17.49995 -7.525086E-06 20
v -19.99994 -7.525086E-06 20
v -17.49995 -7.525086E-06 17.13087
v -19.99994 -7.525086E-06 17.13087
v -19.99994 -0.1947958 16.83468
v -17.49995 -0.1947958 17.13087
v -19.99994 -0.1947958 17.13087
v -14.99996 -7.525086E-06 20
v -17.49995 -7.525086E-06 20
v -14.99996 -7.525086E-06 17.13087
v -17.49995 -7.525086E-06 17.13087
v -14.99996 -0.1947958 17.13087
v -14.99996 -7.525086E-06 17.13087
v -17.49995 -0.1947958 17.13087
v -17.49995 -7.525086E-06 17.13087
v -17.49995 -7.525086E-06 20
v -17.49995 -0.1947958 20
v -19.99994 -7.525086E-06 20
v -19.99994 -0.1947958 20
v -14.99996 -7.525086E-06 20
v -14.99996 -0.1947958 20
v -17.49995 -7.525086E-06 20
v -17.49995 -0.1947958 20
v -14.99996 -0.1947958 16.83468
v -14.99996 -0.1947958 17.13087
v -17.49995 -0.1947958 17.13087
v -2.499981 -0.1947958 17.13087
v -2.499981 -7.525086E-06 17.13087
v -4.99997 -0.1947958 17.13087
v -4.99997 -7.525086E-06 17.13087
v -2.499981 -7.525086E-06 20
v -4.99997 -7.525086E-06 20
v -2.499981 -7.525086E-06 17.13087
v -4.99997 -7.525086E-06 17.13087
v -4.99997 -0.1947958 16.83468
v -2.499981 -0.1947958 17.13087
v -4.99997 -0.1947958 17.13087
v 7.525086E-06 -7.525086E-06 20
v -2.499981 -7.525086E-06 20
v 7.525086E-06 -7.525086E-06 17.13087
v -2.499981 -7.525086E-06 17.13087
v 7.525086E-06 -0.1947958 17.13087
v 7.525086E-06 -7.525086E-06 17.13087
v -2.499981 -0.1947958 17.13087
v -2.499981 -7.525086E-06 17.13087
v -2.499981 -7.525086E-06 20
v -2.499981 -0.1947958 20
v -4.99997 -7.525086E-06 20
v -4.99997 -0.1947958 20
v 7.525086E-06 -7.525086E-06 20
v 7.525086E-06 -0.1947958 20
v -2.499981 -7.525086E-06 20
v -2.499981 -0.1947958 20
v 7.525086E-06 -0.1947958 16.83468
v 7.525086E-06 -0.1947958 17.13087
v -2.499981 -0.1947958 17.13087
v -7.499978 -0.1947958 17.13087
v -7.499978 -7.525086E-06 17.13087
v -9.999968 -0.1947958 17.13087
v -9.999968 -7.525086E-06 17.13087
v -7.499978 -7.525086E-06 20
v -9.999968 -7.525086E-06 20
v -7.499978 -7.525086E-06 17.13087
v -9.999968 -7.525086E-06 17.13087
v -9.999968 -0.1947958 16.83468
v -7.499978 -0.1947958 17.13087
v -9.999968 -0.1947958 17.13087
v -4.99997 -7.525086E-06 20
v -7.499978 -7.525086E-06 20
v -4.99997 -7.525086E-06 17.13087
v -7.499978 -7.525086E-06 17.13087
v -4.99997 -0.1947958 17.13087
v -4.99997 -7.525086E-06 17.13087
v -7.499978 -0.1947958 17.13087
v -7.499978 -7.525086E-06 17.13087
v -7.499978 -7.525086E-06 20
v -7.499978 -0.1947958 20
v -9.999968 -7.525086E-06 20
v -9.999968 -0.1947958 20
v -4.99997 -7.525086E-06 20
v -4.99997 -0.1947958 20
v -7.499978 -7.525086E-06 20
v -7.499978 -0.1947958 20
v -4.99997 -0.1947958 16.83468
v -4.99997 -0.1947958 17.13087
v -7.499978 -0.1947958 17.13087
vt 0.7989965 1
vt 0.3754103 1
vt 0.7989965 1
vt 0.3754103 1
vt 0.3410797 0.5147094
vt 0.7989965 1
vt 0.3754103 1
vt 0.3410797 0.5147094
vt 0.3754103 1
vt 0.7989965 1
vt 0.3754103 1
vt 0.7989965 1
vt 0.3410797 0.5147094
vt 0.3410797 0.5147094
vt 0.3754103 1
vt 0.3754103 1
vt 0.3410797 0.5147094
vt 0.3754103 1
vt 0.3410797 0.5147094
vt 0.3754103 1
vt 0.3754103 1
vt 0.3410797 0.5147094
vt 0.3410797 0.5147094
vt 0.3410797 0.5147094
vt 0.317901 0.5013996
vt 0.3410797 1
vt 0.317901 1
vt 0.01105372 0.5013996
vt 0.01105372 1
vt 0.317901 0.5013996
vt 0.317901 1
vt 0.3754103 1
vt 0.3410797 0.5147094
vt 0.3410797 1
vt 0.01105372 1
vt 0.01105372 0.5013996
vt 0.317901 1
vt 0.317901 0.5013996
vt 0.3410797 1
vt 0.317901 1
vt 0.3410797 0.5147094
vt 0.317901 0.5013996
vt 0.3253857 0.6008753
vt 0.3253857 0.6065945
vt 0.331105 0.6008753
vt 0.331105 0.6065945
vt 0.3253857 0.6008753
vt 0.3253857 0.6065945
vt 0.331105 0.6008753
vt 0.331105 0.6065945
vt 0.3754103 1
vt 0.3410797 1
vt 0.3410797 0.5147094
vt 0.3410797 0.5147094
vt 0.317901 0.5013996
vt 0.3410797 1
vt 0.317901 1
vt 0.01105372 0.5013996
vt 0.01105372 1
vt 0.317901 0.5013996
vt 0.317901 1
vt 0.3754103 1
vt 0.3410797 0.5147094
vt 0.3410797 1
vt 0.01105372 1
vt 0.01105372 0.5013996
vt 0.317901 1
vt 0.317901 0.5013996
vt 0.3410797 1
vt 0.317901 1
vt 0.3410797 0.5147094
vt 0.317901 0.5013996
vt 0.3253857 0.6008753
vt 0.3253857 0.6065945
vt 0.331105 0.6008753
vt 0.331105 0.6065945
vt 0.3253857 0.6008753
vt 0.3253857 0.6065945
vt 0.331105 0.6008753
vt 0.331105 0.6065945
vt 0.3754103 1
vt 0.3410797 1
vt 0.3410797 0.5147094
vt 0.3410797 0.5147094
vt 0.317901 0.5013996
vt 0.3410797 1
vt 0.317901 1
vt 0.01105372 0.5013996
vt 0.01105372 1
vt 0.317901 0.5013996
vt 0.317901 1
vt 0.3754103 1
vt 0.3410797 0.5147094
vt 0.3410797 1
vt 0.01105372 1
vt 0.01105372 0.5013996
vt 0.317901 1
vt 0.317901 0.5013996
vt 0.3410797 1
vt 0.317901 1
vt 0.3410797 0.5147094
vt 0.317901 0.5013996
vt 0.3253857 0.6008753
vt 0.3253857 0.6065945
vt 0.331105 0.6008753
vt 0.331105 0.6065945
vt 0.3253857 0.6008753
vt 0.3253857 0.6065945
vt 0.331105 0.6008753
vt 0.331105 0.6065945
vt 0.3754103 1
vt 0.3410797 1
vt 0.3410797 0.5147094
vt 0.3410797 0.5147094
vt 0.317901 0.5013996
vt 0.3410797 1
vt 0.317901 1
vt 0.01105372 0.5013996
vt 0.01105372 1
vt 0.317901 0.5013996
vt 0.317901 1
vt 0.3754103 1
vt 0.3410797 0.5147094
vt 0.3410797 1
vt 0.01105372 1
vt 0.01105372 0.5013996
vt 0.317901 1
vt 0.317901 0.5013996
vt 0.3410797 1
vt 0.317901 1
vt 0.3410797 0.5147094
vt 0.317901 0.5013996
vt 0.3253857 0.6008753
vt 0.3253857 0.6065945
vt 0.331105 0.6008753
vt 0.331105 0.6065945
vt 0.3253857 0.6008753
vt 0.3253857 0.6065945
vt 0.331105 0.6008753
vt 0.331105 0.6065945
vt 0.3754103 1
vt 0.3410797 1
vt 0.3410797 0.5147094
vt 0.3410797 0.5147094
vt 0.317901 0.5013996
vt 0.3410797 1
vt 0.317901 1
vt 0.01105372 0.5013996
vt 0.01105372 1
vt 0.317901 0.5013996
vt 0.317901 1
vt 0.3754103 1
vt 0.3410797 0.5147094
vt 0.3410797 1
vt 0.01105372 1
vt 0.01105372 0.5013996
vt 0.317901 1
vt 0.317901 0.5013996
vt 0.3410797 1
vt 0.317901 1
vt 0.3410797 0.5147094
vt 0.317901 0.5013996
vt 0.3253857 0.6008753
vt 0.3253857 0.6065945
vt 0.331105 0.6008753
vt 0.331105 0.6065945
vt 0.3253857 0.6008753
vt 0.3253857 0.6065945
vt 0.331105 0.6008753
vt 0.331105 0.6065945
vt 0.3754103 1
vt 0.3410797 1
vt 0.3410797 0.5147094
vt 0.3410797 0.5147094
vt 0.317901 0.5013996
vt 0.3410797 1
vt 0.317901 1
vt 0.01105372 0.5013996
vt 0.01105372 1
vt 0.317901 0.5013996
vt 0.317901 1
vt 0.3754103 1
vt 0.3410797 0.5147094
vt 0.3410797 1
vt 0.01105372 1
vt 0.01105372 0.5013996
vt 0.317901 1
vt 0.317901 0.5013996
vt 0.3410797 1
vt 0.317901 1
vt 0.3410797 0.5147094
vt 0.317901 0.5013996
vt 0.3253857 0.6008753
vt 0.3253857 0.6065945
vt 0.331105 0.6008753
vt 0.331105 0.6065945
vt 0.3253857 0.6008753
vt 0.3253857 0.6065945
vt 0.331105 0.6008753
vt 0.331105 0.6065945
vt 0.3754103 1
vt 0.3410797 1
vt 0.3410797 0.5147094
vt 0.3410797 0.5147094
vt 0.317901 0.5013996
vt 0.3410797 1
vt 0.317901 1
vt 0.01105372 0.5013996
vt 0.01105372 1
vt 0.317901 0.5013996
vt 0.317901 1
vt 0.3754103 1
vt 0.3410797 0.5147094
vt 0.3410797 1
vt 0.01105372 1
vt 0.01105372 0.5013996
vt 0.317901 1
vt 0.317901 0.5013996
vt 0.3410797 1
vt 0.317901 1
vt 0.3410797 0.5147094
vt 0.317901 0.5013996
vt 0.3253857 0.6008753
vt 0.3253857 0.6065945
vt 0.331105 0.6008753
vt 0.331105 0.6065945
vt 0.3253857 0.6008753
vt 0.3253857 0.6065945
vt 0.331105 0.6008753
vt 0.331105 0.6065945
vt 0.3754103 1
vt 0.3410797 1
vt 0.3410797 0.5147094
vt 0.3410797 0.5147094
vt 0.317901 0.5013996
vt 0.3410797 1
vt 0.317901 1
vt 0.01105372 0.5013996
vt 0.01105372 1
vt 0.317901 0.5013996
vt 0.317901 1
vt 0.3754103 1
vt 0.3410797 0.5147094
vt 0.3410797 1
vt 0.01105372 1
vt 0.01105372 0.5013996
vt 0.317901 1
vt 0.317901 0.5013996
vt 0.3410797 1
vt 0.317901 1
vt 0.3410797 0.5147094
vt 0.317901 0.5013996
vt 0.3253857 0.6008753
vt 0.3253857 0.6065945
vt 0.331105 0.6008753
vt 0.331105 0.6065945
vt 0.3253857 0.6008753
vt 0.3253857 0.6065945
vt 0.331105 0.6008753
vt 0.331105 0.6065945
vt 0.3754103 1
vt 0.3410797 1
vt 0.3410797 0.5147094
vn 0 1 0
vn 0 1 0
vn 0 1 0
vn 0 1 0
vn 0 1 0
vn 0 1 0
vn 0 1 0
vn 0 1 0
vn 0 1 0
vn 0 1 0
vn 0 1 0
vn 0 1 0
vn 0 1 0
vn 0 1 0
vn 0 1 0
vn 0 1 0
vn 0 1 0
vn 0 1 0
vn 0 1 0
vn 0 1 0
vn 0 1 0
vn 0 1 0
vn 0 1 0
vn 0 0 1
vn 0 0 1
vn 0 0 1
vn 0 0 1
vn 0 1 0
vn 0 1 0
vn 0 1 0
vn 0 1 0
vn 0 1 0
vn 0 1 0
vn 0 1 0
vn 0 1 0
vn 0 1 0
vn 0 1 0
vn 0 1 0
vn 0 0 1
vn 0 0 1
vn 0 0 1
vn 0 0 1
vn 0 0 -1
vn 0 0 -1
vn 0 0 -1
vn 0 0 -1
vn 0 0 -1
vn 0 0 -1
vn 0 0 -1
vn 0 0 -1
vn 0 1 0
vn 0 1 0
vn 0 1 0
vn 0 0 1
vn 0 0 1
vn 0 0 1
vn 0 0 1
vn 0 1 0
vn 0 1 0
vn 0 1 0
vn 0 1 0
vn 0 1 0
vn 0 1 0
vn 0 1 0
vn 0 1 0
vn 0 1 0
vn 0 1 0
vn 0 1 0
vn 0 0 1
vn 0 0 1
vn 0 0 1
vn 0 0 1
vn 0 0 -1
vn 0 0 -1
vn 0 0 -1
vn 0 0 -1
vn 0 0 -1
vn 0 0 -1
vn 0 0 -1
vn 0 0 -1
vn 0 1 0
vn 0 1 0
vn 0 1 0
vn 0 0 1
vn 0 0 1
vn 0 0 1
vn 0 0 1
vn 0 1 0
vn 0 1 0
vn 0 1 0
vn 0 1 0
vn 0 1 0
vn 0 1 0
vn 0 1 0
vn 0 1 0
vn 0 1 0
vn 0 1 0
vn 0 1 0
vn 0 0 1
vn 0 0 1
vn 0 0 1
vn 0 0 1
vn 0 0 -1
vn 0 0 -1
vn 0 0 -1
vn 0 0 -1
vn 0 0 -1
vn 0 0 -1
vn 0 0 -1
vn 0 0 -1
vn 0 1 0
vn 0 1 0
vn 0 1 0
vn 0 0 1
vn 0 0 1
vn 0 0 1
vn 0 0 1
vn 0 1 0
vn 0 1 0
vn 0 1 0
vn 0 1 0
vn 0 1 0
vn 0 1 0
vn 0 1 0
vn 0 1 0
vn 0 1 0
vn 0 1 0
vn 0 1 0
vn 0 0 1
vn 0 0 1
vn 0 0 1
vn 0 0 1
vn 0 0 -1
vn 0 0 -1
vn 0 0 -1
vn 0 0 -1
vn 0 0 -1
vn 0 0 -1
vn 0 0 -1
vn 0 0 -1
vn 0 1 0
vn 0 1 0
vn 0 1 0
vn 0 0 -1
vn 0 0 -1
vn 0 0 -1
vn 0 0 -1
vn 0 1 0
vn 0 1 0
vn 0 1 0
vn 0 1 0
vn 0 1 0
vn 0 1 0
vn 0 1 0
vn 0 1 0
vn 0 1 0
vn 0 1 0
vn 0 1 0
vn 0 0 -1
vn 0 0 -1
vn 0 0 -1
vn 0 0 -1
vn 0 0 1
vn 0 0 1
vn 0 0 1
vn 0 0 1
vn 0 0 1
vn 0 0 1
vn 0 0 1
vn 0 0 1
vn 0 1 0
vn 0 1 0
vn 0 1 0
vn 0 0 -1
vn 0 0 -1
vn 0 0 -1
vn 0 0 -1
vn 0 1 0
vn 0 1 0
vn 0 1 0
vn 0 1 0
vn 0 1 0
vn 0 1 0
vn 0 1 0
vn 0 1 0
vn 0 1 0
vn 0 1 0
vn 0 1 0
vn 0 0 -1
vn 0 0 -1
vn 0 0 -1
vn 0 0 -1
vn 0 0 1
vn 0 0 1
vn 0 0 1
vn 0 0 1
vn 0 0 1
vn 0 0 1
vn 0 0 1
vn 0 0 1
vn 0 1 0
vn 0 1 0
vn 0 1 0
vn 0 0 -1
vn 0 0 -1
vn 0 0 -1
vn 0 0 -1
vn 0 1 0
vn 0 1 0
vn 0 1 0
vn 0 1 0
vn 0 1 0
vn 0 1 0
vn 0 1 0
vn 0 1 0
vn 0 1 0
vn 0 1 0
vn 0 1 0
vn 0 0 -1
vn 0 0 -1
vn 0 0 -1
vn 0 0 -1
vn 0 0 1
vn 0 0 1
vn 0 0 1
vn 0 0 1
vn 0 0 1
vn 0 0 1
vn 0 0 1
vn 0 0 1
vn 0 1 0
vn 0 1 0
vn 0 1 0
vn 0 0 -1
vn 0 0 -1
vn 0 0 -1
vn 0 0 -1
vn 0 1 0
vn 0 1 0
vn 0 1 0
vn 0 1 0
vn 0 1 0
vn 0 1 0
vn 0 1 0
vn 0 1 0
vn 0 1 0
vn 0 1 0
vn 0 1 0
vn 0 0 -1
vn 0 0 -1
vn 0 0 -1
vn 0 0 -1
vn 0 0 1
vn 0 0 1
vn 0 0 1
vn 0 0 1
vn 0 0 1
vn 0 0 1
vn 0 0 1
vn 0 0 1
vn 0 1 0
vn 0 1 0
vn 0 1 0
f 3/3/3 2/2/2 1/1/1
f 3/3/3 4/4/4 2/2/2
f 5/5/5 2/2/2 4/4/4
f 6/6/6 4/4/4 3/3/3
f 6/6/6 7/7/7 4/4/4
f 8/8/8 4/4/4 7/7/7
f 1/1/1 2/2/2 9/9/9
f 1/1/1 9/9/9 10/10/10
f 10/10/10 9/9/9 11/11/11
f 10/10/10 11/11/11 12/12/12
f 13/13/13 11/11/11 9/9/9
f 14/14/14 9/9/9 2/2/2
f 10/10/10 15/15/15 1/1/1
f 10/10/10 16/16/16 15/15/15
f 12/12/12 16/16/16 10/10/10
f 17/17/17 15/15/15 16/16/16
f 12/12/12 18/18/18 16/16/16
f 19/19/19 16/16/16 18/18/18
f 3/3/3 20/20/20 6/6/6
f 3/3/3 21/21/21 20/20/20
f 22/22/22 20/20/20 21/21/21
f 1/1/1 21/21/21 3/3/3
f 1/1/1 15/15/15 21/21/21
f 23/23/23 21/21/21 15/15/15
f 26/26/26 25/25/25 24/24/24
f 26/26/26 27/27/27 25/25/25
f 30/30/30 29/29/29 28/28/28
f 30/30/30 31/31/31 29/29/29
f 34/34/34 33/33/33 32/32/32
f 37/37/37 36/36/36 35/35/35
f 37/37/37 38/38/38 36/36/36
f 41/41/41 40/40/40 39/39/39
f 41/41/41 42/42/42 40/40/40
f 45/45/45 44/44/44 43/43/43
f 45/45/45 46/46/46 44/44/44
f 49/49/49 48/48/48 47/47/47
f 49/49/49 50/50/50 48/48/48
f 53/53/53 52/52/52 51/51/51
f 56/56/56 55/55/55 54/54/54
f 56/56/56 57/57/57 55/55/55
f 60/60/60 59/59/59 58/58/58
f 60/60/60 61/61/61 59/59/59
f 64/64/64 63/63/63 62/62/62
f 67/67/67 66/66/66 65/65/65
f 67/67/67 68/68/68 66/66/66
f 71/71/71 70/70/70 69/69/69
f 71/71/71 72/72/72 70/70/70
f 75/75/75 74/74/74 73/73/73
f 75/75/75 76/76/76 74/74/74
f 79/79/79 78/78/78 77/77/77
f 79/79/79 80/80/80 78/78/78
f 83/83/83 82/82/82 81/81/81
f 86/86/86 85/85/85 84/84/84
f 86/86/86 87/87/87 85/85/85
f 90/90/90 89/89/89 88/88/88
f 90/90/90 91/91/91 89/89/89
f 94/94/94 93/93/93 92/92/92
f 97/97/97 96/96/96 95/95/95
f 97/97/97 98/98/98 96/96/96
f 101/101/101 100/100/100 99/99/99
f 101/101/101 102/102/102 100/100/100
f 105/105/105 104/104/104 103/103/103
f 105/105/105 106/106/106 104/104/104
f 109/109/109 108/108/108 107/107/107
f 109/109/109 110/110/110 108/108/108
f 113/113/113 112/112/112 111/111/111
f 116/116/116 115/115/115 114/114/114
f 116/116/116 117/117/117 115/115/115
f 120/120/120 119/119/119 118/118/118
f 120/120/120 121/121/121 119/119/119
f 124/124/124 123/123/123 122/122/122
f 127/127/127 126/126/126 125/125/125
f 127/127/127 128/128/128 126/126/126
f 131/131/131 130/130/130 129/129/129
f 131/131/131 132/132/132 130/130/130
f 135/135/135 134/134/134 133/133/133
f 135/135/135 136/136/136 134/134/134
f 139/139/139 138/138/138 137/137/137
f 139/139/139 140/140/140 138/138/138
f 143/143/143 142/142/142 141/141/141
f 146/146/146 145/145/145 144/144/144
f 146/146/146 147/147/147 145/145/145
f 150/150/150 149/149/149 148/148/148
f 150/150/150 151/151/151 149/149/149
f 154/154/154 153/153/153 152/152/152
f 157/157/157 156/156/156 155/155/155
f 157/157/157 158/158/158 156/156/156
f 161/161/161 160/160/160 159/159/159
f 161/161/161 162/162/162 160/160/160
f 165/165/165 164/164/164 163/163/163
f 165/165/165 166/166/166 164/164/164
f 169/169/169 168/168/168 167/167/167
f 169/169/169 170/170/170 168/168/168
f 173/173/173 172/172/172 171/171/171
f 176/176/176 175/175/175 174/174/174
f 176/176/176 177/177/177 175/175/175
f 180/180/180 179/179/179 178/178/178
f 180/180/180 181/181/181 179/179/179
f 184/184/184 183/183/183 182/182/182
f 187/187/187 186/186/186 185/185/185
f 187/187/187 188/188/188 186/186/186
f 191/191/191 190/190/190 189/189/189
f 191/191/191 192/192/192 190/190/190
f 195/195/195 194/194/194 193/193/193
f 195/195/195 196/196/196 194/194/194
f 199/199/199 198/198/198 197/197/197
f 199/199/199 200/200/200 198/198/198
f 203/203/203 202/202/202 201/201/201
f 206/206/206 205/205/205 204/204/204
f 206/206/206 207/207/207 205/205/205
f 210/210/210 209/209/209 208/208/208
f 210/210/210 211/211/211 209/209/209
f 214/214/214 213/213/213 212/212/212
f 217/217/217 216/216/216 215/215/215
f 217/217/217 218/218/218 216/216/216
f 221/221/221 220/220/220 219/219/219
f 221/221/221 222/222/222 220/220/220
f 225/225/225 224/224/224 223/223/223
f 225/225/225 226/226/226 224/224/224
f 229/229/229 228/228/228 227/227/227
f 229/229/229 230/230/230 228/228/228
f 233/233/233 232/232/232 231/231/231
f 236/236/236 235/235/235 234/234/234
f 236/236/236 237/237/237 235/235/235
f 240/240/240 239/239/239 238/238/238
f 240/240/240 241/241/241 239/239/239
f 244/244/244 243/243/243 242/242/242
f 247/247/247 246/246/246 245/245/245
f 247/247/247 248/248/248 246/246/246
f 251/251/251 250/250/250 249/249/249
f 251/251/251 252/252/252 250/250/250
f 255/255/255 254/254/254 253/253/253
f 255/255/255 256/256/256 254/254/254
f 259/259/259 258/258/258 257/257/257
f 259/259/259 260/260/260 258/258/258
f 263/263/263 262/262/262 261/261/261
