g road_straight_mesh
v 0 -0.1948576 -10
v 1.481499 -0.1948576 -9.555047
v 0 -0.1948576 -3.165331
v 2.500038 -0.1948576 -3.165331
v 1.481499 -0.1948576 -10
v 3.518425 -0.1948576 -10
v 3.518425 -0.1948576 -9.555047
v 1.481499 -0.1948576 -10
v 1.481499 -0.1948576 -9.555047
v 2.500038 -0.1948576 -2.869153
v 2.500038 0 -2.869153
v 0 -0.1948576 -2.869153
v 0 0 -2.869153
v 2.500038 0 0
v 0 0 0
v 2.500038 0 -2.869153
v 0 0 -2.869153
v 0 -0.1948576 -2.869153
v 0 -0.1948576 -3.165331
v 2.500038 -0.1948576 -2.869153
v 2.500038 -0.1948576 -3.165331
v 4.999924 0 0
v 2.500038 0 0
v 4.999924 0 -2.869153
v 2.500038 0 -2.869153
v 4.999924 -0.1948576 -2.869153
v 4.999924 0 -2.869153
v 2.500038 -0.1948576 -2.869153
v 2.500038 0 -2.869153
v 2.500038 -0.1948576 -3.165331
v 4.999924 -0.1948576 -3.165331
v 2.500038 -0.1948576 -2.869153
v 4.999924 -0.1948576 -2.869153
v 4.999924 -0.1948576 -3.165331
v 2.500038 -0.1948576 -3.165331
v 3.518425 -0.1948576 -9.555047
v 4.999924 -0.1948576 -10
v 3.518425 -0.1948576 -10
v 2.500038 0 0
v 2.500038 -0.1948576 0
v 0 0 0
v 0 -0.1948576 0
v 4.999924 0 0
v 4.999924 -0.1948576 0
v 2.500038 0 0
v 2.500038 -0.1948576 0
v 1.481499 -0.1948576 -9.555047
v 3.518425 -0.1948576 -9.555047
v 2.500038 -0.1948576 -3.165331
vt 0.6608589 0.8182574
vt 0.6579797 0.7433971
vt 0.6416639 0.8182574
vt 0.6416639 0.6934903
vt 0.6608589 0.7433971
vt 0.7107657 0.265443
vt 0.6579797 0.265443
vt 0.7107657 0.5072993
vt 0.6579797 0.5072993
vt 0.3412631 0.5149773
vt 0.3182291 0.5015408
vt 0.3412631 0.9919717
vt 0.3182291 0.9919717
vt 0.01015025 0.5015408
vt 0.01015025 0.9919717
vt 0.3182291 0.5015408
vt 0.3182291 0.9919717
vt 0.3412631 0.9919717
vt 0.375814 0.9919717
vt 0.3412631 0.5149773
vt 0.375814 0.5149773
vt 0.01015025 0.9919717
vt 0.01015025 0.5015408
vt 0.3182291 0.9919717
vt 0.3182291 0.5015408
vt 0.3412631 0.9919717
vt 0.3182291 0.9919717
vt 0.3412631 0.5149773
vt 0.3182291 0.5015408
vt 0.375814 0.5149773
vt 0.375814 0.9919717
vt 0.3412631 0.5149773
vt 0.3412631 0.9919717
vt 0.6416639 0.8182574
vt 0.6416639 0.6934903
vt 0.6579797 0.7433971
vt 0.6608589 0.8182574
vt 0.6608589 0.7433971
vt 0.3239876 0.6368652
vt 0.3239876 0.6618186
vt 0.3278266 0.6368652
vt 0.3278266 0.6618186
vt 0.3239876 0.6368652
vt 0.3239876 0.6618186
vt 0.3278266 0.6368652
vt 0.3278266 0.6618186
vt 0.6579797 0.7433971
vt 0.6579797 0.7433971
vt 0.6416639 0.6934903
vn 0 1 0
vn 0 1 0
vn 0 1 0
vn 0 1 0
vn 0 1 0
vn 0 1 0
vn 0 1 0
vn 0 1 0
vn 0 1 0
vn 0 0 -1
vn 0 0 -1
vn 0 0 -1
vn 0 0 -1
vn 0 1 0
vn 0 1 0
vn 0 1 0
vn 0 1 0
vn 0 1 0
vn 0 1 0
vn 0 1 0
vn 0 1 0
vn 0 1 0
vn 0 1 0
vn 0 1 0
vn 0 1 0
vn 0 0 -1
vn 0 0 -1
vn 0 0 -1
vn 0 0 -1
vn 0 1 0
vn 0 1 0
vn 0 1 0
vn 0 1 0
vn 0 1 0
vn 0 1 0
vn 0 1 0
vn 0 1 0
vn 0 1 0
vn 0 0 1
vn 0 0 1
vn 0 0 1
vn 0 0 1
vn 0 0 1
vn 0 0 1
vn 0 0 1
vn 0 0 1
vn 0 1 0
vn 0 1 0
vn 0 1 0
f 3/3/3 2/2/2 1/1/1
f 3/3/3 4/4/4 2/2/2
f 2/2/2 5/5/5 1/1/1
f 8/8/8 7/7/7 6/6/6
f 8/8/8 9/9/9 7/7/7
f 12/12/12 11/11/11 10/10/10
f 12/12/12 13/13/13 11/11/11
f 16/16/16 15/15/15 14/14/14
f 16/16/16 17/17/17 15/15/15
f 20/20/20 19/19/19 18/18/18
f 20/20/20 21/21/21 19/19/19
f 24/24/24 23/23/23 22/22/22
f 24/24/24 25/25/25 23/23/23
f 28/28/28 27/27/27 26/26/26
f 28/28/28 29/29/29 27/27/27
f 32/32/32 31/31/31 30/30/30
f 32/32/32 33/33/33 31/31/31
f 36/36/36 35/35/35 34/34/34
f 36/36/36 34/34/34 37/37/37
f 38/38/38 36/36/36 37/37/37
f 41/41/41 40/40/40 39/39/39
f 41/41/41 42/42/42 40/40/40
f 45/45/45 44/44/44 43/43/43
f 45/45/45 46/46/46 44/44/44
f 49/49/49 48/48/48 47/47/47
