g road_Dirt_Bend_2
v -4.997275 0.004515961 10
v -10 0.004515961 10
v -7.070117 0.004515961 8.953613
v -7.12991 -0.1947958 8.724405
v -7.070117 0.004515961 8.953613
v -8.445369 0.004515961 8.405506
v -8.236091 -0.1947958 8.265987
v -7.947089 -0.1947958 7.927158
v -7.119945 -0.1947958 8.365644
v -7.12991 -0.1947958 8.724405
v -8.236091 -0.1947958 8.265987
v -4.997275 0.004515961 10
v -5.814453 0.004515961 8.883854
v -4.997275 0.004515961 8.744336
v -7.070117 0.004515961 8.953613
v -5.884213 -0.1947958 8.834026
v -4.997275 -0.1947958 8.744336
v -4.997275 0.004515961 8.744336
v -5.884213 -0.1947958 8.834026
v -5.814453 0.004515961 8.883854
v -7.12991 -0.1947958 8.724405
v -7.119945 -0.1947958 8.365644
v -6.023731 -0.1947958 8.535059
v -5.884213 -0.1947958 8.834026
v -4.997275 -0.1947958 8.445369
v -4.997275 -0.1947958 8.744336
v -6.023731 -0.1947958 8.535059
v -7.119945 -0.1947958 8.365644
v -8.485231 -0.1947958 6.930599
v -8.495196 -0.1947958 6.043662
v -4.997275 -0.1947958 4.997275
v -8.445369 -0.1947958 4.997275
v -4.997275 -0.1947958 8.445369
v -7.12991 -0.1947958 8.724405
v -5.884213 -0.1947958 8.834026
v -5.814453 0.004515961 8.883854
v -7.12991 -0.1947958 8.724405
v -7.070117 0.004515961 8.953613
v -8.445369 0.004515961 8.405506
v -10 0.004515961 10
v -8.236091 -0.1947958 8.265987
v -7.947089 -0.1947958 7.927158
v -8.485231 -0.1947958 6.930599
v -7.119945 -0.1947958 8.365644
v -10 0.004515961 4.997275
v -8.923717 0.004515961 6.013765
v -9.0732 0.004515961 7.229567
v -8.744336 0.004515961 4.997275
v -8.834026 -0.1947958 7.080083
v -9.0732 0.004515961 7.229567
v -8.923717 0.004515961 6.013765
v -8.834026 -0.1947958 7.080083
v -8.923717 0.004515961 6.013765
v -8.82406 -0.1947958 6.123387
v -8.495196 -0.1947958 6.043662
v -8.485231 -0.1947958 6.930599
v -8.834026 -0.1947958 7.080083
v -8.82406 -0.1947958 6.123387
v -8.445369 -0.1947958 4.997275
v -8.744336 -0.1947958 4.997275
v -9.0732 0.004515961 7.229567
v -8.445369 0.004515961 8.405506
v -10 0.004515961 10
v -8.236091 -0.1947958 8.265987
v -10 0.004515961 10
v -8.445369 0.004515961 8.405506
v -8.834026 -0.1947958 7.080083
v -8.485231 -0.1947958 6.930599
v -7.947089 -0.1947958 7.927158
v -8.236091 -0.1947958 8.265987
v -8.834026 -0.1947958 7.080083
v -8.236091 -0.1947958 8.265987
v -8.445369 0.004515961 8.405506
v -9.0732 0.004515961 7.229567
v -8.923717 0.004515961 6.013765
v -8.744336 0.004515961 4.997275
v -8.744336 -0.1947958 4.997275
v -8.744336 -0.1947958 4.997275
v -8.82406 -0.1947958 6.123387
v -10 0.004515961 4.997275
v -9.0732 0.004515961 7.229567
v -10 0.004515961 10
v -10 0.004515961 10
v -8.445369 0.004515961 8.405506
v -7.070117 0.004515961 8.953613
v -0.004515961 0.004515961 0.004515961
v -0.413105 0.004515961 1.070834
v -0.7718661 0.004515961 0.8914532
v -0.004515961 0.004515961 1.26018
v -0.9014189 -0.1947958 1.021006
v -0.7718661 0.004515961 0.8914532
v -0.413105 0.004515961 1.070834
v -0.5027953 -0.1947958 1.210352
v -0.6124167 -0.1947958 1.579079
v -1.160524 -0.1947958 1.310008
v -0.9014189 -0.1947958 1.021006
v -0.5027953 -0.1947958 1.210352
v -0.004515961 -0.1947958 1.559148
v -0.004515961 -0.1947958 1.26018
v -0.6124167 -0.1947958 1.579079
v -0.004515961 -0.1947958 1.559148
v -0.004515961 -0.1947958 4.997275
v -4.997275 -0.1947958 4.997275
v -1.160524 -0.1947958 1.310008
v -0.004515961 0.004515961 0.004515961
v -1.120662 0.004515961 0.4828642
v -1.26018 0.004515961 0.004515961
v -0.7718661 0.004515961 0.8914532
v -1.160524 -0.1947958 0.5526232
v -1.26018 -0.1947958 0.004515961
v -1.26018 0.004515961 0.004515961
v -1.160524 -0.1947958 0.5526232
v -1.26018 0.004515961 0.004515961
v -1.120662 0.004515961 0.4828642
v -0.9014189 -0.1947958 1.021006
v -1.160524 -0.1947958 1.310008
v -1.459492 -0.1947958 0.6821759
v -1.160524 -0.1947958 0.5526232
v -1.559148 -0.1947958 0.004515961
v -1.26018 -0.1947958 0.004515961
v -1.459492 -0.1947958 0.6821759
v -1.160524 -0.1947958 1.310008
v -4.997275 -0.1947958 4.997275
v -4.997275 -0.1947958 0.004515961
v -1.559148 -0.1947958 0.004515961
v -0.9014189 -0.1947958 1.021006
v -1.160524 -0.1947958 0.5526232
v -1.120662 0.004515961 0.4828642
v -0.7718661 0.004515961 0.8914532
v -0.413105 0.004515961 1.070834
v -0.004515961 0.004515961 1.26018
v -0.004515961 -0.1947958 1.26018
v -0.413105 0.004515961 1.070834
v -0.004515961 -0.1947958 1.26018
v -0.5027953 -0.1947958 1.210352
v -4.997275 -0.1947958 8.445369
v -4.997275 -0.1947958 4.997275
v -2.495913 -0.1947958 4.997275
v -2.495913 -0.1947958 8.295884
v -2.495913 -0.1947958 8.614783
v -2.495913 0.004515961 8.614783
v -4.997275 0.004515961 8.744336
v -4.997275 -0.1947958 8.744336
v -2.495913 0.004515961 10
v -4.997275 0.004515961 10
v -4.997275 0.004515961 8.744336
v -2.495913 0.004515961 8.614783
v -4.997275 -0.1947958 8.744336
v -4.997275 -0.1947958 8.445369
v -2.495913 -0.1947958 8.295884
v -2.495913 -0.1947958 8.614783
v -0.004515961 0.004515961 10
v -2.495913 0.004515961 10
v -2.495913 0.004515961 8.614783
v -0.004515961 0.004515961 8.744336
v -0.004515961 -0.1947958 8.744336
v -0.004515961 0.004515961 8.744336
v -2.495913 0.004515961 8.614783
v -2.495913 -0.1947958 8.614783
v -2.495913 -0.1947958 8.295884
v -0.004515961 -0.1947958 8.445369
v -0.004515961 -0.1947958 8.744336
v -2.495913 -0.1947958 8.614783
v -2.495913 -0.1947958 4.997275
v -0.004515961 -0.1947958 4.997275
v -0.004515961 -0.1947958 8.445369
v -2.495913 -0.1947958 8.295884
v -8.445369 -0.1947958 0.004515961
v -4.997275 -0.1947958 0.004515961
v -4.997275 -0.1947958 2.495913
v -8.295884 -0.1947958 2.495913
v -8.614783 -0.1947958 2.495913
v -8.614783 0.004515961 2.495913
v -8.744336 0.004515961 0.004515961
v -8.744336 -0.1947958 0.004515961
v -10 0.004515961 2.495913
v -10 0.004515961 0.004515961
v -8.744336 0.004515961 0.004515961
v -8.614783 0.004515961 2.495913
v -8.744336 -0.1947958 0.004515961
v -8.445369 -0.1947958 0.004515961
v -8.295884 -0.1947958 2.495913
v -8.614783 -0.1947958 2.495913
v -10 0.004515961 4.997275
v -10 0.004515961 2.495913
v -8.614783 0.004515961 2.495913
v -8.744336 0.004515961 4.997275
v -8.744336 -0.1947958 4.997275
v -8.744336 0.004515961 4.997275
v -8.614783 0.004515961 2.495913
v -8.614783 -0.1947958 2.495913
v -8.295884 -0.1947958 2.495913
v -8.445369 -0.1947958 4.997275
v -8.744336 -0.1947958 4.997275
v -8.614783 -0.1947958 2.495913
v -4.997275 -0.1947958 2.495913
v -4.997275 -0.1947958 4.997275
v -8.445369 -0.1947958 4.997275
v -8.295884 -0.1947958 2.495913
vt 0.01398023 0.4237872
vt 0.01398023 0.5271964
vt 0.316548 0.4237872
vt 0.3395278 0.4237872
vt 0.316548 0.4237872
vt 0.316548 0.5425163
vt 0.3395278 0.5425163
vt 0.3739975 0.5463463
vt 0.3739975 0.4237872
vt 0.3395278 0.4237872
vt 0.3395278 0.5425163
vt 0.01398023 0.4237872
vt 0.316548 0.5425163
vt 0.316548 0.6612454
vt 0.316548 0.4237872
vt 0.3395278 0.5425163
vt 0.3395278 0.6612454
vt 0.316548 0.6612454
vt 0.3395278 0.5425163
vt 0.316548 0.5425163
vt 0.3395278 0.4237872
vt 0.3739975 0.4237872
vt 0.3739975 0.5463463
vt 0.3395278 0.5425163
vt 0.3739975 0.6727353
vt 0.3395278 0.6612454
vt 0.3854875 0.5118765
vt 0.3854875 0.4199572
vt 0.7646546 0.4199572
vt 0.7723146 0.450597
vt 0.979133 0.6037959
vt 0.979133 0.4774068
vt 0.3854875 0.6037959
vt 0.3395278 0.4237872
vt 0.3395278 0.5425163
vt 0.316548 0.5425163
vt 0.3395278 0.4237872
vt 0.316548 0.4237872
vt 0.316548 0.5425163
vt 0.01398023 0.5271964
vt 0.3395278 0.5425163
vt 0.580816 0.4812368
vt 0.7646546 0.4199572
vt 0.3854875 0.4199572
vt 0.01398023 0.4237872
vt 0.316548 0.5425163
vt 0.316548 0.4237872
vt 0.316548 0.6612454
vt 0.3395278 0.4237872
vt 0.316548 0.4237872
vt 0.316548 0.5425163
vt 0.3395278 0.4237872
vt 0.316548 0.5425163
vt 0.3395278 0.5425163
vt 0.3739975 0.5463463
vt 0.3739975 0.4237872
vt 0.3395278 0.4237872
vt 0.3395278 0.5425163
vt 0.3739975 0.6727353
vt 0.3395278 0.6612454
vt 0.316548 0.4237872
vt 0.316548 0.5425163
vt 0.01398023 0.5271964
vt 0.3395278 0.5425163
vt 0.01398023 0.5271964
vt 0.316548 0.5425163
vt 0.3395278 0.4237872
vt 0.3739975 0.4237872
vt 0.3739975 0.5463463
vt 0.3395278 0.5425163
vt 0.3395278 0.4237872
vt 0.3395278 0.5425163
vt 0.316548 0.5425163
vt 0.316548 0.4237872
vt 0.316548 0.5425163
vt 0.316548 0.6612454
vt 0.3395278 0.6612454
vt 0.3395278 0.6612454
vt 0.3395278 0.5425163
vt 0.01398023 0.4237872
vt 0.316548 0.4237872
vt 0.01398023 0.5271964
vt 0.01398023 0.5271964
vt 0.316548 0.5425163
vt 0.316548 0.4237872
vt 0.01398023 0.4237872
vt 0.316548 0.5463463
vt 0.316548 0.4237872
vt 0.316548 0.6650754
vt 0.3395278 0.4237872
vt 0.316548 0.4237872
vt 0.316548 0.5463463
vt 0.3395278 0.5463463
vt 0.3739975 0.5501763
vt 0.3739975 0.4237872
vt 0.3395278 0.4237872
vt 0.3395278 0.5463463
vt 0.3739975 0.6765653
vt 0.3395278 0.6650754
vt 0.3854875 0.5118765
vt 0.3854875 0.6037959
vt 0.979133 0.6037959
vt 0.979133 0.4199572
vt 0.3854875 0.4199572
vt 0.01398023 0.4237872
vt 0.316548 0.5463463
vt 0.316548 0.6650754
vt 0.316548 0.4237872
vt 0.3395278 0.5463463
vt 0.3395278 0.6650754
vt 0.316548 0.6650754
vt 0.3395278 0.5463463
vt 0.316548 0.6650754
vt 0.316548 0.5463463
vt 0.3395278 0.4237872
vt 0.3739975 0.4237872
vt 0.3739975 0.5501763
vt 0.3395278 0.5463463
vt 0.3739975 0.6765653
vt 0.3395278 0.6650754
vt 0.3854875 0.5118765
vt 0.3854875 0.4199572
vt 0.979133 0.4199572
vt 0.979133 0.6037959
vt 0.3854875 0.6037959
vt 0.3395278 0.4237872
vt 0.3395278 0.5463463
vt 0.316548 0.5463463
vt 0.316548 0.4237872
vt 0.316548 0.5463463
vt 0.316548 0.6650754
vt 0.3395278 0.6650754
vt 0.316548 0.5463463
vt 0.3395278 0.6650754
vt 0.3395278 0.5463463
vt 0.3854875 0.986793
vt 0.979133 0.986793
vt 0.979133 0.5157065
vt 0.3854875 0.5157065
vt 0.3395278 0.5157065
vt 0.316548 0.5003866
vt 0.316548 0.986793
vt 0.3395278 0.986793
vt 0.01015025 0.5003866
vt 0.01015025 0.986793
vt 0.316548 0.986793
vt 0.316548 0.5003866
vt 0.3395278 0.986793
vt 0.3739975 0.986793
vt 0.3739975 0.5157065
vt 0.3395278 0.5157065
vt 0.01015025 0.986793
vt 0.01015025 0.5003866
vt 0.316548 0.5003866
vt 0.316548 0.986793
vt 0.3395278 0.986793
vt 0.316548 0.986793
vt 0.316548 0.5003866
vt 0.3395278 0.5157065
vt 0.3739975 0.5157065
vt 0.3739975 0.986793
vt 0.3395278 0.986793
vt 0.3395278 0.5157065
vt 0.979133 0.5157065
vt 0.979133 0.986793
vt 0.3854875 0.986793
vt 0.3854875 0.5157065
vt 0.3854875 0.986793
vt 0.979133 0.986793
vt 0.979133 0.5157065
vt 0.3854875 0.5157065
vt 0.3395278 0.5157065
vt 0.316548 0.5003866
vt 0.316548 0.986793
vt 0.3395278 0.986793
vt 0.01015025 0.5003866
vt 0.01015025 0.986793
vt 0.316548 0.986793
vt 0.316548 0.5003866
vt 0.3395278 0.986793
vt 0.3739975 0.986793
vt 0.3739975 0.5157065
vt 0.3395278 0.5157065
vt 0.01015025 0.986793
vt 0.01015025 0.5003866
vt 0.316548 0.5003866
vt 0.316548 0.986793
vt 0.3395278 0.986793
vt 0.316548 0.986793
vt 0.316548 0.5003866
vt 0.3395278 0.5157065
vt 0.3739975 0.5157065
vt 0.3739975 0.986793
vt 0.3395278 0.986793
vt 0.3395278 0.5157065
vt 0.979133 0.5157065
vt 0.979133 0.986793
vt 0.3854875 0.986793
vt 0.3854875 0.5157065
vn -0.01587105 0.999874 -0.000345267
vn -0.01587105 0.999874 -0.000345267
vn -0.01587105 0.999874 -0.000345267
vn -0.999874 0.01587105 -0.0003439156
vn -0.999874 0.01587105 -0.0003439156
vn 0.2698073 0.7141957 -0.6458549
vn 0.2698073 0.7141957 -0.6458549
vn -0.01587105 0.999874 -0.000345267
vn -0.01587105 0.999874 -0.000345267
vn -0.01587105 0.999874 -0.000345267
vn -0.01587105 0.999874 -0.000345267
vn -0.01587105 0.999874 -0.000345267
vn -0.01587105 0.999874 -0.000345267
vn -0.01587105 0.999874 -0.000345267
vn -0.01587105 0.999874 -0.000345267
vn -0.1428392 0.1428392 -0.9793845
vn -0.01587105 0.01587105 -0.9997481
vn -0.01587105 0.01587105 -0.9997481
vn -0.1428392 0.1428392 -0.9793845
vn -0.1428392 0.1428392 -0.9793845
vn -0.01587105 0.999874 -0.000345267
vn -0.01587105 0.999874 -0.000345267
vn -0.01587105 0.999874 -0.000345267
vn -0.01587105 0.999874 -0.000345267
vn -0.01587105 0.999874 -0.000345267
vn -0.01587105 0.999874 -0.000345267
vn -0.01587105 0.999874 -0.000345267
vn -0.01587105 0.999874 -0.000345267
vn -0.01587105 0.999874 -0.000345267
vn -0.01587105 0.999874 -0.000345267
vn -0.01587105 0.999874 -0.000345267
vn -0.01587105 0.999874 -0.000345267
vn -0.01587105 0.999874 -0.000345267
vn -0.01587105 0.01587105 -0.9997481
vn 0.01587099 0.5872276 -0.8092663
vn 0.01587099 0.5872276 -0.8092663
vn -0.01587105 0.01587105 -0.9997481
vn -0.01587105 0.01587105 -0.9997481
vn -0.6824538 -0.2063232 -0.7012044
vn -0.999874 0.01587105 -0.0003439156
vn -0.6824538 -0.2063232 -0.7012044
vn -0.01587105 0.999874 -0.000345267
vn -0.01587105 0.999874 -0.000345267
vn -0.01587105 0.999874 -0.000345267
vn -0.01587105 0.999874 -0.000345267
vn -0.01587105 0.999874 -0.000345267
vn -0.01587105 0.999874 -0.000345267
vn -0.01587105 0.999874 -0.000345267
vn 0.999874 0.01587105 -0.0003439156
vn 0.999874 0.01587105 -0.0003439156
vn 0.7459377 0.6507117 0.1419552
vn 0.999874 0.01587105 -0.0003439156
vn 0.7459377 0.6507117 0.1419552
vn 0.7459377 0.6507117 0.1419552
vn -0.01587105 0.999874 -0.000345267
vn -0.01587105 0.999874 -0.000345267
vn -0.01587105 0.999874 -0.000345267
vn -0.01587105 0.999874 -0.000345267
vn -0.01587105 0.999874 -0.000345267
vn -0.01587105 0.999874 -0.000345267
vn -0.01587105 0.999874 -0.000345267
vn -0.01587105 0.999874 -0.000345267
vn -0.01587105 0.999874 -0.000345267
vn 0.6824536 0.2063233 0.7012045
vn -0.01587105 0.01587105 0.9997481
vn 0.6824536 0.2063233 0.7012045
vn -0.01587105 0.999874 -0.000345267
vn -0.01587105 0.999874 -0.000345267
vn -0.01587105 0.999874 -0.000345267
vn -0.01587105 0.999874 -0.000345267
vn -0.01587105 0.01587105 0.9997481
vn 0.5237435 0.8094218 -0.2655733
vn 0.5237435 0.8094218 -0.2655733
vn -0.01587105 0.01587105 0.9997481
vn 0.9363899 0.2698073 0.2244502
vn 0.999874 0.01587105 -0.0003439156
vn 0.999874 0.01587105 -0.0003439156
vn 0.999874 0.01587105 -0.0003439156
vn 0.9363899 0.2698073 0.2244502
vn -0.01587105 0.999874 -0.000345267
vn -0.01587105 0.999874 -0.000345267
vn -0.01587105 0.999874 -0.000345267
vn -0.01587105 0.999874 -0.000345267
vn -0.01587105 0.999874 -0.000345267
vn -0.01587105 0.999874 -0.000345267
vn -0.01587105 0.999874 -0.000345267
vn -0.01587105 0.999874 -0.000345267
vn -0.01587105 0.999874 -0.000345267
vn -0.01587105 0.999874 -0.000345267
vn -0.01587105 0.01587105 0.9997481
vn -0.01587105 0.01587105 0.9997481
vn -0.3332914 0.6507117 0.6822692
vn -0.3332914 0.6507117 0.6822692
vn -0.01587105 0.999874 -0.000345267
vn -0.01587105 0.999874 -0.000345267
vn -0.01587105 0.999874 -0.000345267
vn -0.01587105 0.999874 -0.000345267
vn -0.01587105 0.999874 -0.000345267
vn -0.01587105 0.999874 -0.000345267
vn -0.01587105 0.999874 -0.000345267
vn -0.01587105 0.999874 -0.000345267
vn -0.01587105 0.999874 -0.000345267
vn -0.01587105 0.999874 -0.000345267
vn -0.01587105 0.999874 -0.000345267
vn -0.01587105 0.999874 -0.000345267
vn -0.01587105 0.999874 -0.000345267
vn -0.01587105 0.999874 -0.000345267
vn -0.01587105 0.999874 -0.000345267
vn -0.968132 0.1428392 0.2057119
vn -0.999874 0.01587105 -0.0003439156
vn -0.999874 0.01587105 -0.0003439156
vn -0.968132 0.1428392 0.2057119
vn -0.999874 0.01587105 -0.0003439156
vn -0.968132 0.1428392 0.2057119
vn -0.01587105 0.999874 -0.000345267
vn -0.01587105 0.999874 -0.000345267
vn -0.01587105 0.999874 -0.000345267
vn -0.01587105 0.999874 -0.000345267
vn -0.01587105 0.999874 -0.000345267
vn -0.01587105 0.999874 -0.000345267
vn -0.01587105 0.999874 -0.000345267
vn -0.01587105 0.999874 -0.000345267
vn -0.01587105 0.999874 -0.000345267
vn -0.01587105 0.999874 -0.000345267
vn -0.01587105 0.999874 -0.000345267
vn -0.999874 0.01587105 -0.0003439156
vn -0.6824538 0.5554856 0.4750712
vn -0.6824538 0.5554856 0.4750712
vn -0.999874 0.01587105 -0.0003439156
vn -0.2380652 0.3650334 0.9000419
vn -0.01587105 0.01587105 0.9997481
vn -0.01587105 0.01587105 0.9997481
vn -0.2380652 0.3650334 0.9000419
vn -0.01587105 0.01587105 0.9997481
vn -0.2380652 0.3650334 0.9000419
vn -0.01587105 0.999874 -0.000345267
vn -0.01587105 0.999874 -0.000345267
vn -0.01587105 0.999874 -0.000345267
vn -0.01587105 0.999874 -0.000345267
vn -0.01587105 0.01587105 -0.9997481
vn -0.01587105 0.01587105 -0.9997481
vn -0.01587105 0.01587105 -0.9997481
vn -0.01587105 0.01587105 -0.9997481
vn -0.01587105 0.999874 -0.000345267
vn -0.01587105 0.999874 -0.000345267
vn -0.01587105 0.999874 -0.000345267
vn -0.01587105 0.999874 -0.000345267
vn -0.01587105 0.999874 -0.000345267
vn -0.01587105 0.999874 -0.000345267
vn -0.01587105 0.999874 -0.000345267
vn -0.01587105 0.999874 -0.000345267
vn -0.01587105 0.999874 -0.000345267
vn -0.01587105 0.999874 -0.000345267
vn -0.01587105 0.999874 -0.000345267
vn -0.01587105 0.999874 -0.000345267
vn -0.01587105 0.01587105 -0.9997481
vn -0.01587105 0.01587105 -0.9997481
vn -0.01587105 0.01587105 -0.9997481
vn -0.01587105 0.01587105 -0.9997481
vn -0.01587105 0.999874 -0.000345267
vn -0.01587105 0.999874 -0.000345267
vn -0.01587105 0.999874 -0.000345267
vn -0.01587105 0.999874 -0.000345267
vn -0.01587105 0.999874 -0.000345267
vn -0.01587105 0.999874 -0.000345267
vn -0.01587105 0.999874 -0.000345267
vn -0.01587105 0.999874 -0.000345267
vn -0.01587105 0.999874 -0.000345267
vn -0.01587105 0.999874 -0.000345267
vn -0.01587105 0.999874 -0.000345267
vn -0.01587105 0.999874 -0.000345267
vn 0.999874 0.01587105 -0.0003439156
vn 0.999874 0.01587105 -0.0003439156
vn 0.999874 0.01587105 -0.0003439156
vn 0.999874 0.01587105 -0.0003439156
vn -0.01587105 0.999874 -0.000345267
vn -0.01587105 0.999874 -0.000345267
vn -0.01587105 0.999874 -0.000345267
vn -0.01587105 0.999874 -0.000345267
vn -0.01587105 0.999874 -0.000345267
vn -0.01587105 0.999874 -0.000345267
vn -0.01587105 0.999874 -0.000345267
vn -0.01587105 0.999874 -0.000345267
vn -0.01587105 0.999874 -0.000345267
vn -0.01587105 0.999874 -0.000345267
vn -0.01587105 0.999874 -0.000345267
vn -0.01587105 0.999874 -0.000345267
vn 0.999874 0.01587105 -0.0003439156
vn 0.999874 0.01587105 -0.0003439156
vn 0.999874 0.01587105 -0.0003439156
vn 0.999874 0.01587105 -0.0003439156
vn -0.01587105 0.999874 -0.000345267
vn -0.01587105 0.999874 -0.000345267
vn -0.01587105 0.999874 -0.000345267
vn -0.01587105 0.999874 -0.000345267
vn -0.01587105 0.999874 -0.000345267
vn -0.01587105 0.999874 -0.000345267
vn -0.01587105 0.999874 -0.000345267
vn -0.01587105 0.999874 -0.000345267
f 3/3/3 2/2/2 1/1/1
f 6/6/6 5/5/5 4/4/4
f 7/7/7 6/6/6 4/4/4
f 10/10/10 9/9/9 8/8/8
f 11/11/11 10/10/10 8/8/8
f 14/14/14 13/13/13 12/12/12
f 13/13/13 15/15/15 12/12/12
f 18/18/18 17/17/17 16/16/16
f 20/20/20 18/18/18 19/19/19
f 23/23/23 22/22/22 21/21/21
f 24/24/24 23/23/23 21/21/21
f 23/23/23 24/24/24 25/25/25
f 24/24/24 26/26/26 25/25/25
f 29/29/29 28/28/28 27/27/27
f 30/30/30 29/29/29 27/27/27
f 30/30/30 27/27/27 31/31/31
f 32/32/32 30/30/30 31/31/31
f 27/27/27 33/33/33 31/31/31
f 36/36/36 35/35/35 34/34/34
f 38/38/38 36/36/36 37/37/37
f 41/41/41 40/40/40 39/39/39
f 44/44/44 43/43/43 42/42/42
f 47/47/47 46/46/46 45/45/45
f 46/46/46 48/48/48 45/45/45
f 51/51/51 50/50/50 49/49/49
f 54/54/54 53/53/53 52/52/52
f 57/57/57 56/56/56 55/55/55
f 58/58/58 57/57/57 55/55/55
f 58/58/58 55/55/55 59/59/59
f 60/60/60 58/58/58 59/59/59
f 63/63/63 62/62/62 61/61/61
f 66/66/66 65/65/65 64/64/64
f 69/69/69 68/68/68 67/67/67
f 70/70/70 69/69/69 67/67/67
f 73/73/73 72/72/72 71/71/71
f 74/74/74 73/73/73 71/71/71
f 77/77/77 76/76/76 75/75/75
f 79/79/79 78/78/78 75/75/75
f 82/82/82 81/81/81 80/80/80
f 85/85/85 84/84/84 83/83/83
f 88/88/88 87/87/87 86/86/86
f 87/87/87 89/89/89 86/86/86
f 92/92/92 91/91/91 90/90/90
f 93/93/93 92/92/92 90/90/90
f 96/96/96 95/95/95 94/94/94
f 97/97/97 96/96/96 94/94/94
f 97/97/97 94/94/94 98/98/98
f 99/99/99 97/97/97 98/98/98
f 102/102/102 101/101/101 100/100/100
f 102/102/102 100/100/100 103/103/103
f 100/100/100 104/104/104 103/103/103
f 107/107/107 106/106/106 105/105/105
f 106/106/106 108/108/108 105/105/105
f 111/111/111 110/110/110 109/109/109
f 114/114/114 113/113/113 112/112/112
f 117/117/117 116/116/116 115/115/115
f 118/118/118 117/117/117 115/115/115
f 117/117/117 118/118/118 119/119/119
f 118/118/118 120/120/120 119/119/119
f 123/123/123 122/122/122 121/121/121
f 123/123/123 121/121/121 124/124/124
f 121/121/121 125/125/125 124/124/124
f 128/128/128 127/127/127 126/126/126
f 129/129/129 128/128/128 126/126/126
f 132/132/132 131/131/131 130/130/130
f 135/135/135 134/134/134 133/133/133
f 138/138/138 137/137/137 136/136/136
f 139/139/139 138/138/138 136/136/136
f 142/142/142 141/141/141 140/140/140
f 143/143/143 142/142/142 140/140/140
f 146/146/146 145/145/145 144/144/144
f 147/147/147 146/146/146 144/144/144
f 150/150/150 149/149/149 148/148/148
f 151/151/151 150/150/150 148/148/148
f 154/154/154 153/153/153 152/152/152
f 155/155/155 154/154/154 152/152/152
f 158/158/158 157/157/157 156/156/156
f 159/159/159 158/158/158 156/156/156
f 162/162/162 161/161/161 160/160/160
f 163/163/163 162/162/162 160/160/160
f 166/166/166 165/165/165 164/164/164
f 167/167/167 166/166/166 164/164/164
f 170/170/170 169/169/169 168/168/168
f 171/171/171 170/170/170 168/168/168
f 174/174/174 173/173/173 172/172/172
f 175/175/175 174/174/174 172/172/172
f 178/178/178 177/177/177 176/176/176
f 179/179/179 178/178/178 176/176/176
f 182/182/182 181/181/181 180/180/180
f 183/183/183 182/182/182 180/180/180
f 186/186/186 185/185/185 184/184/184
f 187/187/187 186/186/186 184/184/184
f 190/190/190 189/189/189 188/188/188
f 191/191/191 190/190/190 188/188/188
f 194/194/194 193/193/193 192/192/192
f 195/195/195 194/194/194 192/192/192
f 198/198/198 197/197/197 196/196/196
f 199/199/199 198/198/198 196/196/196
