g road_Dirt_Bend
v 7.629395E-05 -7.629395E-05 -7.629395E-05
v -4.99999 -7.629395E-05 7.629395E-05
v -2.074231 -7.629395E-05 -1.04547
v -2.130537 -0.1947808 -1.274965
v -2.074231 -7.629395E-05 -1.04547
v -3.442047 -7.629395E-05 -1.590826
v -3.240323 -0.1947808 -1.73655
v -2.944604 -0.1947808 -2.072095
v -2.115583 -0.1947808 -1.630652
v -2.130537 -0.1947808 -1.274965
v -2.944604 -0.1947808 -2.072095
v -3.240323 -0.1947808 -1.73655
v -3.832067 -0.1947808 -2.919427
v -3.240323 -0.1947808 -1.73655
v -3.488587 -0.1947808 -3.070033
v -2.944604 -0.1947808 -2.072095
v 7.629395E-05 -7.629395E-05 -7.629395E-05
v -0.8138385 -7.629395E-05 -1.119781
v 7.629395E-05 -7.629395E-05 -1.259401
v -2.074231 -7.629395E-05 -1.04547
v -0.8870816 -0.1947808 -1.165406
v 7.629395E-05 -0.1947808 -1.259401
v 7.629395E-05 -7.629395E-05 -1.259401
v -0.8870816 -0.1947808 -1.165406
v -0.8138385 -7.629395E-05 -1.119781
v -2.130537 -0.1947808 -1.274965
v -2.115583 -0.1947808 -1.630652
v -1.021208 -0.1947808 -1.463566
v -0.8870816 -0.1947808 -1.165406
v 7.629395E-05 -0.1947808 -1.555578
v 7.629395E-05 -0.1947808 -1.259401
v -1.021208 -0.1947808 -1.463566
v -2.115583 -0.1947808 -1.630652
v -3.488587 -0.1947808 -3.070033
v -3.496522 -0.1947808 -3.952461
v 7.629395E-05 -0.1947808 -4.99999
v -3.444336 -0.1947808 -4.99999
v 7.629395E-05 -0.1947808 -1.555578
v -2.130537 -0.1947808 -1.274965
v -0.8870816 -0.1947808 -1.165406
v -0.8138385 -7.629395E-05 -1.119781
v -2.130537 -0.1947808 -1.274965
v -2.074231 -7.629395E-05 -1.04547
v -3.442047 -7.629395E-05 -1.590826
v -4.99999 -7.629395E-05 7.629395E-05
v -3.240323 -0.1947808 -1.73655
v -2.944604 -0.1947808 -2.072095
v -3.488587 -0.1947808 -3.070033
v -2.115583 -0.1947808 -1.630652
v -4.99999 -7.629395E-05 -4.99999
v -3.926368 -7.629395E-05 -3.985878
v -4.068582 -7.629395E-05 -2.768973
v -3.740514 -7.629395E-05 -4.99999
v -3.832067 -0.1947808 -2.919427
v -4.068582 -7.629395E-05 -2.768973
v -3.926368 -7.629395E-05 -3.985878
v -3.926368 -7.629395E-05 -3.985878
v -3.824133 -0.1947808 -3.874335
v -3.496522 -0.1947808 -3.952461
v -3.488587 -0.1947808 -3.070033
v -3.832067 -0.1947808 -2.919427
v -3.496522 -0.1947808 -3.952461
v -3.824133 -0.1947808 -3.874335
v -3.444336 -0.1947808 -4.99999
v -3.740514 -0.1947808 -4.99999
v -4.068582 -7.629395E-05 -2.768973
v -3.442047 -7.629395E-05 -1.590826
v -4.99999 -7.629395E-05 7.629395E-05
v -3.240323 -0.1947808 -1.73655
v -4.99999 -7.629395E-05 7.629395E-05
v -3.442047 -7.629395E-05 -1.590826
v -3.832067 -0.1947808 -2.919427
v -3.240323 -0.1947808 -1.73655
v -3.442047 -7.629395E-05 -1.590826
v -4.068582 -7.629395E-05 -2.768973
v -3.926368 -7.629395E-05 -3.985878
v -3.740514 -7.629395E-05 -4.99999
v -3.740514 -0.1947808 -4.99999
v -3.740514 -0.1947808 -4.99999
v -3.824133 -0.1947808 -3.874335
v -4.99999 -7.629395E-05 -4.99999
v -4.068582 -7.629395E-05 -2.768973
v -4.99999 -7.629395E-05 7.629395E-05
v -4.99999 -7.629395E-05 7.629395E-05
v -3.442047 -7.629395E-05 -1.590826
v -2.074231 -7.629395E-05 -1.04547
vt 0.01225932 0.4229214
vt 0.01225932 0.5288987
vt 0.3178903 0.4229214
vt 0.3415459 0.4229214
vt 0.3178903 0.4229214
vt 0.3178903 0.5421458
vt 0.3415459 0.5421458
vt 0.3756101 0.5478232
vt 0.3756101 0.4229214
vt 0.3415459 0.4229214
vt 0.3756101 0.5478232
vt 0.3415459 0.5421458
vt 0.3415459 0.4229214
vt 0.3415459 0.5421458
vt 0.3756101 0.4229214
vt 0.3756101 0.5478232
vt 0.01225932 0.4229214
vt 0.3178903 0.5421458
vt 0.3178903 0.6604241
vt 0.3178903 0.4229214
vt 0.3415459 0.5421458
vt 0.3415459 0.6613703
vt 0.3178903 0.6604241
vt 0.3415459 0.5421458
vt 0.3178903 0.5421458
vt 0.3415459 0.4229214
vt 0.3756101 0.4229214
vt 0.3756101 0.5478232
vt 0.3415459 0.5421458
vt 0.3756101 0.672725
vt 0.3415459 0.6613703
vt 0.3869648 0.5109203
vt 0.3869648 0.4191365
vt 0.7654551 0.4191365
vt 0.7730249 0.4513082
vt 0.9802484 0.6027043
vt 0.9802484 0.4768562
vt 0.3869648 0.6027043
vt 0.3415459 0.4229214
vt 0.3415459 0.5421458
vt 0.3178903 0.5421458
vt 0.3415459 0.4229214
vt 0.3178903 0.4229214
vt 0.3178903 0.5421458
vt 0.01225932 0.5288987
vt 0.3415459 0.5421458
vt 0.5799948 0.4815874
vt 0.7654551 0.4191365
vt 0.3869648 0.4191365
vt 0.01225932 0.4229214
vt 0.3178903 0.5421458
vt 0.3178903 0.4229214
vt 0.3178903 0.6604241
vt 0.3415459 0.4229214
vt 0.3178903 0.4229214
vt 0.3178903 0.5421458
vt 0.3178903 0.5421458
vt 0.3415459 0.5421458
vt 0.3756101 0.5478232
vt 0.3756101 0.4229214
vt 0.3415459 0.4229214
vt 0.3756101 0.5478232
vt 0.3415459 0.5421458
vt 0.3756101 0.672725
vt 0.3415459 0.6613703
vt 0.3178903 0.4229214
vt 0.3178903 0.5421458
vt 0.01225932 0.5288987
vt 0.3415459 0.5421458
vt 0.01225932 0.5288987
vt 0.3178903 0.5421458
vt 0.3415459 0.4229214
vt 0.3415459 0.5421458
vt 0.3178903 0.5421458
vt 0.3178903 0.4229214
vt 0.3178903 0.5421458
vt 0.3178903 0.6604241
vt 0.3415459 0.6613703
vt 0.3415459 0.6613703
vt 0.3415459 0.5421458
vt 0.01225932 0.4229214
vt 0.3178903 0.4229214
vt 0.01225932 0.5288987
vt 0.01225932 0.5288987
vt 0.3178903 0.5421458
vt 0.3178903 0.4229214
vn 0.002453029 0.999997 -0.0002441406
vn 0.002453029 0.999997 -0.0002441406
vn 0.002453029 0.999997 -0.0002441406
vn 0.2626309 0.7168623 -0.6458588
vn 0.2626309 0.7168623 -0.6458588
vn 0.2626309 0.7168623 -0.6458588
vn 0.2626309 0.7168623 -0.6458588
vn 0.002453029 0.999997 -0.0002441406
vn 0.002453029 0.999997 -0.0002441406
vn 0.002453029 0.999997 -0.0002441406
vn 0.002453029 0.999997 -0.0002441406
vn 0.002453029 0.999997 -0.0002441406
vn 0.002453029 0.999997 -0.0002441406
vn 0.002453029 0.999997 -0.0002441406
vn 0.002453029 0.999997 -0.0002441406
vn 0.002453029 0.999997 -0.0002441406
vn 0.002453029 0.999997 -0.0002441406
vn 0.002453029 0.999997 -0.0002441406
vn 0.002453029 0.999997 -0.0002441406
vn 0.002453029 0.999997 -0.0002441406
vn -0.1352882 0.1429405 -0.9804413
vn -0.1352882 0.1429405 -0.9804413
vn -0.1352882 0.1429405 -0.9804413
vn -0.1352882 0.1429405 -0.9804413
vn -0.1352882 0.1429405 -0.9804413
vn 0.002453029 0.999997 -0.0002441406
vn 0.002453029 0.999997 -0.0002441406
vn 0.002453029 0.999997 -0.0002441406
vn 0.002453029 0.999997 -0.0002441406
vn 0.002453029 0.999997 -0.0002441406
vn 0.002453029 0.999997 -0.0002441406
vn 0.002453029 0.999997 -0.0002441406
vn 0.002453029 0.999997 -0.0002441406
vn 0.002453029 0.999997 -0.0002441406
vn 0.002453029 0.999997 -0.0002441406
vn 0.002453029 0.999997 -0.0002441406
vn 0.002453029 0.999997 -0.0002441406
vn 0.002453029 0.999997 -0.0002441406
vn 0.01010537 0.5714688 -0.8205616
vn 0.01010537 0.5714688 -0.8205616
vn 0.01010537 0.5714688 -0.8205616
vn 0.01010537 0.5714688 -0.8205616
vn 0.01010537 0.5714688 -0.8205616
vn -0.7015577 -0.2090649 -0.6812552
vn -0.7015577 -0.2090649 -0.6812552
vn -0.7015577 -0.2090649 -0.6812552
vn 0.002453029 0.999997 -0.0002441406
vn 0.002453029 0.999997 -0.0002441406
vn 0.002453029 0.999997 -0.0002441406
vn 0.002453029 0.999997 -0.0002441406
vn 0.002453029 0.999997 -0.0002441406
vn 0.002453029 0.999997 -0.0002441406
vn 0.002453029 0.999997 -0.0002441406
vn 0.7600298 0.6556439 NaN
vn 0.7600298 0.6556439 NaN
vn 0.7600298 0.6556439 NaN
vn 0.7600298 0.6556439 NaN
vn 0.7600298 0.6556439 NaN
vn 0.002453029 0.999997 -0.0002441406
vn 0.002453029 0.999997 -0.0002441406
vn 0.002453029 0.999997 -0.0002441406
vn 0.002453029 0.999997 -0.0002441406
vn 0.002453029 0.999997 -0.0002441406
vn 0.002453029 0.999997 -0.0002441406
vn 0.002453029 0.999997 -0.0002441406
vn 0.002453029 0.999997 -0.0002441406
vn 0.002453029 0.999997 -0.0002441406
vn 0.002453029 0.999997 -0.0002441406
vn 0.6988114 0.2118111 0.6832266
vn 0.6988114 0.2118111 0.6832266
vn 0.6988114 0.2118111 0.6832266
vn 0.5304611 0.8010374 -0.277399
vn 0.5304611 0.8010374 -0.277399
vn 0.5304611 0.8010374 -0.277399
vn 0.5304611 0.8010374 -0.277399
vn 0.951337 0.2806817 0.1271834
vn 0.951337 0.2806817 0.1271834
vn 0.951337 0.2806817 0.1271834
vn 0.951337 0.2806817 0.1271834
vn 0.951337 0.2806817 0.1271834
vn 0.002453029 0.999997 -0.0002441406
vn 0.002453029 0.999997 -0.0002441406
vn 0.002453029 0.999997 -0.0002441406
vn 0.002453029 0.999997 -0.0002441406
vn 0.002453029 0.999997 -0.0002441406
vn 0.002453029 0.999997 -0.0002441406
f 3/3/3 2/2/2 1/1/1
f 6/6/6 5/5/5 4/4/4
f 7/7/7 6/6/6 4/4/4
f 10/10/10 9/9/9 8/8/8
f 12/12/12 10/10/10 11/11/11
f 14/14/14 8/8/8 13/13/13
f 16/16/16 15/15/15 13/13/13
f 19/19/19 18/18/18 17/17/17
f 18/18/18 20/20/20 17/17/17
f 23/23/23 22/22/22 21/21/21
f 25/25/25 23/23/23 24/24/24
f 28/28/28 27/27/27 26/26/26
f 29/29/29 28/28/28 26/26/26
f 28/28/28 29/29/29 30/30/30
f 29/29/29 31/31/31 30/30/30
f 34/34/34 33/33/33 32/32/32
f 35/35/35 34/34/34 32/32/32
f 35/35/35 32/32/32 36/36/36
f 37/37/37 35/35/35 36/36/36
f 32/32/32 38/38/38 36/36/36
f 41/41/41 40/40/40 39/39/39
f 43/43/43 41/41/41 42/42/42
f 46/46/46 45/45/45 44/44/44
f 49/49/49 48/48/48 47/47/47
f 52/52/52 51/51/51 50/50/50
f 51/51/51 53/53/53 50/50/50
f 56/56/56 55/55/55 54/54/54
f 58/58/58 57/57/57 54/54/54
f 61/61/61 60/60/60 59/59/59
f 63/63/63 61/61/61 62/62/62
f 63/63/63 62/62/62 64/64/64
f 65/65/65 63/63/63 64/64/64
f 68/68/68 67/67/67 66/66/66
f 71/71/71 70/70/70 69/69/69
f 74/74/74 73/73/73 72/72/72
f 75/75/75 74/74/74 72/72/72
f 78/78/78 77/77/77 76/76/76
f 80/80/80 79/79/79 76/76/76
f 83/83/83 82/82/82 81/81/81
f 86/86/86 85/85/85 84/84/84
