g road_bend_right_mesh
v 5.004887 -0.1955023 -3.167155
v 3.15738 -0.1955023 -3.167155
v 5.004887 -0.1955023 -10
v 3.15738 -0.1955023 -10
v 2.8739 9.536743E-07 -2.8739
v 2.8739 -0.1955023 -2.8739
v 5.004887 9.536743E-07 -2.8739
v 5.004887 -0.1955023 -2.8739
v 2.8739 9.536743E-07 -2.8739
v 5.004887 9.536743E-07 -2.8739
v 2.8739 9.536743E-07 -2.541544
v 5.004887 9.536743E-07 9.536743E-07
v 2.8739 9.536743E-07 9.536743E-07
v 5.004887 -0.1955023 -3.167155
v 5.004887 -0.1955023 -2.8739
v 3.15738 -0.1955023 -3.167155
v 2.8739 -0.1955023 -2.8739
v 2.8739 9.536743E-07 -2.541544
v 2.8739 9.536743E-07 9.536743E-07
v 2.531769 9.536743E-07 -2.541544
v -9.536743E-07 9.536743E-07 9.536743E-07
v -9.536743E-07 9.536743E-07 -2.8739
v 2.541544 9.536743E-07 -2.8739
v -9.536743E-07 9.536743E-07 -10
v 2.541544 9.536743E-07 -2.8739
v -9.536743E-07 9.536743E-07 -2.8739
v 2.8739 9.536743E-07 -10
v 2.8739 9.536743E-07 -2.8739
v 2.8739 -0.1955023 -10
v 2.8739 -0.1955023 -2.8739
v 2.8739 9.536743E-07 -10
v 2.8739 9.536743E-07 -2.8739
v 2.541544 9.536743E-07 -2.8739
v 2.8739 9.536743E-07 -2.8739
v 2.531769 9.536743E-07 -2.541544
v 2.8739 9.536743E-07 -2.8739
v 2.8739 9.536743E-07 -2.541544
v 2.531769 9.536743E-07 -2.541544
v 5.004887 9.536743E-07 9.536743E-07
v 5.004887 -0.1955023 9.536743E-07
v 2.8739 9.536743E-07 9.536743E-07
v 2.8739 -0.1955023 9.536743E-07
v -9.536743E-07 9.536743E-07 9.536743E-07
v -9.536743E-07 -0.1955023 9.536743E-07
v -9.536743E-07 9.536743E-07 9.536743E-07
v -9.536743E-07 -0.1955023 9.536743E-07
v -9.536743E-07 9.536743E-07 -2.8739
v -9.536743E-07 -0.1955023 -2.8739
v -9.536743E-07 9.536743E-07 -10
v -9.536743E-07 -0.1955023 -10
v 2.8739 -0.1955023 -2.8739
v 2.8739 -0.1955023 -10
v 3.15738 -0.1955023 -3.167155
v 2.8739 -0.1955023 -10
v 3.15738 -0.1955023 -10
v 3.15738 -0.1955023 -3.167155
vt 0.5686274 0.7764705
vt 0.5686274 0.7372549
vt 0.6039215 0.7764705
vt 0.6039215 0.7372549
vt 0.317647 0.5019608
vt 0.3215686 0.5019608
vt 0.317647 0.9999999
vt 0.3411764 0.9999999
vt 0.317647 0.5019608
vt 0.317647 0.9999999
vt 0.2823529 0.5019608
vt -5.960464E-08 0.9999999
vt -5.960464E-08 0.5019608
vt 0.3764705 0.9999999
vt 0.3411764 0.9999999
vt 0.372549 0.2941176
vt 0.3490196 0.317647
vt 0.2549019 0.4980392
vt -5.960464E-08 0.5019608
vt 0.2549019 0.5568627
vt -5.960464E-08 0.9999999
vt 0.2862745 0.9999999
vt 0.2862745 0.5568627
vt -5.960464E-08 0.9999999
vt 0.2823529 0.01176465
vt -5.960464E-08 0.01176465
vt 0.317647 0.9999999
vt 0.317647 0.01176465
vt 0.3411764 0.9999999
vt 0.3411764 0.5137255
vt 0.317647 0.9999999
vt 0.317647 0.01176465
vt 0.2823529 0.4941176
vt 0.317647 0.4941176
vt 0.2823529 0.4666666
vt 0.317647 0.4941176
vt 0.2823529 0.4941176
vt 0.2823529 0.4666666
vt 0.3411764 0.572549
vt 0.3333333 0.572549
vt 0.3411764 0.5843137
vt 0.3333333 0.5843137
vt 0.3411764 0.6
vt 0.3333333 0.6
vt 0.3333333 0.572549
vt 0.3254901 0.572549
vt 0.3333333 0.5843137
vt 0.3254901 0.5843137
vt 0.3333333 0.6156862
vt 0.3254901 0.6156862
vt 0.3490196 0.317647
vt 0.3568627 0.4745097
vt 0.3607843 0.3764705
vt 0.3568627 0.4745097
vt 0.3607843 0.4745097
vt 0.3607843 0.3764705
vn -0.01587105 0.999874 -0.000345267
vn -0.01587105 0.999874 -0.000345267
vn -0.01587105 0.999874 -0.000345267
vn -0.01587105 0.999874 -0.000345267
vn -0.01587105 0.01587105 -0.9997481
vn -0.01587105 0.01587105 -0.9997481
vn -0.01587105 0.01587105 -0.9997481
vn -0.01587105 0.01587105 -0.9997481
vn -0.01587105 0.999874 -0.000345267
vn -0.01587105 0.999874 -0.000345267
vn -0.01587105 0.999874 -0.000345267
vn -0.01587105 0.999874 -0.000345267
vn -0.01587105 0.999874 -0.000345267
vn -0.01587105 0.999874 -0.000345267
vn -0.01587105 0.999874 -0.000345267
vn -0.01587105 0.999874 -0.000345267
vn -0.01587105 0.999874 -0.000345267
vn -0.01587105 0.999874 -0.000345267
vn -0.01587105 0.999874 -0.000345267
vn -0.01587105 0.999874 -0.000345267
vn -0.01587105 0.999874 -0.000345267
vn -0.01587105 0.999874 -0.000345267
vn -0.01587105 0.999874 -0.000345267
vn -0.01587105 0.999874 -0.000345267
vn -0.01587105 0.999874 -0.000345267
vn -0.01587105 0.999874 -0.000345267
vn -0.01587105 0.999874 -0.000345267
vn -0.01587105 0.999874 -0.000345267
vn 0.999874 0.01587105 -0.0003439156
vn 0.999874 0.01587105 -0.0003439156
vn 0.999874 0.01587105 -0.0003439156
vn 0.999874 0.01587105 -0.0003439156
vn -0.01587105 0.999874 -0.000345267
vn -0.01587105 0.999874 -0.000345267
vn -0.01587105 0.999874 -0.000345267
vn -0.01587105 0.999874 -0.000345267
vn -0.01587105 0.999874 -0.000345267
vn -0.01587105 0.999874 -0.000345267
vn -0.01587105 0.01587105 0.9997481
vn -0.01587105 0.01587105 0.9997481
vn -0.01587105 0.01587105 0.9997481
vn -0.01587105 0.01587105 0.9997481
vn -0.01587105 0.01587105 0.9997481
vn -0.01587105 0.01587105 0.9997481
vn -0.999874 0.01587105 -0.0003439156
vn -0.999874 0.01587105 -0.0003439156
vn -0.999874 0.01587105 -0.0003439156
vn -0.999874 0.01587105 -0.0003439156
vn -0.999874 0.01587105 -0.0003439156
vn -0.999874 0.01587105 -0.0003439156
vn -0.01587105 0.999874 -0.000345267
vn -0.01587105 0.999874 -0.000345267
vn -0.01587105 0.999874 -0.000345267
vn -0.01587105 0.999874 -0.000345267
vn -0.01587105 0.999874 -0.000345267
vn -0.01587105 0.999874 -0.000345267
f 3/3/3 2/2/2 1/1/1
f 3/3/3 4/4/4 2/2/2
f 7/7/7 6/6/6 5/5/5
f 7/7/7 8/8/8 6/6/6
f 11/11/11 10/10/10 9/9/9
f 12/12/12 10/10/10 11/11/11
f 12/12/12 11/11/11 13/13/13
f 16/16/16 15/15/15 14/14/14
f 16/16/16 17/17/17 15/15/15
f 20/20/20 19/19/19 18/18/18
f 19/19/19 20/20/20 21/21/21
f 20/20/20 22/22/22 21/21/21
f 22/22/22 20/20/20 23/23/23
f 26/26/26 25/25/25 24/24/24
f 25/25/25 27/27/27 24/24/24
f 27/27/27 25/25/25 28/28/28
f 31/31/31 30/30/30 29/29/29
f 31/31/31 32/32/32 30/30/30
f 35/35/35 34/34/34 33/33/33
f 38/38/38 37/37/37 36/36/36
f 41/41/41 40/40/40 39/39/39
f 41/41/41 42/42/42 40/40/40
f 43/43/43 42/42/42 41/41/41
f 43/43/43 44/44/44 42/42/42
f 47/47/47 46/46/46 45/45/45
f 47/47/47 48/48/48 46/46/46
f 49/49/49 48/48/48 47/47/47
f 49/49/49 50/50/50 48/48/48
f 53/53/53 52/52/52 51/51/51
f 56/56/56 55/55/55 54/54/54
