g road_Asphalt_Corner
v -4.99999 0 0
v -4.583523 0 -1.073618
v -4.223262 0 -0.8904781
v -4.99999 0 -1.25943
v -4.100854 -0.1947958 -1.01961
v -4.223262 0 -0.8904781
v -4.583523 0 -1.073618
v -4.499275 -0.1947958 -1.211071
v -4.392125 -0.1947958 -1.575097
v -3.835272 -0.1947958 -1.30938
v -4.100854 -0.1947958 -1.01961
v -4.499275 -0.1947958 -1.211071
v -4.99999 -0.1947958 -1.555624
v -4.99999 -0.1947958 -1.25943
v -4.392125 -0.1947958 -1.575097
v -4.99999 -0.1947958 -1.555624
v -4.999991 -0.1947958 -5
v -2.384186E-06 -0.1947958 -5
v -3.835272 -0.1947958 -1.30938
v -4.99999 0 0
v -3.880237 0 -0.4786825
v -3.74056 0 0
v -4.223262 0 -0.8904781
v -3.834649 -0.1947958 -0.5518693
v -3.74056 -0.1947958 0
v -3.74056 0 0
v -3.834649 -0.1947958 -0.5518693
v -3.74056 0 0
v -3.880237 0 -0.4786825
v -4.100854 -0.1947958 -1.01961
v -3.835272 -0.1947958 -1.30938
v -3.536361 -0.1947958 -0.6859664
v -3.834649 -0.1947958 -0.5518693
v -3.444366 -0.1947958 0
v -3.74056 -0.1947958 0
v -3.536361 -0.1947958 -0.6859664
v -3.835272 -0.1947958 -1.30938
v -2.384186E-06 -0.1947958 -5
v 4.768372E-07 -0.1947958 -9.78622E-07
v -3.444366 -0.1947958 0
v -4.100854 -0.1947958 -1.01961
v -3.834649 -0.1947958 -0.5518693
v -3.880237 0 -0.4786825
v -4.223262 0 -0.8904781
v -4.583523 0 -1.073618
v -4.99999 0 -1.25943
v -4.99999 -0.1947958 -1.25943
v -4.583523 0 -1.073618
v -4.99999 -0.1947958 -1.25943
v -4.499275 -0.1947958 -1.211071
vt 0.01225932 0.4256711
vt 0.3178974 0.5444442
vt 0.3178974 0.4256711
vt 0.3178974 0.6632174
vt 0.3410731 0.4256711
vt 0.3178974 0.4256711
vt 0.3178974 0.5444442
vt 0.3410731 0.5448617
vt 0.3754144 0.5506711
vt 0.3754143 0.4256711
vt 0.3410731 0.4256711
vt 0.3410731 0.5448617
vt 0.3754144 0.6756711
vt 0.3410731 0.6640524
vt 0.3867347 0.5112223
vt 0.3867347 0.6029632
vt 0.9802484 0.6029632
vt 0.9802484 0.4194814
vt 0.3867347 0.4194814
vt 0.01225932 0.4256711
vt 0.3178974 0.5444442
vt 0.3178974 0.6632174
vt 0.3178974 0.4256711
vt 0.3410731 0.5448617
vt 0.3410731 0.6640524
vt 0.3178974 0.6632174
vt 0.3410731 0.5448617
vt 0.3178974 0.6632174
vt 0.3178974 0.5444442
vt 0.3410731 0.4256711
vt 0.3754143 0.4256711
vt 0.3754144 0.5506711
vt 0.3410731 0.5448617
vt 0.3754144 0.6756711
vt 0.3410731 0.6640524
vt 0.3867347 0.5112223
vt 0.3867347 0.4194814
vt 0.9802484 0.4194814
vt 0.9802484 0.6029632
vt 0.3867347 0.6029632
vt 0.3410731 0.4256711
vt 0.3410731 0.5448617
vt 0.3178974 0.5444442
vt 0.3178974 0.4256711
vt 0.3178974 0.5444442
vt 0.3178974 0.6632174
vt 0.3410731 0.6640524
vt 0.3178974 0.5444442
vt 0.3410731 0.6640524
vt 0.3410731 0.5448617
vn 0 1 0
vn 0 1 0
vn 0 1 0
vn 0 1 0
vn 0.3375975 0.6469378 -0.6837391
vn 0.3375975 0.6469378 -0.6837391
vn 0.3375975 0.6469378 -0.6837391
vn 0.3375975 0.6469378 -0.6837391
vn 0 1 0
vn 0 1 0
vn 0 1 0
vn 0 1 0
vn 0 1 0
vn 0 1 0
vn 0 1 0
vn 0 1 0
vn 0 1 0
vn 0 1 0
vn 0 1 0
vn 0 1 0
vn 0 1 0
vn 0 1 0
vn 0 1 0
vn 0.9636185 0.1538208 -0.2185828
vn 0.9636185 0.1538208 -0.2185828
vn 0.9636185 0.1538208 -0.2185828
vn 0.9636185 0.1538208 -0.2185828
vn 0.9636185 0.1538208 -0.2185828
vn 0.9636185 0.1538208 -0.2185828
vn 0 1 0
vn 0 1 0
vn 0 1 0
vn 0 1 0
vn 0 1 0
vn 0 1 0
vn 0 1 0
vn 0 1 0
vn 0 1 0
vn 0 1 0
vn 0 1 0
vn 0.6891872 0.5450947 -0.4773811
vn 0.6891872 0.5450947 -0.4773811
vn 0.6891872 0.5450947 -0.4773811
vn 0.6891872 0.5450947 -0.4773811
vn 0.2300542 0.3676541 -0.901058
vn 0.2300542 0.3676541 -0.901058
vn 0.2300542 0.3676541 -0.901058
vn 0.2300542 0.3676541 -0.901058
vn 0.2300542 0.3676541 -0.901058
vn 0.2300542 0.3676541 -0.901058
f 3/3/3 2/2/2 1/1/1
f 2/2/2 4/4/4 1/1/1
f 7/7/7 6/6/6 5/5/5
f 8/8/8 7/7/7 5/5/5
f 11/11/11 10/10/10 9/9/9
f 12/12/12 11/11/11 9/9/9
f 12/12/12 9/9/9 13/13/13
f 14/14/14 12/12/12 13/13/13
f 17/17/17 16/16/16 15/15/15
f 17/17/17 15/15/15 18/18/18
f 15/15/15 19/19/19 18/18/18
f 22/22/22 21/21/21 20/20/20
f 21/21/21 23/23/23 20/20/20
f 26/26/26 25/25/25 24/24/24
f 29/29/29 28/28/28 27/27/27
f 32/32/32 31/31/31 30/30/30
f 33/33/33 32/32/32 30/30/30
f 32/32/32 33/33/33 34/34/34
f 33/33/33 35/35/35 34/34/34
f 38/38/38 37/37/37 36/36/36
f 38/38/38 36/36/36 39/39/39
f 36/36/36 40/40/40 39/39/39
f 43/43/43 42/42/42 41/41/41
f 44/44/44 43/43/43 41/41/41
f 47/47/47 46/46/46 45/45/45
f 50/50/50 49/49/49 48/48/48
