g Rock_Flat_l_01
v -0.713524 -1E-06 -0.623792
v 0.884276 -1E-06 -0.851096
v 0.511643 0.042896 -0.96947
v -0.630969 0.033153 -0.767996
v 0.592774 0.359801 -0.915882
v 1.079625 0.251089 -0.765715
v 1.181797 0.315461 -0.18627
v 1.145228 0.347938 -0.044764
v 0.917461 -1E-06 -0.840228
v 1.081308 -1E-06 0.267555
v 1.185416 0.097179 -0.165745
v 1.077008 0.087082 -0.780554
v 0.999907 -1E-06 0.594147
v -0.390336 -1E-06 1.021259
v 0.592219 0.115745 1.031286
v 0.925732 0.096251 0.876295
v 0.925732 0.096251 0.876295
v 0.863148 0.39832 0.739936
v 0.95857 0.389316 0.69749
v 0.592219 0.115745 1.031286
v 0.501981 0.20382 1.027316
v -0.843864 -1E-06 0.954869
v -0.654956 0.157833 1.01272
v -0.677743 -1E-06 1.01728
v -1.275907 0.27846 0.769402
v -1.27411 0.163974 0.779595
v -0.654956 0.157833 1.01272
v 0.501981 0.20382 1.027316
v -0.390336 -1E-06 1.021259
v 0.592219 0.115745 1.031286
v -0.677743 -1E-06 1.01728
v -1.275907 0.27846 0.769402
v -1.27411 0.163974 0.779595
v -1.292856 0.336965 0.673283
v -1.393807 0.112207 0.100756
v -1.401551 0.336965 0.05684
v -1.414266 0.230119 -0.015272
v -1.414266 0.230119 -0.015272
v -1.103871 0.479728 -0.120211
v -1.401551 0.336965 0.05684
v -0.740742 0.132339 -0.748641
v -0.6868 0.47389 -0.531072
v -0.43167 0.4441 -0.803138
v 1.081308 -1E-06 0.267555
v 0.884276 -1E-06 -0.851096
v -0.713524 -1E-06 -0.623792
v 0.917461 -1E-06 -0.840228
v -0.390336 -1E-06 1.021259
v -1.185673 -1E-06 -0.027214
v 0.999907 -1E-06 0.594147
v -0.843864 -1E-06 0.954869
v -0.677743 -1E-06 1.01728
v -1.000784 0.479728 0.464424
v -1.292856 0.336965 0.673283
v -1.401551 0.336965 0.05684
v -1.103871 0.479728 -0.120211
v 1.185416 0.097179 -0.165745
v 1.145228 0.347938 -0.044764
v 1.181797 0.315461 -0.18627
v 1.081308 -1E-06 0.267555
v 0.95857 0.389316 0.69749
v 0.999907 -1E-06 0.594147
v 0.925732 0.096251 0.876295
v -1.27411 0.163974 0.779595
v -0.843864 -1E-06 0.954869
v -1.185673 -1E-06 -0.027214
v -1.393807 0.112207 0.100756
v -0.740742 0.132339 -0.748641
v -1.414266 0.230119 -0.015272
v -1.185673 -1E-06 -0.027214
v -1.393807 0.112207 0.100756
v -0.713524 -1E-06 -0.623792
v -0.630969 0.033153 -0.767996
v 1.145228 0.347938 -0.044764
v 1.217198 0.426818 -0.04853
v 0.633033 0.439362 -0.969651
v 0.592774 0.359801 -0.915882
v 0.501981 0.20382 1.027316
v -0.135286 0.469581 0.54754
v 0.863148 0.39832 0.739936
v -0.654956 0.157833 1.01272
v -1.000784 0.479728 0.464424
v -1.275907 0.27846 0.769402
v -1.292856 0.336965 0.673283
v 0.863148 0.39832 0.739936
v -0.135286 0.469581 0.54754
v -0.136819 0.555443 0.577773
v 0.918926 0.480091 0.781213
v -1.103871 0.479728 -0.120211
v -1.161002 0.566173 -0.128308
v -1.051997 0.566173 0.489886
v -1.000784 0.479728 0.464424
v 0.456476 0.368895 -0.959742
v 0.488911 0.448978 -1.016029
v -0.450215 0.5285 -0.850436
v -0.43167 0.4441 -0.803138
v 0.488911 0.448978 -1.016029
v 0.516715 0.549408 -1.083427
v -0.489878 0.634643 -0.905938
v -1.103871 0.479728 -0.120211
v -0.6868 0.47389 -0.531072
v -0.71999 0.56 -0.562753
v -1.161002 0.566173 -0.128308
v 0.456476 0.368895 -0.959742
v 0.511643 0.042896 -0.96947
v 0.592774 0.359801 -0.915882
v 0.884276 -1E-06 -0.851096
v 1.079625 0.251089 -0.765715
v 1.077008 0.087082 -0.780554
v 0.917461 -1E-06 -0.840228
v 0.511643 0.042896 -0.96947
v 0.456476 0.368895 -0.959742
v -0.43167 0.4441 -0.803138
v -0.630969 0.033153 -0.767996
v -0.740742 0.132339 -0.748641
v 0.95857 0.389316 0.69749
v 1.019826 0.470571 0.736331
v 1.217198 0.426818 -0.04853
v 1.145228 0.347938 -0.044764
v 1.019826 0.470571 0.736331
v 1.297323 0.525656 -0.046422
v 1.085772 0.572552 0.794823
v 1.185416 0.097179 -0.165745
v 1.181797 0.315461 -0.18627
v 1.079625 0.251089 -0.765715
v 1.077008 0.087082 -0.780554
v -1.161002 0.566173 -0.128308
v -0.71999 0.56 -0.562753
v -0.779033 0.668406 -0.597587
v -1.251727 0.675022 -0.131932
v -1.051997 0.566173 0.489886
v -1.134892 0.675022 0.530674
v -0.153967 0.663522 0.624875
v 1.217198 0.426818 -0.04853
v 1.297323 0.525656 -0.046422
v 0.671191 0.539101 -1.033717
v 0.633033 0.439362 -0.969651
v 1.019826 0.470571 0.736331
v 0.918926 0.480091 0.781213
v 0.977623 0.582757 0.84293
v 1.085772 0.572552 0.794823
v 0.95857 0.389316 0.69749
v 0.863148 0.39832 0.739936
v 0.918926 0.480091 0.781213
v -0.136819 0.555443 0.577773
v -0.153967 0.663522 0.624875
v 0.977623 0.582757 0.84293
v -0.71999 0.56 -0.562753
v -0.450215 0.5285 -0.850436
v -0.489878 0.634643 -0.905938
v -0.779033 0.668406 -0.597587
v -0.43167 0.4441 -0.803138
v -0.450215 0.5285 -0.850436
v -0.71999 0.56 -0.562753
v -0.6868 0.47389 -0.531072
v -1.000784 0.479728 0.464424
v -1.051997 0.566173 0.489886
v -0.136819 0.555443 0.577773
v -0.135286 0.469581 0.54754
v 0.592774 0.359801 -0.915882
v 0.633033 0.439362 -0.969651
v 0.488911 0.448978 -1.016029
v 0.456476 0.368895 -0.959742
v 0.516715 0.549408 -1.083427
v 0.671191 0.539101 -1.033717
v 0.616141 0.666481 -0.929701
v 0.479202 0.675617 -0.973767
v -0.779033 0.668406 -0.597587
v -0.669451 0.781107 -0.543081
v -1.088484 0.786972 -0.130288
v -1.251727 0.675022 -0.131932
v -0.489878 0.634643 -0.905938
v -0.413121 0.751176 -0.816427
v -0.153967 0.663522 0.624875
v -1.134892 0.675022 0.530674
v -0.984912 0.786972 0.457098
v -0.115343 0.776777 0.540604
v 0.887786 0.705181 0.733905
v 0.977623 0.582757 0.84293
v 0.671191 0.539101 -1.033717
v 1.297323 0.525656 -0.046422
v 1.171193 0.654562 -0.054485
v 0.616141 0.666481 -0.929701
v 0.977623 0.582757 0.84293
v 0.887786 0.705181 0.733905
v 0.983658 0.696135 0.69126
v 1.085772 0.572552 0.794823
v 0.633033 0.439362 -0.969651
v 0.671191 0.539101 -1.033717
v 0.516715 0.549408 -1.083427
v 0.488911 0.448978 -1.016029
v -1.051997 0.566173 0.489886
v -1.161002 0.566173 -0.128308
v -1.251727 0.675022 -0.131932
v -1.134892 0.675022 0.530674
v -1.088484 0.786972 -0.130288
v -0.669451 0.781107 -0.543081
v -0.115343 0.776777 0.540604
v -0.984912 0.786972 0.457098
v 0.479202 0.675617 -0.973767
v -0.115343 0.776777 0.540604
v -0.413121 0.751176 -0.816427
v -0.669451 0.781107 -0.543081
v 0.616141 0.666481 -0.929701
v 1.171193 0.654562 -0.054485
v 0.887786 0.705181 0.733905
v 0.983658 0.696135 0.69126
v -0.489878 0.634643 -0.905938
v 0.516715 0.549408 -1.083427
v 0.479202 0.675617 -0.973767
v -0.413121 0.751176 -0.816427
v -1.251727 0.675022 -0.131932
v -1.088484 0.786972 -0.130288
v -0.984912 0.786972 0.457098
v -1.134892 0.675022 0.530674
v 1.297323 0.525656 -0.046422
v 1.085772 0.572552 0.794823
v 0.983658 0.696135 0.69126
v 1.171193 0.654562 -0.054485
v -1.051997 0.566173 0.489886
v -0.153967 0.663522 0.624875
v -0.136819 0.555443 0.577773
vt 0.0532 0.4109
vt 0.052 0.4435
vt 0.0558 0.4366
vt 0.0558 0.413
vt 0.0269 0.4472
vt 0.0201 0.4554
vt 0.0247 0.4661
vt 0.0269 0.468
vt 0.0517 0.4442
vt 0.0281 0.4435
vt 0.0367 0.4472
vt 0.0498 0.4472
vt 0.0216 0.4407
vt 0.0178 0.4115
vt 0.014 0.4312
vt 0.016 0.4384
vt 0.0575 0.4473
vt 0.0634 0.4491
vt 0.0631 0.4473
vt 0.0584 0.4535
vt 0.0602 0.4554
vt 0.0558 0.4825
vt 0.0593 0.4786
vt 0.056 0.479
vt 0.0611 0.4919
vt 0.0587 0.4918
vt 0.0593 0.4786
vt 0.0602 0.4554
vt 0.056 0.4732
vt 0.0584 0.4535
vt 0.056 0.479
vt 0.0882 0.474
vt 0.0905 0.4736
vt 0.0865 0.4723
vt 0.0881 0.4598
vt 0.0833 0.46
vt 0.0851 0.458
vt 0.1025 0.49
vt 0.0972 0.4842
vt 0.1002 0.4896
vt 0.1051 0.4786
vt 0.0977 0.4771
vt 0.0985 0.4728
vt 0.0281 0.4435
vt 0.052 0.4435
vt 0.0532 0.4109
vt 0.0517 0.4442
vt 0.0178 0.4115
vt 0.0425 0.3993
vt 0.0216 0.4407
vt 0.0209 0.4027
vt 0.019 0.4058
vt 0.1007 0.4318
vt 0.0939 0.4353
vt 0.1048 0.4423
vt 0.111 0.4384
vt 0.0708 0.4602
vt 0.076 0.4628
vt 0.0754 0.4598
vt 0.0687 0.4692
vt 0.0769 0.4783
vt 0.0686 0.476
vt 0.0707 0.4819
vt 0.026 0.3949
vt 0.0209 0.4027
vt 0.0425 0.3993
vt 0.0405 0.3948
vt 0.0862 0.4451
vt 0.0851 0.458
vt 0.0905 0.4573
vt 0.0881 0.4598
vt 0.0896 0.447
vt 0.0886 0.4446
vt 0.0283 0.448
vt 0.0269 0.4472
vt 0.0269 0.4693
vt 0.0283 0.4689
vt 0.102 0.3989
vt 0.1064 0.415
vt 0.111 0.3948
vt 0.0924 0.4205
vt 0.1007 0.4318
vt 0.092 0.4341
vt 0.0939 0.4353
vt 0.0634 0.4491
vt 0.0644 0.4698
vt 0.0663 0.4697
vt 0.0652 0.4479
vt 0.0185 0.4605
vt 0.0165 0.4604
vt 0.0182 0.473
vt 0.0201 0.4725
vt 0.0998 0.4555
vt 0.0982 0.455
vt 0.0968 0.4734
vt 0.0985 0.4728
vt 0.0982 0.455
vt 0.0961 0.4548
vt 0.0946 0.4744
vt 0.0185 0.4605
vt 0.0192 0.4537
vt 0.0172 0.4531
vt 0.0165 0.4604
vt 0.0998 0.4555
vt 0.1066 0.4542
vt 0.0999 0.4526
vt 0.1072 0.4463
vt 0.1017 0.4423
vt 0.1052 0.4423
vt 0.1072 0.4456
vt 0.1066 0.4542
vt 0.0998 0.4555
vt 0.0985 0.4728
vt 0.1072 0.4764
vt 0.1051 0.4786
vt 0.0769 0.4783
vt 0.0785 0.4789
vt 0.0777 0.4625
vt 0.076 0.4628
vt 0.0785 0.4789
vt 0.0797 0.4623
vt 0.0806 0.4798
vt 0.0708 0.4602
vt 0.0754 0.4598
vt 0.0742 0.4485
vt 0.0708 0.4482
vt 0.0165 0.4604
vt 0.0172 0.4531
vt 0.0147 0.4525
vt 0.014 0.4603
vt 0.0663 0.4884
vt 0.0686 0.4899
vt 0.0686 0.47
vt 0.0777 0.4625
vt 0.0797 0.4623
vt 0.0806 0.4446
vt 0.0785 0.4459
vt 0.0649 0.446
vt 0.0652 0.4479
vt 0.0676 0.4466
vt 0.0672 0.4446
vt 0.0631 0.4473
vt 0.0634 0.4491
vt 0.0652 0.4479
vt 0.0663 0.4697
vt 0.0686 0.47
vt 0.0676 0.4466
vt 0.0172 0.4531
vt 0.0182 0.4482
vt 0.0157 0.4472
vt 0.0147 0.4525
vt 0.0201 0.449
vt 0.0182 0.4482
vt 0.0172 0.4531
vt 0.0192 0.4537
vt 0.0644 0.4874
vt 0.0663 0.4884
vt 0.0663 0.4697
vt 0.0644 0.4698
vt 0.0999 0.4526
vt 0.0982 0.452
vt 0.0982 0.455
vt 0.0998 0.4555
vt 0.0961 0.4548
vt 0.0962 0.4515
vt 0.0934 0.4524
vt 0.0934 0.4553
vt 0.0676 0.403
vt 0.0681 0.4052
vt 0.0779 0.398
vt 0.0787 0.3948
vt 0.0604 0.4079
vt 0.0617 0.4096
vt 0.0909 0.4191
vt 0.092 0.3991
vt 0.0897 0.4018
vt 0.0887 0.4195
vt 0.0897 0.4403
vt 0.092 0.4425
vt 0.0806 0.4446
vt 0.0797 0.4623
vt 0.0825 0.4625
vt 0.0833 0.4468
vt 0.092 0.4425
vt 0.0897 0.4403
vt 0.0886 0.4421
vt 0.0907 0.4446
vt 0.0982 0.452
vt 0.0962 0.4515
vt 0.0961 0.4548
vt 0.0982 0.455
vt 0.0182 0.473
vt 0.0165 0.4604
vt 0.014 0.4603
vt 0.0157 0.4739
vt 0.0779 0.398
vt 0.0681 0.4052
vt 0.0887 0.4195
vt 0.0897 0.4018
vt 0.0558 0.4271
vt 0.0887 0.4195
vt 0.0617 0.4096
vt 0.0681 0.4052
vt 0.0563 0.43
vt 0.0727 0.4437
vt 0.0897 0.4403
vt 0.0886 0.4421
vt 0.0946 0.4744
vt 0.0961 0.4548
vt 0.0934 0.4553
vt 0.092 0.4727
vt 0.0787 0.3948
vt 0.0779 0.398
vt 0.0897 0.4018
vt 0.092 0.3991
vt 0.0797 0.4623
vt 0.0806 0.4798
vt 0.0833 0.4781
vt 0.0825 0.4625
vt 0.0663 0.4884
vt 0.0686 0.47
vt 0.0663 0.4697
vn -0.03449959 -0.9694884 -0.2426971
vn -0.03449959 -0.9694884 -0.2426971
vn -0.03449959 -0.9694884 -0.2426971
vn -0.03449959 -0.9694884 -0.2426971
vn 0.2597931 0.9536749 -0.151696
vn 0.2597931 0.9536749 -0.151696
vn 0.2597931 0.9536749 -0.151696
vn 0.2597931 0.9536749 -0.151696
vn 0.498905 -0.8635086 -0.07380074
vn 0.498905 -0.8635086 -0.07380074
vn 0.498905 -0.8635086 -0.07380074
vn 0.498905 -0.8635086 -0.07380074
vn 0.1062993 -0.9321942 0.3459978
vn 0.1062993 -0.9321942 0.3459978
vn 0.1062993 -0.9321942 0.3459978
vn 0.1062993 -0.9321942 0.3459978
vn 0.3986832 0.4446813 0.8020662
vn 0.3986832 0.4446813 0.8020662
vn 0.3986832 0.4446813 0.8020662
vn 0.3986832 0.4446813 0.8020662
vn 0.3986832 0.4446813 0.8020662
vn -0.3506016 0.07760035 0.9333042
vn -0.3506016 0.07760035 0.9333042
vn -0.3506016 0.07760035 0.9333042
vn -0.3506016 0.07760035 0.9333042
vn -0.3506016 0.07760035 0.9333042
vn -0.01380037 0.03090084 0.9994271
vn -0.01380037 0.03090084 0.9994271
vn -0.01380037 0.03090084 0.9994271
vn -0.01380037 0.03090084 0.9994271
vn -0.01380037 0.03090084 0.9994271
vn -0.9848158 0 0.1736028
vn -0.9848158 0 0.1736028
vn -0.9848158 0 0.1736028
vn -0.9848158 0 0.1736028
vn -0.9848158 0 0.1736028
vn -0.9848158 0 0.1736028
vn -0.6070928 0.4928942 -0.6232926
vn -0.6070928 0.4928942 -0.6232926
vn -0.6070928 0.4928942 -0.6232926
vn -0.6070928 0.4928942 -0.6232926
vn -0.6070928 0.4928942 -0.6232926
vn -0.6070928 0.4928942 -0.6232926
vn 0 -1 0
vn 0 -1 0
vn 0 -1 0
vn 0 -1 0
vn 0 -1 0
vn 0 -1 0
vn 0 -1 0
vn 0 -1 0
vn 0 -1 0
vn -0.3971849 0.9150653 0.06999735
vn -0.3971849 0.9150653 0.06999735
vn -0.3971849 0.9150653 0.06999735
vn -0.3971849 0.9150653 0.06999735
vn 0.9695765 0.03879906 0.2416941
vn 0.9695765 0.03879906 0.2416941
vn 0.9695765 0.03879906 0.2416941
vn 0.9695765 0.03879906 0.2416941
vn 0.9695765 0.03879906 0.2416941
vn 0.9695765 0.03879906 0.2416941
vn 0.9695765 0.03879906 0.2416941
vn -0.4019121 -0.9049273 0.1399042
vn -0.4019121 -0.9049273 0.1399042
vn -0.4019121 -0.9049273 0.1399042
vn -0.4019121 -0.9049273 0.1399042
vn -0.6283215 -0.5983204 -0.497217
vn -0.6283215 -0.5983204 -0.497217
vn -0.6283215 -0.5983204 -0.497217
vn -0.6283215 -0.5983204 -0.497217
vn -0.6283215 -0.5983204 -0.497217
vn -0.6283215 -0.5983204 -0.497217
vn 0.6581557 -0.6208581 -0.4258713
vn 0.6581557 -0.6208581 -0.4258713
vn 0.6581557 -0.6208581 -0.4258713
vn 0.6581557 -0.6208581 -0.4258713
vn -0.04040096 0.8503203 0.5247124
vn -0.04040096 0.8503203 0.5247124
vn -0.04040096 0.8503203 0.5247124
vn -0.04040096 0.8503203 0.5247124
vn -0.04040096 0.8503203 0.5247124
vn -0.04040096 0.8503203 0.5247124
vn -0.04040096 0.8503203 0.5247124
vn -0.2013006 -0.328501 0.9228029
vn -0.2013006 -0.328501 0.9228029
vn -0.2013006 -0.328501 0.9228029
vn -0.2013006 -0.328501 0.9228029
vn -0.8315144 -0.5358092 0.1466025
vn -0.8315144 -0.5358092 0.1466025
vn -0.8315144 -0.5358092 0.1466025
vn -0.8315144 -0.5358092 0.1466025
vn -0.1909979 -0.5114943 -0.8377907
vn -0.1909979 -0.5114943 -0.8377907
vn -0.1909979 -0.5114943 -0.8377907
vn -0.1909979 -0.5114943 -0.8377907
vn -0.1910965 -0.5099906 -0.8386846
vn -0.1910965 -0.5099906 -0.8386846
vn -0.1910965 -0.5099906 -0.8386846
vn -0.6227002 -0.4701001 -0.6255002
vn -0.6227002 -0.4701001 -0.6255002
vn -0.6227002 -0.4701001 -0.6255002
vn -0.6227002 -0.4701001 -0.6255002
vn 0.3102092 0.0808024 -0.9472282
vn 0.3102092 0.0808024 -0.9472282
vn 0.3102092 0.0808024 -0.9472282
vn 0.3102092 0.0808024 -0.9472282
vn 0.3102092 0.0808024 -0.9472282
vn 0.3102092 0.0808024 -0.9472282
vn 0.3102117 0.08070306 -0.9472358
vn -0.1736028 0 -0.9848158
vn -0.1736028 0 -0.9848158
vn -0.1736028 0 -0.9848158
vn -0.1736028 0 -0.9848158
vn -0.1736028 0 -0.9848158
vn 0.7260121 -0.6519108 0.2189036
vn 0.7260121 -0.6519108 0.2189036
vn 0.7260121 -0.6519108 0.2189036
vn 0.7260121 -0.6519108 0.2189036
vn 0.7546875 -0.6165897 0.2241963
vn 0.7546875 -0.6165897 0.2241963
vn 0.7546875 -0.6165897 0.2241963
vn 0.9848158 0 -0.1736028
vn 0.9848158 0 -0.1736028
vn 0.9848158 0 -0.1736028
vn 0.9848158 0 -0.1736028
vn -0.6022215 -0.5221187 -0.6039217
vn -0.6022215 -0.5221187 -0.6039217
vn -0.6022215 -0.5221187 -0.6039217
vn -0.6022215 -0.5221187 -0.6039217
vn -0.09189989 -0.4100995 0.9073989
vn -0.09189989 -0.4100995 0.9073989
vn -0.09189989 -0.4100995 0.9073989
vn 0.6982264 -0.556421 -0.450417
vn 0.6982264 -0.556421 -0.450417
vn 0.6982264 -0.556421 -0.450417
vn 0.6982264 -0.556421 -0.450417
vn 0.2749073 -0.605916 0.7465198
vn 0.2749073 -0.605916 0.7465198
vn 0.2749073 -0.605916 0.7465198
vn 0.2749073 -0.605916 0.7465198
vn 0.2849 -0.5797001 0.7634001
vn 0.2849 -0.5797001 0.7634001
vn -0.200604 -0.4180083 0.8860176
vn -0.200604 -0.4180083 0.8860176
vn -0.200604 -0.4180083 0.8860176
vn -0.200604 -0.4180083 0.8860176
vn -0.6471987 -0.528899 -0.5489989
vn -0.6471987 -0.528899 -0.5489989
vn -0.6471987 -0.528899 -0.5489989
vn -0.6471987 -0.528899 -0.5489989
vn -0.6690221 -0.4698156 -0.575919
vn -0.6690221 -0.4698156 -0.575919
vn -0.6690221 -0.4698156 -0.575919
vn -0.6690221 -0.4698156 -0.575919
vn -0.09400429 -0.3321152 0.9385428
vn -0.09400429 -0.3321152 0.9385428
vn -0.09400429 -0.3321152 0.9385428
vn -0.09400429 -0.3321152 0.9385428
vn 0.2035091 -0.6168276 -0.760334
vn 0.2035091 -0.6168276 -0.760334
vn 0.2035091 -0.6168276 -0.760334
vn 0.2035091 -0.6168276 -0.760334
vn 0.2661893 0.676073 -0.6870725
vn 0.2661893 0.676073 -0.6870725
vn 0.2661893 0.676073 -0.6870725
vn 0.2661893 0.676073 -0.6870725
vn -0.4853921 0.7151883 -0.5028918
vn -0.4853921 0.7151883 -0.5028918
vn -0.4853921 0.7151883 -0.5028918
vn -0.4853921 0.7151883 -0.5028918
vn -0.4723087 0.7111131 -0.5208096
vn -0.4723087 0.7111131 -0.5208096
vn -0.06860216 0.6105192 0.7890248
vn -0.06860216 0.6105192 0.7890248
vn -0.06860216 0.6105192 0.7890248
vn -0.106299 0.6166943 0.7799928
vn -0.106299 0.6166943 0.7799928
vn -0.1063056 0.6166323 0.7800409
vn 0.6638848 0.6237857 -0.4124905
vn 0.6638848 0.6237857 -0.4124905
vn 0.6638848 0.6237857 -0.4124905
vn 0.6638848 0.6237857 -0.4124905
vn 0.3263012 0.7508028 0.5743021
vn 0.3263012 0.7508028 0.5743021
vn 0.3263012 0.7508028 0.5743021
vn 0.3263012 0.7508028 0.5743021
vn 0.213002 -0.5844055 -0.7830073
vn 0.213002 -0.5844055 -0.7830073
vn 0.213002 -0.5844055 -0.7830073
vn 0.213002 -0.5844055 -0.7830073
vn -0.763374 -0.6317785 0.1345954
vn -0.763374 -0.6317785 0.1345954
vn -0.763374 -0.6317785 0.1345954
vn -0.763374 -0.6317785 0.1345954
vn 0.01190032 0.999927 -0.002100057
vn 0.01190032 0.999927 -0.002100057
vn 0.01190032 0.999927 -0.002100057
vn 0.01190032 0.999927 -0.002100057
vn 0.07800052 0.9963067 -0.03590024
vn 0.07800052 0.9963067 -0.03590024
vn 0.07800052 0.9963067 -0.03590024
vn 0.07800052 0.9963067 -0.03590024
vn 0.07800052 0.9963067 -0.03590024
vn 0.07800052 0.9963067 -0.03590024
vn 0.07800052 0.9963067 -0.03590024
vn 0.07800052 0.9963067 -0.03590024
vn -0.08050286 0.6400227 -0.7641271
vn -0.08050286 0.6400227 -0.7641271
vn -0.08050286 0.6400227 -0.7641271
vn -0.08050286 0.6400227 -0.7641271
vn -0.5633921 0.8201886 0.09939861
vn -0.5633921 0.8201886 0.09939861
vn -0.5633921 0.8201886 0.09939861
vn -0.5633921 0.8201886 0.09939861
vn 0.7035743 0.6970745 0.138095
vn 0.7035743 0.6970745 0.138095
vn 0.7035743 0.6970745 0.138095
vn 0.7035743 0.6970745 0.138095
vn -0.09190366 -0.4100163 0.9074361
vn -0.09190366 -0.4100163 0.9074361
vn -0.09190366 -0.4100163 0.9074361
f 3/3/3 2/2/2 1/1/1
f 4/4/4 3/3/3 1/1/1
f 7/7/7 6/6/6 5/5/5
f 8/8/8 7/7/7 5/5/5
f 11/11/11 10/10/10 9/9/9
f 12/12/12 11/11/11 9/9/9
f 15/15/15 14/14/14 13/13/13
f 16/16/16 15/15/15 13/13/13
f 19/19/19 18/18/18 17/17/17
f 17/17/17 18/18/18 20/20/20
f 18/18/18 21/21/21 20/20/20
f 24/24/24 23/23/23 22/22/22
f 23/23/23 25/25/25 22/22/22
f 25/25/25 26/26/26 22/22/22
f 29/29/29 28/28/28 27/27/27
f 28/28/28 29/29/29 30/30/30
f 31/31/31 29/29/29 27/27/27
f 34/34/34 33/33/33 32/32/32
f 33/33/33 34/34/34 35/35/35
f 34/34/34 36/36/36 35/35/35
f 37/37/37 35/35/35 36/36/36
f 40/40/40 39/39/39 38/38/38
f 38/38/38 39/39/39 41/41/41
f 39/39/39 42/42/42 41/41/41
f 41/41/41 42/42/42 43/43/43
f 46/46/46 45/45/45 44/44/44
f 47/47/47 44/44/44 45/45/45
f 48/48/48 46/46/46 44/44/44
f 46/46/46 48/48/48 49/49/49
f 50/50/50 48/48/48 44/44/44
f 51/51/51 49/49/49 48/48/48
f 51/51/51 48/48/48 52/52/52
f 55/55/55 54/54/54 53/53/53
f 56/56/56 55/55/55 53/53/53
f 59/59/59 58/58/58 57/57/57
f 57/57/57 58/58/58 60/60/60
f 60/60/60 58/58/58 61/61/61
f 62/62/62 60/60/60 61/61/61
f 62/62/62 61/61/61 63/63/63
f 66/66/66 65/65/65 64/64/64
f 67/67/67 66/66/66 64/64/64
f 70/70/70 69/69/69 68/68/68
f 71/71/71 69/69/69 70/70/70
f 72/72/72 70/70/70 68/68/68
f 72/72/72 68/68/68 73/73/73
f 76/76/76 75/75/75 74/74/74
f 77/77/77 76/76/76 74/74/74
f 80/80/80 79/79/79 78/78/78
f 78/78/78 79/79/79 81/81/81
f 81/81/81 79/79/79 82/82/82
f 83/83/83 81/81/81 82/82/82
f 83/83/83 82/82/82 84/84/84
f 87/87/87 86/86/86 85/85/85
f 88/88/88 87/87/87 85/85/85
f 91/91/91 90/90/90 89/89/89
f 92/92/92 91/91/91 89/89/89
f 95/95/95 94/94/94 93/93/93
f 96/96/96 95/95/95 93/93/93
f 98/98/98 97/97/97 95/95/95
f 99/99/99 98/98/98 95/95/95
f 102/102/102 101/101/101 100/100/100
f 103/103/103 102/102/102 100/100/100
f 106/106/106 105/105/105 104/104/104
f 105/105/105 106/106/106 107/107/107
f 106/106/106 108/108/108 107/107/107
f 109/109/109 107/107/107 108/108/108
f 107/107/107 109/109/109 110/110/110
f 113/113/113 112/112/112 111/111/111
f 114/114/114 113/113/113 111/111/111
f 113/113/113 114/114/114 115/115/115
f 118/118/118 117/117/117 116/116/116
f 119/119/119 118/118/118 116/116/116
f 118/118/118 121/121/121 120/120/120
f 121/121/121 122/122/122 120/120/120
f 125/125/125 124/124/124 123/123/123
f 126/126/126 125/125/125 123/123/123
f 129/129/129 128/128/128 127/127/127
f 130/130/130 129/129/129 127/127/127
f 133/133/133 132/132/132 131/131/131
f 136/136/136 135/135/135 134/134/134
f 137/137/137 136/136/136 134/134/134
f 140/140/140 139/139/139 138/138/138
f 141/141/141 140/140/140 138/138/138
f 138/138/138 139/139/139 142/142/142
f 139/139/139 143/143/143 142/142/142
f 146/146/146 145/145/145 144/144/144
f 147/147/147 146/146/146 144/144/144
f 150/150/150 149/149/149 148/148/148
f 151/151/151 150/150/150 148/148/148
f 154/154/154 153/153/153 152/152/152
f 155/155/155 154/154/154 152/152/152
f 158/158/158 157/157/157 156/156/156
f 159/159/159 158/158/158 156/156/156
f 162/162/162 161/161/161 160/160/160
f 163/163/163 162/162/162 160/160/160
f 166/166/166 165/165/165 164/164/164
f 167/167/167 166/166/166 164/164/164
f 170/170/170 169/169/169 168/168/168
f 171/171/171 170/170/170 168/168/168
f 168/168/168 169/169/169 172/172/172
f 169/169/169 173/173/173 172/172/172
f 176/176/176 175/175/175 174/174/174
f 177/177/177 176/176/176 174/174/174
f 178/178/178 177/177/177 174/174/174
f 179/179/179 178/178/178 174/174/174
f 182/182/182 181/181/181 180/180/180
f 183/183/183 182/182/182 180/180/180
f 186/186/186 185/185/185 184/184/184
f 187/187/187 186/186/186 184/184/184
f 190/190/190 189/189/189 188/188/188
f 191/191/191 190/190/190 188/188/188
f 194/194/194 193/193/193 192/192/192
f 195/195/195 194/194/194 192/192/192
f 198/198/198 197/197/197 196/196/196
f 199/199/199 198/198/198 196/196/196
f 202/202/202 201/201/201 200/200/200
f 201/201/201 202/202/202 203/203/203
f 201/201/201 204/204/204 200/200/200
f 204/204/204 201/201/201 205/205/205
f 201/201/201 206/206/206 205/205/205
f 207/207/207 205/205/205 206/206/206
f 210/210/210 209/209/209 208/208/208
f 211/211/211 210/210/210 208/208/208
f 214/214/214 213/213/213 212/212/212
f 215/215/215 214/214/214 212/212/212
f 218/218/218 217/217/217 216/216/216
f 219/219/219 218/218/218 216/216/216
f 222/222/222 221/221/221 220/220/220
