g Rock_Flat_crk_m_03
v 0.811643 -0.014801 -0.704534
v 0.57315 0.009123 -0.735835
v 0.671935 -0.011902 -0.569494
v 0.671935 -0.011902 -0.569494
v 0.57315 0.009123 -0.735835
v 0.691874 0.049244 -0.676394
v 0.57315 0.009123 -0.735835
v 0.811643 -0.014801 -0.704534
v 0.691874 0.049244 -0.676394
v 0.811643 -0.014801 -0.704534
v 0.671935 -0.011902 -0.569494
v 0.691874 0.049244 -0.676394
v -0.791391 -0.013185 0.259996
v -0.767803 -0.050165 0.349759
v -0.74974 0.007505 0.313173
v -0.812522 0.001415 0.277123
v -0.791391 -0.013185 0.259996
v -0.74974 0.007505 0.313173
v -0.775036 0.020036 0.324982
v -0.791293 -0.031866 0.35791
v -0.775036 0.020036 0.324982
v -0.74974 0.007505 0.313173
v -0.767803 -0.050165 0.349759
v -0.767803 -0.050165 0.349759
v -0.791391 -0.013185 0.259996
v -0.812522 0.001415 0.277123
v -0.791293 -0.031866 0.35791
v -0.791293 -0.031866 0.35791
v -0.812522 0.001415 0.277123
v -0.775036 0.020036 0.324982
v 0.729734 0.012554 0.649955
v 0.683937 0.025895 0.689044
v 0.682045 -0.004761 0.689871
v 0.727842 -0.018101 0.650782
v 0.768512 0.008575 0.695782
v 0.729734 0.012554 0.649955
v 0.727842 -0.018101 0.650782
v 0.766619 -0.02208 0.696609
v 0.768512 0.008575 0.695782
v 0.766619 -0.02208 0.696609
v 0.720822 -0.00874 0.735698
v 0.722715 0.021916 0.734871
v 0.722715 0.021916 0.734871
v 0.720822 -0.00874 0.735698
v 0.682045 -0.004761 0.689871
v 0.683937 0.025895 0.689044
v 0.727842 -0.018101 0.650782
v 0.682045 -0.004761 0.689871
v 0.720822 -0.00874 0.735698
v 0.766619 -0.02208 0.696609
v 0.722715 0.021916 0.734871
v 0.683937 0.025895 0.689044
v 0.729734 0.012554 0.649955
v 0.768512 0.008575 0.695782
v -0.626448 -0.001135 0.193762
v -0.730031 -0.051316 0.209718
v -0.668326 -0.0285 0.258942
v -0.64615 0.028161 0.200308
v -0.626448 -0.001135 0.193762
v -0.668326 -0.0285 0.258942
v -0.68384 0.003532 0.258971
v -0.739374 -0.017002 0.214669
v -0.68384 0.003532 0.258971
v -0.668326 -0.0285 0.258942
v -0.730031 -0.051316 0.209718
v -0.739374 -0.017002 0.214669
v -0.730031 -0.051316 0.209718
v -0.626448 -0.001135 0.193762
v -0.64615 0.028161 0.200308
v -0.739374 -0.017002 0.214669
v -0.64615 0.028161 0.200308
v -0.68384 0.003532 0.258971
v 0.013569 0.00718 0.859018
v 0.013788 -0.001234 0.85877
v -0.003339 -0.000402 0.815247
v -0.003559 0.008012 0.815494
v 0.039956 0.009648 0.798401
v -0.003559 0.008012 0.815494
v -0.003339 -0.000402 0.815247
v 0.040175 0.001234 0.798154
v 0.039956 0.009648 0.798401
v 0.040175 0.001234 0.798154
v 0.057303 0.000402 0.841677
v 0.057084 0.008816 0.841925
v 0.057084 0.008816 0.841925
v 0.057303 0.000402 0.841677
v 0.013788 -0.001234 0.85877
v 0.013569 0.00718 0.859018
v -0.003339 -0.000402 0.815247
v 0.013788 -0.001234 0.85877
v 0.057303 0.000402 0.841677
v 0.040175 0.001234 0.798154
v 0.039956 0.009648 0.798401
v 0.057084 0.008816 0.841925
v 0.013569 0.00718 0.859018
v -0.003559 0.008012 0.815494
v 0.655037 -0.073703 0.677175
v 0.013194 -0.068702 0.319887
v 0.076587 -0.091745 0.682811
v 0.001477 0.315229 0.34631
v 0.647153 0.184618 0.694954
v 0.382711 0.312258 0.558528
v 0.013194 -0.068702 0.319887
v 0.655037 -0.073703 0.677175
v 0.36199 0.301453 0.70634
v 0.382711 0.312258 0.558528
v 0.647153 0.184618 0.694954
v 0.648217 0.325874 -0.147772
v 0.648217 0.274979 0.636163
v 0.432079 0.363477 0.512696
v 0.573256 0.363477 -0.297021
v 0.074004 -0.02154 -0.082851
v 0.648217 -0.02154 -0.544463
v 0.64252 -0.02154 -0.559066
v 0.648217 -0.02154 0.636163
v 0.010351 -0.02154 0.271786
v 0.573256 0.363477 -0.297021
v 0.074004 0.363477 -0.082851
v 0.513273 0.363477 -0.450803
v 0.432079 0.363477 0.512696
v 0.010351 0.363477 0.271786
v -0.029603 -0.039286 0.277649
v 0.029328 -0.01604 -0.077042
v -0.59165 -0.065661 0.228868
v -0.55714 -0.08766 0.646812
v 0.034177 -0.056649 0.640822
v -0.586347 -0.088462 0.634288
v -0.049514 0.344595 0.299499
v -0.611561 0.31822 0.250718
v 0.009417 0.36784 -0.055192
v -0.609439 0.309098 0.412908
v -0.026058 0.325117 0.66308
v 0.014267 0.327232 0.662672
v -0.6 0.193139 -0.085545
v -0.6 0.263802 0.181064
v -0.6 -0.001017 0.181064
v -0.6 -0.001017 -0.228967
v 0.473059 0.384 -0.493669
v 0.340275 0.384 -0.6
v 0.6 0.101397 -0.6
v 0.025787 0.384 -0.119014
v -0.394778 0.384 -0.158681
v 0.028193 0.384 -0.6
v -0.466057 0.384 0.116836
v 0.340275 0.384 -0.6
v 0.473059 0.384 -0.493669
v -0.244393 -0.001017 -0.6
v 0.025787 -0.001017 -0.119014
v 0.6 -0.001017 -0.6
v -0.6 -0.001017 -0.228967
v -0.6 -0.001017 0.181064
v 0.034177 -0.056649 0.640822
v -0.55714 -0.08766 0.646812
v -0.026058 0.325117 0.66308
v 0.014267 0.327232 0.662672
v 0.648217 0.325874 -0.147772
v 0.648217 -0.02154 -0.544463
v 0.648217 -0.02154 0.636163
v 0.648217 0.274979 0.636163
v -0.244393 -0.001017 -0.6
v 0.6 0.101397 -0.6
v 0.340275 0.384 -0.6
v 0.6 -0.001017 -0.6
v 0.028193 0.384 -0.6
v 0.36199 0.301453 0.70634
v 0.647153 0.184618 0.694954
v 0.064869 0.292186 0.709235
v 0.076587 -0.091745 0.682811
v 0.655037 -0.073703 0.677175
v 0.064869 0.292186 0.709235
v 0.001477 0.315229 0.34631
v 0.382711 0.312258 0.558528
v 0.36199 0.301453 0.70634
v 0.074004 -0.02154 -0.082851
v 0.64252 -0.02154 -0.559066
v 0.513273 0.363477 -0.450803
v 0.074004 0.363477 -0.082851
v -0.59165 -0.065661 0.228868
v 0.029328 -0.01604 -0.077042
v 0.009417 0.36784 -0.055192
v -0.611561 0.31822 0.250718
v 0.648217 0.274979 0.636163
v 0.010351 0.363477 0.271786
v 0.432079 0.363477 0.512696
v 0.010351 -0.02154 0.271786
v 0.648217 -0.02154 0.636163
v 0.513273 0.363477 -0.450803
v 0.648217 0.325874 -0.147772
v 0.573256 0.363477 -0.297021
v 0.648217 -0.02154 -0.544463
v 0.64252 -0.02154 -0.559066
v 0.076587 -0.091745 0.682811
v 0.013194 -0.068702 0.319887
v 0.001477 0.315229 0.34631
v 0.064869 0.292186 0.709235
v 0.009417 0.36784 -0.055192
v 0.029328 -0.01604 -0.077042
v -0.029603 -0.039286 0.277649
v -0.049514 0.344595 0.299499
v -0.029603 -0.039286 0.277649
v 0.034177 -0.056649 0.640822
v 0.014267 0.327232 0.662672
v -0.049514 0.344595 0.299499
v -0.6 0.193139 -0.085545
v -0.394778 0.384 -0.158681
v -0.466057 0.384 0.116836
v -0.6 0.263802 0.181064
v 0.025787 -0.001017 -0.119014
v 0.025787 0.384 -0.119014
v 0.473059 0.384 -0.493669
v 0.6 0.101397 -0.6
v 0.6 -0.001017 -0.6
v 0.025787 -0.001017 -0.119014
v -0.6 -0.001017 0.181064
v -0.6 0.263802 0.181064
v 0.025787 0.384 -0.119014
v -0.466057 0.384 0.116836
v -0.609439 0.309098 0.412908
v -0.586347 -0.088462 0.634288
v -0.59165 -0.065661 0.228868
v -0.611561 0.31822 0.250718
v -0.609439 0.309098 0.412908
v -0.026058 0.325117 0.66308
v -0.55714 -0.08766 0.646812
v -0.586347 -0.088462 0.634288
v -0.244393 -0.001017 -0.6
v 0.028193 0.384 -0.6
v -0.394778 0.384 -0.158681
v -0.6 0.193139 -0.085545
v -0.6 -0.001017 -0.228967
v 0.010351 0.363477 0.271786
v 0.010351 -0.02154 0.271786
v 0.074004 -0.02154 -0.082851
v 0.074004 0.363477 -0.082851
vt 0.5261 0.4399
vt 0.5261 0.4326
vt 0.5215 0.4362
vt 0.5444 0.4413
vt 0.5444 0.4354
vt 0.5423 0.4388
vt 0.5443 0.433
vt 0.5443 0.4257
vt 0.5427 0.4296
vt 0.5388 0.44
vt 0.5444 0.4413
vt 0.5423 0.4388
vt 0.5455 0.4323
vt 0.5455 0.4292
vt 0.5443 0.4307
vt 0.5597 0.4283
vt 0.5589 0.4284
vt 0.5589 0.4304
vt 0.5597 0.4302
vt 0.5585 0.4306
vt 0.5585 0.4324
vt 0.5594 0.4325
vt 0.5594 0.4305
vt 0.5578 0.4305
vt 0.5578 0.4334
vt 0.5585 0.433
vt 0.5585 0.4305
vt 0.5455 0.4381
vt 0.5455 0.4354
vt 0.5444 0.4366
vt 0.5453 0.4396
vt 0.5453 0.4381
vt 0.5444 0.4384
vt 0.5444 0.4398
vt 0.5592 0.4331
vt 0.5592 0.4348
vt 0.5601 0.4347
vt 0.5601 0.433
vt 0.5587 0.438
vt 0.5596 0.4381
vt 0.5596 0.4364
vt 0.5587 0.4362
vt 0.5596 0.4383
vt 0.5587 0.4381
vt 0.5587 0.4396
vt 0.5596 0.4397
vt 0.5578 0.4283
vt 0.5596 0.4283
vt 0.5596 0.4265
vt 0.5578 0.4265
vt 0.5596 0.4247
vt 0.5578 0.4247
vt 0.5578 0.4265
vt 0.5596 0.4265
vt 0.5451 0.4354
vt 0.5429 0.433
vt 0.5427 0.4354
vt 0.5578 0.4303
vt 0.5589 0.4305
vt 0.5589 0.4284
vt 0.5578 0.4283
vt 0.5578 0.4367
vt 0.5578 0.4383
vt 0.5587 0.4379
vt 0.5587 0.4362
vt 0.5454 0.4259
vt 0.5443 0.4257
vt 0.5443 0.4292
vt 0.5454 0.4291
vt 0.5578 0.4228
vt 0.5599 0.4247
vt 0.5599 0.4225
vt 0.5455 0.4306
vt 0.5457 0.4306
vt 0.5457 0.4292
vt 0.5455 0.4292
vt 0.5455 0.4306
vt 0.5455 0.4319
vt 0.5457 0.4319
vt 0.5457 0.4306
vt 0.5454 0.4286
vt 0.5456 0.4286
vt 0.5456 0.4272
vt 0.5454 0.4272
vt 0.5456 0.4257
vt 0.5454 0.4257
vt 0.5454 0.4272
vt 0.5456 0.4272
vt 0.5578 0.4348
vt 0.5592 0.4348
vt 0.5592 0.4334
vt 0.5578 0.4334
vt 0.5578 0.4348
vt 0.5578 0.4362
vt 0.5592 0.4362
vt 0.5592 0.4348
vt 0.5354 0.4832
vt 0.5354 0.4609
vt 0.5268 0.4679
vt 0.5765 0.4309
vt 0.5803 0.4114
vt 0.5765 0.4194
vt 0.5881 0.4307
vt 0.5881 0.4113
vt 0.5924 0.4617
vt 0.5966 0.4633
vt 0.5968 0.4541
vt 0.565 0.4133
vt 0.565 0.3895
vt 0.5584 0.3933
vt 0.5627 0.4179
vt 0.5287 0.4039
vt 0.5459 0.3899
vt 0.5457 0.3895
vt 0.5459 0.4257
vt 0.5268 0.4147
vt 0.5627 0.4179
vt 0.5478 0.4114
vt 0.5609 0.4225
vt 0.5584 0.3933
vt 0.5459 0.4006
vt 0.5818 0.443
vt 0.5837 0.4323
vt 0.565 0.4414
vt 0.5659 0.4541
vt 0.5836 0.4541
vt 0.565 0.4537
vt 0.5933 0.4005
vt 0.5765 0.4021
vt 0.5951 0.4113
vt 0.5766 0.3972
vt 0.5939 0.3895
vt 0.5951 0.3895
vt 0.5822 0.4775
vt 0.5801 0.4855
vt 0.588 0.4855
vt 0.588 0.4731
vt 0.5388 0.4342
vt 0.5427 0.4354
vt 0.5427 0.4257
vt 0.5215 0.4486
vt 0.5125 0.4396
vt 0.5106 0.4581
vt 0.5175 0.4326
vt 0.5165 0.4653
vt 0.5215 0.4664
vt 0.5106 0.4091
vt 0.5268 0.4122
vt 0.5268 0.3895
vt 0.5122 0.4246
vt 0.5216 0.4326
vt 0.5956 0.4496
vt 0.5956 0.4329
vt 0.5841 0.4482
vt 0.5841 0.4494
vt 0.5375 0.4379
vt 0.5268 0.4262
vt 0.5279 0.4609
vt 0.5367 0.4609
vt 0.5459 0.4336
vt 0.5496 0.4591
vt 0.5578 0.451
vt 0.5465 0.4592
vt 0.5576 0.4416
vt 0.5881 0.4196
vt 0.5918 0.4276
vt 0.5881 0.4113
vt 0.5995 0.4116
vt 0.5995 0.4278
vt 0.5881 0.4696
vt 0.5968 0.4766
vt 0.5966 0.4633
vt 0.5924 0.4617
vt 0.5459 0.4596
vt 0.5459 0.477
vt 0.5574 0.4726
vt 0.5574 0.4592
vt 0.5881 0.4731
vt 0.5881 0.4542
vt 0.5766 0.4541
vt 0.5766 0.473
vt 0.5132 0.4799
vt 0.5106 0.4664
vt 0.5106 0.4753
vt 0.5221 0.4665
vt 0.5221 0.48
vt 0.5388 0.4279
vt 0.5375 0.4379
vt 0.5387 0.4329
vt 0.5268 0.4262
vt 0.5268 0.4257
vt 0.6065 0.4323
vt 0.5956 0.4323
vt 0.5956 0.444
vt 0.6065 0.444
vt 0.5651 0.4752
vt 0.5766 0.4754
vt 0.5765 0.4654
vt 0.565 0.4653
vt 0.5765 0.4654
vt 0.5766 0.4543
vt 0.5651 0.4541
vt 0.565 0.4653
vt 0.5822 0.4775
vt 0.5767 0.4756
vt 0.5766 0.4839
vt 0.5801 0.4855
vt 0.565 0.4112
vt 0.5765 0.4112
vt 0.5765 0.3943
vt 0.5681 0.3895
vt 0.565 0.3895
vt 0.565 0.4112
vt 0.565 0.4323
vt 0.5729 0.4323
vt 0.5765 0.4112
vt 0.5765 0.4277
vt 0.5951 0.3944
vt 0.6066 0.4018
vt 0.6066 0.3895
vt 0.5951 0.3895
vt 0.5837 0.4349
vt 0.5841 0.4482
vt 0.5956 0.4329
vt 0.5955 0.4323
vt 0.5459 0.4336
vt 0.5576 0.4416
vt 0.5578 0.4286
vt 0.552 0.4225
vt 0.5461 0.4227
vt 0.5458 0.4726
vt 0.5458 0.4609
vt 0.5354 0.4609
vt 0.5354 0.4726
vn -0.09020158 -0.9933174 -0.07200126
vn -0.09020158 -0.9933174 -0.07200126
vn -0.09020158 -0.9933174 -0.07200126
vn -0.4597034 0.805106 0.3748028
vn -0.4597034 0.805106 0.3748028
vn -0.4597034 0.805106 0.3748028
vn 0.1628006 0.6359025 -0.754403
vn 0.1628006 0.6359025 -0.754403
vn 0.1628006 0.6359025 -0.754403
vn 0.4969117 0.7101167 0.4988117
vn 0.4969117 0.7101167 0.4988117
vn 0.4969117 0.7101167 0.4988117
vn 0.7661892 -0.497793 -0.4063942
vn 0.7661892 -0.497793 -0.4063942
vn 0.7661892 -0.497793 -0.4063942
vn 0.1958022 0.8523094 -0.4850053
vn 0.1958022 0.8523094 -0.4850053
vn 0.1958022 0.8523094 -0.4850053
vn 0.1958022 0.8523094 -0.4850053
vn 0.5286853 0.3303908 0.7818783
vn 0.5286853 0.3303908 0.7818783
vn 0.5286853 0.3303908 0.7818783
vn 0.5286853 0.3303908 0.7818783
vn -0.638718 -0.7559214 -0.1436041
vn -0.638718 -0.7559214 -0.1436041
vn -0.638718 -0.7559214 -0.1436041
vn -0.638718 -0.7559214 -0.1436041
vn -0.7661892 0.497793 0.4063942
vn -0.7661892 0.497793 0.4063942
vn -0.7661892 0.497793 0.4063942
vn -0.6458309 0.01930092 -0.7632365
vn -0.6458309 0.01930092 -0.7632365
vn -0.6458309 0.01930092 -0.7632365
vn -0.6458309 0.01930092 -0.7632365
vn 0.7590039 -0.06430033 -0.6479033
vn 0.7590039 -0.06430033 -0.6479033
vn 0.7590039 -0.06430033 -0.6479033
vn 0.7590039 -0.06430033 -0.6479033
vn 0.6458309 -0.01930092 0.7632365
vn 0.6458309 -0.01930092 0.7632365
vn 0.6458309 -0.01930092 0.7632365
vn 0.6458309 -0.01930092 0.7632365
vn -0.7590039 0.06430033 0.6479033
vn -0.7590039 0.06430033 0.6479033
vn -0.7590039 0.06430033 0.6479033
vn -0.7590039 0.06430033 0.6479033
vn -0.2067057 -0.974227 0.0903025
vn -0.2067057 -0.974227 0.0903025
vn -0.2067057 -0.974227 0.0903025
vn -0.2067057 -0.974227 0.0903025
vn 0.2067057 0.974227 -0.0903025
vn 0.2067057 0.974227 -0.0903025
vn 0.2067057 0.974227 -0.0903025
vn 0.2067057 0.974227 -0.0903025
vn 0.4197985 -0.9010968 -0.1085996
vn 0.4197985 -0.9010968 -0.1085996
vn 0.4197985 -0.9010968 -0.1085996
vn 0.7163175 0.3464085 0.6057148
vn 0.7163175 0.3464085 0.6057148
vn 0.7163175 0.3464085 0.6057148
vn 0.7163175 0.3464085 0.6057148
vn -0.5405905 -0.2624954 0.799286
vn -0.5405905 -0.2624954 0.799286
vn -0.5405905 -0.2624954 0.799286
vn -0.5405905 -0.2624954 0.799286
vn -0.193311 0.08830502 -0.9771556
vn -0.193311 0.08830502 -0.9771556
vn -0.193311 0.08830502 -0.9771556
vn -0.193311 0.08830502 -0.9771556
vn -0.4197985 0.9010968 0.1085996
vn -0.4197985 0.9010968 0.1085996
vn -0.4197985 0.9010968 0.1085996
vn -0.9301934 -0.03499975 0.3653974
vn -0.9301934 -0.03499975 0.3653974
vn -0.9301934 -0.03499975 0.3653974
vn -0.9301934 -0.03499975 0.3653974
vn -0.3661018 0.01780009 -0.9304045
vn -0.3661018 0.01780009 -0.9304045
vn -0.3661018 0.01780009 -0.9304045
vn -0.3661018 0.01780009 -0.9304045
vn 0.9301934 0.03499975 -0.3653974
vn 0.9301934 0.03499975 -0.3653974
vn 0.9301934 0.03499975 -0.3653974
vn 0.9301934 0.03499975 -0.3653974
vn 0.3661018 -0.01780009 0.9304045
vn 0.3661018 -0.01780009 0.9304045
vn 0.3661018 -0.01780009 0.9304045
vn 0.3661018 -0.01780009 0.9304045
vn 0.02600077 -0.9992295 -0.02940087
vn 0.02600077 -0.9992295 -0.02940087
vn 0.02600077 -0.9992295 -0.02940087
vn 0.02600077 -0.9992295 -0.02940087
vn -0.02600077 0.9992295 0.02940087
vn -0.02600077 0.9992295 0.02940087
vn -0.02600077 0.9992295 0.02940087
vn -0.02600077 0.9992295 0.02940087
vn 0.03039942 -0.9971811 -0.0685987
vn 0.03039942 -0.9971811 -0.0685987
vn 0.03039942 -0.9971811 -0.0685987
vn 0.4854707 0.07479549 -0.8710475
vn 0.4854707 0.07479549 -0.8710475
vn 0.4854707 0.07479549 -0.8710475
vn 0.4854707 0.07479549 -0.8710475
vn 0.4854707 0.07479549 -0.8710475
vn 0.3805034 0.9169083 0.1204011
vn 0.3805034 0.9169083 0.1204011
vn 0.3805034 0.9169083 0.1204011
vn 0.3483051 0.9354138 0.06070089
vn 0.3483051 0.9354138 0.06070089
vn 0.3483051 0.9354138 0.06070089
vn 0.3483051 0.9354138 0.06070089
vn 0 -1 0
vn 0 -1 0
vn 0 -1 0
vn 0 -1 0
vn 0 -1 0
vn 0 1 0
vn 0 1 0
vn 0 1 0
vn 0 1 0
vn 0 1 0
vn 0.05170238 -0.9970458 -0.05680261
vn 0.05170238 -0.9970458 -0.05680261
vn 0.05170238 -0.9970458 -0.05680261
vn 0.05170238 -0.9970458 -0.05680261
vn 0.05170238 -0.9970458 -0.05680261
vn 0.05170238 -0.9970458 -0.05680261
vn -0.05170238 0.9970458 0.05680261
vn -0.05170238 0.9970458 0.05680261
vn -0.05170238 0.9970458 0.05680261
vn -0.05170238 0.9970458 0.05680261
vn -0.05170238 0.9970458 0.05680261
vn -0.05170238 0.9970458 0.05680261
vn -1 0 0
vn -1 0 0
vn -1 0 0
vn -1 0 0
vn 0.5420201 0.4981185 -0.6768251
vn 0.5420201 0.4981185 -0.6768251
vn 0.5420201 0.4981185 -0.6768251
vn 0 1 0
vn 0 1 0
vn 0 1 0
vn 0 1 0
vn 0 1 0
vn 0 1 0
vn 0 -1 0
vn 0 -1 0
vn 0 -1 0
vn 0 -1 0
vn 0 -1 0
vn 0.01310051 -0.0561022 0.9983391
vn 0.01310051 -0.0561022 0.9983391
vn 0.01310051 -0.0561022 0.9983391
vn 0.01310051 -0.0561022 0.9983391
vn 1 0 0
vn 1 0 0
vn 1 0 0
vn 1 0 0
vn 0 0 -1
vn 0 0 -1
vn 0 0 -1
vn 0 0 -1
vn 0 0 -1
vn 0.01179994 -0.06829967 0.9975951
vn 0.01179994 -0.06829967 0.9975951
vn 0.01179994 -0.06829967 0.9975951
vn 0.01179994 -0.06829967 0.9975951
vn 0.01179994 -0.06829967 0.9975951
vn -0.03039942 0.9971811 0.0685987
vn -0.03039942 0.9971811 0.0685987
vn -0.03039942 0.9971811 0.0685987
vn -0.03039942 0.9971811 0.0685987
vn -0.6421102 0 -0.7666123
vn -0.6421102 0 -0.7666123
vn -0.6421102 0 -0.7666123
vn -0.6421102 0 -0.7666123
vn -0.4435147 0.02800093 -0.8958296
vn -0.4435147 0.02800093 -0.8958296
vn -0.4435147 0.02800093 -0.8958296
vn -0.4435147 0.02800093 -0.8958296
vn -0.4960097 0 0.8683169
vn -0.4960097 0 0.8683169
vn -0.4960097 0 0.8683169
vn -0.4960097 0 0.8683169
vn -0.4960097 0 0.8683169
vn 0.8605302 0.3832134 -0.3356118
vn 0.8605302 0.3832134 -0.3356118
vn 0.8605302 0.3832134 -0.3356118
vn 0.8605302 0.3832134 -0.3356118
vn 0.8605302 0.3832134 -0.3356118
vn -0.9846825 -0.04169926 0.169297
vn -0.9846825 -0.04169926 0.169297
vn -0.9846825 -0.04169926 0.169297
vn -0.9846825 -0.04169926 0.169297
vn 0.985181 0.0415992 0.1663968
vn 0.985181 0.0415992 0.1663968
vn 0.985181 0.0415992 0.1663968
vn 0.985181 0.0415992 0.1663968
vn 0.9836072 0.06070044 -0.1698012
vn 0.9836072 0.06070044 -0.1698012
vn 0.9836072 0.06070044 -0.1698012
vn 0.9836072 0.06070044 -0.1698012
vn -0.7036453 0.6868442 -0.1820117
vn -0.7036453 0.6868442 -0.1820117
vn -0.7036453 0.6868442 -0.1820117
vn -0.7036453 0.6868442 -0.1820117
vn 0.6421102 0 0.7666123
vn 0.6421102 0 0.7666123
vn 0.6421102 0 0.7666123
vn 0.6421102 0 0.7666123
vn 0.6421102 0 0.7666123
vn 0.4323929 0 0.9016853
vn 0.4323929 0 0.9016853
vn 0.4323929 0 0.9016853
vn 0.4323929 0 0.9016853
vn 0.4323929 0 0.9016853
vn -0.9985752 -0.0523987 0.01009975
vn -0.9985752 -0.0523987 0.01009975
vn -0.9985752 -0.0523987 0.01009975
vn -0.9985752 -0.0523987 0.01009975
vn -0.3646033 0.436704 0.8224075
vn -0.3646033 0.436704 0.8224075
vn -0.3646033 0.436704 0.8224075
vn -0.3646033 0.436704 0.8224075
vn -0.6428363 0.4551257 -0.6161348
vn -0.6428363 0.4551257 -0.6161348
vn -0.6428363 0.4551257 -0.6161348
vn -0.6428363 0.4551257 -0.6161348
vn -0.6428363 0.4551257 -0.6161348
vn -0.9842658 0 -0.1766939
vn -0.9842658 0 -0.1766939
vn -0.9842658 0 -0.1766939
vn -0.9842658 0 -0.1766939
f 3/3/3 2/2/2 1/1/1
f 6/6/6 5/5/5 4/4/4
f 9/9/9 8/8/8 7/7/7
f 12/12/12 11/11/11 10/10/10
f 15/15/15 14/14/14 13/13/13
f 18/18/18 17/17/17 16/16/16
f 19/19/19 18/18/18 16/16/16
f 22/22/22 21/21/21 20/20/20
f 23/23/23 22/22/22 20/20/20
f 26/26/26 25/25/25 24/24/24
f 27/27/27 26/26/26 24/24/24
f 30/30/30 29/29/29 28/28/28
f 33/33/33 32/32/32 31/31/31
f 34/34/34 33/33/33 31/31/31
f 37/37/37 36/36/36 35/35/35
f 38/38/38 37/37/37 35/35/35
f 41/41/41 40/40/40 39/39/39
f 42/42/42 41/41/41 39/39/39
f 45/45/45 44/44/44 43/43/43
f 46/46/46 45/45/45 43/43/43
f 49/49/49 48/48/48 47/47/47
f 50/50/50 49/49/49 47/47/47
f 53/53/53 52/52/52 51/51/51
f 54/54/54 53/53/53 51/51/51
f 57/57/57 56/56/56 55/55/55
f 60/60/60 59/59/59 58/58/58
f 61/61/61 60/60/60 58/58/58
f 64/64/64 63/63/63 62/62/62
f 65/65/65 64/64/64 62/62/62
f 68/68/68 67/67/67 66/66/66
f 69/69/69 68/68/68 66/66/66
f 72/72/72 71/71/71 70/70/70
f 75/75/75 74/74/74 73/73/73
f 76/76/76 75/75/75 73/73/73
f 79/79/79 78/78/78 77/77/77
f 80/80/80 79/79/79 77/77/77
f 83/83/83 82/82/82 81/81/81
f 84/84/84 83/83/83 81/81/81
f 87/87/87 86/86/86 85/85/85
f 88/88/88 87/87/87 85/85/85
f 91/91/91 90/90/90 89/89/89
f 92/92/92 91/91/91 89/89/89
f 95/95/95 94/94/94 93/93/93
f 96/96/96 95/95/95 93/93/93
f 99/99/99 98/98/98 97/97/97
f 102/102/102 101/101/101 100/100/100
f 100/100/100 101/101/101 103/103/103
f 101/101/101 104/104/104 103/103/103
f 107/107/107 106/106/106 105/105/105
f 110/110/110 109/109/109 108/108/108
f 111/111/111 110/110/110 108/108/108
f 114/114/114 113/113/113 112/112/112
f 115/115/115 112/112/112 113/113/113
f 112/112/112 115/115/115 116/116/116
f 119/119/119 118/118/118 117/117/117
f 117/117/117 118/118/118 120/120/120
f 118/118/118 121/121/121 120/120/120
f 124/124/124 123/123/123 122/122/122
f 124/124/124 122/122/122 125/125/125
f 122/122/122 126/126/126 125/125/125
f 127/127/127 124/124/124 125/125/125
f 130/130/130 129/129/129 128/128/128
f 128/128/128 129/129/129 131/131/131
f 132/132/132 128/128/128 131/131/131
f 133/133/133 128/128/128 132/132/132
f 136/136/136 135/135/135 134/134/134
f 137/137/137 136/136/136 134/134/134
f 140/140/140 139/139/139 138/138/138
f 143/143/143 142/142/142 141/141/141
f 144/144/144 141/141/141 142/142/142
f 143/143/143 141/141/141 145/145/145
f 146/146/146 145/145/145 141/141/141
f 149/149/149 148/148/148 147/147/147
f 147/147/147 148/148/148 150/150/150
f 151/151/151 150/150/150 148/148/148
f 154/154/154 153/153/153 152/152/152
f 155/155/155 154/154/154 152/152/152
f 158/158/158 157/157/157 156/156/156
f 159/159/159 158/158/158 156/156/156
f 162/162/162 161/161/161 160/160/160
f 160/160/160 161/161/161 163/163/163
f 164/164/164 162/162/162 160/160/160
f 167/167/167 166/166/166 165/165/165
f 167/167/167 168/168/168 166/166/166
f 168/168/168 169/169/169 166/166/166
f 172/172/172 171/171/171 170/170/170
f 173/173/173 172/172/172 170/170/170
f 176/176/176 175/175/175 174/174/174
f 177/177/177 176/176/176 174/174/174
f 180/180/180 179/179/179 178/178/178
f 181/181/181 180/180/180 178/178/178
f 184/184/184 183/183/183 182/182/182
f 183/183/183 185/185/185 182/182/182
f 185/185/185 186/186/186 182/182/182
f 189/189/189 188/188/188 187/187/187
f 187/187/187 188/188/188 190/190/190
f 191/191/191 187/187/187 190/190/190
f 194/194/194 193/193/193 192/192/192
f 195/195/195 194/194/194 192/192/192
f 198/198/198 197/197/197 196/196/196
f 199/199/199 198/198/198 196/196/196
f 202/202/202 201/201/201 200/200/200
f 203/203/203 202/202/202 200/200/200
f 206/206/206 205/205/205 204/204/204
f 207/207/207 206/206/206 204/204/204
f 210/210/210 209/209/209 208/208/208
f 211/211/211 210/210/210 208/208/208
f 212/212/212 211/211/211 208/208/208
f 215/215/215 214/214/214 213/213/213
f 216/216/216 215/215/215 213/213/213
f 215/215/215 216/216/216 217/217/217
f 220/220/220 219/219/219 218/218/218
f 221/221/221 220/220/220 218/218/218
f 224/224/224 223/223/223 222/222/222
f 225/225/225 224/224/224 222/222/222
f 228/228/228 227/227/227 226/226/226
f 229/229/229 228/228/228 226/226/226
f 229/229/229 226/226/226 230/230/230
f 233/233/233 232/232/232 231/231/231
f 234/234/234 233/233/233 231/231/231
