g Rock_Flat_crk_m_03_Collider
v 0.623663 0.371661 -0.23187
v -0.034889 0.332456 0.562175
v -0.490012 0.375119 -0.171114
v -0.599345 0.364607 0.304766
v 0.016001 0.382365 -0.692979
v 0.623663 0.371661 -0.23187
v 0.343533 0.382365 -0.697301
v -0.034889 0.332456 0.562175
v 0.623663 0.357811 0.595033
v -0.034889 0.332456 0.562175
v 0.623663 0.357811 0.595033
v 0.7 0 0.576891
v 0.343533 0.382365 -0.697301
v 0.7 0 -0.698268
v 0.623663 0.371661 -0.23187
v -0.210422 0 -0.7
v 0.7 0 0.576891
v 0.7 0 -0.698268
v -0.605856 0 -0.332594
v -0.606106 0 0.576891
v -0.210422 0 -0.7
v 0.016001 0.382365 -0.692979
v -0.490012 0.375119 -0.171114
v 0.343533 0.382365 -0.697301
v 0.016001 0.382365 -0.692979
v -0.210422 0 -0.7
v 0.7 0 -0.698268
v -0.606106 0 0.576891
v -0.599345 0.364607 0.304766
v -0.034889 0.332456 0.562175
v -0.599345 0.364607 0.304766
v -0.606106 0 0.576891
v -0.605856 0 -0.332594
v 0.623663 0.371661 -0.23187
v 0.7 0 -0.698268
v 0.7 0 0.576891
v 0.623663 0.357811 0.595033
v -0.034889 0.332456 0.562175
v 0.7 0 0.576891
v -0.606106 0 0.576891
v -0.210422 0 -0.7
v -0.490012 0.375119 -0.171114
v -0.605856 0 -0.332594
v -0.599345 0.364607 0.304766
v -0.605856 0 -0.332594
v -0.490012 0.375119 -0.171114
vn 0.006100037 0.998506 0.05430033
vn 0.006100037 0.998506 0.05430033
vn 0.006100037 0.998506 0.05430033
vn 0.04239977 0.9985945 0.03179983
vn 0.000300012 0.99974 0.02280091
vn -0.03929952 0.9990879 0.0166998
vn 0.000300012 0.99974 0.02280091
vn -0.03929952 0.9990879 0.0166998
vn -0.03929952 0.9990879 0.0166998
vn -0.04740142 -0.06070182 0.9970298
vn -0.04740142 -0.06070182 0.9970298
vn -0.04740142 -0.06070182 0.9970298
vn 0.6728847 0.6282857 -0.3904911
vn 0.6728847 0.6282857 -0.3904911
vn 0.6728847 0.6282857 -0.3904911
vn 0 -1 0
vn 0 -1 0
vn 0 -1 0
vn 0 -1 0
vn 0 -1 0
vn -0.659977 0.402486 -0.6343779
vn -0.659977 0.402486 -0.6343779
vn -0.659977 0.402486 -0.6343779
vn -0.0131996 0.0261992 -0.9995696
vn -0.0131996 0.0261992 -0.9995696
vn -0.0131996 0.0261992 -0.9995696
vn 0.001899979 0.004299953 -0.999989
vn -0.3131893 0.5717804 0.7582741
vn -0.3131893 0.5717804 0.7582741
vn -0.3131893 0.5717804 0.7582741
vn -0.9998325 0.01830059 -0.0003000098
vn -0.9998325 0.01830059 -0.0003000098
vn -0.9998325 0.01830059 -0.0003000098
vn 0.9795522 0.2011902 0
vn 0.9795522 0.2011902 0
vn 0.9795522 0.2011902 0
vn 0.9780154 0.2085033 0.003500055
vn 0 0.044201 0.9990227
vn 0 0.044201 0.9990227
vn 0 0.044201 0.9990227
vn -0.6025092 0.4652071 -0.6485099
vn -0.6025092 0.4652071 -0.6485099
vn -0.6025092 0.4652071 -0.6485099
vn -0.9083788 0.3668914 -0.2005953
vn -0.9083788 0.3668914 -0.2005953
vn -0.9083788 0.3668914 -0.2005953
f 3/3/3 2/2/2 1/1/1
f 2/2/2 3/3/3 4/4/4
f 3/3/3 6/6/6 5/5/5
f 7/7/7 5/5/5 6/6/6
f 9/9/9 6/6/6 8/8/8
f 12/12/12 11/11/11 10/10/10
f 15/15/15 14/14/14 13/13/13
f 18/18/18 17/17/17 16/16/16
f 16/16/16 17/17/17 19/19/19
f 20/20/20 19/19/19 17/17/17
f 23/23/23 22/22/22 21/21/21
f 26/26/26 25/25/25 24/24/24
f 27/27/27 26/26/26 24/24/24
f 30/30/30 29/29/29 28/28/28
f 33/33/33 32/32/32 31/31/31
f 36/36/36 35/35/35 34/34/34
f 37/37/37 36/36/36 34/34/34
f 40/40/40 39/39/39 38/38/38
f 43/43/43 42/42/42 41/41/41
f 46/46/46 45/45/45 44/44/44
