g Rock_Flat_l_05
v -0.316782 1.539679 -0.774191
v -0.197827 1.6 -0.762165
v -1.209348 1.316503 0
v -0.960936 1.6 0.618624
v -1.05161 1.223843 -0.634522
v -0.970097 1.594087 0.61292
v 0.663943 0.142068 -0.779859
v 0.16082 0 -0.758688
v 0.905728 0 -0.436364
v 0.919435 0.106773 -0.609961
v 0.641089 1.6 -0.754031
v 1.185902 1.6 0.041372
v -0.197827 1.6 -0.762165
v 1.046731 1.6 -0.501809
v 0.679837 1.6 0.775956
v 0.968795 1.6 0.584553
v -0.8521 1.6 0.708498
v -0.960936 1.6 0.618624
v 0.726886 0.533333 -0.850992
v -0.392876 0.533333 -0.860186
v 0.16082 0 -0.758688
v -0.307078 0 -0.763225
v 0.663943 0.142068 -0.779859
v 0.16082 0 -0.758688
v 0.518618 0 0.882744
v 1.050413 0 0.380353
v 0.905728 0 -0.436364
v 0.968795 0 0.584553
v -0.54616 0 0.834855
v -0.307078 0 -0.763225
v -1.081112 0 -0.215991
v -0.968795 0 -0.584553
v -0.8521 1.6 0.708498
v -1.086214 1.066667 0.682983
v -0.970097 1.594087 0.61292
v -0.960936 1.6 0.618624
v -0.723814 1.501015 0.845577
v -0.793688 1.066667 0.924542
v -0.958873 0.207984 0.594103
v -0.54616 0 0.834855
v -1.081112 0 -0.215991
v -0.696976 0.103957 0.823486
v -1.179871 0.149607 0
v -1.086214 1.066667 0.682983
v -1.264352 1.066667 0
v -1.209348 1.316503 0
v -0.970097 1.594087 0.61292
v -1.264352 1.066667 0
v -1.086214 1.066667 -0.655402
v -1.05161 1.223843 -0.634522
v -1.209348 1.316503 0
v -0.54616 0 0.834855
v -0.649933 0.552004 0.805835
v 0.575169 0.542375 0.900322
v -0.696976 0.103957 0.823486
v 0.726886 0.533333 -0.850992
v 0.663943 0.142068 -0.779859
v 0.919435 0.106773 -0.609961
v 1.095979 0.533333 -0.616051
v -0.392876 1.066667 -0.860186
v -1.086214 1.066667 -0.655402
v -1.086214 0.533333 -0.655402
v -0.392876 0.533333 -0.860186
v 0.679837 1.6 0.775956
v 0.604415 1.066667 0.979705
v 0.534507 1.50123 0.900701
v 1.086214 1.066667 0.655402
v 0.968795 1.6 0.584553
v 1.095979 0.533333 -0.616051
v 0.905728 0 -0.436364
v 1.242778 0.533333 0.212601
v 1.050413 0 0.380353
v 0.919435 0.106773 -0.609961
v 1.303321 0.751574 0.041372
v 1.16415 0.678585 -0.572657
v 1.303321 0.751574 0.041372
v 1.303321 1.066667 0.041372
v 1.16415 1.066667 -0.572657
v 1.16415 0.678585 -0.572657
v -0.8521 1.6 0.708498
v 0.679837 1.6 0.775956
v 0.534507 1.50123 0.900701
v -0.723814 1.501015 0.845577
v -0.392876 1.066667 -0.860186
v -0.392876 0.533333 -0.860186
v 0.726886 0.533333 -0.850992
v 0.726886 1.066667 -0.850992
v -0.649933 0.552004 0.805835
v -0.793688 1.066667 0.924542
v 0.604415 1.066667 0.979705
v 0.726886 1.066667 -0.850992
v 1.16415 1.066667 -0.572657
v 1.046731 1.6 -0.501809
v 0.641089 1.6 -0.754031
v -0.316782 1.539679 -0.774191
v -0.392876 1.066667 -0.860186
v -0.197827 1.6 -0.762165
v 0.726886 1.066667 -0.850992
v 0.641089 1.6 -0.754031
v 1.050413 0 0.380353
v 0.968795 0 0.584553
v 1.086214 0.533333 0.655402
v 1.242778 0.533333 0.212601
v -0.94246 0.552004 0.564276
v -1.086214 1.066667 0.682983
v -0.793688 1.066667 0.924542
v -0.649933 0.552004 0.805835
v 1.086214 1.066667 0.655402
v 1.086214 0.533333 0.655402
v 0.575169 0.542375 0.900322
v -0.968795 0 -0.584553
v -0.307078 0 -0.763225
v -0.392876 0.533333 -0.860186
v -1.086214 0.533333 -0.655402
v 1.185902 1.6 0.041372
v 1.303321 1.066667 0.041372
v 1.086214 1.066667 0.655402
v -1.081112 0 -0.215991
v -0.968795 0 -0.584553
v -1.086214 0.533333 -0.655402
v -1.264352 0.533333 0
v -1.179871 0.149607 0
v -0.94246 0.552004 0.564276
v -1.264352 0.533333 0
v -1.264352 1.066667 0
v 1.303321 0.751574 0.041372
v 1.086214 1.066667 0.655402
v 1.303321 1.066667 0.041372
v 1.242778 0.533333 0.212601
v 1.086214 0.533333 0.655402
v -1.05161 1.223843 -0.634522
v -1.086214 1.066667 -0.655402
v -0.392876 1.066667 -0.860186
v -0.316782 1.539679 -0.774191
v 0.968795 0 0.584553
v 0.518618 0 0.882744
v 0.575169 0.542375 0.900322
v 1.16415 0.678585 -0.572657
v 0.726886 0.533333 -0.850992
v 1.095979 0.533333 -0.616051
v 0.726886 1.066667 -0.850992
v 1.16415 1.066667 -0.572657
v 1.303321 1.066667 0.041372
v 1.185902 1.6 0.041372
v 1.046731 1.6 -0.501809
v 1.16415 1.066667 -0.572657
v -0.793688 1.066667 0.924542
v -0.723814 1.501015 0.845577
v 0.534507 1.50123 0.900701
v 0.604415 1.066667 0.979705
v -1.179871 0.149607 0
v -1.264352 0.533333 0
v -0.94246 0.552004 0.564276
v -0.958873 0.207984 0.594103
v -0.94246 0.552004 0.564276
v -0.649933 0.552004 0.805835
v -0.696976 0.103957 0.823486
v -1.264352 0.533333 0
v -1.086214 0.533333 -0.655402
v -1.086214 1.066667 -0.655402
v -1.264352 1.066667 0
v -0.54616 0 0.834855
v 0.575169 0.542375 0.900322
v 0.518618 0 0.882744
v -0.649933 0.552004 0.805835
v 0.604415 1.066667 0.979705
v 0.575169 0.542375 0.900322
v 1.086214 1.066667 0.655402
v 0.575169 0.542375 0.900322
v 0.604415 1.066667 0.979705
v 1.185902 1.6 0.041372
v 1.086214 1.066667 0.655402
v 0.968795 1.6 0.584553
v -0.94246 0.552004 0.564276
v -1.264352 1.066667 0
v -1.086214 1.066667 0.682983
v 0.968795 0 0.584553
v 0.575169 0.542375 0.900322
v 1.086214 0.533333 0.655402
v -1.179871 0.149607 0
v -0.94246 0.552004 0.564276
v -0.958873 0.207984 0.594103
vt 0.9253 0.4171
vt 0.925 0.4145
vt 0.9097 0.436
vt 0.8968 0.4298
vt 0.9228 0.4333
vt 0.8969 0.43
vt 0.959 0.4248
vt 0.9586 0.4142
vt 0.9516 0.4294
vt 0.9553 0.4299
vt 0.9253 0.3974
vt 0.9096 0.3863
vt 0.925 0.4145
vt 0.9205 0.3892
vt 0.8945 0.3964
vt 0.8985 0.3906
vt 0.895 0.4275
vt 0.8968 0.4298
vt 0.947 0.4404
vt 0.9469 0.4635
vt 0.9578 0.4523
vt 0.9578 0.4619
vt 0.9549 0.4419
vt 0.9586 0.4142
vt 0.9253 0.4206
vt 0.9351 0.4319
vt 0.9516 0.4294
vt 0.931 0.4301
vt 0.9271 0.3987
vt 0.959 0.4046
vt 0.9486 0.3883
vt 0.9559 0.3908
vt 0.9246 0.476
vt 0.9138 0.4809
vt 0.9245 0.4786
vt 0.9246 0.4784
vt 0.9226 0.4732
vt 0.9138 0.4746
vt 0.9327 0.3906
vt 0.9271 0.3987
vt 0.9486 0.3883
vt 0.9277 0.3957
vt 0.9447 0.3863
vt 0.9868 0.4507
vt 0.9739 0.4528
vt 0.9746 0.458
vt 0.9868 0.4617
vt 0.9739 0.4528
vt 0.9604 0.4552
vt 0.9612 0.4583
vt 0.9746 0.458
vt 0.8921 0.4696
vt 0.9033 0.4718
vt 0.9031 0.4464
vt 0.8943 0.4727
vt 0.947 0.4404
vt 0.9549 0.4419
vt 0.9557 0.4369
vt 0.9471 0.4333
vt 0.9361 0.4635
vt 0.9361 0.4782
vt 0.947 0.4782
vt 0.9469 0.4635
vt 0.9246 0.4443
vt 0.9137 0.4457
vt 0.9226 0.4472
vt 0.9138 0.436
vt 0.9246 0.4385
vt 0.9597 0.4091
vt 0.9624 0.4196
vt 0.9768 0.409
vt 0.9792 0.4195
vt 0.959 0.4175
vt 0.9737 0.4048
vt 0.9609 0.4063
vt 0.9737 0.4048
vt 0.9737 0.3983
vt 0.9609 0.3983
vt 0.9609 0.4063
vt 0.895 0.4275
vt 0.8945 0.3964
vt 0.8921 0.3998
vt 0.8925 0.4253
vt 0.9361 0.4635
vt 0.9469 0.4635
vt 0.947 0.4404
vt 0.9362 0.4404
vt 0.9033 0.4718
vt 0.9138 0.4746
vt 0.9137 0.4457
vt 0.9362 0.4404
vt 0.9363 0.4319
vt 0.9255 0.4345
vt 0.9254 0.4424
vt 0.9266 0.4621
vt 0.9361 0.4635
vt 0.9253 0.4596
vt 0.9362 0.4404
vt 0.9254 0.4424
vt 0.9792 0.4195
vt 0.9828 0.4192
vt 0.9848 0.4084
vt 0.9768 0.409
vt 0.9034 0.4781
vt 0.9138 0.4809
vt 0.9138 0.4746
vt 0.9033 0.4718
vt 0.9138 0.436
vt 0.903 0.4361
vt 0.9031 0.4464
vt 0.9578 0.4759
vt 0.9578 0.4619
vt 0.9469 0.4635
vt 0.947 0.4782
vt 0.9731 0.3871
vt 0.9737 0.3983
vt 0.9848 0.3975
vt 0.9655 0.4319
vt 0.9578 0.4332
vt 0.9586 0.4443
vt 0.9721 0.442
vt 0.9706 0.4342
vt 0.9822 0.4406
vt 0.9721 0.442
vt 0.9739 0.4528
vt 0.9737 0.4048
vt 0.9848 0.3975
vt 0.9737 0.3983
vt 0.9768 0.409
vt 0.9848 0.4084
vt 0.933 0.4775
vt 0.9361 0.4782
vt 0.9361 0.4635
vt 0.9266 0.4621
vt 0.8922 0.4386
vt 0.8921 0.4475
vt 0.9031 0.4464
vt 0.9442 0.4319
vt 0.947 0.4404
vt 0.9471 0.4333
vt 0.9362 0.4404
vt 0.9363 0.4319
vt 0.9737 0.3983
vt 0.9731 0.3871
vt 0.9617 0.387
vt 0.9609 0.3983
vt 0.9138 0.4746
vt 0.9226 0.4732
vt 0.9226 0.4472
vt 0.9137 0.4457
vt 0.9706 0.4342
vt 0.9721 0.442
vt 0.9822 0.4406
vt 0.8964 0.4784
vt 0.9034 0.4781
vt 0.9033 0.4718
vt 0.8943 0.4727
vt 0.9721 0.442
vt 0.9586 0.4443
vt 0.9604 0.4552
vt 0.9739 0.4528
vt 0.8921 0.4696
vt 0.9031 0.4464
vt 0.8921 0.4475
vt 0.9033 0.4718
vt 0.9137 0.4457
vt 0.9031 0.4464
vt 0.9138 0.436
vt 0.9031 0.4464
vt 0.9137 0.4457
vt 0.9731 0.3871
vt 0.9848 0.3975
vt 0.9828 0.3863
vt 0.9822 0.4406
vt 0.9739 0.4528
vt 0.9868 0.4507
vt 0.8922 0.4386
vt 0.9031 0.4464
vt 0.903 0.4361
vt 0.9706 0.4342
vt 0.9822 0.4406
vt 0.9817 0.4335
vn -0.4210015 0.876703 -0.2327008
vn -0.4210015 0.876703 -0.2327008
vn -0.4210015 0.876703 -0.2327008
vn -0.4210015 0.876703 -0.2327008
vn -0.4210015 0.876703 -0.2327008
vn -0.4210015 0.876703 -0.2327008
vn 0.2159986 -0.8391944 -0.4990966
vn 0.2159986 -0.8391944 -0.4990966
vn 0.2159986 -0.8391944 -0.4990966
vn 0.2159986 -0.8391944 -0.4990966
vn 0 1 0
vn 0 1 0
vn 0 1 0
vn 0 1 0
vn 0 1 0
vn 0 1 0
vn 0 1 0
vn 0 1 0
vn 0.008100416 -0.1788092 -0.9838504
vn 0.008100416 -0.1788092 -0.9838504
vn 0.008100416 -0.1788092 -0.9838504
vn 0.009499934 -0.1773988 -0.9840932
vn 0.009499679 -0.1802939 -0.9835669
vn 0 -1 0
vn 0 -1 0
vn 0 -1 0
vn 0 -1 0
vn 0 -1 0
vn 0 -1 0
vn 0 -1 0
vn 0 -1 0
vn 0 -1 0
vn -0.6188106 0.2358041 0.7493129
vn -0.6188106 0.2358041 0.7493129
vn -0.6188106 0.2358041 0.7493129
vn -0.6187643 0.2357864 0.7493567
vn -0.6188106 0.2358041 0.7493129
vn -0.6188106 0.2358041 0.7493129
vn -0.5585275 -0.7792385 0.284314
vn -0.5585275 -0.7792385 0.284314
vn -0.5585275 -0.7792385 0.284314
vn -0.5585275 -0.7792385 0.284314
vn -0.5585275 -0.7792385 0.284314
vn -0.9463935 0.2083986 0.2467983
vn -0.9463935 0.2083986 0.2467983
vn -0.9463935 0.2083986 0.2467983
vn -0.9361953 0.2401988 0.2565987
vn -0.9367703 0.2400924 -0.2545919
vn -0.9367703 0.2400924 -0.2545919
vn -0.9367703 0.2400924 -0.2545919
vn -0.9418539 0.2073899 -0.2643871
vn -0.07650345 0.03800171 0.9963449
vn -0.07650345 0.03800171 0.9963449
vn -0.07650345 0.03800171 0.9963449
vn -0.04490099 0.04400096 0.998022
vn 0.516008 -0.2329036 -0.8243128
vn 0.516008 -0.2329036 -0.8243128
vn 0.516008 -0.2329036 -0.8243128
vn 0.5227876 -0.2280946 -0.8213805
vn -0.2833085 0 -0.9590288
vn -0.2833085 0 -0.9590288
vn -0.2833085 0 -0.9590288
vn -0.2833085 0 -0.9590288
vn 0.5369135 0.2337059 0.8106204
vn 0.5369135 0.2337059 0.8106204
vn 0.5369135 0.2337059 0.8106204
vn 0.5432252 0.2315107 0.8070374
vn 0.5378853 0.2262938 0.8120779
vn 0.9110556 -0.3793815 -0.1613921
vn 0.9110556 -0.3793815 -0.1613921
vn 0.9110556 -0.3793815 -0.1613921
vn 0.9110556 -0.3793815 -0.1613921
vn 0.9110556 -0.3793815 -0.1613921
vn 0.9110556 -0.3793815 -0.1613921
vn 0.9110556 -0.3793815 -0.1613921
vn 0.9752751 0 -0.2209944
vn 0.9752751 0 -0.2209944
vn 0.9752751 0 -0.2209944
vn 0.9752751 0 -0.2209944
vn -0.02650018 0.7985054 0.6014041
vn -0.02650018 0.7985054 0.6014041
vn -0.02650018 0.7985054 0.6014041
vn -0.02650018 0.7985054 0.6014041
vn 0.008199724 0 -0.9999664
vn 0.008199724 0 -0.9999664
vn 0.008199724 0 -0.9999664
vn 0.008199724 0 -0.9999664
vn -0.03830049 -0.234703 0.9713123
vn -0.03830049 -0.234703 0.9713123
vn -0.03830049 -0.234703 0.9713123
vn 0.5232878 0.2243948 -0.8220808
vn 0.5232878 0.2243948 -0.8220808
vn 0.5232878 0.2243948 -0.8220808
vn 0.5135028 0.2328013 -0.8259046
vn 0.009499934 0.1773988 -0.9840932
vn 0.009499934 0.1773988 -0.9840932
vn 0.009499934 0.1773988 -0.9840932
vn 0.009499679 0.1802939 -0.9835669
vn 0.009499679 0.1802939 -0.9835669
vn 0.9000861 -0.2458962 0.3596945
vn 0.9000861 -0.2458962 0.3596945
vn 0.9000861 -0.2458962 0.3596945
vn 0.917755 -0.2289888 0.3244841
vn -0.5999077 -0.3351043 0.7265093
vn -0.5999077 -0.3351043 0.7265093
vn -0.5999077 -0.3351043 0.7265093
vn -0.5999077 -0.3351043 0.7265093
vn 0.4321914 0 0.9017819
vn 0.4321914 0 0.9017819
vn 0.4321914 0 0.9017819
vn -0.2546959 -0.2124966 -0.9433849
vn -0.2546959 -0.2124966 -0.9433849
vn -0.2546959 -0.2124966 -0.9433849
vn -0.2783088 -0.1864059 -0.9422298
vn 0.9231273 0.203206 0.3264097
vn 0.9231273 0.203206 0.3264097
vn 0.9231273 0.203206 0.3264097
vn -0.9281783 -0.2418943 -0.2827934
vn -0.9281783 -0.2418943 -0.2827934
vn -0.9281783 -0.2418943 -0.2827934
vn -0.9360411 -0.206109 -0.2852125
vn -0.9360411 -0.206109 -0.2852125
vn -0.868606 0 0.4955034
vn -0.868606 0 0.4955034
vn -0.868606 0 0.4955034
vn 0.9427871 0 0.3333954
vn 0.9427871 0 0.3333954
vn 0.9427871 0 0.3333954
vn 0.9427871 0 0.3333954
vn 0.9427871 0 0.3333954
vn -0.2783088 0.1864059 -0.9422298
vn -0.2783088 0.1864059 -0.9422298
vn -0.2783088 0.1864059 -0.9422298
vn -0.2704101 0.214108 -0.9386352
vn 0.5503002 -0.08430004 0.8307004
vn 0.5503002 -0.08430004 0.8307004
vn 0.5503002 -0.08430004 0.8307004
vn 0.536992 0 -0.8435873
vn 0.536992 0 -0.8435873
vn 0.536992 0 -0.8435873
vn 0.536992 0 -0.8435873
vn 0.536992 0 -0.8435873
vn 0.9474075 0.2086017 -0.2427019
vn 0.9474075 0.2086017 -0.2427019
vn 0.9474075 0.2086017 -0.2427019
vn 0.9474674 0.2370919 -0.2146926
vn -0.04300093 0.185404 0.9817211
vn -0.04300093 0.185404 0.9817211
vn -0.04300093 0.185404 0.9817211
vn -0.03880038 0.1727017 0.9842097
vn -0.8505678 -0.1872929 0.4913814
vn -0.8505678 -0.1872929 0.4913814
vn -0.8505678 -0.1872929 0.4913814
vn -0.6336994 0.0967999 0.7674991
vn -0.6336994 0.0967999 0.7674991
vn -0.6336994 0.0967999 0.7674991
vn -0.6336994 0.0967999 0.7674991
vn -0.9649873 0 -0.2622966
vn -0.9649873 0 -0.2622966
vn -0.9649873 0 -0.2622966
vn -0.9649873 0 -0.2622966
vn -0.04490033 -0.0277002 0.9986073
vn -0.04490033 -0.0277002 0.9986073
vn -0.04490033 -0.0277002 0.9986073
vn -0.07720117 -0.1450022 0.9864149
vn -0.07720117 -0.1450022 0.9864149
vn -0.07720117 -0.1450022 0.9864149
vn 0.5516694 -0.1548914 0.8195545
vn 0.5516694 -0.1548914 0.8195545
vn 0.5516694 -0.1548914 0.8195545
vn 0.9000861 0.2458962 0.3596945
vn 0.9000861 0.2458962 0.3596945
vn 0.9000861 0.2458962 0.3596945
vn -0.9192895 -0.3120964 0.2397972
vn -0.9192895 -0.3120964 0.2397972
vn -0.9192895 -0.3120964 0.2397972
vn 0.4195831 -0.2096916 0.8831645
vn 0.4195831 -0.2096916 0.8831645
vn 0.4195831 -0.2096916 0.8831645
vn -0.9370116 0.07430092 0.3413042
vn -0.9370116 0.07430092 0.3413042
vn -0.9370116 0.07430092 0.3413042
f 3/3/3 2/2/2 1/1/1
f 2/2/2 3/3/3 4/4/4
f 5/5/5 3/3/3 1/1/1
f 6/6/6 4/4/4 3/3/3
f 9/9/9 8/8/8 7/7/7
f 10/10/10 9/9/9 7/7/7
f 13/13/13 12/12/12 11/11/11
f 11/11/11 12/12/12 14/14/14
f 12/12/12 13/13/13 15/15/15
f 12/12/12 15/15/15 16/16/16
f 13/13/13 17/17/17 15/15/15
f 18/18/18 17/17/17 13/13/13
f 21/21/21 20/20/20 19/19/19
f 20/20/20 21/21/21 22/22/22
f 23/23/23 21/21/21 19/19/19
f 26/26/26 25/25/25 24/24/24
f 26/26/26 24/24/24 27/27/27
f 25/25/25 26/26/26 28/28/28
f 25/25/25 29/29/29 24/24/24
f 29/29/29 30/30/30 24/24/24
f 30/30/30 29/29/29 31/31/31
f 32/32/32 30/30/30 31/31/31
f 35/35/35 34/34/34 33/33/33
f 35/35/35 33/33/33 36/36/36
f 33/33/33 34/34/34 37/37/37
f 34/34/34 38/38/38 37/37/37
f 41/41/41 40/40/40 39/39/39
f 42/42/42 39/39/39 40/40/40
f 43/43/43 41/41/41 39/39/39
f 46/46/46 45/45/45 44/44/44
f 47/47/47 46/46/46 44/44/44
f 50/50/50 49/49/49 48/48/48
f 51/51/51 50/50/50 48/48/48
f 54/54/54 53/53/53 52/52/52
f 55/55/55 52/52/52 53/53/53
f 58/58/58 57/57/57 56/56/56
f 59/59/59 58/58/58 56/56/56
f 62/62/62 61/61/61 60/60/60
f 63/63/63 62/62/62 60/60/60
f 66/66/66 65/65/65 64/64/64
f 64/64/64 65/65/65 67/67/67
f 68/68/68 64/64/64 67/67/67
f 71/71/71 70/70/70 69/69/69
f 70/70/70 71/71/71 72/72/72
f 69/69/69 70/70/70 73/73/73
f 74/74/74 71/71/71 69/69/69
f 69/69/69 75/75/75 74/74/74
f 78/78/78 77/77/77 76/76/76
f 79/79/79 78/78/78 76/76/76
f 82/82/82 81/81/81 80/80/80
f 83/83/83 82/82/82 80/80/80
f 86/86/86 85/85/85 84/84/84
f 87/87/87 86/86/86 84/84/84
f 90/90/90 89/89/89 88/88/88
f 93/93/93 92/92/92 91/91/91
f 94/94/94 93/93/93 91/91/91
f 97/97/97 96/96/96 95/95/95
f 96/96/96 97/97/97 98/98/98
f 97/97/97 99/99/99 98/98/98
f 102/102/102 101/101/101 100/100/100
f 103/103/103 102/102/102 100/100/100
f 106/106/106 105/105/105 104/104/104
f 107/107/107 106/106/106 104/104/104
f 110/110/110 109/109/109 108/108/108
f 113/113/113 112/112/112 111/111/111
f 114/114/114 113/113/113 111/111/111
f 117/117/117 116/116/116 115/115/115
f 120/120/120 119/119/119 118/118/118
f 121/121/121 120/120/120 118/118/118
f 121/121/121 118/118/118 122/122/122
f 125/125/125 124/124/124 123/123/123
f 128/128/128 127/127/127 126/126/126
f 126/126/126 127/127/127 129/129/129
f 127/127/127 130/130/130 129/129/129
f 133/133/133 132/132/132 131/131/131
f 134/134/134 133/133/133 131/131/131
f 137/137/137 136/136/136 135/135/135
f 140/140/140 139/139/139 138/138/138
f 139/139/139 141/141/141 138/138/138
f 141/141/141 142/142/142 138/138/138
f 145/145/145 144/144/144 143/143/143
f 146/146/146 145/145/145 143/143/143
f 149/149/149 148/148/148 147/147/147
f 150/150/150 149/149/149 147/147/147
f 153/153/153 152/152/152 151/151/151
f 156/156/156 155/155/155 154/154/154
f 157/157/157 156/156/156 154/154/154
f 160/160/160 159/159/159 158/158/158
f 161/161/161 160/160/160 158/158/158
f 164/164/164 163/163/163 162/162/162
f 167/167/167 166/166/166 165/165/165
f 170/170/170 169/169/169 168/168/168
f 173/173/173 172/172/172 171/171/171
f 176/176/176 175/175/175 174/174/174
f 179/179/179 178/178/178 177/177/177
f 182/182/182 181/181/181 180/180/180
