g rotor_tail
v -0.09022844 -1.377662 1.172965
v -0.1387092 -1.377662 1.172965
v -0.1387092 -1.221446 1.326488
v -0.09022844 -1.221446 1.326488
v -0.1387092 -0.2868443 0.4619143
v -0.1387092 -1.221446 1.326488
v -0.1387092 -1.377662 1.172965
v -0.1387092 -0.4430601 0.3056984
v -0.1387092 -0.06060076 0.1063887
v -0.09022844 -0.06060076 0.1063887
v -0.09022844 0.004040241 0.1710296
v -0.1387092 0.004040241 0.1710296
v -0.1387092 -0.4430601 0.3056984
v -0.1387092 -1.377662 1.172965
v -0.09022844 -1.377662 1.172965
v -0.09022844 -0.4430601 0.3056984
v -0.09022844 -0.2868443 0.4619143
v -0.09022844 -0.4430601 0.3056984
v -0.09022844 -1.377662 1.172965
v -0.09022844 -1.221446 1.326488
v -0.1387092 -0.2868443 0.4619143
v -0.09022844 -0.2868443 0.4619143
v -0.09022844 -1.221446 1.326488
v -0.1387092 -1.221446 1.326488
v -0.1387092 -0.4430601 0.3056984
v -0.1387092 -0.1791092 0.224897
v -0.1387092 -0.1144682 0.2868448
v -0.1387092 -0.2868443 0.4619143
v -0.1387092 0.004040241 0.1710296
v -0.1387092 -0.06060076 0.1063887
v -0.1387092 -0.2868443 0.4619143
v -0.1387092 -0.1144682 0.2868448
v -0.09022844 -0.1144682 0.2868448
v -0.09022844 -0.2868443 0.4619143
v -0.09022844 0.004040241 0.1710296
v -0.1387092 0.004040241 0.1710296
v -0.09022844 -0.2868443 0.4619143
v -0.09022844 -0.1144682 0.2868448
v -0.09022844 -0.1791092 0.224897
v -0.09022844 -0.4430601 0.3056984
v -0.09022844 -0.06060076 0.1063887
v -0.09022844 0.004040241 0.1710296
v -0.09022844 -0.4430601 0.3056984
v -0.09022844 -0.1791092 0.224897
v -0.1387092 -0.1791092 0.224897
v -0.1387092 -0.4430601 0.3056984
v -0.09022844 -0.1791092 0.224897
v -0.09022844 -0.06060076 0.1063887
v -0.1387092 -0.06060076 0.1063887
v -0.1387092 -0.1791092 0.224897
v -0.07406795 0.001346946 -0.2006563
v -0.1683363 0.001346946 -0.2006563
v -0.1683363 -0.2006563 0.001346946
v -0.07406795 -0.2006563 0.001346946
v -0.1683363 0.001346946 -0.2006563
v -0.1683363 0.2006568 0.001346946
v -0.1683363 0.001346946 0.2006568
v -0.1683363 -0.2006563 0.001346946
v -0.1683363 0.2006568 0.001346946
v -0.07406795 0.2006568 0.001346946
v -0.07406795 0.001346946 0.2006568
v -0.1683363 0.001346946 0.2006568
v -0.07406795 0.2006568 0.001346946
v -0.07406795 0.001346946 -0.2006563
v -0.07406795 -0.2006563 0.001346946
v -0.07406795 0.001346946 0.2006568
v -0.07406795 -0.2006563 0.001346946
v -0.1683363 -0.2006563 0.001346946
v -0.1683363 0.001346946 0.2006568
v -0.07406795 0.001346946 0.2006568
v -0.07406795 0.2006568 0.001346946
v -0.1683363 0.2006568 0.001346946
v -0.1683363 0.001346946 -0.2006563
v -0.07406795 0.001346946 -0.2006563
v -0.09022844 1.377662 -1.172965
v -0.1387092 1.377662 -1.172965
v -0.1387092 1.221446 -1.326487
v -0.09022844 1.221446 -1.326487
v -0.1387092 0.2868448 -0.4619137
v -0.1387092 1.221446 -1.326487
v -0.1387092 1.377662 -1.172965
v -0.1387092 0.4430606 -0.3056979
v -0.1387092 0.06060112 -0.1063881
v -0.09022844 0.06060112 -0.1063881
v -0.09022844 -0.004039764 -0.1710291
v -0.1387092 -0.004039764 -0.1710291
v -0.1387092 0.4430606 -0.3056979
v -0.1387092 1.377662 -1.172965
v -0.09022844 1.377662 -1.172965
v -0.09022844 0.4430606 -0.3056979
v -0.09022844 0.2868448 -0.4619137
v -0.09022844 0.4430606 -0.3056979
v -0.09022844 1.377662 -1.172965
v -0.09022844 1.221446 -1.326487
v -0.1387092 0.2868448 -0.4619137
v -0.09022844 0.2868448 -0.4619137
v -0.09022844 1.221446 -1.326487
v -0.1387092 1.221446 -1.326487
v -0.1387092 0.4430606 -0.3056979
v -0.1387092 0.1791097 -0.2248967
v -0.1387092 0.1144688 -0.2868443
v -0.1387092 0.2868448 -0.4619137
v -0.1387092 -0.004039764 -0.1710291
v -0.1387092 0.06060112 -0.1063881
v -0.1387092 0.2868448 -0.4619137
v -0.1387092 0.1144688 -0.2868443
v -0.09022844 0.1144688 -0.2868443
v -0.09022844 0.2868448 -0.4619137
v -0.09022844 -0.004039764 -0.1710291
v -0.1387092 -0.004039764 -0.1710291
v -0.09022844 0.2868448 -0.4619137
v -0.09022844 0.1144688 -0.2868443
v -0.09022844 0.1791097 -0.2248967
v -0.09022844 0.4430606 -0.3056979
v -0.09022844 0.06060112 -0.1063881
v -0.09022844 -0.004039764 -0.1710291
v -0.09022844 0.4430606 -0.3056979
v -0.09022844 0.1791097 -0.2248967
v -0.1387092 0.1791097 -0.2248967
v -0.1387092 0.4430606 -0.3056979
v -0.09022844 0.1791097 -0.2248967
v -0.09022844 0.06060112 -0.1063881
v -0.1387092 0.06060112 -0.1063881
v -0.1387092 0.1791097 -0.2248967
v 0.249137 0.001346946 -0.07406759
v -0.09292173 0.001346946 -0.07406759
v -0.09292173 -0.07406759 0.001346946
v 0.249137 -0.07406759 0.001346946
v -0.09292173 0.07406795 0.001346946
v 0.249137 0.07406795 0.001346946
v 0.249137 0.001346946 0.07406795
v -0.09292173 0.001346946 0.07406795
v 0.249137 -0.07406759 0.001346946
v -0.09292173 -0.07406759 0.001346946
v -0.09292173 0.001346946 0.07406795
v 0.249137 0.001346946 0.07406795
v 0.249137 0.07406795 0.001346946
v -0.09292173 0.07406795 0.001346946
v -0.09292173 0.001346946 -0.07406759
v 0.249137 0.001346946 -0.07406759
v -0.1548693 0.001346946 -0.1117748
v -0.2491374 0.001346946 -0.1117748
v -0.2491374 -0.1117748 0.001346946
v -0.1548693 -0.1117748 0.001346946
v -0.2491374 0.001346946 -0.1117748
v -0.2491374 0.1117754 0.001346946
v -0.2491374 0.001346946 0.1117754
v -0.2491374 -0.1117748 0.001346946
v -0.2491374 0.1117754 0.001346946
v -0.1548693 0.1117754 0.001346946
v -0.1548693 0.001346946 0.1117754
v -0.2491374 0.001346946 0.1117754
v -0.1548693 -0.1117748 0.001346946
v -0.2491374 -0.1117748 0.001346946
v -0.2491374 0.001346946 0.1117754
v -0.1548693 0.001346946 0.1117754
v -0.1548693 0.1117754 0.001346946
v -0.2491374 0.1117754 0.001346946
v -0.2491374 0.001346946 -0.1117748
v -0.1548693 0.001346946 -0.1117748
vt 0.9776856 0.08782873
vt 0.9776856 0.09149069
vt 0.9813476 0.09149069
vt 0.9813476 0.08782873
vt 0.9557139 0.1024766
vt 0.9557139 0.09149069
vt 0.944728 0.09149069
vt 0.944728 0.1024766
vt 0.9776856 0.09515265
vt 0.9776856 0.09881462
vt 0.9813476 0.09881462
vt 0.9813476 0.09515265
vt 0.9740236 0.09149069
vt 0.9776856 0.09149069
vt 0.9776856 0.08782873
vt 0.9740236 0.08782873
vt 0.9483899 0.1464201
vt 0.944728 0.1464201
vt 0.944728 0.1354342
vt 0.9483899 0.1354342
vt 0.9886715 0.09149069
vt 0.9886715 0.08782873
vt 0.9813476 0.08782873
vt 0.9813476 0.09149069
vt 0.944728 0.1024766
vt 0.944728 0.1024766
vt 0.9557139 0.1024766
vt 0.9557139 0.1024766
vt 0.9557139 0.1024766
vt 0.944728 0.1024766
vt 0.9813476 0.09515265
vt 0.9813476 0.09515265
vt 0.9813476 0.09881462
vt 0.9813476 0.09881462
vt 0.9813476 0.09881462
vt 0.9813476 0.09515265
vt 0.9483899 0.1464201
vt 0.9483899 0.1464201
vt 0.944728 0.1464201
vt 0.944728 0.1464201
vt 0.944728 0.1464201
vt 0.9483899 0.1464201
vt 0.9776856 0.09881462
vt 0.9776856 0.09881462
vt 0.9776856 0.09515265
vt 0.9776856 0.09515265
vt 0.9776856 0.09881462
vt 0.9776856 0.09881462
vt 0.9776856 0.09515265
vt 0.9776856 0.09515265
vt 0.944728 0.09149069
vt 0.944728 0.09515265
vt 0.9483899 0.09515265
vt 0.9483899 0.09149069
vt 0.9776856 0.05853303
vt 0.9776856 0.06219499
vt 0.9813476 0.06219499
vt 0.9813476 0.05853303
vt 0.9813476 0.1024766
vt 0.9813476 0.1061385
vt 0.9886715 0.1061385
vt 0.9886715 0.1024766
vt 0.9081084 0.09881462
vt 0.9081084 0.1024766
vt 0.9117703 0.1024766
vt 0.9117703 0.09881462
vt 0.9483899 0.09149069
vt 0.9483899 0.09515265
vt 0.9520519 0.09515265
vt 0.9520519 0.09149069
vt 0.9776856 0.09149069
vt 0.9776856 0.09881462
vt 0.9813476 0.09881462
vt 0.9813476 0.09149069
vt 0.9776856 0.08782873
vt 0.9776856 0.09149069
vt 0.9813476 0.09149069
vt 0.9813476 0.08782873
vt 0.9557139 0.1024766
vt 0.9557139 0.09149069
vt 0.944728 0.09149069
vt 0.944728 0.1024766
vt 0.9776856 0.09515265
vt 0.9776856 0.09881462
vt 0.9813476 0.09881462
vt 0.9813476 0.09515265
vt 0.9740236 0.09149069
vt 0.9776856 0.09149069
vt 0.9776856 0.08782873
vt 0.9740236 0.08782873
vt 0.9483899 0.1464201
vt 0.944728 0.1464201
vt 0.944728 0.1354342
vt 0.9483899 0.1354342
vt 0.9886715 0.09149069
vt 0.9886715 0.08782873
vt 0.9813476 0.08782873
vt 0.9813476 0.09149069
vt 0.944728 0.1024766
vt 0.944728 0.1024766
vt 0.9557139 0.1024766
vt 0.9557139 0.1024766
vt 0.9557139 0.1024766
vt 0.944728 0.1024766
vt 0.9813476 0.09515265
vt 0.9813476 0.09515265
vt 0.9813476 0.09881462
vt 0.9813476 0.09881462
vt 0.9813476 0.09881462
vt 0.9813476 0.09515265
vt 0.9483899 0.1464201
vt 0.9483899 0.1464201
vt 0.944728 0.1464201
vt 0.944728 0.1464201
vt 0.944728 0.1464201
vt 0.9483899 0.1464201
vt 0.9776856 0.09881462
vt 0.9776856 0.09881462
vt 0.9776856 0.09515265
vt 0.9776856 0.09515265
vt 0.9776856 0.09881462
vt 0.9776856 0.09881462
vt 0.9776856 0.09515265
vt 0.9776856 0.09515265
vt 0.944728 0.09149069
vt 0.944728 0.09515265
vt 0.9483899 0.09515265
vt 0.9483899 0.09149069
vt 0.9813476 0.1024766
vt 0.9813476 0.1061385
vt 0.9886715 0.1061385
vt 0.9886715 0.1024766
vt 0.9483899 0.09149069
vt 0.9483899 0.09515265
vt 0.9520519 0.09515265
vt 0.9520519 0.09149069
vt 0.9776856 0.09149069
vt 0.9776856 0.09881462
vt 0.9813476 0.09881462
vt 0.9813476 0.09149069
vt 0.9813476 0.09149069
vt 0.9813476 0.09881462
vt 0.9886715 0.09881462
vt 0.9886715 0.09149069
vt 0.9776856 0.05853303
vt 0.9776856 0.06219499
vt 0.9813476 0.06219499
vt 0.9813476 0.05853303
vt 0.9813476 0.1024766
vt 0.9813476 0.1061385
vt 0.9886715 0.1061385
vt 0.9886715 0.1024766
vt 0.9886715 0.09149069
vt 0.9886715 0.09881462
vt 0.9923335 0.09881462
vt 0.9923335 0.09149069
vt 0.9776856 0.09149069
vt 0.9776856 0.09881462
vt 0.9813476 0.09881462
vt 0.9813476 0.09149069
vn -0.01587105 -0.7141957 0.6997661
vn -0.01587105 -0.7141957 0.6997661
vn -0.01587105 -0.7141957 0.6997661
vn -0.01587105 -0.7141957 0.6997661
vn -0.999874 0.01587105 -0.0003439156
vn -0.999874 0.01587105 -0.0003439156
vn -0.999874 0.01587105 -0.0003439156
vn -0.999874 0.01587105 -0.0003439156
vn -0.01587105 0.7141957 -0.6997661
vn -0.01587105 0.7141957 -0.6997661
vn -0.01587105 0.7141957 -0.6997661
vn -0.01587105 0.7141957 -0.6997661
vn -0.01587105 -0.6824536 -0.7307566
vn -0.01587105 -0.6824536 -0.7307566
vn -0.01587105 -0.6824536 -0.7307566
vn -0.01587105 -0.6824536 -0.7307566
vn 0.999874 0.01587105 -0.0003439156
vn 0.999874 0.01587105 -0.0003439156
vn 0.999874 0.01587105 -0.0003439156
vn 0.999874 0.01587105 -0.0003439156
vn -0.01587105 0.6824538 0.7307565
vn -0.01587105 0.6824538 0.7307565
vn -0.01587105 0.6824538 0.7307565
vn -0.01587105 0.6824538 0.7307565
vn -0.999874 0.01587105 -0.0003439156
vn -0.999874 0.01587105 -0.0003439156
vn -0.999874 0.01587105 -0.0003439156
vn -0.999874 0.01587105 -0.0003439156
vn -0.999874 0.01587105 -0.0003439156
vn -0.999874 0.01587105 -0.0003439156
vn -0.01587105 0.6824538 0.7307565
vn -0.01587105 0.7141957 0.6997661
vn -0.01587105 0.7141957 0.6997661
vn -0.01587105 0.6824538 0.7307565
vn -0.01587105 0.7141957 0.6997661
vn -0.01587105 0.7141957 0.6997661
vn 0.999874 0.01587105 -0.0003439156
vn 0.999874 0.01587105 -0.0003439156
vn 0.999874 0.01587105 -0.0003439156
vn 0.999874 0.01587105 -0.0003439156
vn 0.999874 0.01587105 -0.0003439156
vn 0.999874 0.01587105 -0.0003439156
vn -0.01587105 -0.3015493 -0.9533185
vn -0.01587105 -0.3015493 -0.9533185
vn -0.01587105 -0.3015493 -0.9533185
vn -0.01587105 -0.3015493 -0.9533185
vn -0.01587105 -0.7141957 -0.6997661
vn -0.01587105 -0.7141957 -0.6997661
vn -0.01587105 -0.7141957 -0.6997661
vn -0.01587105 -0.7141957 -0.6997661
vn -0.01587105 -0.7141957 -0.6997661
vn -0.01587105 -0.7141957 -0.6997661
vn -0.01587105 -0.7141957 -0.6997661
vn -0.01587105 -0.7141957 -0.6997661
vn -0.999874 0.01587105 -0.0003439156
vn -0.999874 0.01587105 -0.0003439156
vn -0.999874 0.01587105 -0.0003439156
vn -0.999874 0.01587105 -0.0003439156
vn -0.01587105 0.7141957 0.6997661
vn -0.01587105 0.7141957 0.6997661
vn -0.01587105 0.7141957 0.6997661
vn -0.01587105 0.7141957 0.6997661
vn 0.999874 0.01587105 -0.0003439156
vn 0.999874 0.01587105 -0.0003439156
vn 0.999874 0.01587105 -0.0003439156
vn 0.999874 0.01587105 -0.0003439156
vn -0.01587105 -0.7141957 0.6997661
vn -0.01587105 -0.7141957 0.6997661
vn -0.01587105 -0.7141957 0.6997661
vn -0.01587105 -0.7141957 0.6997661
vn -0.01587105 0.7141957 -0.6997661
vn -0.01587105 0.7141957 -0.6997661
vn -0.01587105 0.7141957 -0.6997661
vn -0.01587105 0.7141957 -0.6997661
vn -0.01587105 0.7141957 -0.6997661
vn -0.01587105 0.7141957 -0.6997661
vn -0.01587105 0.7141957 -0.6997661
vn -0.01587105 0.7141957 -0.6997661
vn -0.999874 0.01587105 -0.0003439156
vn -0.999874 0.01587105 -0.0003439156
vn -0.999874 0.01587105 -0.0003439156
vn -0.999874 0.01587105 -0.0003439156
vn -0.01587105 -0.7141957 0.6997661
vn -0.01587105 -0.7141957 0.6997661
vn -0.01587105 -0.7141957 0.6997661
vn -0.01587105 -0.7141957 0.6997661
vn -0.01587105 0.6824538 0.7307565
vn -0.01587105 0.6824538 0.7307565
vn -0.01587105 0.6824538 0.7307565
vn -0.01587105 0.6824538 0.7307565
vn 0.999874 0.01587105 -0.0003439156
vn 0.999874 0.01587105 -0.0003439156
vn 0.999874 0.01587105 -0.0003439156
vn 0.999874 0.01587105 -0.0003439156
vn -0.01587105 -0.6824536 -0.7307566
vn -0.01587105 -0.6824536 -0.7307566
vn -0.01587105 -0.6824536 -0.7307566
vn -0.01587105 -0.6824536 -0.7307566
vn -0.999874 0.01587105 -0.0003439156
vn -0.999874 0.01587105 -0.0003439156
vn -0.999874 0.01587105 -0.0003439156
vn -0.999874 0.01587105 -0.0003439156
vn -0.999874 0.01587105 -0.0003439156
vn -0.999874 0.01587105 -0.0003439156
vn -0.01587105 -0.6824536 -0.7307566
vn -0.01587105 -0.7141957 -0.6997661
vn -0.01587105 -0.7141957 -0.6997661
vn -0.01587105 -0.6824536 -0.7307566
vn -0.01587105 -0.7141957 -0.6997661
vn -0.01587105 -0.7141957 -0.6997661
vn 0.999874 0.01587105 -0.0003439156
vn 0.999874 0.01587105 -0.0003439156
vn 0.999874 0.01587105 -0.0003439156
vn 0.999874 0.01587105 -0.0003439156
vn 0.999874 0.01587105 -0.0003439156
vn 0.999874 0.01587105 -0.0003439156
vn -0.01587105 0.3015493 0.9533185
vn -0.01587105 0.3015493 0.9533185
vn -0.01587105 0.3015493 0.9533185
vn -0.01587105 0.3015493 0.9533185
vn -0.01587105 0.7141957 0.6997661
vn -0.01587105 0.7141957 0.6997661
vn -0.01587105 0.7141957 0.6997661
vn -0.01587105 0.7141957 0.6997661
vn -0.01587105 -0.7141957 -0.6997661
vn -0.01587105 -0.7141957 -0.6997661
vn -0.01587105 -0.7141957 -0.6997661
vn -0.01587105 -0.7141957 -0.6997661
vn -0.01587105 0.7141957 0.6997661
vn -0.01587105 0.7141957 0.6997661
vn -0.01587105 0.7141957 0.6997661
vn -0.01587105 0.7141957 0.6997661
vn -0.01587105 -0.7141957 0.6997661
vn -0.01587105 -0.7141957 0.6997661
vn -0.01587105 -0.7141957 0.6997661
vn -0.01587105 -0.7141957 0.6997661
vn -0.01587105 0.7141957 -0.6997661
vn -0.01587105 0.7141957 -0.6997661
vn -0.01587105 0.7141957 -0.6997661
vn -0.01587105 0.7141957 -0.6997661
vn -0.01587105 -0.7141957 -0.6997661
vn -0.01587105 -0.7141957 -0.6997661
vn -0.01587105 -0.7141957 -0.6997661
vn -0.01587105 -0.7141957 -0.6997661
vn -0.999874 0.01587105 -0.0003439156
vn -0.999874 0.01587105 -0.0003439156
vn -0.999874 0.01587105 -0.0003439156
vn -0.999874 0.01587105 -0.0003439156
vn -0.01587105 0.7141957 0.6997661
vn -0.01587105 0.7141957 0.6997661
vn -0.01587105 0.7141957 0.6997661
vn -0.01587105 0.7141957 0.6997661
vn -0.01587105 -0.7141957 0.6997661
vn -0.01587105 -0.7141957 0.6997661
vn -0.01587105 -0.7141957 0.6997661
vn -0.01587105 -0.7141957 0.6997661
vn -0.01587105 0.7141957 -0.6997661
vn -0.01587105 0.7141957 -0.6997661
vn -0.01587105 0.7141957 -0.6997661
vn -0.01587105 0.7141957 -0.6997661
f 3/3/3 2/2/2 1/1/1
f 4/4/4 3/3/3 1/1/1
f 7/7/7 6/6/6 5/5/5
f 8/8/8 7/7/7 5/5/5
f 11/11/11 10/10/10 9/9/9
f 12/12/12 11/11/11 9/9/9
f 15/15/15 14/14/14 13/13/13
f 16/16/16 15/15/15 13/13/13
f 19/19/19 18/18/18 17/17/17
f 20/20/20 19/19/19 17/17/17
f 23/23/23 22/22/22 21/21/21
f 24/24/24 23/23/23 21/21/21
f 27/27/27 26/26/26 25/25/25
f 28/28/28 27/27/27 25/25/25
f 27/27/27 29/29/29 26/26/26
f 29/29/29 30/30/30 26/26/26
f 33/33/33 32/32/32 31/31/31
f 34/34/34 33/33/33 31/31/31
f 33/33/33 35/35/35 32/32/32
f 35/35/35 36/36/36 32/32/32
f 39/39/39 38/38/38 37/37/37
f 40/40/40 39/39/39 37/37/37
f 39/39/39 41/41/41 38/38/38
f 41/41/41 42/42/42 38/38/38
f 45/45/45 44/44/44 43/43/43
f 46/46/46 45/45/45 43/43/43
f 49/49/49 48/48/48 47/47/47
f 50/50/50 49/49/49 47/47/47
f 53/53/53 52/52/52 51/51/51
f 54/54/54 53/53/53 51/51/51
f 57/57/57 56/56/56 55/55/55
f 58/58/58 57/57/57 55/55/55
f 61/61/61 60/60/60 59/59/59
f 62/62/62 61/61/61 59/59/59
f 65/65/65 64/64/64 63/63/63
f 66/66/66 65/65/65 63/63/63
f 69/69/69 68/68/68 67/67/67
f 70/70/70 69/69/69 67/67/67
f 73/73/73 72/72/72 71/71/71
f 74/74/74 73/73/73 71/71/71
f 77/77/77 76/76/76 75/75/75
f 78/78/78 77/77/77 75/75/75
f 81/81/81 80/80/80 79/79/79
f 82/82/82 81/81/81 79/79/79
f 85/85/85 84/84/84 83/83/83
f 86/86/86 85/85/85 83/83/83
f 89/89/89 88/88/88 87/87/87
f 90/90/90 89/89/89 87/87/87
f 93/93/93 92/92/92 91/91/91
f 94/94/94 93/93/93 91/91/91
f 97/97/97 96/96/96 95/95/95
f 98/98/98 97/97/97 95/95/95
f 101/101/101 100/100/100 99/99/99
f 102/102/102 101/101/101 99/99/99
f 101/101/101 103/103/103 100/100/100
f 103/103/103 104/104/104 100/100/100
f 107/107/107 106/106/106 105/105/105
f 108/108/108 107/107/107 105/105/105
f 107/107/107 109/109/109 106/106/106
f 109/109/109 110/110/110 106/106/106
f 113/113/113 112/112/112 111/111/111
f 114/114/114 113/113/113 111/111/111
f 113/113/113 115/115/115 112/112/112
f 115/115/115 116/116/116 112/112/112
f 119/119/119 118/118/118 117/117/117
f 120/120/120 119/119/119 117/117/117
f 123/123/123 122/122/122 121/121/121
f 124/124/124 123/123/123 121/121/121
f 127/127/127 126/126/126 125/125/125
f 128/128/128 127/127/127 125/125/125
f 131/131/131 130/130/130 129/129/129
f 132/132/132 131/131/131 129/129/129
f 135/135/135 134/134/134 133/133/133
f 136/136/136 135/135/135 133/133/133
f 139/139/139 138/138/138 137/137/137
f 140/140/140 139/139/139 137/137/137
f 143/143/143 142/142/142 141/141/141
f 144/144/144 143/143/143 141/141/141
f 147/147/147 146/146/146 145/145/145
f 148/148/148 147/147/147 145/145/145
f 151/151/151 150/150/150 149/149/149
f 152/152/152 151/151/151 149/149/149
f 155/155/155 154/154/154 153/153/153
f 156/156/156 155/155/155 153/153/153
f 159/159/159 158/158/158 157/157/157
f 160/160/160 159/159/159 157/157/157
