g rubbish_truck_rr02_wheel_mesh
v -0.127858 0.4774447 -0.2756771
v -0.127858 0.2756771 -0.4774446
v 0.1278581 0.2756771 -0.4774446
v 0.1278581 0.4774447 -0.2756771
v -0.127858 0.2756771 -0.4774446
v -0.127858 0.0005394816 -0.5518937
v 0.1278581 0.0005394816 -0.5518937
v 0.1278581 0.2756771 -0.4774446
v -0.127858 0.0005394816 -0.5518937
v -0.127858 -0.2756771 -0.4774446
v 0.1278581 -0.2756771 -0.4774446
v 0.1278581 0.0005394816 -0.5518937
v -0.127858 -0.2756771 -0.4774446
v -0.127858 -0.4774446 -0.2756771
v 0.1278581 -0.4774446 -0.2756771
v 0.1278581 -0.2756771 -0.4774446
v -0.127858 -0.4774446 -0.2756771
v -0.127858 -0.5518937 0.0005394816
v 0.1278581 -0.5518937 0.0005394816
v 0.1278581 -0.4774446 -0.2756771
v -0.127858 -0.5518937 0.0005394816
v -0.127858 -0.4774446 0.2756771
v 0.1278581 -0.4774446 0.2756771
v 0.1278581 -0.5518937 0.0005394816
v -0.127858 -0.4774446 0.2756771
v -0.127858 -0.2756771 0.4774447
v 0.1278581 -0.2756771 0.4774447
v 0.1278581 -0.4774446 0.2756771
v -0.127858 -0.2756771 0.4774447
v -0.127858 0.0005394816 0.5518937
v 0.1278581 0.0005394816 0.5518937
v 0.1278581 -0.2756771 0.4774447
v -0.127858 0.0005394816 0.5518937
v -0.127858 0.2756771 0.4774447
v 0.1278581 0.2756771 0.4774447
v 0.1278581 0.0005394816 0.5518937
v -0.127858 0.2756771 0.4774447
v -0.127858 0.4774447 0.2756771
v 0.1278581 0.4774447 0.2756771
v 0.1278581 0.2756771 0.4774447
v -0.127858 0.4774447 0.2756771
v -0.127858 0.5518937 0.0005394816
v 0.1278581 0.5518937 0.0005394816
v 0.1278581 0.4774447 0.2756771
v -0.127858 0.5518937 0.0005394816
v -0.127858 0.4774447 -0.2756771
v 0.1278581 0.4774447 -0.2756771
v 0.1278581 0.5518937 0.0005394816
v 0.1278581 0.4774447 -0.2756771
v 0.1278581 0.2756771 -0.4774446
v 0.1278581 0.0005394816 0.0005394816
v 0.1278581 0.0005394816 -0.5518937
v 0.1278581 -0.2756771 -0.4774446
v 0.1278581 -0.4774446 -0.2756771
v 0.1278581 -0.5518937 0.0005394816
v 0.1278581 -0.4774446 0.2756771
v 0.1278581 -0.2756771 0.4774447
v 0.1278581 0.0005394816 0.5518937
v 0.1278581 0.2756771 0.4774447
v 0.1278581 0.4774447 0.2756771
v 0.1278581 0.5518937 0.0005394816
v -0.127858 0.4774447 -0.2756771
v -0.127858 0.5518937 0.0005394816
v -0.127858 0.2756771 -0.4774446
v -0.127858 0.5518937 0.0005394816
v -0.127858 0.0005394816 -0.5518937
v -0.127858 0.5518937 0.0005394816
v -0.127858 -0.2756771 -0.4774446
v -0.127858 0.5518937 0.0005394816
v -0.127858 -0.4774446 -0.2756771
v -0.127858 -0.4774446 -0.2756771
v -0.127858 -0.5518937 0.0005394816
v -0.127858 -0.5518937 0.0005394816
v -0.127858 0.5518937 0.0005394816
v -0.127858 -0.4774446 0.2756771
v -0.127858 -0.2756771 0.4774447
v -0.127858 0.0005394816 0.5518937
v -0.127858 0.2756771 0.4774447
v -0.127858 0.4774447 0.2756771
v -0.127858 -0.2756771 0.4774447
v -0.127858 0.5518937 0.0005394816
vt 0.4656084 0.8616698
vt 0.4690228 0.8616698
vt 0.4690228 0.8889843
vt 0.4656084 0.8889843
vt 0.4690228 0.8616698
vt 0.4758514 0.8616698
vt 0.4758514 0.8889843
vt 0.4690228 0.8889843
vt 0.4758514 0.8616698
vt 0.4792657 0.8616698
vt 0.4792657 0.8889843
vt 0.4758514 0.8889843
vt 0.4792657 0.8616698
vt 0.4860944 0.8616698
vt 0.4860944 0.8889843
vt 0.4792657 0.8889843
vt 0.4860944 0.8616698
vt 0.4895087 0.8616698
vt 0.4895087 0.8889843
vt 0.4860944 0.8889843
vt 0.4895087 0.8616698
vt 0.4963374 0.8616698
vt 0.4963374 0.8889843
vt 0.4895087 0.8889843
vt 0.4963374 0.8616698
vt 0.503166 0.8616698
vt 0.503166 0.8889843
vt 0.4963374 0.8889843
vt 0.503166 0.8616698
vt 0.5065803 0.8616698
vt 0.5065803 0.8889843
vt 0.503166 0.8889843
vt 0.5065803 0.8616698
vt 0.513409 0.8616698
vt 0.513409 0.8889843
vt 0.5065803 0.8889843
vt 0.513409 0.8616698
vt 0.5168233 0.8616698
vt 0.5168233 0.8889843
vt 0.513409 0.8889843
vt 0.5168233 0.8616698
vt 0.5236519 0.8616698
vt 0.5236519 0.8889843
vt 0.5168233 0.8889843
vt 0.5236519 0.8616698
vt 0.5270662 0.8616698
vt 0.5270662 0.8889843
vt 0.5236519 0.8889843
vt 0.5338949 0.6465675
vt 0.5714524 0.6568105
vt 0.5338949 0.7216825
vt 0.598767 0.684125
vt 0.60901 0.7216825
vt 0.598767 0.7626544
vt 0.5714524 0.789969
vt 0.5338949 0.800212
vt 0.492923 0.789969
vt 0.4656084 0.7626544
vt 0.4553655 0.7216825
vt 0.4656084 0.684125
vt 0.492923 0.6568105
vt 0.4656084 0.8616698
vt 0.5236519 0.8616698
vt 0.4690228 0.8616698
vt 0.5236519 0.8616698
vt 0.4758514 0.8616698
vt 0.5236519 0.8616698
vt 0.4792657 0.8616698
vt 0.5236519 0.8616698
vt 0.4860944 0.8616698
vt 0.4860944 0.8616698
vt 0.4895087 0.8616698
vt 0.4895087 0.8616698
vt 0.5236519 0.8616698
vt 0.4963374 0.8616698
vt 0.503166 0.8616698
vt 0.5065803 0.8616698
vt 0.513409 0.8616698
vt 0.5168233 0.8616698
vt 0.503166 0.8616698
vt 0.5236519 0.8616698
vn -0.01587105 0.7141957 -0.6997661
vn -0.01587105 0.7141957 -0.6997661
vn -0.01587105 0.7141957 -0.6997661
vn -0.01587105 0.7141957 -0.6997661
vn -0.01587105 0.2698073 -0.9627835
vn -0.01587105 0.2698073 -0.9627835
vn -0.01587105 0.2698073 -0.9627835
vn -0.01587105 0.2698073 -0.9627835
vn -0.01587105 -0.2698073 -0.9627835
vn -0.01587105 -0.2698073 -0.9627835
vn -0.01587105 -0.2698073 -0.9627835
vn -0.01587105 -0.2698073 -0.9627835
vn -0.01587105 -0.7141957 -0.6997661
vn -0.01587105 -0.7141957 -0.6997661
vn -0.01587105 -0.7141957 -0.6997661
vn -0.01587105 -0.7141957 -0.6997661
vn -0.01587105 -0.968132 -0.2499373
vn -0.01587105 -0.968132 -0.2499373
vn -0.01587105 -0.968132 -0.2499373
vn -0.01587105 -0.968132 -0.2499373
vn -0.01587105 -0.968132 0.2499373
vn -0.01587105 -0.968132 0.2499373
vn -0.01587105 -0.968132 0.2499373
vn -0.01587105 -0.968132 0.2499373
vn -0.01587105 -0.7141957 0.6997661
vn -0.01587105 -0.7141957 0.6997661
vn -0.01587105 -0.7141957 0.6997661
vn -0.01587105 -0.7141957 0.6997661
vn -0.01587105 -0.2698073 0.9627835
vn -0.01587105 -0.2698073 0.9627835
vn -0.01587105 -0.2698073 0.9627835
vn -0.01587105 -0.2698073 0.9627835
vn -0.01587105 0.2698073 0.9627835
vn -0.01587105 0.2698073 0.9627835
vn -0.01587105 0.2698073 0.9627835
vn -0.01587105 0.2698073 0.9627835
vn -0.01587105 0.7141957 0.6997661
vn -0.01587105 0.7141957 0.6997661
vn -0.01587105 0.7141957 0.6997661
vn -0.01587105 0.7141957 0.6997661
vn -0.01587105 0.968132 0.249937
vn -0.01587105 0.968132 0.249937
vn -0.01587105 0.968132 0.249937
vn -0.01587105 0.968132 0.249937
vn -0.01587105 0.968132 -0.249937
vn -0.01587105 0.968132 -0.249937
vn -0.01587105 0.968132 -0.249937
vn -0.01587105 0.968132 -0.249937
vn 0.999874 0.01587105 -0.0003439156
vn 0.999874 0.01587105 -0.0003439156
vn 0.999874 0.01587105 -0.0003439156
vn 0.999874 0.01587105 -0.0003439156
vn 0.999874 0.01587105 -0.0003439156
vn 0.999874 0.01587105 -0.0003439156
vn 0.999874 0.01587105 -0.0003439156
vn 0.999874 0.01587105 -0.0003439156
vn 0.999874 0.01587105 -0.0003439156
vn 0.999874 0.01587105 -0.0003439156
vn 0.999874 0.01587105 -0.0003439156
vn 0.999874 0.01587105 -0.0003439156
vn 0.999874 0.01587105 -0.0003439156
vn -0.999874 0.01587105 -0.0003439156
vn -0.999874 0.01587105 -0.0003439156
vn -0.999874 0.01587105 -0.0003439156
vn -0.999874 0.01587105 -0.0003439156
vn -0.999874 0.01587105 -0.0003439156
vn -0.999874 0.01587105 -0.0003439156
vn -0.999874 0.01587105 -0.0003439156
vn -0.999874 0.01587105 -0.0003439156
vn -0.999874 0.01587105 -0.0003439156
vn -0.999874 0.01587105 -0.0003439156
vn -0.999874 0.01587105 -0.0003439156
vn -0.999874 0.01587105 -0.0003439156
vn -0.999874 0.01587105 -0.0003439156
vn -0.999874 0.01587105 -0.0003439156
vn -0.999874 0.01587105 -0.0003439156
vn -0.999874 0.01587105 -0.0003439156
vn -0.999874 0.01587105 -0.0003439156
vn -0.999874 0.01587105 -0.0003439156
vn -0.999874 0.01587105 -0.0003439156
vn -0.999874 0.01587105 -0.0003439156
f 3/3/3 2/2/2 1/1/1
f 4/4/4 3/3/3 1/1/1
f 7/7/7 6/6/6 5/5/5
f 8/8/8 7/7/7 5/5/5
f 11/11/11 10/10/10 9/9/9
f 12/12/12 11/11/11 9/9/9
f 15/15/15 14/14/14 13/13/13
f 16/16/16 15/15/15 13/13/13
f 19/19/19 18/18/18 17/17/17
f 20/20/20 19/19/19 17/17/17
f 23/23/23 22/22/22 21/21/21
f 24/24/24 23/23/23 21/21/21
f 27/27/27 26/26/26 25/25/25
f 28/28/28 27/27/27 25/25/25
f 31/31/31 30/30/30 29/29/29
f 32/32/32 31/31/31 29/29/29
f 35/35/35 34/34/34 33/33/33
f 36/36/36 35/35/35 33/33/33
f 39/39/39 38/38/38 37/37/37
f 40/40/40 39/39/39 37/37/37
f 43/43/43 42/42/42 41/41/41
f 44/44/44 43/43/43 41/41/41
f 47/47/47 46/46/46 45/45/45
f 48/48/48 47/47/47 45/45/45
f 51/51/51 50/50/50 49/49/49
f 51/51/51 52/52/52 50/50/50
f 51/51/51 53/53/53 52/52/52
f 51/51/51 54/54/54 53/53/53
f 51/51/51 55/55/55 54/54/54
f 51/51/51 56/56/56 55/55/55
f 51/51/51 57/57/57 56/56/56
f 51/51/51 58/58/58 57/57/57
f 51/51/51 59/59/59 58/58/58
f 51/51/51 60/60/60 59/59/59
f 51/51/51 61/61/61 60/60/60
f 51/51/51 49/49/49 61/61/61
f 64/64/64 63/63/63 62/62/62
f 66/66/66 65/65/65 64/64/64
f 68/68/68 67/67/67 66/66/66
f 70/70/70 69/69/69 68/68/68
f 72/72/72 63/63/63 71/71/71
f 75/75/75 74/74/74 73/73/73
f 76/76/76 74/74/74 75/75/75
f 78/78/78 74/74/74 77/77/77
f 79/79/79 74/74/74 78/78/78
f 77/77/77 81/81/81 80/80/80
