g Runway_Road
v 6.687999 0.000213623 8.999863
v 7.311788 0.000213623 8.999863
v 6.687999 0.000213623 12.00003
v 7.311788 0.000213623 12.00003
v 7.311788 0.000213623 4.999924
v 7.311788 0.000213623 2.000183
v 6.687999 0.000213623 4.999924
v 14 0.000213623 0.000213623
v 7.311788 0.000213623 0.000213623
v 6.687999 0.000213623 2.000183
v 6.687999 0.000213623 0.000213623
v -0.000213623 0.000213623 0.000213623
v 6.687999 0.000213623 14
v -0.000213623 0.000213623 14
v 14 0.000213623 14
v 7.311788 0.000213623 14
v 6.687999 0.000213623 2.000183
v 6.687999 0.000213623 0.000213623
v 7.311788 0.000213623 0.000213623
v 7.311788 0.000213623 2.000183
v 6.687999 0.000213623 8.999863
v 6.687999 0.000213623 4.999924
v 7.311788 0.000213623 4.999924
v 7.311788 0.000213623 8.999863
v 6.687999 0.000213623 14
v 6.687999 0.000213623 12.00003
v 7.311788 0.000213623 12.00003
v 7.311788 0.000213623 14
vt 0.6477829 0.5918597
vt 0.6477829 0.5918597
vt 0.6477829 0.5918597
vt 0.6477829 0.5918597
vt 0.6477829 0.5918597
vt 0.6477829 0.5918597
vt 0.6477829 0.5918597
vt 0.6477829 0.5918597
vt 0.6477829 0.5918597
vt 0.6477829 0.5918597
vt 0.6477829 0.5918597
vt 0.6477829 0.5918597
vt 0.6477829 0.5918597
vt 0.6477829 0.5918597
vt 0.6477829 0.5918597
vt 0.6477829 0.5918597
vt 0.5079749 0.5896667
vt 0.5079749 0.5896667
vt 0.5485467 0.5896667
vt 0.5485467 0.5896667
vt 0.5079749 0.5896667
vt 0.5079749 0.5896667
vt 0.5485467 0.5896667
vt 0.5485467 0.5896667
vt 0.5079749 0.5896667
vt 0.5079749 0.5896667
vt 0.5485467 0.5896667
vt 0.5485467 0.5896667
vn 0 1 0
vn 0 1 0
vn 0 1 0
vn 0 1 0
vn 0 1 0
vn 0 1 0
vn 0 1 0
vn 0 1 0
vn 0 1 0
vn 0 1 0
vn 0 1 0
vn 0 1 0
vn 0 1 0
vn 0 1 0
vn 0 1 0
vn 0 1 0
vn 0 1 0
vn 0 1 0
vn 0 1 0
vn 0 1 0
vn 0 1 0
vn 0 1 0
vn 0 1 0
vn 0 1 0
vn 0 1 0
vn 0 1 0
vn 0 1 0
vn 0 1 0
f 3/3/3 2/2/2 1/1/1
f 4/4/4 2/2/2 3/3/3
f 5/5/5 2/2/2 4/4/4
f 6/6/6 5/5/5 4/4/4
f 7/7/7 5/5/5 6/6/6
f 3/3/3 1/1/1 7/7/7
f 6/6/6 4/4/4 8/8/8
f 8/8/8 9/9/9 6/6/6
f 3/3/3 7/7/7 10/10/10
f 7/7/7 6/6/6 10/10/10
f 3/3/3 10/10/10 11/11/11
f 11/11/11 12/12/12 3/3/3
f 3/3/3 12/12/12 13/13/13
f 12/12/12 14/14/14 13/13/13
f 8/8/8 4/4/4 15/15/15
f 4/4/4 16/16/16 15/15/15
f 19/19/19 18/18/18 17/17/17
f 20/20/20 19/19/19 17/17/17
f 23/23/23 22/22/22 21/21/21
f 24/24/24 23/23/23 21/21/21
f 27/27/27 26/26/26 25/25/25
f 28/28/28 27/27/27 25/25/25
