g Runway_Connector
v 6.999896 0.0002117157 11.00624
v 0.7175722 0.0002117157 11.00624
v 0.7175722 0.0002117157 10.38245
v 6.999896 0.0002117157 10.38245
v 13.28222 0.0002117157 11.00624
v 13.28222 0.0002117157 10.38245
v -0.0002117157 0.0002117157 0.0002117157
v 0.7175722 0.0002117157 10.38245
v 0.7175722 0.0002117157 11.00624
v -0.0002117157 0.0002117157 28.05106
v 6.999896 0.0002117157 10.38245
v 6.999896 0.0002117157 0.0002117157
v 14 0.0002117157 0.0002117157
v 13.28222 0.0002117157 10.38245
v 14 0.0002117157 28.05106
v 13.28222 0.0002117157 11.00624
v 7.31179 0.0002117157 13.10063
v 6.999896 0.0002117157 11.00624
v 6.688001 0.0002117157 13.10063
v 7.31179 0.0002117157 17.12962
v 7.31179 0.0002117157 20.75871
v 7.31179 0.0002117157 24.7877
v 6.688001 0.0002117157 24.7877
v 6.688001 0.0002117157 17.12962
v 6.688001 0.0002117157 20.75871
v 14 0.0002117157 34.688
v 1.884827 0.0002117157 34.688
v -0.0002117157 0.0002117157 34.688
v 4.985826 0.0002117157 34.688
v 4.985826 0.0002117157 35.31179
v 1.884827 0.0002117157 35.31179
v 14 0.0002117157 42
v 9.013965 0.0002117157 35.31179
v 12.11496 0.0002117157 35.31179
v 9.013965 0.0002117157 34.688
v 14 0.0002117157 35.31179
v 12.11496 0.0002117157 34.688
v -0.0002117157 0.0002117157 35.31179
v -0.0002117157 0.0002117157 42
v 7.31179 0.0002117157 20.75871
v 7.31179 0.0002117157 24.7877
v 6.688001 0.0002117157 24.7877
v 6.688001 0.0002117157 20.75871
v 7.31179 0.0002117157 13.10063
v 7.31179 0.0002117157 17.12962
v 6.688001 0.0002117157 17.12962
v 6.688001 0.0002117157 13.10063
v 12.11496 0.0002117157 34.688
v 14 0.0002117157 34.688
v 14 0.0002117157 35.31179
v 12.11496 0.0002117157 35.31179
v 4.985826 0.0002117157 34.688
v 9.013965 0.0002117157 34.688
v 9.013965 0.0002117157 35.31179
v 4.985826 0.0002117157 35.31179
v -0.0002117157 0.0002117157 34.688
v 1.884827 0.0002117157 34.688
v 1.884827 0.0002117157 35.31179
v -0.0002117157 0.0002117157 35.31179
vt 0.5079749 0.5896667
vt 0.5079749 0.5896667
vt 0.5485467 0.5896667
vt 0.5485467 0.5896667
vt 0.5079749 0.5896667
vt 0.5485467 0.5896667
vt 0.6477829 0.5918597
vt 0.6477829 0.5918597
vt 0.6477829 0.5918597
vt 0.6477829 0.5918597
vt 0.6477829 0.5918597
vt 0.6477829 0.5918597
vt 0.6477829 0.5918597
vt 0.6477829 0.5918597
vt 0.6477829 0.5918597
vt 0.6477829 0.5918597
vt 0.6477829 0.5918597
vt 0.6477829 0.5918597
vt 0.6477829 0.5918597
vt 0.6477829 0.5918597
vt 0.6477829 0.5918597
vt 0.6477829 0.5918597
vt 0.6477829 0.5918597
vt 0.6477829 0.5918597
vt 0.6477829 0.5918597
vt 0.6477829 0.5918597
vt 0.6477829 0.5918597
vt 0.6477829 0.5918597
vt 0.6477829 0.5918597
vt 0.6477829 0.5918597
vt 0.6477829 0.5918597
vt 0.6477829 0.5918597
vt 0.6477829 0.5918597
vt 0.6477829 0.5918597
vt 0.6477829 0.5918597
vt 0.6477829 0.5918597
vt 0.6477829 0.5918597
vt 0.6477829 0.5918597
vt 0.6477829 0.5918597
vt 0.5079749 0.5896667
vt 0.5079749 0.5896667
vt 0.5485467 0.5896667
vt 0.5485467 0.5896667
vt 0.5079749 0.5896667
vt 0.5079749 0.5896667
vt 0.5485467 0.5896667
vt 0.5485467 0.5896667
vt 0.5079749 0.5896667
vt 0.5079749 0.5896667
vt 0.5485467 0.5896667
vt 0.5485467 0.5896667
vt 0.5079749 0.5896667
vt 0.5079749 0.5896667
vt 0.5485467 0.5896667
vt 0.5485467 0.5896667
vt 0.5079749 0.5896667
vt 0.5079749 0.5896667
vt 0.5485467 0.5896667
vt 0.5485467 0.5896667
vn 0 1 0
vn 0 1 0
vn 0 1 0
vn 0 1 0
vn 0 1 0
vn 0 1 0
vn 0 1 0
vn 0 1 0
vn 0 1 0
vn 0 1 0
vn 0 1 0
vn 0 1 0
vn 0 1 0
vn 0 1 0
vn 0 1 0
vn 0 1 0
vn 0 1 0
vn 0 1 0
vn 0 1 0
vn 0 1 0
vn 0 1 0
vn 0 1 0
vn 0 1 0
vn 0 1 0
vn 0 1 0
vn 0 1 0
vn 0 1 0
vn 0 1 0
vn 0 1 0
vn 0 1 0
vn 0 1 0
vn 0 1 0
vn 0 1 0
vn 0 1 0
vn 0 1 0
vn 0 1 0
vn 0 1 0
vn 0 1 0
vn 0 1 0
vn 0 1 0
vn 0 1 0
vn 0 1 0
vn 0 1 0
vn 0 1 0
vn 0 1 0
vn 0 1 0
vn 0 1 0
vn 0 1 0
vn 0 1 0
vn 0 1 0
vn 0 1 0
vn 0 1 0
vn 0 1 0
vn 0 1 0
vn 0 1 0
vn 0 1 0
vn 0 1 0
vn 0 1 0
vn 0 1 0
f 3/3/3 2/2/2 1/1/1
f 4/4/4 3/3/3 1/1/1
f 4/4/4 1/1/1 5/5/5
f 6/6/6 4/4/4 5/5/5
f 9/9/9 8/8/8 7/7/7
f 10/10/10 9/9/9 7/7/7
f 7/7/7 8/8/8 11/11/11
f 12/12/12 7/7/7 11/11/11
f 12/12/12 11/11/11 13/13/13
f 11/11/11 14/14/14 13/13/13
f 15/15/15 13/13/13 14/14/14
f 16/16/16 15/15/15 14/14/14
f 15/15/15 16/16/16 17/17/17
f 16/16/16 18/18/18 17/17/17
f 19/19/19 17/17/17 18/18/18
f 19/19/19 18/18/18 9/9/9
f 19/19/19 9/9/9 10/10/10
f 17/17/17 20/20/20 15/15/15
f 20/20/20 21/21/21 15/15/15
f 21/21/21 22/22/22 15/15/15
f 10/10/10 22/22/22 23/23/23
f 21/21/21 20/20/20 24/24/24
f 10/10/10 24/24/24 19/19/19
f 25/25/25 21/21/21 24/24/24
f 10/10/10 25/25/25 24/24/24
f 10/10/10 23/23/23 25/25/25
f 22/22/22 26/26/26 15/15/15
f 26/26/26 22/22/22 27/27/27
f 28/28/28 27/27/27 22/22/22
f 27/27/27 29/29/29 26/26/26
f 27/27/27 30/30/30 29/29/29
f 31/31/31 30/30/30 27/27/27
f 30/30/30 31/31/31 32/32/32
f 32/32/32 33/33/33 30/30/30
f 32/32/32 34/34/34 33/33/33
f 35/35/35 33/33/33 34/34/34
f 29/29/29 35/35/35 26/26/26
f 32/32/32 36/36/36 34/34/34
f 35/35/35 34/34/34 37/37/37
f 35/35/35 37/37/37 26/26/26
f 32/32/32 31/31/31 38/38/38
f 39/39/39 32/32/32 38/38/38
f 28/28/28 22/22/22 10/10/10
f 42/42/42 41/41/41 40/40/40
f 43/43/43 42/42/42 40/40/40
f 46/46/46 45/45/45 44/44/44
f 47/47/47 46/46/46 44/44/44
f 50/50/50 49/49/49 48/48/48
f 51/51/51 50/50/50 48/48/48
f 54/54/54 53/53/53 52/52/52
f 55/55/55 54/54/54 52/52/52
f 58/58/58 57/57/57 56/56/56
f 59/59/59 58/58/58 56/56/56
