g shoe_2
v 0.40715 -0.08742902 0.2776112
v 0.4092229 -0.08741999 -0.158931
v 0.03472099 -0.08740767 0.2758438
v 0.03679095 -0.08739863 -0.1606956
v 0.03679095 -0.08739863 -0.1606956
v 0.4092229 -0.08741999 -0.158931
v 0.1535546 0.3129334 -0.1601341
v 0.0361033 0.3129334 -0.1604106
v 0.4082093 0.3129334 -0.1595284
v 0.40715 -0.08742902 0.2776112
v 0.03472099 -0.08740767 0.2758438
v 0.03506832 0.3129334 0.2767359
v 0.151478 0.3129334 0.2764062
v 0.4071728 0.3129334 0.2776197
v 0.40715 -0.08742902 0.2776112
v 0.4071728 0.3129334 0.2776197
v 0.4078225 0.3129334 0.1407987
v 0.4092229 -0.08741999 -0.158931
v 0.4082093 0.3129334 -0.1595284
v 0.071083 -0.316622 -0.2776197
v 0.07108303 -0.08741385 -0.1261807
v 0.071083 -0.316622 0.243096
v 0.071083 -0.08741385 0.243096
v 0.071083 -0.08741385 -0.2776197
v 0.071083 -0.004952305 -0.04991268
v 0.071083 -0.004952305 0.166828
v 0.071083 -0.08741385 0.243096
v 0.071083 -0.004952305 0.166828
v 0.3728621 -0.08741385 0.2430989
v 0.3728636 -0.004952305 0.1668266
v 0.3728651 -0.316622 -0.2776182
v 0.3728621 -0.316622 0.2430989
v 0.3728621 -0.08741385 -0.1261836
v 0.3728621 -0.08741385 0.2430989
v 0.3728651 -0.08741385 -0.2776182
v 0.3728608 -0.004952305 -0.04991123
v 0.3728636 -0.004952305 0.1668266
v 0.071083 -0.316622 0.243096
v 0.3728621 -0.316622 0.2430989
v 0.071083 -0.316622 -0.2776197
v 0.3728651 -0.316622 -0.2776182
v 0.071083 -0.316622 -0.2776197
v 0.3728651 -0.316622 -0.2776182
v 0.071083 -0.08741385 -0.2776197
v 0.3728651 -0.08741385 -0.2776182
v 0.3728621 -0.316622 0.2430989
v 0.071083 -0.316622 0.243096
v 0.3728621 -0.08741385 0.2430989
v 0.071083 -0.08741385 0.243096
v 0.3728608 -0.004952305 -0.04991123
v 0.071083 -0.004952305 -0.04991268
v 0.3728621 -0.08741385 -0.1261836
v 0.07108303 -0.08741385 -0.1261807
v 0.3728608 -0.004952305 -0.04991123
v 0.3728636 -0.004952305 0.1668266
v 0.071083 -0.004952305 -0.04991268
v 0.071083 -0.004952305 0.166828
v 0.3728621 -0.08741385 -0.1261836
v 0.07108303 -0.08741385 -0.1261807
v 0.3728651 -0.08741385 -0.2776182
v 0.071083 -0.08741385 -0.2776197
v -0.03607406 -0.08741683 0.2764147
v -0.03681735 -0.08741412 -0.160129
v -0.4085082 -0.08741355 0.2770453
v -0.4092458 -0.08741084 -0.1595012
v -0.03681735 -0.08741412 -0.160129
v -0.03713794 0.3129334 -0.1601303
v -0.1535436 0.3129334 -0.1599297
v -0.4092458 -0.08741084 -0.1595012
v -0.4092422 0.3129334 -0.1598164
v -0.4085082 -0.08741355 0.2770453
v -0.4088734 0.3129334 0.2773337
v -0.291774 0.3129334 0.2768502
v -0.03607406 -0.08741683 0.2764147
v -0.0367663 0.3129334 0.2770184
v -0.4085082 -0.08741355 0.2770453
v -0.4092458 -0.08741084 -0.1595012
v -0.4087358 0.3129334 0.1402213
v -0.4088734 0.3129334 0.2773337
v -0.4092422 0.3129334 -0.1598164
v -0.03681735 -0.08741412 -0.160129
v -0.03607406 -0.08741683 0.2764147
v -0.0367663 0.3129334 0.2770184
v -0.03630352 0.3129334 0.139594
v -0.03713794 0.3129334 -0.1601303
v -0.07177174 -0.08741382 0.243096
v -0.07176597 -0.08741382 -0.1261807
v -0.07177174 -0.316622 0.243096
v -0.07176886 -0.316622 -0.2776167
v -0.07176886 -0.08741382 -0.2776167
v -0.07177176 -0.004952038 -0.04991266
v -0.07177176 -0.004952038 0.166828
v -0.07177174 -0.08741382 0.243096
v -0.3735538 -0.08741382 0.2430989
v -0.07177176 -0.004952038 0.166828
v -0.3735538 -0.004952038 0.1668265
v -0.3735538 -0.08741382 -0.1261836
v -0.3735538 -0.004952038 -0.04991125
v -0.3735538 -0.08741382 0.2430989
v -0.3735538 -0.004952038 0.1668265
v -0.3735538 -0.316622 0.2430989
v -0.3735567 -0.316622 -0.2776182
v -0.3735567 -0.08741382 -0.2776182
v -0.07177174 -0.316622 0.243096
v -0.07176886 -0.316622 -0.2776167
v -0.3735538 -0.316622 0.2430989
v -0.3735567 -0.316622 -0.2776182
v -0.07176886 -0.316622 -0.2776167
v -0.07176886 -0.08741382 -0.2776167
v -0.3735567 -0.316622 -0.2776182
v -0.3735567 -0.08741382 -0.2776182
v -0.3735538 -0.316622 0.2430989
v -0.3735538 -0.08741382 0.2430989
v -0.07177174 -0.316622 0.243096
v -0.07177174 -0.08741382 0.243096
v -0.3735538 -0.004952038 -0.04991125
v -0.3735538 -0.08741382 -0.1261836
v -0.07177176 -0.004952038 -0.04991266
v -0.07176597 -0.08741382 -0.1261807
v -0.3735538 -0.004952038 -0.04991125
v -0.07177176 -0.004952038 -0.04991266
v -0.3735538 -0.004952038 0.1668265
v -0.07177176 -0.004952038 0.166828
v -0.3735538 -0.08741382 -0.1261836
v -0.3735567 -0.08741382 -0.2776182
v -0.07176597 -0.08741382 -0.1261807
v -0.07176886 -0.08741382 -0.2776167
v 0.03539274 0.3129334 0.1390162
v 0.03679095 -0.08739863 -0.1606956
v 0.0361033 0.3129334 -0.1604106
v 0.03506832 0.3129334 0.2767359
v 0.03472099 -0.08740767 0.2758438
v -0.08363531 0.3166221 -0.1057672
v -0.08363531 0.3166221 0.2232528
v -0.3630689 0.3166221 0.2232528
v -0.3630689 0.3166221 -0.1057672
v -0.03713794 0.3129334 -0.1601303
v -0.0367663 0.3129334 0.2770184
v -0.4088734 0.3129334 0.2773337
v -0.4092422 0.3129334 -0.1598164
v 0.3609997 0.3166221 -0.1057672
v 0.3609997 0.3166221 0.2232528
v 0.08156602 0.3166221 0.2232528
v 0.08156602 0.3166221 -0.1057672
v 0.4082093 0.3129334 -0.1595284
v 0.4071728 0.3129334 0.2776197
v 0.03506832 0.3129334 0.2767359
v 0.0361033 0.3129334 -0.1604106
vt 0.2455519 0.0146488
vt 0.3045309 0.01464677
vt 0.2455669 0.06496882
vt 0.3045219 0.06496978
vt 0.1858566 0.01384228
vt 0.2361636 0.01384228
vt 0.2016256 0.06793723
vt 0.1858566 0.06793632
vt 0.2361636 0.0679392
vt 0.07660866 0.01384133
vt 0.1269016 0.01384133
vt 0.1269016 0.06793724
vt 0.1111378 0.06793815
vt 0.07660866 0.06794013
vt 0.07660866 0.01384133
vt 0.07660866 0.06794013
vt 0.05812661 0.06793974
vt 0.01763964 0.01384133
vt 0.01763964 0.0679389
vt 0.3259139 0.3140748
vt 0.3463749 0.3450428
vt 0.3962679 0.3140758
vt 0.396268 0.3450428
vt 0.3259139 0.3450428
vt 0.3566799 0.3561858
vt 0.3859639 0.3561858
vt 0.2190613 0.3108222
vt 0.2342362 0.3108232
vt 0.2190612 0.3516012
vt 0.2342362 0.3516002
vt 0.2441029 0.3127177
vt 0.3144569 0.3127187
vt 0.2645639 0.3436858
vt 0.3144569 0.3436857
vt 0.2441029 0.3436857
vt 0.2748679 0.3548287
vt 0.3041529 0.3548287
vt 0.1880952 0.3108242
vt 0.1880952 0.3515992
vt 0.1177412 0.3108252
vt 0.1177412 0.3515982
vt 0.1177412 0.3108252
vt 0.1177412 0.3515982
vt 0.08677326 0.3108212
vt 0.08677326 0.3516032
vt 0.1880952 0.3515992
vt 0.1880952 0.3108242
vt 0.2190612 0.3516012
vt 0.2190613 0.3108222
vt 0.05123226 0.3516152
vt 0.05123225 0.3108082
vt 0.06635225 0.3516132
vt 0.06635225 0.3108102
vt 0.05123226 0.3516152
vt 0.02198923 0.3516072
vt 0.05123225 0.3108082
vt 0.02198923 0.3108162
vt 0.06635225 0.3516132
vt 0.06635225 0.3108102
vt 0.08677326 0.3516032
vt 0.08677326 0.3108212
vt 0.2505473 0.1815753
vt 0.3095294 0.1815753
vt 0.2505483 0.1312553
vt 0.3095294 0.1312553
vt 0.1906828 0.1327712
vt 0.1906814 0.1868615
vt 0.2064547 0.1868616
vt 0.2410077 0.1327722
vt 0.2410111 0.1868606
vt 0.08137476 0.1327712
vt 0.08137337 0.1868606
vt 0.09714685 0.1868608
vt 0.1317008 0.1327712
vt 0.1317021 0.1868618
vt 0.08137476 0.1327712
vt 0.02239168 0.1327702
vt 0.06288633 0.1868602
vt 0.08137337 0.1868606
vt 0.02239168 0.1868607
vt 0.1906828 0.1327712
vt 0.1317008 0.1327712
vt 0.1317021 0.1868618
vt 0.1501885 0.1868617
vt 0.1906814 0.1868615
vt 0.3968785 0.2843924
vt 0.3469855 0.2843924
vt 0.3968785 0.2534235
vt 0.3265245 0.2534224
vt 0.3265245 0.2843924
vt 0.3572905 0.2955354
vt 0.3865745 0.2955354
vt 0.2180518 0.2509819
vt 0.2180518 0.2917609
vt 0.2332268 0.2509829
vt 0.2332268 0.2917599
vt 0.2619344 0.2854664
vt 0.2722384 0.2966084
vt 0.3118274 0.2854664
vt 0.3015224 0.2966084
vt 0.3118274 0.2544984
vt 0.2414734 0.2544974
vt 0.2414734 0.2854664
vt 0.1870859 0.2509838
vt 0.1167318 0.2509848
vt 0.1870858 0.2917588
vt 0.1167318 0.2917579
vt 0.1167318 0.2509848
vt 0.08576283 0.2509809
vt 0.1167318 0.2917579
vt 0.08576384 0.2917628
vt 0.1870858 0.2917588
vt 0.2180518 0.2917609
vt 0.1870859 0.2509838
vt 0.2180518 0.2509819
vt 0.05022284 0.2917759
vt 0.06534281 0.2917739
vt 0.05022287 0.2509678
vt 0.06534281 0.2509698
vt 0.05022284 0.2917759
vt 0.05022287 0.2509678
vt 0.02097982 0.2917669
vt 0.02097982 0.2509769
vt 0.06534281 0.2917739
vt 0.08576384 0.2917628
vt 0.06534281 0.2509698
vt 0.08576283 0.2509809
vt 0.1453814 0.06793716
vt 0.1858566 0.01384228
vt 0.1858566 0.06793632
vt 0.1269016 0.06793724
vt 0.1269016 0.01384133
vt 0.3823515 0.6112633
vt 0.3823515 0.6116123
vt 0.3827006 0.6116123
vt 0.3827006 0.6112633
vt 0.1637308 0.2085743
vt 0.1637308 0.2254532
vt 0.1806096 0.2254532
vt 0.1806096 0.2085743
vt 0.3823515 0.6112633
vt 0.3823515 0.6116123
vt 0.3827006 0.6116123
vt 0.3827006 0.6112633
vt 0.1637308 0.2085743
vt 0.1637308 0.2254532
vt 0.1806096 0.2254532
vt 0.1806096 0.2085743
vn -5.723432E-05 -1 -2.09919E-05
vn -5.72482E-05 -1 -2.096752E-05
vn -5.724565E-05 -1 -2.097197E-05
vn -5.725954E-05 -1 -2.094759E-05
vn 0.004166567 0.0001874021 -0.9999913
vn 0.003760962 -0.0001922088 -0.9999929
vn 0.003816318 -0.0001404017 -0.9999927
vn 0.004166567 0.0001874021 -0.9999913
vn 0.002378611 -0.001485965 -0.9999961
vn -0.003353887 -0.0004265848 0.9999943
vn -0.002941033 -0.0005469584 0.9999955
vn -0.002941033 -0.0005469584 0.9999955
vn -0.003296362 -0.0004433573 0.9999945
vn -0.004745838 -2.073859E-05 0.9999887
vn 0.9999887 -5.716504E-05 0.004748265
vn 0.9999887 -5.716504E-05 0.004748265
vn 0.9999914 0.0004093943 0.004125105
vn 0.9999925 0.0006335251 0.003825743
vn 0.9999959 0.00253363 0.001287831
vn -1 0 0
vn -1 0 0
vn -1 0 0
vn -1 0 0
vn -1 0 1.889226E-07
vn -1 -2.7557E-07 0
vn -1 0 0
vn -7.022345E-06 0.6789996 0.7341387
vn -4.694102E-06 0.6790043 0.7341343
vn 9.129183E-07 0.6790153 0.7341241
vn 3.240981E-06 0.67902 0.7341197
vn 1 9.204929E-06 5.714165E-06
vn 1 4.00874E-06 2.488515E-06
vn 1 7.385543E-06 4.584741E-06
vn 1 0 0
vn 1 0 1.964851E-05
vn 1 1.256789E-05 -9.515234E-07
vn 1 -3.141823E-05 -1.302438E-05
vn 0 -1 0
vn 0 -1 0
vn 0 -1 0
vn 0 -1 0
vn 4.76486E-06 0 -1
vn 4.76486E-06 0 -1
vn 4.76486E-06 0 -1
vn 4.76486E-06 0 -1
vn -9.706293E-06 0 1
vn -9.654544E-06 0 1
vn -9.669805E-06 0 1
vn -9.618055E-06 0 1
vn 3.55611E-06 0.6790201 -0.7341197
vn -4.622631E-06 0.6790042 -0.7341344
vn 1.156511E-06 0.6790155 -0.734124
vn -7.022347E-06 0.6789995 -0.7341387
vn 0 1 0
vn 0 1 0
vn 0 1 0
vn 0 1 0
vn 0 1 -1.335568E-07
vn 0 1 0
vn 0 1 -1.00313E-07
vn 0 1 0
vn -8.819123E-06 -1 -6.148892E-06
vn -8.819172E-06 -1 -6.17386E-06
vn -8.819163E-06 -1 -6.169292E-06
vn -8.819212E-06 -1 -6.194261E-06
vn -0.001694483 3.597847E-06 -0.9999986
vn -0.001694484 3.597847E-06 -0.9999986
vn -0.001448145 -0.0001520937 -0.9999989
vn -0.001408237 -0.0001773166 -0.999999
vn -0.0004431225 -0.0007872916 -0.9999996
vn 0.002276048 -0.0001761864 0.9999974
vn 0.002276048 -0.0001761864 0.9999974
vn 0.001700017 -0.000437725 0.9999985
vn 0.001608189 -0.000479418 0.9999986
vn -0.0006597776 -0.001509151 0.9999986
vn -0.9999994 -0.0002110137 0.001045741
vn -0.9999992 -0.0001522212 0.001216621
vn -0.9999993 -0.0001712729 0.001161248
vn -0.9999994 -0.0002110137 0.00104574
vn -0.9999986 9.930457E-06 0.001687916
vn 0.9999993 0.0005109272 -0.0010982
vn 0.9999998 0.0004061256 -0.0004887004
vn 0.9999998 0.0004061256 -0.0004887003
vn 0.9999995 0.0004770209 -0.0009010095
vn 0.9999958 0.0008007842 -0.002783938
vn 1 0 1.565023E-05
vn 1 -1.304788E-05 7.531166E-06
vn 1 -7.082273E-06 1.124328E-05
vn 1 -1.626218E-05 5.531065E-06
vn 1 0 -1.914452E-05
vn 1 5.16751E-05 1.450682E-05
vn 1 3.414971E-07 0
vn 7.022266E-06 0.6789985 0.7341397
vn -9.825148E-07 0.6790146 0.7341248
vn 4.67365E-06 0.6790031 0.7341353
vn -3.330989E-06 0.6790193 0.7341204
vn -1 -2.004327E-07 0
vn -1 -1.358912E-07 0
vn -1 2.771541E-07 0
vn -1 6.830031E-07 0
vn -1 3.919657E-06 2.45661E-06
vn -1 0 1.93966E-05
vn -1 0 1.93966E-05
vn 0 -1 0
vn 0 -1 0
vn 0 -1 0
vn 0 -1 0
vn 4.941242E-06 0 -1
vn 4.941242E-06 0 -1
vn 4.941242E-06 0 -1
vn 4.941242E-06 0 -1
vn 9.7062E-06 0 1
vn 9.669712E-06 0 1
vn 9.654452E-06 0 1
vn 9.617962E-06 0 1
vn -3.511043E-06 0.6790192 -0.7341205
vn -1.111511E-06 0.6790145 -0.7341249
vn 4.667619E-06 0.6790031 -0.7341353
vn 7.067146E-06 0.6789985 -0.7341397
vn 0 1 0
vn 0 1 0
vn 0 1 0
vn 0 1 0
vn 0 1 0
vn 0 1 0
vn 0 1 0
vn 0 1 -1.335517E-07
vn -0.9999926 -0.0001003396 -0.003847182
vn -0.9999931 -0.0002689209 -0.003693371
vn -0.9999957 -0.001715996 -0.002373069
vn -0.9999913 0.0002529033 -0.004169476
vn -0.9999913 0.0002529033 -0.004169476
vn 0 1 0
vn 0 1 0
vn 0 1 0
vn 0 1 0
vn -1.025164E-07 1 0
vn -1.025164E-07 1 0
vn -1.025164E-07 1 0
vn -1.025164E-07 1 0
vn 0 1 0
vn 0 1 0
vn 0 1 0
vn 0 1 0
vn 0 1 1.404137E-07
vn 0 1 1.404137E-07
vn 0 1 1.404137E-07
vn 0 1 1.404137E-07
f 3/3/3 2/2/2 1/1/1
f 3/3/3 4/4/4 2/2/2
f 7/7/7 6/6/6 5/5/5
f 8/8/8 7/7/7 5/5/5
f 7/7/7 9/9/9 6/6/6
f 12/12/12 11/11/11 10/10/10
f 13/13/13 12/12/12 10/10/10
f 13/13/13 10/10/10 14/14/14
f 17/17/17 16/16/16 15/15/15
f 18/18/18 17/17/17 15/15/15
f 17/17/17 18/18/18 19/19/19
f 22/22/22 21/21/21 20/20/20
f 22/22/22 23/23/23 21/21/21
f 24/24/24 20/20/20 21/21/21
f 25/25/25 21/21/21 23/23/23
f 25/25/25 23/23/23 26/26/26
f 29/29/29 28/28/28 27/27/27
f 29/29/29 30/30/30 28/28/28
f 33/33/33 32/32/32 31/31/31
f 33/33/33 34/34/34 32/32/32
f 35/35/35 33/33/33 31/31/31
f 36/36/36 34/34/34 33/33/33
f 36/36/36 37/37/37 34/34/34
f 40/40/40 39/39/39 38/38/38
f 40/40/40 41/41/41 39/39/39
f 44/44/44 43/43/43 42/42/42
f 44/44/44 45/45/45 43/43/43
f 48/48/48 47/47/47 46/46/46
f 48/48/48 49/49/49 47/47/47
f 52/52/52 51/51/51 50/50/50
f 52/52/52 53/53/53 51/51/51
f 56/56/56 55/55/55 54/54/54
f 56/56/56 57/57/57 55/55/55
f 60/60/60 59/59/59 58/58/58
f 60/60/60 61/61/61 59/59/59
f 64/64/64 63/63/63 62/62/62
f 64/64/64 65/65/65 63/63/63
f 68/68/68 67/67/67 66/66/66
f 69/69/69 68/68/68 66/66/66
f 68/68/68 69/69/69 70/70/70
f 73/73/73 72/72/72 71/71/71
f 74/74/74 73/73/73 71/71/71
f 73/73/73 74/74/74 75/75/75
f 78/78/78 77/77/77 76/76/76
f 79/79/79 78/78/78 76/76/76
f 78/78/78 80/80/80 77/77/77
f 83/83/83 82/82/82 81/81/81
f 84/84/84 83/83/83 81/81/81
f 84/84/84 81/81/81 85/85/85
f 88/88/88 87/87/87 86/86/86
f 88/88/88 89/89/89 87/87/87
f 89/89/89 90/90/90 87/87/87
f 86/86/86 87/87/87 91/91/91
f 86/86/86 91/91/91 92/92/92
f 95/95/95 94/94/94 93/93/93
f 95/95/95 96/96/96 94/94/94
f 99/99/99 98/98/98 97/97/97
f 99/99/99 100/100/100 98/98/98
f 97/97/97 101/101/101 99/99/99
f 97/97/97 102/102/102 101/101/101
f 97/97/97 103/103/103 102/102/102
f 106/106/106 105/105/105 104/104/104
f 106/106/106 107/107/107 105/105/105
f 110/110/110 109/109/109 108/108/108
f 110/110/110 111/111/111 109/109/109
f 114/114/114 113/113/113 112/112/112
f 114/114/114 115/115/115 113/113/113
f 118/118/118 117/117/117 116/116/116
f 118/118/118 119/119/119 117/117/117
f 122/122/122 121/121/121 120/120/120
f 122/122/122 123/123/123 121/121/121
f 126/126/126 125/125/125 124/124/124
f 126/126/126 127/127/127 125/125/125
f 130/130/130 129/129/129 128/128/128
f 128/128/128 129/129/129 131/131/131
f 129/129/129 132/132/132 131/131/131
f 135/135/135 134/134/134 133/133/133
f 136/136/136 135/135/135 133/133/133
f 139/139/139 138/138/138 137/137/137
f 140/140/140 139/139/139 137/137/137
f 143/143/143 142/142/142 141/141/141
f 144/144/144 143/143/143 141/141/141
f 147/147/147 146/146/146 145/145/145
f 148/148/148 147/147/147 145/145/145
