g small_4x4_fl_wheel
v 0.1518731 0.4749389 -0.2742302
v -0.1518731 0.4749389 -0.2742302
v -0.1518731 0.2742302 -0.4749389
v 0.1518731 0.2742302 -0.4749389
v -0.1518731 0.0005366802 -0.5489972
v 0.1518731 0.0005366802 -0.5489972
v -0.1518731 -0.2742302 -0.4749389
v 0.1518731 -0.2742302 -0.4749389
v -0.1518731 -0.4749389 -0.2742302
v 0.1518731 -0.4749389 -0.2742302
v 0.1518731 -0.4749389 -0.2742302
v -0.1518731 -0.4749389 -0.2742302
v -0.1518731 -0.5489972 0.0005366802
v 0.1518731 -0.5489972 0.0005366802
v -0.1518731 -0.4749389 0.2742302
v 0.1518731 -0.4749389 0.2742302
v -0.1518731 -0.2742302 0.4749389
v 0.1518731 -0.2742302 0.4749389
v 0.1518731 -0.2742302 0.4749389
v -0.1518731 -0.2742302 0.4749389
v -0.1518731 0.0005366802 0.5489972
v 0.1518731 0.0005366802 0.5489972
v -0.1518731 0.2742302 0.4749389
v 0.1518731 0.2742302 0.4749389
v -0.1518731 0.4749389 0.2742302
v 0.1518731 0.4749389 0.2742302
v 0.1518731 0.4749389 0.2742302
v -0.1518731 0.4749389 0.2742302
v -0.1518731 0.5489972 0.0005366802
v 0.1518731 0.5489972 0.0005366802
v -0.1518731 0.4749389 -0.2742302
v 0.1518731 0.4749389 -0.2742302
v -0.1518731 0.4749389 -0.2742302
v -0.1518731 0.0005366802 0.0005366802
v -0.1518731 0.2742302 -0.4749389
v -0.1518731 0.0005366802 -0.5489972
v -0.1518731 -0.2742302 -0.4749389
v -0.1518731 -0.4749389 -0.2742302
v -0.1518731 -0.5489972 0.0005366802
v -0.1518731 -0.4749389 0.2742302
v -0.1518731 -0.2742302 0.4749389
v -0.1518731 0.0005366802 0.5489972
v -0.1518731 0.2742302 0.4749389
v -0.1518731 0.4749389 0.2742302
v -0.1518731 0.5489972 0.0005366802
v 0.1518731 0.2742302 -0.4749389
v 0.1518731 0.0005366802 -0.5489972
v 0.1518731 0.4749389 -0.2742302
v 0.1518731 -0.2742302 -0.4749389
v 0.1518731 -0.4749389 -0.2742302
v 0.1518731 -0.5489972 0.0005366802
v 0.1518731 -0.4749389 0.2742302
v 0.1518731 -0.2742302 0.4749389
v 0.1518731 0.0005366802 0.5489972
v 0.1518731 0.2742302 0.4749389
v 0.1518731 0.4749389 0.2742302
v 0.1518731 0.5489972 0.0005366802
vt 0.6590936 0.9635606
vt 0.6590936 0.9703265
vt 0.6748807 0.9703265
vt 0.6748807 0.9635606
vt 0.6929233 0.9703265
vt 0.6929233 0.9635606
vt 0.7109658 0.9703265
vt 0.7109658 0.9635606
vt 0.7290083 0.9703265
vt 0.7290083 0.9635606
vt 0.7222424 0.9680712
vt 0.7222424 0.9635606
vt 0.7041999 0.9635606
vt 0.7041999 0.9680712
vt 0.6861573 0.9635606
vt 0.6861573 0.9680712
vt 0.6703702 0.9635606
vt 0.6703702 0.9680712
vt 0.7177317 0.9703265
vt 0.7177317 0.9635606
vt 0.7019445 0.9635606
vt 0.7019445 0.9703265
vt 0.683902 0.9635606
vt 0.683902 0.9703265
vt 0.6658595 0.9635606
vt 0.6658595 0.9703265
vt 0.6816467 0.9635606
vt 0.6816467 0.9703265
vt 0.6974339 0.9703265
vt 0.6974339 0.9635606
vt 0.7154764 0.9703265
vt 0.7154764 0.9635606
vt 0.4967112 0.7876464
vt 0.4967112 0.8823694
vt 0.5418174 0.8011782
vt 0.5779024 0.8350079
vt 0.5891789 0.8823694
vt 0.5779024 0.9297309
vt 0.5418174 0.9635606
vt 0.4967112 0.9748372
vt 0.4493496 0.9635606
vt 0.41552 0.9297309
vt 0.4019881 0.8823694
vt 0.41552 0.8350079
vt 0.4493496 0.8011782
vt 0.41552 0.9297309
vt 0.4019881 0.8823694
vt 0.4493496 0.9635606
vt 0.41552 0.8350079
vt 0.4493496 0.8011782
vt 0.4967112 0.7876464
vt 0.5440727 0.8011782
vt 0.5801577 0.8350079
vt 0.5914342 0.8823694
vt 0.5801577 0.9297309
vt 0.5440727 0.9635606
vt 0.4967112 0.9770925
vn -0.01587105 0.8729059 -0.4876305
vn -0.01587105 0.8729059 -0.4876305
vn -0.01587105 0.4920015 -0.8704497
vn -0.01587105 0.4920015 -0.8704497
vn -0.01587105 0.01587105 -0.9997481
vn -0.01587105 0.01587105 -0.9997481
vn -0.01587105 -0.4920015 -0.8704497
vn -0.01587105 -0.4920015 -0.8704497
vn -0.01587105 -0.8729059 -0.4876305
vn -0.01587105 -0.8729059 -0.4876305
vn -0.01587105 -0.8729059 -0.4876305
vn -0.01587105 -0.8729059 -0.4876305
vn -0.01587105 -0.999874 -0.000345267
vn -0.01587105 -0.999874 -0.000345267
vn -0.01587105 -0.8729059 0.4876305
vn -0.01587105 -0.8729059 0.4876305
vn -0.01587105 -0.4920015 0.8704497
vn -0.01587105 -0.4920015 0.8704497
vn -0.01587105 -0.4920015 0.8704497
vn -0.01587105 -0.4920015 0.8704497
vn -0.01587105 0.01587105 0.9997481
vn -0.01587105 0.01587105 0.9997481
vn -0.01587105 0.4920015 0.8704497
vn -0.01587105 0.4920015 0.8704497
vn -0.01587105 0.8729059 0.4876305
vn -0.01587105 0.8729059 0.4876305
vn -0.01587105 0.8729059 0.4876305
vn -0.01587105 0.8729059 0.4876305
vn -0.01587105 0.999874 -0.000345267
vn -0.01587105 0.999874 -0.000345267
vn -0.01587105 0.8729059 -0.4876305
vn -0.01587105 0.8729059 -0.4876305
vn -0.999874 0.01587105 -0.0003439156
vn -0.999874 0.01587105 -0.0003439156
vn -0.999874 0.01587105 -0.0003439156
vn -0.999874 0.01587105 -0.0003439156
vn -0.999874 0.01587105 -0.0003439156
vn -0.999874 0.01587105 -0.0003439156
vn -0.999874 0.01587105 -0.0003439156
vn -0.999874 0.01587105 -0.0003439156
vn -0.999874 0.01587105 -0.0003439156
vn -0.999874 0.01587105 -0.0003439156
vn -0.999874 0.01587105 -0.0003439156
vn -0.999874 0.01587105 -0.0003439156
vn -0.999874 0.01587105 -0.0003439156
vn 0.999874 0.01587105 -0.0003439156
vn 0.999874 0.01587105 -0.0003439156
vn 0.999874 0.01587105 -0.0003439156
vn 0.999874 0.01587105 -0.0003439156
vn 0.999874 0.01587105 -0.0003439156
vn 0.999874 0.01587105 -0.0003439156
vn 0.999874 0.01587105 -0.0003439156
vn 0.999874 0.01587105 -0.0003439156
vn 0.999874 0.01587105 -0.0003439156
vn 0.999874 0.01587105 -0.0003439156
vn 0.999874 0.01587105 -0.0003439156
vn 0.999874 0.01587105 -0.0003439156
f 3/3/3 2/2/2 1/1/1
f 4/4/4 3/3/3 1/1/1
f 5/5/5 3/3/3 4/4/4
f 6/6/6 5/5/5 4/4/4
f 7/7/7 5/5/5 6/6/6
f 8/8/8 7/7/7 6/6/6
f 9/9/9 7/7/7 8/8/8
f 10/10/10 9/9/9 8/8/8
f 13/13/13 12/12/12 11/11/11
f 14/14/14 13/13/13 11/11/11
f 15/15/15 13/13/13 14/14/14
f 16/16/16 15/15/15 14/14/14
f 17/17/17 15/15/15 16/16/16
f 18/18/18 17/17/17 16/16/16
f 21/21/21 20/20/20 19/19/19
f 22/22/22 21/21/21 19/19/19
f 23/23/23 21/21/21 22/22/22
f 24/24/24 23/23/23 22/22/22
f 25/25/25 23/23/23 24/24/24
f 26/26/26 25/25/25 24/24/24
f 29/29/29 28/28/28 27/27/27
f 30/30/30 29/29/29 27/27/27
f 31/31/31 29/29/29 30/30/30
f 32/32/32 31/31/31 30/30/30
f 35/35/35 34/34/34 33/33/33
f 36/36/36 34/34/34 35/35/35
f 37/37/37 34/34/34 36/36/36
f 38/38/38 34/34/34 37/37/37
f 39/39/39 34/34/34 38/38/38
f 40/40/40 34/34/34 39/39/39
f 41/41/41 34/34/34 40/40/40
f 42/42/42 34/34/34 41/41/41
f 43/43/43 34/34/34 42/42/42
f 44/44/44 34/34/34 43/43/43
f 45/45/45 34/34/34 44/44/44
f 33/33/33 34/34/34 45/45/45
f 48/48/48 47/47/47 46/46/46
f 48/48/48 49/49/49 47/47/47
f 48/48/48 50/50/50 49/49/49
f 48/48/48 51/51/51 50/50/50
f 48/48/48 52/52/52 51/51/51
f 48/48/48 53/53/53 52/52/52
f 48/48/48 54/54/54 53/53/53
f 48/48/48 55/55/55 54/54/54
f 48/48/48 56/56/56 55/55/55
f 48/48/48 57/57/57 56/56/56
