g Soldier_01_mesh
v -0.1861907 1.4613 0.3053678
v -0.1861907 1.4613 0.2818684
v -0.1861907 1.18355 0.3053678
v -0.1861907 1.18355 0.2818684
v -0.4388135 1.4613 0.2069955
v -0.4388135 1.4613 0.2818684
v -0.4638359 1.4613 0.2069955
v -0.4638359 1.4613 0.3053678
v -0.1861907 1.4613 0.2818684
v -0.1861907 1.4613 0.3053678
v -0.4638359 1.4613 0.3053678
v -0.4388135 1.4613 0.2069955
v -0.4638359 1.4613 0.2069955
v -0.4388135 1.18355 0.2069955
v -0.4638359 1.18355 0.2069955
v -0.4638359 1.18355 0.3053678
v -0.4388135 1.18355 0.2818684
v -0.4638359 1.18355 0.2069955
v -0.4388135 1.18355 0.2069955
v -0.4638359 1.18355 0.3053678
v -0.1861907 1.18355 0.3053678
v -0.1861907 1.18355 0.2818684
v -0.4638359 1.18355 0.2069955
v -0.4638359 1.4613 0.2069955
v -0.4638359 1.18355 0.3053678
v -0.4638359 1.4613 0.3053678
v -0.4638359 1.18355 0.3053678
v -0.4638359 1.4613 0.3053678
v -0.1861907 1.18355 0.3053678
v -0.1861907 1.4613 0.3053678
v 0.1991372 1.4613 0.3053678
v 0.1991372 1.18355 0.3053678
v 0.1991372 1.4613 0.2818684
v 0.1991372 1.18355 0.2818684
v 0.4644436 1.4613 0.3053678
v 0.4388135 1.4613 0.2818684
v 0.4644436 1.4613 0.2069955
v 0.4388135 1.4613 0.2069955
v 0.1991372 1.4613 0.2818684
v 0.1991372 1.4613 0.3053678
v 0.4644436 1.4613 0.3053678
v 0.1991372 1.4613 0.3053678
v 0.4388135 1.4613 0.2069955
v 0.4388135 1.18355 0.2069955
v 0.4644436 1.4613 0.2069955
v 0.4644436 1.18355 0.2069955
v 0.4644436 1.18355 0.3053678
v 0.4644436 1.18355 0.2069955
v 0.4388135 1.18355 0.2818684
v 0.4388135 1.18355 0.2069955
v 0.1991372 1.18355 0.2818684
v 0.1991372 1.18355 0.3053678
v 0.4644436 1.18355 0.3053678
v 0.4644436 1.18355 0.2069955
v 0.4644436 1.18355 0.3053678
v 0.4644436 1.4613 0.2069955
v 0.4644436 1.4613 0.3053678
v 0.4644436 1.18355 0.3053678
v 0.1991372 1.18355 0.3053678
v 0.4644436 1.4613 0.3053678
v 0.1991372 1.4613 0.3053678
v -0.1562024 1.4613 0.3053678
v -0.1562024 1.18355 0.3053678
v -0.1562024 1.4613 0.2818685
v -0.1562024 1.18355 0.2818685
v -0.1562024 1.4613 0.2818685
v 0.1628361 1.4613 0.2818685
v -0.1562024 1.4613 0.3053678
v 0.1628361 1.4613 0.3053678
v 0.1628361 1.4613 0.2818685
v 0.1628361 1.18355 0.2818685
v 0.1628361 1.4613 0.3053678
v 0.1628361 1.18355 0.3053678
v -0.1562024 1.18355 0.3053678
v 0.1628361 1.18355 0.3053678
v -0.1562024 1.18355 0.2818685
v 0.1628361 1.18355 0.2818685
v 0.1628361 1.18355 0.3053678
v -0.1562024 1.18355 0.3053678
v 0.1628361 1.4613 0.3053678
v -0.1562024 1.4613 0.3053678
v -0.3008601 1.792837 0.3299369
v -0.3008601 1.515087 0.3299369
v -0.3008601 1.792837 0.2818685
v -0.3008601 1.515087 0.2818685
v -0.3008601 1.792837 0.2818685
v 0.3008601 1.792837 0.2818685
v -0.3008601 1.792837 0.3299369
v 0.3008601 1.792837 0.3299369
v 0.3008601 1.792837 0.2818685
v 0.3008601 1.515087 0.2818685
v 0.3008601 1.792837 0.3299369
v 0.3008601 1.515087 0.3299369
v -0.3008601 1.515087 0.3299369
v 0.3008601 1.515087 0.3299369
v -0.3008601 1.515087 0.2818685
v 0.3008601 1.515087 0.2818685
v 0.3008601 1.515087 0.3299369
v -0.3008601 1.515087 0.3299369
v 0.3008601 1.792837 0.3299369
v -0.3008601 1.792837 0.3299369
v -0.3720898 2.872789 -0.3904797
v -0.3720898 2.404287 -0.3904796
v 0.3720898 2.872789 -0.3904797
v 0.3720898 2.404287 -0.3904796
v -0.3720898 2.649637 0.3898026
v -0.3720898 2.872789 0.3898026
v 0.3720898 2.649637 0.3898026
v 0.3720898 2.872789 0.3898026
v 0.3720898 2.872789 -0.3904797
v 0.3720898 2.404287 -0.3904796
v 0.3720898 2.404287 0.03679757
v 0.3720898 2.649637 0.03679759
v 0.3720898 2.872789 0.3898026
v 0.3720898 2.649637 0.3898026
v -0.3720898 2.872789 -0.3904797
v -0.3720898 2.404287 0.03679757
v -0.3720898 2.404287 -0.3904796
v -0.3720898 2.649637 0.03679758
v -0.3720898 2.872789 0.3898026
v -0.3720898 2.649637 0.3898026
v -0.3720898 2.872789 0.3898026
v -0.3720898 2.872789 -0.3904797
v 0.3720898 2.872789 0.3898026
v 0.3720898 2.872789 -0.3904797
v -0.4199644 2.324455 0.09839232
v -0.4199644 2.569806 0.09839232
v 0.4199645 2.324455 0.09839232
v 0.4199645 2.569806 0.09839232
v 0.4199645 2.324455 0.09839232
v 0.4199645 2.569806 0.09839232
v 0.4199645 2.404287 0.01856112
v 0.4199645 2.649637 0.01856112
v -0.4199644 2.649637 0.01856112
v -0.4199644 2.569806 0.09839232
v -0.4199644 2.404287 0.01856112
v -0.4199644 2.324455 0.09839232
v -0.4199644 2.404287 0.01856112
v 0.4199645 2.404287 0.01856112
v -0.4199644 2.649637 0.01856112
v 0.4199645 2.649637 0.01856112
v -0.4199644 2.404287 -0.4557808
v -0.4199644 2.324455 -0.4557808
v 0.4199645 2.404287 -0.4557808
v 0.4199645 2.324455 -0.4557808
v -0.4199644 2.324455 0.09839232
v 0.4199645 2.324455 0.09839232
v -0.4199644 2.324455 -0.4557808
v 0.4199645 2.324455 -0.4557808
v 0.4199645 2.404287 -0.4557808
v 0.4199645 2.324455 -0.4557808
v 0.4199645 2.404287 0.01856112
v 0.4199645 2.324455 0.09839232
v -0.4199644 2.404287 0.01856112
v -0.4199644 2.404287 -0.4557808
v 0.4199645 2.404287 0.01856112
v 0.4199645 2.404287 -0.4557808
v -0.4199644 2.404287 -0.4557808
v -0.4199644 2.404287 0.01856112
v -0.4199644 2.324455 -0.4557808
v -0.4199644 2.324455 0.09839232
v -0.4199644 2.649637 0.4551038
v -0.4199644 2.649637 0.01856112
v 0.4199645 2.649637 0.4551038
v 0.4199645 2.649637 0.01856112
v -0.4199644 2.569806 0.4551038
v -0.4199644 2.649637 0.4551038
v 0.4199645 2.569806 0.4551038
v 0.4199645 2.649637 0.4551038
v 0.4199645 2.649637 0.01856112
v 0.4199645 2.569806 0.09839232
v 0.4199645 2.649637 0.4551038
v 0.4199645 2.569806 0.4551038
v -0.4199644 2.649637 0.01856112
v -0.4199644 2.649637 0.4551038
v -0.4199644 2.569806 0.09839232
v -0.4199644 2.569806 0.4551038
v -0.4199644 2.569806 0.4551038
v 0.4199645 2.569806 0.4551038
v -0.4199644 2.569806 0.09839232
v 0.4199645 2.569806 0.09839232
vt 0.3660717 0.6907988
vt 0.3660717 0.6907988
vt 0.3660717 0.6337801
vt 0.3660717 0.6337801
vt 0.6988067 0.779855
vt 0.6988066 0.7486819
vt 0.7038645 0.7825201
vt 0.7015728 0.7542357
vt 0.6992345 0.6502402
vt 0.7038704 0.649639
vt 0.7015728 0.7542357
vt 0.302651 0.6907988
vt 0.302651 0.6907988
vt 0.302651 0.6337801
vt 0.302651 0.6337801
vt 0.6328712 0.753904
vt 0.635637 0.7483507
vt 0.6305792 0.7821884
vt 0.6356368 0.7795233
vt 0.6328712 0.753904
vt 0.6305727 0.6493071
vt 0.6352086 0.6499084
vt 0.302651 0.6337801
vt 0.302651 0.6907988
vt 0.3124504 0.6337801
vt 0.3124504 0.6907988
vt 0.3188783 0.6337801
vt 0.3188783 0.6907988
vt 0.3660717 0.6337801
vt 0.3660717 0.6907988
vt 0.4424801 0.6907988
vt 0.4424801 0.6337801
vt 0.4424801 0.6907988
vt 0.4424801 0.6337801
vt 0.701678 0.7545593
vt 0.6988066 0.7486819
vt 0.7039242 0.7826855
vt 0.6988067 0.779855
vt 0.6988063 0.654538
vt 0.7038094 0.654612
vt 0.701678 0.7545593
vt 0.7038094 0.654612
vt 0.5065485 0.6907988
vt 0.5065485 0.6337801
vt 0.5065485 0.6907988
vt 0.5065485 0.6337801
vt 0.6327654 0.7542279
vt 0.6305194 0.7823538
vt 0.635637 0.7483507
vt 0.6356368 0.7795233
vt 0.6356368 0.6542062
vt 0.6306338 0.6542801
vt 0.6327654 0.7542279
vt 0.5065485 0.6337801
vt 0.495982 0.6337801
vt 0.5065485 0.6907988
vt 0.495982 0.6907988
vt 0.4893766 0.6337801
vt 0.4424801 0.6337801
vt 0.4893766 0.6907988
vt 0.4424801 0.6907988
vt 0.3720271 0.6907988
vt 0.3720271 0.6337801
vt 0.3720271 0.6907988
vt 0.3720271 0.6337801
vt 0.6988063 0.654538
vt 0.6988067 0.779855
vt 0.7037692 0.6545381
vt 0.7037696 0.7798551
vt 0.4360956 0.6907988
vt 0.4360956 0.6337801
vt 0.4360956 0.6907988
vt 0.4360956 0.6337801
vt 0.6306741 0.6542063
vt 0.6306741 0.7795234
vt 0.6356368 0.6542062
vt 0.6356368 0.7795233
vt 0.4360956 0.6337801
vt 0.3720271 0.6337801
vt 0.4360956 0.6907988
vt 0.3720271 0.6907988
vt 0.3403272 0.7575988
vt 0.3403272 0.6993217
vt 0.3403272 0.7575988
vt 0.3403272 0.6993217
vt 0.6988063 0.654538
vt 0.6988067 0.779855
vt 0.7089581 0.6545382
vt 0.7089584 0.7798552
vt 0.4656444 0.7575988
vt 0.4656444 0.6993217
vt 0.4656444 0.7575988
vt 0.4656444 0.6993217
vt 0.6254852 0.6542063
vt 0.6254852 0.7795234
vt 0.6356368 0.6542062
vt 0.6356368 0.7795233
vt 0.4656444 0.6993217
vt 0.3403272 0.6993217
vt 0.4656444 0.7575988
vt 0.3403272 0.7575988
vt 0.4195327 0.1264885
vt 0.4195327 0.05679642
vt 0.5042607 0.1264885
vt 0.5042607 0.05679654
vt 0.4195327 0.2566806
vt 0.4195327 0.2191743
vt 0.5042607 0.2566806
vt 0.5042607 0.2191743
vt 0.5042607 0.1264885
vt 0.5687904 0.1264885
vt 0.5687904 0.1762965
vt 0.539101 0.1762966
vt 0.5042607 0.2191743
vt 0.539101 0.2191743
vt 0.4195327 0.1264885
vt 0.3550032 0.1762964
vt 0.3550033 0.1264885
vt 0.3846925 0.1762964
vt 0.4195327 0.2191743
vt 0.3846924 0.2191743
vt 0.4195327 0.2191743
vt 0.4195327 0.1264885
vt 0.5042607 0.2191743
vt 0.5042607 0.1264885
vt 0.5776764 0.004426394
vt 0.5776764 0.003002997
vt 0.5486435 0.004426394
vt 0.5486434 0.003002997
vt 0.5948301 0.01882388
vt 0.5999617 0.01882388
vt 0.59483 0.01248246
vt 0.5999617 0.01248246
vt 0.546034 0.01248246
vt 0.546034 0.01882388
vt 0.5531904 0.01248246
vt 0.5531904 0.01882388
vt 0.5796984 0.02296938
vt 0.5439878 0.02296938
vt 0.5796984 0.03336106
vt 0.5439877 0.03336106
vt 0.5655406 0.01248246
vt 0.5655406 0.01882388
vt 0.584259 0.01248246
vt 0.584259 0.01882388
vt 0.5776764 0.004426394
vt 0.5486435 0.004426394
vt 0.5776764 0.006863941
vt 0.5486434 0.006863855
vt 0.584259 0.01248246
vt 0.584259 0.01882388
vt 0.59483 0.01248246
vt 0.5948301 0.01882388
vt 0.5796984 0.04422425
vt 0.5796984 0.03336105
vt 0.5439878 0.04422425
vt 0.5439877 0.03336105
vt 0.5655406 0.01248246
vt 0.5531904 0.01248246
vt 0.5655406 0.01882388
vt 0.5531904 0.01882388
vt 0.5796984 0.04422425
vt 0.5796984 0.03336106
vt 0.5439878 0.04422425
vt 0.5439877 0.03336106
vt 0.5380844 0.01882388
vt 0.5380847 0.01248246
vt 0.519366 0.01882388
vt 0.519366 0.01248226
vt 0.5999617 0.01248246
vt 0.5999617 0.01882388
vt 0.6096904 0.01248246
vt 0.6096904 0.01882388
vt 0.546034 0.01248246
vt 0.5380847 0.01248246
vt 0.546034 0.01882388
vt 0.5380844 0.01882388
vt 0.5776764 0.001798425
vt 0.5486434 0.001798425
vt 0.5776764 0.003002997
vt 0.5486434 0.003002997
vn 1 0 0
vn 1 0 0
vn 1 0 0
vn 1 0 0
vn 0 1 0
vn 0 1 0
vn 0 1 0
vn 0 1 0
vn 0 1 0
vn 0 1 0
vn 0 1 0
vn 0 0 -1
vn 0 0 -1
vn 0 0 -1
vn 0 0 -1
vn 0 -1 0
vn 0 -1 0
vn 0 -1 0
vn 0 -1 0
vn 0 -1 -7.483836E-06
vn 0 -1 -4.828673E-07
vn 0 -1 0
vn -1 0 0
vn -1 0 0
vn -1 0 0
vn -1 0 0
vn 0 0 1
vn 0 0 1
vn 0 0 1
vn 0 0 1
vn -1 0 0
vn -1 0 0
vn -1 0 0
vn -1 0 0
vn 0 1 0
vn 0 1 0
vn 0 1 0
vn 0 1 0
vn 0 1 0
vn 0 1 -4.018804E-07
vn 0 1 -5.873914E-06
vn 0 1 -4.018804E-07
vn 0 0 -1
vn 0 0 -1
vn 0 0 -1
vn 0 0 -1
vn 0 -1 0
vn 0 -1 0
vn 0 -1 0
vn 0 -1 0
vn 0 -1 0
vn 0 -1 0
vn 0 -1 0
vn 1 0 0
vn 1 0 0
vn 1 0 0
vn 1 0 0
vn 0 0 1
vn 0 0 1
vn 0 0 1
vn 0 0 1
vn -1 0 0
vn -1 0 0
vn -1 0 0
vn -1 0 0
vn 0 1 0
vn 0 1 0
vn 0 1 0
vn 0 1 0
vn 1 0 0
vn 1 0 0
vn 1 0 0
vn 1 0 0
vn 0 -1 0
vn 0 -1 0
vn 0 -1 0
vn 0 -1 0
vn 0 0 1
vn 0 0 1
vn 0 0 1
vn 0 0 1
vn -1 0 0
vn -1 0 0
vn -1 0 0
vn -1 0 0
vn 0 1 0
vn 0 1 0
vn 0 1 0
vn 0 1 0
vn 1 0 0
vn 1 0 0
vn 1 0 0
vn 1 0 0
vn 0 -1 0
vn 0 -1 0
vn 0 -1 0
vn 0 -1 0
vn 0 0 1
vn 0 0 1
vn 0 0 1
vn 0 0 1
vn 0 0 -1
vn 0 0 -1
vn 0 0 -1
vn 0 0 -1
vn 0 0 1
vn 0 0 1
vn 0 0 1
vn 0 0 1
vn 1 0 0
vn 1 0 0
vn 1 0 0
vn 1 -1.137904E-07 0
vn 1 0 0
vn 1 0 0
vn -1 0 0
vn -1 0 0
vn -1 0 0
vn -1 -1.639019E-07 0
vn -1 -1.550849E-07 0
vn -1 0 0
vn 0 1 0
vn 0 1 0
vn 0 1 0
vn 0 1 0
vn 0 0 1
vn 0 0 1
vn 0 0 1
vn 0 0 1
vn 1 7.650082E-07 0
vn 1 -4.110783E-07 0
vn 1 6.971864E-07 0
vn 1 -4.484888E-07 0
vn -1 -4.484888E-07 0
vn -1 -4.110783E-07 0
vn -1 3.929359E-07 0
vn -1 4.781302E-07 0
vn 0 0 -1
vn 0 0 -1
vn 0 0 -1
vn 0 0 -1
vn 0 -4.778468E-07 -1
vn 0 -4.778466E-07 -1
vn 0 -4.778442E-07 -1
vn 0 -4.77844E-07 -1
vn 0 -1 0
vn 0 -1 0
vn 0 -1 0
vn 0 -1 0
vn 1 -4.433213E-07 0
vn 1 -2.548387E-07 0
vn 1 6.971864E-07 0
vn 1 7.650082E-07 0
vn 0 1 0
vn 0 1 0
vn 0 1 0
vn 0 1 0
vn -1 -1.289454E-06 0
vn -1 3.929359E-07 0
vn -1 -1.048308E-06 0
vn -1 4.781302E-07 0
vn 0 1 -2.130693E-06
vn 0 1 -1.480533E-06
vn 0 1 -6.501594E-07
vn 0 1 0
vn 0 0 1
vn 0 0 1
vn 0 0 1
vn 0 0 1
vn 1 -4.484888E-07 0
vn 1 -4.110783E-07 0
vn 1 -1.165127E-07 0
vn 1 0 0
vn -1 -4.484888E-07 0
vn -1 -1.165127E-07 0
vn -1 -4.110783E-07 0
vn -1 0 0
vn 0 -1 0
vn 0 -1 0
vn 0 -1 0
vn 0 -1 0
f 3/3/3 2/2/2 1/1/1
f 3/3/3 4/4/4 2/2/2
f 7/7/7 6/6/6 5/5/5
f 7/7/7 8/8/8 6/6/6
f 6/6/6 10/10/10 9/9/9
f 6/6/6 11/11/11 10/10/10
f 14/14/14 13/13/13 12/12/12
f 14/14/14 15/15/15 13/13/13
f 18/18/18 17/17/17 16/16/16
f 18/18/18 19/19/19 17/17/17
f 17/17/17 21/21/21 20/20/20
f 17/17/17 22/22/22 21/21/21
f 25/25/25 24/24/24 23/23/23
f 25/25/25 26/26/26 24/24/24
f 29/29/29 28/28/28 27/27/27
f 29/29/29 30/30/30 28/28/28
f 33/33/33 32/32/32 31/31/31
f 33/33/33 34/34/34 32/32/32
f 37/37/37 36/36/36 35/35/35
f 37/37/37 38/38/38 36/36/36
f 40/40/40 36/36/36 39/39/39
f 42/42/42 41/41/41 36/36/36
f 45/45/45 44/44/44 43/43/43
f 45/45/45 46/46/46 44/44/44
f 49/49/49 48/48/48 47/47/47
f 49/49/49 50/50/50 48/48/48
f 49/49/49 52/52/52 51/51/51
f 49/49/49 53/53/53 52/52/52
f 56/56/56 55/55/55 54/54/54
f 56/56/56 57/57/57 55/55/55
f 60/60/60 59/59/59 58/58/58
f 60/60/60 61/61/61 59/59/59
f 64/64/64 63/63/63 62/62/62
f 64/64/64 65/65/65 63/63/63
f 68/68/68 67/67/67 66/66/66
f 68/68/68 69/69/69 67/67/67
f 72/72/72 71/71/71 70/70/70
f 72/72/72 73/73/73 71/71/71
f 76/76/76 75/75/75 74/74/74
f 76/76/76 77/77/77 75/75/75
f 80/80/80 79/79/79 78/78/78
f 80/80/80 81/81/81 79/79/79
f 84/84/84 83/83/83 82/82/82
f 84/84/84 85/85/85 83/83/83
f 88/88/88 87/87/87 86/86/86
f 88/88/88 89/89/89 87/87/87
f 92/92/92 91/91/91 90/90/90
f 92/92/92 93/93/93 91/91/91
f 96/96/96 95/95/95 94/94/94
f 96/96/96 97/97/97 95/95/95
f 100/100/100 99/99/99 98/98/98
f 100/100/100 101/101/101 99/99/99
f 104/104/104 103/103/103 102/102/102
f 104/104/104 105/105/105 103/103/103
f 108/108/108 107/107/107 106/106/106
f 108/108/108 109/109/109 107/107/107
f 112/112/112 111/111/111 110/110/110
f 110/110/110 113/113/113 112/112/112
f 114/114/114 113/113/113 110/110/110
f 114/114/114 115/115/115 113/113/113
f 118/118/118 117/117/117 116/116/116
f 117/117/117 119/119/119 116/116/116
f 119/119/119 120/120/120 116/116/116
f 119/119/119 121/121/121 120/120/120
f 124/124/124 123/123/123 122/122/122
f 124/124/124 125/125/125 123/123/123
f 128/128/128 127/127/127 126/126/126
f 128/128/128 129/129/129 127/127/127
f 132/132/132 131/131/131 130/130/130
f 132/132/132 133/133/133 131/131/131
f 136/136/136 135/135/135 134/134/134
f 136/136/136 137/137/137 135/135/135
f 140/140/140 139/139/139 138/138/138
f 140/140/140 141/141/141 139/139/139
f 144/144/144 143/143/143 142/142/142
f 144/144/144 145/145/145 143/143/143
f 148/148/148 147/147/147 146/146/146
f 148/148/148 149/149/149 147/147/147
f 152/152/152 151/151/151 150/150/150
f 152/152/152 153/153/153 151/151/151
f 156/156/156 155/155/155 154/154/154
f 156/156/156 157/157/157 155/155/155
f 160/160/160 159/159/159 158/158/158
f 160/160/160 161/161/161 159/159/159
f 164/164/164 163/163/163 162/162/162
f 164/164/164 165/165/165 163/163/163
f 168/168/168 167/167/167 166/166/166
f 168/168/168 169/169/169 167/167/167
f 172/172/172 171/171/171 170/170/170
f 172/172/172 173/173/173 171/171/171
f 176/176/176 175/175/175 174/174/174
f 176/176/176 177/177/177 175/175/175
f 180/180/180 179/179/179 178/178/178
f 180/180/180 181/181/181 179/179/179
