g Soldier_02_mesh
v -0.3720898 2.937553 -0.3904797
v -0.3720898 2.404287 -0.3904796
v 0.3720898 2.937553 -0.3904797
v 0.3720898 2.404287 -0.3904796
v -0.3720898 2.649637 0.3898026
v -0.3720898 2.937553 0.3898026
v 0.3720898 2.649637 0.3898026
v 0.3720898 2.937553 0.3898026
v 0.3720898 2.937553 -0.3904797
v 0.3720898 2.404287 -0.3904796
v 0.3720898 2.404287 0.03679757
v 0.3720898 2.649637 0.03679759
v 0.3720898 2.937553 0.3898026
v 0.3720898 2.649637 0.3898026
v -0.3720898 2.937553 -0.3904797
v -0.3720898 2.404287 0.03679757
v -0.3720898 2.404287 -0.3904796
v -0.3720898 2.649637 0.03679758
v -0.3720898 2.937553 0.3898026
v -0.3720898 2.649637 0.3898026
v -0.3720898 2.937553 0.3898026
v -0.3720898 2.937553 -0.3904797
v 0.3720898 2.937553 0.3898026
v 0.3720898 2.937553 -0.3904797
v -0.4199644 2.324455 0.09839232
v -0.4199644 2.569806 0.09839232
v 0.4199645 2.324455 0.09839232
v 0.4199645 2.569806 0.09839232
v 0.4199645 2.324455 0.09839232
v 0.4199645 2.569806 0.09839232
v 0.4199645 2.404287 0.01856112
v 0.4199645 2.649637 0.01856112
v -0.4199644 2.649637 0.01856112
v -0.4199644 2.569806 0.09839232
v -0.4199644 2.404287 0.01856112
v -0.4199644 2.324455 0.09839232
v -0.4199644 2.404287 0.01856112
v 0.4199645 2.404287 0.01856112
v -0.4199644 2.649637 0.01856112
v 0.4199645 2.649637 0.01856112
v -0.4199644 2.404287 -0.4557808
v -0.4199644 2.324455 -0.4557808
v 0.4199645 2.404287 -0.4557808
v 0.4199645 2.324455 -0.4557808
v -0.4199644 2.324455 0.09839232
v 0.4199645 2.324455 0.09839232
v -0.4199644 2.324455 -0.4557808
v 0.4199645 2.324455 -0.4557808
v 0.4199645 2.404287 -0.4557808
v 0.4199645 2.324455 -0.4557808
v 0.4199645 2.404287 0.01856112
v 0.4199645 2.324455 0.09839232
v -0.4199644 2.404287 0.01856112
v -0.4199644 2.404287 -0.4557808
v 0.4199645 2.404287 0.01856112
v 0.4199645 2.404287 -0.4557808
v -0.4199644 2.404287 -0.4557808
v -0.4199644 2.404287 0.01856112
v -0.4199644 2.324455 -0.4557808
v -0.4199644 2.324455 0.09839232
v -0.4199644 2.649637 0.4551038
v -0.4199644 2.649637 0.01856112
v 0.4199645 2.649637 0.4551038
v 0.4199645 2.649637 0.01856112
v -0.4199644 2.569806 0.4551038
v -0.4199644 2.649637 0.4551038
v 0.4199645 2.569806 0.4551038
v 0.4199645 2.649637 0.4551038
v 0.4199645 2.649637 0.01856112
v 0.4199645 2.569806 0.09839232
v 0.4199645 2.649637 0.4551038
v 0.4199645 2.569806 0.4551038
v -0.4199644 2.649637 0.01856112
v -0.4199644 2.649637 0.4551038
v -0.4199644 2.569806 0.09839232
v -0.4199644 2.569806 0.4551038
v -0.4199644 2.569806 0.4551038
v 0.4199645 2.569806 0.4551038
v -0.4199644 2.569806 0.09839232
v 0.4199645 2.569806 0.09839232
vt 0.4201506 0.1262983
vt 0.4201507 0.05949451
vt 0.502403 0.1262983
vt 0.502403 0.05949463
vt 0.4201506 0.2568451
vt 0.4201508 0.220965
vt 0.5024029 0.2568454
vt 0.502403 0.2209652
vt 0.4183501 0.1279641
vt 0.356351 0.1279641
vt 0.356351 0.17764
vt 0.3848761 0.17764
vt 0.4183501 0.2186808
vt 0.3848761 0.2186808
vt 0.502409 0.1282357
vt 0.5644081 0.1779116
vt 0.5644081 0.1282357
vt 0.535883 0.1779116
vt 0.502409 0.2189524
vt 0.535883 0.2189524
vt 0.4201508 0.2176362
vt 0.4201506 0.1262983
vt 0.502403 0.2176363
vt 0.502403 0.1262983
vt 0.4201508 0.2176362
vt 0.4201507 0.1730358
vt 0.502403 0.2176363
vt 0.502403 0.1730359
vt 0.502403 0.2176363
vt 0.502403 0.1730359
vt 0.5219103 0.2176364
vt 0.571344 0.1730359
vt 0.3512098 0.173036
vt 0.4201507 0.1730358
vt 0.4006436 0.2176364
vt 0.4201508 0.2176362
vt 0.4201506 0.2371434
vt 0.5024029 0.2371435
vt 0.4201507 0.1483189
vt 0.502403 0.1483191
vt 0.4201506 0.1284355
vt 0.4201507 0.05949451
vt 0.502403 0.1284356
vt 0.502403 0.05949463
vt 0.4201507 0.1483189
vt 0.502403 0.1483191
vt 0.4201507 0.05949451
vt 0.502403 0.05949463
vt 0.502403 0.1284356
vt 0.571344 0.1284355
vt 0.502403 0.1730359
vt 0.571344 0.1730359
vt 0.4201507 0.1730358
vt 0.4201506 0.1284355
vt 0.502403 0.1730359
vt 0.502403 0.1284356
vt 0.4201506 0.1284355
vt 0.4201507 0.1730358
vt 0.3512098 0.1284356
vt 0.3512098 0.173036
vt 0.4201508 0.2176362
vt 0.4201507 0.1730358
vt 0.502403 0.2176363
vt 0.502403 0.1730359
vt 0.4201506 0.2371434
vt 0.4201508 0.2176362
vt 0.5024029 0.2371435
vt 0.502403 0.2176363
vt 0.502403 0.1730359
vt 0.571344 0.1730359
vt 0.502403 0.2176363
vt 0.5219103 0.2176364
vt 0.4201507 0.1730358
vt 0.4201508 0.2176362
vt 0.3512098 0.173036
vt 0.4006436 0.2176364
vt 0.4201506 0.2371434
vt 0.5024029 0.2371435
vt 0.4201507 0.1483189
vt 0.502403 0.1483191
vn 0 0 -1
vn 0 0 -1
vn 0 0 -1
vn 0 0 -1
vn 0 0 1
vn 0 0 1
vn 0 0 1
vn 0 0 1
vn 1 0 0
vn 1 0 0
vn 1 0 0
vn 1 -1.047766E-07 0
vn 1 0 0
vn 1 0 0
vn -1 0 0
vn -1 0 0
vn -1 0 0
vn -1 -1.272845E-07 0
vn -1 -1.370189E-07 0
vn -1 0 0
vn 0 1 0
vn 0 1 0
vn 0 1 0
vn 0 1 0
vn 0 0 1
vn 0 0 1
vn 0 0 1
vn 0 0 1
vn 1 7.650082E-07 0
vn 1 -4.110783E-07 0
vn 1 6.971864E-07 0
vn 1 -4.484888E-07 0
vn -1 -4.484888E-07 0
vn -1 -4.110783E-07 0
vn -1 3.929359E-07 0
vn -1 4.781302E-07 0
vn 0 0 -1
vn 0 0 -1
vn 0 0 -1
vn 0 0 -1
vn 0 -4.778468E-07 -1
vn 0 -4.778466E-07 -1
vn 0 -4.778442E-07 -1
vn 0 -4.77844E-07 -1
vn 0 -1 0
vn 0 -1 0
vn 0 -1 0
vn 0 -1 0
vn 1 -4.433213E-07 0
vn 1 -2.548387E-07 0
vn 1 6.971864E-07 0
vn 1 7.650082E-07 0
vn 0 1 0
vn 0 1 0
vn 0 1 0
vn 0 1 0
vn -1 -1.289454E-06 0
vn -1 3.929359E-07 0
vn -1 -1.048308E-06 0
vn -1 4.781302E-07 0
vn 0 1 -2.130693E-06
vn 0 1 -1.480533E-06
vn 0 1 -6.501594E-07
vn 0 1 0
vn 0 0 1
vn 0 0 1
vn 0 0 1
vn 0 0 1
vn 1 -4.484888E-07 0
vn 1 -4.110783E-07 0
vn 1 -1.165127E-07 0
vn 1 0 0
vn -1 -4.484888E-07 0
vn -1 -1.165127E-07 0
vn -1 -4.110783E-07 0
vn -1 0 0
vn 0 -1 0
vn 0 -1 0
vn 0 -1 0
vn 0 -1 0
f 3/3/3 2/2/2 1/1/1
f 3/3/3 4/4/4 2/2/2
f 7/7/7 6/6/6 5/5/5
f 7/7/7 8/8/8 6/6/6
f 11/11/11 10/10/10 9/9/9
f 9/9/9 12/12/12 11/11/11
f 13/13/13 12/12/12 9/9/9
f 13/13/13 14/14/14 12/12/12
f 17/17/17 16/16/16 15/15/15
f 16/16/16 18/18/18 15/15/15
f 18/18/18 19/19/19 15/15/15
f 18/18/18 20/20/20 19/19/19
f 23/23/23 22/22/22 21/21/21
f 23/23/23 24/24/24 22/22/22
f 27/27/27 26/26/26 25/25/25
f 27/27/27 28/28/28 26/26/26
f 31/31/31 30/30/30 29/29/29
f 31/31/31 32/32/32 30/30/30
f 35/35/35 34/34/34 33/33/33
f 35/35/35 36/36/36 34/34/34
f 39/39/39 38/38/38 37/37/37
f 39/39/39 40/40/40 38/38/38
f 43/43/43 42/42/42 41/41/41
f 43/43/43 44/44/44 42/42/42
f 47/47/47 46/46/46 45/45/45
f 47/47/47 48/48/48 46/46/46
f 51/51/51 50/50/50 49/49/49
f 51/51/51 52/52/52 50/50/50
f 55/55/55 54/54/54 53/53/53
f 55/55/55 56/56/56 54/54/54
f 59/59/59 58/58/58 57/57/57
f 59/59/59 60/60/60 58/58/58
f 63/63/63 62/62/62 61/61/61
f 63/63/63 64/64/64 62/62/62
f 67/67/67 66/66/66 65/65/65
f 67/67/67 68/68/68 66/66/66
f 71/71/71 70/70/70 69/69/69
f 71/71/71 72/72/72 70/70/70
f 75/75/75 74/74/74 73/73/73
f 75/75/75 76/76/76 74/74/74
f 79/79/79 78/78/78 77/77/77
f 79/79/79 80/80/80 78/78/78
