g spaceflight_ground_03
v -27.55536 0.03529229 -21.09997
v -14.1185 0.03528848 -21.11578
v -14.50778 0.03528848 -20.74645
v -27.16608 0.03529229 -20.74645
v -27.41574 0.03529229 -11.90295
v -14.18381 0.03528848 -11.92437
v -14.32828 0.03528848 -11.62756
v -27.56027 0.03529229 -11.61913
v -27.16608 0.03529229 -2.714592
v -14.50778 0.03528848 -2.714226
v -14.1185 0.03528848 -2.359062
v -27.56027 0.03529229 -2.364861
v -27.16608 0.03529229 -20.74645
v -27.55536 0.03529229 -2.364861
v -27.55536 0.03529229 -21.09997
v -14.1185 0.03529229 -21.11578
v -14.1185 0.03529229 -2.359062
v -14.50778 0.03529229 -2.714226
v -14.50778 0.03529229 -20.74645
v 66.43396 -0.001986727 -46.98728
v 66.43359 -0.001990542 -34.32899
v 66.07843 -0.001990542 -33.9397
v 66.08423 -0.001986727 -47.38146
v 66.85654 -0.001986727 -46.98728
v 66.08423 -0.001986727 -47.37656
v 66.85654 -0.001986727 -47.37656
v 28.06021 -0.001986727 45.31527
v 28.07602 -0.001990542 58.75213
v 27.7067 -0.001990542 58.36285
v 27.7067 -0.001986727 45.70456
v 18.86319 -0.001986727 45.45488
v 18.88461 -0.001990542 58.68684
v 18.5878 -0.001990542 58.54234
v 18.57938 -0.001986727 45.31038
v 9.674835 -0.001986727 45.70456
v 9.674469 -0.001990542 58.36285
v 9.319305 -0.001990542 58.75213
v 9.325104 -0.001986727 45.31038
v 27.7067 -0.001986727 45.70456
v 9.325104 -0.001986727 45.31527
v 28.06021 -0.001986727 45.31527
v 28.07602 -0.001986727 58.75213
v 9.319305 -0.001986727 58.75213
v 9.674469 -0.001986727 58.36285
v 27.7067 -0.001986727 58.36285
v 28.06021 -0.001986727 64.55498
v 28.07602 -0.001990542 77.99184
v 27.7067 -0.001990542 77.60255
v 27.7067 -0.001986727 64.94426
v 18.86319 -0.001986727 64.69458
v 18.88461 -0.001990542 77.92654
v 18.5878 -0.001990542 77.78204
v 18.57938 -0.001986727 64.55008
v 9.674835 -0.001986727 64.94426
v 9.674469 -0.001990542 77.60255
v 9.319305 -0.001990542 77.99184
v 9.325104 -0.001986727 64.55008
v 27.7067 -0.001986727 64.94426
v 9.325104 -0.001986727 64.55498
v 28.06021 -0.001986727 64.55498
v 28.07602 -0.001986727 77.99184
v 9.319305 -0.001986727 77.99184
v 9.674469 -0.001986727 77.60255
v 27.7067 -0.001986727 77.60255
v 0.289978 -0.001986727 64.55498
v 0.3057861 -0.001990542 77.99184
v -0.0635376 -0.001990542 77.60255
v -0.0635376 -0.001986727 64.94426
v -8.907043 -0.001986727 64.69458
v -8.88562 -0.001990542 77.92654
v -9.182434 -0.001990542 77.78204
v -9.190857 -0.001986727 64.55008
v -18.0954 -0.001986727 64.94426
v -18.09576 -0.001990542 77.60255
v -18.45093 -0.001990542 77.99184
v -18.44513 -0.001986727 64.55008
v -0.0635376 -0.001986727 64.94426
v -18.44513 -0.001986727 64.55498
v 0.289978 -0.001986727 64.55498
v 0.3057861 -0.001986727 77.99184
v -18.45093 -0.001986727 77.99184
v -18.09576 -0.001986727 77.60255
v -0.0635376 -0.001986727 77.60255
v 0.289978 -0.001986727 45.31527
v 0.3057861 -0.001990542 58.75213
v -0.0635376 -0.001990542 58.36285
v -0.0635376 -0.001986727 45.70456
v -8.907043 -0.001986727 45.45488
v -8.88562 -0.001990542 58.68684
v -9.182434 -0.001990542 58.54234
v -9.190857 -0.001986727 45.31038
v -18.0954 -0.001986727 45.70456
v -18.09576 -0.001990542 58.36285
v -18.45093 -0.001990542 58.75213
v -18.44513 -0.001986727 45.31038
v -0.0635376 -0.001986727 45.70456
v -18.44513 -0.001986727 45.31527
v 0.289978 -0.001986727 45.31527
v 0.3057861 -0.001986727 58.75213
v -18.45093 -0.001986727 58.75213
v -18.09576 -0.001986727 58.36285
v -0.0635376 -0.001986727 58.36285
v -66.85654 -0.0547193 81.12045
v -66.85654 -0.0547193 -81.12045
v 66.85654 -0.0547193 -81.12045
v 66.85654 -0.0547193 81.12045
v 65.08847 0.0547193 -23.56384
v 61.27646 0.0547193 -23.56384
v 61.27646 0.0547193 -23.95312
v 65.08847 0.0547193 -23.95312
v 48.49451 0.0452807 -17.03214
v 47.9339 0.0452807 -17.03214
v 47.9339 0.0452807 -30.48063
v 48.48096 0.0452807 -30.48063
v 62.21973 0.0547193 34.30689
v 58.40771 0.0547193 34.30689
v 58.40771 0.0547193 33.91761
v 62.21973 0.0547193 33.91761
v 46.97171 0.0547193 34.30689
v 43.1597 0.0547193 34.30689
v 43.1597 0.0547193 33.91761
v 46.97171 0.0547193 33.91761
v 31.72366 0.0547193 34.30689
v 27.91165 0.0547193 34.30689
v 27.91165 0.0547193 33.91761
v 31.72366 0.0547193 33.91761
v 3.830383 0.0547193 34.30689
v 0.01837158 0.0547193 34.30689
v 0.01837158 0.0547193 33.91761
v 3.830383 0.0547193 33.91761
v -11.41763 0.0547193 34.30689
v -15.22964 0.0547193 34.30689
v -15.22964 0.0547193 33.91761
v -11.41763 0.0547193 33.91761
v -26.66568 0.0547193 34.30689
v -30.47769 0.0547193 34.30689
v -30.47769 0.0547193 33.91761
v -26.66568 0.0547193 33.91761
v 16.47562 0.0547193 34.30689
v 12.6636 0.0547193 34.30689
v 12.6636 0.0547193 33.91761
v 16.47562 0.0547193 33.91761
v -54.55896 0.0547193 34.30689
v -58.37097 0.0547193 34.30689
v -58.37097 0.0547193 33.91761
v -54.55896 0.0547193 33.91761
v -41.91373 0.0547193 34.30689
v -45.72571 0.0547193 34.30689
v -45.72571 0.0547193 33.91761
v -41.91373 0.0547193 33.91761
v 49.07703 0.04189599 5.938766
v 50.37988 0.04189599 4.635902
v 57.23514 0.04189599 4.635902
v 57.23514 0.04189599 5.938766
v 50.37988 0.04189599 4.635902
v 49.07703 0.04189599 5.938766
v 49.07703 0.04189599 -2.21936
v 50.37988 0.04189599 -2.21936
v 49.07703 0.04189599 -15.74046
v 50.37988 0.04189599 -14.4376
v 50.37988 0.04189599 -7.582336
v 49.07703 0.04189599 -7.582336
v 50.37988 0.04189599 -14.4376
v 49.07703 0.04189599 -15.74046
v 57.23514 0.04189599 -15.74046
v 57.23514 0.04189599 -14.4376
v 66.85654 -0.001986727 -33.9397
v 66.07843 -0.001986727 -33.9397
v 66.43359 -0.001986727 -34.32899
v 66.85654 -0.001986727 -34.32899
v 66.85654 0.04528069 -17.42142
v 48.48062 0.0452807 -17.42142
v 48.48093 0.0452807 -30.09135
v 66.85657 0.0452807 -30.09135
v 66.85654 0.04528071 -17.03214
v 48.49448 0.0452807 -17.03214
v 48.49448 0.0452807 -17.42142
v 66.85654 0.0452807 -17.42142
v 66.85654 0.0452807 40.44931
v -66.85657 0.0452807 40.4493
v -66.85626 0.0452807 27.77938
v 66.85654 0.0452807 27.77938
v 66.85654 0.0452807 27.77938
v -66.85626 0.0452807 27.77938
v -66.85626 0.0452807 27.39009
v 66.85654 0.0452807 27.39009
v 66.85654 0.0452807 40.83858
v -66.85654 0.0452807 40.83858
v -66.85654 0.0452807 40.4493
v 66.85654 0.0452807 40.4493
v 66.85654 0.04528071 -30.09135
v 48.48093 0.0452807 -30.09135
v 48.48093 0.0452807 -30.48063
v 66.85654 0.0452807 -30.48063
vt 0.07202688 0.5704157
vt 0.07202688 0.5703699
vt 0.07060878 0.5703699
vt 0.07060878 0.5704157
vt 0.07202688 0.5704157
vt 0.07202688 0.5703699
vt 0.07060878 0.5703699
vt 0.07060878 0.5704157
vt 0.07202688 0.5704157
vt 0.07202688 0.5703699
vt 0.07060878 0.5703699
vt 0.07060878 0.5704157
vt 0.07202688 0.5704107
vt 0.07060878 0.5703998
vt 0.07060878 0.5704107
vt 0.07202688 0.5704107
vt 0.07202688 0.5703929
vt 0.07060878 0.5703929
vt 0.07060878 0.5704107
vt 0.07202688 0.5704157
vt 0.07202688 0.5703699
vt 0.07060878 0.5703699
vt 0.07060878 0.5704157
vt 0.07202688 0.5704001
vt 0.07060878 0.5703998
vt 0.07060878 0.5704002
vt 0.07202688 0.5704157
vt 0.07202688 0.5703699
vt 0.07060878 0.5703699
vt 0.07060878 0.5704157
vt 0.07202688 0.5704157
vt 0.07202688 0.5703699
vt 0.07060878 0.5703699
vt 0.07060878 0.5704157
vt 0.07202688 0.5704157
vt 0.07202688 0.5703699
vt 0.07060878 0.5703699
vt 0.07060878 0.5704157
vt 0.07202688 0.5704107
vt 0.07060878 0.5703998
vt 0.07060878 0.5704107
vt 0.07202688 0.5704107
vt 0.07202688 0.5703929
vt 0.07060878 0.5703929
vt 0.07060878 0.5704107
vt 0.07202688 0.5704157
vt 0.07202688 0.5703699
vt 0.07060878 0.5703699
vt 0.07060878 0.5704157
vt 0.07202688 0.5704157
vt 0.07202688 0.5703699
vt 0.07060878 0.5703699
vt 0.07060878 0.5704157
vt 0.07202688 0.5704157
vt 0.07202688 0.5703699
vt 0.07060878 0.5703699
vt 0.07060878 0.5704157
vt 0.07202688 0.5704107
vt 0.07060878 0.5703998
vt 0.07060878 0.5704107
vt 0.07202688 0.5704107
vt 0.07202688 0.5703929
vt 0.07060878 0.5703929
vt 0.07060878 0.5704107
vt 0.07202688 0.5704157
vt 0.07202688 0.5703699
vt 0.07060878 0.5703699
vt 0.07060878 0.5704157
vt 0.07202688 0.5704157
vt 0.07202688 0.5703699
vt 0.07060878 0.5703699
vt 0.07060878 0.5704157
vt 0.07202688 0.5704157
vt 0.07202688 0.5703699
vt 0.07060878 0.5703699
vt 0.07060878 0.5704157
vt 0.07202688 0.5704107
vt 0.07060878 0.5703998
vt 0.07060878 0.5704107
vt 0.07202688 0.5704107
vt 0.07202688 0.5703929
vt 0.07060878 0.5703929
vt 0.07060878 0.5704107
vt 0.07202688 0.5704157
vt 0.07202688 0.5703699
vt 0.07060878 0.5703699
vt 0.07060878 0.5704157
vt 0.07202688 0.5704157
vt 0.07202688 0.5703699
vt 0.07060878 0.5703699
vt 0.07060878 0.5704157
vt 0.07202688 0.5704157
vt 0.07202688 0.5703699
vt 0.07060878 0.5703699
vt 0.07060878 0.5704157
vt 0.07202688 0.5704107
vt 0.07060878 0.5703998
vt 0.07060878 0.5704107
vt 0.07202688 0.5704107
vt 0.07202688 0.5703929
vt 0.07060878 0.5703929
vt 0.07060878 0.5704107
vt 0.2889692 0.08506667
vt 0.2889692 0.08952004
vt 0.2919556 0.08952004
vt 0.2919556 0.08506667
vt 0.07202688 0.5707816
vt 0.07202688 0.5707359
vt 0.07060878 0.5707359
vt 0.07060878 0.5707816
vt 0.07202688 0.5705987
vt 0.07202688 0.570553
vt 0.07060878 0.570553
vt 0.07060878 0.5705987
vt 0.07202688 0.5707816
vt 0.07202688 0.5707359
vt 0.07060878 0.5707359
vt 0.07060878 0.5707816
vt 0.07202688 0.5705987
vt 0.07202688 0.570553
vt 0.07060878 0.570553
vt 0.07060878 0.5705987
vt 0.07202688 0.5704157
vt 0.07202688 0.5703699
vt 0.07060878 0.5703699
vt 0.07060878 0.5704157
vt 0.07202688 0.5707816
vt 0.07202688 0.5707359
vt 0.07060878 0.5707359
vt 0.07060878 0.5707816
vt 0.07202688 0.5705987
vt 0.07202688 0.570553
vt 0.07060878 0.570553
vt 0.07060878 0.5705987
vt 0.07202688 0.5704157
vt 0.07202688 0.5703699
vt 0.07060878 0.5703699
vt 0.07060878 0.5704157
vt 0.07202688 0.5705987
vt 0.07202688 0.570553
vt 0.07060878 0.570553
vt 0.07060878 0.5705987
vt 0.07202688 0.5707816
vt 0.07202688 0.5707359
vt 0.07060878 0.5707359
vt 0.07060878 0.5707816
vt 0.07202688 0.5705987
vt 0.07202688 0.570553
vt 0.07060878 0.570553
vt 0.07060878 0.5705987
vt 0.3524076 0.3099915
vt 0.3524076 0.3136755
vt 0.3580666 0.3136755
vt 0.3580666 0.3099915
vt 0.3524076 0.3099915
vt 0.3524076 0.3136755
vt 0.3580666 0.3136755
vt 0.3580666 0.3099915
vt 0.3524076 0.3099915
vt 0.3524076 0.3136755
vt 0.3580666 0.3136755
vt 0.3580666 0.3099915
vt 0.3524076 0.3099915
vt 0.3524076 0.3136755
vt 0.3580666 0.3136755
vt 0.3580666 0.3099915
vt 0.07202688 0.5703937
vt 0.07202688 0.5703929
vt 0.07060878 0.5703929
vt 0.07060878 0.5703933
vt 0.1369999 0.7767454
vt 0.1369999 0.7750964
vt 0.1131267 0.7750964
vt 0.1131267 0.7767454
vt 0.07202688 0.5703731
vt 0.07202688 0.5703699
vt 0.07060878 0.5703699
vt 0.07060878 0.5703731
vt 0.1369999 0.7882503
vt 0.1369999 0.7750964
vt 0.1131267 0.7750964
vt 0.1131267 0.7882502
vt 0.07202688 0.5703731
vt 0.07202688 0.5703699
vt 0.07060878 0.5703699
vt 0.07060878 0.5703731
vt 0.07202688 0.570382
vt 0.07202688 0.5703699
vt 0.07060878 0.5703699
vt 0.07060878 0.570382
vt 0.07202688 0.5703703
vt 0.07202688 0.5703699
vt 0.07060878 0.5703699
vt 0.07060878 0.5703703
vn 0 1 0
vn 0 1 0
vn 0 1 0
vn 0 1 0
vn 0 1 0
vn 0 1 0
vn 0 1 0
vn 0 1 0
vn 0 1 0
vn 0 1 0
vn 0 1 0
vn 0 1 0
vn 0 1 0
vn 0 1 0
vn 0 1 0
vn 0 1 0
vn 0 1 0
vn 0 1 0
vn 0 1 0
vn 0 1 0
vn 0 1 0
vn 0 1 0
vn 0 1 0
vn 0 1 0
vn 0 1 0
vn 0 1 0
vn 0 1 0
vn 0 1 0
vn 0 1 0
vn 0 1 0
vn 0 1 0
vn 0 1 0
vn 0 1 0
vn 0 1 0
vn 0 1 0
vn 0 1 0
vn 0 1 0
vn 0 1 0
vn 0 1 0
vn 0 1 0
vn 0 1 0
vn 0 1 0
vn 0 1 0
vn 0 1 0
vn 0 1 0
vn 0 1 0
vn 0 1 0
vn 0 1 0
vn 0 1 0
vn 0 1 0
vn 0 1 0
vn 0 1 0
vn 0 1 0
vn 0 1 0
vn 0 1 0
vn 0 1 0
vn 0 1 0
vn 0 1 0
vn 0 1 0
vn 0 1 0
vn 0 1 0
vn 0 1 0
vn 0 1 0
vn 0 1 0
vn 0 1 0
vn 0 1 0
vn 0 1 0
vn 0 1 0
vn 0 1 0
vn 0 1 0
vn 0 1 0
vn 0 1 0
vn 0 1 0
vn 0 1 0
vn 0 1 0
vn 0 1 0
vn 0 1 0
vn 0 1 0
vn 0 1 0
vn 0 1 0
vn 0 1 0
vn 0 1 0
vn 0 1 0
vn 0 1 0
vn 0 1 0
vn 0 1 0
vn 0 1 0
vn 0 1 0
vn 0 1 0
vn 0 1 0
vn 0 1 0
vn 0 1 0
vn 0 1 0
vn 0 1 0
vn 0 1 0
vn 0 1 0
vn 0 1 0
vn 0 1 0
vn 0 1 0
vn 0 1 0
vn 0 1 0
vn 0 1 0
vn 0 1 0
vn 0 1 0
vn 0 1 0
vn 0 1 0
vn 0 1 0
vn 0 1 0
vn 0 1 0
vn 0 1 0
vn 0 1 0
vn 0 1 0
vn 0 1 0
vn 0 1 0
vn 0 1 0
vn 0 1 0
vn 0 1 0
vn 0 1 0
vn 0 1 0
vn 0 1 0
vn 0 1 0
vn 0 1 0
vn 0 1 0
vn 0 1 0
vn 0 1 0
vn 0 1 0
vn 0 1 0
vn 0 1 0
vn 0 1 0
vn 0 1 0
vn 0 1 0
vn 0 1 0
vn 0 1 0
vn 0 1 0
vn 0 1 0
vn 0 1 0
vn 0 1 0
vn 0 1 0
vn 0 1 0
vn 0 1 0
vn 0 1 0
vn 0 1 0
vn 0 1 0
vn 0 1 0
vn 0 1 0
vn 0 1 0
vn 0 1 0
vn 0 1 0
vn 0 1 0
vn 0 1 0
vn 0 1 0
vn 0 1 0
vn 0 1 0
vn 0 1 0
vn 0 1 0
vn 0 1 0
vn 0 1 0
vn 0 1 0
vn 0 1 0
vn 0 1 0
vn 0 1 0
vn 0 1 0
vn 0 1 0
vn 0 1 0
vn 0 1 0
vn 0 1 0
vn 0 1 0
vn 0 1 0
vn 0 1 0
vn 0 1 0
vn 0 1 0
vn 0 0.9999995 0.001053808
vn 0 0.9999995 0.001053808
vn 0 1 0
vn 0 1 0
vn 0 1 0
vn 0 1 0
vn 0 1 0
vn 0 1 0
vn 0 0.9999995 0.001053808
vn 0 0.9999995 0.001053808
vn 0 1 0
vn 0 1 0
vn 0 1 0
vn 0 1 0
vn 0 1 0
vn 0 1 0
vn 0 1 0
vn 0 1 0
vn 0 1 0
vn 0 1 0
vn 0 1 0
vn 0 1 0
vn 0 1 0
f 3/3/3 2/2/2 1/1/1
f 4/4/4 3/3/3 1/1/1
f 7/7/7 6/6/6 5/5/5
f 8/8/8 7/7/7 5/5/5
f 11/11/11 10/10/10 9/9/9
f 12/12/12 11/11/11 9/9/9
f 14/14/14 9/9/9 13/13/13
f 15/15/15 14/14/14 13/13/13
f 18/18/18 17/17/17 16/16/16
f 19/19/19 18/18/18 16/16/16
f 22/22/22 21/21/21 20/20/20
f 23/23/23 22/22/22 20/20/20
f 25/25/25 20/20/20 24/24/24
f 26/26/26 25/25/25 24/24/24
f 29/29/29 28/28/28 27/27/27
f 30/30/30 29/29/29 27/27/27
f 33/33/33 32/32/32 31/31/31
f 34/34/34 33/33/33 31/31/31
f 37/37/37 36/36/36 35/35/35
f 38/38/38 37/37/37 35/35/35
f 40/40/40 35/35/35 39/39/39
f 41/41/41 40/40/40 39/39/39
f 44/44/44 43/43/43 42/42/42
f 45/45/45 44/44/44 42/42/42
f 48/48/48 47/47/47 46/46/46
f 49/49/49 48/48/48 46/46/46
f 52/52/52 51/51/51 50/50/50
f 53/53/53 52/52/52 50/50/50
f 56/56/56 55/55/55 54/54/54
f 57/57/57 56/56/56 54/54/54
f 59/59/59 54/54/54 58/58/58
f 60/60/60 59/59/59 58/58/58
f 63/63/63 62/62/62 61/61/61
f 64/64/64 63/63/63 61/61/61
f 67/67/67 66/66/66 65/65/65
f 68/68/68 67/67/67 65/65/65
f 71/71/71 70/70/70 69/69/69
f 72/72/72 71/71/71 69/69/69
f 75/75/75 74/74/74 73/73/73
f 76/76/76 75/75/75 73/73/73
f 78/78/78 73/73/73 77/77/77
f 79/79/79 78/78/78 77/77/77
f 82/82/82 81/81/81 80/80/80
f 83/83/83 82/82/82 80/80/80
f 86/86/86 85/85/85 84/84/84
f 87/87/87 86/86/86 84/84/84
f 90/90/90 89/89/89 88/88/88
f 91/91/91 90/90/90 88/88/88
f 94/94/94 93/93/93 92/92/92
f 95/95/95 94/94/94 92/92/92
f 97/97/97 92/92/92 96/96/96
f 98/98/98 97/97/97 96/96/96
f 101/101/101 100/100/100 99/99/99
f 102/102/102 101/101/101 99/99/99
f 105/105/105 104/104/104 103/103/103
f 106/106/106 105/105/105 103/103/103
f 109/109/109 108/108/108 107/107/107
f 110/110/110 109/109/109 107/107/107
f 113/113/113 112/112/112 111/111/111
f 114/114/114 113/113/113 111/111/111
f 117/117/117 116/116/116 115/115/115
f 118/118/118 117/117/117 115/115/115
f 121/121/121 120/120/120 119/119/119
f 122/122/122 121/121/121 119/119/119
f 125/125/125 124/124/124 123/123/123
f 126/126/126 125/125/125 123/123/123
f 129/129/129 128/128/128 127/127/127
f 130/130/130 129/129/129 127/127/127
f 133/133/133 132/132/132 131/131/131
f 134/134/134 133/133/133 131/131/131
f 137/137/137 136/136/136 135/135/135
f 138/138/138 137/137/137 135/135/135
f 141/141/141 140/140/140 139/139/139
f 142/142/142 141/141/141 139/139/139
f 145/145/145 144/144/144 143/143/143
f 146/146/146 145/145/145 143/143/143
f 149/149/149 148/148/148 147/147/147
f 150/150/150 149/149/149 147/147/147
f 153/153/153 152/152/152 151/151/151
f 154/154/154 153/153/153 151/151/151
f 157/157/157 156/156/156 155/155/155
f 158/158/158 157/157/157 155/155/155
f 161/161/161 160/160/160 159/159/159
f 162/162/162 161/161/161 159/159/159
f 165/165/165 164/164/164 163/163/163
f 166/166/166 165/165/165 163/163/163
f 169/169/169 168/168/168 167/167/167
f 170/170/170 169/169/169 167/167/167
f 173/173/173 172/172/172 171/171/171
f 174/174/174 173/173/173 171/171/171
f 177/177/177 176/176/176 175/175/175
f 178/178/178 177/177/177 175/175/175
f 181/181/181 180/180/180 179/179/179
f 182/182/182 181/181/181 179/179/179
f 185/185/185 184/184/184 183/183/183
f 186/186/186 185/185/185 183/183/183
f 189/189/189 188/188/188 187/187/187
f 190/190/190 189/189/189 187/187/187
f 193/193/193 192/192/192 191/191/191
f 194/194/194 193/193/193 191/191/191
