g spaceflight_05_top
v 11.45343 3.202311 17.162
v -0.5677795 4.613451 17.162
v -0.5677795 4.613451 -17.162
v 11.45343 3.202311 -17.162
v -0.5677795 4.613451 17.162
v -11.4534 3.202311 17.162
v -11.4534 3.202311 -17.162
v -0.5677795 4.613451 -17.162
v 11.45343 -1.33355 -17.63762
v 11.45343 4.613453 -17.63762
v -11.4534 4.613453 -17.63762
v -11.4534 -1.33355 -17.63762
v -11.92902 4.613453 -17.63762
v -11.92902 -1.33355 -17.63762
v 11.45343 4.613453 -17.63762
v 11.45343 4.613453 -17.162
v -11.4534 4.613453 -17.162
v -11.4534 4.613453 -17.63762
v 11.45343 4.613453 -17.162
v 11.45343 -1.33355 -17.162
v -11.4534 -1.33355 -17.162
v -11.4534 4.613453 -17.162
v 11.92905 -1.33355 17.63762
v 11.92905 4.613453 17.63762
v 11.92905 4.613453 -17.63762
v 11.92905 -1.33355 -17.63762
v 11.92905 4.613453 17.63762
v 11.45343 4.613453 17.63762
v 11.45343 4.613453 -17.63762
v 11.92905 4.613453 -17.63762
v 11.45343 4.613453 17.63762
v 11.45343 -1.33355 17.63762
v 11.45343 -1.33355 -17.63762
v 11.45343 4.613453 -17.63762
v 11.92905 -1.33355 -17.63762
v 11.92905 4.613453 -17.63762
v 11.45343 4.613453 -17.63762
v 11.45343 -1.33355 -17.63762
v 11.45343 -1.33355 17.63762
v 11.45343 4.613453 17.63762
v 11.92905 4.613453 17.63762
v 11.92905 -1.33355 17.63762
v -11.4534 -1.33355 17.63762
v -11.4534 4.613453 17.63762
v -11.4534 4.613453 -17.63762
v -11.4534 -1.33355 -17.63762
v -11.4534 4.613453 17.63762
v -11.92902 4.613453 17.63762
v -11.92902 4.613453 -17.63762
v -11.4534 4.613453 -17.63762
v -11.92902 4.613453 17.63762
v -11.92902 -1.33355 17.63762
v -11.92902 -1.33355 -17.63762
v -11.92902 4.613453 -17.63762
v -11.92902 -1.33355 17.63762
v -11.92902 4.613453 17.63762
v -11.4534 4.613453 17.63762
v -11.4534 -1.33355 17.63762
v 11.45343 -1.33355 17.162
v 11.45343 4.613453 17.162
v -11.4534 4.613453 17.162
v -11.4534 -1.33355 17.162
v 11.45343 4.613453 17.162
v 11.45343 4.613453 17.63762
v -11.4534 4.613453 17.63762
v -11.4534 4.613453 17.162
v 11.45343 4.613453 17.63762
v 11.45343 -1.33355 17.63762
v -11.4534 -1.33355 17.63762
v -11.4534 4.613453 17.63762
v -11.4534 3.412417 18.34752
v -12.22015 3.412417 18.34752
v -12.22015 3.412417 -18.34752
v -11.4534 3.412417 -18.34752
v -12.22015 3.412417 18.34752
v -12.22015 2.585351 18.34752
v -12.22015 2.585351 -18.34752
v -12.22015 3.412417 -18.34752
v -11.4534 2.585351 -18.34752
v -11.4534 3.412417 -18.34752
v -12.22015 3.412417 -18.34752
v -12.22015 2.585351 -18.34752
v -12.22015 2.585351 18.34752
v -12.22015 3.412417 18.34752
v -11.4534 3.412417 18.34752
v -11.4534 2.585351 18.34752
v 11.45343 2.585351 18.34752
v 11.45343 3.412417 18.34752
v 11.45343 3.412417 17.162
v 11.45343 2.585351 17.162
v 11.45343 3.412417 18.34752
v -11.4534 3.412417 18.34752
v -11.4534 3.412417 17.162
v 11.45343 3.412417 17.162
v -11.4534 3.412417 18.34752
v -11.4534 2.585351 18.34752
v -11.4534 2.585351 17.162
v -11.4534 3.412417 17.162
v -11.4534 2.585351 18.34752
v -11.4534 3.412417 18.34752
v 11.45343 3.412417 18.34752
v 11.45343 2.585351 18.34752
v 11.45343 2.585351 -17.162
v 11.45343 3.412417 -17.162
v 11.45343 3.412417 -18.34749
v 11.45343 2.585351 -18.34749
v 11.45343 3.412417 -17.162
v -11.4534 3.412417 -17.162
v -11.4534 3.412417 -18.34752
v 11.45343 3.412417 -18.34749
v -11.4534 3.412417 -17.162
v -11.4534 2.585351 -17.162
v -11.4534 2.585351 -18.34752
v -11.4534 3.412417 -18.34752
v 11.45343 2.585351 -18.34749
v 11.45343 3.412417 -18.34749
v -11.4534 3.412417 -18.34752
v -11.4534 2.585351 -18.34752
v 12.22015 2.585351 18.34752
v 12.22015 3.412417 18.34752
v 12.22015 3.412417 -18.34749
v 12.22015 2.585351 -18.34749
v 12.22015 3.412417 18.34752
v 11.45343 3.412417 18.34752
v 11.45343 3.412417 -18.34749
v 12.22015 3.412417 -18.34749
v 12.22015 2.585351 -18.34749
v 12.22015 3.412417 -18.34749
v 11.45343 3.412417 -18.34749
v 11.45343 2.585351 -18.34749
v 11.45343 2.585351 18.34752
v 11.45343 3.412417 18.34752
v 12.22015 3.412417 18.34752
v 12.22015 2.585351 18.34752
v 11.92905 -1.33355 15.44804
v 11.20645 -1.33355 15.44804
v 11.20645 -1.33355 -16.91499
v 11.92905 -1.33355 -16.91499
v 11.20645 -1.33355 15.44804
v 11.20645 -4.613452 15.44804
v 11.20645 -4.613452 -16.91499
v 11.20645 -1.33355 -16.91499
v 11.92905 -4.613453 15.44804
v 11.92905 -1.33355 15.44804
v 11.92905 -1.33355 -16.91499
v 11.92905 -4.613453 -16.91499
v 11.92905 -1.33355 -17.63762
v 11.92905 -4.613452 -17.63762
v -11.92902 -1.33355 16.17067
v -11.92902 -1.33355 15.44804
v 11.92905 -1.33355 15.44804
v 11.92905 -1.33355 16.17067
v -11.92902 -1.33355 15.44804
v -11.92902 -4.613452 15.44804
v 11.92905 -4.613452 15.44804
v 11.92905 -1.33355 15.44804
v -11.92905 -4.613453 16.17067
v -11.92902 -1.33355 16.17067
v 11.92905 -1.33355 16.17067
v 11.92905 -4.613453 16.17067
v 11.92905 -4.613453 16.17067
v 11.92905 -1.33355 16.17067
v 11.92905 -1.33355 15.44804
v 11.92905 -4.613452 15.44804
v -11.92902 -4.613452 15.44804
v -11.92902 -1.33355 15.44804
v -11.92902 -1.33355 16.17067
v -11.92905 -4.613453 16.17067
v 3.325378 -1.33355 -16.91499
v 3.325378 -1.33355 -17.63762
v 11.92905 -1.33355 -17.63762
v 11.92905 -1.33355 -16.91499
v 3.325378 -1.33355 -17.63762
v 3.325378 -4.613452 -17.63762
v 11.92905 -4.613452 -17.63762
v 11.92905 -1.33355 -17.63762
v 3.325378 -4.613453 -16.91499
v 3.325378 -1.33355 -16.91499
v 11.92905 -1.33355 -16.91499
v 11.92905 -4.613453 -16.91499
v 3.325378 -4.613452 -17.63762
v 3.325378 -1.33355 -17.63762
v 3.325378 -1.33355 -16.91499
v 3.325378 -4.613453 -16.91499
v -11.92902 -1.33355 -16.91502
v -11.20639 -1.33355 -16.91502
v -11.20639 -1.33355 15.44804
v -11.92902 -1.33355 15.44804
v -11.20639 -1.33355 -16.91502
v -11.20639 -4.613452 -16.91502
v -11.20639 -4.613452 15.44804
v -11.20639 -1.33355 15.44804
v -11.92902 -4.613453 -16.91502
v -11.92902 -1.33355 -16.91502
v -11.92902 -1.33355 15.44804
v -11.92902 -4.613453 15.44804
v -3.434753 -1.33355 -17.63762
v -3.434753 -1.33355 -16.91502
v -11.92902 -1.33355 -16.91502
v -11.92902 -1.33355 -17.63762
v -3.434753 -1.33355 -16.91502
v -3.434753 -4.613452 -16.91502
v -11.92902 -4.613452 -16.91502
v -11.92902 -1.33355 -16.91502
v -3.434753 -4.613453 -17.63762
v -3.434753 -1.33355 -17.63762
v -11.92902 -1.33355 -17.63762
v -11.92902 -4.613453 -17.63762
v -11.92902 -4.613453 -17.63762
v -11.92902 -1.33355 -17.63762
v -11.92902 -1.33355 -16.91502
v -11.92902 -4.613452 -16.91502
v -3.434753 -4.613452 -16.91502
v -3.434753 -1.33355 -16.91502
v -3.434753 -1.33355 -17.63762
v -3.434753 -4.613453 -17.63762
vt 0.3222645 0.3408542
vt 0.3268433 0.3408542
vt 0.3268433 0.3352094
vt 0.3222644 0.3352094
vt 0.3222645 0.3408542
vt 0.3268433 0.3408543
vt 0.3268433 0.3352093
vt 0.3222644 0.3352094
vt 0.3832791 0.4626515
vt 0.3832791 0.4658812
vt 0.3865089 0.4658812
vt 0.3865089 0.4626515
vt 0.3897386 0.4658812
vt 0.3897386 0.4626515
vt 0.3832791 0.4658812
vt 0.3832791 0.469111
vt 0.3865089 0.469111
vt 0.3865089 0.4658812
vt 0.3832791 0.469111
vt 0.3832791 0.4723407
vt 0.3865089 0.4723407
vt 0.3865089 0.469111
vt 0.3832791 0.4626515
vt 0.3832791 0.4658812
vt 0.3865089 0.4658812
vt 0.3865089 0.4626515
vt 0.3832791 0.4658812
vt 0.3832791 0.469111
vt 0.3865089 0.469111
vt 0.3865089 0.4658812
vt 0.3832791 0.469111
vt 0.3832791 0.4723407
vt 0.3865089 0.4723407
vt 0.3865089 0.469111
vt 0.3865089 0.4626515
vt 0.3865089 0.4658812
vt 0.3897386 0.4658812
vt 0.3897386 0.4626515
vt 0.3800494 0.4626515
vt 0.3800494 0.4658812
vt 0.3832791 0.4658812
vt 0.3832791 0.4626515
vt 0.3832791 0.4626515
vt 0.3832791 0.4658812
vt 0.3865089 0.4658812
vt 0.3865089 0.4626515
vt 0.3832791 0.4658812
vt 0.3832791 0.469111
vt 0.3865089 0.469111
vt 0.3865089 0.4658812
vt 0.3832791 0.469111
vt 0.3832791 0.4723407
vt 0.3865089 0.4723407
vt 0.3865089 0.469111
vt 0.3800494 0.4626515
vt 0.3800494 0.4658812
vt 0.3832791 0.4658812
vt 0.3832791 0.4626515
vt 0.3832791 0.4626515
vt 0.3832791 0.4658812
vt 0.3865089 0.4658812
vt 0.3865089 0.4626515
vt 0.3832791 0.4658812
vt 0.3832791 0.469111
vt 0.3865089 0.469111
vt 0.3865089 0.4658812
vt 0.3832791 0.469111
vt 0.3832791 0.4723407
vt 0.3865089 0.4723407
vt 0.3865089 0.469111
vt 0.2939174 0.09113827
vt 0.2939174 0.09436801
vt 0.2971471 0.09436801
vt 0.2971471 0.09113827
vt 0.2939174 0.09436801
vt 0.2939174 0.09759778
vt 0.2971471 0.09759778
vt 0.2971471 0.09436801
vt 0.2971471 0.08790857
vt 0.2971471 0.09113827
vt 0.3003768 0.09113827
vt 0.3003768 0.08790857
vt 0.2906876 0.08790857
vt 0.2906876 0.09113827
vt 0.2939174 0.09113827
vt 0.2939174 0.08790857
vt 0.2939174 0.08790857
vt 0.2939174 0.09113827
vt 0.2971471 0.09113827
vt 0.2971471 0.08790857
vt 0.2939174 0.09113827
vt 0.2939174 0.09436801
vt 0.2971471 0.09436801
vt 0.2971471 0.09113827
vt 0.2939174 0.09436801
vt 0.2939174 0.09759778
vt 0.2971471 0.09759778
vt 0.2971471 0.09436801
vt 0.2906876 0.08790857
vt 0.2906876 0.09113827
vt 0.2939174 0.09113827
vt 0.2939174 0.08790857
vt 0.2939174 0.08790857
vt 0.2939174 0.09113827
vt 0.2971471 0.09113827
vt 0.2971471 0.08790857
vt 0.2939174 0.09113827
vt 0.2939174 0.09436801
vt 0.2971471 0.09436801
vt 0.2971471 0.09113827
vt 0.2939174 0.09436801
vt 0.2939174 0.09759778
vt 0.2971471 0.09759778
vt 0.2971471 0.09436801
vt 0.2971471 0.08790857
vt 0.2971471 0.09113827
vt 0.3003768 0.09113827
vt 0.3003768 0.08790857
vt 0.2939174 0.08790857
vt 0.2939174 0.09113827
vt 0.2971471 0.09113827
vt 0.2971471 0.08790857
vt 0.2939174 0.09113827
vt 0.2939174 0.09436801
vt 0.2971471 0.09436801
vt 0.2971471 0.09113827
vt 0.2971471 0.08790857
vt 0.2971471 0.09113827
vt 0.3003768 0.09113827
vt 0.3003768 0.08790857
vt 0.2906876 0.08790857
vt 0.2906876 0.09113827
vt 0.2939174 0.09113827
vt 0.2939174 0.08790857
vt 0.3832792 0.4658812
vt 0.3832792 0.4691109
vt 0.3865089 0.4691109
vt 0.3865089 0.4658812
vt 0.3832792 0.4691109
vt 0.3832792 0.4711551
vt 0.3865089 0.4711551
vt 0.3865089 0.4691109
vt 0.3832792 0.4638371
vt 0.3832792 0.4658812
vt 0.3865089 0.4658812
vt 0.3865089 0.4638371
vt 0.3897386 0.4658812
vt 0.3897386 0.4638371
vt 0.3832792 0.4658812
vt 0.3832792 0.4691109
vt 0.3865089 0.4691109
vt 0.3865089 0.4658812
vt 0.3832792 0.4691109
vt 0.3832792 0.4711551
vt 0.3865089 0.4711551
vt 0.3865089 0.4691109
vt 0.3832792 0.4638371
vt 0.3832792 0.4658812
vt 0.3865089 0.4658812
vt 0.3865089 0.4638371
vt 0.3865089 0.4638371
vt 0.3865089 0.4658812
vt 0.3897386 0.4658812
vt 0.3897386 0.4638371
vt 0.3800494 0.4638371
vt 0.3800494 0.4658812
vt 0.3832792 0.4658812
vt 0.3832792 0.4638371
vt 0.3832792 0.4658812
vt 0.3832792 0.4691109
vt 0.3865089 0.4691109
vt 0.3865089 0.4658812
vt 0.3832792 0.4691109
vt 0.3832792 0.4711551
vt 0.3865089 0.4711551
vt 0.3865089 0.4691109
vt 0.3832792 0.4638371
vt 0.3832792 0.4658812
vt 0.3865089 0.4658812
vt 0.3865089 0.4638371
vt 0.3800494 0.4638371
vt 0.3800494 0.4658812
vt 0.3832792 0.4658812
vt 0.3832792 0.4638371
vt 0.3832792 0.4658812
vt 0.3832792 0.4691109
vt 0.3865089 0.4691109
vt 0.3865089 0.4658812
vt 0.3832792 0.4691109
vt 0.3832792 0.4711551
vt 0.3865089 0.4711551
vt 0.3865089 0.4691109
vt 0.3832792 0.4638371
vt 0.3832792 0.4658812
vt 0.3865089 0.4658812
vt 0.3865089 0.4638371
vt 0.3832792 0.4658812
vt 0.3832792 0.4691109
vt 0.3865089 0.4691109
vt 0.3865089 0.4658812
vt 0.3832792 0.4691109
vt 0.3832792 0.4711551
vt 0.3865089 0.4711551
vt 0.3865089 0.4691109
vt 0.3832792 0.4638371
vt 0.3832792 0.4658812
vt 0.3865089 0.4658812
vt 0.3865089 0.4638371
vt 0.3865089 0.4638371
vt 0.3865089 0.4658812
vt 0.3897386 0.4658812
vt 0.3897386 0.4638371
vt 0.3800494 0.4638371
vt 0.3800494 0.4658812
vt 0.3832792 0.4658812
vt 0.3832792 0.4638371
vn 0.116587 0.9931805 0
vn 0.116587 0.9931805 0
vn 0.116587 0.9931805 0
vn 0.116587 0.9931805 0
vn -0.1285575 0.991702 0
vn -0.1285575 0.991702 0
vn -0.1285575 0.991702 0
vn -0.1285575 0.991702 0
vn 0 0 -1
vn 0 0 -1
vn 0 0 -1
vn 0 0 -1
vn 0 0 -1
vn 0 0 -1
vn 0 1 0
vn 0 1 0
vn 0 1 0
vn 0 1 0
vn 0 0 1
vn 0 0 1
vn 0 0 1
vn 0 0 1
vn 1 0 0
vn 1 0 0
vn 1 0 0
vn 1 0 0
vn 0 1 0
vn 0 1 0
vn 0 1 0
vn 0 1 0
vn -1 0 0
vn -1 0 0
vn -1 0 0
vn -1 0 0
vn 0 0 -1
vn 0 0 -1
vn 0 0 -1
vn 0 0 -1
vn 0 0 1
vn 0 0 1
vn 0 0 1
vn 0 0 1
vn 1 0 0
vn 1 0 0
vn 1 0 0
vn 1 0 0
vn 0 1 0
vn 0 1 0
vn 0 1 0
vn 0 1 0
vn -1 0 0
vn -1 0 0
vn -1 0 0
vn -1 0 0
vn 0 0 1
vn 0 0 1
vn 0 0 1
vn 0 0 1
vn 0 0 -1
vn 0 0 -1
vn 0 0 -1
vn 0 0 -1
vn 0 1 0
vn 0 1 0
vn 0 1 0
vn 0 1 0
vn 0 0 1
vn 0 0 1
vn 0 0 1
vn 0 0 1
vn 0 1 0
vn 0 1 0
vn 0 1 0
vn 0 1 0
vn -1 0 0
vn -1 0 0
vn -1 0 0
vn -1 0 0
vn 0 0 -1
vn 0 0 -1
vn 0 0 -1
vn 0 0 -1
vn 0 0 1
vn 0 0 1
vn 0 0 1
vn 0 0 1
vn 1 0 0
vn 1 0 0
vn 1 0 0
vn 1 0 0
vn 0 1 0
vn 0 1 0
vn 0 1 0
vn 0 1 0
vn -1 0 0
vn -1 0 0
vn -1 0 0
vn -1 0 0
vn 0 0 1
vn 0 0 1
vn 0 0 1
vn 0 0 1
vn 1 0 0
vn 1 0 0
vn 1 0 0
vn 1 0 0
vn 0 1 0
vn 0 1 0
vn 0 1 0
vn 0 1 0
vn -1 0 0
vn -1 0 0
vn -1 0 0
vn -1 0 0
vn 0 0 -1
vn 0 0 -1
vn 0 0 -1
vn 0 0 -1
vn 1 0 0
vn 1 0 0
vn 1 0 0
vn 1 0 0
vn 0 1 0
vn 0 1 0
vn 0 1 0
vn 0 1 0
vn 0 0 -1
vn 0 0 -1
vn 0 0 -1
vn 0 0 -1
vn 0 0 1
vn 0 0 1
vn 0 0 1
vn 0 0 1
vn 0 1 0
vn 0 1 0
vn 0 1 0
vn 0 1 0
vn -1 0 0
vn -1 0 0
vn -1 0 0
vn -1 0 0
vn 1 0 0
vn 1 0 0
vn 1 0 0
vn 1 0 0
vn 1 0 0
vn 1 0 0
vn 0 1 0
vn 0 1 0
vn 0 1 0
vn 0 1 0
vn 0 0 -1
vn 0 0 -1
vn 0 0 -1
vn 0 0 -1
vn 0 0 1
vn 0 0 1
vn 0 0 1
vn 0 0 1
vn 1 0 0
vn 1 0 0
vn 1 0 0
vn 1 0 0
vn -1 1.28759E-05 -2.111584E-05
vn -1 1.28759E-05 -2.111584E-05
vn -1 1.28759E-05 -2.111584E-05
vn -1 1.28759E-05 -2.111584E-05
vn 0 1 0
vn 0 1 0
vn 0 1 0
vn 0 1 0
vn 0 0 -1
vn 0 0 -1
vn 0 0 -1
vn 0 0 -1
vn 0 0 1
vn 0 0 1
vn 0 0 1
vn 0 0 1
vn -1 0 0
vn -1 0 0
vn -1 0 0
vn -1 0 0
vn 0 1 0
vn 0 1 0
vn 0 1 0
vn 0 1 0
vn 1 0 0
vn 1 0 0
vn 1 0 0
vn 1 0 0
vn -1 0 0
vn -1 0 0
vn -1 0 0
vn -1 0 0
vn 0 1 0
vn 0 1 0
vn 0 1 0
vn 0 1 0
vn 0 0 1
vn 0 0 1
vn 0 0 1
vn 0 0 1
vn 0 0 -1
vn 0 0 -1
vn 0 0 -1
vn 0 0 -1
vn -1 0 0
vn -1 0 0
vn -1 0 0
vn -1 0 0
vn 1 0 0
vn 1 0 0
vn 1 0 0
vn 1 0 0
f 3/3/3 2/2/2 1/1/1
f 4/4/4 3/3/3 1/1/1
f 7/7/7 6/6/6 5/5/5
f 8/8/8 7/7/7 5/5/5
f 11/11/11 10/10/10 9/9/9
f 12/12/12 11/11/11 9/9/9
f 13/13/13 11/11/11 12/12/12
f 14/14/14 13/13/13 12/12/12
f 17/17/17 16/16/16 15/15/15
f 18/18/18 17/17/17 15/15/15
f 21/21/21 20/20/20 19/19/19
f 22/22/22 21/21/21 19/19/19
f 25/25/25 24/24/24 23/23/23
f 26/26/26 25/25/25 23/23/23
f 29/29/29 28/28/28 27/27/27
f 30/30/30 29/29/29 27/27/27
f 33/33/33 32/32/32 31/31/31
f 34/34/34 33/33/33 31/31/31
f 37/37/37 36/36/36 35/35/35
f 38/38/38 37/37/37 35/35/35
f 41/41/41 40/40/40 39/39/39
f 42/42/42 41/41/41 39/39/39
f 45/45/45 44/44/44 43/43/43
f 46/46/46 45/45/45 43/43/43
f 49/49/49 48/48/48 47/47/47
f 50/50/50 49/49/49 47/47/47
f 53/53/53 52/52/52 51/51/51
f 54/54/54 53/53/53 51/51/51
f 57/57/57 56/56/56 55/55/55
f 58/58/58 57/57/57 55/55/55
f 61/61/61 60/60/60 59/59/59
f 62/62/62 61/61/61 59/59/59
f 65/65/65 64/64/64 63/63/63
f 66/66/66 65/65/65 63/63/63
f 69/69/69 68/68/68 67/67/67
f 70/70/70 69/69/69 67/67/67
f 73/73/73 72/72/72 71/71/71
f 74/74/74 73/73/73 71/71/71
f 77/77/77 76/76/76 75/75/75
f 78/78/78 77/77/77 75/75/75
f 81/81/81 80/80/80 79/79/79
f 82/82/82 81/81/81 79/79/79
f 85/85/85 84/84/84 83/83/83
f 86/86/86 85/85/85 83/83/83
f 89/89/89 88/88/88 87/87/87
f 90/90/90 89/89/89 87/87/87
f 93/93/93 92/92/92 91/91/91
f 94/94/94 93/93/93 91/91/91
f 97/97/97 96/96/96 95/95/95
f 98/98/98 97/97/97 95/95/95
f 101/101/101 100/100/100 99/99/99
f 102/102/102 101/101/101 99/99/99
f 105/105/105 104/104/104 103/103/103
f 106/106/106 105/105/105 103/103/103
f 109/109/109 108/108/108 107/107/107
f 110/110/110 109/109/109 107/107/107
f 113/113/113 112/112/112 111/111/111
f 114/114/114 113/113/113 111/111/111
f 117/117/117 116/116/116 115/115/115
f 118/118/118 117/117/117 115/115/115
f 121/121/121 120/120/120 119/119/119
f 122/122/122 121/121/121 119/119/119
f 125/125/125 124/124/124 123/123/123
f 126/126/126 125/125/125 123/123/123
f 129/129/129 128/128/128 127/127/127
f 130/130/130 129/129/129 127/127/127
f 133/133/133 132/132/132 131/131/131
f 134/134/134 133/133/133 131/131/131
f 137/137/137 136/136/136 135/135/135
f 138/138/138 137/137/137 135/135/135
f 141/141/141 140/140/140 139/139/139
f 142/142/142 141/141/141 139/139/139
f 145/145/145 144/144/144 143/143/143
f 146/146/146 145/145/145 143/143/143
f 147/147/147 145/145/145 146/146/146
f 148/148/148 147/147/147 146/146/146
f 151/151/151 150/150/150 149/149/149
f 152/152/152 151/151/151 149/149/149
f 155/155/155 154/154/154 153/153/153
f 156/156/156 155/155/155 153/153/153
f 159/159/159 158/158/158 157/157/157
f 160/160/160 159/159/159 157/157/157
f 163/163/163 162/162/162 161/161/161
f 164/164/164 163/163/163 161/161/161
f 167/167/167 166/166/166 165/165/165
f 168/168/168 167/167/167 165/165/165
f 171/171/171 170/170/170 169/169/169
f 172/172/172 171/171/171 169/169/169
f 175/175/175 174/174/174 173/173/173
f 176/176/176 175/175/175 173/173/173
f 179/179/179 178/178/178 177/177/177
f 180/180/180 179/179/179 177/177/177
f 183/183/183 182/182/182 181/181/181
f 184/184/184 183/183/183 181/181/181
f 187/187/187 186/186/186 185/185/185
f 188/188/188 187/187/187 185/185/185
f 191/191/191 190/190/190 189/189/189
f 192/192/192 191/191/191 189/189/189
f 195/195/195 194/194/194 193/193/193
f 196/196/196 195/195/195 193/193/193
f 199/199/199 198/198/198 197/197/197
f 200/200/200 199/199/199 197/197/197
f 203/203/203 202/202/202 201/201/201
f 204/204/204 203/203/203 201/201/201
f 207/207/207 206/206/206 205/205/205
f 208/208/208 207/207/207 205/205/205
f 211/211/211 210/210/210 209/209/209
f 212/212/212 211/211/211 209/209/209
f 215/215/215 214/214/214 213/213/213
f 216/216/216 215/215/215 213/213/213
