g SpecialForces_01_mesh
v 0.3812385 0.8152301 -0.1157413
v 0.3577392 0.8152301 -0.1157413
v 0.3812385 0.5316954 -0.1157413
v 0.3577392 0.5316954 -0.1157413
v 0.3577392 0.8152301 -0.1157413
v 0.3812385 0.8152301 -0.1157413
v 0.3577392 0.8152301 0.1083713
v 0.3812385 0.8152301 0.1083713
v 0.3577392 0.8152301 0.1083713
v 0.3812385 0.8152301 0.1083713
v 0.3577392 0.5316954 0.1083713
v 0.3812385 0.5316954 0.1083713
v 0.3812385 0.5316954 -0.1157413
v 0.3577392 0.5316954 -0.1157413
v 0.3812385 0.5316954 0.1083713
v 0.3577392 0.5316954 0.1083713
v 0.3812385 0.5316954 0.1083713
v 0.3812385 0.8152301 0.1083713
v 0.3812385 0.5316954 -0.1157413
v 0.3812385 0.8152301 -0.1157413
v -0.3812385 0.8152301 -0.1015498
v -0.3812385 0.5316954 -0.1015498
v -0.3577392 0.8152301 -0.1015498
v -0.3577392 0.5316954 -0.1015498
v -0.3577392 0.8152301 -0.1015498
v -0.3577392 0.8152301 0.1225628
v -0.3812385 0.8152301 -0.1015498
v -0.3812385 0.8152301 0.1225628
v -0.3577392 0.8152301 0.1225628
v -0.3577392 0.5316954 0.1225628
v -0.3812385 0.8152301 0.1225628
v -0.3812385 0.5316954 0.1225628
v -0.3812385 0.5316954 -0.1015498
v -0.3812385 0.5316954 0.1225628
v -0.3577392 0.5316954 -0.1015498
v -0.3577392 0.5316954 0.1225628
v -0.3812385 0.5316954 0.1225628
v -0.3812385 0.5316954 -0.1015498
v -0.3812385 0.8152301 0.1225628
v -0.3812385 0.8152301 -0.1015498
v -0.1861907 1.4613 0.3053678
v -0.1861907 1.4613 0.2818684
v -0.1861907 1.18355 0.3053678
v -0.1861907 1.18355 0.2818684
v -0.4388135 1.4613 0.2069955
v -0.4388135 1.4613 0.2818684
v -0.4638359 1.4613 0.2069955
v -0.4638359 1.4613 0.3053678
v -0.1861907 1.4613 0.3053678
v -0.1861907 1.4613 0.2818684
v -0.4388135 1.4613 0.2069955
v -0.4638359 1.4613 0.2069955
v -0.4388135 1.18355 0.2069955
v -0.4638359 1.18355 0.2069955
v -0.4638359 1.18355 0.3053678
v -0.4388135 1.18355 0.2818684
v -0.4638359 1.18355 0.2069955
v -0.4388135 1.18355 0.2069955
v -0.1861907 1.18355 0.3053678
v -0.1861907 1.18355 0.2818684
v -0.4638359 1.18355 0.2069955
v -0.4638359 1.4613 0.2069955
v -0.4638359 1.18355 0.3053678
v -0.4638359 1.4613 0.3053678
v -0.4638359 1.18355 0.3053678
v -0.4638359 1.4613 0.3053678
v -0.1861907 1.18355 0.3053678
v -0.1861907 1.4613 0.3053678
v 0.1991372 1.4613 0.3053678
v 0.1991372 1.18355 0.3053678
v 0.1991372 1.4613 0.2818684
v 0.1991372 1.18355 0.2818684
v 0.4644436 1.4613 0.3053678
v 0.4388135 1.4613 0.2818684
v 0.4644436 1.4613 0.2069955
v 0.4388135 1.4613 0.2069955
v 0.1991372 1.4613 0.3053678
v 0.1991372 1.4613 0.2818684
v 0.4388135 1.4613 0.2069955
v 0.4388135 1.18355 0.2069955
v 0.4644436 1.4613 0.2069955
v 0.4644436 1.18355 0.2069955
v 0.4644436 1.18355 0.3053678
v 0.4644436 1.18355 0.2069955
v 0.4388135 1.18355 0.2818684
v 0.4388135 1.18355 0.2069955
v 0.1991372 1.18355 0.3053678
v 0.1991372 1.18355 0.2818684
v 0.4644436 1.18355 0.2069955
v 0.4644436 1.18355 0.3053678
v 0.4644436 1.4613 0.2069955
v 0.4644436 1.4613 0.3053678
v 0.4644436 1.18355 0.3053678
v 0.1991372 1.18355 0.3053678
v 0.4644436 1.4613 0.3053678
v 0.1991372 1.4613 0.3053678
v -0.1562024 1.4613 0.3053678
v -0.1562024 1.18355 0.3053678
v -0.1562024 1.4613 0.2818685
v -0.1562024 1.18355 0.2818685
v -0.1562024 1.4613 0.2818685
v 0.1628361 1.4613 0.2818685
v -0.1562024 1.4613 0.3053678
v 0.1628361 1.4613 0.3053678
v 0.1628361 1.4613 0.2818685
v 0.1628361 1.18355 0.2818685
v 0.1628361 1.4613 0.3053678
v 0.1628361 1.18355 0.3053678
v -0.1562024 1.18355 0.3053678
v 0.1628361 1.18355 0.3053678
v -0.1562024 1.18355 0.2818685
v 0.1628361 1.18355 0.2818685
v 0.1628361 1.18355 0.3053678
v -0.1562024 1.18355 0.3053678
v 0.1628361 1.4613 0.3053678
v -0.1562024 1.4613 0.3053678
v -0.4891222 2.689873 -0.5349535
v -0.4891222 2.689873 0.5676387
v -0.4891222 2.570211 -0.5349535
v -0.4891222 2.570211 0.5676387
v 0.3626714 2.972883 -0.4218465
v 0.3626739 2.972883 0.4545297
v -0.3626717 2.972883 -0.4218464
v -0.3626741 2.972883 0.4545297
v 0.4891221 2.570211 -0.5349537
v 0.4891221 2.570211 0.5676388
v 0.4891221 2.689873 -0.5349537
v 0.4891221 2.689873 0.5676388
v -0.4891222 2.570211 0.5676387
v 0.4891221 2.570211 0.5676388
v -0.4891222 2.570211 -0.5349535
v 0.4891221 2.570211 -0.5349537
v -0.4891222 2.570211 0.5676387
v -0.4891222 2.689873 0.5676387
v 0.4891221 2.570211 0.5676388
v 0.4891221 2.689873 0.5676388
v 0.4891221 2.689873 -0.5349537
v -0.4891222 2.689873 -0.5349535
v 0.4891221 2.570211 -0.5349537
v -0.4891222 2.570211 -0.5349535
v -0.3626717 2.689873 -0.4218464
v -0.3626714 2.689873 0.4545297
v -0.4891222 2.689873 -0.5349535
v 0.4891221 2.689873 -0.5349537
v -0.3626714 2.689873 0.4545297
v -0.4891222 2.689873 0.5676387
v 0.3626717 2.689873 0.4545297
v 0.4891221 2.689873 0.5676388
v -0.4891222 2.689873 0.5676387
v 0.3626717 2.689873 0.4545297
v 0.4891221 2.689873 -0.5349537
v 0.4891221 2.689873 0.5676388
v 0.3626714 2.689873 -0.4218465
v -0.3626717 2.689873 -0.4218464
v 0.3626717 2.689873 0.4545297
v 0.3626714 2.689873 -0.4218465
v -0.3626717 2.972883 -0.4218464
v -0.3626741 2.972883 0.4545297
v -0.3626717 2.689873 -0.4218464
v -0.3626714 2.689873 0.4545297
v 0.3626717 2.689873 0.4545297
v -0.3626714 2.689873 0.4545297
v 0.3626739 2.972883 0.4545297
v -0.3626741 2.972883 0.4545297
v 0.3626714 2.689873 -0.4218465
v 0.3626717 2.689873 0.4545297
v 0.3626714 2.972883 -0.4218465
v 0.3626739 2.972883 0.4545297
v 0.3626714 2.972883 -0.4218465
v -0.3626717 2.972883 -0.4218464
v 0.3626714 2.689873 -0.4218465
v -0.3626717 2.689873 -0.4218464
vt 0.2759556 0.4310269
vt 0.2759556 0.4310269
vt 0.2759556 0.3744171
vt 0.2759556 0.3744171
vt 0.2845546 0.4310269
vt 0.2845546 0.4310269
vt 0.3072647 0.4310269
vt 0.3072647 0.4310269
vt 0.3213472 0.4310269
vt 0.3213472 0.4310269
vt 0.3213472 0.3744171
vt 0.3213472 0.3744171
vt 0.2759556 0.395478
vt 0.2759556 0.395478
vt 0.2759556 0.4181881
vt 0.2759556 0.418188
vt 0.3213472 0.3744171
vt 0.3213472 0.4310269
vt 0.2759556 0.3744171
vt 0.2759556 0.4310269
vt 0.2759556 0.4310269
vt 0.2759556 0.3744171
vt 0.2759556 0.4310269
vt 0.2759556 0.3744171
vt 0.2845546 0.4310269
vt 0.3072647 0.4310269
vt 0.2845546 0.4310269
vt 0.3072647 0.4310269
vt 0.3213472 0.4310269
vt 0.3213472 0.3744171
vt 0.3213472 0.4310269
vt 0.3213472 0.3744171
vt 0.2759556 0.395478
vt 0.2759556 0.4181881
vt 0.2759556 0.395478
vt 0.2759556 0.418188
vt 0.3213472 0.3744171
vt 0.2759556 0.3744171
vt 0.3213472 0.4310269
vt 0.2759556 0.4310269
vt 0.3660717 0.6904674
vt 0.3660717 0.6904674
vt 0.3660717 0.6337801
vt 0.3660717 0.6337801
vt 0.4340172 0.6888323
vt 0.4340172 0.6888323
vt 0.4340172 0.6888323
vt 0.4340172 0.6888323
vt 0.4340172 0.6888323
vt 0.4340172 0.6888323
vt 0.302651 0.6904674
vt 0.302651 0.6904674
vt 0.302651 0.6337801
vt 0.302651 0.6337801
vt 0.4340172 0.6888323
vt 0.4340172 0.6888323
vt 0.4340172 0.6888323
vt 0.4340172 0.6888323
vt 0.4340172 0.6888323
vt 0.4340172 0.6888323
vt 0.302651 0.6337801
vt 0.302651 0.6904674
vt 0.3124504 0.6337801
vt 0.3124504 0.6904674
vt 0.3188783 0.6337801
vt 0.3188783 0.6904674
vt 0.3660717 0.6337801
vt 0.3660717 0.6904674
vt 0.4424801 0.6904674
vt 0.4424801 0.6337801
vt 0.4424801 0.6904674
vt 0.4424801 0.6337801
vt 0.4340172 0.6888323
vt 0.4340172 0.6888323
vt 0.4340172 0.6888323
vt 0.4340172 0.6888323
vt 0.4340172 0.6888323
vt 0.4340172 0.6888323
vt 0.5065485 0.6904674
vt 0.5065485 0.6337801
vt 0.5065485 0.6904674
vt 0.5065485 0.6337801
vt 0.4340172 0.6888323
vt 0.4340172 0.6888323
vt 0.4340172 0.6888323
vt 0.4340172 0.6888323
vt 0.4340172 0.6888323
vt 0.4340172 0.6888323
vt 0.5065485 0.6337801
vt 0.495982 0.6337801
vt 0.5065485 0.6904674
vt 0.495982 0.6904674
vt 0.4893766 0.6337801
vt 0.4424801 0.6337801
vt 0.4893766 0.6904674
vt 0.4424801 0.6904674
vt 0.3720271 0.6904674
vt 0.3720271 0.6337801
vt 0.3720271 0.6904674
vt 0.3720271 0.6337801
vt 0.4340172 0.6888323
vt 0.4340172 0.6888323
vt 0.4340172 0.6888323
vt 0.4340172 0.6888323
vt 0.4360956 0.6904674
vt 0.4360956 0.6337801
vt 0.4360956 0.6904674
vt 0.4360956 0.6337801
vt 0.4340172 0.6888323
vt 0.4340172 0.6888323
vt 0.4340172 0.6888323
vt 0.4340172 0.6888323
vt 0.4360956 0.6337801
vt 0.3720271 0.6337801
vt 0.4360956 0.6904674
vt 0.3720271 0.6904674
vt 0.6393698 0.3028031
vt 0.6393698 0.4569502
vt 0.6718479 0.3028031
vt 0.6718479 0.4569502
vt 0.5050159 0.1250537
vt 0.419961 0.1250537
vt 0.5050159 0.219619
vt 0.419961 0.219619
vt 0.6718479 0.1730781
vt 0.6718479 0.02888793
vt 0.6393698 0.1730781
vt 0.6393698 0.02888793
vt 0.5364043 0.03516798
vt 0.5364043 0.0437726
vt 0.5467689 0.03516799
vt 0.5467689 0.0437726
vt 0.6718479 0.4569502
vt 0.6393698 0.4569502
vt 0.6718479 0.5923292
vt 0.6393698 0.5923292
vt 0.6393698 0.1730781
vt 0.6393698 0.3028031
vt 0.6718479 0.1730781
vt 0.6718479 0.3028031
vt 0.6266429 0.3028031
vt 0.6266398 0.4569502
vt 0.6393698 0.3028031
vt 0.6393698 0.1730781
vt 0.6266398 0.4569502
vt 0.6393698 0.4569502
vt 0.6266392 0.5923292
vt 0.6393698 0.5923292
vt 0.6393698 0.4569502
vt 0.6266392 0.5923292
vt 0.6393698 0.1730781
vt 0.6393698 0.02888793
vt 0.6266425 0.1730781
vt 0.6266434 0.3028031
vt 0.6266422 0.02888793
vt 0.6266425 0.1730781
vt 0.5050159 0.219619
vt 0.419961 0.219619
vt 0.5050159 0.2444794
vt 0.419961 0.2444794
vt 0.3916325 0.1250537
vt 0.3916325 0.219619
vt 0.419961 0.1250537
vt 0.419961 0.219619
vt 0.5050159 0.09680746
vt 0.419961 0.09680746
vt 0.5050159 0.1250537
vt 0.419961 0.1250537
vt 0.5050159 0.1250537
vt 0.5050159 0.219619
vt 0.5246226 0.1250537
vt 0.5246226 0.219619
vn 0 0 -1
vn 0 0 -1
vn 0 0 -1
vn 0 0 -1
vn 0 1 0
vn 0 1 0
vn 0 1 0
vn 0 1 0
vn 0 0 1
vn 0 0 1
vn 0 0 1
vn 0 0 1
vn 0 -1 0
vn 0 -1 0
vn 0 -1 0
vn 0 -1 0
vn 1 0 0
vn 1 0 0
vn 1 0 0
vn 1 0 0
vn 0 0 -1
vn 0 0 -1
vn 0 0 -1
vn 0 0 -1
vn 0 1 0
vn 0 1 0
vn 0 1 0
vn 0 1 0
vn 0 0 1
vn 0 0 1
vn 0 0 1
vn 0 0 1
vn 0 -1 0
vn 0 -1 0
vn 0 -1 0
vn 0 -1 0
vn -1 0 0
vn -1 0 0
vn -1 0 0
vn -1 0 0
vn 1 0 0
vn 1 0 0
vn 1 0 0
vn 1 0 0
vn 0 1 0
vn 0 1 0
vn 0 1 0
vn 0 1 0
vn 0 1 0
vn 0 1 0
vn 0 0 -1
vn 0 0 -1
vn 0 0 -1
vn 0 0 -1
vn 0 -1 0
vn 0 -1 0
vn 0 -1 0
vn 0 -1 0
vn 0 -1 -4.828673E-07
vn 0 -1 0
vn -1 0 0
vn -1 0 0
vn -1 0 0
vn -1 0 0
vn 0 0 1
vn 0 0 1
vn 0 0 1
vn 0 0 1
vn -1 0 0
vn -1 0 0
vn -1 0 0
vn -1 0 0
vn 0 1 0
vn 0 1 0
vn 0 1 0
vn 0 1 0
vn 0 1 -4.018804E-07
vn 0 1 0
vn 0 0 -1
vn 0 0 -1
vn 0 0 -1
vn 0 0 -1
vn 0 -1 0
vn 0 -1 0
vn 0 -1 0
vn 0 -1 0
vn 0 -1 0
vn 0 -1 0
vn 1 0 0
vn 1 0 0
vn 1 0 0
vn 1 0 0
vn 0 0 1
vn 0 0 1
vn 0 0 1
vn 0 0 1
vn -1 0 0
vn -1 0 0
vn -1 0 0
vn -1 0 0
vn 0 1 0
vn 0 1 0
vn 0 1 0
vn 0 1 0
vn 1 0 0
vn 1 0 0
vn 1 0 0
vn 1 0 0
vn 0 -1 0
vn 0 -1 0
vn 0 -1 0
vn 0 -1 0
vn 0 0 1
vn 0 0 1
vn 0 0 1
vn 0 0 1
vn -1 0 0
vn -1 0 0
vn -1 0 0
vn -1 0 0
vn 0 1 0
vn 0 1 -3.004762E-07
vn 0 1 -2.15073E-07
vn 0 1 -6.145016E-07
vn 1 0 0
vn 1 0 0
vn 1 0 0
vn 1 0 0
vn 0 -1 0
vn 0 -1 0
vn 0 -1 0
vn 0 -1 0
vn -2.085614E-07 0 1
vn -2.004809E-07 0 1
vn -1.123619E-07 0 1
vn -1.042814E-07 0 1
vn -1.042814E-07 0 -1
vn 0 0 -1
vn 0 0 -1
vn 0 0 -1
vn 0 1 2.746852E-07
vn 0 1 0
vn 0 1 2.244175E-07
vn 0 1 6.076748E-07
vn 0 1 0
vn 0 1 0
vn 0 1 -3.311484E-06
vn 0 1 -3.530329E-06
vn 0 1 5.654771E-07
vn 0 1 -3.311484E-06
vn 0 1 0
vn 0 1 0
vn 0 1 0
vn 0 1 2.538789E-06
vn 0 1 0
vn 0 1 0
vn -1 0 -2.742263E-06
vn -1 -7.728323E-06 -2.663298E-07
vn -1 -1.918273E-06 -2.127703E-06
vn -1 -9.64659E-06 3.48228E-07
vn 0 0 1
vn 0 0 1
vn 0 0 1
vn 0 0 1
vn 1 0 -3.482247E-07
vn 1 -5.993394E-06 -2.30107E-06
vn 1 -1.48764E-06 -8.329469E-07
vn 1 -7.48103E-06 -2.785791E-06
vn -1.189309E-07 0 -1
vn 0 0 -1
vn 0 0 -1
vn 0 0 -1
f 3/3/3 2/2/2 1/1/1
f 3/3/3 4/4/4 2/2/2
f 7/7/7 6/6/6 5/5/5
f 7/7/7 8/8/8 6/6/6
f 11/11/11 10/10/10 9/9/9
f 11/11/11 12/12/12 10/10/10
f 15/15/15 14/14/14 13/13/13
f 15/15/15 16/16/16 14/14/14
f 19/19/19 18/18/18 17/17/17
f 19/19/19 20/20/20 18/18/18
f 23/23/23 22/22/22 21/21/21
f 23/23/23 24/24/24 22/22/22
f 27/27/27 26/26/26 25/25/25
f 27/27/27 28/28/28 26/26/26
f 31/31/31 30/30/30 29/29/29
f 31/31/31 32/32/32 30/30/30
f 35/35/35 34/34/34 33/33/33
f 35/35/35 36/36/36 34/34/34
f 39/39/39 38/38/38 37/37/37
f 39/39/39 40/40/40 38/38/38
f 43/43/43 42/42/42 41/41/41
f 43/43/43 44/44/44 42/42/42
f 47/47/47 46/46/46 45/45/45
f 47/47/47 48/48/48 46/46/46
f 46/46/46 48/48/48 49/49/49
f 46/46/46 49/49/49 50/50/50
f 53/53/53 52/52/52 51/51/51
f 53/53/53 54/54/54 52/52/52
f 57/57/57 56/56/56 55/55/55
f 57/57/57 58/58/58 56/56/56
f 56/56/56 59/59/59 55/55/55
f 56/56/56 60/60/60 59/59/59
f 63/63/63 62/62/62 61/61/61
f 63/63/63 64/64/64 62/62/62
f 67/67/67 66/66/66 65/65/65
f 67/67/67 68/68/68 66/66/66
f 71/71/71 70/70/70 69/69/69
f 71/71/71 72/72/72 70/70/70
f 75/75/75 74/74/74 73/73/73
f 75/75/75 76/76/76 74/74/74
f 77/77/77 73/73/73 74/74/74
f 77/77/77 74/74/74 78/78/78
f 81/81/81 80/80/80 79/79/79
f 81/81/81 82/82/82 80/80/80
f 85/85/85 84/84/84 83/83/83
f 85/85/85 86/86/86 84/84/84
f 85/85/85 83/83/83 87/87/87
f 85/85/85 87/87/87 88/88/88
f 91/91/91 90/90/90 89/89/89
f 91/91/91 92/92/92 90/90/90
f 95/95/95 94/94/94 93/93/93
f 95/95/95 96/96/96 94/94/94
f 99/99/99 98/98/98 97/97/97
f 99/99/99 100/100/100 98/98/98
f 103/103/103 102/102/102 101/101/101
f 103/103/103 104/104/104 102/102/102
f 107/107/107 106/106/106 105/105/105
f 107/107/107 108/108/108 106/106/106
f 111/111/111 110/110/110 109/109/109
f 111/111/111 112/112/112 110/110/110
f 115/115/115 114/114/114 113/113/113
f 115/115/115 116/116/116 114/114/114
f 119/119/119 118/118/118 117/117/117
f 119/119/119 120/120/120 118/118/118
f 123/123/123 122/122/122 121/121/121
f 123/123/123 124/124/124 122/122/122
f 127/127/127 126/126/126 125/125/125
f 127/127/127 128/128/128 126/126/126
f 131/131/131 130/130/130 129/129/129
f 131/131/131 132/132/132 130/130/130
f 135/135/135 134/134/134 133/133/133
f 135/135/135 136/136/136 134/134/134
f 139/139/139 138/138/138 137/137/137
f 139/139/139 140/140/140 138/138/138
f 143/143/143 142/142/142 141/141/141
f 144/144/144 143/143/143 141/141/141
f 143/143/143 146/146/146 145/145/145
f 147/147/147 145/145/145 146/146/146
f 150/150/150 149/149/149 148/148/148
f 153/153/153 152/152/152 151/151/151
f 151/151/151 154/154/154 153/153/153
f 156/156/156 155/155/155 152/152/152
f 159/159/159 158/158/158 157/157/157
f 159/159/159 160/160/160 158/158/158
f 163/163/163 162/162/162 161/161/161
f 163/163/163 164/164/164 162/162/162
f 167/167/167 166/166/166 165/165/165
f 167/167/167 168/168/168 166/166/166
f 171/171/171 170/170/170 169/169/169
f 171/171/171 172/172/172 170/170/170
