g SpecialForces_04_mesh
v 0.00555027 1.771251 0.2981058
v -0.3990825 1.864339 0.2981058
v 0.00555027 2.091772 0.2981058
v -0.3990825 2.091772 0.2981058
v 0.410183 1.864339 0.2981058
v 0.410183 2.091772 0.2981058
v -0.3990825 2.091772 0.2981058
v -0.3990825 2.091772 -0.3307687
v 0.00555027 2.091772 0.2981058
v 0.00555027 2.091772 -0.3307687
v 0.410183 2.091772 -0.3307687
v 0.410183 2.091772 0.2981058
v -0.3990825 2.091772 -0.3307687
v -0.3990825 1.864339 -0.3307687
v 0.00555027 2.091772 -0.3307687
v 0.00555027 1.771251 -0.3307687
v 0.410183 1.864339 -0.3307687
v 0.410183 2.091772 -0.3307687
v -0.3990825 1.864339 -0.3307687
v -0.3990825 1.864339 0.2981058
v 0.00555027 1.771251 -0.3307687
v 0.00555027 1.771251 0.2981058
v 0.410183 1.864339 0.2981058
v 0.410183 2.091772 0.2981058
v 0.410183 1.864339 -0.3307687
v 0.410183 2.091772 -0.3307687
v -0.3990825 1.864339 -0.3307687
v -0.3990825 2.091772 -0.3307687
v -0.3990825 1.864339 0.2981058
v -0.3990825 2.091772 0.2981058
v 0.00555027 1.771251 0.2981058
v 0.410183 1.864339 0.2981058
v 0.00555027 1.771251 -0.3307687
v 0.410183 1.864339 -0.3307687
v 0.09235552 2.624434 0.6886479
v 0.09235552 2.882049 0.6886479
v 0.2256935 2.624434 0.6886479
v 0.2256935 2.882049 0.6886479
v 0.09235552 2.882049 0.6886479
v 0.09235552 2.882049 0.5718758
v 0.2256935 2.882049 0.6886479
v 0.2256935 2.882049 0.5718758
v 0.09235552 2.624434 0.5718758
v 0.09235552 2.624434 0.6886479
v 0.2256935 2.624434 0.5718758
v 0.2256935 2.624434 0.6886479
v 0.2256935 2.624434 0.6886479
v 0.2256935 2.882049 0.6886479
v 0.2256935 2.624434 0.5718758
v 0.2256935 2.882049 0.5718758
v 0.09235552 2.624434 0.5718758
v 0.09235552 2.882049 0.5718758
v 0.09235552 2.624434 0.6886479
v 0.09235552 2.882049 0.6886479
v -0.2256935 2.624434 0.6886479
v -0.2256935 2.882049 0.6886479
v -0.09235552 2.624434 0.6886479
v -0.09235552 2.882049 0.6886479
v -0.2256935 2.882049 0.6886479
v -0.2256935 2.882049 0.5718758
v -0.09235552 2.882049 0.6886479
v -0.09235552 2.882049 0.5718758
v -0.2256935 2.624434 0.5718758
v -0.2256935 2.624434 0.6886479
v -0.09235552 2.624434 0.5718758
v -0.09235552 2.624434 0.6886479
v -0.09235552 2.624434 0.6886479
v -0.09235552 2.882049 0.6886479
v -0.09235552 2.624434 0.5718758
v -0.09235552 2.882049 0.5718758
v -0.2256935 2.624434 0.5718758
v -0.2256935 2.882049 0.5718758
v -0.2256935 2.624434 0.6886479
v -0.2256935 2.882049 0.6886479
v -0.1590245 2.653971 0.5718758
v -0.1590245 2.793344 0.5718758
v 0.1590245 2.653971 0.5718758
v 0.1590245 2.793344 0.5718758
v -0.1590245 2.793344 0.5718758
v -0.1590245 2.793344 0.4551038
v 0.1590245 2.793344 0.5718758
v 0.1590245 2.793344 0.4551038
v -0.1590245 2.653971 0.4551038
v -0.1590245 2.653971 0.5718758
v 0.1590245 2.653971 0.4551038
v 0.1590245 2.653971 0.5718758
v 0.1590245 2.653971 0.5718758
v 0.1590245 2.793344 0.5718758
v 0.1590245 2.653971 0.4551038
v 0.1590245 2.793344 0.4551038
v -0.1590245 2.653971 0.4551038
v -0.1590245 2.793344 0.4551038
v -0.1590245 2.653971 0.5718758
v -0.1590245 2.793344 0.5718758
v -0.09235552 2.624434 0.5718758
v -0.09235552 2.882049 0.5718758
v -0.2256935 2.624434 0.5718758
v -0.2256935 2.882049 0.5718758
v 0.2256935 2.882049 0.5718758
v 0.09235552 2.882049 0.5718758
v 0.2256935 2.624434 0.5718758
v 0.09235552 2.624434 0.5718758
v -0.4199644 2.937553 -0.4557808
v -0.4199644 2.404287 -0.4557808
v 0.4199645 2.937553 -0.4557808
v 0.4199645 2.404287 -0.4557808
v -0.4199644 2.649637 0.4551038
v -0.4199644 2.937553 0.4551038
v 0.4199645 2.649637 0.4551038
v 0.4199645 2.937553 0.4551038
v 0.4199645 2.937553 -0.4557808
v 0.4199645 2.404287 -0.4557808
v 0.4199645 2.404287 0.01856112
v 0.4199645 2.649637 0.01856112
v 0.4199645 2.937553 0.4551038
v 0.4199645 2.649637 0.4551038
v -0.4199644 2.937553 -0.4557808
v -0.4199644 2.404287 0.01856112
v -0.4199644 2.404287 -0.4557808
v -0.4199644 2.649637 0.01856112
v -0.4199644 2.937553 0.4551038
v -0.4199644 2.649637 0.4551038
v -0.4199644 2.937553 0.4551038
v -0.4199644 2.937553 -0.4557808
v 0.4199645 2.937553 0.4551038
v 0.4199645 2.937553 -0.4557808
v -0.4199644 2.324455 0.09839232
v -0.4199644 2.569806 0.09839232
v 0.4199645 2.324455 0.09839232
v 0.4199645 2.569806 0.09839232
v 0.4199645 2.324455 0.09839232
v 0.4199645 2.569806 0.09839232
v 0.4199645 2.404287 0.01856112
v 0.4199645 2.649637 0.01856112
v -0.4199644 2.649637 0.01856112
v -0.4199644 2.569806 0.09839232
v -0.4199644 2.404287 0.01856112
v -0.4199644 2.324455 0.09839232
v -0.4199644 2.404287 -0.4557808
v -0.4199644 2.324455 -0.4557808
v 0.4199645 2.404287 -0.4557808
v 0.4199645 2.324455 -0.4557808
v -0.4199644 2.324455 0.09839232
v 0.4199645 2.324455 0.09839232
v -0.4199644 2.324455 -0.4557808
v 0.4199645 2.324455 -0.4557808
v 0.4199645 2.404287 -0.4557808
v 0.4199645 2.324455 -0.4557808
v 0.4199645 2.404287 0.01856112
v 0.4199645 2.324455 0.09839232
v -0.4199644 2.404287 -0.4557808
v -0.4199644 2.404287 0.01856112
v -0.4199644 2.324455 -0.4557808
v -0.4199644 2.324455 0.09839232
v -0.4199644 2.569806 0.4551038
v -0.4199644 2.649637 0.4551038
v 0.4199645 2.569806 0.4551038
v 0.4199645 2.649637 0.4551038
v 0.4199645 2.649637 0.01856112
v 0.4199645 2.569806 0.09839232
v 0.4199645 2.649637 0.4551038
v 0.4199645 2.569806 0.4551038
v -0.4199644 2.649637 0.01856112
v -0.4199644 2.649637 0.4551038
v -0.4199644 2.569806 0.09839232
v -0.4199644 2.569806 0.4551038
v -0.4199644 2.569806 0.4551038
v 0.4199645 2.569806 0.4551038
v -0.4199644 2.569806 0.09839232
v 0.4199645 2.569806 0.09839232
vt 0.5108967 0.3265972
vt 0.4766393 0.3265966
vt 0.5108967 0.3848286
vt 0.4766393 0.384828
vt 0.5451542 0.3265978
vt 0.5451542 0.3848292
vt 0.5631123 0.3291118
vt 0.5732704 0.3291118
vt 0.5631123 0.3264925
vt 0.5732704 0.3264925
vt 0.5732704 0.3238732
vt 0.5631123 0.3238732
vt 0.6138837 0.3848289
vt 0.6138853 0.3265976
vt 0.5795189 0.3848291
vt 0.5795197 0.3265978
vt 0.5451542 0.3265979
vt 0.5451542 0.3848293
vt 0.5636549 0.3285819
vt 0.5725956 0.3285819
vt 0.5636549 0.3264003
vt 0.5725956 0.3264003
vt 0.4074487 0.3265978
vt 0.4074487 0.3848292
vt 0.4766393 0.3265979
vt 0.4766393 0.3848293
vt 0.4074487 0.3265964
vt 0.4074487 0.3848278
vt 0.4766393 0.3265966
vt 0.4766393 0.384828
vt 0.5725956 0.3264003
vt 0.5725956 0.3242186
vt 0.5636549 0.3264003
vt 0.5636549 0.3242186
vt 0.3531838 0.04181646
vt 0.3531838 0.1091843
vt 0.3245342 0.04181658
vt 0.3245343 0.1091843
vt 0.3525307 0.03775957
vt 0.3525307 0.01445343
vt 0.3259183 0.03775956
vt 0.3259183 0.01445341
vt 0.3525307 0.03775957
vt 0.3525307 0.01445343
vt 0.3259183 0.03775956
vt 0.3259183 0.01445341
vt 0.3831533 0.04181634
vt 0.3831533 0.109184
vt 0.3531838 0.04181634
vt 0.3531838 0.109184
vt 0.3831533 0.04181646
vt 0.3831533 0.1091841
vt 0.3531838 0.04181646
vt 0.3531838 0.1091843
vt 0.3531838 0.04181646
vt 0.3531838 0.1091842
vt 0.3245342 0.04181658
vt 0.3245343 0.1091842
vt 0.3525307 0.03775958
vt 0.3525307 0.01445344
vt 0.3259183 0.03775957
vt 0.3259183 0.01445344
vt 0.3525307 0.03775957
vt 0.3525307 0.01445344
vt 0.3259183 0.03775957
vt 0.3259183 0.01445344
vt 0.3831533 0.04181634
vt 0.3831533 0.109184
vt 0.3531838 0.04181634
vt 0.3531838 0.109184
vt 0.3831533 0.04181646
vt 0.3831533 0.1091841
vt 0.3531838 0.04181646
vt 0.3531838 0.1091842
vt 0.3946165 0.09992
vt 0.383038 0.09991999
vt 0.3946165 0.05268569
vt 0.383038 0.05268566
vt 0.383038 0.09991999
vt 0.3733364 0.09991997
vt 0.383038 0.05268566
vt 0.3733364 0.05268566
vt 0.4043181 0.09992
vt 0.3946165 0.09992
vt 0.4043181 0.05268569
vt 0.3946165 0.05268569
vt 0.3946165 0.05268569
vt 0.383038 0.05268566
vt 0.3946166 0.04884817
vt 0.3830381 0.04884814
vt 0.3946165 0.1041887
vt 0.383038 0.1041887
vt 0.3946165 0.09992
vt 0.383038 0.09991999
vt 0.4097118 0.04181634
vt 0.409712 0.109184
vt 0.3831533 0.04181646
vt 0.3831533 0.1091841
vt 0.409712 0.109184
vt 0.3831533 0.1091841
vt 0.4097118 0.04181634
vt 0.3831533 0.04181646
vt 0.4195327 0.1263859
vt 0.4195327 0.05227764
vt 0.5042607 0.1263859
vt 0.5042607 0.05227778
vt 0.4195327 0.2566806
vt 0.4195327 0.2191743
vt 0.5042607 0.2566806
vt 0.5042607 0.2191743
vt 0.5051988 0.1289357
vt 0.5643917 0.1289357
vt 0.5643917 0.1761136
vt 0.5371577 0.1761136
vt 0.5051988 0.2167271
vt 0.5371577 0.2167271
vt 0.4174432 0.1279568
vt 0.3596882 0.1761866
vt 0.3596883 0.1279568
vt 0.3866218 0.1761867
vt 0.4174432 0.217706
vt 0.3866217 0.217706
vt 0.4195327 0.2191743
vt 0.4195327 0.1264885
vt 0.5042607 0.2191743
vt 0.5042607 0.1264885
vt 0.5776764 0.004426394
vt 0.5776764 0.003002997
vt 0.5486435 0.004426394
vt 0.5486434 0.003002997
vt 0.5948301 0.01882388
vt 0.5999617 0.01882388
vt 0.59483 0.01248246
vt 0.5999617 0.01248246
vt 0.546034 0.01248246
vt 0.546034 0.01882388
vt 0.5531904 0.01248246
vt 0.5531904 0.01882388
vt 0.5655406 0.01248246
vt 0.5655406 0.01882388
vt 0.584259 0.01248246
vt 0.584259 0.01882388
vt 0.5776764 0.004426394
vt 0.5486435 0.004426394
vt 0.5776764 0.006863941
vt 0.5486434 0.006863855
vt 0.584259 0.01248246
vt 0.584259 0.01882388
vt 0.59483 0.01248246
vt 0.5948301 0.01882388
vt 0.5655406 0.01248246
vt 0.5531904 0.01248246
vt 0.5655406 0.01882388
vt 0.5531904 0.01882388
vt 0.5380844 0.01882388
vt 0.5380847 0.01248246
vt 0.519366 0.01882388
vt 0.519366 0.01248226
vt 0.5999617 0.01248246
vt 0.5999617 0.01882388
vt 0.6096904 0.01248246
vt 0.6096904 0.01882388
vt 0.546034 0.01248246
vt 0.5380847 0.01248246
vt 0.546034 0.01882388
vt 0.5380844 0.01882388
vt 0.5776764 0.001798425
vt 0.5486434 0.001798425
vt 0.5776764 0.003002997
vt 0.5486434 0.003002997
vn 0 0 1
vn 0 0 1
vn 0 0 1
vn 0 0 1
vn 0 0 1
vn 0 0 1
vn 0 1 0
vn 0 1 0
vn 0 1 0
vn 0 1 0
vn 0 1 0
vn 0 1 0
vn 0 0 -1
vn 0 0 -1
vn 0 0 -1
vn 0 0 -1
vn 0 0 -1
vn 0 0 -1
vn -0.2241993 -0.9745433 0
vn -0.2241993 -0.9745433 0
vn -0.2241993 -0.9745433 0
vn -0.2241993 -0.9745433 0
vn 1 0 0
vn 1 0 0
vn 1 0 0
vn 1 0 0
vn -1 0 0
vn -1 0 0
vn -1 0 0
vn -1 0 0
vn 0.2241993 -0.9745433 0
vn 0.2241993 -0.9745433 0
vn 0.2241993 -0.9745433 0
vn 0.2241993 -0.9745433 0
vn 0 0 1
vn 0 0 1
vn 0 0 1
vn 0 0 1
vn 0 1 0
vn 0 1 0
vn 0 1 0
vn 0 1 0
vn 0 -1 0
vn 0 -1 0
vn 0 -1 0
vn 0 -1 0
vn 1 0 0
vn 1 0 0
vn 1 0 0
vn 1 0 0
vn -1 0 0
vn -1 0 0
vn -1 0 0
vn -1 0 0
vn 0 0 1
vn 0 0 1
vn 0 0 1
vn 0 0 1
vn 0 1 0
vn 0 1 0
vn 0 1 0
vn 0 1 0
vn 0 -1 0
vn 0 -1 0
vn 0 -1 0
vn 0 -1 0
vn 1 0 0
vn 1 0 0
vn 1 0 0
vn 1 0 0
vn -1 0 0
vn -1 0 0
vn -1 0 0
vn -1 0 0
vn 0 0 1
vn 0 0 1
vn 0 0 1
vn 0 0 1
vn 0 1 0
vn 0 1 0
vn 0 1 0
vn 0 1 0
vn 0 -1 0
vn 0 -1 0
vn 0 -1 0
vn 0 -1 0
vn 1 0 0
vn 1 0 0
vn 1 0 0
vn 1 0 0
vn -1 0 0
vn -1 0 0
vn -1 0 0
vn -1 0 0
vn 0 0 -1
vn 0 0 -1
vn 0 0 -1
vn 0 0 -1
vn 0 0 -1
vn 0 0 -1
vn 0 0 -1
vn 0 0 -1
vn 0 0 -1
vn 0 0 -1
vn 0 0 -1
vn 0 0 -1
vn 0 0 1
vn 0 0 1
vn 0 0 1
vn 0 0 1
vn 1 0 0
vn 1 0 0
vn 1 2.327087E-07 0
vn 1 0 0
vn 1 1.027558E-07 0
vn 1 0 0
vn -1 0 0
vn -1 1.311552E-07 0
vn -1 -1.678992E-07 0
vn -1 0 0
vn -1 1.027558E-07 0
vn -1 0 0
vn 0 1 0
vn 0 1 0
vn 0 1 0
vn 0 1 0
vn 0 0 1
vn 0 0 1
vn 0 0 1
vn 0 0 1
vn 1 7.650082E-07 0
vn 1 -4.110783E-07 0
vn 1 2.327087E-07 0
vn 1 0 0
vn -1 0 0
vn -1 -4.110783E-07 0
vn -1 1.311552E-07 0
vn -1 4.781302E-07 0
vn 0 0 -1
vn 0 -4.778466E-07 -1
vn 0 0 -1
vn 0 -4.77844E-07 -1
vn 0 -1 0
vn 0 -1 0
vn 0 -1 0
vn 0 -1 0
vn 1 0 0
vn 1 -2.548387E-07 0
vn 1 2.327087E-07 0
vn 1 7.650082E-07 0
vn -1 -1.678992E-07 0
vn -1 1.311552E-07 0
vn -1 -1.048308E-06 0
vn -1 4.781302E-07 0
vn 0 0 1
vn 0 0 1
vn 0 0 1
vn 0 0 1
vn 1 0 0
vn 1 -4.110783E-07 0
vn 1 0 0
vn 1 0 0
vn -1 0 0
vn -1 0 0
vn -1 -4.110783E-07 0
vn -1 0 0
vn 0 -1 0
vn 0 -1 0
vn 0 -1 0
vn 0 -1 0
f 3/3/3 2/2/2 1/1/1
f 3/3/3 4/4/4 2/2/2
f 5/5/5 3/3/3 1/1/1
f 5/5/5 6/6/6 3/3/3
f 9/9/9 8/8/8 7/7/7
f 9/9/9 10/10/10 8/8/8
f 9/9/9 11/11/11 10/10/10
f 9/9/9 12/12/12 11/11/11
f 15/15/15 14/14/14 13/13/13
f 15/15/15 16/16/16 14/14/14
f 15/15/15 17/17/17 16/16/16
f 15/15/15 18/18/18 17/17/17
f 21/21/21 20/20/20 19/19/19
f 21/21/21 22/22/22 20/20/20
f 25/25/25 24/24/24 23/23/23
f 25/25/25 26/26/26 24/24/24
f 29/29/29 28/28/28 27/27/27
f 29/29/29 30/30/30 28/28/28
f 33/33/33 32/32/32 31/31/31
f 33/33/33 34/34/34 32/32/32
f 37/37/37 36/36/36 35/35/35
f 37/37/37 38/38/38 36/36/36
f 41/41/41 40/40/40 39/39/39
f 41/41/41 42/42/42 40/40/40
f 45/45/45 44/44/44 43/43/43
f 45/45/45 46/46/46 44/44/44
f 49/49/49 48/48/48 47/47/47
f 49/49/49 50/50/50 48/48/48
f 53/53/53 52/52/52 51/51/51
f 53/53/53 54/54/54 52/52/52
f 57/57/57 56/56/56 55/55/55
f 57/57/57 58/58/58 56/56/56
f 61/61/61 60/60/60 59/59/59
f 61/61/61 62/62/62 60/60/60
f 65/65/65 64/64/64 63/63/63
f 65/65/65 66/66/66 64/64/64
f 69/69/69 68/68/68 67/67/67
f 69/69/69 70/70/70 68/68/68
f 73/73/73 72/72/72 71/71/71
f 73/73/73 74/74/74 72/72/72
f 77/77/77 76/76/76 75/75/75
f 77/77/77 78/78/78 76/76/76
f 81/81/81 80/80/80 79/79/79
f 81/81/81 82/82/82 80/80/80
f 85/85/85 84/84/84 83/83/83
f 85/85/85 86/86/86 84/84/84
f 89/89/89 88/88/88 87/87/87
f 89/89/89 90/90/90 88/88/88
f 93/93/93 92/92/92 91/91/91
f 93/93/93 94/94/94 92/92/92
f 97/97/97 96/96/96 95/95/95
f 97/97/97 98/98/98 96/96/96
f 101/101/101 100/100/100 99/99/99
f 101/101/101 102/102/102 100/100/100
f 105/105/105 104/104/104 103/103/103
f 105/105/105 106/106/106 104/104/104
f 109/109/109 108/108/108 107/107/107
f 109/109/109 110/110/110 108/108/108
f 113/113/113 112/112/112 111/111/111
f 111/111/111 114/114/114 113/113/113
f 115/115/115 114/114/114 111/111/111
f 115/115/115 116/116/116 114/114/114
f 119/119/119 118/118/118 117/117/117
f 118/118/118 120/120/120 117/117/117
f 120/120/120 121/121/121 117/117/117
f 120/120/120 122/122/122 121/121/121
f 125/125/125 124/124/124 123/123/123
f 125/125/125 126/126/126 124/124/124
f 129/129/129 128/128/128 127/127/127
f 129/129/129 130/130/130 128/128/128
f 133/133/133 132/132/132 131/131/131
f 133/133/133 134/134/134 132/132/132
f 137/137/137 136/136/136 135/135/135
f 137/137/137 138/138/138 136/136/136
f 141/141/141 140/140/140 139/139/139
f 141/141/141 142/142/142 140/140/140
f 145/145/145 144/144/144 143/143/143
f 145/145/145 146/146/146 144/144/144
f 149/149/149 148/148/148 147/147/147
f 149/149/149 150/150/150 148/148/148
f 153/153/153 152/152/152 151/151/151
f 153/153/153 154/154/154 152/152/152
f 157/157/157 156/156/156 155/155/155
f 157/157/157 158/158/158 156/156/156
f 161/161/161 160/160/160 159/159/159
f 161/161/161 162/162/162 160/160/160
f 165/165/165 164/164/164 163/163/163
f 165/165/165 166/166/166 164/164/164
f 169/169/169 168/168/168 167/167/167
f 169/169/169 170/170/170 168/168/168
