g SpecialForces_02_mesh
v -0.101879 2.959221 0.3227906
v 0.101879 2.959221 0.3227906
v -0.101879 2.752325 0.3227906
v 0.101879 2.752325 0.3227906
v -0.101879 2.959221 -0.310831
v -0.101879 2.752325 -0.310831
v 0.101879 2.959221 -0.310831
v 0.101879 2.752325 -0.310831
v -0.101879 2.752325 0.3227906
v -0.101879 2.752325 -0.310831
v -0.101879 2.959221 0.3227906
v -0.101879 2.959221 -0.310831
v 0.101879 2.752325 0.3227906
v 0.101879 2.752325 -0.310831
v -0.101879 2.752325 0.3227906
v -0.101879 2.752325 -0.310831
v 0.101879 2.959221 0.3227906
v 0.101879 2.959221 -0.310831
v 0.101879 2.752325 0.3227906
v 0.101879 2.752325 -0.310831
v -0.101879 2.959221 -0.310831
v 0.101879 2.959221 -0.310831
v -0.101879 2.959221 0.3227906
v 0.101879 2.959221 0.3227906
vt 0.6192297 0.5882511
vt 0.6293619 0.5882511
vt 0.6192297 0.5687731
vt 0.6293619 0.5687731
vt 0.6293619 0.5882511
vt 0.6293619 0.5687731
vt 0.6192297 0.5882511
vt 0.6192297 0.5687731
vt 0.6605246 0.5549256
vt 0.6345135 0.5549256
vt 0.6605246 0.5651813
vt 0.6345136 0.5651814
vt 0.6247048 -0.4266934
vt 0.6247048 -0.4126099
vt 0.6589156 -0.4266934
vt 0.6589156 -0.4126099
vt 0.6605246 0.5549256
vt 0.6345136 0.5549256
vt 0.6605246 0.5651813
vt 0.6345136 0.5651814
vt 0.6345136 0.5687731
vt 0.6605246 0.5687731
vt 0.6345136 0.5882511
vt 0.6605246 0.5882511
vn 0 -1.843769E-07 1
vn 0 -1.843771E-07 1
vn 0 -1.843772E-07 1
vn 0 -1.843774E-07 1
vn 0 0 -1
vn 0 0 -1
vn 0 0 -1
vn 0 0 -1
vn -1 0 0
vn -1 0 0
vn -1 0 0
vn -1 0 0
vn 0 -1 0
vn 0 -1 0
vn 0 -1 0
vn 0 -1 0
vn 1 0 0
vn 1 0 0
vn 1 0 0
vn 1 0 0
vn 0 1 0
vn 0 1 0
vn 0 1 0
vn 0 1 0
f 3/3/3 2/2/2 1/1/1
f 3/3/3 4/4/4 2/2/2
f 7/7/7 6/6/6 5/5/5
f 7/7/7 8/8/8 6/6/6
f 11/11/11 10/10/10 9/9/9
f 11/11/11 12/12/12 10/10/10
f 15/15/15 14/14/14 13/13/13
f 15/15/15 16/16/16 14/14/14
f 19/19/19 18/18/18 17/17/17
f 19/19/19 20/20/20 18/18/18
f 23/23/23 22/22/22 21/21/21
f 23/23/23 24/24/24 22/22/22
