g station_wagon_fl_wheel
v 0.157525 0.4511639 -0.2605025
v -0.157525 0.4511639 -0.2605025
v -0.157525 0.2605026 -0.4511639
v 0.157525 0.2605026 -0.4511639
v -0.157525 0.0005097985 -0.5215149
v 0.157525 0.0005097985 -0.5215149
v -0.157525 -0.2605025 -0.4511639
v 0.157525 -0.2605025 -0.4511639
v -0.157525 -0.4511639 -0.2605025
v 0.157525 -0.4511639 -0.2605025
v 0.157525 -0.4511639 -0.2605025
v -0.157525 -0.4511639 -0.2605025
v -0.157525 -0.5215149 0.0005097985
v 0.157525 -0.5215149 0.0005097985
v -0.157525 -0.4511639 0.2605026
v 0.157525 -0.4511639 0.2605026
v -0.157525 -0.2605025 0.4511639
v 0.157525 -0.2605025 0.4511639
v 0.157525 -0.2605025 0.4511639
v -0.157525 -0.2605025 0.4511639
v -0.157525 0.0005097985 0.5215149
v 0.157525 0.0005097985 0.5215149
v -0.157525 0.2605026 0.4511639
v 0.157525 0.2605026 0.4511639
v -0.157525 0.4511639 0.2605026
v 0.157525 0.4511639 0.2605026
v 0.157525 0.4511639 0.2605026
v -0.157525 0.4511639 0.2605026
v -0.157525 0.5215149 0.0005097985
v 0.157525 0.5215149 0.0005097985
v -0.157525 0.4511639 -0.2605025
v 0.157525 0.4511639 -0.2605025
v -0.157525 0.4511639 -0.2605025
v -0.157525 0.0005097985 0.0005097985
v -0.157525 0.2605026 -0.4511639
v -0.157525 0.0005097985 -0.5215149
v -0.157525 -0.2605025 -0.4511639
v -0.157525 -0.4511639 -0.2605025
v -0.157525 -0.5215149 0.0005097985
v -0.157525 -0.4511639 0.2605026
v -0.157525 -0.2605025 0.4511639
v -0.157525 0.0005097985 0.5215149
v -0.157525 0.2605026 0.4511639
v -0.157525 0.4511639 0.2605026
v -0.157525 0.5215149 0.0005097985
v 0.157525 0.2605026 -0.4511639
v 0.157525 0.0005097985 -0.5215149
v 0.157525 0.4511639 -0.2605025
v 0.157525 -0.2605025 -0.4511639
v 0.157525 -0.4511639 -0.2605025
v 0.157525 -0.5215149 0.0005097985
v 0.157525 -0.4511639 0.2605026
v 0.157525 -0.2605025 0.4511639
v 0.157525 0.0005097985 0.5215149
v 0.157525 0.2605026 0.4511639
v 0.157525 0.4511639 0.2605026
v 0.157525 0.5215149 0.0005097985
vt 0.6335031 0.966578
vt 0.6335031 0.9710488
vt 0.6647987 0.9710488
vt 0.6647987 0.966578
vt 0.6960943 0.9710488
vt 0.6960943 0.966578
vt 0.7273899 0.9710488
vt 0.7273899 0.966578
vt 0.7586856 0.9710488
vt 0.7586856 0.966578
vt 0.7475086 0.9688134
vt 0.7475086 0.9643427
vt 0.716213 0.9643427
vt 0.716213 0.9688134
vt 0.6849173 0.9643427
vt 0.6849173 0.9688134
vt 0.6536217 0.9643427
vt 0.6536217 0.9688134
vt 0.7408024 0.9710488
vt 0.7408024 0.966578
vt 0.7095068 0.966578
vt 0.7095068 0.9710488
vt 0.6782111 0.966578
vt 0.6782111 0.9710488
vt 0.6469154 0.966578
vt 0.6469154 0.9710488
vt 0.6737403 0.966578
vt 0.6737403 0.9710488
vt 0.7050359 0.9710488
vt 0.7050359 0.966578
vt 0.7363316 0.9710488
vt 0.7363316 0.966578
vt 0.4949081 0.783275
vt 0.4949081 0.8771619
vt 0.5418515 0.7966875
vt 0.5753826 0.8302185
vt 0.588795 0.8771619
vt 0.5753826 0.9241054
vt 0.5418515 0.9576364
vt 0.4949081 0.9710488
vt 0.4479646 0.9576364
vt 0.4144336 0.9241054
vt 0.4010212 0.8771619
vt 0.4144336 0.8302185
vt 0.4479646 0.7966875
vt 0.4144336 0.9241054
vt 0.4010212 0.8771619
vt 0.4479646 0.9576364
vt 0.4144336 0.8302185
vt 0.4479646 0.7966875
vt 0.4949081 0.783275
vt 0.5418515 0.7966875
vt 0.5753826 0.8302185
vt 0.588795 0.8771619
vt 0.5753826 0.9241054
vt 0.5418515 0.9576364
vt 0.4949081 0.9710488
vn -0.01587105 0.8729059 -0.4876305
vn -0.01587105 0.8729059 -0.4876305
vn -0.01587105 0.4920015 -0.8704497
vn -0.01587105 0.4920015 -0.8704497
vn -0.01587105 0.01587105 -0.9997481
vn -0.01587105 0.01587105 -0.9997481
vn -0.01587105 -0.4920015 -0.8704497
vn -0.01587105 -0.4920015 -0.8704497
vn -0.01587105 -0.8729059 -0.4876305
vn -0.01587105 -0.8729059 -0.4876305
vn -0.01587105 -0.8729059 -0.4876305
vn -0.01587105 -0.8729059 -0.4876305
vn -0.01587105 -0.999874 -0.000345267
vn -0.01587105 -0.999874 -0.000345267
vn -0.01587105 -0.8729059 0.4876305
vn -0.01587105 -0.8729059 0.4876305
vn -0.01587105 -0.4920015 0.8704497
vn -0.01587105 -0.4920015 0.8704497
vn -0.01587105 -0.4920015 0.8704497
vn -0.01587105 -0.4920015 0.8704497
vn -0.01587105 0.01587105 0.9997481
vn -0.01587105 0.01587105 0.9997481
vn -0.01587105 0.4920015 0.8704497
vn -0.01587105 0.4920015 0.8704497
vn -0.01587105 0.8729059 0.4876305
vn -0.01587105 0.8729059 0.4876305
vn -0.01587105 0.8729059 0.4876305
vn -0.01587105 0.8729059 0.4876305
vn -0.01587105 0.999874 -0.000345267
vn -0.01587105 0.999874 -0.000345267
vn -0.01587105 0.8729059 -0.4876305
vn -0.01587105 0.8729059 -0.4876305
vn -0.999874 0.01587105 -0.0003439156
vn -0.999874 0.01587105 -0.0003439156
vn -0.999874 0.01587105 -0.0003439156
vn -0.999874 0.01587105 -0.0003439156
vn -0.999874 0.01587105 -0.0003439156
vn -0.999874 0.01587105 -0.0003439156
vn -0.999874 0.01587105 -0.0003439156
vn -0.999874 0.01587105 -0.0003439156
vn -0.999874 0.01587105 -0.0003439156
vn -0.999874 0.01587105 -0.0003439156
vn -0.999874 0.01587105 -0.0003439156
vn -0.999874 0.01587105 -0.0003439156
vn -0.999874 0.01587105 -0.0003439156
vn 0.999874 0.01587105 -0.0003439156
vn 0.999874 0.01587105 -0.0003439156
vn 0.999874 0.01587105 -0.0003439156
vn 0.999874 0.01587105 -0.0003439156
vn 0.999874 0.01587105 -0.0003439156
vn 0.999874 0.01587105 -0.0003439156
vn 0.999874 0.01587105 -0.0003439156
vn 0.999874 0.01587105 -0.0003439156
vn 0.999874 0.01587105 -0.0003439156
vn 0.999874 0.01587105 -0.0003439156
vn 0.999874 0.01587105 -0.0003439156
vn 0.999874 0.01587105 -0.0003439156
f 3/3/3 2/2/2 1/1/1
f 4/4/4 3/3/3 1/1/1
f 5/5/5 3/3/3 4/4/4
f 6/6/6 5/5/5 4/4/4
f 7/7/7 5/5/5 6/6/6
f 8/8/8 7/7/7 6/6/6
f 9/9/9 7/7/7 8/8/8
f 10/10/10 9/9/9 8/8/8
f 13/13/13 12/12/12 11/11/11
f 14/14/14 13/13/13 11/11/11
f 15/15/15 13/13/13 14/14/14
f 16/16/16 15/15/15 14/14/14
f 17/17/17 15/15/15 16/16/16
f 18/18/18 17/17/17 16/16/16
f 21/21/21 20/20/20 19/19/19
f 22/22/22 21/21/21 19/19/19
f 23/23/23 21/21/21 22/22/22
f 24/24/24 23/23/23 22/22/22
f 25/25/25 23/23/23 24/24/24
f 26/26/26 25/25/25 24/24/24
f 29/29/29 28/28/28 27/27/27
f 30/30/30 29/29/29 27/27/27
f 31/31/31 29/29/29 30/30/30
f 32/32/32 31/31/31 30/30/30
f 35/35/35 34/34/34 33/33/33
f 36/36/36 34/34/34 35/35/35
f 37/37/37 34/34/34 36/36/36
f 38/38/38 34/34/34 37/37/37
f 39/39/39 34/34/34 38/38/38
f 40/40/40 34/34/34 39/39/39
f 41/41/41 34/34/34 40/40/40
f 42/42/42 34/34/34 41/41/41
f 43/43/43 34/34/34 42/42/42
f 44/44/44 34/34/34 43/43/43
f 45/45/45 34/34/34 44/44/44
f 33/33/33 34/34/34 45/45/45
f 48/48/48 47/47/47 46/46/46
f 48/48/48 49/49/49 47/47/47
f 48/48/48 50/50/50 49/49/49
f 48/48/48 51/51/51 50/50/50
f 48/48/48 52/52/52 51/51/51
f 48/48/48 53/53/53 52/52/52
f 48/48/48 54/54/54 53/53/53
f 48/48/48 55/55/55 54/54/54
f 48/48/48 56/56/56 55/55/55
f 48/48/48 57/57/57 56/56/56
