g sun_umbrella_red_02
v -7.075239 -1.505558 5.856239
v -0.4723682 2.460571 0.3909874
v 1.907349E-06 2.460571 0.3909874
v 1.907349E-06 -1.505558 5.856239
v 7.075239 -1.505558 5.856239
v 0.4723721 2.460571 0.3909874
v -7.075239 -2.460571 5.856239
v 1.907349E-06 -2.460571 5.856239
v 7.075239 -2.460571 5.856239
v -0.4723682 2.460571 0.3909874
v -0.4723682 2.460571 0
v 1.907349E-06 2.460571 0
v 1.907349E-06 2.460571 0.3909874
v 0.4723721 2.460571 0.3909874
v 0.4723721 2.460571 0
v 1.907349E-06 2.460571 -0.3909874
v 0.4723721 2.460571 -0.3909874
v -0.4723682 2.460571 -0.3909874
v -0.4723682 2.460571 -0.3909874
v -7.075239 -1.505559 -5.856239
v 1.907349E-06 -1.505559 -5.856239
v 1.907349E-06 2.460571 -0.3909874
v 7.075239 -1.505559 -5.856239
v 0.4723721 2.460571 -0.3909874
v 1.907349E-06 -2.460571 -5.856239
v -7.075239 -2.460571 -5.856239
v 7.075239 -2.460571 -5.856239
v -7.075239 -2.460571 0
v -7.075239 -2.460571 5.856239
v 1.907349E-06 -2.460571 5.856239
v 1.907349E-06 -2.460571 0
v 7.075239 -2.460571 0
v 7.075239 -2.460571 5.856239
v -7.075239 -2.460571 -5.856239
v 1.907349E-06 -2.460571 -5.856239
v 7.075239 -2.460571 -5.856239
v 7.075239 -1.505558 5.856239
v 0.4723721 2.460571 0.3909874
v 0.4723721 2.460571 0
v 7.075239 -1.505558 0
v 7.075239 -1.505559 -5.856239
v 0.4723721 2.460571 -0.3909874
v 7.075239 -2.460571 5.856239
v 7.075239 -2.460571 0
v 7.075239 -2.460571 -5.856239
v -7.075239 -1.505559 0
v -0.4723682 2.460571 0
v -0.4723682 2.460571 0.3909874
v -7.075239 -1.505558 5.856239
v -7.075239 -1.505559 -5.856239
v -0.4723682 2.460571 -0.3909874
v -7.075239 -2.460571 -5.856239
v -7.075239 -2.460571 0
v -7.075239 -2.460571 5.856239
vt 0.4148239 0.3067925
vt 0.4148239 0.3075553
vt 0.4159147 0.3075553
vt 0.4159147 0.3067925
vt 0.4170054 0.3067925
vt 0.4170054 0.3075553
vt 0.4148239 0.3053739
vt 0.4159147 0.3053739
vt 0.4170054 0.3053739
vt 0.4148239 0.3075553
vt 0.4148239 0.3086461
vt 0.4159147 0.3086461
vt 0.4159147 0.3075553
vt 0.4170054 0.3075553
vt 0.4170054 0.3086461
vt 0.4159147 0.3097368
vt 0.4170054 0.3097368
vt 0.4148239 0.3097368
vt 0.4148239 0.3097368
vt 0.4148239 0.3104998
vt 0.4159147 0.3104998
vt 0.4159147 0.3097368
vt 0.4170054 0.3104998
vt 0.4170054 0.3097368
vt 0.4159147 0.3119184
vt 0.4148239 0.3119184
vt 0.4170054 0.3119184
vt 0.4148239 0.3130091
vt 0.4148239 0.3140999
vt 0.4159147 0.3140999
vt 0.4159147 0.3130091
vt 0.4170054 0.3130091
vt 0.4170054 0.3140999
vt 0.4148239 0.3119184
vt 0.4159147 0.3119184
vt 0.4170054 0.3119184
vt 0.4170054 0.3067925
vt 0.4170054 0.3075553
vt 0.4180962 0.3075553
vt 0.4180962 0.3067925
vt 0.4191869 0.3067925
vt 0.4191869 0.3075553
vt 0.4170054 0.3053739
vt 0.4180962 0.3053739
vt 0.4191869 0.3053739
vt 0.4137332 0.3067925
vt 0.4137332 0.3075553
vt 0.4148239 0.3075553
vt 0.4148239 0.3067925
vt 0.4126424 0.3067925
vt 0.4126424 0.3075553
vt 0.4126424 0.3053739
vt 0.4137332 0.3053739
vt 0.4148239 0.3053739
vn 0 0.5890968 0.8080624
vn 0 0.8093412 0.5873387
vn 0 0.8093413 0.5873386
vn 0 0.6885154 0.7252217
vn 0 0.589097 0.8080623
vn 0 0.8093413 0.5873385
vn 0 0 1
vn 0 0 1
vn 0 0 1
vn 0 1 0
vn 0 1 0
vn 0 1 0
vn 0 1 0
vn 0 1 0
vn 0 1 0
vn 0 1 0
vn 0 1 0
vn 0 1 0
vn 0 0.8093412 -0.5873387
vn 0 0.5890968 -0.8080624
vn 0 0.6885155 -0.7252216
vn 0 0.8093412 -0.5873387
vn 0 0.5890971 -0.8080622
vn 0 0.8093413 -0.5873386
vn 0 0 -1
vn 0 0 -1
vn 0 0 -1
vn 0 -1 0
vn 0 -1 0
vn 0 -1 0
vn 0 -1 0
vn 0 -1 0
vn 0 -1 0
vn 0 -1 0
vn 0 -1 0
vn 0 -1 0
vn 0.7232502 0.6905862 0
vn 0.5149164 0.8572404 0
vn 0.5149167 0.8572403 0
vn 0.6571525 0.7537577 0
vn 0.7232502 0.6905861 0
vn 0.5149171 0.85724 0
vn 1 0 0
vn 1 0 0
vn 1 0 0
vn -0.6571523 0.7537578 0
vn -0.5149166 0.8572403 0
vn -0.5149162 0.8572405 0
vn -0.7232497 0.6905867 0
vn -0.72325 0.6905863 0
vn -0.5149169 0.8572401 0
vn -1 0 0
vn -1 0 0
vn -1 0 0
f 3/3/3 2/2/2 1/1/1
f 4/4/4 3/3/3 1/1/1
f 4/4/4 5/5/5 3/3/3
f 5/5/5 6/6/6 3/3/3
f 4/4/4 1/1/1 7/7/7
f 8/8/8 4/4/4 7/7/7
f 4/4/4 8/8/8 5/5/5
f 8/8/8 9/9/9 5/5/5
f 12/12/12 11/11/11 10/10/10
f 13/13/13 12/12/12 10/10/10
f 13/13/13 14/14/14 12/12/12
f 14/14/14 15/15/15 12/12/12
f 12/12/12 15/15/15 16/16/16
f 12/12/12 16/16/16 11/11/11
f 15/15/15 17/17/17 16/16/16
f 16/16/16 18/18/18 11/11/11
f 21/21/21 20/20/20 19/19/19
f 22/22/22 21/21/21 19/19/19
f 23/23/23 21/21/21 22/22/22
f 24/24/24 23/23/23 22/22/22
f 21/21/21 25/25/25 20/20/20
f 25/25/25 26/26/26 20/20/20
f 27/27/27 25/25/25 21/21/21
f 23/23/23 27/27/27 21/21/21
f 30/30/30 29/29/29 28/28/28
f 31/31/31 30/30/30 28/28/28
f 31/31/31 32/32/32 30/30/30
f 32/32/32 33/33/33 30/30/30
f 31/31/31 28/28/28 34/34/34
f 35/35/35 31/31/31 34/34/34
f 31/31/31 35/35/35 32/32/32
f 35/35/35 36/36/36 32/32/32
f 39/39/39 38/38/38 37/37/37
f 40/40/40 39/39/39 37/37/37
f 40/40/40 41/41/41 39/39/39
f 41/41/41 42/42/42 39/39/39
f 40/40/40 37/37/37 43/43/43
f 44/44/44 40/40/40 43/43/43
f 40/40/40 44/44/44 41/41/41
f 44/44/44 45/45/45 41/41/41
f 48/48/48 47/47/47 46/46/46
f 49/49/49 48/48/48 46/46/46
f 46/46/46 47/47/47 50/50/50
f 47/47/47 51/51/51 50/50/50
f 46/46/46 50/50/50 52/52/52
f 53/53/53 46/46/46 52/52/52
f 49/49/49 46/46/46 53/53/53
f 54/54/54 49/49/49 53/53/53
