g swat_fl_wheel
v -0.08704978 0.3721693 -0.214891
v -0.08704978 0.214891 -0.3721693
v 0.08704975 0.214891 -0.3721693
v 0.08704975 0.3721693 -0.214891
v 0.08704975 -0.0004205406 -0.4302025
v -0.08704978 -0.0004205406 -0.4302025
v 0.08704975 -0.214891 -0.3721693
v -0.08704978 -0.214891 -0.3721693
v 0.08704975 -0.3721693 -0.214891
v -0.08704978 -0.3721693 -0.214891
v 0.08704975 -0.4302025 -0.0004205406
v -0.08704978 -0.4302025 -0.0004205406
v 0.08704975 -0.3721693 0.214891
v -0.08704978 -0.3721693 0.214891
v -0.08704978 -0.3721693 0.214891
v -0.08704978 -0.214891 0.3721693
v 0.08704975 -0.214891 0.3721693
v 0.08704975 -0.3721693 0.214891
v 0.08704975 -0.0004205406 0.4302025
v -0.08704978 -0.0004205406 0.4302025
v 0.08704975 0.214891 0.3721693
v -0.08704978 0.214891 0.3721693
v 0.08704975 0.3721693 0.214891
v -0.08704978 0.3721693 0.214891
v 0.08704975 0.4302025 -0.0004205406
v -0.08704978 0.4302025 -0.0004205406
v 0.08704975 0.3721693 -0.214891
v -0.08704978 0.3721693 -0.214891
v -0.08704978 0.214891 -0.3721693
v -0.08704978 0.3721693 -0.214891
v -0.08704978 -0.0004205406 -0.0004205406
v -0.08704978 -0.0004205406 -0.4302025
v -0.08704978 -0.214891 -0.3721693
v -0.08704978 -0.3721693 -0.214891
v -0.08704978 -0.4302025 -0.0004205406
v -0.08704978 -0.3721693 0.214891
v -0.08704978 -0.214891 0.3721693
v -0.08704978 -0.0004205406 0.4302025
v -0.08704978 0.214891 0.3721693
v -0.08704978 0.3721693 0.214891
v -0.08704978 0.4302025 -0.0004205406
v 0.08704975 0.214891 -0.3721693
v 0.08704975 -0.0004205406 -0.4302025
v 0.08704975 0.3721693 -0.214891
v 0.08704975 -0.214891 -0.3721693
v 0.08704975 -0.3721693 -0.214891
v 0.08704975 -0.4302025 -0.0004205406
v 0.08704975 -0.3721693 0.214891
v 0.08704975 -0.214891 0.3721693
v 0.08704975 -0.0004205406 0.4302025
v 0.08704975 0.214891 0.3721693
v 0.08704975 0.3721693 0.214891
v 0.08704975 0.4302025 -0.0004205406
vt 0.6498381 0.9683163
vt 0.6518797 0.9683163
vt 0.6518797 0.9744409
vt 0.6498381 0.9744409
vt 0.6518797 0.9744409
vt 0.6518797 0.9683163
vt 0.6539211 0.9744409
vt 0.6539211 0.9683163
vt 0.6559627 0.9744409
vt 0.6559627 0.9683163
vt 0.6559627 0.9744409
vt 0.6559627 0.9683163
vt 0.6580042 0.9744409
vt 0.6580042 0.9683163
vt 0.6498381 0.9683163
vt 0.6518797 0.9683163
vt 0.6518797 0.9744409
vt 0.6498381 0.9744409
vt 0.6518797 0.9744409
vt 0.6518797 0.9683163
vt 0.6539211 0.9744409
vt 0.6539211 0.9683163
vt 0.6559627 0.9744409
vt 0.6559627 0.9683163
vt 0.6559627 0.9744409
vt 0.6559627 0.9683163
vt 0.6580042 0.9744409
vt 0.6580042 0.9683163
vt 0.5722601 0.6559627
vt 0.6008415 0.6845441
vt 0.5314295 0.7233331
vt 0.5314295 0.6437135
vt 0.4926405 0.6559627
vt 0.4640591 0.6845441
vt 0.4538515 0.7233331
vt 0.4640591 0.7621221
vt 0.4926405 0.7907035
vt 0.5314295 0.8009111
vt 0.5722601 0.7907035
vt 0.6008415 0.7621221
vt 0.6110491 0.7233331
vt 0.5702186 0.7907035
vt 0.5314295 0.8009111
vt 0.5987999 0.7621221
vt 0.4926405 0.7907035
vt 0.4640591 0.7621221
vt 0.4538515 0.7233331
vt 0.4640591 0.6845441
vt 0.4926405 0.6559627
vt 0.5314295 0.6457551
vt 0.5702186 0.6559627
vt 0.5987999 0.6845441
vt 0.6090076 0.7233331
vn -0.01587105 0.8729059 -0.4876305
vn -0.01587105 0.4920015 -0.8704497
vn -0.01587105 0.4920015 -0.8704497
vn -0.01587105 0.8729059 -0.4876305
vn -0.01587105 0.01587105 -0.9997481
vn -0.01587105 0.01587105 -0.9997481
vn -0.01587105 -0.4920015 -0.8704497
vn -0.01587105 -0.4920015 -0.8704497
vn -0.01587105 -0.8729059 -0.4876305
vn -0.01587105 -0.8729059 -0.4876305
vn -0.01587105 -0.999874 -0.000345267
vn -0.01587105 -0.999874 -0.000345267
vn -0.01587105 -0.8729059 0.4876305
vn -0.01587105 -0.8729059 0.4876305
vn -0.01587105 -0.8729059 0.4876305
vn -0.01587105 -0.4920015 0.8704497
vn -0.01587105 -0.4920015 0.8704497
vn -0.01587105 -0.8729059 0.4876305
vn -0.01587105 0.01587105 0.9997481
vn -0.01587105 0.01587105 0.9997481
vn -0.01587105 0.4920015 0.8704497
vn -0.01587105 0.4920015 0.8704497
vn -0.01587105 0.8729059 0.4876305
vn -0.01587105 0.8729059 0.4876305
vn -0.01587105 0.999874 -0.000345267
vn -0.01587105 0.999874 -0.000345267
vn -0.01587105 0.8729059 -0.4876305
vn -0.01587105 0.8729059 -0.4876305
vn -0.999874 0.01587105 -0.0003439156
vn -0.999874 0.01587105 -0.0003439156
vn -0.999874 0.01587105 -0.0003439156
vn -0.999874 0.01587105 -0.0003439156
vn -0.999874 0.01587105 -0.0003439156
vn -0.999874 0.01587105 -0.0003439156
vn -0.999874 0.01587105 -0.0003439156
vn -0.999874 0.01587105 -0.0003439156
vn -0.999874 0.01587105 -0.0003439156
vn -0.999874 0.01587105 -0.0003439156
vn -0.999874 0.01587105 -0.0003439156
vn -0.999874 0.01587105 -0.0003439156
vn -0.999874 0.01587105 -0.0003439156
vn 0.999874 0.01587105 -0.0003439156
vn 0.999874 0.01587105 -0.0003439156
vn 0.999874 0.01587105 -0.0003439156
vn 0.999874 0.01587105 -0.0003439156
vn 0.999874 0.01587105 -0.0003439156
vn 0.999874 0.01587105 -0.0003439156
vn 0.999874 0.01587105 -0.0003439156
vn 0.999874 0.01587105 -0.0003439156
vn 0.999874 0.01587105 -0.0003439156
vn 0.999874 0.01587105 -0.0003439156
vn 0.999874 0.01587105 -0.0003439156
vn 0.999874 0.01587105 -0.0003439156
f 3/3/3 2/2/2 1/1/1
f 4/4/4 3/3/3 1/1/1
f 3/3/3 5/5/5 2/2/2
f 5/5/5 6/6/6 2/2/2
f 5/5/5 7/7/7 6/6/6
f 7/7/7 8/8/8 6/6/6
f 7/7/7 9/9/9 8/8/8
f 9/9/9 10/10/10 8/8/8
f 9/9/9 11/11/11 10/10/10
f 11/11/11 12/12/12 10/10/10
f 11/11/11 13/13/13 12/12/12
f 13/13/13 14/14/14 12/12/12
f 17/17/17 16/16/16 15/15/15
f 18/18/18 17/17/17 15/15/15
f 17/17/17 19/19/19 16/16/16
f 19/19/19 20/20/20 16/16/16
f 19/19/19 21/21/21 20/20/20
f 21/21/21 22/22/22 20/20/20
f 21/21/21 23/23/23 22/22/22
f 23/23/23 24/24/24 22/22/22
f 23/23/23 25/25/25 24/24/24
f 25/25/25 26/26/26 24/24/24
f 25/25/25 27/27/27 26/26/26
f 27/27/27 28/28/28 26/26/26
f 31/31/31 30/30/30 29/29/29
f 31/31/31 29/29/29 32/32/32
f 31/31/31 32/32/32 33/33/33
f 31/31/31 33/33/33 34/34/34
f 31/31/31 34/34/34 35/35/35
f 31/31/31 35/35/35 36/36/36
f 31/31/31 36/36/36 37/37/37
f 31/31/31 37/37/37 38/38/38
f 31/31/31 38/38/38 39/39/39
f 31/31/31 39/39/39 40/40/40
f 31/31/31 40/40/40 41/41/41
f 31/31/31 41/41/41 30/30/30
f 44/44/44 43/43/43 42/42/42
f 44/44/44 45/45/45 43/43/43
f 44/44/44 46/46/46 45/45/45
f 44/44/44 47/47/47 46/46/46
f 44/44/44 48/48/48 47/47/47
f 44/44/44 49/49/49 48/48/48
f 44/44/44 50/50/50 49/49/49
f 44/44/44 51/51/51 50/50/50
f 44/44/44 52/52/52 51/51/51
f 44/44/44 53/53/53 52/52/52
