g target_01
v -0.7159693 1.007745 -0.08175749
v -0.7159693 2.460415 -0.08175749
v 0.7149726 2.460415 -0.08175749
v 0.7149726 1.007745 -0.08175749
v -0.7159693 2.460415 -0.08175749
v -0.7159693 2.460415 -0.1997093
v 0.7149726 2.460415 -0.1997093
v 0.7149726 2.460415 -0.08175749
v -0.7159693 2.460415 -0.1997093
v -0.7159693 1.007745 -0.1997093
v 0.7149726 1.007745 -0.1997093
v 0.7149726 2.460415 -0.1997093
v -0.7159693 1.007745 -0.1997093
v -0.7159693 1.007745 -0.08175749
v 0.7149726 1.007745 -0.08175749
v 0.7149726 1.007745 -0.1997093
v 0.7149726 1.007745 -0.08175749
v 0.7149726 2.460415 -0.08175749
v 0.7149726 2.460415 -0.1997093
v 0.7149726 1.007745 -0.1997093
v -0.7159693 1.007745 -0.1997093
v -0.7159693 2.460415 -0.1997093
v -0.7159693 2.460415 -0.08175749
v -0.7159693 1.007745 -0.08175749
v -0.1417302 -0.001053631 0.2007061
v -0.1417302 1.429888 0.2007061
v 0.1438374 1.429888 0.2007061
v 0.1438374 -0.001053631 0.2007061
v -0.1417302 1.429888 0.2007061
v -0.1417302 1.429888 -0.08486146
v 0.1438374 1.429888 -0.08486146
v 0.1438374 1.429888 0.2007061
v -0.1417302 1.429888 -0.08486146
v -0.1417302 -0.001053631 -0.08486146
v 0.1438374 -0.001053631 -0.08486146
v 0.1438374 1.429888 -0.08486146
v 0.1438374 -0.001053631 0.2007061
v 0.1438374 1.429888 0.2007061
v 0.1438374 1.429888 -0.08486146
v 0.1438374 -0.001053631 -0.08486146
v -0.1417302 -0.001053631 -0.08486146
v -0.1417302 1.429888 -0.08486146
v -0.1417302 1.429888 0.2007061
v -0.1417302 -0.001053631 0.2007061
vt 0.1734448 0.4599718
vt 0.1734448 0.4488084
vt 0.1660026 0.4488084
vt 0.1660026 0.4599718
vt 0.2441463 0.5009043
vt 0.2441463 0.5009043
vt 0.2441463 0.5083466
vt 0.2441463 0.5083466
vt 0.6460283 0.954882
vt 0.6460283 0.6571918
vt 0.3408957 0.6571918
vt 0.3408957 0.954882
vt 0.03948416 0.4302028
vt 0.03948416 0.4302028
vt 0.03948416 0.437645
vt 0.03948416 0.437645
vt 0.04320529 0.4488084
vt 0.04320529 0.437645
vt 0.04320529 0.437645
vt 0.04320529 0.4488084
vt 0.03948416 0.4488084
vt 0.03948416 0.437645
vt 0.03948416 0.437645
vt 0.03948416 0.4488084
vt 0.1399547 0.3706647
vt 0.1399547 0.3855492
vt 0.1548392 0.3855492
vt 0.1548392 0.3706647
vt 0.009715122 0.005993992
vt 0.009715122 0.1697237
vt 0.1734448 0.1697237
vt 0.1734448 0.005993992
vt 0.1399547 0.4041549
vt 0.1399547 0.4227605
vt 0.1548392 0.4227605
vt 0.1548392 0.4041549
vt 0.04692642 0.3483379
vt 0.04692642 0.3669436
vt 0.06553207 0.3669436
vt 0.06553207 0.3483379
vt 0.01343625 0.3483379
vt 0.01343625 0.3669436
vt 0.0320419 0.3669436
vt 0.0320419 0.3483379
vn -0.01587105 0.01587105 0.9997481
vn -0.01587105 0.01587105 0.9997481
vn -0.01587105 0.01587105 0.9997481
vn -0.01587105 0.01587105 0.9997481
vn -0.01587105 0.999874 -0.000345267
vn -0.01587105 0.999874 -0.000345267
vn -0.01587105 0.999874 -0.000345267
vn -0.01587105 0.999874 -0.000345267
vn -0.01587105 0.01587105 -0.9997481
vn -0.01587105 0.01587105 -0.9997481
vn -0.01587105 0.01587105 -0.9997481
vn -0.01587105 0.01587105 -0.9997481
vn -0.01587105 -0.999874 -0.000345267
vn -0.01587105 -0.999874 -0.000345267
vn -0.01587105 -0.999874 -0.000345267
vn -0.01587105 -0.999874 -0.000345267
vn 0.999874 0.01587105 -0.0003439156
vn 0.999874 0.01587105 -0.0003439156
vn 0.999874 0.01587105 -0.0003439156
vn 0.999874 0.01587105 -0.0003439156
vn -0.999874 0.01587105 -0.0003439156
vn -0.999874 0.01587105 -0.0003439156
vn -0.999874 0.01587105 -0.0003439156
vn -0.999874 0.01587105 -0.0003439156
vn -0.01587105 0.01587105 0.9997481
vn -0.01587105 0.01587105 0.9997481
vn -0.01587105 0.01587105 0.9997481
vn -0.01587105 0.01587105 0.9997481
vn -0.01587105 0.999874 -0.000345267
vn -0.01587105 0.999874 -0.000345267
vn -0.01587105 0.999874 -0.000345267
vn -0.01587105 0.999874 -0.000345267
vn -0.01587105 0.01587105 -0.9997481
vn -0.01587105 0.01587105 -0.9997481
vn -0.01587105 0.01587105 -0.9997481
vn -0.01587105 0.01587105 -0.9997481
vn 0.999874 0.01587105 -0.0003439156
vn 0.999874 0.01587105 -0.0003439156
vn 0.999874 0.01587105 -0.0003439156
vn 0.999874 0.01587105 -0.0003439156
vn -0.999874 0.01587105 -0.0003439156
vn -0.999874 0.01587105 -0.0003439156
vn -0.999874 0.01587105 -0.0003439156
vn -0.999874 0.01587105 -0.0003439156
f 3/3/3 2/2/2 1/1/1
f 4/4/4 3/3/3 1/1/1
f 7/7/7 6/6/6 5/5/5
f 8/8/8 7/7/7 5/5/5
f 11/11/11 10/10/10 9/9/9
f 12/12/12 11/11/11 9/9/9
f 15/15/15 14/14/14 13/13/13
f 16/16/16 15/15/15 13/13/13
f 19/19/19 18/18/18 17/17/17
f 20/20/20 19/19/19 17/17/17
f 23/23/23 22/22/22 21/21/21
f 24/24/24 23/23/23 21/21/21
f 27/27/27 26/26/26 25/25/25
f 28/28/28 27/27/27 25/25/25
f 31/31/31 30/30/30 29/29/29
f 32/32/32 31/31/31 29/29/29
f 35/35/35 34/34/34 33/33/33
f 36/36/36 35/35/35 33/33/33
f 39/39/39 38/38/38 37/37/37
f 40/40/40 39/39/39 37/37/37
f 43/43/43 42/42/42 41/41/41
f 44/44/44 43/43/43 41/41/41
