g Terrorist_01_mesh
v -0.2772241 2.82696 0.3052382
v -0.2772241 2.752325 0.3052382
v -0.2772241 2.82696 -0.3013708
v -0.2772241 2.752325 -0.3013708
v -0.2772241 2.752325 0.3052382
v -0.2772241 2.82696 0.3052382
v 0.2772241 2.752325 0.3052379
v 0.2772241 2.82696 0.3052379
v 0.2772241 2.82696 -0.3013709
v 0.2772241 2.752325 -0.3013708
v 0.2772241 2.82696 0.3052379
v 0.2772241 2.752325 0.3052379
v 0.2772241 2.82696 -0.3013709
v -0.2772241 2.82696 -0.3013708
v 0.2772241 2.752325 -0.3013708
v -0.2772241 2.752325 -0.3013708
v 0.2772241 2.82696 0.3052379
v -0.2772241 2.82696 0.3052382
v 0.2772241 2.82696 -0.3013709
v -0.2772241 2.82696 -0.3013708
vt 0.4084358 0.9164544
vt 0.4084358 0.930538
vt 0.4647699 0.9164544
vt 0.4647699 0.930538
vt 0.2783339 0.9538963
vt 0.2783339 0.9487346
vt 0.2399896 0.9538963
vt 0.2399895 0.9487346
vt 0.4084358 0.9164544
vt 0.4084358 0.930538
vt 0.4647699 0.9164544
vt 0.4647699 0.930538
vt 0.7715579 0.9610808
vt 0.7139511 0.9610809
vt 0.7715579 0.9371557
vt 0.7139511 0.9371558
vt 0.6223391 0.8756577
vt 0.5471213 0.8756577
vt 0.6223391 0.9508755
vt 0.5471213 0.9508755
vn -1 0 0
vn -1 0 0
vn -1 0 0
vn -1 0 0
vn 4.4248E-07 0 1
vn 4.424798E-07 0 1
vn 4.42478E-07 0 1
vn 4.424779E-07 0 1
vn 1 2.509097E-07 0
vn 1 2.313546E-07 0
vn 1 0 0
vn 1 0 0
vn -2.949853E-07 -2.044425E-06 -1
vn 0 -1.741556E-07 -1
vn -2.69857E-07 -1.870271E-06 -1
vn 0 0 -1
vn 0 1 0
vn 0 1 0
vn 0 1 0
vn 0 1 0
f 3/3/3 2/2/2 1/1/1
f 3/3/3 4/4/4 2/2/2
f 7/7/7 6/6/6 5/5/5
f 7/7/7 8/8/8 6/6/6
f 11/11/11 10/10/10 9/9/9
f 11/11/11 12/12/12 10/10/10
f 15/15/15 14/14/14 13/13/13
f 15/15/15 16/16/16 14/14/14
f 19/19/19 18/18/18 17/17/17
f 19/19/19 20/20/20 18/18/18
