g Ticket_Booth01
v -4.350881 0.3249085 -2.787022
v -4.350881 0.3249085 2.787938
v -4.350881 -0.003030539 2.787938
v -4.350881 -0.003030539 -2.787022
v -2.180902 4.232265 -2.549789
v -2.180902 4.232265 1.343612
v -4.106671 4.232265 1.343612
v -4.106671 4.232265 -2.549789
v -1.936693 -0.003030539 -2.787022
v -1.936693 -0.003030539 2.787938
v -1.936693 0.3249085 2.787938
v -1.936693 0.3249085 -2.787022
v -1.936693 -0.003030539 2.787938
v -1.936693 -0.003030539 -2.787022
v -4.350881 -0.003030539 -2.787022
v -4.350881 -0.003030539 2.787938
v -4.350881 0.3249085 2.787938
v -1.936693 0.3249085 2.787938
v -1.936693 -0.003030539 2.787938
v -4.350881 -0.003030539 2.787938
v -4.350881 -0.003030539 -2.787022
v -1.936693 -0.003030539 -2.787022
v -1.936693 0.3249085 -2.787022
v -4.350881 0.3249085 -2.787022
v -4.106671 0.3249085 -1.482244
v -4.350881 0.3249085 -2.787022
v -4.106671 0.3249085 -2.549789
v -2.180902 0.3249085 -2.549789
v -1.936693 0.3249085 -2.787022
v -2.180902 0.3249085 1.343612
v -1.936693 0.3249085 2.787938
v -4.106671 0.3249085 1.343612
v -4.350881 0.3249085 2.787938
v -4.106671 0.3249085 0.2760665
v -4.106671 0.3249085 -1.370605
v -4.106671 0.3249085 -0.5612242
v -4.106671 0.3249085 -2.549789
v -4.106671 1.692483 -1.482244
v -4.106671 0.3249085 -1.482244
v -4.106671 3.736868 -1.482244
v -4.106671 3.932235 -2.549789
v -4.106671 3.736868 0.2760665
v -4.106671 3.932235 1.343612
v -4.106671 0.3249085 1.343612
v -4.106671 1.692483 0.2760665
v -4.106671 0.3249085 0.2760665
v -3.904325 1.692483 1.343612
v -2.383248 1.692483 1.343612
v -2.180902 0.3249085 1.343612
v -4.106671 0.3249085 1.343612
v -3.904325 3.736868 1.343612
v -4.106671 3.932235 1.343612
v -2.383248 3.736868 1.343612
v -2.180902 3.932235 1.343612
v -2.180902 1.545957 -1.482244
v -2.180902 1.692483 -1.482244
v -2.180902 0.3249085 -2.549789
v -2.180902 3.932235 -2.549789
v -2.180902 3.478703 -1.482244
v -2.180902 3.478703 0.2760665
v -2.180902 3.932235 1.343612
v -2.180902 0.3249085 1.343612
v -2.180902 1.692483 0.2760665
v -2.180902 1.545957 0.2760665
v -4.106671 0.3249085 -2.549789
v -2.180902 0.3249085 -2.549789
v -2.383248 1.692483 -2.549789
v -3.904325 1.692483 -2.549789
v -4.106671 3.932235 -2.549789
v -3.904325 3.736868 -2.549789
v -2.383248 3.736868 -2.549789
v -2.180902 3.932235 -2.549789
v -2.383248 1.692483 -2.549789
v -2.383248 3.736868 -2.549789
v -3.904325 3.736868 -2.549789
v -3.904325 1.692483 -2.549789
v -3.904325 3.736868 1.343612
v -2.383248 3.736868 1.343612
v -2.383248 1.692483 1.343612
v -3.904325 1.692483 1.343612
v -2.180902 1.692483 -0.2751498
v -2.180902 2.125083 -0.2751498
v -2.180902 2.125083 -0.9240502
v -2.180902 1.692483 -0.9310275
v -1.783189 1.545957 0.2760665
v -1.783189 1.692483 0.2760665
v -1.783189 1.692483 -1.482244
v -1.783189 1.545957 -1.482244
v -4.106671 1.587822 -0.2332854
v -4.106671 1.587822 0.1644275
v -4.106671 1.455251 0.1644275
v -4.106671 1.455251 -0.2332854
v -4.106671 3.576387 -1.349673
v -4.106671 3.576387 0.1434953
v -4.106671 1.845986 0.1434953
v -4.106671 1.845986 -1.349673
v -4.106671 3.736868 -1.482244
v -4.106671 3.576387 -1.349673
v -4.106671 1.845986 -1.349673
v -4.106671 1.692483 -1.482244
v -4.106671 1.845986 0.1434953
v -4.106671 1.692483 0.2760665
v -4.106671 3.576387 0.1434953
v -4.106671 3.736868 0.2760665
v -4.106671 1.587822 -0.2332854
v -4.106671 1.455251 -0.2332854
v -4.106671 0.3249085 -1.482244
v -4.106671 1.455251 0.1644275
v -4.106671 0.3249085 -1.370605
v -4.106671 0.3249085 -0.5612242
v -4.106671 0.3249085 0.2760665
v -4.106671 1.587822 0.1644275
v -2.180902 1.545957 0.2760665
v -1.783189 1.545957 0.2760665
v -1.783189 1.545957 -1.482244
v -2.180902 1.545957 -1.482244
v -2.180902 1.545957 -1.482244
v -1.783189 1.545957 -1.482244
v -1.783189 1.692483 -1.482244
v -2.180902 1.692483 -1.482244
v -2.180902 1.692483 -1.482244
v -1.783189 1.692483 -1.482244
v -2.180902 1.692483 -0.9310275
v -2.180902 1.692483 -0.2751498
v -1.783189 1.692483 0.2760665
v -2.180902 1.692483 0.2760665
v -2.180902 1.692483 0.2760665
v -1.783189 1.692483 0.2760665
v -1.783189 1.545957 0.2760665
v -2.180902 1.545957 0.2760665
v -4.1904 3.932235 -2.619564
v -2.097174 3.932235 -2.619564
v -2.097174 4.232265 -2.619564
v -4.1904 4.232265 -2.619564
v -2.097174 3.932235 -2.619564
v -2.097174 3.932235 1.413386
v -2.097174 4.232265 1.413386
v -2.097174 4.232265 -2.619564
v -2.097174 4.232265 1.413386
v -2.097174 3.932235 1.413386
v -4.1904 3.932235 1.413386
v -4.1904 4.232265 1.413386
v -4.1904 4.232265 1.413386
v -4.1904 3.932235 1.413386
v -4.1904 3.932235 -2.619564
v -4.1904 4.232265 -2.619564
v -4.1904 4.232265 -2.619564
v -2.097174 4.232265 -2.619564
v -2.180902 4.232265 -2.549789
v -4.106671 4.232265 -2.549789
v -2.180902 4.232265 1.343612
v -2.097174 4.232265 1.413386
v -4.106671 4.232265 1.343612
v -4.1904 4.232265 1.413386
v -4.1904 3.932235 -2.619564
v -4.106671 3.932235 -2.549789
v -2.180902 3.932235 -2.549789
v -2.097174 3.932235 -2.619564
v -2.180902 3.932235 1.343612
v -2.097174 3.932235 1.413386
v -4.106671 3.932235 1.343612
v -4.1904 3.932235 1.413386
v -2.180902 1.692483 -1.482244
v -2.180902 1.692483 -0.9310275
v -2.180902 2.125083 -0.9240502
v -2.180902 3.478703 -1.482244
v -2.180902 2.125083 -0.2751498
v -2.180902 3.478703 0.2760665
v -2.180902 1.692483 -0.2751498
v -2.180902 1.692483 0.2760665
v -2.355338 0.2969987 2.083219
v -2.355338 2.173925 2.083219
v -2.355338 2.173925 2.327428
v -2.355338 0.2969987 2.327428
v -2.355338 2.173925 2.083219
v -2.111128 2.173925 2.083219
v -2.111128 2.173925 2.327428
v -2.355338 2.173925 2.327428
v -2.111128 2.173925 2.083219
v -2.111128 0.2969987 2.083219
v -2.111128 0.2969987 2.327428
v -2.111128 2.173925 2.327428
v -2.111128 0.2969987 2.083219
v -2.355338 0.2969987 2.083219
v -2.355338 0.2969987 2.327428
v -2.111128 0.2969987 2.327428
v -2.355338 0.2969987 2.327428
v -2.355338 2.173925 2.327428
v -2.111128 2.173925 2.327428
v -2.111128 0.2969987 2.327428
v -2.111128 0.2969987 2.083219
v -2.111128 2.173925 2.083219
v -2.355338 2.173925 2.083219
v -2.355338 0.2969987 2.083219
vt 0.2262378 0.2224969
vt 0.2262378 0.2224969
vt 0.2262378 0.2224969
vt 0.2262378 0.2224969
vt 0.2299787 0.3347247
vt 0.2299787 0.3347247
vt 0.2299787 0.3347247
vt 0.2299787 0.3347247
vt 0.2262378 0.2224969
vt 0.2262378 0.2224969
vt 0.2262378 0.2224969
vt 0.2262378 0.2224969
vt 0.2262378 0.2224969
vt 0.2262378 0.2224969
vt 0.2262378 0.2224969
vt 0.2262378 0.2224969
vt 0.2075332 0.2224969
vt 0.2075332 0.2224969
vt 0.2075332 0.2224969
vt 0.2075332 0.2224969
vt 0.2075332 0.2224969
vt 0.2075332 0.2224969
vt 0.2075332 0.2224969
vt 0.2075332 0.2224969
vt 0.2711289 0.2187559
vt 0.2711289 0.2187559
vt 0.2711289 0.2187559
vt 0.2711289 0.2187559
vt 0.2711289 0.2187559
vt 0.2711289 0.2187559
vt 0.2711289 0.2187559
vt 0.2711289 0.2187559
vt 0.2711289 0.2187559
vt 0.2711289 0.2187559
vt 0.2711289 0.2187559
vt 0.2711289 0.2187559
vt 0.3534293 0.06163696
vt 0.3534293 0.06163696
vt 0.3534293 0.06163696
vt 0.3534293 0.06163696
vt 0.3534293 0.06163696
vt 0.3534293 0.06163696
vt 0.3534293 0.06163696
vt 0.3534293 0.06163696
vt 0.3534293 0.06163696
vt 0.3534293 0.06163696
vt 0.2973154 0.06163696
vt 0.2973154 0.06163696
vt 0.2973154 0.06163696
vt 0.2973154 0.06163696
vt 0.2973154 0.06163696
vt 0.2973154 0.06163696
vt 0.2973154 0.06163696
vt 0.2973154 0.06163696
vt 0.3534293 0.06163696
vt 0.3534293 0.06163696
vt 0.3534293 0.06163696
vt 0.3534293 0.06163696
vt 0.3534293 0.06163696
vt 0.3534293 0.06163696
vt 0.3534293 0.06163696
vt 0.3534293 0.06163696
vt 0.3534293 0.06163696
vt 0.3534293 0.06163696
vt 0.2973154 0.06163696
vt 0.2973154 0.06163696
vt 0.2973154 0.06163696
vt 0.2973154 0.06163696
vt 0.2973154 0.06163696
vt 0.2973154 0.06163696
vt 0.2973154 0.06163696
vt 0.2973154 0.06163696
vt 0.525512 0.4656572
vt 0.525512 0.4656572
vt 0.525512 0.4656572
vt 0.525512 0.4656572
vt 0.525512 0.4656572
vt 0.525512 0.4656572
vt 0.525512 0.4656572
vt 0.525512 0.4656572
vt 0.07660067 0.1252327
vt 0.07660067 0.1252327
vt 0.07660067 0.1252327
vt 0.07660067 0.1252327
vt 0.3571703 0.4806209
vt 0.3571703 0.4806209
vt 0.3571703 0.4806209
vt 0.3571703 0.4806209
vt 0.5367348 0.4619163
vt 0.5367348 0.4619163
vt 0.5367348 0.4619163
vt 0.5367348 0.4619163
vt 0.525512 0.4656572
vt 0.525512 0.4656572
vt 0.525512 0.4656572
vt 0.525512 0.4656572
vt 0.3047973 0.3309838
vt 0.3047973 0.3309838
vt 0.3047973 0.3309838
vt 0.3047973 0.3309838
vt 0.3047973 0.3309838
vt 0.3047973 0.3309838
vt 0.3047973 0.3309838
vt 0.3047973 0.3309838
vt 0.3047973 0.3309838
vt 0.3047973 0.3309838
vt 0.3047973 0.3309838
vt 0.3047973 0.3309838
vt 0.3047973 0.3309838
vt 0.3047973 0.3309838
vt 0.3047973 0.3309838
vt 0.3047973 0.3309838
vt 0.3571703 0.4806209
vt 0.3571703 0.4806209
vt 0.3571703 0.4806209
vt 0.3571703 0.4806209
vt 0.3571703 0.4806209
vt 0.3571703 0.4806209
vt 0.3571703 0.4806209
vt 0.3571703 0.4806209
vt 0.3833568 0.47688
vt 0.3833568 0.47688
vt 0.3833568 0.47688
vt 0.3833568 0.47688
vt 0.3833568 0.47688
vt 0.3833568 0.47688
vt 0.3571703 0.4806209
vt 0.3571703 0.4806209
vt 0.3571703 0.4806209
vt 0.3571703 0.4806209
vt 0.2973154 0.3347247
vt 0.2973154 0.3347247
vt 0.2973154 0.3347247
vt 0.2973154 0.3347247
vt 0.3534293 0.3347247
vt 0.3534293 0.3347247
vt 0.3534293 0.3347247
vt 0.3534293 0.3347247
vt 0.2973154 0.3347247
vt 0.2973154 0.3347247
vt 0.2973154 0.3347247
vt 0.2973154 0.3347247
vt 0.3534293 0.3347247
vt 0.3534293 0.3347247
vt 0.3534293 0.3347247
vt 0.3534293 0.3347247
vt 0.424507 0.3384656
vt 0.424507 0.3384656
vt 0.424507 0.3384656
vt 0.424507 0.3384656
vt 0.424507 0.3384656
vt 0.424507 0.3384656
vt 0.424507 0.3384656
vt 0.424507 0.3384656
vt 0.2599061 0.3309838
vt 0.2599061 0.3309838
vt 0.2599061 0.3309838
vt 0.2599061 0.3309838
vt 0.2599061 0.3309838
vt 0.2599061 0.3309838
vt 0.2599061 0.3309838
vt 0.2599061 0.3309838
vt 0.525512 0.4656572
vt 0.525512 0.4656572
vt 0.525512 0.4656572
vt 0.525512 0.4656572
vt 0.525512 0.4656572
vt 0.525512 0.4656572
vt 0.525512 0.4656572
vt 0.525512 0.4656572
vt 0.3908386 0.4806209
vt 0.3908386 0.4806209
vt 0.3908386 0.4806209
vt 0.3908386 0.4806209
vt 0.4207661 0.4806209
vt 0.4207661 0.4806209
vt 0.4207661 0.4806209
vt 0.4207661 0.4806209
vt 0.3908386 0.4806209
vt 0.3908386 0.4806209
vt 0.3908386 0.4806209
vt 0.3908386 0.4806209
vt 0.3534293 0.47688
vt 0.3534293 0.47688
vt 0.3534293 0.47688
vt 0.3534293 0.47688
vt 0.3534293 0.47688
vt 0.3534293 0.47688
vt 0.3534293 0.47688
vt 0.3534293 0.47688
vt 0.3534293 0.47688
vt 0.3534293 0.47688
vt 0.3534293 0.47688
vt 0.3534293 0.47688
vn -0.999874 0.01587105 -0.0003439156
vn -0.999874 0.01587105 -0.0003439156
vn -0.999874 0.01587105 -0.0003439156
vn -0.999874 0.01587105 -0.0003439156
vn -0.01587105 0.999874 -0.000345267
vn -0.01587105 0.999874 -0.000345267
vn -0.01587105 0.999874 -0.000345267
vn -0.01587105 0.999874 -0.000345267
vn 0.999874 0.01587105 -0.0003439156
vn 0.999874 0.01587105 -0.0003439156
vn 0.999874 0.01587105 -0.0003439156
vn 0.999874 0.01587105 -0.0003439156
vn -0.01587105 -0.999874 -0.000345267
vn -0.01587105 -0.999874 -0.000345267
vn -0.01587105 -0.999874 -0.000345267
vn -0.01587105 -0.999874 -0.000345267
vn -0.01587105 0.01587105 0.9997481
vn -0.01587105 0.01587105 0.9997481
vn -0.01587105 0.01587105 0.9997481
vn -0.01587105 0.01587105 0.9997481
vn -0.01587105 0.01587105 -0.9997481
vn -0.01587105 0.01587105 -0.9997481
vn -0.01587105 0.01587105 -0.9997481
vn -0.01587105 0.01587105 -0.9997481
vn -0.01587105 0.999874 -0.000345267
vn -0.01587105 0.999874 -0.000345267
vn -0.01587105 0.999874 -0.000345267
vn -0.01587105 0.999874 -0.000345267
vn -0.01587105 0.999874 -0.000345267
vn -0.01587105 0.999874 -0.000345267
vn -0.01587105 0.999874 -0.000345267
vn -0.01587105 0.999874 -0.000345267
vn -0.01587105 0.999874 -0.000345267
vn -0.01587105 0.999874 -0.000345267
vn -0.01587105 0.999874 -0.000345267
vn -0.01587105 0.999874 -0.000345267
vn -0.999874 0.01587105 -0.0003439156
vn -0.999874 0.01587105 -0.0003439156
vn -0.999874 0.01587105 -0.0003439156
vn -0.999874 0.01587105 -0.0003439156
vn -0.999874 0.01587105 -0.0003439156
vn -0.999874 0.01587105 -0.0003439156
vn -0.999874 0.01587105 -0.0003439156
vn -0.999874 0.01587105 -0.0003439156
vn -0.999874 0.01587105 -0.0003439156
vn -0.999874 0.01587105 -0.0003439156
vn -0.01587105 0.01587105 0.9997481
vn -0.01587105 0.01587105 0.9997481
vn -0.01587105 0.01587105 0.9997481
vn -0.01587105 0.01587105 0.9997481
vn -0.01587105 0.01587105 0.9997481
vn -0.01587105 0.01587105 0.9997481
vn -0.01587105 0.01587105 0.9997481
vn -0.01587105 0.01587105 0.9997481
vn 0.999874 0.01587105 -0.0003439156
vn 0.999874 0.01587105 -0.0003439156
vn 0.999874 0.01587105 -0.0003439156
vn 0.999874 0.01587105 -0.0003439156
vn 0.999874 0.01587105 -0.0003439156
vn 0.999874 0.01587105 -0.0003439156
vn 0.999874 0.01587105 -0.0003439156
vn 0.999874 0.01587105 -0.0003439156
vn 0.999874 0.01587105 -0.0003439156
vn 0.999874 0.01587105 -0.0003439156
vn -0.01587105 0.01587105 -0.9997481
vn -0.01587105 0.01587105 -0.9997481
vn -0.01587105 0.01587105 -0.9997481
vn -0.01587105 0.01587105 -0.9997481
vn -0.01587105 0.01587105 -0.9997481
vn -0.01587105 0.01587105 -0.9997481
vn -0.01587105 0.01587105 -0.9997481
vn -0.01587105 0.01587105 -0.9997481
vn -0.01587105 0.01587105 -0.9997481
vn -0.01587105 0.01587105 -0.9997481
vn -0.01587105 0.01587105 -0.9997481
vn -0.01587105 0.01587105 -0.9997481
vn -0.01587105 0.01587105 0.9997481
vn -0.01587105 0.01587105 0.9997481
vn -0.01587105 0.01587105 0.9997481
vn -0.01587105 0.01587105 0.9997481
vn 0.999874 0.01587105 -0.0003439156
vn 0.999874 0.01587105 -0.0003439156
vn 0.999874 0.01587105 -0.0003439156
vn 0.999874 0.01587105 -0.0003439156
vn 0.999874 0.01587105 -0.0003439156
vn 0.999874 0.01587105 -0.0003439156
vn 0.999874 0.01587105 -0.0003439156
vn 0.999874 0.01587105 -0.0003439156
vn -0.999874 0.01587105 -0.0003439156
vn -0.999874 0.01587105 -0.0003439156
vn -0.999874 0.01587105 -0.0003439156
vn -0.999874 0.01587105 -0.0003439156
vn -0.999874 0.01587105 -0.0003439156
vn -0.999874 0.01587105 -0.0003439156
vn -0.999874 0.01587105 -0.0003439156
vn -0.999874 0.01587105 -0.0003439156
vn -0.999874 0.01587105 -0.0003439156
vn -0.999874 0.01587105 -0.0003439156
vn -0.999874 0.01587105 -0.0003439156
vn -0.999874 0.01587105 -0.0003439156
vn -0.999874 0.01587105 -0.0003439156
vn -0.999874 0.01587105 -0.0003439156
vn -0.999874 0.01587105 -0.0003439156
vn -0.999874 0.01587105 -0.0003439156
vn -0.999874 0.01587105 -0.0003439156
vn -0.999874 0.01587105 -0.0003439156
vn -0.999874 0.01587105 -0.0003439156
vn -0.999874 0.01587105 -0.0003439156
vn -0.999874 0.01587105 -0.0003439156
vn -0.999874 0.01587105 -0.0003439156
vn -0.999874 0.01587105 -0.0003439156
vn -0.999874 0.01587105 -0.0003439156
vn -0.01587105 -0.999874 -0.000345267
vn -0.01587105 -0.999874 -0.000345267
vn -0.01587105 -0.999874 -0.000345267
vn -0.01587105 -0.999874 -0.000345267
vn -0.01587105 0.01587105 -0.9997481
vn -0.01587105 0.01587105 -0.9997481
vn -0.01587105 0.01587105 -0.9997481
vn -0.01587105 0.01587105 -0.9997481
vn -0.01587105 0.999874 -0.000345267
vn -0.01587105 0.999874 -0.000345267
vn -0.01587105 0.999874 -0.000345267
vn -0.01587105 0.999874 -0.000345267
vn -0.01587105 0.999874 -0.000345267
vn -0.01587105 0.999874 -0.000345267
vn -0.01587105 0.01587105 0.9997481
vn -0.01587105 0.01587105 0.9997481
vn -0.01587105 0.01587105 0.9997481
vn -0.01587105 0.01587105 0.9997481
vn -0.01587105 0.01587105 -0.9997481
vn -0.01587105 0.01587105 -0.9997481
vn -0.01587105 0.01587105 -0.9997481
vn -0.01587105 0.01587105 -0.9997481
vn 0.999874 0.01587105 -0.0003439156
vn 0.999874 0.01587105 -0.0003439156
vn 0.999874 0.01587105 -0.0003439156
vn 0.999874 0.01587105 -0.0003439156
vn -0.01587105 0.01587105 0.9997481
vn -0.01587105 0.01587105 0.9997481
vn -0.01587105 0.01587105 0.9997481
vn -0.01587105 0.01587105 0.9997481
vn -0.999874 0.01587105 -0.0003439156
vn -0.999874 0.01587105 -0.0003439156
vn -0.999874 0.01587105 -0.0003439156
vn -0.999874 0.01587105 -0.0003439156
vn -0.01587105 0.999874 -0.000345267
vn -0.01587105 0.999874 -0.000345267
vn -0.01587105 0.999874 -0.000345267
vn -0.01587105 0.999874 -0.000345267
vn -0.01587105 0.999874 -0.000345267
vn -0.01587105 0.999874 -0.000345267
vn -0.01587105 0.999874 -0.000345267
vn -0.01587105 0.999874 -0.000345267
vn -0.01587105 -0.999874 -0.000345267
vn -0.01587105 -0.999874 -0.000345267
vn -0.01587105 -0.999874 -0.000345267
vn -0.01587105 -0.999874 -0.000345267
vn -0.01587105 -0.999874 -0.000345267
vn -0.01587105 -0.999874 -0.000345267
vn -0.01587105 -0.999874 -0.000345267
vn -0.01587105 -0.999874 -0.000345267
vn 0.999874 0.01587105 -0.0003439156
vn 0.999874 0.01587105 -0.0003439156
vn 0.999874 0.01587105 -0.0003439156
vn 0.999874 0.01587105 -0.0003439156
vn 0.999874 0.01587105 -0.0003439156
vn 0.999874 0.01587105 -0.0003439156
vn 0.999874 0.01587105 -0.0003439156
vn 0.999874 0.01587105 -0.0003439156
vn -0.999874 0.01587105 -0.0003439156
vn -0.999874 0.01587105 -0.0003439156
vn -0.999874 0.01587105 -0.0003439156
vn -0.999874 0.01587105 -0.0003439156
vn -0.01587105 0.999874 -0.000345267
vn -0.01587105 0.999874 -0.000345267
vn -0.01587105 0.999874 -0.000345267
vn -0.01587105 0.999874 -0.000345267
vn 0.999874 0.01587105 -0.0003439156
vn 0.999874 0.01587105 -0.0003439156
vn 0.999874 0.01587105 -0.0003439156
vn 0.999874 0.01587105 -0.0003439156
vn -0.01587105 -0.999874 -0.000345267
vn -0.01587105 -0.999874 -0.000345267
vn -0.01587105 -0.999874 -0.000345267
vn -0.01587105 -0.999874 -0.000345267
vn -0.01587105 0.01587105 0.9997481
vn -0.01587105 0.01587105 0.9997481
vn -0.01587105 0.01587105 0.9997481
vn -0.01587105 0.01587105 0.9997481
vn -0.01587105 0.01587105 -0.9997481
vn -0.01587105 0.01587105 -0.9997481
vn -0.01587105 0.01587105 -0.9997481
vn -0.01587105 0.01587105 -0.9997481
f 3/3/3 2/2/2 1/1/1
f 4/4/4 3/3/3 1/1/1
f 7/7/7 6/6/6 5/5/5
f 8/8/8 7/7/7 5/5/5
f 11/11/11 10/10/10 9/9/9
f 12/12/12 11/11/11 9/9/9
f 15/15/15 14/14/14 13/13/13
f 16/16/16 15/15/15 13/13/13
f 19/19/19 18/18/18 17/17/17
f 20/20/20 19/19/19 17/17/17
f 23/23/23 22/22/22 21/21/21
f 24/24/24 23/23/23 21/21/21
f 27/27/27 26/26/26 25/25/25
f 27/27/27 28/28/28 26/26/26
f 28/28/28 29/29/29 26/26/26
f 28/28/28 30/30/30 29/29/29
f 30/30/30 31/31/31 29/29/29
f 31/31/31 30/30/30 32/32/32
f 33/33/33 31/31/31 32/32/32
f 25/25/25 26/26/26 33/33/33
f 33/33/33 32/32/32 34/34/34
f 33/33/33 35/35/35 25/25/25
f 33/33/33 36/36/36 35/35/35
f 33/33/33 34/34/34 36/36/36
f 39/39/39 38/38/38 37/37/37
f 38/38/38 40/40/40 37/37/37
f 40/40/40 41/41/41 37/37/37
f 40/40/40 42/42/42 41/41/41
f 42/42/42 43/43/43 41/41/41
f 44/44/44 43/43/43 42/42/42
f 45/45/45 44/44/44 42/42/42
f 46/46/46 44/44/44 45/45/45
f 49/49/49 48/48/48 47/47/47
f 50/50/50 49/49/49 47/47/47
f 47/47/47 51/51/51 50/50/50
f 51/51/51 52/52/52 50/50/50
f 51/51/51 53/53/53 52/52/52
f 48/48/48 49/49/49 53/53/53
f 53/53/53 54/54/54 52/52/52
f 49/49/49 54/54/54 53/53/53
f 57/57/57 56/56/56 55/55/55
f 57/57/57 58/58/58 56/56/56
f 58/58/58 59/59/59 56/56/56
f 59/59/59 58/58/58 60/60/60
f 58/58/58 61/61/61 60/60/60
f 60/60/60 61/61/61 62/62/62
f 57/57/57 55/55/55 62/62/62
f 63/63/63 60/60/60 62/62/62
f 64/64/64 63/63/63 62/62/62
f 55/55/55 64/64/64 62/62/62
f 67/67/67 66/66/66 65/65/65
f 68/68/68 67/67/67 65/65/65
f 65/65/65 69/69/69 68/68/68
f 69/69/69 70/70/70 68/68/68
f 70/70/70 69/69/69 71/71/71
f 67/67/67 71/71/71 66/66/66
f 69/69/69 72/72/72 71/71/71
f 71/71/71 72/72/72 66/66/66
f 75/75/75 74/74/74 73/73/73
f 76/76/76 75/75/75 73/73/73
f 79/79/79 78/78/78 77/77/77
f 80/80/80 79/79/79 77/77/77
f 83/83/83 82/82/82 81/81/81
f 84/84/84 83/83/83 81/81/81
f 87/87/87 86/86/86 85/85/85
f 88/88/88 87/87/87 85/85/85
f 91/91/91 90/90/90 89/89/89
f 92/92/92 91/91/91 89/89/89
f 95/95/95 94/94/94 93/93/93
f 96/96/96 95/95/95 93/93/93
f 99/99/99 98/98/98 97/97/97
f 100/100/100 99/99/99 97/97/97
f 101/101/101 99/99/99 100/100/100
f 102/102/102 101/101/101 100/100/100
f 103/103/103 101/101/101 102/102/102
f 104/104/104 103/103/103 102/102/102
f 98/98/98 103/103/103 104/104/104
f 97/97/97 98/98/98 104/104/104
f 100/100/100 105/105/105 102/102/102
f 106/106/106 105/105/105 100/100/100
f 107/107/107 106/106/106 100/100/100
f 108/108/108 106/106/106 107/107/107
f 108/108/108 107/107/107 109/109/109
f 108/108/108 109/109/109 110/110/110
f 110/110/110 111/111/111 108/108/108
f 112/112/112 108/108/108 111/111/111
f 102/102/102 112/112/112 111/111/111
f 105/105/105 112/112/112 102/102/102
f 115/115/115 114/114/114 113/113/113
f 116/116/116 115/115/115 113/113/113
f 119/119/119 118/118/118 117/117/117
f 120/120/120 119/119/119 117/117/117
f 123/123/123 122/122/122 121/121/121
f 123/123/123 124/124/124 122/122/122
f 124/124/124 125/125/125 122/122/122
f 124/124/124 126/126/126 125/125/125
f 129/129/129 128/128/128 127/127/127
f 130/130/130 129/129/129 127/127/127
f 133/133/133 132/132/132 131/131/131
f 134/134/134 133/133/133 131/131/131
f 137/137/137 136/136/136 135/135/135
f 138/138/138 137/137/137 135/135/135
f 141/141/141 140/140/140 139/139/139
f 142/142/142 141/141/141 139/139/139
f 145/145/145 144/144/144 143/143/143
f 146/146/146 145/145/145 143/143/143
f 149/149/149 148/148/148 147/147/147
f 150/150/150 149/149/149 147/147/147
f 149/149/149 151/151/151 148/148/148
f 151/151/151 152/152/152 148/148/148
f 151/151/151 153/153/153 152/152/152
f 153/153/153 154/154/154 152/152/152
f 150/150/150 147/147/147 154/154/154
f 153/153/153 150/150/150 154/154/154
f 157/157/157 156/156/156 155/155/155
f 158/158/158 157/157/157 155/155/155
f 159/159/159 157/157/157 158/158/158
f 160/160/160 159/159/159 158/158/158
f 161/161/161 159/159/159 160/160/160
f 162/162/162 161/161/161 160/160/160
f 156/156/156 161/161/161 162/162/162
f 155/155/155 156/156/156 162/162/162
f 165/165/165 164/164/164 163/163/163
f 166/166/166 165/165/165 163/163/163
f 167/167/167 165/165/165 166/166/166
f 168/168/168 167/167/167 166/166/166
f 169/169/169 167/167/167 168/168/168
f 170/170/170 169/169/169 168/168/168
f 173/173/173 172/172/172 171/171/171
f 174/174/174 173/173/173 171/171/171
f 177/177/177 176/176/176 175/175/175
f 178/178/178 177/177/177 175/175/175
f 181/181/181 180/180/180 179/179/179
f 182/182/182 181/181/181 179/179/179
f 185/185/185 184/184/184 183/183/183
f 186/186/186 185/185/185 183/183/183
f 189/189/189 188/188/188 187/187/187
f 190/190/190 189/189/189 187/187/187
f 193/193/193 192/192/192 191/191/191
f 194/194/194 193/193/193 191/191/191
