g tow_rr_wheel
v -0.08378544 0.3128697 -0.1806513
v -0.08378544 0.1806513 -0.3128697
v 0.08378544 0.1806513 -0.3128697
v 0.08378544 0.3128697 -0.1806513
v 0.08378544 0.0003535151 -0.3616562
v -0.08378544 0.0003535151 -0.3616562
v 0.08378544 -0.1806513 -0.3128697
v -0.08378544 -0.1806513 -0.3128697
v 0.08378544 -0.3128697 -0.1806513
v -0.08378544 -0.3128697 -0.1806513
v -0.08378544 -0.3128697 -0.1806513
v -0.08378544 -0.3616562 0.0003535151
v 0.08378544 -0.3616562 0.0003535151
v 0.08378544 -0.3128697 -0.1806513
v 0.08378544 -0.3128697 0.1806513
v -0.08378544 -0.3128697 0.1806513
v 0.08378544 -0.1806513 0.3128697
v -0.08378544 -0.1806513 0.3128697
v -0.08378544 -0.1806513 0.3128697
v -0.08378544 0.0003535151 0.3616562
v 0.08378544 0.0003535151 0.3616562
v 0.08378544 -0.1806513 0.3128697
v 0.08378544 0.1806513 0.3128697
v -0.08378544 0.1806513 0.3128697
v 0.08378544 0.3128697 0.1806513
v -0.08378544 0.3128697 0.1806513
v -0.08378544 0.3128697 0.1806513
v -0.08378544 0.3616562 0.0003535151
v 0.08378544 0.3616562 0.0003535151
v 0.08378544 0.3128697 0.1806513
v 0.08378544 0.3128697 -0.1806513
v -0.08378544 0.3128697 -0.1806513
v 0.08378544 0.3128697 -0.1806513
v 0.08378544 0.1806513 -0.3128697
v 0.08378544 0.0003535151 0.0003535151
v 0.08378544 0.0003535151 -0.3616562
v 0.08378544 -0.1806513 -0.3128697
v 0.08378544 -0.3128697 -0.1806513
v 0.08378544 -0.3616562 0.0003535151
v 0.08378544 -0.3128697 0.1806513
v 0.08378544 -0.1806513 0.3128697
v 0.08378544 0.0003535151 0.3616562
v 0.08378544 0.1806513 0.3128697
v 0.08378544 0.3128697 0.1806513
v 0.08378544 0.3616562 0.0003535151
v -0.08378544 0.1806513 -0.3128697
v -0.08378544 0.3128697 -0.1806513
v -0.08378544 0.0003535151 -0.3616562
v -0.08378544 -0.1806513 -0.3128697
v -0.08378544 -0.3128697 -0.1806513
v -0.08378544 -0.3616562 0.0003535151
v -0.08378544 -0.3128697 0.1806513
v -0.08378544 -0.1806513 0.3128697
v -0.08378544 0.0003535151 0.3616562
v -0.08378544 0.1806513 0.3128697
v -0.08378544 0.3128697 0.1806513
v -0.08378544 0.3616562 0.0003535151
vt 0.6517097 0.9648595
vt 0.6740776 0.9648595
vt 0.6740776 0.9693331
vt 0.6517097 0.9693331
vt 0.6986822 0.9693331
vt 0.6986822 0.9648595
vt 0.72105 0.9693331
vt 0.72105 0.9648595
vt 0.7434179 0.9693331
vt 0.7434179 0.9648595
vt 0.7344707 0.9693331
vt 0.7121029 0.9693331
vt 0.7121029 0.9648595
vt 0.7344707 0.9648595
vt 0.6897351 0.9648595
vt 0.6897351 0.9693331
vt 0.6673672 0.9648595
vt 0.6673672 0.9693331
vt 0.7299972 0.9693331
vt 0.7076293 0.9693331
vt 0.7076293 0.9648595
vt 0.7299972 0.9648595
vt 0.6852615 0.9648595
vt 0.6852615 0.9693331
vt 0.6606569 0.9648595
vt 0.6606569 0.9693331
vt 0.6807879 0.9648595
vt 0.7031558 0.9648595
vt 0.7031558 0.9693331
vt 0.6807879 0.9693331
vt 0.7255236 0.9693331
vt 0.7255236 0.9648595
vt 0.4951349 0.78368
vt 0.5421073 0.7971007
vt 0.4951349 0.8776249
vt 0.5756591 0.8306525
vt 0.5890798 0.8776249
vt 0.5756591 0.9245974
vt 0.5421073 0.9581491
vt 0.4951349 0.9715698
vt 0.4481624 0.9581491
vt 0.4146107 0.9245974
vt 0.40119 0.8776249
vt 0.4146107 0.8306525
vt 0.4481624 0.7971007
vt 0.5443441 0.9581491
vt 0.5778959 0.9245974
vt 0.4973717 0.9715698
vt 0.4503992 0.9581491
vt 0.4146107 0.9245974
vt 0.4034267 0.8776249
vt 0.4146107 0.8306525
vt 0.4503992 0.7948639
vt 0.4973717 0.78368
vt 0.5443441 0.7948639
vt 0.5778959 0.8306525
vt 0.5913166 0.8776249
vn -0.01587105 0.8729059 -0.4876305
vn -0.01587105 0.4920015 -0.8704497
vn -0.01587105 0.4920015 -0.8704497
vn -0.01587105 0.8729059 -0.4876305
vn -0.01587105 0.01587105 -0.9997481
vn -0.01587105 0.01587105 -0.9997481
vn -0.01587105 -0.4920015 -0.8704497
vn -0.01587105 -0.4920015 -0.8704497
vn -0.01587105 -0.8729059 -0.4876305
vn -0.01587105 -0.8729059 -0.4876305
vn -0.01587105 -0.8729059 -0.4876305
vn -0.01587105 -0.999874 -0.000345267
vn -0.01587105 -0.999874 -0.000345267
vn -0.01587105 -0.8729059 -0.4876305
vn -0.01587105 -0.8729059 0.4876305
vn -0.01587105 -0.8729059 0.4876305
vn -0.01587105 -0.4920015 0.8704497
vn -0.01587105 -0.4920015 0.8704497
vn -0.01587105 -0.4920015 0.8704497
vn -0.01587105 0.01587105 0.9997481
vn -0.01587105 0.01587105 0.9997481
vn -0.01587105 -0.4920015 0.8704497
vn -0.01587105 0.4920015 0.8704497
vn -0.01587105 0.4920015 0.8704497
vn -0.01587105 0.8729059 0.4876305
vn -0.01587105 0.8729059 0.4876305
vn -0.01587105 0.8729059 0.4876305
vn -0.01587105 0.999874 -0.000345267
vn -0.01587105 0.999874 -0.000345267
vn -0.01587105 0.8729059 0.4876305
vn -0.01587105 0.8729059 -0.4876305
vn -0.01587105 0.8729059 -0.4876305
vn 0.999874 0.01587105 -0.0003439156
vn 0.999874 0.01587105 -0.0003439156
vn 0.999874 0.01587105 -0.0003439156
vn 0.999874 0.01587105 -0.0003439156
vn 0.999874 0.01587105 -0.0003439156
vn 0.999874 0.01587105 -0.0003439156
vn 0.999874 0.01587105 -0.0003439156
vn 0.999874 0.01587105 -0.0003439156
vn 0.999874 0.01587105 -0.0003439156
vn 0.999874 0.01587105 -0.0003439156
vn 0.999874 0.01587105 -0.0003439156
vn 0.999874 0.01587105 -0.0003439156
vn 0.999874 0.01587105 -0.0003439156
vn -0.999874 0.01587105 -0.0003439156
vn -0.999874 0.01587105 -0.0003439156
vn -0.999874 0.01587105 -0.0003439156
vn -0.999874 0.01587105 -0.0003439156
vn -0.999874 0.01587105 -0.0003439156
vn -0.999874 0.01587105 -0.0003439156
vn -0.999874 0.01587105 -0.0003439156
vn -0.999874 0.01587105 -0.0003439156
vn -0.999874 0.01587105 -0.0003439156
vn -0.999874 0.01587105 -0.0003439156
vn -0.999874 0.01587105 -0.0003439156
vn -0.999874 0.01587105 -0.0003439156
f 3/3/3 2/2/2 1/1/1
f 4/4/4 3/3/3 1/1/1
f 3/3/3 5/5/5 2/2/2
f 5/5/5 6/6/6 2/2/2
f 5/5/5 7/7/7 6/6/6
f 7/7/7 8/8/8 6/6/6
f 7/7/7 9/9/9 8/8/8
f 9/9/9 10/10/10 8/8/8
f 13/13/13 12/12/12 11/11/11
f 14/14/14 13/13/13 11/11/11
f 13/13/13 15/15/15 12/12/12
f 15/15/15 16/16/16 12/12/12
f 15/15/15 17/17/17 16/16/16
f 17/17/17 18/18/18 16/16/16
f 21/21/21 20/20/20 19/19/19
f 22/22/22 21/21/21 19/19/19
f 21/21/21 23/23/23 20/20/20
f 23/23/23 24/24/24 20/20/20
f 23/23/23 25/25/25 24/24/24
f 25/25/25 26/26/26 24/24/24
f 29/29/29 28/28/28 27/27/27
f 30/30/30 29/29/29 27/27/27
f 29/29/29 31/31/31 28/28/28
f 31/31/31 32/32/32 28/28/28
f 35/35/35 34/34/34 33/33/33
f 35/35/35 36/36/36 34/34/34
f 35/35/35 37/37/37 36/36/36
f 35/35/35 38/38/38 37/37/37
f 35/35/35 39/39/39 38/38/38
f 35/35/35 40/40/40 39/39/39
f 35/35/35 41/41/41 40/40/40
f 35/35/35 42/42/42 41/41/41
f 35/35/35 43/43/43 42/42/42
f 35/35/35 44/44/44 43/43/43
f 35/35/35 45/45/45 44/44/44
f 35/35/35 33/33/33 45/45/45
f 48/48/48 47/47/47 46/46/46
f 49/49/49 47/47/47 48/48/48
f 50/50/50 47/47/47 49/49/49
f 51/51/51 47/47/47 50/50/50
f 52/52/52 47/47/47 51/51/51
f 53/53/53 47/47/47 52/52/52
f 54/54/54 47/47/47 53/53/53
f 55/55/55 47/47/47 54/54/54
f 56/56/56 47/47/47 55/55/55
f 57/57/57 47/47/47 56/56/56
