g tow_fr_wheel
v -0.08378544 0.3128697 -0.1806513
v -0.08378544 0.1806513 -0.3128697
v 0.08378544 0.1806513 -0.3128697
v 0.08378544 0.3128697 -0.1806513
v 0.08378544 0.0003535151 -0.3616562
v -0.08378544 0.0003535151 -0.3616562
v 0.08378544 -0.1806513 -0.3128697
v -0.08378544 -0.1806513 -0.3128697
v 0.08378544 -0.3128697 -0.1806513
v -0.08378544 -0.3128697 -0.1806513
v -0.08378544 -0.3128697 -0.1806513
v -0.08378544 -0.3616562 0.0003535151
v 0.08378544 -0.3616562 0.0003535151
v 0.08378544 -0.3128697 -0.1806513
v 0.08378544 -0.3128697 0.1806513
v -0.08378544 -0.3128697 0.1806513
v 0.08378544 -0.1806513 0.3128697
v -0.08378544 -0.1806513 0.3128697
v -0.08378544 -0.1806513 0.3128697
v -0.08378544 0.0003535151 0.3616562
v 0.08378544 0.0003535151 0.3616562
v 0.08378544 -0.1806513 0.3128697
v 0.08378544 0.1806513 0.3128697
v -0.08378544 0.1806513 0.3128697
v 0.08378544 0.3128697 0.1806513
v -0.08378544 0.3128697 0.1806513
v -0.08378544 0.3128697 0.1806513
v -0.08378544 0.3616562 0.0003535151
v 0.08378544 0.3616562 0.0003535151
v 0.08378544 0.3128697 0.1806513
v 0.08378544 0.3128697 -0.1806513
v -0.08378544 0.3128697 -0.1806513
v 0.08378544 0.3128697 -0.1806513
v 0.08378544 0.1806513 -0.3128697
v 0.08378544 0.0003535151 0.0003535151
v 0.08378544 0.0003535151 -0.3616562
v 0.08378544 -0.1806513 -0.3128697
v 0.08378544 -0.3128697 -0.1806513
v 0.08378544 -0.3616562 0.0003535151
v 0.08378544 -0.3128697 0.1806513
v 0.08378544 -0.1806513 0.3128697
v 0.08378544 0.0003535151 0.3616562
v 0.08378544 0.1806513 0.3128697
v 0.08378544 0.3128697 0.1806513
v 0.08378544 0.3616562 0.0003535151
v -0.08378544 0.1806513 -0.3128697
v -0.08378544 0.3128697 -0.1806513
v -0.08378544 0.0003535151 -0.3616562
v -0.08378544 -0.1806513 -0.3128697
v -0.08378544 -0.3128697 -0.1806513
v -0.08378544 -0.3616562 0.0003535151
v -0.08378544 -0.3128697 0.1806513
v -0.08378544 -0.1806513 0.3128697
v -0.08378544 0.0003535151 0.3616562
v -0.08378544 0.1806513 0.3128697
v -0.08378544 0.3128697 0.1806513
v -0.08378544 0.3616562 0.0003535151
vt 0.6514809 0.9665794
vt 0.6738284 0.9665794
vt 0.6738284 0.9688141
vt 0.6514809 0.9688141
vt 0.6984105 0.9688141
vt 0.6984105 0.9665794
vt 0.7207579 0.9688141
vt 0.7207579 0.9665794
vt 0.7431053 0.9688141
vt 0.7431053 0.9665794
vt 0.7341664 0.9688141
vt 0.7118189 0.9688141
vt 0.7118189 0.9643446
vt 0.7341664 0.9643446
vt 0.6894715 0.9643446
vt 0.6894715 0.9688141
vt 0.6671242 0.9643446
vt 0.6671242 0.9688141
vt 0.7296969 0.9688141
vt 0.7073494 0.9688141
vt 0.7073494 0.9665794
vt 0.7296969 0.9665794
vt 0.685002 0.9665794
vt 0.685002 0.9688141
vt 0.6626546 0.9665794
vt 0.6626546 0.9688141
vt 0.6805326 0.9665794
vt 0.70288 0.9665794
vt 0.70288 0.9688141
vt 0.6805326 0.9688141
vt 0.7274621 0.9688141
vt 0.7274621 0.9665794
vt 0.4950491 0.7833307
vt 0.5419786 0.7967391
vt 0.4950491 0.8771898
vt 0.5754998 0.8302602
vt 0.5889082 0.8771898
vt 0.5754998 0.9241194
vt 0.5419786 0.9576404
vt 0.4950491 0.9710488
vt 0.4481195 0.9576404
vt 0.4145984 0.9241194
vt 0.40119 0.8771898
vt 0.4145984 0.8302602
vt 0.4481195 0.7967391
vt 0.5442134 0.9576404
vt 0.5777345 0.9241194
vt 0.4972838 0.9710488
vt 0.4503542 0.9576404
vt 0.4145984 0.9241194
vt 0.40119 0.8771898
vt 0.4145984 0.8280255
vt 0.4503542 0.7945043
vt 0.4972838 0.7810959
vt 0.5442134 0.7945043
vt 0.5777345 0.8280255
vt 0.5911429 0.8771898
vn -0.01587105 0.8729059 -0.4876305
vn -0.01587105 0.4920015 -0.8704497
vn -0.01587105 0.4920015 -0.8704497
vn -0.01587105 0.8729059 -0.4876305
vn -0.01587105 0.01587105 -0.9997481
vn -0.01587105 0.01587105 -0.9997481
vn -0.01587105 -0.4920015 -0.8704497
vn -0.01587105 -0.4920015 -0.8704497
vn -0.01587105 -0.8729059 -0.4876305
vn -0.01587105 -0.8729059 -0.4876305
vn -0.01587105 -0.8729059 -0.4876305
vn -0.01587105 -0.999874 -0.000345267
vn -0.01587105 -0.999874 -0.000345267
vn -0.01587105 -0.8729059 -0.4876305
vn -0.01587105 -0.8729059 0.4876305
vn -0.01587105 -0.8729059 0.4876305
vn -0.01587105 -0.4920015 0.8704497
vn -0.01587105 -0.4920015 0.8704497
vn -0.01587105 -0.4920015 0.8704497
vn -0.01587105 0.01587105 0.9997481
vn -0.01587105 0.01587105 0.9997481
vn -0.01587105 -0.4920015 0.8704497
vn -0.01587105 0.4920015 0.8704497
vn -0.01587105 0.4920015 0.8704497
vn -0.01587105 0.8729059 0.4876305
vn -0.01587105 0.8729059 0.4876305
vn -0.01587105 0.8729059 0.4876305
vn -0.01587105 0.999874 -0.000345267
vn -0.01587105 0.999874 -0.000345267
vn -0.01587105 0.8729059 0.4876305
vn -0.01587105 0.8729059 -0.4876305
vn -0.01587105 0.8729059 -0.4876305
vn 0.999874 0.01587105 -0.0003439156
vn 0.999874 0.01587105 -0.0003439156
vn 0.999874 0.01587105 -0.0003439156
vn 0.999874 0.01587105 -0.0003439156
vn 0.999874 0.01587105 -0.0003439156
vn 0.999874 0.01587105 -0.0003439156
vn 0.999874 0.01587105 -0.0003439156
vn 0.999874 0.01587105 -0.0003439156
vn 0.999874 0.01587105 -0.0003439156
vn 0.999874 0.01587105 -0.0003439156
vn 0.999874 0.01587105 -0.0003439156
vn 0.999874 0.01587105 -0.0003439156
vn 0.999874 0.01587105 -0.0003439156
vn -0.999874 0.01587105 -0.0003439156
vn -0.999874 0.01587105 -0.0003439156
vn -0.999874 0.01587105 -0.0003439156
vn -0.999874 0.01587105 -0.0003439156
vn -0.999874 0.01587105 -0.0003439156
vn -0.999874 0.01587105 -0.0003439156
vn -0.999874 0.01587105 -0.0003439156
vn -0.999874 0.01587105 -0.0003439156
vn -0.999874 0.01587105 -0.0003439156
vn -0.999874 0.01587105 -0.0003439156
vn -0.999874 0.01587105 -0.0003439156
vn -0.999874 0.01587105 -0.0003439156
f 3/3/3 2/2/2 1/1/1
f 4/4/4 3/3/3 1/1/1
f 3/3/3 5/5/5 2/2/2
f 5/5/5 6/6/6 2/2/2
f 5/5/5 7/7/7 6/6/6
f 7/7/7 8/8/8 6/6/6
f 7/7/7 9/9/9 8/8/8
f 9/9/9 10/10/10 8/8/8
f 13/13/13 12/12/12 11/11/11
f 14/14/14 13/13/13 11/11/11
f 13/13/13 15/15/15 12/12/12
f 15/15/15 16/16/16 12/12/12
f 15/15/15 17/17/17 16/16/16
f 17/17/17 18/18/18 16/16/16
f 21/21/21 20/20/20 19/19/19
f 22/22/22 21/21/21 19/19/19
f 21/21/21 23/23/23 20/20/20
f 23/23/23 24/24/24 20/20/20
f 23/23/23 25/25/25 24/24/24
f 25/25/25 26/26/26 24/24/24
f 29/29/29 28/28/28 27/27/27
f 30/30/30 29/29/29 27/27/27
f 29/29/29 31/31/31 28/28/28
f 31/31/31 32/32/32 28/28/28
f 35/35/35 34/34/34 33/33/33
f 35/35/35 36/36/36 34/34/34
f 35/35/35 37/37/37 36/36/36
f 35/35/35 38/38/38 37/37/37
f 35/35/35 39/39/39 38/38/38
f 35/35/35 40/40/40 39/39/39
f 35/35/35 41/41/41 40/40/40
f 35/35/35 42/42/42 41/41/41
f 35/35/35 43/43/43 42/42/42
f 35/35/35 44/44/44 43/43/43
f 35/35/35 45/45/45 44/44/44
f 35/35/35 33/33/33 45/45/45
f 48/48/48 47/47/47 46/46/46
f 49/49/49 47/47/47 48/48/48
f 50/50/50 47/47/47 49/49/49
f 51/51/51 47/47/47 50/50/50
f 52/52/52 47/47/47 51/51/51
f 53/53/53 47/47/47 52/52/52
f 54/54/54 47/47/47 53/53/53
f 55/55/55 47/47/47 54/54/54
f 56/56/56 47/47/47 55/55/55
f 57/57/57 47/47/47 56/56/56
