g truck_rl_wheel
v 0.1278584 0.477446 -0.2756778
v -0.1278584 0.477446 -0.2756778
v -0.1278584 0.2756778 -0.4774459
v 0.1278584 0.2756778 -0.4774459
v -0.1278584 0.0005394816 -0.5518951
v 0.1278584 0.0005394816 -0.5518951
v -0.1278584 -0.2756778 -0.4774459
v 0.1278584 -0.2756778 -0.4774459
v -0.1278584 -0.4774459 -0.2756778
v 0.1278584 -0.4774459 -0.2756778
v -0.1278584 -0.5518951 0.0005394816
v 0.1278584 -0.5518951 0.0005394816
v -0.1278584 -0.4774459 0.2756778
v 0.1278584 -0.4774459 0.2756778
v -0.1278584 -0.2756778 0.477446
v 0.1278584 -0.2756778 0.477446
v -0.1278584 0.0005394816 0.5518951
v 0.1278584 0.0005394816 0.5518951
v -0.1278584 0.2756778 0.477446
v 0.1278584 0.2756778 0.477446
v -0.1278584 0.477446 0.2756778
v 0.1278584 0.477446 0.2756778
v -0.1278584 0.5518951 0.0005394816
v 0.1278584 0.5518951 0.0005394816
v -0.1278584 0.477446 -0.2756778
v 0.1278584 0.477446 -0.2756778
v -0.1278584 0.477446 -0.2756778
v -0.1278584 0.0005394816 0.0005394816
v -0.1278584 0.2756778 -0.4774459
v -0.1278584 0.0005394816 -0.5518951
v -0.1278584 -0.2756778 -0.4774459
v -0.1278584 -0.4774459 -0.2756778
v -0.1278584 -0.5518951 0.0005394816
v -0.1278584 -0.4774459 0.2756778
v -0.1278584 -0.2756778 0.477446
v -0.1278584 0.0005394816 0.5518951
v -0.1278584 0.2756778 0.477446
v -0.1278584 0.477446 0.2756778
v -0.1278584 0.5518951 0.0005394816
v 0.1278584 0.477446 -0.2756778
v 0.1278584 0.2756778 -0.4774459
v 0.1278584 0.5518951 0.0005394816
v 0.1278584 0.0005394816 -0.5518951
v 0.1278584 -0.2756778 -0.4774459
v 0.1278584 -0.4774459 -0.2756778
v 0.1278584 -0.5518951 0.0005394816
v 0.1278584 -0.4774459 0.2756778
v 0.1278584 -0.2756778 0.477446
v 0.1278584 0.0005394816 0.5518951
v 0.1278584 0.2756778 0.477446
v 0.1278584 0.477446 0.2756778
vt 0.3635006 0.9677814
vt 0.3635006 0.9898893
vt 0.3708699 0.9898893
vt 0.3708699 0.9677814
vt 0.3806956 0.9898893
vt 0.3806956 0.9677814
vt 0.3880649 0.9898893
vt 0.3880649 0.9677814
vt 0.3978906 0.9898893
vt 0.3978906 0.9677814
vt 0.4052598 0.9898893
vt 0.4052598 0.9677814
vt 0.4150856 0.9898893
vt 0.4150856 0.9677814
vt 0.4224548 0.9898893
vt 0.4224548 0.9677814
vt 0.4322805 0.9898893
vt 0.4322805 0.9677814
vt 0.4396498 0.9898893
vt 0.4396498 0.9677814
vt 0.4494755 0.9898893
vt 0.4494755 0.9677814
vt 0.4568448 0.9898893
vt 0.4568448 0.9677814
vt 0.4666705 0.9898893
vt 0.4666705 0.9677814
vt 0.532994 0.6459896
vt 0.532994 0.7221388
vt 0.5722969 0.6558153
vt 0.5993175 0.6828361
vt 0.6091432 0.7221388
vt 0.5993175 0.7614416
vt 0.5722969 0.7884623
vt 0.532994 0.8007445
vt 0.4936912 0.7884623
vt 0.4666705 0.7614416
vt 0.4543884 0.7221388
vt 0.4666705 0.6828361
vt 0.4936912 0.6558153
vt 0.4961476 0.7909188
vt 0.4666705 0.7638981
vt 0.5354505 0.8007445
vt 0.4568448 0.7245952
vt 0.4666705 0.6852925
vt 0.4961476 0.6582717
vt 0.5354505 0.6459896
vt 0.5722969 0.6582717
vt 0.6017739 0.6852925
vt 0.6115996 0.7245952
vt 0.6017739 0.7638981
vt 0.5722969 0.7909188
vn -0.01587105 0.8729059 -0.4876305
vn -0.01587105 0.8729059 -0.4876305
vn -0.01587105 0.4920015 -0.8704497
vn -0.01587105 0.4920015 -0.8704497
vn -0.01587105 0.01587105 -0.9997481
vn -0.01587105 0.01587105 -0.9997481
vn -0.01587105 -0.4920015 -0.8704497
vn -0.01587105 -0.4920015 -0.8704497
vn -0.01587105 -0.8729059 -0.4876305
vn -0.01587105 -0.8729059 -0.4876305
vn -0.01587105 -0.999874 -0.000345267
vn -0.01587105 -0.999874 -0.000345267
vn -0.01587105 -0.8729059 0.4876305
vn -0.01587105 -0.8729059 0.4876305
vn -0.01587105 -0.4920015 0.8704497
vn -0.01587105 -0.4920015 0.8704497
vn -0.01587105 0.01587105 0.9997481
vn -0.01587105 0.01587105 0.9997481
vn -0.01587105 0.4920015 0.8704497
vn -0.01587105 0.4920015 0.8704497
vn -0.01587105 0.8729059 0.4876305
vn -0.01587105 0.8729059 0.4876305
vn -0.01587105 0.999874 -0.000345267
vn -0.01587105 0.999874 -0.000345267
vn -0.01587105 0.8729059 -0.4876305
vn -0.01587105 0.8729059 -0.4876305
vn -0.999874 0.01587105 -0.0003439156
vn -0.999874 0.01587105 -0.0003439156
vn -0.999874 0.01587105 -0.0003439156
vn -0.999874 0.01587105 -0.0003439156
vn -0.999874 0.01587105 -0.0003439156
vn -0.999874 0.01587105 -0.0003439156
vn -0.999874 0.01587105 -0.0003439156
vn -0.999874 0.01587105 -0.0003439156
vn -0.999874 0.01587105 -0.0003439156
vn -0.999874 0.01587105 -0.0003439156
vn -0.999874 0.01587105 -0.0003439156
vn -0.999874 0.01587105 -0.0003439156
vn -0.999874 0.01587105 -0.0003439156
vn 0.999874 0.01587105 -0.0003439156
vn 0.999874 0.01587105 -0.0003439156
vn 0.999874 0.01587105 -0.0003439156
vn 0.999874 0.01587105 -0.0003439156
vn 0.999874 0.01587105 -0.0003439156
vn 0.999874 0.01587105 -0.0003439156
vn 0.999874 0.01587105 -0.0003439156
vn 0.999874 0.01587105 -0.0003439156
vn 0.999874 0.01587105 -0.0003439156
vn 0.999874 0.01587105 -0.0003439156
vn 0.999874 0.01587105 -0.0003439156
vn 0.999874 0.01587105 -0.0003439156
f 3/3/3 2/2/2 1/1/1
f 4/4/4 3/3/3 1/1/1
f 5/5/5 3/3/3 4/4/4
f 6/6/6 5/5/5 4/4/4
f 7/7/7 5/5/5 6/6/6
f 8/8/8 7/7/7 6/6/6
f 9/9/9 7/7/7 8/8/8
f 10/10/10 9/9/9 8/8/8
f 11/11/11 9/9/9 10/10/10
f 12/12/12 11/11/11 10/10/10
f 13/13/13 11/11/11 12/12/12
f 14/14/14 13/13/13 12/12/12
f 15/15/15 13/13/13 14/14/14
f 16/16/16 15/15/15 14/14/14
f 17/17/17 15/15/15 16/16/16
f 18/18/18 17/17/17 16/16/16
f 19/19/19 17/17/17 18/18/18
f 20/20/20 19/19/19 18/18/18
f 21/21/21 19/19/19 20/20/20
f 22/22/22 21/21/21 20/20/20
f 23/23/23 21/21/21 22/22/22
f 24/24/24 23/23/23 22/22/22
f 25/25/25 23/23/23 24/24/24
f 26/26/26 25/25/25 24/24/24
f 29/29/29 28/28/28 27/27/27
f 30/30/30 28/28/28 29/29/29
f 31/31/31 28/28/28 30/30/30
f 32/32/32 28/28/28 31/31/31
f 33/33/33 28/28/28 32/32/32
f 34/34/34 28/28/28 33/33/33
f 35/35/35 28/28/28 34/34/34
f 36/36/36 28/28/28 35/35/35
f 37/37/37 28/28/28 36/36/36
f 38/38/38 28/28/28 37/37/37
f 39/39/39 28/28/28 38/38/38
f 27/27/27 28/28/28 39/39/39
f 42/42/42 41/41/41 40/40/40
f 42/42/42 43/43/43 41/41/41
f 42/42/42 44/44/44 43/43/43
f 42/42/42 45/45/45 44/44/44
f 42/42/42 46/46/46 45/45/45
f 42/42/42 47/47/47 46/46/46
f 42/42/42 48/48/48 47/47/47
f 42/42/42 49/49/49 48/48/48
f 42/42/42 50/50/50 49/49/49
f 42/42/42 51/51/51 50/50/50
