g truck_rr02_wheel
v -0.1278584 0.477446 -0.2756778
v -0.1278584 0.2756778 -0.4774459
v 0.1278584 0.2756778 -0.4774459
v 0.1278584 0.477446 -0.2756778
v 0.1278584 0.0005394816 -0.5518951
v -0.1278584 0.0005394816 -0.5518951
v 0.1278584 -0.2756778 -0.4774459
v -0.1278584 -0.2756778 -0.4774459
v 0.1278584 -0.4774459 -0.2756778
v -0.1278584 -0.4774459 -0.2756778
v 0.1278584 -0.5518951 0.0005394816
v -0.1278584 -0.5518951 0.0005394816
v 0.1278584 -0.4774459 0.2756778
v -0.1278584 -0.4774459 0.2756778
v 0.1278584 -0.2756778 0.477446
v -0.1278584 -0.2756778 0.477446
v 0.1278584 0.0005394816 0.5518951
v -0.1278584 0.0005394816 0.5518951
v 0.1278584 0.2756778 0.477446
v -0.1278584 0.2756778 0.477446
v 0.1278584 0.477446 0.2756778
v -0.1278584 0.477446 0.2756778
v 0.1278584 0.5518951 0.0005394816
v -0.1278584 0.5518951 0.0005394816
v 0.1278584 0.477446 -0.2756778
v -0.1278584 0.477446 -0.2756778
v 0.1278584 0.477446 -0.2756778
v 0.1278584 0.2756778 -0.4774459
v 0.1278584 0.0005394816 0.0005394816
v 0.1278584 0.0005394816 -0.5518951
v 0.1278584 -0.2756778 -0.4774459
v 0.1278584 -0.4774459 -0.2756778
v 0.1278584 -0.5518951 0.0005394816
v 0.1278584 -0.4774459 0.2756778
v 0.1278584 -0.2756778 0.477446
v 0.1278584 0.0005394816 0.5518951
v 0.1278584 0.2756778 0.477446
v 0.1278584 0.477446 0.2756778
v 0.1278584 0.5518951 0.0005394816
v -0.1278584 0.477446 -0.2756778
v -0.1278584 0.5518951 0.0005394816
v -0.1278584 0.2756778 -0.4774459
v -0.1278584 0.0005394816 -0.5518951
v -0.1278584 -0.2756778 -0.4774459
v -0.1278584 -0.4774459 -0.2756778
v -0.1278584 -0.5518951 0.0005394816
v -0.1278584 -0.4774459 0.2756778
v -0.1278584 -0.2756778 0.477446
v -0.1278584 0.0005394816 0.5518951
v -0.1278584 0.2756778 0.477446
v -0.1278584 0.477446 0.2756778
vt 0.3635006 0.9677814
vt 0.3708699 0.9677814
vt 0.3708699 0.9898893
vt 0.3635006 0.9898893
vt 0.3806956 0.9898893
vt 0.3806956 0.9677814
vt 0.3880649 0.9898893
vt 0.3880649 0.9677814
vt 0.3978906 0.9898893
vt 0.3978906 0.9677814
vt 0.4052598 0.9898893
vt 0.4052598 0.9677814
vt 0.4150856 0.9898893
vt 0.4150856 0.9677814
vt 0.4224548 0.9898893
vt 0.4224548 0.9677814
vt 0.4322805 0.9898893
vt 0.4322805 0.9677814
vt 0.4396498 0.9898893
vt 0.4396498 0.9677814
vt 0.4494755 0.9898893
vt 0.4494755 0.9677814
vt 0.4568448 0.9898893
vt 0.4568448 0.9677814
vt 0.4666705 0.9898893
vt 0.4666705 0.9677814
vt 0.532994 0.6459896
vt 0.5722969 0.6558153
vt 0.532994 0.7221388
vt 0.5993175 0.6828361
vt 0.6091432 0.7221388
vt 0.5993175 0.7614416
vt 0.5722969 0.7884623
vt 0.532994 0.8007445
vt 0.4936912 0.7884623
vt 0.4666705 0.7614416
vt 0.4543884 0.7221388
vt 0.4666705 0.6828361
vt 0.4936912 0.6558153
vt 0.6017739 0.7614416
vt 0.6140561 0.7221388
vt 0.5747533 0.7884623
vt 0.5354505 0.8007445
vt 0.4961476 0.7884623
vt 0.4691269 0.7614416
vt 0.4593012 0.7221388
vt 0.4691269 0.6828361
vt 0.4961476 0.6558153
vt 0.5354505 0.6459896
vt 0.5747533 0.6558153
vt 0.6017739 0.6828361
vn -0.01587105 0.8729059 -0.4876305
vn -0.01587105 0.4920015 -0.8704497
vn -0.01587105 0.4920015 -0.8704497
vn -0.01587105 0.8729059 -0.4876305
vn -0.01587105 0.01587105 -0.9997481
vn -0.01587105 0.01587105 -0.9997481
vn -0.01587105 -0.4920015 -0.8704497
vn -0.01587105 -0.4920015 -0.8704497
vn -0.01587105 -0.8729059 -0.4876305
vn -0.01587105 -0.8729059 -0.4876305
vn -0.01587105 -0.999874 -0.000345267
vn -0.01587105 -0.999874 -0.000345267
vn -0.01587105 -0.8729059 0.4876305
vn -0.01587105 -0.8729059 0.4876305
vn -0.01587105 -0.4920015 0.8704497
vn -0.01587105 -0.4920015 0.8704497
vn -0.01587105 0.01587105 0.9997481
vn -0.01587105 0.01587105 0.9997481
vn -0.01587105 0.4920015 0.8704497
vn -0.01587105 0.4920015 0.8704497
vn -0.01587105 0.8729059 0.4876305
vn -0.01587105 0.8729059 0.4876305
vn -0.01587105 0.999874 -0.000345267
vn -0.01587105 0.999874 -0.000345267
vn -0.01587105 0.8729059 -0.4876305
vn -0.01587105 0.8729059 -0.4876305
vn 0.999874 0.01587105 -0.0003439156
vn 0.999874 0.01587105 -0.0003439156
vn 0.999874 0.01587105 -0.0003439156
vn 0.999874 0.01587105 -0.0003439156
vn 0.999874 0.01587105 -0.0003439156
vn 0.999874 0.01587105 -0.0003439156
vn 0.999874 0.01587105 -0.0003439156
vn 0.999874 0.01587105 -0.0003439156
vn 0.999874 0.01587105 -0.0003439156
vn 0.999874 0.01587105 -0.0003439156
vn 0.999874 0.01587105 -0.0003439156
vn 0.999874 0.01587105 -0.0003439156
vn 0.999874 0.01587105 -0.0003439156
vn -0.999874 0.01587105 -0.0003439156
vn -0.999874 0.01587105 -0.0003439156
vn -0.999874 0.01587105 -0.0003439156
vn -0.999874 0.01587105 -0.0003439156
vn -0.999874 0.01587105 -0.0003439156
vn -0.999874 0.01587105 -0.0003439156
vn -0.999874 0.01587105 -0.0003439156
vn -0.999874 0.01587105 -0.0003439156
vn -0.999874 0.01587105 -0.0003439156
vn -0.999874 0.01587105 -0.0003439156
vn -0.999874 0.01587105 -0.0003439156
vn -0.999874 0.01587105 -0.0003439156
f 3/3/3 2/2/2 1/1/1
f 4/4/4 3/3/3 1/1/1
f 3/3/3 5/5/5 2/2/2
f 5/5/5 6/6/6 2/2/2
f 5/5/5 7/7/7 6/6/6
f 7/7/7 8/8/8 6/6/6
f 7/7/7 9/9/9 8/8/8
f 9/9/9 10/10/10 8/8/8
f 9/9/9 11/11/11 10/10/10
f 11/11/11 12/12/12 10/10/10
f 11/11/11 13/13/13 12/12/12
f 13/13/13 14/14/14 12/12/12
f 13/13/13 15/15/15 14/14/14
f 15/15/15 16/16/16 14/14/14
f 15/15/15 17/17/17 16/16/16
f 17/17/17 18/18/18 16/16/16
f 17/17/17 19/19/19 18/18/18
f 19/19/19 20/20/20 18/18/18
f 19/19/19 21/21/21 20/20/20
f 21/21/21 22/22/22 20/20/20
f 21/21/21 23/23/23 22/22/22
f 23/23/23 24/24/24 22/22/22
f 23/23/23 25/25/25 24/24/24
f 25/25/25 26/26/26 24/24/24
f 29/29/29 28/28/28 27/27/27
f 29/29/29 30/30/30 28/28/28
f 29/29/29 31/31/31 30/30/30
f 29/29/29 32/32/32 31/31/31
f 29/29/29 33/33/33 32/32/32
f 29/29/29 34/34/34 33/33/33
f 29/29/29 35/35/35 34/34/34
f 29/29/29 36/36/36 35/35/35
f 29/29/29 37/37/37 36/36/36
f 29/29/29 38/38/38 37/37/37
f 29/29/29 39/39/39 38/38/38
f 29/29/29 27/27/27 39/39/39
f 42/42/42 41/41/41 40/40/40
f 43/43/43 41/41/41 42/42/42
f 44/44/44 41/41/41 43/43/43
f 45/45/45 41/41/41 44/44/44
f 46/46/46 41/41/41 45/45/45
f 47/47/47 41/41/41 46/46/46
f 48/48/48 41/41/41 47/47/47
f 49/49/49 41/41/41 48/48/48
f 50/50/50 41/41/41 49/49/49
f 51/51/51 41/41/41 50/50/50
