g ute_fl_wheel_mesh
v 0.1163095 0.312869 -0.1806509
v -0.1163095 0.312869 -0.1806509
v -0.1163095 0.1806509 -0.312869
v 0.1163095 0.1806509 -0.312869
v 0.1163095 0.1806509 -0.312869
v -0.1163095 0.1806509 -0.312869
v -0.1163095 0.0003535151 -0.3616554
v 0.1163095 0.0003535151 -0.3616554
v 0.1163095 0.0003535151 -0.3616554
v -0.1163095 0.0003535151 -0.3616554
v -0.1163095 -0.1806509 -0.312869
v 0.1163095 -0.1806509 -0.312869
v 0.1163095 -0.1806509 -0.312869
v -0.1163095 -0.1806509 -0.312869
v -0.1163095 -0.312869 -0.1806509
v 0.1163095 -0.312869 -0.1806509
v 0.1163095 -0.312869 -0.1806509
v -0.1163095 -0.312869 -0.1806509
v -0.1163095 -0.3616554 0.0003535151
v 0.1163095 -0.3616554 0.0003535151
v 0.1163095 -0.3616554 0.0003535151
v -0.1163095 -0.3616554 0.0003535151
v -0.1163095 -0.312869 0.1806509
v 0.1163095 -0.312869 0.1806509
v 0.1163095 -0.312869 0.1806509
v -0.1163095 -0.312869 0.1806509
v -0.1163095 -0.1806509 0.312869
v 0.1163095 -0.1806509 0.312869
v 0.1163095 -0.1806509 0.312869
v -0.1163095 -0.1806509 0.312869
v -0.1163095 0.0003535151 0.3616554
v 0.1163095 0.0003535151 0.3616554
v 0.1163095 0.0003535151 0.3616554
v -0.1163095 0.0003535151 0.3616554
v -0.1163095 0.1806509 0.312869
v 0.1163095 0.1806509 0.312869
v 0.1163095 0.1806509 0.312869
v -0.1163095 0.1806509 0.312869
v -0.1163095 0.312869 0.1806509
v 0.1163095 0.312869 0.1806509
v 0.1163095 0.312869 0.1806509
v -0.1163095 0.312869 0.1806509
v -0.1163095 0.3616554 0.0003535151
v 0.1163095 0.3616554 0.0003535151
v 0.1163095 0.3616554 0.0003535151
v -0.1163095 0.3616554 0.0003535151
v -0.1163095 0.312869 -0.1806509
v 0.1163095 0.312869 -0.1806509
v -0.1163095 0.312869 -0.1806509
v -0.1163095 0.0003535151 0.0003535151
v -0.1163095 0.1806509 -0.312869
v -0.1163095 0.0003535151 -0.3616554
v -0.1163095 -0.1806509 -0.312869
v -0.1163095 -0.312869 -0.1806509
v -0.1163095 -0.3616554 0.0003535151
v -0.1163095 -0.312869 0.1806509
v -0.1163095 -0.1806509 0.312869
v -0.1163095 0.0003535151 0.3616554
v -0.1163095 0.1806509 0.312869
v -0.1163095 0.312869 0.1806509
v -0.1163095 0.3616554 0.0003535151
v 0.1163095 0.312869 -0.1806509
v 0.1163095 0.1806509 -0.312869
v 0.1163095 0.3616554 0.0003535151
v 0.1163095 0.0003535151 -0.3616554
v 0.1163095 0.3616554 0.0003535151
v 0.1163095 -0.1806509 -0.312869
v 0.1163095 0.3616554 0.0003535151
v 0.1163095 -0.312869 -0.1806509
v 0.1163095 -0.1806509 0.312869
v 0.1163095 0.0003535151 0.3616554
v 0.1163095 0.1806509 0.312869
v 0.1163095 -0.312869 -0.1806509
v 0.1163095 -0.3616554 0.0003535151
v 0.1163095 0.3616554 0.0003535151
v 0.1163095 -0.312869 0.1806509
v 0.1163095 0.3616554 0.0003535151
v 0.1163095 0.1806509 0.312869
v 0.1163095 0.312869 0.1806509
v 0.1163095 -0.312869 0.1806509
v 0.1163095 -0.1806509 0.312869
v 0.1163095 0.3616554 0.0003535151
vt 0.321008 0.9602773
vt 0.321008 0.9731141
vt 0.3338447 0.9731141
vt 0.3338447 0.9602773
vt 0.3338447 0.9602773
vt 0.3338447 0.9731141
vt 0.3466815 0.9731141
vt 0.3466815 0.9602773
vt 0.3466815 0.9602773
vt 0.3466815 0.9731141
vt 0.3569508 0.9731141
vt 0.3569508 0.9602773
vt 0.3569508 0.9602773
vt 0.3569508 0.9731141
vt 0.3697876 0.9731141
vt 0.3697876 0.9602773
vt 0.3646529 0.9679794
vt 0.3646529 0.95771
vt 0.3543835 0.95771
vt 0.3543835 0.9679794
vt 0.3543835 0.9679794
vt 0.3543835 0.95771
vt 0.3415468 0.95771
vt 0.3415468 0.9679794
vt 0.3415468 0.9679794
vt 0.3415468 0.95771
vt 0.32871 0.95771
vt 0.32871 0.9679794
vt 0.3620856 0.9731141
vt 0.3620856 0.9602773
vt 0.3518161 0.9602773
vt 0.3518161 0.9731141
vt 0.3518161 0.9731141
vt 0.3518161 0.9602773
vt 0.3389794 0.9602773
vt 0.3389794 0.9731141
vt 0.3389794 0.9731141
vt 0.3389794 0.9602773
vt 0.3261427 0.9602773
vt 0.3261427 0.9731141
vt 0.3364121 0.9628447
vt 0.3364121 0.9731141
vt 0.3492488 0.9731141
vt 0.3492488 0.9628447
vt 0.3492488 0.9628447
vt 0.3492488 0.9731141
vt 0.3620856 0.9731141
vt 0.3620856 0.9628447
vt 0.4955876 0.7882651
vt 0.4955876 0.8832569
vt 0.5443672 0.8011019
vt 0.5777427 0.8344774
vt 0.5905794 0.8832569
vt 0.5777427 0.9294692
vt 0.5443672 0.9628447
vt 0.4955876 0.9756814
vt 0.4493753 0.9628447
vt 0.4159998 0.9294692
vt 0.4031631 0.8832569
vt 0.4159998 0.8344774
vt 0.4493753 0.8011019
vt 0.321008 0.9602773
vt 0.3338447 0.9602773
vt 0.3492488 0.9628447
vt 0.3466815 0.9602773
vt 0.3492488 0.9628447
vt 0.3569508 0.9602773
vt 0.3492488 0.9628447
vt 0.3646529 0.9679794
vt 0.3620856 0.9731141
vt 0.3518161 0.9731141
vt 0.3389794 0.9731141
vt 0.3646529 0.9679794
vt 0.3543835 0.9679794
vt 0.3492488 0.9628447
vt 0.3415468 0.9679794
vt 0.3492488 0.9628447
vt 0.3389794 0.9731141
vt 0.3364121 0.9628447
vt 0.3415468 0.9679794
vt 0.3620856 0.9731141
vt 0.3492488 0.9628447
vn -0.01587105 0.7141957 -0.6997661
vn -0.01587105 0.7141957 -0.6997661
vn -0.01587105 0.7141957 -0.6997661
vn -0.01587105 0.7141957 -0.6997661
vn -0.01587105 0.2698073 -0.9627835
vn -0.01587105 0.2698073 -0.9627835
vn -0.01587105 0.2698073 -0.9627835
vn -0.01587105 0.2698073 -0.9627835
vn -0.01587105 -0.2698073 -0.9627835
vn -0.01587105 -0.2698073 -0.9627835
vn -0.01587105 -0.2698073 -0.9627835
vn -0.01587105 -0.2698073 -0.9627835
vn -0.01587105 -0.7141957 -0.6997661
vn -0.01587105 -0.7141957 -0.6997661
vn -0.01587105 -0.7141957 -0.6997661
vn -0.01587105 -0.7141957 -0.6997661
vn -0.01587105 -0.968132 -0.2499373
vn -0.01587105 -0.968132 -0.2499373
vn -0.01587105 -0.968132 -0.2499373
vn -0.01587105 -0.968132 -0.2499373
vn -0.01587105 -0.968132 0.2499373
vn -0.01587105 -0.968132 0.2499373
vn -0.01587105 -0.968132 0.2499373
vn -0.01587105 -0.968132 0.2499373
vn -0.01587105 -0.7141957 0.6997661
vn -0.01587105 -0.7141957 0.6997661
vn -0.01587105 -0.7141957 0.6997661
vn -0.01587105 -0.7141957 0.6997661
vn -0.01587105 -0.2698073 0.9627835
vn -0.01587105 -0.2698073 0.9627835
vn -0.01587105 -0.2698073 0.9627835
vn -0.01587105 -0.2698073 0.9627835
vn -0.01587105 0.2698073 0.9627835
vn -0.01587105 0.2698073 0.9627835
vn -0.01587105 0.2698073 0.9627835
vn -0.01587105 0.2698073 0.9627835
vn -0.01587105 0.7141957 0.6997661
vn -0.01587105 0.7141957 0.6997661
vn -0.01587105 0.7141957 0.6997661
vn -0.01587105 0.7141957 0.6997661
vn -0.01587105 0.968132 0.249937
vn -0.01587105 0.968132 0.249937
vn -0.01587105 0.968132 0.249937
vn -0.01587105 0.968132 0.249937
vn -0.01587105 0.968132 -0.249937
vn -0.01587105 0.968132 -0.249937
vn -0.01587105 0.968132 -0.249937
vn -0.01587105 0.968132 -0.249937
vn -0.999874 0.01587105 -0.0003439156
vn -0.999874 0.01587105 -0.0003439156
vn -0.999874 0.01587105 -0.0003439156
vn -0.999874 0.01587105 -0.0003439156
vn -0.999874 0.01587105 -0.0003439156
vn -0.999874 0.01587105 -0.0003439156
vn -0.999874 0.01587105 -0.0003439156
vn -0.999874 0.01587105 -0.0003439156
vn -0.999874 0.01587105 -0.0003439156
vn -0.999874 0.01587105 -0.0003439156
vn -0.999874 0.01587105 -0.0003439156
vn -0.999874 0.01587105 -0.0003439156
vn -0.999874 0.01587105 -0.0003439156
vn 0.999874 0.01587105 -0.0003439156
vn 0.999874 0.01587105 -0.0003439156
vn 0.999874 0.01587105 -0.0003439156
vn 0.999874 0.01587105 -0.0003439156
vn 0.999874 0.01587105 -0.0003439156
vn 0.999874 0.01587105 -0.0003439156
vn 0.999874 0.01587105 -0.0003439156
vn 0.999874 0.01587105 -0.0003439156
vn 0.999874 0.01587105 -0.0003439156
vn 0.999874 0.01587105 -0.0003439156
vn 0.999874 0.01587105 -0.0003439156
vn 0.999874 0.01587105 -0.0003439156
vn 0.999874 0.01587105 -0.0003439156
vn 0.999874 0.01587105 -0.0003439156
vn 0.999874 0.01587105 -0.0003439156
vn 0.999874 0.01587105 -0.0003439156
vn 0.999874 0.01587105 -0.0003439156
vn 0.999874 0.01587105 -0.0003439156
vn 0.999874 0.01587105 -0.0003439156
vn 0.999874 0.01587105 -0.0003439156
vn 0.999874 0.01587105 -0.0003439156
f 3/3/3 2/2/2 1/1/1
f 4/4/4 3/3/3 1/1/1
f 7/7/7 6/6/6 5/5/5
f 8/8/8 7/7/7 5/5/5
f 11/11/11 10/10/10 9/9/9
f 12/12/12 11/11/11 9/9/9
f 15/15/15 14/14/14 13/13/13
f 16/16/16 15/15/15 13/13/13
f 19/19/19 18/18/18 17/17/17
f 20/20/20 19/19/19 17/17/17
f 23/23/23 22/22/22 21/21/21
f 24/24/24 23/23/23 21/21/21
f 27/27/27 26/26/26 25/25/25
f 28/28/28 27/27/27 25/25/25
f 31/31/31 30/30/30 29/29/29
f 32/32/32 31/31/31 29/29/29
f 35/35/35 34/34/34 33/33/33
f 36/36/36 35/35/35 33/33/33
f 39/39/39 38/38/38 37/37/37
f 40/40/40 39/39/39 37/37/37
f 43/43/43 42/42/42 41/41/41
f 44/44/44 43/43/43 41/41/41
f 47/47/47 46/46/46 45/45/45
f 48/48/48 47/47/47 45/45/45
f 51/51/51 50/50/50 49/49/49
f 52/52/52 50/50/50 51/51/51
f 53/53/53 50/50/50 52/52/52
f 54/54/54 50/50/50 53/53/53
f 55/55/55 50/50/50 54/54/54
f 56/56/56 50/50/50 55/55/55
f 57/57/57 50/50/50 56/56/56
f 58/58/58 50/50/50 57/57/57
f 59/59/59 50/50/50 58/58/58
f 60/60/60 50/50/50 59/59/59
f 61/61/61 50/50/50 60/60/60
f 49/49/49 50/50/50 61/61/61
f 64/64/64 63/63/63 62/62/62
f 66/66/66 65/65/65 63/63/63
f 68/68/68 67/67/67 65/65/65
f 64/64/64 69/69/69 67/67/67
f 66/66/66 71/71/71 70/70/70
f 68/68/68 72/72/72 71/71/71
f 75/75/75 74/74/74 73/73/73
f 77/77/77 76/76/76 74/74/74
f 75/75/75 79/79/79 78/78/78
f 82/82/82 81/81/81 80/80/80
