g van_rr_wheel_mesh
v 0.1184678 0.3129673 -0.1807077
v -0.1184679 0.3129673 -0.1807077
v -0.1184679 0.1807076 -0.3129673
v 0.1184678 0.1807076 -0.3129673
v 0.1184678 0.1807076 -0.3129673
v -0.1184679 0.1807076 -0.3129673
v -0.1184679 0.0003536344 -0.361769
v 0.1184678 0.0003536344 -0.361769
v 0.1184678 0.0003536344 -0.361769
v -0.1184679 0.0003536344 -0.361769
v -0.1184679 -0.1807077 -0.3129673
v 0.1184678 -0.1807077 -0.3129673
v 0.1184678 -0.1807077 -0.3129673
v -0.1184679 -0.1807077 -0.3129673
v -0.1184679 -0.3129673 -0.1807077
v 0.1184678 -0.3129673 -0.1807077
v 0.1184678 -0.3129673 -0.1807077
v -0.1184679 -0.3129673 -0.1807077
v -0.1184679 -0.361769 -0.0003536344
v 0.1184678 -0.361769 -0.0003536344
v 0.1184678 -0.361769 -0.0003536344
v -0.1184679 -0.361769 -0.0003536344
v -0.1184679 -0.3129673 0.1807076
v 0.1184678 -0.3129673 0.1807076
v 0.1184678 -0.3129673 0.1807076
v -0.1184679 -0.3129673 0.1807076
v -0.1184679 -0.1807077 0.3129673
v 0.1184678 -0.1807077 0.3129673
v 0.1184678 -0.1807077 0.3129673
v -0.1184679 -0.1807077 0.3129673
v -0.1184679 0.0003536344 0.361769
v 0.1184678 0.0003536344 0.361769
v 0.1184678 0.0003536344 0.361769
v -0.1184679 0.0003536344 0.361769
v -0.1184679 0.1807076 0.3129673
v 0.1184678 0.1807076 0.3129673
v 0.1184678 0.1807076 0.3129673
v -0.1184679 0.1807076 0.3129673
v -0.1184679 0.3129673 0.1807076
v 0.1184678 0.3129673 0.1807076
v 0.1184678 0.3129673 0.1807076
v -0.1184679 0.3129673 0.1807076
v -0.1184679 0.361769 -0.0003536344
v 0.1184678 0.361769 -0.0003536344
v 0.1184678 0.361769 -0.0003536344
v -0.1184679 0.361769 -0.0003536344
v -0.1184679 0.3129673 -0.1807077
v 0.1184678 0.3129673 -0.1807077
v 0.1184678 0.1807076 -0.3129673
v 0.1184678 0.0003536344 -0.0003536344
v 0.1184678 0.3129673 -0.1807077
v 0.1184678 0.0003536344 -0.361769
v 0.1184678 -0.1807077 -0.3129673
v 0.1184678 -0.3129673 -0.1807077
v 0.1184678 -0.361769 -0.0003536344
v 0.1184678 -0.3129673 0.1807076
v 0.1184678 -0.1807077 0.3129673
v 0.1184678 0.0003536344 0.361769
v 0.1184678 0.1807076 0.3129673
v 0.1184678 0.3129673 0.1807076
v 0.1184678 0.361769 -0.0003536344
v -0.1184679 0.3129673 -0.1807077
v -0.1184679 0.361769 -0.0003536344
v -0.1184679 0.1807076 -0.3129673
v -0.1184679 0.361769 -0.0003536344
v -0.1184679 0.0003536344 -0.361769
v -0.1184679 0.361769 -0.0003536344
v -0.1184679 -0.1807077 -0.3129673
v -0.1184679 0.361769 -0.0003536344
v -0.1184679 -0.3129673 -0.1807077
v -0.1184679 -0.361769 -0.0003536344
v -0.1184679 0.1807076 0.3129673
v -0.1184679 0.3129673 0.1807076
v -0.1184679 -0.361769 -0.0003536344
v -0.1184679 0.361769 -0.0003536344
v -0.1184679 -0.3129673 0.1807076
v -0.1184679 -0.3129673 0.1807076
v -0.1184679 0.361769 -0.0003536344
v -0.1184679 -0.1807077 0.3129673
v -0.1184679 -0.1807077 0.3129673
v -0.1184679 0.361769 -0.0003536344
v -0.1184679 0.0003536344 0.361769
v -0.1184679 0.0003536344 0.361769
v -0.1184679 0.1807076 0.3129673
vt 0.8250017 0.6973926
vt 0.8250017 0.7124054
vt 0.8400146 0.7124054
vt 0.8400146 0.6973926
vt 0.8400146 0.6973926
vt 0.8400146 0.7124054
vt 0.8587806 0.7124054
vt 0.8587806 0.6973926
vt 0.8587806 0.6973926
vt 0.8587806 0.7124054
vt 0.8775467 0.7124054
vt 0.8775467 0.6973926
vt 0.8775467 0.6973926
vt 0.8775467 0.7124054
vt 0.8925595 0.7124054
vt 0.8925595 0.6973926
vt 0.8925595 0.6973926
vt 0.8925595 0.7124054
vt 0.9113256 0.7124054
vt 0.9113256 0.6973926
vt 0.9113256 0.6973926
vt 0.9113256 0.7124054
vt 0.9300916 0.7124054
vt 0.9300916 0.6973926
vt 0.8250017 0.6973926
vt 0.8250017 0.7124054
vt 0.8400146 0.7124054
vt 0.8400146 0.6973926
vt 0.8400146 0.6973926
vt 0.8400146 0.7124054
vt 0.8587806 0.7124054
vt 0.8587806 0.6973926
vt 0.8587806 0.6973926
vt 0.8587806 0.7124054
vt 0.8775467 0.7124054
vt 0.8775467 0.6973926
vt 0.8775467 0.6973926
vt 0.8775467 0.7124054
vt 0.8963127 0.7124054
vt 0.8963127 0.6973926
vt 0.8963127 0.6973926
vt 0.8963127 0.7124054
vt 0.9113256 0.7124054
vt 0.9113256 0.6973926
vt 0.9113256 0.6973926
vt 0.9113256 0.7124054
vt 0.9300916 0.7124054
vt 0.9300916 0.6973926
vt 0.5697834 0.6561072
vt 0.5322513 0.7236651
vt 0.5998091 0.6823797
vt 0.5322513 0.6448476
vt 0.490966 0.6561072
vt 0.4646935 0.6823797
vt 0.4534339 0.7236651
vt 0.4646935 0.7611971
vt 0.490966 0.7912228
vt 0.5322513 0.8024825
vt 0.5697834 0.7912228
vt 0.5998091 0.7611971
vt 0.6110687 0.7236651
vt 0.4872128 0.67112
vt 0.5735366 0.67112
vt 0.5022256 0.67112
vt 0.5735366 0.67112
vt 0.5209917 0.67112
vt 0.5735366 0.67112
vt 0.5397577 0.67112
vt 0.5735366 0.67112
vt 0.5585238 0.67112
vt 0.5735366 0.67112
vt 0.5397577 0.67112
vt 0.5585238 0.67112
vt 0.5735366 0.67112
vt 0.5735366 0.67112
vt 0.4872128 0.67112
vt 0.4872128 0.67112
vt 0.5735366 0.67112
vt 0.5022256 0.67112
vt 0.5022256 0.67112
vt 0.5735366 0.67112
vt 0.5209917 0.67112
vt 0.5209917 0.67112
vt 0.5397577 0.67112
vn -0.01587105 0.7141957 -0.6997661
vn -0.01587105 0.7141957 -0.6997661
vn -0.01587105 0.7141957 -0.6997661
vn -0.01587105 0.7141957 -0.6997661
vn -0.01587105 0.2698073 -0.9627835
vn -0.01587105 0.2698073 -0.9627835
vn -0.01587105 0.2698073 -0.9627835
vn -0.01587105 0.2698073 -0.9627835
vn -0.01587105 -0.2698073 -0.9627835
vn -0.01587105 -0.2698073 -0.9627835
vn -0.01587105 -0.2698073 -0.9627835
vn -0.01587105 -0.2698073 -0.9627835
vn -0.01587105 -0.7141957 -0.6997661
vn -0.01587105 -0.7141957 -0.6997661
vn -0.01587105 -0.7141957 -0.6997661
vn -0.01587105 -0.7141957 -0.6997661
vn -0.01587105 -0.968132 -0.2499373
vn -0.01587105 -0.968132 -0.2499373
vn -0.01587105 -0.968132 -0.2499373
vn -0.01587105 -0.968132 -0.2499373
vn -0.01587105 -0.968132 0.2499373
vn -0.01587105 -0.968132 0.2499373
vn -0.01587105 -0.968132 0.2499373
vn -0.01587105 -0.968132 0.2499373
vn -0.01587105 -0.7141957 0.6997661
vn -0.01587105 -0.7141957 0.6997661
vn -0.01587105 -0.7141957 0.6997661
vn -0.01587105 -0.7141957 0.6997661
vn -0.01587105 -0.2698073 0.9627835
vn -0.01587105 -0.2698073 0.9627835
vn -0.01587105 -0.2698073 0.9627835
vn -0.01587105 -0.2698073 0.9627835
vn -0.01587105 0.2698073 0.9627835
vn -0.01587105 0.2698073 0.9627835
vn -0.01587105 0.2698073 0.9627835
vn -0.01587105 0.2698073 0.9627835
vn -0.01587105 0.7141957 0.6997661
vn -0.01587105 0.7141957 0.6997661
vn -0.01587105 0.7141957 0.6997661
vn -0.01587105 0.7141957 0.6997661
vn -0.01587105 0.968132 0.249937
vn -0.01587105 0.968132 0.249937
vn -0.01587105 0.968132 0.249937
vn -0.01587105 0.968132 0.249937
vn -0.01587105 0.968132 -0.249937
vn -0.01587105 0.968132 -0.249937
vn -0.01587105 0.968132 -0.249937
vn -0.01587105 0.968132 -0.249937
vn 0.999874 0.01587105 -0.0003439156
vn 0.999874 0.01587105 -0.0003439156
vn 0.999874 0.01587105 -0.0003439156
vn 0.999874 0.01587105 -0.0003439156
vn 0.999874 0.01587105 -0.0003439156
vn 0.999874 0.01587105 -0.0003439156
vn 0.999874 0.01587105 -0.0003439156
vn 0.999874 0.01587105 -0.0003439156
vn 0.999874 0.01587105 -0.0003439156
vn 0.999874 0.01587105 -0.0003439156
vn 0.999874 0.01587105 -0.0003439156
vn 0.999874 0.01587105 -0.0003439156
vn 0.999874 0.01587105 -0.0003439156
vn -0.999874 0.01587105 -0.0003439156
vn -0.999874 0.01587105 -0.0003439156
vn -0.999874 0.01587105 -0.0003439156
vn -0.999874 0.01587105 -0.0003439156
vn -0.999874 0.01587105 -0.0003439156
vn -0.999874 0.01587105 -0.0003439156
vn -0.999874 0.01587105 -0.0003439156
vn -0.999874 0.01587105 -0.0003439156
vn -0.999874 0.01587105 -0.0003439156
vn -0.999874 0.01587105 -0.0003439156
vn -0.999874 0.01587105 -0.0003439156
vn -0.999874 0.01587105 -0.0003439156
vn -0.999874 0.01587105 -0.0003439156
vn -0.999874 0.01587105 -0.0003439156
vn -0.999874 0.01587105 -0.0003439156
vn -0.999874 0.01587105 -0.0003439156
vn -0.999874 0.01587105 -0.0003439156
vn -0.999874 0.01587105 -0.0003439156
vn -0.999874 0.01587105 -0.0003439156
vn -0.999874 0.01587105 -0.0003439156
vn -0.999874 0.01587105 -0.0003439156
vn -0.999874 0.01587105 -0.0003439156
vn -0.999874 0.01587105 -0.0003439156
f 3/3/3 2/2/2 1/1/1
f 4/4/4 3/3/3 1/1/1
f 7/7/7 6/6/6 5/5/5
f 8/8/8 7/7/7 5/5/5
f 11/11/11 10/10/10 9/9/9
f 12/12/12 11/11/11 9/9/9
f 15/15/15 14/14/14 13/13/13
f 16/16/16 15/15/15 13/13/13
f 19/19/19 18/18/18 17/17/17
f 20/20/20 19/19/19 17/17/17
f 23/23/23 22/22/22 21/21/21
f 24/24/24 23/23/23 21/21/21
f 27/27/27 26/26/26 25/25/25
f 28/28/28 27/27/27 25/25/25
f 31/31/31 30/30/30 29/29/29
f 32/32/32 31/31/31 29/29/29
f 35/35/35 34/34/34 33/33/33
f 36/36/36 35/35/35 33/33/33
f 39/39/39 38/38/38 37/37/37
f 40/40/40 39/39/39 37/37/37
f 43/43/43 42/42/42 41/41/41
f 44/44/44 43/43/43 41/41/41
f 47/47/47 46/46/46 45/45/45
f 48/48/48 47/47/47 45/45/45
f 51/51/51 50/50/50 49/49/49
f 49/49/49 50/50/50 52/52/52
f 52/52/52 50/50/50 53/53/53
f 53/53/53 50/50/50 54/54/54
f 54/54/54 50/50/50 55/55/55
f 55/55/55 50/50/50 56/56/56
f 56/56/56 50/50/50 57/57/57
f 57/57/57 50/50/50 58/58/58
f 58/58/58 50/50/50 59/59/59
f 59/59/59 50/50/50 60/60/60
f 60/60/60 50/50/50 61/61/61
f 61/61/61 50/50/50 51/51/51
f 64/64/64 63/63/63 62/62/62
f 66/66/66 65/65/65 64/64/64
f 68/68/68 67/67/67 66/66/66
f 70/70/70 69/69/69 68/68/68
f 71/71/71 69/69/69 70/70/70
f 73/73/73 63/63/63 72/72/72
f 76/76/76 75/75/75 74/74/74
f 79/79/79 78/78/78 77/77/77
f 82/82/82 81/81/81 80/80/80
f 84/84/84 81/81/81 83/83/83
