g VendingMachine_02
v -0.7604836 2.090073 -0.5161453
v 0.7614365 2.090073 -0.5161453
v 0.7614365 2.090073 0.5151924
v -0.7604836 2.090073 0.5151924
v -0.7604836 0.1165944 0.5151924
v 0.7614365 0.1165944 0.5151924
v 0.7614365 0.1165944 -0.5161453
v -0.7604836 0.1165944 -0.5161453
v -0.7604836 2.090073 0.5151924
v 0.7614365 2.090073 0.5151924
v 0.7614365 0.1165944 0.5151924
v -0.7604836 0.1165944 0.5151924
v 0.7614365 0.1165944 -0.5161453
v 0.7614365 2.090073 -0.5161453
v -0.7604836 2.090073 -0.5161453
v -0.7604836 0.1165944 -0.5161453
v -0.72146 0.1165944 -0.3990746
v -0.72146 0.1165944 0.3981217
v -0.72146 -0.0004764199 0.3981217
v -0.72146 -0.0004764199 -0.3990746
v 0.7196255 -0.0004764199 -0.3990746
v 0.7196255 -0.0004764199 0.3981217
v 0.7196255 0.1165944 0.3981217
v 0.7196255 0.1165944 -0.3990746
v -0.72146 -0.0004764199 0.3981217
v -0.72146 0.1165944 0.3981217
v 0.7196255 0.1165944 0.3981217
v 0.7196255 -0.0004764199 0.3981217
v 0.7196255 -0.0004764199 -0.3990746
v 0.7196255 0.1165944 -0.3990746
v -0.72146 0.1165944 -0.3990746
v -0.72146 -0.0004764199 -0.3990746
v 0.7614365 2.090073 0.5151924
v 0.7614365 2.090073 -0.5161453
v 0.7614365 0.1165944 -0.5161453
v 0.7614365 0.1165944 0.5151924
v -0.7604836 0.1165944 0.5151924
v -0.7604836 0.1165944 -0.5161453
v -0.7604836 2.090073 -0.5161453
v -0.7604836 2.090073 0.5151924
vt 0.5562949 0.1159357
vt 0.5411845 0.1159357
vt 0.5411845 0.269198
vt 0.5562949 0.269198
vt 0.2821497 0.2627221
vt 0.2821497 0.2584049
vt 0.2713566 0.2584049
vt 0.2713566 0.2627221
vt 0.1677427 0.06197008
vt 0.1677427 0.0641287
vt 0.1742185 0.0641287
vt 0.1742185 0.06197008
vt 0.005845862 0.01016311
vt 0.005845862 0.3814464
vt 0.3188463 0.3814464
vt 0.3188463 0.01016311
vt 0.2756739 0.2627221
vt 0.2756739 0.2670394
vt 0.2799911 0.2670394
vt 0.2799911 0.2627221
vt 0.2821497 0.2627221
vt 0.2821497 0.2670394
vt 0.2886256 0.2670394
vt 0.2886256 0.2627221
vt 0.269198 0.2713566
vt 0.2735152 0.2713566
vt 0.2735152 0.2627221
vt 0.269198 0.2627221
vt 0.2670394 0.2627221
vt 0.2627221 0.2627221
vt 0.2627221 0.2713566
vt 0.2670394 0.2713566
vt 0.3188463 0.3814464
vt 0.5239156 0.3814464
vt 0.5239156 0.01016311
vt 0.3188463 0.01016311
vt 0.5239156 0.01016311
vt 0.3188463 0.01016311
vt 0.3188463 0.3814464
vt 0.5239156 0.3814464
vn -0.01587105 0.999874 -0.000345267
vn -0.01587105 0.999874 -0.000345267
vn -0.01587105 0.999874 -0.000345267
vn -0.01587105 0.999874 -0.000345267
vn -0.01587105 -0.999874 -0.000345267
vn -0.01587105 -0.999874 -0.000345267
vn -0.01587105 -0.999874 -0.000345267
vn -0.01587105 -0.999874 -0.000345267
vn -0.01587105 0.01587105 0.9997481
vn -0.01587105 0.01587105 0.9997481
vn -0.01587105 0.01587105 0.9997481
vn -0.01587105 0.01587105 0.9997481
vn -0.01587105 0.01587105 -0.9997481
vn -0.01587105 0.01587105 -0.9997481
vn -0.01587105 0.01587105 -0.9997481
vn -0.01587105 0.01587105 -0.9997481
vn -0.999874 0.01587105 -0.0003439156
vn -0.999874 0.01587105 -0.0003439156
vn -0.999874 0.01587105 -0.0003439156
vn -0.999874 0.01587105 -0.0003439156
vn 0.999874 0.01587105 -0.0003439156
vn 0.999874 0.01587105 -0.0003439156
vn 0.999874 0.01587105 -0.0003439156
vn 0.999874 0.01587105 -0.0003439156
vn -0.01587105 0.01587105 0.9997481
vn -0.01587105 0.01587105 0.9997481
vn -0.01587105 0.01587105 0.9997481
vn -0.01587105 0.01587105 0.9997481
vn -0.01587105 0.01587105 -0.9997481
vn -0.01587105 0.01587105 -0.9997481
vn -0.01587105 0.01587105 -0.9997481
vn -0.01587105 0.01587105 -0.9997481
vn 0.999874 0.01587105 -0.0003439156
vn 0.999874 0.01587105 -0.0003439156
vn 0.999874 0.01587105 -0.0003439156
vn 0.999874 0.01587105 -0.0003439156
vn -0.999874 0.01587105 -0.0003439156
vn -0.999874 0.01587105 -0.0003439156
vn -0.999874 0.01587105 -0.0003439156
vn -0.999874 0.01587105 -0.0003439156
f 3/3/3 2/2/2 1/1/1
f 4/4/4 3/3/3 1/1/1
f 7/7/7 6/6/6 5/5/5
f 8/8/8 7/7/7 5/5/5
f 11/11/11 10/10/10 9/9/9
f 12/12/12 11/11/11 9/9/9
f 15/15/15 14/14/14 13/13/13
f 16/16/16 15/15/15 13/13/13
f 19/19/19 18/18/18 17/17/17
f 20/20/20 19/19/19 17/17/17
f 23/23/23 22/22/22 21/21/21
f 24/24/24 23/23/23 21/21/21
f 27/27/27 26/26/26 25/25/25
f 28/28/28 27/27/27 25/25/25
f 31/31/31 30/30/30 29/29/29
f 32/32/32 31/31/31 29/29/29
f 35/35/35 34/34/34 33/33/33
f 36/36/36 35/35/35 33/33/33
f 39/39/39 38/38/38 37/37/37
f 40/40/40 39/39/39 37/37/37
