g wall_Damaged_01
v 2.5 0.657007 0.2158532
v 2.5 4.475745 0.2158532
v 2.5 0.657007 -0.2115147
v 2.5 4.475745 -0.2115147
v -2.359585 0.7190444 -0.2666588
v -2.359585 0.3330348 -0.7698499
v 2.362139 0.7190444 -0.2666588
v 2.362139 0.3330348 -0.7698499
v 2.5 0.657007 -0.2115147
v 2.5 0.3330348 -0.6113101
v 2.5 0.657007 0.2158532
v 2.5 0.3330348 0.6156487
v 2.5 -0.9904268 -0.6113101
v 2.5 -0.9904268 0.6156487
v 2.362139 0.7190444 0.2709975
v 2.362139 0.3330348 0.7672956
v -2.359585 0.7190444 0.2709975
v -2.359585 0.3330348 0.7672956
v -2.497446 0.657007 0.2158532
v -2.497446 0.3330348 0.6156487
v -2.497446 0.657007 -0.2115147
v -2.497446 0.3330348 -0.6113101
v -2.497446 -0.9904268 0.6156487
v -2.497446 -0.9904268 -0.6113101
v -2.359585 0.3330348 -0.7698499
v -2.359585 -0.9973198 -0.7698499
v 2.362139 0.3330348 -0.7698499
v 2.362139 -0.9973198 -0.7698499
v 2.362139 0.3330348 0.7672956
v 2.362139 -0.9973198 0.7672956
v -2.359585 0.3330348 0.7672956
v -2.359585 -0.9973198 0.7672956
v 2.362139 4.551568 -0.2666588
v 2.362139 0.7190444 -0.2666588
v 2.362139 4.475745 -0.2115147
v 2.362139 0.657007 -0.2115147
v 2.362139 4.551568 0.2709975
v 2.362139 4.475745 0.2158532
v 2.362139 0.7190444 0.2709975
v 2.362139 0.657007 0.2158532
v 2.362139 0.3330348 0.7672956
v 2.362139 0.7190444 0.2709975
v 2.362139 0.3330348 0.6156487
v 2.362139 0.657007 0.2158532
v 2.362139 -0.9904268 0.6156487
v 2.362139 -0.9973198 0.7672956
v 2.362139 0.3330348 -0.7698499
v 2.362139 0.3330348 -0.6113101
v 2.362139 0.7190444 -0.2666588
v 2.362139 0.657007 -0.2115147
v 2.362139 -0.9904268 -0.6113101
v 2.362139 -0.9973198 -0.7698499
v 2.362139 0.657007 -0.2115147
v 2.5 0.657007 -0.2115147
v 2.362139 4.475745 -0.2115147
v 2.5 4.475745 -0.2115147
v 2.362139 4.475745 -0.2115147
v 2.5 4.475745 -0.2115147
v 2.362139 4.475745 0.2158532
v 2.5 4.475745 0.2158532
v 2.362139 4.475745 0.2158532
v 2.5 4.475745 0.2158532
v 2.362139 0.657007 0.2158532
v 2.5 0.657007 0.2158532
v 2.362139 0.657007 0.2158532
v 2.5 0.657007 0.2158532
v 2.362139 0.3330348 0.6156487
v 2.5 0.3330348 0.6156487
v 2.362139 -0.9904268 0.6156487
v 2.5 -0.9904268 0.6156487
v 2.362139 0.3330348 -0.6113101
v 2.5 0.3330348 -0.6113101
v 2.362139 0.657007 -0.2115147
v 2.5 0.657007 -0.2115147
v 2.5 -0.9904268 -0.6113101
v 2.362139 -0.9904268 -0.6113101
v -2.359585 0.3330348 -0.7698499
v -2.359585 0.7190444 -0.2666588
v -2.359585 0.3330348 -0.6113101
v -2.359585 0.657007 -0.2115147
v -2.359585 -0.9904268 -0.6113101
v -2.359585 -0.9973198 -0.7698499
v -2.359585 0.3330348 0.7672956
v -2.359585 0.3330348 0.6156487
v -2.359585 0.7190444 0.2709975
v -2.359585 0.657007 0.2158532
v -2.359585 -0.9904268 0.6156487
v -2.359585 -0.9973198 0.7672956
v -2.359585 0.657007 -0.2115147
v -2.497446 0.657007 -0.2115147
v -2.359585 0.3330348 -0.6113101
v -2.497446 0.3330348 -0.6113101
v -2.359585 -0.9904268 -0.6113101
v -2.497446 -0.9904268 -0.6113101
v -2.359585 0.3330348 0.6156487
v -2.497446 0.3330348 0.6156487
v -2.359585 0.657007 0.2158532
v -2.497446 0.657007 0.2158532
v -2.497446 -0.9904268 0.6156487
v -2.359585 -0.9904268 0.6156487
v -0.002169132 4.551568 -0.2666588
v 2.362139 4.551568 -0.2666588
v -0.002169132 4.551568 0.2709975
v 2.362139 4.551568 0.2709975
v -2.359585 2.635306 -0.2666588
v -2.359585 0.7190444 -0.2666588
v -1.180877 2.194152 -0.2666588
v 2.362139 0.7190444 -0.2666588
v 2.362139 4.551568 -0.2666588
v -0.6845791 3.517614 -0.2666588
v -0.002169132 4.551568 -0.2666588
v -2.359585 2.635306 -0.2666588
v -2.359585 2.566376 -0.2115147
v -2.359585 0.7190444 -0.2666588
v -2.359585 0.657007 -0.2115147
v -2.359585 2.566376 0.2158532
v -2.359585 2.635306 0.2709975
v -2.359585 0.7190444 0.2709975
v -2.359585 0.657007 0.2158532
v -2.497446 2.566376 -0.2115147
v -2.497446 0.657007 -0.2115147
v -2.359585 2.566376 -0.2115147
v -2.359585 0.657007 -0.2115147
v -2.497446 0.657007 -0.2115147
v -2.497446 2.566376 -0.2115147
v -2.497446 0.657007 0.2158532
v -2.497446 2.566376 0.2158532
v -2.359585 0.657007 0.2158532
v -2.497446 0.657007 0.2158532
v -2.359585 2.566376 0.2158532
v -2.497446 2.566376 0.2158532
v -2.359585 2.635306 0.2709975
v -1.180877 2.194152 0.2709975
v -2.359585 0.7190444 0.2709975
v 2.362139 0.7190444 0.2709975
v 2.362139 4.551568 0.2709975
v -0.6845791 3.517614 0.2709975
v -0.002169132 4.551568 0.2709975
v -0.002169132 4.551568 0.2709975
v -0.6845791 3.517614 0.2709975
v -0.002169132 4.551568 -0.2666588
v -0.6845791 3.517614 -0.2666588
v -1.180877 2.194152 0.2709975
v -1.180877 2.194152 -0.2666588
v -2.359585 2.635306 0.2709975
v -2.359585 2.566376 0.2158532
v -2.359585 2.635306 -0.2666588
v -2.359585 2.566376 0.2158532
v -2.497446 2.566376 0.2158532
v -2.359585 2.566376 -0.2115147
v -2.497446 2.566376 -0.2115147
v -1.180877 2.194152 0.2709975
v -2.359585 2.635306 0.2709975
v -1.180877 2.194152 -0.2666588
v -2.359585 2.635306 -0.2666588
vt 0.3762581 0.7183708
vt 0.3762581 0.7279627
vt 0.38585 0.7183708
vt 0.38585 0.7279627
vt 0.07571039 0.5648997
vt 0.07571039 0.5648997
vt 0.09809159 0.5648997
vt 0.09809159 0.5648997
vt 0.3762581 0.7439494
vt 0.3762581 0.7439494
vt 0.3762581 0.7535414
vt 0.3762581 0.7535414
vt 0.3762581 0.7439494
vt 0.3762581 0.7535414
vt 0.09809159 0.5872809
vt 0.09809159 0.5872809
vt 0.07571039 0.5872809
vt 0.07571039 0.5872809
vt 0.3666661 0.7535414
vt 0.3666661 0.7535414
vt 0.3666661 0.7439494
vt 0.3666661 0.7439494
vt 0.3666661 0.7535414
vt 0.3666661 0.7439494
vt 0.1716298 0.1812218
vt 0.1716298 0.1812218
vt 0.2387735 0.1812218
vt 0.2387735 0.1812218
vt 0.3538769 0.7119762
vt 0.3538769 0.7119762
vt 0.3570742 0.7119762
vt 0.3570742 0.7119762
vt 0.38585 0.7279627
vt 0.38585 0.7183708
vt 0.38585 0.7279627
vt 0.38585 0.7183708
vt 0.3762581 0.7279627
vt 0.3762581 0.7279627
vt 0.3762581 0.7183708
vt 0.3762581 0.7183708
vt 0.3762581 0.7535414
vt 0.3762581 0.7535414
vt 0.3762581 0.7535414
vt 0.3762581 0.7535414
vt 0.3762581 0.7535414
vt 0.3762581 0.7535414
vt 0.3762581 0.7439494
vt 0.3762581 0.7439494
vt 0.3762581 0.7439494
vt 0.3762581 0.7439494
vt 0.3762581 0.7439494
vt 0.3762581 0.7439494
vt 0.38585 0.7183708
vt 0.38585 0.7183708
vt 0.38585 0.7279627
vt 0.38585 0.7279627
vt 0.38585 0.7279627
vt 0.38585 0.7279627
vt 0.3762581 0.7279627
vt 0.3762581 0.7279627
vt 0.3762581 0.7279627
vt 0.3762581 0.7279627
vt 0.3762581 0.7183708
vt 0.3762581 0.7183708
vt 0.3762581 0.7535414
vt 0.3762581 0.7535414
vt 0.3762581 0.7535414
vt 0.3762581 0.7535414
vt 0.3762581 0.7535414
vt 0.3762581 0.7535414
vt 0.3762581 0.7439494
vt 0.3762581 0.7439494
vt 0.3762581 0.7439494
vt 0.3762581 0.7439494
vt 0.3762581 0.7439494
vt 0.3762581 0.7439494
vt 0.3666661 0.7439494
vt 0.3666661 0.7439494
vt 0.3666661 0.7439494
vt 0.3666661 0.7439494
vt 0.3666661 0.7439494
vt 0.3666661 0.7439494
vt 0.3666661 0.7535414
vt 0.3666661 0.7535414
vt 0.3666661 0.7535414
vt 0.3666661 0.7535414
vt 0.3666661 0.7535414
vt 0.3666661 0.7535414
vt 0.3666661 0.7439494
vt 0.3666661 0.7439494
vt 0.3666661 0.7439494
vt 0.3666661 0.7439494
vt 0.3666661 0.7439494
vt 0.3666661 0.7439494
vt 0.3666661 0.7535414
vt 0.3666661 0.7535414
vt 0.3666661 0.7535414
vt 0.3666661 0.7535414
vt 0.3666661 0.7535414
vt 0.3666661 0.7535414
vt 0.1844191 0.8910259
vt 0.2355762 0.8910259
vt 0.1844191 0.7855145
vt 0.2355762 0.7855145
vt 0.1716298 0.1492486
vt 0.1716298 0.1812218
vt 0.1876164 0.1556433
vt 0.2387735 0.1812218
vt 0.2387735 0.1140782
vt 0.1972084 0.1332621
vt 0.203603 0.1140782
vt 0.3570742 0.7215681
vt 0.3570742 0.7215681
vt 0.3570742 0.7183708
vt 0.3570742 0.7183708
vt 0.3666661 0.7215681
vt 0.3666661 0.7215681
vt 0.3666661 0.7183708
vt 0.3666661 0.7183708
vt 0.3570742 0.7215681
vt 0.3570742 0.7183708
vt 0.3570742 0.7215681
vt 0.3570742 0.7183708
vt 0.3570742 0.7183708
vt 0.3570742 0.7215681
vt 0.3666661 0.7183708
vt 0.3666661 0.7215681
vt 0.3666661 0.7183708
vt 0.3666661 0.7183708
vt 0.3666661 0.7215681
vt 0.3666661 0.7215681
vt 0.3570742 0.7151735
vt 0.3570742 0.7151735
vt 0.3570742 0.7151735
vt 0.3538769 0.7151735
vt 0.3538769 0.7151735
vt 0.3570742 0.7151735
vt 0.3570742 0.7151735
vt 0.2291815 0.5744916
vt 0.2291815 0.5105454
vt 0.1940111 0.5744916
vt 0.1940111 0.5105454
vt 0.2291815 0.4242178
vt 0.1940111 0.4242178
vt 0.3570742 0.7151735
vt 0.3666661 0.7215681
vt 0.3570742 0.7215681
vt 0.3666661 0.7215681
vt 0.3666661 0.7215681
vt 0.3570742 0.7215681
vt 0.3570742 0.7215681
vt 0.2291815 0.4242178
vt 0.2291815 0.5009534
vt 0.264352 0.4242178
vt 0.264352 0.5009534
vn 0.999874 0.01587105 -0.0003439156
vn 0.999874 0.01587105 -0.0003439156
vn 0.999874 0.01587105 -0.0003439156
vn 0.999874 0.01587105 -0.0003439156
vn -0.01587105 0.3015493 -0.9533185
vn -0.01587105 0.5872276 -0.8092663
vn -0.01587105 0.4285175 -0.9033941
vn -0.01587105 0.3015493 -0.9533185
vn 0.999874 0.01587105 -0.0003439156
vn 0.999874 0.01587105 -0.0003439156
vn 0.999874 0.01587105 -0.0003439156
vn 0.999874 0.01587105 -0.0003439156
vn 0.999874 0.01587105 -0.0003439156
vn 0.999874 0.01587105 -0.0003439156
vn -0.01587105 0.3015493 0.9533185
vn -0.01587105 0.5872276 0.8092663
vn -0.01587105 0.4285175 0.9033941
vn -0.01587105 0.3015493 0.9533185
vn -0.999874 0.01587105 -0.0003439156
vn -0.999874 0.01587105 -0.0003439156
vn -0.999874 0.01587105 -0.0003439156
vn -0.999874 0.01587105 -0.0003439156
vn -0.999874 0.01587105 -0.0003439156
vn -0.999874 0.01587105 -0.0003439156
vn -0.01587105 0.5872276 -0.8092663
vn -0.01587105 0.01587105 -0.9997481
vn -0.01587105 0.3015493 -0.9533185
vn -0.01587105 0.01587105 -0.9997481
vn -0.01587105 0.5872276 0.8092663
vn -0.01587105 0.01587105 0.9997481
vn -0.01587105 0.3015493 0.9533185
vn -0.01587105 0.01587105 0.9997481
vn 0.999874 0.01587105 -0.0003439156
vn 0.999874 0.01587105 -0.0003439156
vn 0.999874 0.01587105 -0.0003439156
vn 0.999874 0.01587105 -0.0003439156
vn 0.999874 0.01587105 -0.0003439156
vn 0.999874 0.01587105 -0.0003439156
vn 0.999874 0.01587105 -0.0003439156
vn 0.999874 0.01587105 -0.0003439156
vn 0.999874 0.01587105 -0.0003439156
vn 0.999874 0.01587105 -0.0003439156
vn 0.999874 0.01587105 -0.0003439156
vn 0.999874 0.01587105 -0.0003439156
vn 0.999874 0.01587105 -0.0003439156
vn 0.999874 0.01587105 -0.0003439156
vn 0.999874 0.01587105 -0.0003439156
vn 0.999874 0.01587105 -0.0003439156
vn 0.999874 0.01587105 -0.0003439156
vn 0.999874 0.01587105 -0.0003439156
vn 0.999874 0.01587105 -0.0003439156
vn 0.999874 0.01587105 -0.0003439156
vn -0.01587105 0.5554856 -0.8313747
vn -0.01587105 0.2698073 -0.9627835
vn -0.01587105 0.01587105 -0.9997481
vn -0.01587105 0.01587105 -0.9997481
vn -0.01587105 0.999874 -0.000345267
vn -0.01587105 0.999874 -0.000345267
vn -0.01587105 0.999874 -0.000345267
vn -0.01587105 0.999874 -0.000345267
vn -0.01587105 0.01587105 0.9997481
vn -0.01587105 0.01587105 0.9997481
vn -0.01587105 0.2698073 0.9627835
vn -0.01587105 0.5554856 0.8313747
vn -0.01587105 0.2698073 0.9627835
vn -0.01587105 0.5554856 0.8313747
vn -0.01587105 0.5554856 0.8313747
vn -0.01587105 0.2698073 0.9627835
vn -0.01587105 0.01587105 0.9997481
vn -0.01587105 0.01587105 0.9997481
vn -0.01587105 0.2698073 -0.9627835
vn -0.01587105 0.5554856 -0.8313747
vn -0.01587105 0.5554856 -0.8313747
vn -0.01587105 0.2698073 -0.9627835
vn -0.01587105 0.01587105 -0.9997481
vn -0.01587105 0.01587105 -0.9997481
vn -0.999874 0.01587105 -0.0003439156
vn -0.999874 0.01587105 -0.0003439156
vn -0.999874 0.01587105 -0.0003439156
vn -0.999874 0.01587105 -0.0003439156
vn -0.999874 0.01587105 -0.0003439156
vn -0.999874 0.01587105 -0.0003439156
vn -0.999874 0.01587105 -0.0003439156
vn -0.999874 0.01587105 -0.0003439156
vn -0.999874 0.01587105 -0.0003439156
vn -0.999874 0.01587105 -0.0003439156
vn -0.999874 0.01587105 -0.0003439156
vn -0.999874 0.01587105 -0.0003439156
vn -0.01587105 0.4285175 -0.9033941
vn -0.01587105 0.4285175 -0.9033941
vn -0.01587105 0.5554856 -0.8313747
vn -0.01587105 0.2698073 -0.9627835
vn -0.01587105 0.01587105 -0.9997481
vn -0.01587105 0.01587105 -0.9997481
vn -0.01587105 0.2698073 0.9627835
vn -0.01587105 0.5554856 0.8313747
vn -0.01587105 0.5554856 0.8313747
vn -0.01587105 0.2698073 0.9627835
vn -0.01587105 0.01587105 0.9997481
vn -0.01587105 0.01587105 0.9997481
vn -0.6189697 0.7776798 -0.1099576
vn -0.01587105 0.999874 -0.000345267
vn -0.3015493 0.9363899 -0.1795602
vn -0.01587105 0.999874 -0.000345267
vn -0.01587105 0.01587105 -0.9997481
vn -0.01587105 0.3015493 -0.9533185
vn -0.01587105 0.01587105 -0.9997481
vn -0.01587105 0.4285175 -0.9033941
vn -0.01587105 0.01587105 -0.9997481
vn -0.01587105 0.01587105 -0.9997481
vn -0.01587105 0.01587105 -0.9997481
vn -0.999874 0.01587105 -0.0003439156
vn -0.999874 0.01587105 -0.0003439156
vn -0.999874 0.01587105 -0.0003439156
vn -0.999874 0.01587105 -0.0003439156
vn -0.999874 0.01587105 -0.0003439156
vn -0.999874 0.01587105 -0.0003439156
vn -0.999874 0.01587105 -0.0003439156
vn -0.999874 0.01587105 -0.0003439156
vn -0.01587105 0.01587105 -0.9997481
vn -0.01587105 0.4285175 -0.9033941
vn -0.01587105 0.01587105 -0.9997481
vn -0.01587105 0.4285175 -0.9033941
vn -0.999874 0.01587105 -0.0003439156
vn -0.999874 0.01587105 -0.0003439156
vn -0.999874 0.01587105 -0.0003439156
vn -0.999874 0.01587105 -0.0003439156
vn -0.01587105 0.5554856 0.8313747
vn -0.01587105 0.2698073 0.9627835
vn -0.01587105 0.01587105 0.9997481
vn -0.01587105 0.01587105 0.9997481
vn -0.01587105 0.01587105 0.9997481
vn -0.01587105 0.01587105 0.9997481
vn -0.01587105 0.4285175 0.9033941
vn -0.01587105 0.3015493 0.9533185
vn -0.01587105 0.01587105 0.9997481
vn -0.01587105 0.01587105 0.9997481
vn -0.01587105 0.01587105 0.9997481
vn -0.3015493 0.9363899 -0.1795602
vn -0.8729059 0.4920015 NaN
vn -0.6189697 0.7776798 -0.1099576
vn -0.9046479 0.4285175 NaN
vn -0.9363899 0.3332914 -0.1099578
vn -0.9363899 0.3332914 -0.1099578
vn -0.999874 0.01587105 -0.0003439156
vn -0.999874 0.01587105 -0.0003439156
vn -0.999874 0.01587105 -0.0003439156
vn -0.01587105 0.999874 -0.000345267
vn -0.01587105 0.999874 -0.000345267
vn -0.01587105 0.999874 -0.000345267
vn -0.01587105 0.999874 -0.000345267
vn 0.3650333 0.9363899 NaN
vn 0.3650333 0.9363899 NaN
vn 0.3650333 0.9363899 NaN
vn 0.3650333 0.9363899 NaN
f 3/3/3 2/2/2 1/1/1
f 3/3/3 4/4/4 2/2/2
f 7/7/7 6/6/6 5/5/5
f 7/7/7 8/8/8 6/6/6
f 11/11/11 10/10/10 9/9/9
f 11/11/11 12/12/12 10/10/10
f 12/12/12 13/13/13 10/10/10
f 12/12/12 14/14/14 13/13/13
f 17/17/17 16/16/16 15/15/15
f 17/17/17 18/18/18 16/16/16
f 21/21/21 20/20/20 19/19/19
f 21/21/21 22/22/22 20/20/20
f 22/22/22 23/23/23 20/20/20
f 22/22/22 24/24/24 23/23/23
f 27/27/27 26/26/26 25/25/25
f 27/27/27 28/28/28 26/26/26
f 31/31/31 30/30/30 29/29/29
f 31/31/31 32/32/32 30/30/30
f 35/35/35 34/34/34 33/33/33
f 35/35/35 36/36/36 34/34/34
f 37/37/37 35/35/35 33/33/33
f 37/37/37 38/38/38 35/35/35
f 39/39/39 38/38/38 37/37/37
f 39/39/39 40/40/40 38/38/38
f 43/43/43 42/42/42 41/41/41
f 43/43/43 44/44/44 42/42/42
f 45/45/45 43/43/43 41/41/41
f 45/45/45 41/41/41 46/46/46
f 49/49/49 48/48/48 47/47/47
f 49/49/49 50/50/50 48/48/48
f 47/47/47 48/48/48 51/51/51
f 47/47/47 51/51/51 52/52/52
f 55/55/55 54/54/54 53/53/53
f 55/55/55 56/56/56 54/54/54
f 59/59/59 58/58/58 57/57/57
f 59/59/59 60/60/60 58/58/58
f 63/63/63 62/62/62 61/61/61
f 63/63/63 64/64/64 62/62/62
f 67/67/67 66/66/66 65/65/65
f 67/67/67 68/68/68 66/66/66
f 69/69/69 68/68/68 67/67/67
f 69/69/69 70/70/70 68/68/68
f 73/73/73 72/72/72 71/71/71
f 73/73/73 74/74/74 72/72/72
f 71/71/71 72/72/72 75/75/75
f 71/71/71 75/75/75 76/76/76
f 79/79/79 78/78/78 77/77/77
f 79/79/79 80/80/80 78/78/78
f 81/81/81 79/79/79 77/77/77
f 81/81/81 77/77/77 82/82/82
f 85/85/85 84/84/84 83/83/83
f 85/85/85 86/86/86 84/84/84
f 83/83/83 84/84/84 87/87/87
f 83/83/83 87/87/87 88/88/88
f 91/91/91 90/90/90 89/89/89
f 91/91/91 92/92/92 90/90/90
f 93/93/93 92/92/92 91/91/91
f 93/93/93 94/94/94 92/92/92
f 97/97/97 96/96/96 95/95/95
f 97/97/97 98/98/98 96/96/96
f 95/95/95 96/96/96 99/99/99
f 95/95/95 99/99/99 100/100/100
f 103/103/103 102/102/102 101/101/101
f 103/103/103 104/104/104 102/102/102
f 107/107/107 106/106/106 105/105/105
f 107/107/107 108/108/108 106/106/106
f 107/107/107 109/109/109 108/108/108
f 110/110/110 109/109/109 107/107/107
f 111/111/111 109/109/109 110/110/110
f 114/114/114 113/113/113 112/112/112
f 114/114/114 115/115/115 113/113/113
f 112/112/112 113/113/113 116/116/116
f 116/116/116 118/118/118 117/117/117
f 116/116/116 119/119/119 118/118/118
f 122/122/122 121/121/121 120/120/120
f 122/122/122 123/123/123 121/121/121
f 126/126/126 125/125/125 124/124/124
f 126/126/126 127/127/127 125/125/125
f 130/130/130 129/129/129 128/128/128
f 130/130/130 131/131/131 129/129/129
f 134/134/134 133/133/133 132/132/132
f 135/135/135 133/133/133 134/134/134
f 136/136/136 133/133/133 135/135/135
f 136/136/136 137/137/137 133/133/133
f 138/138/138 137/137/137 136/136/136
f 141/141/141 140/140/140 139/139/139
f 141/141/141 142/142/142 140/140/140
f 142/142/142 143/143/143 140/140/140
f 142/142/142 144/144/144 143/143/143
f 147/147/147 146/146/146 145/145/145
f 150/150/150 149/149/149 148/148/148
f 150/150/150 151/151/151 149/149/149
f 154/154/154 153/153/153 152/152/152
f 154/154/154 155/155/155 153/153/153
