g wall_01
v -2.359585 0.7190444 0.2709975
v -2.359585 4.551568 0.2709975
v 2.362139 4.551568 0.2709975
v 2.362139 0.7190444 0.2709975
v -2.359585 4.551568 0.2709975
v -2.359585 4.551568 -0.2666588
v 2.362139 4.551568 -0.2666588
v 2.362139 4.551568 0.2709975
v -2.359585 4.551568 -0.2666588
v -2.359585 0.7190444 -0.2666588
v 2.362139 0.7190444 -0.2666588
v 2.362139 4.551568 -0.2666588
v 2.5 0.657007 0.2158532
v 2.5 4.475745 0.2158532
v 2.5 4.475745 -0.2115147
v 2.5 0.657007 -0.2115147
v -2.497446 0.657007 -0.2115147
v -2.497446 4.475745 -0.2115147
v -2.497446 4.475745 0.2158532
v -2.497446 0.657007 0.2158532
v -2.359585 0.7190444 -0.2666588
v -2.359585 0.3330348 -0.7698499
v 2.362139 0.3330348 -0.7698499
v 2.362139 0.7190444 -0.2666588
v 2.5 0.657007 -0.2115147
v 2.5 0.3330348 -0.6113101
v 2.5 0.3330348 0.6156487
v 2.5 0.657007 0.2158532
v 2.5 -0.9904268 0.6156487
v 2.5 -0.9904268 -0.6113101
v 2.362139 0.7190444 0.2709975
v 2.362139 0.3330348 0.7672956
v -2.359585 0.3330348 0.7672956
v -2.359585 0.7190444 0.2709975
v -2.497446 0.657007 0.2158532
v -2.497446 0.3330348 0.6156487
v -2.497446 0.3330348 -0.6113101
v -2.497446 0.657007 -0.2115147
v -2.497446 -0.9904268 -0.6113101
v -2.497446 -0.9904268 0.6156487
v -2.359585 0.3330348 -0.7698499
v -2.359585 -0.9973198 -0.7698499
v 2.362139 -0.9973198 -0.7698499
v 2.362139 0.3330348 -0.7698499
v 2.362139 0.3330348 0.7672956
v 2.362139 -0.9973198 0.7672956
v -2.359585 -0.9973198 0.7672956
v -2.359585 0.3330348 0.7672956
v 2.362139 0.7190444 -0.2666588
v 2.362139 0.657007 -0.2115147
v 2.362139 4.475745 -0.2115147
v 2.362139 4.551568 -0.2666588
v 2.362139 4.475745 0.2158532
v 2.362139 4.551568 0.2709975
v 2.362139 0.657007 0.2158532
v 2.362139 0.7190444 0.2709975
v 2.362139 0.7190444 0.2709975
v 2.362139 0.657007 0.2158532
v 2.362139 0.3330348 0.6156487
v 2.362139 0.3330348 0.7672956
v 2.362139 -0.9904268 0.6156487
v 2.362139 -0.9973198 0.7672956
v 2.362139 0.3330348 -0.7698499
v 2.362139 0.3330348 -0.6113101
v 2.362139 0.657007 -0.2115147
v 2.362139 0.7190444 -0.2666588
v 2.362139 -0.9973198 -0.7698499
v 2.362139 -0.9904268 -0.6113101
v 2.362139 0.657007 -0.2115147
v 2.5 0.657007 -0.2115147
v 2.5 4.475745 -0.2115147
v 2.362139 4.475745 -0.2115147
v 2.362139 4.475745 -0.2115147
v 2.5 4.475745 -0.2115147
v 2.5 4.475745 0.2158532
v 2.362139 4.475745 0.2158532
v 2.362139 4.475745 0.2158532
v 2.5 4.475745 0.2158532
v 2.5 0.657007 0.2158532
v 2.362139 0.657007 0.2158532
v 2.362139 0.657007 0.2158532
v 2.5 0.657007 0.2158532
v 2.5 0.3330348 0.6156487
v 2.362139 0.3330348 0.6156487
v 2.362139 0.3330348 -0.6113101
v 2.5 0.3330348 -0.6113101
v 2.5 0.657007 -0.2115147
v 2.362139 0.657007 -0.2115147
v 2.362139 0.3330348 0.6156487
v 2.5 0.3330348 0.6156487
v 2.5 -0.9904268 0.6156487
v 2.362139 -0.9904268 0.6156487
v 2.362139 -0.9904268 -0.6113101
v 2.5 -0.9904268 -0.6113101
v 2.5 0.3330348 -0.6113101
v 2.362139 0.3330348 -0.6113101
v -2.359585 0.7190444 0.2709975
v -2.359585 0.657007 0.2158532
v -2.359585 4.475745 0.2158532
v -2.359585 4.551568 0.2709975
v -2.359585 4.475745 -0.2115147
v -2.359585 4.551568 -0.2666588
v -2.359585 0.657007 -0.2115147
v -2.359585 0.7190444 -0.2666588
v -2.359585 0.7190444 -0.2666588
v -2.359585 0.657007 -0.2115147
v -2.359585 0.3330348 -0.6113101
v -2.359585 0.3330348 -0.7698499
v -2.359585 -0.9904268 -0.6113101
v -2.359585 -0.9973198 -0.7698499
v -2.359585 0.3330348 0.7672956
v -2.359585 0.3330348 0.6156487
v -2.359585 0.657007 0.2158532
v -2.359585 0.7190444 0.2709975
v -2.359585 -0.9973198 0.7672956
v -2.359585 -0.9904268 0.6156487
v -2.359585 0.657007 0.2158532
v -2.497446 0.657007 0.2158532
v -2.497446 4.475745 0.2158532
v -2.359585 4.475745 0.2158532
v -2.359585 4.475745 0.2158532
v -2.497446 4.475745 0.2158532
v -2.497446 4.475745 -0.2115147
v -2.359585 4.475745 -0.2115147
v -2.359585 4.475745 -0.2115147
v -2.497446 4.475745 -0.2115147
v -2.497446 0.657007 -0.2115147
v -2.359585 0.657007 -0.2115147
v -2.359585 0.657007 -0.2115147
v -2.497446 0.657007 -0.2115147
v -2.497446 0.3330348 -0.6113101
v -2.359585 0.3330348 -0.6113101
v -2.359585 0.3330348 0.6156487
v -2.497446 0.3330348 0.6156487
v -2.497446 0.657007 0.2158532
v -2.359585 0.657007 0.2158532
v -2.359585 0.3330348 -0.6113101
v -2.497446 0.3330348 -0.6113101
v -2.497446 -0.9904268 -0.6113101
v -2.359585 -0.9904268 -0.6113101
v -2.359585 -0.9904268 0.6156487
v -2.497446 -0.9904268 0.6156487
v -2.497446 0.3330348 0.6156487
v -2.359585 0.3330348 0.6156487
vt 0.07086687 0.1995193
vt 0.07086687 0.1995193
vt 0.07086687 0.1995193
vt 0.07086687 0.1995193
vt 0.1319768 0.788104
vt 0.1319768 0.8910259
vt 0.2348987 0.8910259
vt 0.2348987 0.788104
vt 0.1737888 0.1158952
vt 0.1737888 0.1802214
vt 0.238115 0.1802214
vt 0.238115 0.1158952
vt 0.3764163 0.7173452
vt 0.3764163 0.7269941
vt 0.3860652 0.7269941
vt 0.3860652 0.7173452
vt 0.3571184 0.7173452
vt 0.3571184 0.7269941
vt 0.3667674 0.7269941
vt 0.3667674 0.7173452
vt 0.07729949 0.5629623
vt 0.07729949 0.5629623
vt 0.09981366 0.5629623
vt 0.09981366 0.5629623
vt 0.3764163 0.7462919
vt 0.3764163 0.7462919
vt 0.3764163 0.7527246
vt 0.3764163 0.7527246
vt 0.3764163 0.7527246
vt 0.3764163 0.7462919
vt 0.09981366 0.5854765
vt 0.09981366 0.5854765
vt 0.07729949 0.5854765
vt 0.07729949 0.5854765
vt 0.3667674 0.7527246
vt 0.3667674 0.7527246
vt 0.3667674 0.7462919
vt 0.3667674 0.7462919
vt 0.3667674 0.7462919
vt 0.3667674 0.7527246
vt 0.1737888 0.1802214
vt 0.1737888 0.1802214
vt 0.238115 0.1802214
vt 0.238115 0.1802214
vt 0.07086687 0.1995193
vt 0.07086687 0.1995193
vt 0.07086687 0.1995193
vt 0.07086687 0.1995193
vt 0.3860652 0.7173452
vt 0.3860652 0.7173452
vt 0.3860652 0.7269941
vt 0.3860652 0.7269941
vt 0.3764163 0.7269941
vt 0.3764163 0.7269941
vt 0.3764163 0.7173452
vt 0.3764163 0.7173452
vt 0.3764163 0.7527246
vt 0.3764163 0.7527246
vt 0.3764163 0.7527246
vt 0.3764163 0.7527246
vt 0.3764163 0.7527246
vt 0.3764163 0.7527246
vt 0.3764163 0.7462919
vt 0.3764163 0.7462919
vt 0.3764163 0.7462919
vt 0.3764163 0.7462919
vt 0.3764163 0.7462919
vt 0.3764163 0.7462919
vt 0.3860652 0.7173452
vt 0.3860652 0.7173452
vt 0.3860652 0.7269941
vt 0.3860652 0.7269941
vt 0.3860652 0.7269941
vt 0.3860652 0.7269941
vt 0.3764163 0.7269941
vt 0.3764163 0.7269941
vt 0.3764163 0.7269941
vt 0.3764163 0.7269941
vt 0.3764163 0.7173452
vt 0.3764163 0.7173452
vt 0.3764163 0.7527246
vt 0.3764163 0.7527246
vt 0.3764163 0.7527246
vt 0.3764163 0.7527246
vt 0.3764163 0.7462919
vt 0.3764163 0.7462919
vt 0.3764163 0.7462919
vt 0.3764163 0.7462919
vt 0.3764163 0.7527246
vt 0.3764163 0.7527246
vt 0.3764163 0.7527246
vt 0.3764163 0.7527246
vt 0.3764163 0.7462919
vt 0.3764163 0.7462919
vt 0.3764163 0.7462919
vt 0.3764163 0.7462919
vt 0.3667674 0.7173452
vt 0.3667674 0.7173452
vt 0.3667674 0.7269941
vt 0.3667674 0.7269941
vt 0.3571184 0.7269941
vt 0.3571184 0.7269941
vt 0.3571184 0.7173452
vt 0.3571184 0.7173452
vt 0.3667674 0.7462919
vt 0.3667674 0.7462919
vt 0.3667674 0.7462919
vt 0.3667674 0.7462919
vt 0.3667674 0.7462919
vt 0.3667674 0.7462919
vt 0.3667674 0.7527246
vt 0.3667674 0.7527246
vt 0.3667674 0.7527246
vt 0.3667674 0.7527246
vt 0.3667674 0.7527246
vt 0.3667674 0.7527246
vt 0.3667674 0.7173452
vt 0.3667674 0.7173452
vt 0.3667674 0.7269941
vt 0.3667674 0.7269941
vt 0.3667674 0.7269941
vt 0.3667674 0.7269941
vt 0.3571184 0.7269941
vt 0.3571184 0.7269941
vt 0.3571184 0.7269941
vt 0.3571184 0.7269941
vt 0.3571184 0.7173452
vt 0.3571184 0.7173452
vt 0.3667674 0.7462919
vt 0.3667674 0.7462919
vt 0.3667674 0.7462919
vt 0.3667674 0.7462919
vt 0.3667674 0.7527246
vt 0.3667674 0.7527246
vt 0.3667674 0.7527246
vt 0.3667674 0.7527246
vt 0.3667674 0.7462919
vt 0.3667674 0.7462919
vt 0.3667674 0.7462919
vt 0.3667674 0.7462919
vt 0.3667674 0.7527246
vt 0.3667674 0.7527246
vt 0.3667674 0.7527246
vt 0.3667674 0.7527246
vn -0.01587105 0.01587105 0.9997481
vn -0.01587105 0.01587105 0.9997481
vn -0.01587105 0.01587105 0.9997481
vn -0.01587105 0.01587105 0.9997481
vn -0.01587105 0.999874 -0.000345267
vn -0.01587105 0.999874 -0.000345267
vn -0.01587105 0.999874 -0.000345267
vn -0.01587105 0.999874 -0.000345267
vn -0.01587105 0.01587105 -0.9997481
vn -0.01587105 0.01587105 -0.9997481
vn -0.01587105 0.01587105 -0.9997481
vn -0.01587105 0.01587105 -0.9997481
vn 0.999874 0.01587105 -0.0003439156
vn 0.999874 0.01587105 -0.0003439156
vn 0.999874 0.01587105 -0.0003439156
vn 0.999874 0.01587105 -0.0003439156
vn -0.999874 0.01587105 -0.0003439156
vn -0.999874 0.01587105 -0.0003439156
vn -0.999874 0.01587105 -0.0003439156
vn -0.999874 0.01587105 -0.0003439156
vn -0.01587105 0.8094218 -0.5870132
vn -0.01587105 0.8094218 -0.5870132
vn -0.01587105 0.8094218 -0.5870132
vn -0.01587105 0.8094218 -0.5870132
vn 0.999874 0.01587105 -0.0003439156
vn 0.999874 0.01587105 -0.0003439156
vn 0.999874 0.01587105 -0.0003439156
vn 0.999874 0.01587105 -0.0003439156
vn 0.999874 0.01587105 -0.0003439156
vn 0.999874 0.01587105 -0.0003439156
vn -0.01587105 0.8094218 0.5870132
vn -0.01587105 0.8094218 0.5870132
vn -0.01587105 0.8094218 0.5870132
vn -0.01587105 0.8094218 0.5870132
vn -0.999874 0.01587105 -0.0003439156
vn -0.999874 0.01587105 -0.0003439156
vn -0.999874 0.01587105 -0.0003439156
vn -0.999874 0.01587105 -0.0003439156
vn -0.999874 0.01587105 -0.0003439156
vn -0.999874 0.01587105 -0.0003439156
vn -0.01587105 0.01587105 -0.9997481
vn -0.01587105 0.01587105 -0.9997481
vn -0.01587105 0.01587105 -0.9997481
vn -0.01587105 0.01587105 -0.9997481
vn -0.01587105 0.01587105 0.9997481
vn -0.01587105 0.01587105 0.9997481
vn -0.01587105 0.01587105 0.9997481
vn -0.01587105 0.01587105 0.9997481
vn 0.999874 0.01587105 -0.0003439156
vn 0.999874 0.01587105 -0.0003439156
vn 0.999874 0.01587105 -0.0003439156
vn 0.999874 0.01587105 -0.0003439156
vn 0.999874 0.01587105 -0.0003439156
vn 0.999874 0.01587105 -0.0003439156
vn 0.999874 0.01587105 -0.0003439156
vn 0.999874 0.01587105 -0.0003439156
vn 0.999874 0.01587105 -0.0003439156
vn 0.999874 0.01587105 -0.0003439156
vn 0.999874 0.01587105 -0.0003439156
vn 0.999874 0.01587105 -0.0003439156
vn 0.999874 0.01587105 -0.0003439156
vn 0.999874 0.01587105 -0.0003439156
vn 0.999874 0.01587105 -0.0003439156
vn 0.999874 0.01587105 -0.0003439156
vn 0.999874 0.01587105 -0.0003439156
vn 0.999874 0.01587105 -0.0003439156
vn 0.999874 0.01587105 -0.0003439156
vn 0.999874 0.01587105 -0.0003439156
vn -0.01587105 0.01587105 -0.9997481
vn -0.01587105 0.01587105 -0.9997481
vn -0.01587105 0.01587105 -0.9997481
vn -0.01587105 0.01587105 -0.9997481
vn -0.01587105 0.999874 -0.000345267
vn -0.01587105 0.999874 -0.000345267
vn -0.01587105 0.999874 -0.000345267
vn -0.01587105 0.999874 -0.000345267
vn -0.01587105 0.01587105 0.9997481
vn -0.01587105 0.01587105 0.9997481
vn -0.01587105 0.01587105 0.9997481
vn -0.01587105 0.01587105 0.9997481
vn -0.01587105 0.7776798 0.6284602
vn -0.01587105 0.7776798 0.6284602
vn -0.01587105 0.7776798 0.6284602
vn -0.01587105 0.7776798 0.6284602
vn -0.01587105 0.7776798 -0.6284602
vn -0.01587105 0.7776798 -0.6284602
vn -0.01587105 0.7776798 -0.6284602
vn -0.01587105 0.7776798 -0.6284602
vn -0.01587105 0.01587105 0.9997481
vn -0.01587105 0.01587105 0.9997481
vn -0.01587105 0.01587105 0.9997481
vn -0.01587105 0.01587105 0.9997481
vn -0.01587105 0.01587105 -0.9997481
vn -0.01587105 0.01587105 -0.9997481
vn -0.01587105 0.01587105 -0.9997481
vn -0.01587105 0.01587105 -0.9997481
vn -0.999874 0.01587105 -0.0003439156
vn -0.999874 0.01587105 -0.0003439156
vn -0.999874 0.01587105 -0.0003439156
vn -0.999874 0.01587105 -0.0003439156
vn -0.999874 0.01587105 -0.0003439156
vn -0.999874 0.01587105 -0.0003439156
vn -0.999874 0.01587105 -0.0003439156
vn -0.999874 0.01587105 -0.0003439156
vn -0.999874 0.01587105 -0.0003439156
vn -0.999874 0.01587105 -0.0003439156
vn -0.999874 0.01587105 -0.0003439156
vn -0.999874 0.01587105 -0.0003439156
vn -0.999874 0.01587105 -0.0003439156
vn -0.999874 0.01587105 -0.0003439156
vn -0.999874 0.01587105 -0.0003439156
vn -0.999874 0.01587105 -0.0003439156
vn -0.999874 0.01587105 -0.0003439156
vn -0.999874 0.01587105 -0.0003439156
vn -0.999874 0.01587105 -0.0003439156
vn -0.999874 0.01587105 -0.0003439156
vn -0.01587105 0.01587105 0.9997481
vn -0.01587105 0.01587105 0.9997481
vn -0.01587105 0.01587105 0.9997481
vn -0.01587105 0.01587105 0.9997481
vn -0.01587105 0.999874 -0.000345267
vn -0.01587105 0.999874 -0.000345267
vn -0.01587105 0.999874 -0.000345267
vn -0.01587105 0.999874 -0.000345267
vn -0.01587105 0.01587105 -0.9997481
vn -0.01587105 0.01587105 -0.9997481
vn -0.01587105 0.01587105 -0.9997481
vn -0.01587105 0.01587105 -0.9997481
vn -0.01587105 0.7776798 -0.6284602
vn -0.01587105 0.7776798 -0.6284602
vn -0.01587105 0.7776798 -0.6284602
vn -0.01587105 0.7776798 -0.6284602
vn -0.01587105 0.7776798 0.6284602
vn -0.01587105 0.7776798 0.6284602
vn -0.01587105 0.7776798 0.6284602
vn -0.01587105 0.7776798 0.6284602
vn -0.01587105 0.01587105 -0.9997481
vn -0.01587105 0.01587105 -0.9997481
vn -0.01587105 0.01587105 -0.9997481
vn -0.01587105 0.01587105 -0.9997481
vn -0.01587105 0.01587105 0.9997481
vn -0.01587105 0.01587105 0.9997481
vn -0.01587105 0.01587105 0.9997481
vn -0.01587105 0.01587105 0.9997481
f 3/3/3 2/2/2 1/1/1
f 4/4/4 3/3/3 1/1/1
f 7/7/7 6/6/6 5/5/5
f 8/8/8 7/7/7 5/5/5
f 11/11/11 10/10/10 9/9/9
f 12/12/12 11/11/11 9/9/9
f 15/15/15 14/14/14 13/13/13
f 16/16/16 15/15/15 13/13/13
f 19/19/19 18/18/18 17/17/17
f 20/20/20 19/19/19 17/17/17
f 23/23/23 22/22/22 21/21/21
f 24/24/24 23/23/23 21/21/21
f 27/27/27 26/26/26 25/25/25
f 28/28/28 27/27/27 25/25/25
f 27/27/27 29/29/29 26/26/26
f 29/29/29 30/30/30 26/26/26
f 33/33/33 32/32/32 31/31/31
f 34/34/34 33/33/33 31/31/31
f 37/37/37 36/36/36 35/35/35
f 38/38/38 37/37/37 35/35/35
f 37/37/37 39/39/39 36/36/36
f 39/39/39 40/40/40 36/36/36
f 43/43/43 42/42/42 41/41/41
f 44/44/44 43/43/43 41/41/41
f 47/47/47 46/46/46 45/45/45
f 48/48/48 47/47/47 45/45/45
f 51/51/51 50/50/50 49/49/49
f 52/52/52 51/51/51 49/49/49
f 53/53/53 51/51/51 52/52/52
f 54/54/54 53/53/53 52/52/52
f 55/55/55 53/53/53 54/54/54
f 56/56/56 55/55/55 54/54/54
f 59/59/59 58/58/58 57/57/57
f 60/60/60 59/59/59 57/57/57
f 61/61/61 59/59/59 60/60/60
f 62/62/62 61/61/61 60/60/60
f 65/65/65 64/64/64 63/63/63
f 66/66/66 65/65/65 63/63/63
f 63/63/63 64/64/64 67/67/67
f 64/64/64 68/68/68 67/67/67
f 71/71/71 70/70/70 69/69/69
f 72/72/72 71/71/71 69/69/69
f 75/75/75 74/74/74 73/73/73
f 76/76/76 75/75/75 73/73/73
f 79/79/79 78/78/78 77/77/77
f 80/80/80 79/79/79 77/77/77
f 83/83/83 82/82/82 81/81/81
f 84/84/84 83/83/83 81/81/81
f 87/87/87 86/86/86 85/85/85
f 88/88/88 87/87/87 85/85/85
f 91/91/91 90/90/90 89/89/89
f 92/92/92 91/91/91 89/89/89
f 95/95/95 94/94/94 93/93/93
f 96/96/96 95/95/95 93/93/93
f 99/99/99 98/98/98 97/97/97
f 100/100/100 99/99/99 97/97/97
f 101/101/101 99/99/99 100/100/100
f 102/102/102 101/101/101 100/100/100
f 103/103/103 101/101/101 102/102/102
f 104/104/104 103/103/103 102/102/102
f 107/107/107 106/106/106 105/105/105
f 108/108/108 107/107/107 105/105/105
f 109/109/109 107/107/107 108/108/108
f 110/110/110 109/109/109 108/108/108
f 113/113/113 112/112/112 111/111/111
f 114/114/114 113/113/113 111/111/111
f 111/111/111 112/112/112 115/115/115
f 112/112/112 116/116/116 115/115/115
f 119/119/119 118/118/118 117/117/117
f 120/120/120 119/119/119 117/117/117
f 123/123/123 122/122/122 121/121/121
f 124/124/124 123/123/123 121/121/121
f 127/127/127 126/126/126 125/125/125
f 128/128/128 127/127/127 125/125/125
f 131/131/131 130/130/130 129/129/129
f 132/132/132 131/131/131 129/129/129
f 135/135/135 134/134/134 133/133/133
f 136/136/136 135/135/135 133/133/133
f 139/139/139 138/138/138 137/137/137
f 140/140/140 139/139/139 137/137/137
f 143/143/143 142/142/142 141/141/141
f 144/144/144 143/143/143 141/141/141
