g Weapon_Pistol
v 0.04840805 -0.2126809 -0.05878238
v 0.04796534 -0.06174568 -0.05878726
v 0.0471376 -0.2126809 0.06174015
v 0.04669471 -0.06174552 0.06173543
v 0.0471376 -0.2126809 0.06174015
v 0.04669471 -0.06174552 0.06173543
v 0.1729976 -0.2116442 0.06306683
v 0.1712269 0.1873881 0.06304821
v -0.05762779 0.06275932 0.0606358
v -0.3584067 0.06290932 0.05746487
v -0.3592919 0.1863515 0.05745564
v -0.05729576 -0.06174583 0.06063923
v 0.1729976 -0.2116442 0.06306683
v 0.1712269 0.1873881 0.06304821
v 0.1742682 -0.2116442 -0.05745563
v 0.1724976 0.1873881 -0.05747424
v 0.04840805 -0.2126809 -0.05878238
v 0.1742682 -0.2116442 -0.05745563
v 0.04796534 -0.06174568 -0.05878726
v 0.1724976 0.1873881 -0.05747424
v -0.05635719 0.06275932 -0.05988697
v -0.3571362 0.06290932 -0.06305759
v -0.3580215 0.1863514 -0.06306689
v -0.05602516 -0.06174568 -0.05988353
v 0.1742682 -0.2116442 -0.05745563
v 0.04840805 -0.2126809 -0.05878238
v 0.1729976 -0.2116442 0.06306683
v 0.0471376 -0.2126809 0.06174015
v -0.3589743 0.1863515 0.0273248
v -0.3592919 0.1863515 0.05745564
v -0.3584067 0.06290932 0.05746487
v -0.358339 0.1863517 -0.03293644
v -0.3571362 0.06290932 -0.06305759
v -0.3580215 0.1863514 -0.06306689
v -0.3589744 0.2445122 0.02732487
v -0.358339 0.2445126 -0.03293644
v -0.2892985 0.2445122 0.02805943
v -0.2886632 0.2445124 -0.03220211
v -0.2892984 0.1863514 0.02805943
v -0.2892985 0.2445122 0.02805943
v -0.2886632 0.1863514 -0.03220195
v -0.2886632 0.2445124 -0.03220211
v -0.2886632 0.1863514 -0.03220195
v -0.358339 0.1863517 -0.03293644
v -0.3580215 0.1863514 -0.06306689
v 0.1724976 0.1873881 -0.05747424
v -0.2892984 0.1863514 0.02805943
v 0.1712269 0.1873881 0.06304821
v -0.3592919 0.1863515 0.05745564
v -0.3589743 0.1863515 0.0273248
v -0.3589743 0.1863515 0.0273248
v -0.358339 0.1863517 -0.03293644
v -0.3589744 0.2445122 0.02732487
v -0.358339 0.2445126 -0.03293644
v -0.05602516 -0.06174568 -0.05988353
v -0.05635719 0.06275932 -0.05988697
v -0.05729576 -0.06174583 0.06063923
v -0.05762779 0.06275932 0.0606358
v 0.04796534 -0.06174568 -0.05878726
v -0.05602516 -0.06174568 -0.05988353
v 0.04669471 -0.06174552 0.06173543
v -0.05729576 -0.06174583 0.06063923
v -0.05635719 0.06275932 -0.05988697
v -0.3571362 0.06290932 -0.06305759
v -0.05762779 0.06275932 0.0606358
v -0.3584067 0.06290932 0.05746487
v -0.2892984 0.1863514 0.02805943
v -0.3589743 0.1863515 0.0273248
v -0.2892985 0.2445122 0.02805943
v -0.3589744 0.2445122 0.02732487
v -0.358339 0.2445126 -0.03293644
v -0.358339 0.1863517 -0.03293644
v -0.2886632 0.2445124 -0.03220211
v -0.2886632 0.1863514 -0.03220195
vt 0.1608087 0.7243463
vt 0.1608087 0.7461277
vt 0.1782022 0.7243463
vt 0.1782022 0.7461277
vt 0.881982 0.3395934
vt 0.881618 0.4635261
vt 0.9853313 0.3404445
vt 0.9838772 0.6680894
vt 0.7959544 0.5657571
vt 0.5489713 0.5658801
vt 0.5482444 0.6672385
vt 0.7962267 0.463526
vt 0.249854 0.7754413
vt 0.249854 0.7038496
vt 0.2282294 0.7754413
vt 0.2282294 0.7038496
vt 0.8807061 0.3401023
vt 0.9840558 0.3409537
vt 0.8803426 0.4640351
vt 0.9826015 0.6685987
vt 0.7946789 0.5662662
vt 0.5476956 0.5663891
vt 0.5469686 0.6677477
vt 0.7949512 0.464035
vt 0.295173 0.93209
vt 0.295173 0.9410278
vt 0.3037318 0.93209
vt 0.3037318 0.9410278
vt 0.5736602 0.3024417
vt 0.5457804 0.3024416
vt 0.5457804 0.4166558
vt 0.6294195 0.3024416
vt 0.6572989 0.4166555
vt 0.6572989 0.3024415
vt 0.2049736 0.8314619
vt 0.2023507 0.8314619
vt 0.2049736 0.8344945
vt 0.2023507 0.8344945
vt 0.6036024 0.4674013
vt 0.6010712 0.4674013
vt 0.6036024 0.4700242
vt 0.6010712 0.4700242
vt 0.2091179 0.1184064
vt 0.2091179 0.07731761
vt 0.1913497 0.07731761
vt 0.1913497 0.3901709
vt 0.2446547 0.1184064
vt 0.2624232 0.3901709
vt 0.2624232 0.07731761
vt 0.2446547 0.07731761
vt 0.6219082 0.4562944
vt 0.623684 0.4562944
vt 0.6219082 0.4545805
vt 0.623684 0.4545805
vt 0.1243594 0.7243463
vt 0.1243594 0.7423136
vt 0.141753 0.7243463
vt 0.141753 0.7423136
vt 0.2821859 0.9497558
vt 0.2895706 0.9497558
vt 0.2821859 0.9411971
vt 0.2895706 0.9411971
vt 0.322076 0.93209
vt 0.322076 0.9534494
vt 0.3306348 0.93209
vt 0.3306348 0.9534494
vt 0.2699746 0.7511674
vt 0.2699746 0.7542001
vt 0.2725059 0.7511674
vt 0.2725059 0.7542001
vt 0.2782381 0.7512268
vt 0.2757069 0.7512268
vt 0.2782381 0.7542594
vt 0.2757069 0.7542594
vn -0.9999402 -0.002934268 -0.01054126
vn -0.9999402 -0.002934268 -0.01054126
vn -0.9999402 -0.002934268 -0.01054126
vn -0.9999402 -0.002934268 -0.01054126
vn -0.01054133 0 0.9999444
vn -0.01054133 0 0.9999444
vn -0.01054133 0 0.9999444
vn -0.01054133 0 0.9999444
vn -0.01054133 0 0.9999444
vn -0.01054133 0 0.9999444
vn -0.01054133 0 0.9999444
vn -0.01054133 0 0.9999444
vn 0.9999346 0.004437651 0.0105412
vn 0.9999346 0.004437651 0.0105412
vn 0.9999346 0.004437651 0.0105412
vn 0.9999346 0.004437651 0.0105412
vn 0.01054133 0 -0.9999444
vn 0.01054133 0 -0.9999444
vn 0.01054133 0 -0.9999444
vn 0.01054133 0 -0.9999444
vn 0.01054133 0 -0.9999444
vn 0.01054133 0 -0.9999444
vn 0.01054133 0 -0.9999444
vn 0.01054133 0 -0.9999444
vn 0.008235636 -0.9999661 8.681788E-05
vn 0.008235636 -0.9999661 8.681788E-05
vn 0.008235636 -0.9999661 8.681788E-05
vn 0.008235636 -0.9999661 8.681788E-05
vn -0.9999187 -0.00717171 -0.01054105
vn -0.9999187 -0.00717171 -0.01054105
vn -0.9999187 -0.00717171 -0.01054105
vn -0.9999187 -0.007171712 -0.01054102
vn -0.9999187 -0.007171712 -0.01054102
vn -0.9999187 -0.007171685 -0.01054105
vn 0 1 0
vn 0 1 0
vn 0 1 0
vn 0 1 0
vn 0.9999444 0 0.01054132
vn 0.9999444 0 0.01054132
vn 0.9999444 0 0.01054132
vn 0.9999444 0 0.01054132
vn 0 1 0
vn 0 1 0
vn 0 1 0
vn -0.002248853 0.9999975 -2.370495E-05
vn -0.001905418 0.9999878 -0.004542509
vn -0.001905418 0.9999878 -0.004542509
vn -0.001905418 0.9999878 -0.004542509
vn 0 1 0
vn -0.9999444 0 -0.01054132
vn -0.9999444 0 -0.01054132
vn -0.9999444 0 -0.01054132
vn -0.9999444 0 -0.01054132
vn -0.9999409 -0.002666797 -0.01054125
vn -0.9999409 -0.002666797 -0.01054125
vn -0.9999409 -0.002666797 -0.01054125
vn -0.9999409 -0.002666797 -0.01054125
vn 1.947541E-06 -1 0
vn 1.947541E-06 -1 0
vn 1.947541E-06 -1 0
vn 1.947541E-06 -1 0
vn -0.0004982922 -0.9999999 -5.255453E-06
vn -0.0004982922 -0.9999999 -5.255453E-06
vn -0.0004982922 -0.9999999 -5.255453E-06
vn -0.0004982922 -0.9999999 -5.255453E-06
vn -0.01054133 0 0.9999444
vn -0.01054133 0 0.9999444
vn -0.01054133 0 0.9999444
vn -0.01054133 0 0.9999444
vn 0.01054133 0 -0.9999444
vn 0.01054133 0 -0.9999444
vn 0.01054133 0 -0.9999444
vn 0.01054133 0 -0.9999444
f 3/3/3 2/2/2 1/1/1
f 3/3/3 4/4/4 2/2/2
f 7/7/7 6/6/6 5/5/5
f 7/7/7 8/8/8 6/6/6
f 8/8/8 9/9/9 6/6/6
f 10/10/10 9/9/9 8/8/8
f 8/8/8 11/11/11 10/10/10
f 9/9/9 12/12/12 6/6/6
f 15/15/15 14/14/14 13/13/13
f 15/15/15 16/16/16 14/14/14
f 19/19/19 18/18/18 17/17/17
f 19/19/19 20/20/20 18/18/18
f 19/19/19 21/21/21 20/20/20
f 21/21/21 22/22/22 20/20/20
f 22/22/22 23/23/23 20/20/20
f 19/19/19 24/24/24 21/21/21
f 27/27/27 26/26/26 25/25/25
f 27/27/27 28/28/28 26/26/26
f 31/31/31 30/30/30 29/29/29
f 31/31/31 29/29/29 32/32/32
f 31/31/31 32/32/32 33/33/33
f 32/32/32 34/34/34 33/33/33
f 37/37/37 36/36/36 35/35/35
f 37/37/37 38/38/38 36/36/36
f 41/41/41 40/40/40 39/39/39
f 41/41/41 42/42/42 40/40/40
f 45/45/45 44/44/44 43/43/43
f 45/45/45 43/43/43 46/46/46
f 46/46/46 43/43/43 47/47/47
f 46/46/46 47/47/47 48/48/48
f 48/48/48 47/47/47 49/49/49
f 47/47/47 50/50/50 49/49/49
f 53/53/53 52/52/52 51/51/51
f 53/53/53 54/54/54 52/52/52
f 57/57/57 56/56/56 55/55/55
f 57/57/57 58/58/58 56/56/56
f 61/61/61 60/60/60 59/59/59
f 61/61/61 62/62/62 60/60/60
f 65/65/65 64/64/64 63/63/63
f 65/65/65 66/66/66 64/64/64
f 69/69/69 68/68/68 67/67/67
f 69/69/69 70/70/70 68/68/68
f 73/73/73 72/72/72 71/71/71
f 73/73/73 74/74/74 72/72/72
