g Weapon_AssultRifle02
v -0.08844932 -0.05172195 0.04301804
v -0.131493 -0.05172195 0.05972053
v 0.1116903 -0.05172195 0.04512748
v 0.2237223 -0.05172211 0.06346519
v 0.1126538 -0.05172195 -0.04628471
v 0.2250477 -0.05172211 -0.0622567
v -0.1301677 -0.05172195 -0.06600151
v -0.08748566 -0.05172195 -0.04839455
v -0.131493 -0.05172195 0.05972053
v -0.131493 0.1762946 0.05972053
v 0.2237223 -0.05172211 0.06346519
v 0.4642954 0.1773758 0.06600143
v 0.3325448 -0.1674782 0.06461243
v 0.2240686 -0.1674785 0.06346893
v 0.4642954 -0.2606637 0.06600143
v 0.3330067 -0.2617452 0.06461739
v -0.131493 -0.05172195 0.05972053
v -0.1314075 -0.002010195 0.05160148
v -0.131493 0.1762946 0.05972053
v -0.1314075 0.1550357 0.05160156
v -0.1302533 -0.002010195 -0.05788223
v -0.1301677 -0.05172195 -0.06600151
v -0.1301676 0.1762947 -0.06600151
v -0.1302532 0.1550359 -0.05788223
v -0.1314075 -0.002010195 0.05160148
v -0.5885123 -0.002010195 0.04678291
v -0.1314075 0.1550357 0.05160156
v -0.5885123 0.1550357 0.04678291
v -0.5885123 -0.002010195 0.04678291
v -0.588276 0.05972854 0.02434853
v -0.5885123 0.1550357 0.04678291
v -0.588276 0.1279884 0.02434853
v -0.5875947 0.05972854 -0.0402665
v -0.5873582 -0.002010195 -0.06270103
v -0.5873583 0.1550357 -0.06270103
v -0.5875945 0.1279884 -0.0402665
v -0.588276 0.05972854 0.02434853
v -1.017093 0.05972854 0.01982781
v -0.588276 0.1279884 0.02434853
v -1.017093 0.1279884 0.01982781
v 0.1116903 -0.05172195 0.04512748
v 0.1116903 -0.2991206 0.04512748
v -0.08844932 -0.05172195 0.04301804
v -0.08844932 -0.2991206 0.04301788
v 1.016114 0.1541324 0.05537028
v 1.016114 -0.2181219 0.05537028
v 0.9351469 -0.2180171 0.05451678
v 0.4644901 0.0295816 0.04955513
v 0.464518 0.1541324 0.04955536
v -0.1314075 0.1550357 0.05160156
v -0.5885123 0.1550357 0.04678291
v -0.4610111 0.1550357 0.01700707
v -0.5759896 0.1550354 0.01579521
v -0.5754912 0.1550357 -0.03145592
v -0.5873583 0.1550357 -0.06270103
v -0.460513 0.1550352 -0.03024376
v -0.1302532 0.1550359 -0.05788223
v -0.4610111 0.1550357 0.01700707
v -0.5759896 0.1550354 0.01579521
v -0.5515586 0.2876353 0.01605263
v -0.5759894 0.2876352 0.01579506
v -0.131493 0.1762946 0.05972053
v -0.01285358 0.1762943 0.02518906
v 0.4642954 0.1773758 0.06600143
v 0.4001506 0.1773759 0.02954296
v 0.4656208 0.1773753 -0.05972057
v 0.4007216 0.1773755 -0.02462238
v -0.01228287 0.1762946 -0.02897621
v -0.1301676 0.1762947 -0.06600151
v -0.01285358 0.1762943 0.02518906
v -0.01182075 0.244886 0.02519997
v 0.4001506 0.1773759 0.02954296
v 0.3991175 0.2991205 0.02953205
v 0.464518 0.1541324 0.04955536
v 0.4644901 0.0295816 0.04955513
v 0.4642954 0.1773758 0.06600143
v 0.4642954 -0.2606637 0.06600143
v 0.4654963 0.1541325 -0.04327347
v 0.4656208 0.1773753 -0.05972057
v 0.4654687 0.0295816 -0.04327366
v 0.4656208 -0.2606637 -0.05972057
v 0.3991175 0.2991205 0.02953205
v -0.01182075 0.244886 0.02519997
v 0.3996887 0.2991206 -0.02463337
v -0.01124958 0.2448859 -0.02896522
v 0.4001506 0.1773759 0.02954296
v 0.3991175 0.2991205 0.02953205
v 0.4007216 0.1773755 -0.02462238
v 0.3996887 0.2991206 -0.02463337
v 1.016114 0.1541324 0.05537028
v 0.464518 0.1541324 0.04955536
v 1.017093 0.1541321 -0.03745862
v 0.4654963 0.1541325 -0.04327347
v 1.016114 -0.2181219 0.05537028
v 1.016114 0.1541324 0.05537028
v 1.017093 -0.2181219 -0.03745862
v 1.017093 0.1541321 -0.03745862
v 0.9351469 -0.2180171 0.05451678
v 1.016114 -0.2181219 0.05537028
v 0.9361253 -0.2180171 -0.03831211
v 1.017093 -0.2181219 -0.03745862
v 0.4644901 0.0295816 0.04955513
v 0.9351469 -0.2180171 0.05451678
v 0.4654687 0.0295816 -0.04327366
v 0.9361253 -0.2180171 -0.03831211
v 0.3330067 -0.2617452 0.06461739
v 0.4642954 -0.2606637 0.06600143
v 0.3343318 -0.2617452 -0.06110451
v 0.4656208 -0.2606637 -0.05972057
v 0.3325448 -0.1674782 0.06461243
v 0.3330067 -0.2617452 0.06461739
v 0.3338697 -0.1674782 -0.06110939
v 0.3343318 -0.2617452 -0.06110451
v 0.2240686 -0.1674785 0.06346893
v 0.3325448 -0.1674782 0.06461243
v 0.2253941 -0.1674785 -0.06225296
v 0.3338697 -0.1674782 -0.06110939
v 0.2237223 -0.05172211 0.06346519
v 0.2240686 -0.1674785 0.06346893
v 0.2250477 -0.05172211 -0.0622567
v 0.2253941 -0.1674785 -0.06225296
v 0.1116903 -0.2991206 0.04512748
v 0.1116903 -0.05172195 0.04512748
v 0.1126538 -0.2991206 -0.04628471
v 0.1126538 -0.05172195 -0.04628471
v -0.08844932 -0.2991206 0.04301788
v 0.1116903 -0.2991206 0.04512748
v -0.08748566 -0.2991206 -0.04839455
v 0.1126538 -0.2991206 -0.04628471
v -0.08844932 -0.05172195 0.04301804
v -0.08844932 -0.2991206 0.04301788
v -0.08748566 -0.05172195 -0.04839455
v -0.08748566 -0.2991206 -0.04839455
v -0.5885123 -0.002010195 0.04678291
v -0.1314075 -0.002010195 0.05160148
v -0.5873582 -0.002010195 -0.06270103
v -0.1302533 -0.002010195 -0.05788223
v -1.017093 0.05972854 0.01982781
v -0.588276 0.05972854 0.02434853
v -1.016412 0.05972854 -0.04478706
v -0.5875947 0.05972854 -0.0402665
v -1.017093 0.1279884 0.01982781
v -1.017093 0.05972854 0.01982781
v -1.016412 0.1279884 -0.04478706
v -1.016412 0.05972854 -0.04478706
v -0.588276 0.1279884 0.02434853
v -1.017093 0.1279884 0.01982781
v -0.5875945 0.1279884 -0.0402665
v -1.016412 0.1279884 -0.04478706
v -0.5759894 0.2876352 0.01579506
v -0.5759896 0.1550354 0.01579521
v -0.5754912 0.2876353 -0.03145592
v -0.5754912 0.1550357 -0.03145592
v -0.5515586 0.2876353 0.01605263
v -0.5759894 0.2876352 0.01579506
v -0.5510603 0.2876353 -0.03119835
v -0.5754912 0.2876353 -0.03145592
v -0.4610111 0.1550357 0.01700707
v -0.5515586 0.2876353 0.01605263
v -0.460513 0.1550352 -0.03024376
v -0.5510603 0.2876353 -0.03119835
v -0.01182075 0.244886 0.02519997
v -0.01285358 0.1762943 0.02518906
v -0.01124958 0.2448859 -0.02896522
v -0.01228287 0.1762946 -0.02897621
v 0.4656208 0.1773753 -0.05972057
v -0.1301676 0.1762947 -0.06600151
v 0.2250477 -0.05172211 -0.0622567
v -0.1301677 -0.05172195 -0.06600151
v 0.3338697 -0.1674782 -0.06110939
v 0.2253941 -0.1674785 -0.06225296
v 0.4656208 -0.2606637 -0.05972057
v 0.3343318 -0.2617452 -0.06110451
v -0.1302533 -0.002010195 -0.05788223
v -0.1302532 0.1550359 -0.05788223
v -0.5873582 -0.002010195 -0.06270103
v -0.5873583 0.1550357 -0.06270103
v -0.5875947 0.05972854 -0.0402665
v -0.5875945 0.1279884 -0.0402665
v -1.016412 0.05972854 -0.04478706
v -1.016412 0.1279884 -0.04478706
v 0.1126538 -0.05172195 -0.04628471
v -0.08748566 -0.05172195 -0.04839455
v 0.1126538 -0.2991206 -0.04628471
v -0.08748566 -0.2991206 -0.04839455
v 1.017093 0.1541321 -0.03745862
v 0.9361253 -0.2180171 -0.03831211
v 1.017093 -0.2181219 -0.03745862
v 0.4654687 0.0295816 -0.04327366
v 0.4654963 0.1541325 -0.04327347
v -0.5754912 0.2876353 -0.03145592
v -0.5754912 0.1550357 -0.03145592
v -0.5510603 0.2876353 -0.03119835
v -0.460513 0.1550352 -0.03024376
v -0.01228287 0.1762946 -0.02897621
v 0.4007216 0.1773755 -0.02462238
v -0.01124958 0.2448859 -0.02896522
v 0.3996887 0.2991206 -0.02463337
vt 0.2968103 0.6978559
vt 0.3263478 0.6860344
vt 0.1791214 0.6978559
vt 0.08156341 0.6860344
vt 0.1791214 0.7608497
vt 0.08156341 0.7726715
vt 0.3263477 0.7726713
vt 0.2968103 0.7608497
vt 0.5715904 0.5464711
vt 0.5715902 0.7035922
vt 0.8163745 0.546471
vt 0.9821566 0.704337
vt 0.8913653 0.4667062
vt 0.8166132 0.466706
vt 0.9821568 0.4024941
vt 0.8916837 0.4017488
vt 0.1675022 0.6895384
vt 0.2152721 0.6951334
vt 0.3246231 0.6895385
vt 0.3099743 0.6951332
vt 0.2152722 0.7705804
vt 0.1675022 0.7761753
vt 0.3246232 0.7761753
vt 0.3099743 0.7705803
vt 0.09019008 0.08630693
vt 0.09018978 0.4013051
vt 0.1848919 0.08630693
vt 0.1848918 0.4013052
vt 0.09018978 0.4013051
vt 0.1192179 0.416765
vt 0.1848918 0.4013052
vt 0.1662541 0.416765
vt 0.119218 0.4612923
vt 0.09018975 0.4767523
vt 0.1848919 0.4767522
vt 0.1662542 0.4612923
vt 0.07022512 0.9030872
vt 0.4184654 0.903087
vt 0.07022497 0.8583074
vt 0.4184657 0.858307
vt 0.4570619 0.3463252
vt 0.4570618 0.1251621
vt 0.3448499 0.3463252
vt 0.3448501 0.1251621
vt 0.9245714 0.304921
vt 0.9245714 0.05117536
vt 0.8687757 0.05124748
vt 0.544439 0.2218622
vt 0.5444578 0.3049209
vt 0.1848919 0.08630693
vt 0.1848918 0.4013052
vt 0.2063347 0.3136682
vt 0.2063347 0.3929014
vt 0.238896 0.3929013
vt 0.2603388 0.4013052
vt 0.238896 0.3136682
vt 0.2603389 0.08630681
vt 0.4936567 0.3874892
vt 0.414424 0.3874887
vt 0.4312594 0.4577259
vt 0.4144233 0.457724
vt 0.5715902 0.7035922
vt 0.6097527 0.7283169
vt 0.9821566 0.704337
vt 0.9366084 0.7289099
vt 0.9819994 0.7909737
vt 0.9365407 0.7662358
vt 0.6096848 0.7656429
vt 0.5714334 0.7902288
vt 0.05068564 0.518533
vt 0.05068541 0.5645081
vt 0.3766753 0.518533
vt 0.3766753 0.6024168
vt 0.1117742 0.7010813
vt 0.1975994 0.7010813
vt 0.07666454 0.6897478
vt 0.3785074 0.6897479
vt 0.1117742 0.7650512
vt 0.07666451 0.7763848
vt 0.1975994 0.7650512
vt 0.3785075 0.7763847
vt 0.04812098 0.6605752
vt 0.3730408 0.6605752
vt 0.04812101 0.623249
vt 0.3730408 0.6232492
vt 0.3766753 0.518533
vt 0.3766753 0.6024168
vt 0.413998 0.5185331
vt 0.413998 0.6024168
vt 0.9245714 0.304921
vt 0.5444578 0.3049209
vt 0.9245713 0.371657
vt 0.5444579 0.3716571
vt 0.9245714 0.05117536
vt 0.9245714 0.304921
vt 0.9885414 0.05117542
vt 0.9885411 0.304921
vt 0.5326694 0.506438
vt 0.5326694 0.4506422
vt 0.4686996 0.506438
vt 0.4686996 0.4506422
vt 0.5326694 0.8307748
vt 0.5326694 0.506438
vt 0.4686996 0.8307748
vt 0.4686996 0.506438
vt 0.6806459 0.9153023
vt 0.6806459 0.8248291
vt 0.594009 0.9153023
vt 0.594009 0.8248291
vt 0.933246 0.818395
vt 0.8682889 0.818395
vt 0.933246 0.905032
vt 0.8682889 0.905032
vt 0.7711557 0.8226719
vt 0.6964034 0.8226719
vt 0.7711557 0.9093088
vt 0.6964034 0.9093088
vt 0.8615164 0.822624
vt 0.7817514 0.822624
vt 0.8615164 0.909261
vt 0.7817514 0.909261
vt 0.4570618 0.1251621
vt 0.4570619 0.3463252
vt 0.5218013 0.1231768
vt 0.5218015 0.3463252
vt 0.3448501 0.1251621
vt 0.4570618 0.1251621
vt 0.3431042 0.06018317
vt 0.4588079 0.06018329
vt 0.3448499 0.3463252
vt 0.3448501 0.1251621
vt 0.278125 0.3463252
vt 0.2781253 0.1231768
vt 0.09018978 0.4013051
vt 0.09019008 0.08630693
vt 0.01474285 0.401305
vt 0.01474309 0.08630699
vt 0.4184654 0.903087
vt 0.07022512 0.9030872
vt 0.4184657 0.9476141
vt 0.070225 0.9476144
vt 0.4184657 0.858307
vt 0.4184654 0.903087
vt 0.4629931 0.8583077
vt 0.4629926 0.9030874
vt 0.07022497 0.8583074
vt 0.4184657 0.858307
vt 0.07022515 0.8115234
vt 0.4184654 0.8115235
vt 0.4144233 0.457724
vt 0.414424 0.3874887
vt 0.3818614 0.4577239
vt 0.3818632 0.3874879
vt 0.4312594 0.4577259
vt 0.4144233 0.457724
vt 0.4312513 0.4902882
vt 0.4144156 0.490284
vt 0.3635416 0.4492381
vt 0.3635417 0.3892482
vt 0.3382263 0.4492381
vt 0.3382263 0.3892482
vt 0.05068541 0.5645081
vt 0.05068564 0.518533
vt 0.01336312 0.5645081
vt 0.01336312 0.518533
vt 0.9821566 0.704337
vt 0.5715902 0.7035922
vt 0.8163745 0.546471
vt 0.5715904 0.5464711
vt 0.8913653 0.4667062
vt 0.8166132 0.466706
vt 0.9821568 0.4024941
vt 0.8916837 0.4017488
vt 0.09019008 0.08630693
vt 0.1848919 0.08630693
vt 0.09018978 0.4013051
vt 0.1848918 0.4013052
vt 0.07022512 0.9030872
vt 0.07022497 0.8583074
vt 0.4184654 0.903087
vt 0.4184657 0.858307
vt 0.4570619 0.3463252
vt 0.3448499 0.3463252
vt 0.4570618 0.1251621
vt 0.3448501 0.1251621
vt 0.9245714 0.304921
vt 0.8687757 0.05124748
vt 0.9245714 0.05117536
vt 0.544439 0.2218622
vt 0.5444578 0.3049209
vt 0.4144233 0.457724
vt 0.414424 0.3874887
vt 0.4312594 0.4577259
vt 0.4936567 0.3874892
vt 0.05068564 0.518533
vt 0.3766753 0.518533
vt 0.05068541 0.5645081
vt 0.3766753 0.6024168
vn 0 -1 -3.894791E-06
vn 0 -1 -3.894791E-06
vn 0 -1 -3.894791E-06
vn 0 -1 -3.894791E-06
vn 0 -1 3.889203E-06
vn 0 -1 3.889203E-06
vn 0 -1 3.889203E-06
vn 0 -1 3.889203E-06
vn -0.01054133 0 0.9999444
vn -0.01054133 0 0.9999444
vn -0.01054133 0 0.9999444
vn -0.01054133 0 0.9999444
vn -0.01054133 0 0.9999444
vn -0.01054133 0 0.9999444
vn -0.01054133 0 0.9999444
vn -0.01054133 4.954636E-07 0.9999444
vn -0.9999446 0 -0.01052573
vn -0.9999446 0 -0.01052573
vn -0.9999446 0 -0.01052573
vn -0.9999446 0 -0.01052573
vn -0.9999443 0 -0.01055687
vn -0.9999443 0 -0.01055687
vn -0.9999443 0 -0.01055687
vn -0.9999443 0 -0.01055687
vn -0.01054133 0 0.9999444
vn -0.01054133 0 0.9999444
vn -0.01054133 0 0.9999444
vn -0.01054133 0 0.9999444
vn -0.9999444 0 -0.01054132
vn -0.9999444 0 -0.01054132
vn -0.9999444 0 -0.01054132
vn -0.9999444 0 -0.01054132
vn -0.9999444 0 -0.01054132
vn -0.9999444 0 -0.01054132
vn -0.9999444 0 -0.01054132
vn -0.9999444 0 -0.01054132
vn -0.01054133 0 0.9999444
vn -0.01054133 0 0.9999444
vn -0.01054133 0 0.9999444
vn -0.01054133 0 0.9999444
vn -0.01054133 0 0.9999444
vn -0.01054133 0 0.9999444
vn -0.01054133 0 0.9999444
vn -0.01054133 0 0.9999444
vn -0.01054133 0 0.9999444
vn -0.01054133 0 0.9999444
vn -0.01054133 0 0.9999444
vn -0.01054133 0 0.9999444
vn -0.01054133 0 0.9999444
vn 0 1 0
vn 0 1 0
vn 0 1 0
vn 0 1 0
vn 0 1 0
vn 0 1 0
vn 0 1 0
vn 0 1 0
vn -0.01054133 -2.458692E-07 0.9999444
vn -0.01054133 -2.458692E-07 0.9999444
vn -0.01054133 -2.458692E-07 0.9999444
vn -0.01054133 -2.458692E-07 0.9999444
vn -0.002125911 0.9999964 -0.001632077
vn -0.002125911 0.9999964 -0.001632077
vn -0.002125911 0.9999964 -0.001632077
vn -0.002125911 0.9999964 -0.001632077
vn -0.002159845 0.9999964 0.0015869
vn -0.002159845 0.9999964 0.0015869
vn -0.002159845 0.9999964 0.0015869
vn -0.002159845 0.9999964 0.0015869
vn -0.01054133 1.713634E-07 0.9999444
vn -0.01054133 1.713634E-07 0.9999444
vn -0.01054133 1.713634E-07 0.9999444
vn -0.01054133 1.713634E-07 0.9999444
vn 0.9999245 -4.895578E-05 0.01229047
vn 0.9999245 -4.895578E-05 0.01229047
vn 0.9999245 -4.895578E-05 0.01229047
vn 0.9999245 -4.895578E-05 0.01229047
vn 0.9999614 -4.895566E-05 0.008790785
vn 0.9999614 -4.895566E-05 0.008790785
vn 0.9999614 -4.895566E-05 0.008790785
vn 0.9999614 -4.895566E-05 0.008790785
vn -0.1308285 0.9914041 -0.001379181
vn -0.1308285 0.9914041 -0.001379181
vn -0.1308285 0.9914041 -0.001379181
vn -0.1308285 0.9914041 -0.001379181
vn 0.9999084 0.008485433 0.01054092
vn 0.9999084 0.008485433 0.01054092
vn 0.9999084 0.008485433 0.01054092
vn 0.9999084 0.008485433 0.01054092
vn 0 1 0
vn 0 1 0
vn 0 1 0
vn 0 1 0
vn 0.9999444 0 0.01054132
vn 0.9999444 0 0.01054132
vn 0.9999444 0 0.01054132
vn 0.9999444 0 0.01054132
vn -0.001294202 -0.9999992 -1.364667E-05
vn -0.001294202 -0.9999992 -1.364667E-05
vn -0.001294202 -0.9999992 -1.364667E-05
vn -0.001294202 -0.9999992 -1.364667E-05
vn -0.4655306 -0.8850182 -0.004907578
vn -0.4655306 -0.8850182 -0.004907578
vn -0.4655306 -0.8850182 -0.004907578
vn -0.4655306 -0.8850182 -0.004907578
vn 0.008235531 -0.9999661 8.681695E-05
vn 0.008235531 -0.9999661 8.681695E-05
vn 0.008235531 -0.9999661 8.681695E-05
vn 0.008235531 -0.9999661 8.681695E-05
vn -0.9999324 -0.004901302 -0.01054117
vn -0.9999324 -0.004901302 -0.01054117
vn -0.9999324 -0.004901302 -0.01054117
vn -0.9999324 -0.004901302 -0.01054117
vn 2.684741E-06 -1 0
vn 2.684741E-06 -1 0
vn 2.684741E-06 -1 0
vn 2.684741E-06 -1 0
vn -0.99994 -0.002992916 -0.01054126
vn -0.99994 -0.002992916 -0.01054126
vn -0.99994 -0.002992916 -0.01054126
vn -0.99994 -0.002992916 -0.01054126
vn 0.9999444 0 0.01054132
vn 0.9999444 0 0.01054132
vn 0.9999444 0 0.01054132
vn 0.9999444 0 0.01054132
vn 0 -1 0
vn 0 -1 0
vn 0 -1 0
vn 0 -1 0
vn -0.9999444 0 -0.01054132
vn -0.9999444 0 -0.01054132
vn -0.9999444 0 -0.01054132
vn -0.9999444 0 -0.01054132
vn 0 -1 0
vn 0 -1 0
vn 0 -1 0
vn 0 -1 0
vn 0 -1 0
vn 0 -1 0
vn 0 -1 0
vn 0 -1 0
vn -0.9999444 0 -0.01054132
vn -0.9999444 0 -0.01054132
vn -0.9999444 0 -0.01054132
vn -0.9999444 0 -0.01054132
vn 0 1 0
vn 0 1 0
vn 0 1 0
vn 0 1 0
vn -0.9999444 0 -0.01054132
vn -0.9999444 0 -0.01054132
vn -0.9999444 0 -0.01054132
vn -0.9999444 0 -0.01054132
vn 0 1 0
vn 0 1 0
vn 0 1 0
vn 0 1 0
vn 0.8257654 0.5639465 0.008705135
vn 0.8257654 0.5639465 0.008705135
vn 0.8257654 0.5639465 0.008705135
vn 0.8257654 0.5639465 0.008705135
vn -0.999831 0.01506099 -0.01054012
vn -0.999831 0.01506099 -0.01054012
vn -0.999831 0.01506099 -0.01054012
vn -0.999831 0.01506099 -0.01054012
vn 0.01054133 0 -0.9999444
vn 0.01054133 0 -0.9999444
vn 0.01054133 0 -0.9999444
vn 0.01054133 0 -0.9999444
vn 0.01054133 0 -0.9999444
vn 0.01054133 0 -0.9999444
vn 0.01054133 0 -0.9999444
vn 0.01054133 0 -0.9999444
vn 0.01054133 0 -0.9999444
vn 0.01054133 0 -0.9999444
vn 0.01054133 0 -0.9999444
vn 0.01054133 0 -0.9999444
vn 0.01054133 0 -0.9999444
vn 0.01054133 0 -0.9999444
vn 0.01054133 0 -0.9999444
vn 0.01054133 0 -0.9999444
vn 0.01054133 0 -0.9999444
vn 0.01054133 0 -0.9999444
vn 0.01054133 0 -0.9999444
vn 0.01054133 0 -0.9999444
vn 0.01054133 0 -0.9999444
vn 0.01054133 0 -0.9999444
vn 0.01054133 0 -0.9999444
vn 0.01054133 0 -0.9999444
vn 0.01054133 0 -0.9999444
vn 0.01054133 -3.324822E-07 -0.9999444
vn 0.01054133 -3.324822E-07 -0.9999444
vn 0.01054133 -3.324822E-07 -0.9999444
vn 0.01054133 -3.324822E-07 -0.9999444
vn 0.01054133 0 -0.9999444
vn 0.01054133 0 -0.9999444
vn 0.01054133 0 -0.9999444
vn 0.01054133 0 -0.9999444
f 3/3/3 2/2/2 1/1/1
f 3/3/3 4/4/4 2/2/2
f 5/5/5 4/4/4 3/3/3
f 5/5/5 6/6/6 4/4/4
f 7/7/7 6/6/6 5/5/5
f 7/7/7 1/1/1 2/2/2
f 7/7/7 5/5/5 8/8/8
f 7/7/7 8/8/8 1/1/1
f 11/11/11 10/10/10 9/9/9
f 11/11/11 12/12/12 10/10/10
f 11/11/11 13/13/13 12/12/12
f 11/11/11 14/14/14 13/13/13
f 13/13/13 15/15/15 12/12/12
f 13/13/13 16/16/16 15/15/15
f 19/19/19 18/18/18 17/17/17
f 19/19/19 20/20/20 18/18/18
f 21/21/21 17/17/17 18/18/18
f 21/21/21 22/22/22 17/17/17
f 21/21/21 23/23/23 22/22/22
f 23/23/23 20/20/20 19/19/19
f 21/21/21 24/24/24 23/23/23
f 23/23/23 24/24/24 20/20/20
f 27/27/27 26/26/26 25/25/25
f 27/27/27 28/28/28 26/26/26
f 31/31/31 30/30/30 29/29/29
f 31/31/31 32/32/32 30/30/30
f 33/33/33 29/29/29 30/30/30
f 33/33/33 34/34/34 29/29/29
f 33/33/33 35/35/35 34/34/34
f 35/35/35 32/32/32 31/31/31
f 33/33/33 36/36/36 35/35/35
f 35/35/35 36/36/36 32/32/32
f 39/39/39 38/38/38 37/37/37
f 39/39/39 40/40/40 38/38/38
f 43/43/43 42/42/42 41/41/41
f 43/43/43 44/44/44 42/42/42
f 47/47/47 46/46/46 45/45/45
f 48/48/48 47/47/47 45/45/45
f 48/48/48 45/45/45 49/49/49
f 52/52/52 51/51/51 50/50/50
f 52/52/52 53/53/53 51/51/51
f 54/54/54 51/51/51 53/53/53
f 54/54/54 55/55/55 51/51/51
f 56/56/56 55/55/55 54/54/54
f 56/56/56 57/57/57 55/55/55
f 57/57/57 52/52/52 50/50/50
f 57/57/57 56/56/56 52/52/52
f 60/60/60 59/59/59 58/58/58
f 60/60/60 61/61/61 59/59/59
f 64/64/64 63/63/63 62/62/62
f 64/64/64 65/65/65 63/63/63
f 66/66/66 65/65/65 64/64/64
f 66/66/66 67/67/67 65/65/65
f 68/68/68 67/67/67 66/66/66
f 68/68/68 62/62/62 63/63/63
f 68/68/68 66/66/66 69/69/69
f 68/68/68 69/69/69 62/62/62
f 72/72/72 71/71/71 70/70/70
f 72/72/72 73/73/73 71/71/71
f 76/76/76 75/75/75 74/74/74
f 76/76/76 77/77/77 75/75/75
f 78/78/78 76/76/76 74/74/74
f 78/78/78 79/79/79 76/76/76
f 79/79/79 78/78/78 80/80/80
f 79/79/79 80/80/80 81/81/81
f 81/81/81 75/75/75 77/77/77
f 81/81/81 80/80/80 75/75/75
f 84/84/84 83/83/83 82/82/82
f 84/84/84 85/85/85 83/83/83
f 88/88/88 87/87/87 86/86/86
f 88/88/88 89/89/89 87/87/87
f 92/92/92 91/91/91 90/90/90
f 92/92/92 93/93/93 91/91/91
f 96/96/96 95/95/95 94/94/94
f 96/96/96 97/97/97 95/95/95
f 100/100/100 99/99/99 98/98/98
f 100/100/100 101/101/101 99/99/99
f 104/104/104 103/103/103 102/102/102
f 104/104/104 105/105/105 103/103/103
f 108/108/108 107/107/107 106/106/106
f 108/108/108 109/109/109 107/107/107
f 112/112/112 111/111/111 110/110/110
f 112/112/112 113/113/113 111/111/111
f 116/116/116 115/115/115 114/114/114
f 116/116/116 117/117/117 115/115/115
f 120/120/120 119/119/119 118/118/118
f 120/120/120 121/121/121 119/119/119
f 124/124/124 123/123/123 122/122/122
f 124/124/124 125/125/125 123/123/123
f 128/128/128 127/127/127 126/126/126
f 128/128/128 129/129/129 127/127/127
f 132/132/132 131/131/131 130/130/130
f 132/132/132 133/133/133 131/131/131
f 136/136/136 135/135/135 134/134/134
f 136/136/136 137/137/137 135/135/135
f 140/140/140 139/139/139 138/138/138
f 140/140/140 141/141/141 139/139/139
f 144/144/144 143/143/143 142/142/142
f 144/144/144 145/145/145 143/143/143
f 148/148/148 147/147/147 146/146/146
f 148/148/148 149/149/149 147/147/147
f 152/152/152 151/151/151 150/150/150
f 152/152/152 153/153/153 151/151/151
f 156/156/156 155/155/155 154/154/154
f 156/156/156 157/157/157 155/155/155
f 160/160/160 159/159/159 158/158/158
f 160/160/160 161/161/161 159/159/159
f 164/164/164 163/163/163 162/162/162
f 164/164/164 165/165/165 163/163/163
f 168/168/168 167/167/167 166/166/166
f 168/168/168 169/169/169 167/167/167
f 170/170/170 168/168/168 166/166/166
f 171/171/171 168/168/168 170/170/170
f 172/172/172 170/170/170 166/166/166
f 173/173/173 170/170/170 172/172/172
f 176/176/176 175/175/175 174/174/174
f 176/176/176 177/177/177 175/175/175
f 180/180/180 179/179/179 178/178/178
f 180/180/180 181/181/181 179/179/179
f 184/184/184 183/183/183 182/182/182
f 184/184/184 185/185/185 183/183/183
f 188/188/188 187/187/187 186/186/186
f 189/189/189 186/186/186 187/187/187
f 189/189/189 190/190/190 186/186/186
f 193/193/193 192/192/192 191/191/191
f 193/193/193 194/194/194 192/192/192
f 197/197/197 196/196/196 195/195/195
f 197/197/197 198/198/198 196/196/196
