g Weapon_MinigunBarrel
v -0.6316941 -0.1632845 0.1543742
v -0.6412743 -0.1607942 -0.1115474
v -0.643642 0.1025367 0.1572935
v -0.6532224 0.1050268 -0.1086279
v -0.6412743 -0.1607942 -0.1115474
v -0.5613718 -0.1571714 -0.114392
v -0.6532224 0.1050268 -0.1086279
v -0.5733198 0.1086496 -0.1114726
v -0.5613718 -0.1571714 -0.114392
v -0.5517915 -0.1596617 0.1515294
v -0.5733198 0.1086496 -0.1114726
v -0.5637396 0.1061594 0.1544489
v -0.5517915 -0.1596617 0.1515294
v -0.6316941 -0.1632845 0.1543742
v -0.5637396 0.1061594 0.1544489
v -0.643642 0.1025367 0.1572935
v -0.643642 0.1025367 0.1572935
v -0.6532224 0.1050268 -0.1086279
v -0.5637396 0.1061594 0.1544489
v -0.5733198 0.1086496 -0.1114726
v -0.5517915 -0.1596617 0.1515294
v -0.5613718 -0.1571714 -0.114392
v -0.6316941 -0.1632845 0.1543742
v -0.6412743 -0.1607942 -0.1115474
v -1.670372 -0.1841009 0.01991073
v -1.67292 -0.1834388 -0.05082154
v -1.67355 -0.1133956 0.02068732
v -1.676098 -0.1127332 -0.05004502
v -1.67292 -0.1834388 -0.05082154
v -0.2881864 -0.1206554 -0.1001215
v -1.676098 -0.1127332 -0.05004502
v -0.2913645 -0.04994988 -0.09934495
v -0.285638 -0.1213178 -0.0293892
v -1.670372 -0.1841009 0.01991073
v -0.2888162 -0.05061229 -0.02861268
v -1.67355 -0.1133956 0.02068732
v -1.67355 -0.1133956 0.02068732
v -1.676098 -0.1127332 -0.05004502
v -0.2888162 -0.05061229 -0.02861268
v -0.2913645 -0.04994988 -0.09934495
v -0.285638 -0.1213178 -0.0293892
v -0.2881864 -0.1206554 -0.1001215
v -1.670372 -0.1841009 0.01991073
v -1.67292 -0.1834388 -0.05082154
v -1.679508 -0.03639934 -0.0485936
v -1.682686 0.03430619 -0.04781723
v -1.67696 -0.03706155 0.02213851
v -1.680138 0.03364396 0.02291503
v -1.682686 0.03430619 -0.04781723
v -0.2979518 0.09708943 -0.09711716
v -1.680138 0.03364396 0.02291503
v -0.2954036 0.09642723 -0.02638474
v -0.2947737 0.02638398 -0.09789353
v -1.679508 -0.03639934 -0.0485936
v -0.2922256 0.02572172 -0.02716141
v -1.67696 -0.03706155 0.02213851
v -1.67696 -0.03706155 0.02213851
v -1.680138 0.03364396 0.02291503
v -0.2922256 0.02572172 -0.02716141
v -0.2954036 0.09642723 -0.02638474
v -0.2947737 0.02638398 -0.09789353
v -0.2979518 0.09708943 -0.09711716
v -1.679508 -0.03639934 -0.0485936
v -1.682686 0.03430619 -0.04781723
v -1.677359 0.03231611 0.0992768
v -1.674811 0.03165406 0.1700089
v -1.674181 -0.03838922 0.09850013
v -1.671633 -0.03905163 0.1692325
v -1.674811 0.03165406 0.1700089
v -0.2900765 0.09443717 0.1207092
v -1.671633 -0.03905163 0.1692325
v -0.2868983 0.02373166 0.1199324
v -0.2926249 0.09509955 0.04997695
v -1.677359 0.03231611 0.0992768
v -0.2894466 0.02439404 0.04920028
v -1.674181 -0.03838922 0.09850013
v -1.674181 -0.03838922 0.09850013
v -1.671633 -0.03905163 0.1692325
v -0.2894466 0.02439404 0.04920028
v -0.2868983 0.02373166 0.1199324
v -0.2926249 0.09509955 0.04997695
v -0.2900765 0.09443717 0.1207092
v -1.677359 0.03231611 0.0992768
v -1.674811 0.03165406 0.1700089
v -1.668223 -0.1153855 0.1677813
v -1.665045 -0.186091 0.1670046
v -1.670771 -0.1147232 0.09704894
v -1.667593 -0.1854286 0.09627242
v -1.665045 -0.186091 0.1670046
v -0.2803108 -0.1233077 0.1177046
v -1.667593 -0.1854286 0.09627242
v -0.2828592 -0.1226453 0.0469725
v -0.2834891 -0.05260218 0.1184814
v -1.668223 -0.1153855 0.1677813
v -0.2860373 -0.05193995 0.04774886
v -1.670771 -0.1147232 0.09704894
v -1.670771 -0.1147232 0.09704894
v -1.667593 -0.1854286 0.09627242
v -0.2860373 -0.05193995 0.04774886
v -0.2828592 -0.1226453 0.0469725
v -0.2834891 -0.05260218 0.1184814
v -0.2803108 -0.1233077 0.1177046
v -1.668223 -0.1153855 0.1677813
v -1.665045 -0.186091 0.1670046
v -0.3461432 -0.1503377 0.1442077
v -0.3557236 -0.1478475 -0.1217137
v -0.3580914 0.1154834 0.1471272
v -0.3676718 0.1179736 -0.1187941
v -0.3557236 -0.1478475 -0.1217137
v -0.2879474 -0.1447747 -0.1241267
v -0.3676718 0.1179736 -0.1187941
v -0.2998954 0.1210463 -0.1212071
v -0.278367 -0.1472646 0.1417947
v -0.3461432 -0.1503377 0.1442077
v -0.2903152 0.1185565 0.1447142
v -0.3580914 0.1154834 0.1471272
v -0.3580914 0.1154834 0.1471272
v -0.3676718 0.1179736 -0.1187941
v -0.2903152 0.1185565 0.1447142
v -0.2998954 0.1210463 -0.1212071
v -0.278367 -0.1472646 0.1417947
v -0.2879474 -0.1447747 -0.1241267
v -0.3461432 -0.1503377 0.1442077
v -0.3557236 -0.1478475 -0.1217137
v -1.598782 -0.2071319 0.1888048
v -1.608363 -0.2046417 -0.07711671
v -1.610731 0.05868943 0.1917242
v -1.62031 0.06117949 -0.07419716
v -1.608363 -0.2046417 -0.07711671
v -1.52846 -0.2010189 -0.0799614
v -1.62031 0.06117949 -0.07419716
v -1.540408 0.06480225 -0.07704186
v -1.52846 -0.2010189 -0.0799614
v -1.51888 -0.2035091 0.18596
v -1.540408 0.06480225 -0.07704186
v -1.530828 0.06231219 0.1888796
v -1.51888 -0.2035091 0.18596
v -1.598782 -0.2071319 0.1888048
v -1.530828 0.06231219 0.1888796
v -1.610731 0.05868943 0.1917242
v -1.610731 0.05868943 0.1917242
v -1.62031 0.06117949 -0.07419716
v -1.530828 0.06231219 0.1888796
v -1.540408 0.06480225 -0.07704186
v -1.51888 -0.2035091 0.18596
v -1.52846 -0.2010189 -0.0799614
v -1.598782 -0.2071319 0.1888048
v -1.608363 -0.2046417 -0.07711671
vt 0.4062459 0.5898835
vt 0.4062459 0.5901681
vt 0.4065304 0.5898835
vt 0.4065304 0.5901681
vt 0.659379 0.8448568
vt 0.6593251 0.8448568
vt 0.659379 0.8459952
vt 0.6593251 0.8459952
vt 0.4071625 0.5890577
vt 0.4071625 0.5893424
vt 0.4074472 0.5890577
vt 0.4074472 0.5893424
vt 0.6263949 0.9479072
vt 0.6263275 0.9479072
vt 0.6263949 0.9493303
vt 0.6263275 0.9493303
vt 0.6503664 0.8904927
vt 0.6503664 0.8878837
vt 0.6502452 0.8904927
vt 0.6502452 0.8878837
vt 0.6505134 0.8904927
vt 0.6505134 0.8878837
vt 0.6503922 0.8904927
vt 0.6503922 0.8878837
vt 0.8039253 0.6763716
vt 0.8039253 0.7959989
vt 0.9235526 0.6763716
vt 0.9235526 0.7959989
vt 0.6334122 0.8337622
vt 0.6334122 0.8589811
vt 0.6336149 0.8337622
vt 0.6336149 0.8589811
vt 0.6542917 0.9499307
vt 0.6542917 0.9647654
vt 0.654411 0.9499307
vt 0.654411 0.9647654
vt 0.6243505 0.8998036
vt 0.6244696 0.8998036
vt 0.6243505 0.8849689
vt 0.6244696 0.8849689
vt 0.6245047 0.8998036
vt 0.6246238 0.8998036
vt 0.6245047 0.8849689
vt 0.6246238 0.8849689
vt 0.8039253 0.6763716
vt 0.8039253 0.7959989
vt 0.9235526 0.6763716
vt 0.9235526 0.7959989
vt 0.626474 0.8998036
vt 0.626474 0.8849689
vt 0.6263548 0.8998036
vt 0.6263548 0.8849689
vt 0.624778 0.8998036
vt 0.624778 0.8849689
vt 0.6246588 0.8998036
vt 0.6246588 0.8849689
vt 0.6549085 0.9647654
vt 0.6550277 0.9647654
vt 0.6549085 0.9499307
vt 0.6550277 0.9499307
vt 0.6349865 0.8589811
vt 0.6351891 0.8589811
vt 0.6349865 0.8337622
vt 0.6351891 0.8337622
vt 0.8039253 0.6763716
vt 0.8039253 0.7959989
vt 0.9235526 0.6763716
vt 0.9235526 0.7959989
vt 0.655336 0.9647654
vt 0.655336 0.9499307
vt 0.6552169 0.9647654
vt 0.6552169 0.9499307
vt 0.6357133 0.8589811
vt 0.6357133 0.8337622
vt 0.6355107 0.8589811
vt 0.6355107 0.8337622
vt 0.625549 0.8849689
vt 0.6254297 0.8849689
vt 0.625549 0.8998036
vt 0.6254297 0.8998036
vt 0.6257031 0.8849689
vt 0.6255839 0.8849689
vt 0.6257031 0.8998036
vt 0.6255839 0.8998036
vt 0.8039253 0.6763716
vt 0.8039253 0.7959989
vt 0.9235526 0.6763716
vt 0.9235526 0.7959989
vt 0.6257381 0.8849689
vt 0.6257381 0.8998036
vt 0.6258572 0.8849689
vt 0.6258572 0.8998036
vt 0.6258923 0.8849689
vt 0.6258923 0.8998036
vt 0.6260115 0.8849689
vt 0.6260115 0.8998036
vt 0.6370239 0.8337622
vt 0.6368213 0.8337622
vt 0.6370239 0.8589811
vt 0.6368213 0.8589811
vt 0.6564153 0.9499307
vt 0.6562963 0.9499307
vt 0.6564153 0.9647654
vt 0.6562963 0.9647654
vt 0.4057356 0.5898835
vt 0.4057356 0.5901681
vt 0.4060202 0.5898835
vt 0.4060202 0.5901681
vt 0.6609607 0.8421655
vt 0.660915 0.8421655
vt 0.6609607 0.843304
vt 0.660915 0.843304
vt 0.6281235 0.9445431
vt 0.6280664 0.9445431
vt 0.6281235 0.9459662
vt 0.6280664 0.9459662
vt 0.6510708 0.8906909
vt 0.6510708 0.888082
vt 0.650968 0.8906909
vt 0.650968 0.888082
vt 0.6511995 0.8906909
vt 0.6511995 0.888082
vt 0.6510966 0.8906909
vt 0.6510966 0.888082
vt 0.4052514 0.589751
vt 0.4052514 0.5900356
vt 0.405536 0.589751
vt 0.405536 0.5900356
vt 0.6597003 0.8448504
vt 0.6596464 0.8448504
vt 0.6597003 0.8459888
vt 0.6596464 0.8459888
vt 0.4066523 0.5890736
vt 0.4066523 0.5893582
vt 0.4069369 0.5890736
vt 0.4069369 0.5893582
vt 0.6267965 0.9478279
vt 0.6267291 0.9478279
vt 0.6267965 0.9492509
vt 0.6267291 0.9492509
vt 0.6517752 0.8918948
vt 0.6517752 0.8892859
vt 0.651654 0.8918948
vt 0.651654 0.8892859
vt 0.6519222 0.8918948
vt 0.6519222 0.8892859
vt 0.651801 0.8918948
vt 0.651801 0.8892859
vn -0.9983426 -0.04526303 0.03554321
vn -0.9983426 -0.04526348 0.03554337
vn -0.9983426 -0.04526348 0.03554337
vn -0.9983425 -0.04526395 0.03554353
vn -0.03600076 0.009357071 -0.9993079
vn -0.0360008 0.009357063 -0.9993079
vn -0.03600091 0.009357034 -0.9993079
vn -0.03600094 0.009357026 -0.9993079
vn 0.9983426 0.04526307 -0.03554324
vn 0.9983426 0.04526348 -0.03554311
vn 0.9983426 0.04526348 -0.03554311
vn 0.9983426 0.04526389 -0.03554297
vn 0.03600272 -0.009356962 0.9993079
vn 0.03600245 -0.009356875 0.9993079
vn 0.03600155 -0.009356589 0.9993079
vn 0.03600128 -0.009356503 0.9993079
vn -0.04490091 0.9989312 0.01097199
vn -0.04490067 0.9989312 0.01097188
vn -0.04490086 0.9989312 0.01097196
vn -0.04490062 0.9989312 0.01097186
vn 0.04490079 -0.9989312 -0.01097219
vn 0.04490047 -0.9989312 -0.01097224
vn 0.04490071 -0.9989312 -0.0109722
vn 0.04490041 -0.9989312 -0.01097225
vn -0.9983425 -0.04526617 0.03554066
vn -0.9983425 -0.04526714 0.03553948
vn -0.9983425 -0.04526714 0.03553949
vn -0.9983425 -0.0452681 0.03553831
vn -0.03600204 0.009356577 -0.9993079
vn -0.03600202 0.009356584 -0.9993079
vn -0.03600204 0.009356576 -0.9993079
vn -0.03600202 0.009356584 -0.9993079
vn 0.03600204 -0.009356467 0.9993079
vn 0.03600211 -0.009357633 0.9993079
vn 0.03600204 -0.009356506 0.9993079
vn 0.03600212 -0.009357674 0.9993079
vn -0.04490047 0.9989312 0.01097219
vn -0.04490047 0.9989312 0.0109722
vn -0.04490049 0.9989312 0.01097259
vn -0.04490049 0.9989312 0.01097261
vn 0.04490035 -0.9989312 -0.01097286
vn 0.04490037 -0.9989312 -0.0109727
vn 0.04490076 -0.9989312 -0.01096829
vn 0.04490076 -0.9989312 -0.01096814
vn -0.9983426 -0.0452639 0.03554282
vn -0.9983425 -0.045265 0.03554278
vn -0.9983425 -0.045265 0.03554278
vn -0.9983425 -0.0452661 0.03554274
vn -0.04490055 0.9989312 0.01097006
vn -0.0449006 0.9989312 0.01096957
vn -0.04490055 0.9989312 0.01097004
vn -0.0449006 0.9989312 0.01096955
vn 0.04490059 -0.9989312 -0.01097027
vn 0.04490058 -0.9989312 -0.01097003
vn 0.04490058 -0.9989312 -0.01097026
vn 0.04490058 -0.9989312 -0.01097002
vn 0.03600201 -0.00935669 0.9993079
vn 0.03600201 -0.009356762 0.9993079
vn 0.03600204 -0.009358882 0.9993079
vn 0.03600204 -0.009358956 0.9993079
vn -0.03600189 0.009354505 -0.9993079
vn -0.03600189 0.0093545 -0.9993079
vn -0.03600195 0.009354359 -0.9993079
vn -0.03600194 0.009354353 -0.9993079
vn -0.9983425 -0.04526635 0.03554079
vn -0.9983426 -0.04526469 0.03554059
vn -0.9983426 -0.04526469 0.03554059
vn -0.9983427 -0.04526303 0.0355404
vn 0.03600179 -0.009355324 0.9993079
vn 0.0360023 -0.009360715 0.9993079
vn 0.03600181 -0.009355505 0.9993079
vn 0.03600232 -0.009360895 0.9993079
vn -0.03600208 0.009358583 -0.9993079
vn -0.0360021 0.009358725 -0.9993079
vn -0.03600208 0.009358588 -0.9993079
vn -0.0360021 0.009358729 -0.9993079
vn 0.04490049 -0.9989312 -0.01097257
vn 0.04490049 -0.9989312 -0.01097257
vn 0.04490047 -0.9989312 -0.01097239
vn 0.04490047 -0.9989312 -0.01097238
vn -0.04490061 0.9989312 0.0109724
vn -0.04490061 0.9989312 0.01097224
vn -0.04490053 0.9989313 0.01096769
vn -0.04490053 0.9989313 0.01096753
vn -0.9983428 -0.04525991 0.03554059
vn -0.9983428 -0.04526063 0.03554057
vn -0.9983428 -0.04526063 0.03554057
vn -0.9983428 -0.04526134 0.03554054
vn 0.04490049 -0.9989312 -0.01097162
vn 0.04490049 -0.9989312 -0.01097322
vn 0.04490049 -0.9989312 -0.01097167
vn 0.04490049 -0.9989312 -0.01097328
vn -0.0449006 0.9989312 0.01096982
vn -0.04490057 0.9989312 0.01097002
vn -0.0449006 0.9989312 0.01096983
vn -0.04490057 0.9989312 0.01097003
vn -0.03600216 0.009356754 -0.9993079
vn -0.03600215 0.009356679 -0.9993079
vn -0.03600196 0.009354578 -0.9993079
vn -0.03600196 0.009354505 -0.9993079
vn 0.03600219 -0.009360696 0.9993079
vn 0.03600219 -0.009360643 0.9993079
vn 0.03600213 -0.00935913 0.9993079
vn 0.03600212 -0.009359077 0.9993079
vn -0.9983425 -0.04526444 0.03554381
vn -0.9983425 -0.04526393 0.03554367
vn -0.9983425 -0.04526394 0.03554368
vn -0.9983426 -0.04526344 0.03554355
vn -0.03600242 0.009357558 -0.9993079
vn -0.0360024 0.009357561 -0.9993079
vn -0.03600232 0.009357576 -0.9993079
vn -0.0360023 0.009357579 -0.9993079
vn 0.03600239 -0.009356971 0.9993079
vn 0.03600227 -0.009356975 0.9993079
vn 0.03600179 -0.009356981 0.9993079
vn 0.03600169 -0.009356983 0.9993079
vn -0.04490255 0.9989311 0.01097204
vn -0.04489847 0.9989313 0.01097083
vn -0.04490178 0.9989312 0.01097181
vn -0.0448977 0.9989313 0.01097059
vn 0.0449026 -0.9989311 -0.01097117
vn 0.04489869 -0.9989313 -0.01097196
vn 0.04490186 -0.9989312 -0.01097132
vn 0.04489795 -0.9989313 -0.01097211
vn -0.9983425 -0.04526438 0.03554408
vn -0.9983426 -0.04526293 0.03554268
vn -0.9983426 -0.04526294 0.03554269
vn -0.9983427 -0.04526148 0.03554131
vn -0.03600168 0.009357382 -0.9993079
vn -0.03600174 0.00935736 -0.9993079
vn -0.03600199 0.009357292 -0.9993079
vn -0.03600205 0.009357272 -0.9993079
vn 0.9983425 0.04526444 -0.03554239
vn 0.9983426 0.04526365 -0.03554269
vn 0.9983426 0.04526365 -0.03554268
vn 0.9983426 0.04526287 -0.03554298
vn 0.03600372 -0.009357356 0.9993079
vn 0.03600326 -0.009357228 0.9993079
vn 0.03600172 -0.009356802 0.9993079
vn 0.03600125 -0.009356675 0.9993079
vn -0.04490077 0.9989312 0.01097145
vn -0.04490084 0.9989312 0.0109715
vn -0.04490079 0.9989312 0.01097146
vn -0.04490086 0.9989312 0.01097151
vn 0.0449012 -0.9989312 -0.01097209
vn 0.04490023 -0.9989312 -0.01097215
vn 0.04490099 -0.9989312 -0.01097211
vn 0.04490001 -0.9989312 -0.01097217
f 3/3/3 2/2/2 1/1/1
f 3/3/3 4/4/4 2/2/2
f 7/7/7 6/6/6 5/5/5
f 7/7/7 8/8/8 6/6/6
f 11/11/11 10/10/10 9/9/9
f 11/11/11 12/12/12 10/10/10
f 15/15/15 14/14/14 13/13/13
f 15/15/15 16/16/16 14/14/14
f 19/19/19 18/18/18 17/17/17
f 19/19/19 20/20/20 18/18/18
f 23/23/23 22/22/22 21/21/21
f 23/23/23 24/24/24 22/22/22
f 27/27/27 26/26/26 25/25/25
f 27/27/27 28/28/28 26/26/26
f 31/31/31 30/30/30 29/29/29
f 31/31/31 32/32/32 30/30/30
f 35/35/35 34/34/34 33/33/33
f 35/35/35 36/36/36 34/34/34
f 39/39/39 38/38/38 37/37/37
f 39/39/39 40/40/40 38/38/38
f 43/43/43 42/42/42 41/41/41
f 43/43/43 44/44/44 42/42/42
f 47/47/47 46/46/46 45/45/45
f 47/47/47 48/48/48 46/46/46
f 51/51/51 50/50/50 49/49/49
f 51/51/51 52/52/52 50/50/50
f 55/55/55 54/54/54 53/53/53
f 55/55/55 56/56/56 54/54/54
f 59/59/59 58/58/58 57/57/57
f 59/59/59 60/60/60 58/58/58
f 63/63/63 62/62/62 61/61/61
f 63/63/63 64/64/64 62/62/62
f 67/67/67 66/66/66 65/65/65
f 67/67/67 68/68/68 66/66/66
f 71/71/71 70/70/70 69/69/69
f 71/71/71 72/72/72 70/70/70
f 75/75/75 74/74/74 73/73/73
f 75/75/75 76/76/76 74/74/74
f 79/79/79 78/78/78 77/77/77
f 79/79/79 80/80/80 78/78/78
f 83/83/83 82/82/82 81/81/81
f 83/83/83 84/84/84 82/82/82
f 87/87/87 86/86/86 85/85/85
f 87/87/87 88/88/88 86/86/86
f 91/91/91 90/90/90 89/89/89
f 91/91/91 92/92/92 90/90/90
f 95/95/95 94/94/94 93/93/93
f 95/95/95 96/96/96 94/94/94
f 99/99/99 98/98/98 97/97/97
f 99/99/99 100/100/100 98/98/98
f 103/103/103 102/102/102 101/101/101
f 103/103/103 104/104/104 102/102/102
f 107/107/107 106/106/106 105/105/105
f 107/107/107 108/108/108 106/106/106
f 111/111/111 110/110/110 109/109/109
f 111/111/111 112/112/112 110/110/110
f 115/115/115 114/114/114 113/113/113
f 115/115/115 116/116/116 114/114/114
f 119/119/119 118/118/118 117/117/117
f 119/119/119 120/120/120 118/118/118
f 123/123/123 122/122/122 121/121/121
f 123/123/123 124/124/124 122/122/122
f 127/127/127 126/126/126 125/125/125
f 127/127/127 128/128/128 126/126/126
f 131/131/131 130/130/130 129/129/129
f 131/131/131 132/132/132 130/130/130
f 135/135/135 134/134/134 133/133/133
f 135/135/135 136/136/136 134/134/134
f 139/139/139 138/138/138 137/137/137
f 139/139/139 140/140/140 138/138/138
f 143/143/143 142/142/142 141/141/141
f 143/143/143 144/144/144 142/142/142
f 147/147/147 146/146/146 145/145/145
f 147/147/147 148/148/148 146/146/146
