g Weapon_SubMachineGun
v 0.06080994 -0.1546659 -0.06008094
v 0.06034756 -0.06039893 -0.06008571
v 0.0594844 -0.1546659 0.06564064
v 0.05902248 -0.06039893 0.06563573
v 0.1907732 -0.1535845 0.06702462
v 0.1907731 0.284455 0.06702462
v 0.1920985 -0.1535845 -0.05869689
v 0.1920985 0.2844549 -0.05869689
v 0.1920985 -0.1535845 -0.05869689
v 0.06080994 -0.1546659 -0.06008094
v 0.1907732 -0.1535845 0.06702462
v 0.0594844 -0.1546659 0.06564064
v -0.6294105 0.1668079 0.02782155
v -0.6287293 0.1668079 -0.03679362
v -0.6294103 0.2350677 0.02782155
v -0.6287293 0.2350677 -0.03679362
v -0.3854246 0.3565247 0.02951542
v -0.3847619 0.3565247 -0.03334506
v -0.3477763 0.3565247 0.02991246
v -0.3471135 0.3565249 -0.03294818
v -0.3477762 0.2833736 0.02991238
v -0.3477763 0.3565247 0.02991246
v -0.3471135 0.2833736 -0.03294818
v -0.3471135 0.3565249 -0.03294818
v -0.3854245 0.2833738 0.02951558
v -0.3847618 0.2833736 -0.03334506
v -0.3854246 0.3565247 0.02951542
v -0.3847619 0.3565247 -0.03334506
v -0.4036897 0.2833738 -0.0649776
v -0.3847618 0.2833736 -0.03334506
v -0.4050151 0.283374 0.06074391
v -0.3854245 0.2833738 0.02951558
v -0.3471135 0.2833736 -0.03294818
v 0.1920985 0.2844549 -0.05869689
v -0.3477762 0.2833736 0.02991238
v 0.1907731 0.284455 0.06702462
v -0.0481282 -0.06039908 -0.06122928
v -0.04847445 0.05535714 -0.06123294
v -0.0494534 -0.06039908 0.06449208
v -0.04979981 0.05535714 0.06448846
v 0.06034756 -0.06039893 -0.06008571
v -0.0481282 -0.06039908 -0.06122928
v 0.05902248 -0.06039893 0.06563573
v -0.0494534 -0.06039908 0.06449208
v -0.3619713 0.05535745 0.04404103
v -0.4050151 0.05535745 0.06074398
v -0.1911888 0.05535745 0.04584126
v -0.04979981 0.05535714 0.06448846
v -0.3610076 0.05535745 -0.04737194
v -0.4036897 0.05535745 -0.0649776
v -0.1902253 0.05535745 -0.0455714
v -0.04847445 0.05535714 -0.06123294
v -0.4050151 0.05535745 0.06074398
v -0.4050151 0.283374 0.06074391
v -0.04979981 0.05535714 0.06448846
v 0.1907731 0.284455 0.06702462
v 0.05902248 -0.06039893 0.06563573
v -0.0494534 -0.06039908 0.06449208
v 0.1907732 -0.1535845 0.06702462
v 0.0594844 -0.1546659 0.06564064
v -0.04847445 0.05535714 -0.06123294
v -0.0481282 -0.06039908 -0.06122928
v 0.06034756 -0.06039893 -0.06008571
v 0.1920985 0.2844549 -0.05869689
v -0.4036897 0.2833738 -0.0649776
v -0.4036897 0.05535745 -0.0649776
v 0.1920985 -0.1535845 -0.05869689
v 0.06080994 -0.1546659 -0.06008094
v -0.3477762 0.2833736 0.02991238
v -0.3854245 0.2833738 0.02951558
v -0.3477763 0.3565247 0.02991246
v -0.3854246 0.3565247 0.02951542
v -0.3847619 0.3565247 -0.03334506
v -0.3847618 0.2833736 -0.03334506
v -0.3471135 0.3565249 -0.03294818
v -0.3471135 0.2833736 -0.03294818
v -0.3619713 -0.2684792 0.04404095
v -0.191189 -0.2684792 0.04584126
v -0.3610076 -0.2684792 -0.04737178
v -0.1902253 -0.2684792 -0.04557147
v -0.4050151 0.05535745 0.06074398
v -0.4048177 0.1069845 0.04202359
v -0.4050151 0.283374 0.06074391
v -0.4048177 0.2621149 0.04202351
v -0.4038871 0.1069845 -0.04625804
v -0.4036897 0.05535745 -0.0649776
v -0.4036897 0.2833738 -0.0649776
v -0.4038871 0.2621151 -0.04625804
v -0.4048177 0.1069845 0.04202359
v -0.4330589 0.1069845 0.04172589
v -0.4048177 0.2621149 0.04202351
v -0.433059 0.2621151 0.04172589
v -0.433059 0.2621151 0.04172589
v -0.4321282 0.2621149 -0.04655574
v -0.4048177 0.2621149 0.04202351
v -0.4038871 0.2621151 -0.04625804
v -0.4038871 0.1069845 -0.04625804
v -0.4321281 0.1069845 -0.04655574
v -0.4048177 0.1069845 0.04202359
v -0.4330589 0.1069845 0.04172589
v -0.4038871 0.2621151 -0.04625804
v -0.4321282 0.2621149 -0.04655574
v -0.4038871 0.1069845 -0.04625804
v -0.4321281 0.1069845 -0.04655574
v -0.4330589 0.1069845 0.04172589
v -0.4329342 0.1668079 0.0298927
v -0.433059 0.2621151 0.04172589
v -0.4329341 0.2350677 0.0298927
v -0.4322532 0.2350677 -0.03472232
v -0.4321282 0.2621149 -0.04655574
v -0.4322531 0.1668079 -0.03472232
v -0.4321281 0.1069845 -0.04655574
v -0.4329342 0.1668079 0.0298927
v -0.6294105 0.1668079 0.02782155
v -0.4329341 0.2350677 0.0298927
v -0.6294103 0.2350677 0.02782155
v -0.4329341 0.2350677 0.0298927
v -0.6294103 0.2350677 0.02782155
v -0.4322532 0.2350677 -0.03472232
v -0.6287293 0.2350677 -0.03679362
v -0.4322532 0.2350677 -0.03472232
v -0.6287293 0.2350677 -0.03679362
v -0.4322531 0.1668079 -0.03472232
v -0.6287293 0.1668079 -0.03679362
v -0.4322531 0.1668079 -0.03472232
v -0.6287293 0.1668079 -0.03679362
v -0.4329342 0.1668079 0.0298927
v -0.6294105 0.1668079 0.02782155
v -0.3619713 0.05535745 0.04404103
v -0.3619713 -0.2684792 0.04404095
v -0.3610076 0.05535745 -0.04737194
v -0.3610076 -0.2684792 -0.04737178
v -0.1902253 0.05535745 -0.0455714
v -0.1902253 -0.2684792 -0.04557147
v -0.1911888 0.05535745 0.04584126
v -0.191189 -0.2684792 0.04584126
v -0.3610076 0.05535745 -0.04737194
v -0.3610076 -0.2684792 -0.04737178
v -0.1902253 0.05535745 -0.0455714
v -0.1902253 -0.2684792 -0.04557147
v -0.1911888 0.05535745 0.04584126
v -0.191189 -0.2684792 0.04584126
v -0.3619713 0.05535745 0.04404103
v -0.3619713 -0.2684792 0.04404095
vt 0.334576 0.7428701
vt 0.3479379 0.7428701
vt 0.334576 0.7250487
vt 0.3479379 0.7250487
vt 0.5769055 0.1819352
vt 0.5769055 0.1041263
vt 0.5545723 0.1819352
vt 0.5545723 0.1041263
vt 0.1650129 0.9261953
vt 0.1650129 0.9547001
vt 0.192309 0.9261953
vt 0.192309 0.9547001
vt 0.8974608 0.4674512
vt 0.8203599 0.4674512
vt 0.8974608 0.5488966
vt 0.8203599 0.5488966
vt 0.3259497 0.839164
vt 0.3259497 0.8420027
vt 0.3276499 0.839164
vt 0.3276499 0.8420027
vt 0.8584299 0.9331829
vt 0.8584299 0.8721514
vt 0.805981 0.9331829
vt 0.805981 0.8721514
vt 0.9177039 0.8721515
vt 0.865255 0.8721515
vt 0.9177039 0.9331831
vt 0.865255 0.9331831
vt 0.1926826 0.0749077
vt 0.2095415 0.08523839
vt 0.2601199 0.0749077
vt 0.2432599 0.08523839
vt 0.2095415 0.105433
vt 0.1926826 0.3944893
vt 0.2432599 0.105433
vt 0.2601199 0.3944893
vt 0.3002744 0.7384195
vt 0.3166823 0.7384195
vt 0.3002744 0.7205982
vt 0.3166823 0.7205982
vt 0.2209248 0.9534914
vt 0.2444766 0.9534914
vt 0.2209248 0.9261953
vt 0.2444766 0.9261953
vt 0.1992991 0.9568572
vt 0.1886085 0.9612463
vt 0.2418946 0.9568571
vt 0.2772039 0.9612463
vt 0.1992991 0.9334693
vt 0.1886086 0.9290805
vt 0.2418945 0.9334692
vt 0.2772039 0.9290805
vt 0.5781394 0.5423946
vt 0.5781394 0.6974496
vt 0.8197051 0.5423944
vt 0.983308 0.6981848
vt 0.8937102 0.4636782
vt 0.8199407 0.4636781
vt 0.983308 0.4003105
vt 0.8940244 0.3995751
vt 0.8198505 0.5419276
vt 0.8200861 0.4632114
vt 0.8938556 0.4632115
vt 0.9834534 0.697718
vt 0.5782847 0.6969827
vt 0.5782847 0.5419278
vt 0.9834535 0.3998438
vt 0.8941698 0.3991084
vt 0.7024769 0.5573764
vt 0.6968699 0.5573764
vt 0.7024769 0.5682702
vt 0.6968699 0.5682702
vt 0.695829 0.5682702
vt 0.695829 0.5573764
vt 0.6902221 0.5682702
vt 0.6902221 0.5573764
vt 0.4104908 0.1129713
vt 0.4104908 0.05750525
vt 0.3808022 0.1129713
vt 0.3808022 0.05750525
vt 0.1620782 0.7022599
vt 0.1862549 0.711027
vt 0.2688576 0.70226
vt 0.258902 0.711027
vt 0.186255 0.7523713
vt 0.1620782 0.7611381
vt 0.2688576 0.7611381
vt 0.2589021 0.7523713
vt 0.5747784 0.5145284
vt 0.5705724 0.5145284
vt 0.5747784 0.5376308
vt 0.5705724 0.5376308
vt 0.2935834 0.8332983
vt 0.2935834 0.8372852
vt 0.2948588 0.8332983
vt 0.2948588 0.8372852
vt 0.4839182 0.602576
vt 0.4839182 0.6038657
vt 0.4878484 0.602576
vt 0.4878484 0.6038657
vt 0.5758625 0.5376308
vt 0.5800684 0.5376308
vt 0.5758625 0.5145284
vt 0.5800684 0.5145284
vt 0.1974668 0.9348977
vt 0.2123868 0.9379251
vt 0.2361562 0.9348977
vt 0.2294106 0.9379251
vt 0.2294107 0.9544568
vt 0.2361562 0.9574844
vt 0.2123868 0.9544568
vt 0.1974668 0.9574845
vt 0.574307 0.4533737
vt 0.6790128 0.4533737
vt 0.574307 0.4169988
vt 0.6790128 0.4169987
vt 0.1837553 0.8154094
vt 0.07904953 0.8154094
vt 0.1837553 0.849844
vt 0.07904947 0.8498439
vt 0.7861418 0.4787174
vt 0.6814358 0.4787174
vt 0.7861418 0.5150924
vt 0.6814358 0.5150924
vt 0.1036353 0.9643786
vt 0.2083413 0.9643787
vt 0.1036353 0.929944
vt 0.2083413 0.929944
vt 0.4990764 0.3493448
vt 0.4990765 0.1209959
vt 0.4527971 0.3343671
vt 0.4527971 0.1359735
vt 0.3470723 0.3343671
vt 0.3470724 0.1359735
vt 0.3007928 0.3493447
vt 0.3007931 0.1209957
vt 0.4527971 0.3343671
vt 0.4527971 0.1359735
vt 0.3470723 0.3343671
vt 0.3470724 0.1359735
vt 0.4527971 0.3348189
vt 0.4527971 0.1355218
vt 0.3470724 0.3348189
vt 0.3470724 0.1355218
vn -0.9999324 -0.004901699 -0.01054119
vn -0.9999324 -0.004901699 -0.01054119
vn -0.9999324 -0.004901699 -0.01054119
vn -0.9999324 -0.004901699 -0.01054119
vn 0.9999444 0 0.01054132
vn 0.9999444 0 0.01054132
vn 0.9999444 0 0.01054132
vn 0.9999444 0 0.01054132
vn 0.008235565 -0.9999661 8.681509E-05
vn 0.008235565 -0.9999661 8.681509E-05
vn 0.008235565 -0.9999661 8.681509E-05
vn 0.008235565 -0.9999661 8.681509E-05
vn -0.9999444 0 -0.01054132
vn -0.9999444 0 -0.01054132
vn -0.9999444 0 -0.01054132
vn -0.9999444 0 -0.01054132
vn 0 1 0
vn 0 1 0
vn 0 1 0
vn 0 1 0
vn 0.9999444 0 0.01054132
vn 0.9999444 0 0.01054132
vn 0.9999444 0 0.01054132
vn 0.9999444 0 0.01054132
vn -0.9999444 0 -0.01054132
vn -0.9999444 0 -0.01054132
vn -0.9999444 0 -0.01054132
vn -0.9999444 0 -0.01054132
vn 0 1 0
vn 0 1 0
vn 0 1 0
vn 0 1 0
vn -0.00173874 0.9999937 0.003077158
vn -0.00173874 0.9999937 0.003077158
vn -0.002006515 0.999998 -2.115127E-05
vn -0.002006515 0.999998 -2.115127E-05
vn -0.99994 -0.002992923 -0.01054125
vn -0.99994 -0.002992923 -0.01054125
vn -0.99994 -0.002992923 -0.01054125
vn -0.99994 -0.002992923 -0.01054125
vn 1.789769E-06 -1 0
vn 1.789769E-06 -1 0
vn 1.789769E-06 -1 0
vn 1.789769E-06 -1 0
vn -6.002374E-07 -1 -7.234514E-06
vn -6.002374E-07 -1 -7.234514E-06
vn -6.002374E-07 -1 -7.234514E-06
vn -6.002374E-07 -1 -7.234514E-06
vn 0 -1 0
vn 0 -1 0
vn 0 -1 7.224269E-06
vn 0 -1 7.224269E-06
vn -0.01054133 0 0.9999444
vn -0.01054133 0 0.9999444
vn -0.01054133 0 0.9999444
vn -0.01054133 0 0.9999444
vn -0.01054133 0 0.9999444
vn -0.01054133 0 0.9999444
vn -0.01054133 0 0.9999444
vn -0.01054133 0 0.9999444
vn 0.01054133 -2.207235E-07 -0.9999444
vn 0.01054133 -2.207235E-07 -0.9999444
vn 0.01054133 -2.207235E-07 -0.9999444
vn 0.01054133 0 -0.9999444
vn 0.01054133 0 -0.9999444
vn 0.01054133 0 -0.9999444
vn 0.01054133 -2.160668E-07 -0.9999444
vn 0.01054133 -2.160668E-07 -0.9999444
vn -0.01054133 0 0.9999444
vn -0.01054133 0 0.9999444
vn -0.01054133 0 0.9999444
vn -0.01054133 0 0.9999444
vn 0.01054133 0 -0.9999444
vn 0.01054133 0 -0.9999444
vn 0.01054133 0 -0.9999444
vn 0.01054133 0 -0.9999444
vn 0 -1 0
vn 0 -1 0
vn 0 -1 0
vn 0 -1 0
vn -0.9999444 0 -0.01054132
vn -0.9999444 0 -0.01054132
vn -0.9999444 0 -0.01054132
vn -0.9999444 0 -0.01054132
vn -0.9999444 0 -0.01054132
vn -0.9999444 0 -0.01054132
vn -0.9999444 0 -0.01054132
vn -0.9999444 0 -0.01054132
vn -0.01054133 0 0.9999444
vn -0.01054133 0 0.9999444
vn -0.01054133 0 0.9999444
vn -0.01054133 0 0.9999444
vn 0 1 0
vn 0 1 0
vn 0 1 0
vn 0 1 0
vn 0 -1 0
vn 0 -1 0
vn 0 -1 0
vn 0 -1 0
vn 0.01054133 0 -0.9999444
vn 0.01054133 0 -0.9999444
vn 0.01054133 0 -0.9999444
vn 0.01054133 0 -0.9999444
vn -0.9999443 0 -0.01055061
vn -0.9999443 0 -0.01055061
vn -0.9999443 0 -0.01055061
vn -0.9999443 0 -0.01055061
vn -0.9999444 0 -0.01054132
vn -0.9999444 0 -0.01054132
vn -0.9999444 0 -0.01054132
vn -0.9999444 0 -0.01054132
vn -0.01054133 0 0.9999444
vn -0.01054133 0 0.9999444
vn -0.01054133 0 0.9999444
vn -0.01054133 0 0.9999444
vn 0 1 0
vn 0 1 0
vn 0 1 0
vn 0 1 0
vn 0.01054133 0 -0.9999444
vn 0.01054133 0 -0.9999444
vn 0.01054133 0 -0.9999444
vn 0.01054133 0 -0.9999444
vn 0 -1 0
vn 0 -1 0
vn 0 -1 0
vn 0 -1 0
vn -0.9999444 0 -0.01054132
vn -0.9999444 0 -0.01054132
vn -0.9999444 0 -0.01054132
vn -0.9999444 0 -0.01054132
vn 0.9999444 0 0.01054132
vn 0.9999444 0 0.01054132
vn 0.9999444 0 0.01054132
vn 0.9999444 0 0.01054132
vn 0.01054133 0 -0.9999444
vn 0.01054133 0 -0.9999444
vn 0.01054133 0 -0.9999444
vn 0.01054133 0 -0.9999444
vn -0.01054133 0 0.9999444
vn -0.01054133 0 0.9999444
vn -0.01054133 0 0.9999444
vn -0.01054133 0 0.9999444
f 3/3/3 2/2/2 1/1/1
f 3/3/3 4/4/4 2/2/2
f 7/7/7 6/6/6 5/5/5
f 7/7/7 8/8/8 6/6/6
f 11/11/11 10/10/10 9/9/9
f 11/11/11 12/12/12 10/10/10
f 15/15/15 14/14/14 13/13/13
f 15/15/15 16/16/16 14/14/14
f 19/19/19 18/18/18 17/17/17
f 19/19/19 20/20/20 18/18/18
f 23/23/23 22/22/22 21/21/21
f 23/23/23 24/24/24 22/22/22
f 27/27/27 26/26/26 25/25/25
f 27/27/27 28/28/28 26/26/26
f 31/31/31 30/30/30 29/29/29
f 31/31/31 32/32/32 30/30/30
f 29/29/29 30/30/30 33/33/33
f 29/29/29 33/33/33 34/34/34
f 35/35/35 34/34/34 33/33/33
f 32/32/32 31/31/31 35/35/35
f 35/35/35 36/36/36 34/34/34
f 35/35/35 31/31/31 36/36/36
f 39/39/39 38/38/38 37/37/37
f 39/39/39 40/40/40 38/38/38
f 43/43/43 42/42/42 41/41/41
f 43/43/43 44/44/44 42/42/42
f 47/47/47 46/46/46 45/45/45
f 47/47/47 48/48/48 46/46/46
f 49/49/49 45/45/45 46/46/46
f 49/49/49 46/46/46 50/50/50
f 50/50/50 51/51/51 49/49/49
f 48/48/48 47/47/47 51/51/51
f 50/50/50 52/52/52 51/51/51
f 48/48/48 51/51/51 52/52/52
f 55/55/55 54/54/54 53/53/53
f 55/55/55 56/56/56 54/54/54
f 55/55/55 57/57/57 56/56/56
f 55/55/55 58/58/58 57/57/57
f 57/57/57 59/59/59 56/56/56
f 57/57/57 60/60/60 59/59/59
f 63/63/63 62/62/62 61/61/61
f 64/64/64 63/63/63 61/61/61
f 61/61/61 65/65/65 64/64/64
f 61/61/61 66/66/66 65/65/65
f 64/64/64 67/67/67 63/63/63
f 67/67/67 68/68/68 63/63/63
f 71/71/71 70/70/70 69/69/69
f 71/71/71 72/72/72 70/70/70
f 75/75/75 74/74/74 73/73/73
f 75/75/75 76/76/76 74/74/74
f 79/79/79 78/78/78 77/77/77
f 79/79/79 80/80/80 78/78/78
f 83/83/83 82/82/82 81/81/81
f 83/83/83 84/84/84 82/82/82
f 81/81/81 82/82/82 85/85/85
f 81/81/81 85/85/85 86/86/86
f 85/85/85 87/87/87 86/86/86
f 85/85/85 88/88/88 87/87/87
f 83/83/83 88/88/88 84/84/84
f 83/83/83 87/87/87 88/88/88
f 91/91/91 90/90/90 89/89/89
f 91/91/91 92/92/92 90/90/90
f 95/95/95 94/94/94 93/93/93
f 95/95/95 96/96/96 94/94/94
f 99/99/99 98/98/98 97/97/97
f 99/99/99 100/100/100 98/98/98
f 103/103/103 102/102/102 101/101/101
f 103/103/103 104/104/104 102/102/102
f 107/107/107 106/106/106 105/105/105
f 107/107/107 108/108/108 106/106/106
f 107/107/107 109/109/109 108/108/108
f 107/107/107 110/110/110 109/109/109
f 105/105/105 106/106/106 111/111/111
f 111/111/111 109/109/109 110/110/110
f 105/105/105 111/111/111 112/112/112
f 111/111/111 110/110/110 112/112/112
f 115/115/115 114/114/114 113/113/113
f 115/115/115 116/116/116 114/114/114
f 119/119/119 118/118/118 117/117/117
f 119/119/119 120/120/120 118/118/118
f 123/123/123 122/122/122 121/121/121
f 123/123/123 124/124/124 122/122/122
f 127/127/127 126/126/126 125/125/125
f 127/127/127 128/128/128 126/126/126
f 131/131/131 130/130/130 129/129/129
f 131/131/131 132/132/132 130/130/130
f 135/135/135 134/134/134 133/133/133
f 135/135/135 136/136/136 134/134/134
f 139/139/139 138/138/138 137/137/137
f 139/139/139 140/140/140 138/138/138
f 143/143/143 142/142/142 141/141/141
f 143/143/143 144/144/144 142/142/142
