g Weapon_AssultRifle01
v 0.3353362 -0.1078665 -0.05246544
v 0.3349204 -0.02302628 -0.05246986
v 0.3341433 -0.1078665 0.06068405
v 0.3337275 -0.02302628 0.06067951
v 0.9498211 0.2414856 -0.03118428
v 0.949821 -0.0935434 -0.03118428
v 0.9489402 0.2414856 0.05236136
v 0.9489401 -0.0935434 0.05236138
v 0.4534958 -0.1068933 -0.05121982
v 0.3353362 -0.1078665 -0.05246544
v 0.4523033 -0.1068933 0.06192947
v 0.3341433 -0.1078665 0.06068405
v -0.9498208 0.1535123 0.01964722
v -0.9492079 0.1535123 -0.03850616
v -0.9498208 0.214946 0.01964722
v -0.9492079 0.214946 -0.03850616
v 0.2372921 -0.02302643 -0.05349892
v 0.2369804 0.08767288 -0.05350227
v 0.2360994 -0.02302643 0.05965027
v 0.2357875 0.08767288 0.05964699
v 0.3349204 -0.02302628 -0.05246986
v 0.2372921 -0.02302643 -0.05349892
v 0.3337275 -0.02302628 0.06067951
v 0.2360994 -0.02302643 0.05965027
v 0.1612202 0.08767288 0.04341988
v -0.04516689 0.08767288 0.0412442
v 0.2357875 0.08767288 0.05964699
v -0.4953035 0.08774597 0.05218719
v 0.1620876 0.08767288 -0.03885162
v 0.2369804 0.08767288 -0.05350227
v -0.04429958 0.08767288 -0.0410273
v -0.4941004 0.08774597 -0.06192932
v 0.4523033 0.2777216 0.06192943
v 0.2357875 0.08767288 0.05964699
v -0.4953035 0.2768568 0.05218719
v -0.4953035 0.08774597 0.05218719
v 0.3337275 -0.02302628 0.06067951
v 0.2360994 -0.02302643 0.05965027
v 0.4523033 -0.1068933 0.06192947
v 0.3341433 -0.1078665 0.06068405
v 0.2369804 0.08767288 -0.05350227
v 0.2372921 -0.02302643 -0.05349892
v 0.3349204 -0.02302628 -0.05246986
v 0.4534958 0.2777217 -0.05121982
v -0.4941005 0.2768567 -0.06192947
v -0.4941004 0.08774597 -0.06192932
v 0.4534958 -0.1068933 -0.05121982
v 0.3353362 -0.1078665 -0.05246544
v -0.2533729 -0.1767432 0.03627976
v -0.1542106 -0.3201797 0.03571251
v -0.253027 -0.1761783 -0.04599365
v -0.1538643 -0.3196151 -0.0465609
v -0.4950107 0.2768568 0.02444183
v -0.4953035 0.2768568 0.05218719
v -0.4950109 0.1535123 0.02444183
v -0.4953035 0.08774597 0.05218719
v -0.4943978 0.1535123 -0.0337117
v -0.4941004 0.08774597 -0.06192932
v -0.4941005 0.2768567 -0.06192947
v -0.4943996 0.2768567 -0.03355591
v -0.6985376 0.214946 0.0222963
v -0.4950107 0.2768568 0.02444183
v -0.4950109 0.1535123 0.02444183
v -0.9498208 0.1535123 0.01964722
v -0.9498208 0.214946 0.01964722
v -0.6715696 0.2726263 0.02258057
v -0.4950107 0.2768568 0.02444183
v -0.6715696 0.2726263 0.02258057
v -0.4943996 0.2768567 -0.03355591
v -0.6709566 0.2726265 -0.03557281
v -0.4943978 0.1535123 -0.0337117
v -0.4943996 0.2768567 -0.03355591
v -0.6979246 0.214946 -0.03585708
v -0.9492079 0.1535123 -0.03850616
v -0.9492079 0.214946 -0.03850616
v -0.6709566 0.2726265 -0.03557281
v -0.1060954 -0.06034607 0.04109657
v -0.1052282 -0.06034591 -0.041175
v -0.04516689 0.08767288 0.0412442
v -0.04429958 0.08767288 -0.0410273
v 0.04246334 -0.1615721 -0.04168495
v 0.04159592 -0.1615721 0.0405867
v 0.1620876 0.08767288 -0.03885162
v 0.1612202 0.08767288 0.04341988
v -0.1052282 -0.06034591 -0.041175
v 0.04246334 -0.1615721 -0.04168495
v -0.04429958 0.08767288 -0.0410273
v 0.1620876 0.08767288 -0.03885162
v -0.1538643 -0.3196151 -0.0465609
v -0.253027 -0.1761783 -0.04599365
v -0.04516689 0.08767288 0.0412442
v 0.1612202 0.08767288 0.04341988
v -0.1060954 -0.06034607 0.04109657
v 0.04159592 -0.1615721 0.0405867
v -0.1542106 -0.3201797 0.03571251
v -0.2533729 -0.1767432 0.03627976
v 0.4533399 0.2414859 -0.03641804
v 0.9498211 0.2414856 -0.03118428
v 0.4524593 0.2414857 0.04712753
v 0.9489402 0.2414856 0.05236136
v 0.4524787 0.12939 0.04712784
v 0.8760695 -0.09344894 0.05159324
v 0.4533401 0.12939 -0.03641807
v 0.8769506 -0.09344894 -0.03195245
v 0.9489402 0.2414856 0.05236136
v 0.9489401 -0.0935434 0.05236138
v 0.8760695 -0.09344894 0.05159324
v 0.4524787 0.12939 0.04712784
v 0.4524593 0.2414857 0.04712753
v 0.8769506 -0.09344894 -0.03195245
v 0.9498211 0.2414856 -0.03118428
v 0.4533401 0.12939 -0.03641807
v 0.4533399 0.2414859 -0.03641804
v 0.949821 -0.0935434 -0.03118428
v 0.8760695 -0.09344894 0.05159324
v 0.9489401 -0.0935434 0.05236138
v 0.8769506 -0.09344894 -0.03195245
v 0.949821 -0.0935434 -0.03118428
v 0.4524593 0.2414857 0.04712753
v 0.4523033 0.2777216 0.06192943
v 0.4533399 0.2414859 -0.03641804
v 0.4534958 0.2777217 -0.05121982
v 0.4533401 0.12939 -0.03641807
v 0.4534958 -0.1068933 -0.05121982
v 0.4524787 0.12939 0.04712784
v 0.4523033 -0.1068933 0.06192947
v 0.4534958 0.2777217 -0.05121982
v -0.4943996 0.2768567 -0.03355591
v -0.4941005 0.2768567 -0.06192947
v 0.4523033 0.2777216 0.06192943
v -0.4950107 0.2768568 0.02444183
v -0.4953035 0.2768568 0.05218719
v -0.4943978 0.1535123 -0.0337117
v -0.9492079 0.1535123 -0.03850616
v -0.4950109 0.1535123 0.02444183
v -0.9498208 0.1535123 0.01964722
v -0.8902809 0.3201797 0.009938051
v -0.9273691 0.3201796 0.009547121
v -0.8898861 0.3201794 -0.02754379
v -0.9269739 0.3201797 -0.02793487
v -0.6979246 0.214946 -0.03585708
v -0.6709566 0.2726265 -0.03557281
v -0.6985376 0.214946 0.0222963
v -0.6715696 0.2726263 0.02258057
v -0.6985376 0.214946 0.0222963
v -0.8595486 0.2149458 0.010262
v -0.6979246 0.214946 -0.03585708
v -0.8591534 0.214946 -0.02721984
v -0.9492079 0.214946 -0.03850616
v -0.9268588 0.2149458 -0.0279335
v -0.9498208 0.214946 0.01964722
v -0.9272543 0.214946 0.009548342
v -0.8595486 0.2149458 0.010262
v -0.8902809 0.3201797 0.009938051
v -0.8591534 0.214946 -0.02721984
v -0.8898861 0.3201794 -0.02754379
v -0.8591534 0.214946 -0.02721984
v -0.8898861 0.3201794 -0.02754379
v -0.9269739 0.3201797 -0.02793487
v -0.9268588 0.2149458 -0.0279335
v -0.9268588 0.2149458 -0.0279335
v -0.9269739 0.3201797 -0.02793487
v -0.9272543 0.214946 0.009548342
v -0.9273691 0.3201796 0.009547121
v -0.9272543 0.214946 0.009548342
v -0.9273691 0.3201796 0.009547121
v -0.8595486 0.2149458 0.010262
v -0.8902809 0.3201797 0.009938051
v -0.1538643 -0.3196151 -0.0465609
v -0.1542106 -0.3201797 0.03571251
v 0.04246334 -0.1615721 -0.04168495
v 0.04159592 -0.1615721 0.0405867
v -0.253027 -0.1761783 -0.04599365
v -0.1052282 -0.06034591 -0.041175
v -0.2533729 -0.1767432 0.03627976
v -0.1060954 -0.06034607 0.04109657
vt 0.8124326 0.5163701
vt 0.8124328 0.4969589
vt 0.7934616 0.5163698
vt 0.7934616 0.4969589
vt 0.816737 0.5275335
vt 0.816737 0.4578084
vt 0.7933665 0.5275335
vt 0.7933665 0.4578084
vt 0.8136479 0.4028564
vt 0.813648 0.3740144
vt 0.7981358 0.4028562
vt 0.7981359 0.3740142
vt 0.9954116 0.9087862
vt 0.9096161 0.9087862
vt 0.9954116 0.9994164
vt 0.9096161 0.9994164
vt 0.8124328 0.5187191
vt 0.8124328 0.4933916
vt 0.7934616 0.5187191
vt 0.7934616 0.4933916
vt 0.8140959 0.3979588
vt 0.8140959 0.3741283
vt 0.7985839 0.3979586
vt 0.7985839 0.3741283
vt 0.3886248 0.6635156
vt 0.5607111 0.6635156
vt 0.3241169 0.6635156
vt 0.9386652 0.6635156
vt 0.3886248 0.6635156
vt 0.3241169 0.6635156
vt 0.5607111 0.6635156
vt 0.9386652 0.6635156
vt 0.1424548 0.8239908
vt 0.3241169 0.6635156
vt 0.9386652 0.8239908
vt 0.9386652 0.6635156
vt 0.2417367 0.571306
vt 0.3241169 0.5713061
vt 0.1424548 0.5008417
vt 0.2417367 0.5008417
vt 0.3241169 0.6635156
vt 0.3241169 0.571306
vt 0.2417367 0.571306
vt 0.1424548 0.8239908
vt 0.9386652 0.8239908
vt 0.9386652 0.6635156
vt 0.1424548 0.5008417
vt 0.2417367 0.5008417
vt 0.7886509 0.460701
vt 0.788651 0.5368328
vt 0.8201287 0.460701
vt 0.8201287 0.5368328
vt 0.9723021 0.7697473
vt 0.9788626 0.7731634
vt 0.9723021 0.7440002
vt 0.9788626 0.7284505
vt 0.9585518 0.7440002
vt 0.9518796 0.7284505
vt 0.9518796 0.7731634
vt 0.9585518 0.7697473
vt 0.5496337 0.3902274
vt 0.6660361 0.3413419
vt 0.6660361 0.4387363
vt 0.4059177 0.4387363
vt 0.4059176 0.3902274
vt 0.5650576 0.3446822
vt 0.8165324 0.6368973
vt 0.8165324 0.5735594
vt 0.7938927 0.6368973
vt 0.7938927 0.5735594
vt 0.6660361 0.4387363
vt 0.6660361 0.3413419
vt 0.5496337 0.3902275
vt 0.4059177 0.4387363
vt 0.4059177 0.3902274
vt 0.5650575 0.3446822
vt 0.7926797 0.60482
vt 0.8146471 0.60482
vt 0.7926796 0.5981033
vt 0.814647 0.5981033
vt 0.7896993 0.3968793
vt 0.8204705 0.3968793
vt 0.7896993 0.3512823
vt 0.8204705 0.3512822
vt 0.8715885 0.4704766
vt 0.9862148 0.4704766
vt 0.8715885 0.6381561
vt 0.9862148 0.6381562
vt 0.9862148 0.3380997
vt 0.8715885 0.3380997
vt 0.8715885 0.6381561
vt 0.9862148 0.6381562
vt 0.8715885 0.4704766
vt 0.9862148 0.4704766
vt 0.9862148 0.3380997
vt 0.8715885 0.3380997
vt 0.8851175 0.3074128
vt 0.8851175 0.004087746
vt 0.9661705 0.3074128
vt 0.9661705 0.004087746
vt 0.05870307 0.03998164
vt 0.05870307 0.295537
vt 0.1174075 0.03996993
vt 0.1174075 0.295537
vt 0.1686195 0.3280613
vt 0.1686194 0.0007872339
vt 0.2393158 0.000787219
vt 0.6502873 0.2169653
vt 0.6502873 0.3274713
vt 0.2389975 0.0007872339
vt 0.1686195 0.3280613
vt 0.6502873 0.2169653
vt 0.6502873 0.3274713
vt 0.1686194 0.0007872339
vt 0.05870307 0.295537
vt 0.05870307 0.3395006
vt 0.1174075 0.295537
vt 0.1174075 0.3395006
vt 0.7943339 0.412542
vt 0.7908604 0.4190175
vt 0.8139395 0.412542
vt 0.8174132 0.4190175
vt 0.8139396 0.3925101
vt 0.8174132 0.3502854
vt 0.7943339 0.3925101
vt 0.7908604 0.3502854
vt 0.1424547 0.81629
vt 0.9386652 0.81629
vt 0.9386652 0.81629
vt 0.1424547 0.81629
vt 0.9386652 0.81629
vt 0.9386652 0.81629
vt 0.7886911 0.3497628
vt 0.7886911 0.4264636
vt 0.8193309 0.3497628
vt 0.819331 0.4264636
vt 0.861774 0.8894693
vt 0.8257923 0.8894693
vt 0.861774 0.9258329
vt 0.8257923 0.9258329
vt 0.7926763 0.5230477
vt 0.817682 0.5230477
vt 0.7926763 0.4666294
vt 0.817682 0.4666294
vt 0.8139825 0.6313117
vt 0.8106697 0.6018347
vt 0.7953431 0.6313117
vt 0.7986559 0.6018347
vt 0.7953431 0.5853392
vt 0.7986559 0.5894479
vt 0.8139825 0.5853392
vt 0.8106697 0.5894479
vt 0.02853787 0.822379
vt 0.02853787 0.9585373
vt 0.05336314 0.822379
vt 0.05336314 0.9585373
vt 0.05336314 0.822379
vt 0.05336314 0.9585373
vt 0.1402307 0.9585372
vt 0.1402307 0.822379
vt 0.1402307 0.822379
vt 0.1402307 0.9585372
vt 0.2189558 0.822379
vt 0.2189558 0.9585372
vt 0.2189558 0.822379
vt 0.2189558 0.9585372
vt 0.3052571 0.822379
vt 0.3052571 0.9585372
vt 0.7896992 0.4257917
vt 0.8204705 0.4257917
vt 0.7896993 0.3968793
vt 0.8204705 0.3968793
vt 0.8146471 0.6101018
vt 0.8146471 0.60482
vt 0.7926797 0.6101018
vt 0.7926797 0.60482
vn -0.9999324 -0.004901837 -0.01054119
vn -0.9999324 -0.004901837 -0.01054119
vn -0.9999324 -0.004901837 -0.01054119
vn -0.9999324 -0.004901837 -0.01054119
vn 0.9999444 0 0.01054132
vn 0.9999444 0 0.01054132
vn 0.9999444 0 0.01054132
vn 0.9999444 0 0.01054132
vn 0.008235766 -0.9999661 8.681788E-05
vn 0.008235766 -0.9999661 8.681788E-05
vn 0.008235766 -0.9999661 8.681788E-05
vn 0.008235766 -0.9999661 8.681788E-05
vn -0.9999444 0 -0.01054132
vn -0.9999444 0 -0.01054132
vn -0.9999444 0 -0.01054132
vn -0.9999444 0 -0.01054132
vn -0.9999405 -0.002816058 -0.01054122
vn -0.9999405 -0.002816058 -0.01054122
vn -0.9999405 -0.002816058 -0.01054122
vn -0.9999405 -0.002816058 -0.01054122
vn 2.20965E-06 -1 0
vn 2.20965E-06 -1 0
vn 2.20965E-06 -1 0
vn 2.20965E-06 -1 0
vn -9.251815E-05 -0.999999 0.001411796
vn -9.251815E-05 -0.999999 0.001411796
vn -9.251815E-05 -0.999999 0.001411796
vn -9.251815E-05 -0.999999 0.001411796
vn -6.196223E-05 -0.999999 -0.001400712
vn -6.196223E-05 -0.999999 -0.001400712
vn -6.196223E-05 -0.999999 -0.001400712
vn -6.196223E-05 -0.999999 -0.001400712
vn -0.01024673 -0.0001682313 0.9999475
vn -0.01024673 -0.0001682313 0.9999475
vn -0.01024673 -0.0001682313 0.9999475
vn -0.01024673 -0.0001682313 0.9999475
vn -0.01054133 0 0.9999444
vn -0.01054133 0 0.9999444
vn -0.01054133 0 0.9999444
vn -0.01054133 0 0.9999444
vn 0.01054133 -2.421439E-07 -0.9999444
vn 0.01054133 -2.421439E-07 -0.9999444
vn 0.01054133 -2.421439E-07 -0.9999444
vn 0.01139921 -0.0004900041 -0.9999349
vn 0.01139921 -0.0004900041 -0.9999349
vn 0.01139921 -0.0004900041 -0.9999349
vn 0.01054133 0 -0.9999444
vn 0.01054133 0 -0.9999444
vn -0.8225582 -0.5686333 -0.007363523
vn -0.8225582 -0.5686333 -0.007363523
vn -0.8225582 -0.5686333 -0.007363523
vn -0.8225582 -0.5686333 -0.007363523
vn -0.9999444 0 -0.01054132
vn -0.9999444 0 -0.01054132
vn -0.9999444 0 -0.01054132
vn -0.9999444 0 -0.01054132
vn -0.9999444 0 -0.01054132
vn -0.9999444 0 -0.01054132
vn -0.9999444 0 -0.01054132
vn -0.9999444 0 -0.01054132
vn -0.01054133 0 0.9999444
vn -0.01054133 0 0.9999444
vn -0.01054133 0 0.9999444
vn -0.01054133 -5.606562E-07 0.9999444
vn -0.01054133 -5.606562E-07 0.9999444
vn -0.01054133 3.054738E-07 0.9999444
vn -0.02395023 0.9997131 -0.0002524797
vn -0.02395023 0.9997131 -0.0002524797
vn -0.02395023 0.9997131 -0.0002524797
vn -0.02395023 0.9997131 -0.0002524797
vn 0.01092217 0.00126226 -0.9999396
vn 0.01092217 0.00126226 -0.9999396
vn 0.01092217 0.00126226 -0.9999396
vn 0.01054133 -2.831221E-07 -0.9999444
vn 0.01054133 -2.831221E-07 -0.9999444
vn 0.01143295 -0.0004169875 -0.9999346
vn -0.9246758 0.3806308 -0.009747828
vn -0.9246758 0.3806308 -0.009747828
vn -0.9246758 0.3806308 -0.009747828
vn -0.9246758 0.3806308 -0.009747828
vn 0.901459 -0.4327601 0.009503062
vn 0.901459 -0.4327601 0.009503062
vn 0.901459 -0.4327601 0.009503062
vn 0.901459 -0.4327601 0.009503062
vn 0.006061796 0.00474844 -0.9999704
vn 0.006061796 0.00474844 -0.9999704
vn 0.006061796 0.00474844 -0.9999704
vn 0.006061796 0.00474844 -0.9999704
vn 0.01367817 0.01820233 -0.9997408
vn 0.01367817 0.01820233 -0.9997408
vn -0.01054129 0.003341535 0.9999388
vn -0.01054129 0.003341535 0.9999388
vn -0.01054129 0.003341535 0.9999388
vn -0.01366192 -0.01818584 0.9997413
vn -0.01366192 -0.01818584 0.9997413
vn -0.01366192 -0.01818584 0.9997413
vn 2.94327E-07 1 0
vn 2.94327E-07 1 0
vn 2.94327E-07 1 0
vn 2.94327E-07 1 0
vn -0.465523 -0.8850225 -0.004853309
vn -0.465523 -0.8850225 -0.004853309
vn -0.465523 -0.8850225 -0.004853309
vn -0.465523 -0.8850225 -0.004853309
vn -0.01054133 0 0.9999444
vn -0.01054133 0 0.9999444
vn -0.01054133 0 0.9999444
vn -0.01054133 0 0.9999444
vn -0.01054133 0 0.9999444
vn 0.01054133 0 -0.9999444
vn 0.01054133 0 -0.9999444
vn 0.01054133 0 -0.9999444
vn 0.01054133 0 -0.9999444
vn 0.01054133 0 -0.9999444
vn -0.001295071 -0.9999992 -1.365505E-05
vn -0.001295071 -0.9999992 -1.365505E-05
vn -0.001295071 -0.9999992 -1.365505E-05
vn -0.001295071 -0.9999992 -1.365505E-05
vn 0.9999444 0 0.01054132
vn 0.9999444 0 0.01054132
vn 0.9999444 0 0.01054132
vn 0.9999444 0 0.01054132
vn 0.9999444 0 0.01054176
vn 0.9999444 0 0.01054176
vn 0.9999455 -4.116859E-05 0.01044255
vn 0.9999455 -4.116859E-05 0.01044255
vn -0.0009128728 0.9999996 -9.621494E-06
vn -0.0009128728 0.9999996 -9.621494E-06
vn -0.0009128728 0.9999996 -9.621494E-06
vn -0.0009128901 0.9999996 -9.621494E-06
vn -0.0009128901 0.9999996 -9.621494E-06
vn -0.0009128901 0.9999996 -9.621494E-06
vn 0 -1 0
vn 0 -1 0
vn 0 -1 0
vn 0 -1 0
vn 0 1 0
vn 0 1 0
vn 0 1 0
vn 0 1 0
vn -0.9058203 0.4235546 -0.009549048
vn -0.9058203 0.4235546 -0.009549048
vn -0.9058203 0.4235546 -0.009549048
vn -0.9058203 0.4235546 -0.009549048
vn 1.386274E-06 1 0
vn 1.386274E-06 1 0
vn 1.386274E-06 1 0
vn 1.386274E-06 1 0
vn 0 1 0
vn 0 1 0
vn -9.944459E-06 1 -1.015142E-07
vn -9.944459E-06 1 -1.015142E-07
vn 0.9598454 0.280347 0.01011859
vn 0.9598454 0.280347 0.01011859
vn 0.9598454 0.280347 0.01011859
vn 0.9598454 0.280347 0.01011859
vn 0.01054133 -7.841736E-07 -0.9999444
vn 0.01054133 -7.841736E-07 -0.9999444
vn 0.01054133 -7.841736E-07 -0.9999444
vn 0.01054133 0 -0.9999444
vn -0.9999439 -0.001094743 -0.01054128
vn -0.9999439 -0.001094743 -0.01054128
vn -0.9999439 -0.001094743 -0.01054128
vn -0.9999439 -0.001094743 -0.01054128
vn -0.01054133 -1.043081E-07 0.9999444
vn -0.01054133 -1.043081E-07 0.9999444
vn -0.01054133 -1.043081E-07 0.9999444
vn -0.01054133 0 0.9999444
vn 0.6282181 -0.7780349 0.001964804
vn 0.6282181 -0.7780349 0.001964804
vn 0.6282181 -0.7780349 0.001964804
vn 0.6282181 -0.7780349 0.001964804
vn -0.6184146 0.7858499 -0.001864459
vn -0.6184146 0.7858499 -0.001864459
vn -0.6184146 0.7858499 -0.001864459
vn -0.6184146 0.7858499 -0.001864459
f 3/3/3 2/2/2 1/1/1
f 3/3/3 4/4/4 2/2/2
f 7/7/7 6/6/6 5/5/5
f 7/7/7 8/8/8 6/6/6
f 11/11/11 10/10/10 9/9/9
f 11/11/11 12/12/12 10/10/10
f 15/15/15 14/14/14 13/13/13
f 15/15/15 16/16/16 14/14/14
f 19/19/19 18/18/18 17/17/17
f 19/19/19 20/20/20 18/18/18
f 23/23/23 22/22/22 21/21/21
f 23/23/23 24/24/24 22/22/22
f 27/27/27 26/26/26 25/25/25
f 27/27/27 28/28/28 26/26/26
f 27/27/27 25/25/25 29/29/29
f 27/27/27 29/29/29 30/30/30
f 30/30/30 29/29/29 31/31/31
f 28/28/28 31/31/31 26/26/26
f 30/30/30 31/31/31 32/32/32
f 28/28/28 32/32/32 31/31/31
f 35/35/35 34/34/34 33/33/33
f 35/35/35 36/36/36 34/34/34
f 34/34/34 37/37/37 33/33/33
f 34/34/34 38/38/38 37/37/37
f 37/37/37 39/39/39 33/33/33
f 37/37/37 40/40/40 39/39/39
f 43/43/43 42/42/42 41/41/41
f 44/44/44 43/43/43 41/41/41
f 45/45/45 44/44/44 41/41/41
f 45/45/45 41/41/41 46/46/46
f 44/44/44 47/47/47 43/43/43
f 47/47/47 48/48/48 43/43/43
f 51/51/51 50/50/50 49/49/49
f 51/51/51 52/52/52 50/50/50
f 55/55/55 54/54/54 53/53/53
f 55/55/55 56/56/56 54/54/54
f 56/56/56 55/55/55 57/57/57
f 56/56/56 57/57/57 58/58/58
f 57/57/57 59/59/59 58/58/58
f 57/57/57 60/60/60 59/59/59
f 63/63/63 62/62/62 61/61/61
f 61/61/61 64/64/64 63/63/63
f 61/61/61 65/65/65 64/64/64
f 62/62/62 66/66/66 61/61/61
f 69/69/69 68/68/68 67/67/67
f 69/69/69 70/70/70 68/68/68
f 73/73/73 72/72/72 71/71/71
f 74/74/74 73/73/73 71/71/71
f 74/74/74 75/75/75 73/73/73
f 73/73/73 76/76/76 72/72/72
f 79/79/79 78/78/78 77/77/77
f 79/79/79 80/80/80 78/78/78
f 83/83/83 82/82/82 81/81/81
f 83/83/83 84/84/84 82/82/82
f 87/87/87 86/86/86 85/85/85
f 87/87/87 88/88/88 86/86/86
f 85/85/85 86/86/86 89/89/89
f 85/85/85 89/89/89 90/90/90
f 93/93/93 92/92/92 91/91/91
f 93/93/93 94/94/94 92/92/92
f 95/95/95 94/94/94 93/93/93
f 95/95/95 93/93/93 96/96/96
f 99/99/99 98/98/98 97/97/97
f 99/99/99 100/100/100 98/98/98
f 103/103/103 102/102/102 101/101/101
f 103/103/103 104/104/104 102/102/102
f 107/107/107 106/106/106 105/105/105
f 108/108/108 107/107/107 105/105/105
f 108/108/108 105/105/105 109/109/109
f 112/112/112 111/111/111 110/110/110
f 112/112/112 113/113/113 111/111/111
f 111/111/111 114/114/114 110/110/110
f 117/117/117 116/116/116 115/115/115
f 117/117/117 118/118/118 116/116/116
f 121/121/121 120/120/120 119/119/119
f 121/121/121 122/122/122 120/120/120
f 123/123/123 122/122/122 121/121/121
f 123/123/123 124/124/124 122/122/122
f 124/124/124 123/123/123 125/125/125
f 120/120/120 125/125/125 119/119/119
f 124/124/124 125/125/125 126/126/126
f 120/120/120 126/126/126 125/125/125
f 129/129/129 128/128/128 127/127/127
f 128/128/128 130/130/130 127/127/127
f 128/128/128 131/131/131 130/130/130
f 131/131/131 132/132/132 130/130/130
f 135/135/135 134/134/134 133/133/133
f 135/135/135 136/136/136 134/134/134
f 139/139/139 138/138/138 137/137/137
f 139/139/139 140/140/140 138/138/138
f 143/143/143 142/142/142 141/141/141
f 143/143/143 144/144/144 142/142/142
f 147/147/147 146/146/146 145/145/145
f 147/147/147 148/148/148 146/146/146
f 149/149/149 148/148/148 147/147/147
f 149/149/149 150/150/150 148/148/148
f 151/151/151 150/150/150 149/149/149
f 146/146/146 151/151/151 145/145/145
f 151/151/151 152/152/152 150/150/150
f 146/146/146 152/152/152 151/151/151
f 155/155/155 154/154/154 153/153/153
f 155/155/155 156/156/156 154/154/154
f 159/159/159 158/158/158 157/157/157
f 160/160/160 159/159/159 157/157/157
f 163/163/163 162/162/162 161/161/161
f 163/163/163 164/164/164 162/162/162
f 167/167/167 166/166/166 165/165/165
f 167/167/167 168/168/168 166/166/166
f 171/171/171 170/170/170 169/169/169
f 171/171/171 172/172/172 170/170/170
f 175/175/175 174/174/174 173/173/173
f 175/175/175 176/176/176 174/174/174
