g Weapon_Grenade
v -0.07599662 0.08761271 -0.07761592
v -0.07599659 -0.1546502 -0.07761592
v 0.07761608 0.08761281 -0.07599652
v 0.07761597 -0.1546503 -0.07599652
v 0.07761608 0.08761281 -0.07599652
v 0.03071466 0.08761275 -0.02528118
v -0.07599662 0.08761271 -0.07761592
v -0.07653636 0.08761285 -0.02641164
v 0.07599656 0.08761273 0.07761594
v 0.03017491 0.08761271 0.02592319
v -0.077616 0.08761283 0.07599666
v -0.07707595 0.08761283 0.02479251
v -0.07761596 -0.1546503 0.07599666
v -0.077616 0.08761283 0.07599666
v 0.07599657 -0.1546502 0.07761594
v 0.07599656 0.08761273 0.07761594
v -0.07599659 -0.1546502 -0.07761592
v -0.07761596 -0.1546503 0.07599666
v 0.07761597 -0.1546503 -0.07599652
v 0.07599657 -0.1546502 0.07761594
v -0.07761596 -0.1546503 0.07599666
v -0.07707595 -0.1039966 0.02479251
v -0.077616 0.08761283 0.07599666
v -0.07707595 0.08761283 0.02479251
v -0.07653636 -0.1039966 -0.02641164
v -0.07599659 -0.1546502 -0.07761592
v -0.07599662 0.08761271 -0.07761592
v -0.07653636 0.08761285 -0.02641164
v 0.07599657 -0.1546502 0.07761594
v 0.07599656 0.08761273 0.07761594
v 0.07761597 -0.1546503 -0.07599652
v 0.07761608 0.08761281 -0.07599652
v -0.1001244 0.1544538 -0.02666047
v -0.1006643 0.1544538 0.0245437
v -0.100265 -0.1039967 -0.02666182
v -0.1008049 -0.1039966 0.02454234
v 0.03017497 0.1546499 0.02592319
v -0.1006643 0.1544538 0.0245437
v 0.03071455 0.15465 -0.02528118
v -0.1001244 0.1544538 -0.02666047
v -0.07653636 -0.1039966 -0.02641164
v -0.07653636 0.08761285 -0.02641164
v -0.100265 -0.1039967 -0.02666182
v -0.1001244 0.1544538 -0.02666047
v 0.03071455 0.15465 -0.02528118
v 0.03071466 0.08761275 -0.02528118
v -0.07653636 -0.1039966 -0.02641164
v -0.100265 -0.1039967 -0.02666182
v -0.07707595 -0.1039966 0.02479251
v -0.1008049 -0.1039966 0.02454234
v -0.07707595 -0.1039966 0.02479251
v -0.1008049 -0.1039966 0.02454234
v -0.07707595 0.08761283 0.02479251
v -0.1006643 0.1544538 0.0245437
v 0.03017497 0.1546499 0.02592319
v 0.03017491 0.08761271 0.02592319
v 0.03017491 0.08761271 0.02592319
v 0.03017497 0.1546499 0.02592319
v 0.03071466 0.08761275 -0.02528118
v 0.03071455 0.15465 -0.02528118
vt 0.9157616 0.2508399
vt 0.9157616 0.5842634
vt 0.889058 0.2508398
vt 0.8890576 0.5842632
vt 0.7163311 0.2508398
vt 0.7725028 0.1819942
vt 0.7163311 0.03250688
vt 0.7725028 0.03250688
vt 0.8893455 0.2508396
vt 0.8286744 0.1819942
vt 0.8893456 0.03250688
vt 0.8286744 0.03250688
vt 0.9159856 0.584263
vt 0.9159853 0.2508395
vt 0.8893458 0.5842632
vt 0.8893455 0.2508396
vt 0.7163314 0.7983701
vt 0.8893459 0.7983699
vt 0.7163313 0.5842632
vt 0.8893458 0.5842632
vt 0.9159856 0.584263
vt 0.9333466 0.5136654
vt 0.9159853 0.2508395
vt 0.9333464 0.2508393
vt 0.948316 0.5136654
vt 0.9620894 0.5842625
vt 0.9620891 0.2508391
vt 0.9483157 0.2508392
vt 0.8893458 0.5842632
vt 0.8893455 0.2508396
vt 0.7163313 0.5842632
vt 0.7163311 0.2508398
vt 0.01454183 0.9152029
vt 0.08591077 0.915242
vt 0.01473814 0.5518226
vt 0.08610708 0.5518615
vt 0.2629922 0.915714
vt 0.08591077 0.915242
vt 0.2628075 0.9839129
vt 0.08572617 0.9834409
vt 0.1182475 0.5518226
vt 0.1182475 0.8188749
vt 0.08517408 0.5518226
vt 0.08537048 0.9152029
vt 0.2624523 0.9154765
vt 0.2624523 0.8188749
vt 0.01475611 0.5187492
vt 0.01473814 0.5518226
vt 0.08612499 0.5187879
vt 0.08610708 0.5518615
vt 0.1191805 0.5518975
vt 0.08610708 0.5518615
vt 0.1188894 0.8189496
vt 0.08591077 0.915242
vt 0.2629922 0.915714
vt 0.263094 0.8191126
vt 0.263094 0.8191126
vt 0.2629922 0.915714
vt 0.3397456 0.8191904
vt 0.3396439 0.9157918
vn 0.01054133 0 -0.9999444
vn 0.01054133 0 -0.9999444
vn 0.01054133 0 -0.9999444
vn 0.01054133 0 -0.9999444
vn 0 1 0
vn 0 1 0
vn 0 1 0
vn 0 1 0
vn 0 1 0
vn 0 1 0
vn 0 1 0
vn 0 1 0
vn -0.01054133 0 0.9999444
vn -0.01054133 0 0.9999444
vn -0.01054133 0 0.9999444
vn -0.01054133 0 0.9999444
vn 0 -1 0
vn 0 -1 0
vn 0 -1 0
vn 0 -1 0
vn -0.9999444 0 -0.01054132
vn -0.9999444 0 -0.01054132
vn -0.9999444 0 -0.01054132
vn -0.9999444 0 -0.01054132
vn -0.9999444 0 -0.01054132
vn -0.9999444 0 -0.01054132
vn -0.9999444 0 -0.01054132
vn -0.9999444 0 -0.01054132
vn 0.9999444 0 0.01054132
vn 0.9999444 0 0.01054132
vn 0.9999444 0 0.01054132
vn 0.9999444 0 0.01054132
vn -0.9999443 0.000544916 -0.01054128
vn -0.9999443 0.000544916 -0.01054128
vn -0.9999443 0.000544916 -0.01054128
vn -0.9999443 0.000544916 -0.01054128
vn -0.001499598 0.9999989 -1.58064E-05
vn -0.001499598 0.9999989 -1.58064E-05
vn -0.001499598 0.9999989 -1.58064E-05
vn -0.001499598 0.9999989 -1.58064E-05
vn 0.01054133 0 -0.9999444
vn 0.01054133 0 -0.9999444
vn 0.01054133 0 -0.9999444
vn 0.01054133 0 -0.9999444
vn 0.01054133 0 -0.9999444
vn 0.01054133 0 -0.9999444
vn 0 -1 0
vn 0 -1 0
vn 0 -1 0
vn 0 -1 0
vn -0.01054133 0 0.9999444
vn -0.01054133 0 0.9999444
vn -0.01054133 0 0.9999444
vn -0.01054133 0 0.9999444
vn -0.01054133 0 0.9999444
vn -0.01054133 0 0.9999444
vn 0.9999444 0 0.01054132
vn 0.9999444 0 0.01054132
vn 0.9999444 0 0.01054132
vn 0.9999444 0 0.01054132
f 3/3/3 2/2/2 1/1/1
f 3/3/3 4/4/4 2/2/2
f 7/7/7 6/6/6 5/5/5
f 7/7/7 8/8/8 6/6/6
f 9/9/9 5/5/5 6/6/6
f 9/9/9 6/6/6 10/10/10
f 10/10/10 11/11/11 9/9/9
f 10/10/10 12/12/12 11/11/11
f 15/15/15 14/14/14 13/13/13
f 15/15/15 16/16/16 14/14/14
f 19/19/19 18/18/18 17/17/17
f 19/19/19 20/20/20 18/18/18
f 23/23/23 22/22/22 21/21/21
f 23/23/23 24/24/24 22/22/22
f 25/25/25 21/21/21 22/22/22
f 25/25/25 26/26/26 21/21/21
f 25/25/25 27/27/27 26/26/26
f 25/25/25 28/28/28 27/27/27
f 31/31/31 30/30/30 29/29/29
f 31/31/31 32/32/32 30/30/30
f 35/35/35 34/34/34 33/33/33
f 35/35/35 36/36/36 34/34/34
f 39/39/39 38/38/38 37/37/37
f 39/39/39 40/40/40 38/38/38
f 43/43/43 42/42/42 41/41/41
f 43/43/43 44/44/44 42/42/42
f 42/42/42 44/44/44 45/45/45
f 42/42/42 45/45/45 46/46/46
f 49/49/49 48/48/48 47/47/47
f 49/49/49 50/50/50 48/48/48
f 53/53/53 52/52/52 51/51/51
f 53/53/53 54/54/54 52/52/52
f 55/55/55 54/54/54 53/53/53
f 55/55/55 53/53/53 56/56/56
f 59/59/59 58/58/58 57/57/57
f 59/59/59 60/60/60 58/58/58
