g wheel_l2
v -0.2087204 0.3615463 0.6261615
v -0.2087204 0.6261615 0.3615463
v 0.2087206 0.6261615 0.3615463
v 0.2087206 0.3615463 0.6261615
v -0.2087204 0.6261615 0.3615463
v -0.2087204 0.7238002 0.0007074475
v 0.2087206 0.7238002 -0.0007075667
v 0.2087206 0.6261615 0.3615463
v -0.2087204 0.7238002 0.0007074475
v -0.2087204 0.6261615 -0.3615465
v 0.2087206 0.6261615 -0.3615465
v 0.2087206 0.7238002 -0.0007075667
v -0.2087204 0.6261615 -0.3615465
v -0.2087204 0.3615463 -0.6261616
v 0.2087206 0.3615463 -0.6261616
v 0.2087206 0.6261615 -0.3615465
v -0.2087204 0.3615463 -0.6261616
v -0.2087204 0.0007074475 -0.7238004
v 0.2087206 0.0007074475 -0.7238004
v 0.2087206 0.3615463 -0.6261616
v -0.2087204 0.0007074475 -0.7238004
v -0.2087204 -0.3615465 -0.6261616
v 0.2087206 -0.3615465 -0.6261616
v 0.2087206 0.0007074475 -0.7238004
v -0.2087204 -0.3615465 -0.6261616
v -0.2087204 -0.6261616 -0.3615465
v 0.2087206 -0.6261616 -0.3615465
v 0.2087206 -0.3615465 -0.6261616
v -0.2087204 -0.6261616 -0.3615465
v -0.2087204 -0.7238004 0.0007074475
v 0.2087206 -0.7238004 -0.0007075667
v 0.2087206 -0.6261616 -0.3615465
v -0.2087204 -0.7238004 0.0007074475
v -0.2087204 -0.6261616 0.3615463
v 0.2087206 -0.6261616 0.3615463
v 0.2087206 -0.7238004 -0.0007075667
v -0.2087204 -0.6261616 0.3615463
v -0.2087204 -0.3615465 0.6261615
v 0.2087206 -0.3615465 0.6261615
v 0.2087206 -0.6261616 0.3615463
v -0.2087204 -0.3615465 0.6261615
v -0.2087204 0.0007074475 0.7238002
v 0.2087206 0.0007074475 0.7238002
v 0.2087206 -0.3615465 0.6261615
v -0.2087204 0.0007074475 0.7238002
v -0.2087204 0.3615463 0.6261615
v 0.2087206 0.3615463 0.6261615
v 0.2087206 0.0007074475 0.7238002
v -0.2087204 0.6261615 0.3615463
v -0.2087204 0.3615463 0.6261615
v -0.2087204 0.0007074475 0.0007074475
v -0.2087204 0.7238002 0.0007074475
v -0.2087204 0.6261615 -0.3615465
v -0.2087204 0.3615463 -0.6261616
v -0.2087204 0.0007074475 -0.7238004
v -0.2087204 -0.3615465 -0.6261616
v -0.2087204 -0.6261616 -0.3615465
v -0.2087204 -0.7238004 0.0007074475
v -0.2087204 -0.6261616 0.3615463
v -0.2087204 -0.3615465 0.6261615
v -0.2087204 0.0007074475 0.7238002
v 0.2087206 0.3615463 0.6261615
v 0.2087206 0.6261615 0.3615463
v 0.2087206 0.0007074475 -0.0007075667
v 0.2087206 0.7238002 -0.0007075667
v 0.2087206 0.6261615 -0.3615465
v 0.2087206 0.3615463 -0.6261616
v 0.2087206 0.0007074475 -0.7238004
v 0.2087206 -0.3615465 -0.6261616
v 0.2087206 -0.6261616 -0.3615465
v 0.2087206 -0.7238004 -0.0007075667
v 0.2087206 -0.6261616 0.3615463
v 0.2087206 -0.3615465 0.6261615
v 0.2087206 0.0007074475 0.7238002
vt 0.2495227 0.2920777
vt 0.2495227 0.289838
vt 0.1599332 0.289838
vt 0.1599332 0.2920777
vt 0.2495227 0.289838
vt 0.2495227 0.2875983
vt 0.1599332 0.2875983
vt 0.1599332 0.289838
vt 0.2495227 0.2875983
vt 0.2495227 0.2875983
vt 0.1599332 0.2875983
vt 0.1599332 0.2875983
vt 0.2495227 0.2875983
vt 0.2495227 0.2853585
vt 0.1599332 0.2853585
vt 0.1599332 0.2875983
vt 0.07034369 0.2808791
vt 0.07034369 0.2831188
vt 0.1576935 0.2831188
vt 0.1576935 0.2808791
vt 0.07034369 0.2831188
vt 0.07034369 0.2831188
vt 0.1576935 0.2831188
vt 0.1576935 0.2831188
vt 0.07034369 0.2831188
vt 0.07034369 0.2853585
vt 0.1576935 0.2853585
vt 0.1576935 0.2831188
vt 0.07034369 0.2853585
vt 0.07034369 0.2853585
vt 0.1576935 0.2853585
vt 0.1576935 0.2853585
vt 0.07034369 0.2853585
vt 0.07034369 0.2875983
vt 0.1576935 0.2875983
vt 0.1576935 0.2853585
vt 0.07034369 0.2875983
vt 0.07034369 0.289838
vt 0.1576935 0.289838
vt 0.1576935 0.2875983
vt 0.07034369 0.289838
vt 0.07034369 0.289838
vt 0.1576935 0.289838
vt 0.1576935 0.289838
vt 0.07034369 0.289838
vt 0.07034369 0.2920777
vt 0.1576935 0.2920777
vt 0.1576935 0.289838
vt 0.05466552 0.07034369
vt 0.09946027 0.02554893
vt 0.1621729 0.1330563
vt 0.03674763 0.1330563
vt 0.05466552 0.195769
vt 0.09946027 0.2428035
vt 0.1621729 0.2584817
vt 0.2248856 0.2428035
vt 0.2719201 0.195769
vt 0.2875983 0.1330563
vt 0.2719201 0.07034369
vt 0.2248856 0.02554893
vt 0.1621729 0.007631034
vt 0.2248856 0.02554893
vt 0.2719201 0.07034369
vt 0.1621729 0.1330563
vt 0.2875983 0.1330563
vt 0.2719201 0.195769
vt 0.2248856 0.2428035
vt 0.1621729 0.2607214
vt 0.09946027 0.2428035
vt 0.05242579 0.195769
vt 0.03674763 0.1330563
vt 0.05242579 0.07034369
vt 0.09946027 0.02554893
vt 0.1621729 0.007631034
vn -0.01587105 0.7141957 0.6997661
vn -0.01587105 0.7141957 0.6997661
vn -0.01587105 0.7141957 0.6997661
vn -0.01587105 0.7141957 0.6997661
vn -0.01587105 0.968132 0.249937
vn -0.01587105 0.968132 0.249937
vn -0.01587105 0.968132 0.249937
vn -0.01587105 0.968132 0.249937
vn -0.01587105 0.968132 -0.249937
vn -0.01587105 0.968132 -0.249937
vn -0.01587105 0.968132 -0.249937
vn -0.01587105 0.968132 -0.249937
vn -0.01587105 0.7141957 -0.6997661
vn -0.01587105 0.7141957 -0.6997661
vn -0.01587105 0.7141957 -0.6997661
vn -0.01587105 0.7141957 -0.6997661
vn -0.01587105 0.2698073 -0.9627835
vn -0.01587105 0.2698073 -0.9627835
vn -0.01587105 0.2698073 -0.9627835
vn -0.01587105 0.2698073 -0.9627835
vn -0.01587105 -0.2698073 -0.9627835
vn -0.01587105 -0.2698073 -0.9627835
vn -0.01587105 -0.2698073 -0.9627835
vn -0.01587105 -0.2698073 -0.9627835
vn -0.01587105 -0.7141957 -0.6997661
vn -0.01587105 -0.7141957 -0.6997661
vn -0.01587105 -0.7141957 -0.6997661
vn -0.01587105 -0.7141957 -0.6997661
vn -0.01587105 -0.968132 -0.2499373
vn -0.01587105 -0.968132 -0.2499373
vn -0.01587105 -0.968132 -0.2499373
vn -0.01587105 -0.968132 -0.2499373
vn -0.01587105 -0.968132 0.2499373
vn -0.01587105 -0.968132 0.2499373
vn -0.01587105 -0.968132 0.2499373
vn -0.01587105 -0.968132 0.2499373
vn -0.01587105 -0.7141957 0.6997661
vn -0.01587105 -0.7141957 0.6997661
vn -0.01587105 -0.7141957 0.6997661
vn -0.01587105 -0.7141957 0.6997661
vn -0.01587105 -0.2698073 0.9627835
vn -0.01587105 -0.2698073 0.9627835
vn -0.01587105 -0.2698073 0.9627835
vn -0.01587105 -0.2698073 0.9627835
vn -0.01587105 0.2698073 0.9627835
vn -0.01587105 0.2698073 0.9627835
vn -0.01587105 0.2698073 0.9627835
vn -0.01587105 0.2698073 0.9627835
vn -0.999874 0.01587105 -0.0003439156
vn -0.999874 0.01587105 -0.0003439156
vn -0.999874 0.01587105 -0.0003439156
vn -0.999874 0.01587105 -0.0003439156
vn -0.999874 0.01587105 -0.0003439156
vn -0.999874 0.01587105 -0.0003439156
vn -0.999874 0.01587105 -0.0003439156
vn -0.999874 0.01587105 -0.0003439156
vn -0.999874 0.01587105 -0.0003439156
vn -0.999874 0.01587105 -0.0003439156
vn -0.999874 0.01587105 -0.0003439156
vn -0.999874 0.01587105 -0.0003439156
vn -0.999874 0.01587105 -0.0003439156
vn 0.999874 0.01587105 -0.0003439156
vn 0.999874 0.01587105 -0.0003439156
vn 0.999874 0.01587105 -0.0003439156
vn 0.999874 0.01587105 -0.0003439156
vn 0.999874 0.01587105 -0.0003439156
vn 0.999874 0.01587105 -0.0003439156
vn 0.999874 0.01587105 -0.0003439156
vn 0.999874 0.01587105 -0.0003439156
vn 0.999874 0.01587105 -0.0003439156
vn 0.999874 0.01587105 -0.0003439156
vn 0.999874 0.01587105 -0.0003439156
vn 0.999874 0.01587105 -0.0003439156
vn 0.999874 0.01587105 -0.0003439156
f 3/3/3 2/2/2 1/1/1
f 4/4/4 3/3/3 1/1/1
f 7/7/7 6/6/6 5/5/5
f 8/8/8 7/7/7 5/5/5
f 11/11/11 10/10/10 9/9/9
f 12/12/12 11/11/11 9/9/9
f 15/15/15 14/14/14 13/13/13
f 16/16/16 15/15/15 13/13/13
f 19/19/19 18/18/18 17/17/17
f 20/20/20 19/19/19 17/17/17
f 23/23/23 22/22/22 21/21/21
f 24/24/24 23/23/23 21/21/21
f 27/27/27 26/26/26 25/25/25
f 28/28/28 27/27/27 25/25/25
f 31/31/31 30/30/30 29/29/29
f 32/32/32 31/31/31 29/29/29
f 35/35/35 34/34/34 33/33/33
f 36/36/36 35/35/35 33/33/33
f 39/39/39 38/38/38 37/37/37
f 40/40/40 39/39/39 37/37/37
f 43/43/43 42/42/42 41/41/41
f 44/44/44 43/43/43 41/41/41
f 47/47/47 46/46/46 45/45/45
f 48/48/48 47/47/47 45/45/45
f 51/51/51 50/50/50 49/49/49
f 51/51/51 49/49/49 52/52/52
f 51/51/51 52/52/52 53/53/53
f 51/51/51 53/53/53 54/54/54
f 51/51/51 54/54/54 55/55/55
f 51/51/51 55/55/55 56/56/56
f 51/51/51 56/56/56 57/57/57
f 51/51/51 57/57/57 58/58/58
f 51/51/51 58/58/58 59/59/59
f 51/51/51 59/59/59 60/60/60
f 51/51/51 60/60/60 61/61/61
f 51/51/51 61/61/61 50/50/50
f 64/64/64 63/63/63 62/62/62
f 64/64/64 65/65/65 63/63/63
f 64/64/64 66/66/66 65/65/65
f 64/64/64 67/67/67 66/66/66
f 64/64/64 68/68/68 67/67/67
f 64/64/64 69/69/69 68/68/68
f 64/64/64 70/70/70 69/69/69
f 64/64/64 71/71/71 70/70/70
f 64/64/64 72/72/72 71/71/71
f 64/64/64 73/73/73 72/72/72
f 64/64/64 74/74/74 73/73/73
f 64/64/64 62/62/62 74/74/74
