g wheel_fl2
v 0.165459 0.6566424 -0.379146
v -0.1654591 0.6566424 -0.379146
v 0.165459 0.379146 -0.6566423
v -0.1654591 0.379146 -0.6566423
v 0.165459 0.379146 -0.6566423
v -0.1654591 0.379146 -0.6566423
v 0.165459 0.0007420182 -0.759034
v -0.1654591 0.0007420182 -0.759034
v 0.165459 0.0007420182 -0.759034
v -0.1654591 0.0007420182 -0.759034
v 0.165459 -0.379146 -0.6566423
v -0.1654591 -0.379146 -0.6566423
v 0.165459 -0.379146 -0.6566423
v -0.1654591 -0.379146 -0.6566423
v 0.165459 -0.6566423 -0.379146
v -0.1654591 -0.6566423 -0.379146
v 0.165459 -0.6566423 -0.379146
v -0.1654591 -0.6566423 -0.379146
v 0.165459 -0.759034 0.0007420182
v -0.1654591 -0.759034 0.0007420182
v 0.165459 -0.759034 0.0007420182
v -0.1654591 -0.759034 0.0007420182
v 0.165459 -0.6566423 0.379146
v -0.1654591 -0.6566423 0.379146
v 0.165459 -0.6566423 0.379146
v -0.1654591 -0.6566423 0.379146
v 0.165459 -0.379146 0.6566424
v -0.1654591 -0.379146 0.6566424
v 0.165459 -0.379146 0.6566424
v -0.1654591 -0.379146 0.6566424
v 0.165459 0.0007420182 0.7590341
v -0.1654591 0.0007420182 0.7590341
v 0.165459 0.0007420182 0.7590341
v -0.1654591 0.0007420182 0.7590341
v 0.165459 0.379146 0.6566424
v -0.1654591 0.379146 0.6566424
v 0.165459 0.379146 0.6566424
v -0.1654591 0.379146 0.6566424
v 0.165459 0.6566424 0.379146
v -0.1654591 0.6566424 0.379146
v 0.165459 0.6566424 0.379146
v -0.1654591 0.6566424 0.379146
v 0.165459 0.7590341 0.0007420182
v -0.1654591 0.7590341 0.0007420182
v 0.165459 0.7590341 0.0007420182
v -0.1654591 0.7590341 0.0007420182
v 0.165459 0.6566424 -0.379146
v -0.1654591 0.6566424 -0.379146
v -0.1654591 0.6566424 -0.379146
v -0.1654591 0.0007420182 0.0007420182
v -0.1654591 0.379146 -0.6566423
v -0.1654591 0.0007420182 -0.759034
v -0.1654591 -0.379146 -0.6566423
v -0.1654591 -0.6566423 -0.379146
v -0.1654591 -0.759034 0.0007420182
v -0.1654591 -0.6566423 0.379146
v -0.1654591 -0.379146 0.6566424
v -0.1654591 0.0007420182 0.7590341
v -0.1654591 0.379146 0.6566424
v -0.1654591 0.6566424 0.379146
v -0.1654591 0.7590341 0.0007420182
v 0.165459 0.379146 -0.6566423
v 0.165459 0.0007420182 -0.759034
v 0.165459 0.6566424 -0.379146
v 0.165459 -0.379146 -0.6566423
v 0.165459 -0.6566423 -0.379146
v 0.165459 -0.759034 0.0007420182
v 0.165459 -0.6566423 0.379146
v 0.165459 -0.379146 0.6566424
v 0.165459 0.0007420182 0.7590341
v 0.165459 0.379146 0.6566424
v 0.165459 0.6566424 0.379146
v 0.165459 0.7590341 0.0007420182
vt 0.1202576 0.28555
vt 0.1202576 0.30162
vt 0.1523978 0.28555
vt 0.1523978 0.30162
vt 0.1523978 0.28555
vt 0.1523978 0.30162
vt 0.1822422 0.28555
vt 0.1822422 0.30162
vt 0.1822422 0.28555
vt 0.1822422 0.30162
vt 0.2143824 0.28555
vt 0.2143824 0.30162
vt 0.2143824 0.28555
vt 0.2143824 0.30162
vt 0.2465226 0.28555
vt 0.2465226 0.30162
vt 0.2350439 0.2970286
vt 0.2350439 0.2809585
vt 0.2029037 0.2970286
vt 0.2029037 0.2809585
vt 0.2029037 0.2970286
vt 0.2029037 0.2809585
vt 0.1707636 0.2970286
vt 0.1707636 0.2809585
vt 0.1707636 0.2970286
vt 0.1707636 0.2809585
vt 0.1409191 0.2970286
vt 0.1409191 0.2809585
vt 0.2281568 0.30162
vt 0.2281568 0.28555
vt 0.1960166 0.30162
vt 0.1960166 0.28555
vt 0.1960166 0.30162
vt 0.1960166 0.28555
vt 0.1638764 0.30162
vt 0.1638764 0.28555
vt 0.1638764 0.30162
vt 0.1638764 0.28555
vt 0.134032 0.30162
vt 0.134032 0.28555
vt 0.1592849 0.28555
vt 0.1592849 0.30162
vt 0.1914251 0.28555
vt 0.1914251 0.30162
vt 0.1914251 0.28555
vt 0.1914251 0.30162
vt 0.2235653 0.28555
vt 0.2235653 0.30162
vt 0.07204732 0.2235653
vt 0.1615807 0.134032
vt 0.03990714 0.1661721
vt 0.03990714 0.09959604
vt 0.07204732 0.04220286
vt 0.1294405 0.01006268
vt 0.1937208 0.01006268
vt 0.251114 0.04220286
vt 0.28555 0.09959604
vt 0.28555 0.1661721
vt 0.251114 0.2235653
vt 0.1937208 0.2557055
vt 0.1294405 0.2557055
vt 0.2832542 0.1661721
vt 0.251114 0.2235653
vt 0.2832542 0.09959604
vt 0.1937208 0.2557055
vt 0.1294405 0.2557055
vt 0.07204732 0.2235653
vt 0.03990714 0.1661721
vt 0.03990714 0.09959604
vt 0.07204732 0.04220286
vt 0.1294405 0.01006268
vt 0.1937208 0.01006268
vt 0.251114 0.04220286
vn -0.01587105 0.7141957 -0.6997661
vn -0.01587105 0.7141957 -0.6997661
vn -0.01587105 0.7141957 -0.6997661
vn -0.01587105 0.7141957 -0.6997661
vn -0.01587105 0.2698073 -0.9627835
vn -0.01587105 0.2698073 -0.9627835
vn -0.01587105 0.2698073 -0.9627835
vn -0.01587105 0.2698073 -0.9627835
vn -0.01587105 -0.2698073 -0.9627835
vn -0.01587105 -0.2698073 -0.9627835
vn -0.01587105 -0.2698073 -0.9627835
vn -0.01587105 -0.2698073 -0.9627835
vn -0.01587105 -0.7141957 -0.6997661
vn -0.01587105 -0.7141957 -0.6997661
vn -0.01587105 -0.7141957 -0.6997661
vn -0.01587105 -0.7141957 -0.6997661
vn -0.01587105 -0.968132 -0.2499373
vn -0.01587105 -0.968132 -0.2499373
vn -0.01587105 -0.968132 -0.2499373
vn -0.01587105 -0.968132 -0.2499373
vn -0.01587105 -0.968132 0.2499373
vn -0.01587105 -0.968132 0.2499373
vn -0.01587105 -0.968132 0.2499373
vn -0.01587105 -0.968132 0.2499373
vn -0.01587105 -0.7141957 0.6997661
vn -0.01587105 -0.7141957 0.6997661
vn -0.01587105 -0.7141957 0.6997661
vn -0.01587105 -0.7141957 0.6997661
vn -0.01587105 -0.2698073 0.9627835
vn -0.01587105 -0.2698073 0.9627835
vn -0.01587105 -0.2698073 0.9627835
vn -0.01587105 -0.2698073 0.9627835
vn -0.01587105 0.2698073 0.9627835
vn -0.01587105 0.2698073 0.9627835
vn -0.01587105 0.2698073 0.9627835
vn -0.01587105 0.2698073 0.9627835
vn -0.01587105 0.7141957 0.6997661
vn -0.01587105 0.7141957 0.6997661
vn -0.01587105 0.7141957 0.6997661
vn -0.01587105 0.7141957 0.6997661
vn -0.01587105 0.968132 0.249937
vn -0.01587105 0.968132 0.249937
vn -0.01587105 0.968132 0.249937
vn -0.01587105 0.968132 0.249937
vn -0.01587105 0.968132 -0.249937
vn -0.01587105 0.968132 -0.249937
vn -0.01587105 0.968132 -0.249937
vn -0.01587105 0.968132 -0.249937
vn -0.999874 0.01587105 -0.0003439156
vn -0.999874 0.01587105 -0.0003439156
vn -0.999874 0.01587105 -0.0003439156
vn -0.999874 0.01587105 -0.0003439156
vn -0.999874 0.01587105 -0.0003439156
vn -0.999874 0.01587105 -0.0003439156
vn -0.999874 0.01587105 -0.0003439156
vn -0.999874 0.01587105 -0.0003439156
vn -0.999874 0.01587105 -0.0003439156
vn -0.999874 0.01587105 -0.0003439156
vn -0.999874 0.01587105 -0.0003439156
vn -0.999874 0.01587105 -0.0003439156
vn -0.999874 0.01587105 -0.0003439156
vn 0.999874 0.01587105 -0.0003439156
vn 0.999874 0.01587105 -0.0003439156
vn 0.999874 0.01587105 -0.0003439156
vn 0.999874 0.01587105 -0.0003439156
vn 0.999874 0.01587105 -0.0003439156
vn 0.999874 0.01587105 -0.0003439156
vn 0.999874 0.01587105 -0.0003439156
vn 0.999874 0.01587105 -0.0003439156
vn 0.999874 0.01587105 -0.0003439156
vn 0.999874 0.01587105 -0.0003439156
vn 0.999874 0.01587105 -0.0003439156
vn 0.999874 0.01587105 -0.0003439156
f 3/3/3 2/2/2 1/1/1
f 3/3/3 4/4/4 2/2/2
f 7/7/7 6/6/6 5/5/5
f 7/7/7 8/8/8 6/6/6
f 11/11/11 10/10/10 9/9/9
f 11/11/11 12/12/12 10/10/10
f 15/15/15 14/14/14 13/13/13
f 15/15/15 16/16/16 14/14/14
f 19/19/19 18/18/18 17/17/17
f 19/19/19 20/20/20 18/18/18
f 23/23/23 22/22/22 21/21/21
f 23/23/23 24/24/24 22/22/22
f 27/27/27 26/26/26 25/25/25
f 27/27/27 28/28/28 26/26/26
f 31/31/31 30/30/30 29/29/29
f 31/31/31 32/32/32 30/30/30
f 35/35/35 34/34/34 33/33/33
f 35/35/35 36/36/36 34/34/34
f 39/39/39 38/38/38 37/37/37
f 39/39/39 40/40/40 38/38/38
f 43/43/43 42/42/42 41/41/41
f 43/43/43 44/44/44 42/42/42
f 47/47/47 46/46/46 45/45/45
f 47/47/47 48/48/48 46/46/46
f 51/51/51 50/50/50 49/49/49
f 52/52/52 50/50/50 51/51/51
f 53/53/53 50/50/50 52/52/52
f 54/54/54 50/50/50 53/53/53
f 55/55/55 50/50/50 54/54/54
f 56/56/56 50/50/50 55/55/55
f 57/57/57 50/50/50 56/56/56
f 58/58/58 50/50/50 57/57/57
f 59/59/59 50/50/50 58/58/58
f 60/60/60 50/50/50 59/59/59
f 61/61/61 50/50/50 60/60/60
f 49/49/49 50/50/50 61/61/61
f 64/64/64 63/63/63 62/62/62
f 64/64/64 65/65/65 63/63/63
f 64/64/64 66/66/66 65/65/65
f 64/64/64 67/67/67 66/66/66
f 64/64/64 68/68/68 67/67/67
f 64/64/64 69/69/69 68/68/68
f 64/64/64 70/70/70 69/69/69
f 64/64/64 71/71/71 70/70/70
f 64/64/64 72/72/72 71/71/71
f 64/64/64 73/73/73 72/72/72
