g Wheel03
v -0.1732209 -1.149947 0.3677818
v -0.1732209 -1.40164 0.6194679
v -0.4391588 -1.40164 0.6194679
v -0.4391588 -1.149947 0.3677837
v -0.4391588 -1.745459 0.7115948
v -0.1732209 -1.745459 0.7115948
v -0.4391588 -2.089279 0.6194679
v -0.1732209 -2.089279 0.6194679
v -0.4391588 -2.340972 0.3677837
v -0.1732209 -2.340972 0.3677818
v -0.4391588 -2.433098 0.02396221
v -0.1732209 -2.433098 0.02396221
v -0.4391588 -2.340972 -0.319867
v -0.1732209 -2.340972 -0.319867
v -0.4391588 -2.089279 -0.5715521
v -0.1732209 -2.089279 -0.5715511
v -0.4391588 -1.745459 -0.663678
v -0.1732209 -1.745459 -0.663678
v -0.4391588 -1.40164 -0.5715521
v -0.1732209 -1.40164 -0.5715511
v -0.4391588 -1.149947 -0.319867
v -0.1732209 -1.149947 -0.319867
v -0.4391588 -1.057821 0.02396221
v -0.1732209 -1.057821 0.02396221
v -0.4391588 -1.149947 0.3677837
v -0.4391588 -1.40164 0.6194679
v -0.4391588 -1.745459 0.02396221
v -0.4391588 -1.745459 0.7115948
v -0.4391588 -2.089279 0.6194679
v -0.4391588 -2.340972 0.3677837
v -0.4391588 -2.433098 0.02396221
v -0.4391588 -2.340972 -0.319867
v -0.4391588 -2.089279 -0.5715521
v -0.4391588 -1.745459 -0.663678
v -0.4391588 -1.40164 -0.5715521
v -0.4391588 -1.149947 -0.319867
v -0.4391588 -1.057821 0.02396221
v -0.1732209 -1.40164 0.6194679
v -0.1732209 -1.149947 0.3677818
v -0.1732209 -1.745459 0.7115948
v -0.1732209 -2.089279 0.6194679
v -0.1732209 -2.340972 0.3677818
v -0.1732209 -2.433098 0.02396221
v -0.1732209 -2.340972 -0.319867
v -0.1732209 -2.089279 -0.5715511
v -0.1732209 -1.745459 -0.663678
v -0.1732209 -1.40164 -0.5715511
v -0.1732209 -1.149947 -0.319867
v -0.1732209 -1.057821 0.02396221
v 0.4379974 -1.149947 0.3677837
v 0.4379974 -1.40164 0.6194689
v 0.172067 -1.40164 0.6194689
v 0.172067 -1.149947 0.3677837
v 0.172067 -1.745459 0.7115967
v 0.4379974 -1.745459 0.7115967
v 0.172067 -2.089279 0.6194689
v 0.4379974 -2.089279 0.6194689
v 0.172067 -2.340972 0.3677837
v 0.4379974 -2.340972 0.3677837
v 0.172067 -2.433098 0.02396411
v 0.4379974 -2.433098 0.02396411
v 0.172067 -2.340972 -0.319865
v 0.4379974 -2.340972 -0.319865
v 0.172067 -2.089279 -0.5715511
v 0.4379974 -2.089279 -0.5715511
v 0.172067 -1.745459 -0.663678
v 0.4379974 -1.745459 -0.663677
v 0.172067 -1.40164 -0.5715511
v 0.4379974 -1.40164 -0.5715511
v 0.172067 -1.149947 -0.319865
v 0.4379974 -1.149947 -0.319865
v 0.172067 -1.057821 0.02396411
v 0.4379974 -1.057821 0.02396411
v 0.172067 -1.149947 0.3677837
v 0.172067 -1.40164 0.6194689
v 0.172067 -1.745459 0.02396411
v 0.172067 -1.745459 0.7115967
v 0.172067 -2.089279 0.6194689
v 0.172067 -2.340972 0.3677837
v 0.172067 -2.433098 0.02396411
v 0.172067 -2.340972 -0.319865
v 0.172067 -2.089279 -0.5715511
v 0.172067 -1.745459 -0.663678
v 0.172067 -1.40164 -0.5715511
v 0.172067 -1.149947 -0.319865
v 0.172067 -1.057821 0.02396411
v 0.4379974 -1.40164 0.6194689
v 0.4379974 -1.149947 0.3677837
v 0.4379974 -1.745459 0.7115967
v 0.4379974 -2.089279 0.6194689
v 0.4379974 -2.340972 0.3677837
v 0.4379974 -2.433098 0.02396411
v 0.4379974 -2.340972 -0.319865
v 0.4379974 -2.089279 -0.5715511
v 0.4379974 -1.745459 -0.663677
v 0.4379974 -1.40164 -0.5715511
v 0.4379974 -1.149947 -0.319865
v 0.4379974 -1.057821 0.02396411
v -0.1728141 -2.010749 -0.247113
v -0.1728141 -1.468382 -0.247113
v -0.1728141 -1.468382 0.261512
v -0.1728141 -2.010749 0.261512
v -0.1916031 0.07601531 -0.2747858
v 0.1916031 0.07601531 -0.2747877
v 0.1916031 0.07601531 0.2891542
v -0.1916031 0.07601531 0.2891542
v 0.1728141 -1.468382 -0.2471121
v 0.1728141 -2.010749 -0.2471121
v 0.1728141 -2.010749 0.2615129
v 0.1728141 -1.468382 0.2615129
v 0.1728141 -2.010749 -0.2471121
v -0.1728141 -2.010749 -0.247113
v -0.1728141 -2.010749 0.261512
v 0.1728141 -2.010749 0.2615129
v -0.1728141 -2.010749 0.261512
v -0.1728141 -1.468382 0.261512
v 0.1728141 -1.468382 0.2615129
v 0.1728141 -2.010749 0.2615129
v 0.1728141 -2.010749 -0.2471121
v 0.1728141 -1.468382 -0.2471121
v -0.1728141 -1.468382 -0.247113
v -0.1728141 -2.010749 -0.247113
v -0.1728141 -1.468382 -0.247113
v -0.09405579 -1.468382 -0.131234
v -0.09405579 -1.468382 0.1455938
v -0.1728141 -1.468382 0.261512
v 0.09405579 -1.468382 0.1455929
v 0.1728141 -1.468382 0.2615129
v 0.09405579 -1.468382 -0.1312349
v 0.1728141 -1.468382 -0.2471121
v -0.09405579 -1.468382 -0.131234
v -0.09405579 -0.545726 -0.131234
v -0.09405579 -0.545726 0.1455938
v -0.09405579 -1.468382 0.1455938
v -0.09405579 -1.468382 0.1455938
v -0.09405579 -0.545726 0.1455938
v 0.09405579 -0.545726 0.1455929
v 0.09405579 -1.468382 0.1455929
v 0.09405579 -1.468382 0.1455929
v 0.09405579 -0.545726 0.1455929
v 0.09405579 -0.545726 -0.1312349
v 0.09405579 -1.468382 -0.1312349
v 0.09405579 -1.468382 -0.1312349
v 0.09405579 -0.545726 -0.1312349
v -0.09405579 -0.545726 -0.131234
v -0.09405579 -1.468382 -0.131234
v -0.09405579 -0.545726 -0.131234
v -0.1916031 -0.3767015 -0.2747858
v -0.1916031 -0.3767015 0.2891542
v -0.09405579 -0.545726 0.1455938
v -0.09405579 -0.545726 0.1455938
v -0.1916031 -0.3767015 0.2891542
v 0.1916031 -0.3767015 0.2891542
v 0.09405579 -0.545726 0.1455929
v 0.09405579 -0.545726 0.1455929
v 0.1916031 -0.3767015 0.2891542
v 0.1916031 -0.3767015 -0.2747877
v 0.09405579 -0.545726 -0.1312349
v 0.09405579 -0.545726 -0.1312349
v 0.1916031 -0.3767015 -0.2747877
v -0.1916031 -0.3767015 -0.2747858
v -0.09405579 -0.545726 -0.131234
v -0.1916031 -0.3767015 -0.2747858
v -0.1916031 0.07601531 -0.2747858
v -0.1916031 0.07601531 0.2891542
v -0.1916031 -0.3767015 0.2891542
v -0.1916031 -0.3767015 0.2891542
v -0.1916031 0.07601531 0.2891542
v 0.1916031 0.07601531 0.2891542
v 0.1916031 -0.3767015 0.2891542
v 0.1916031 -0.3767015 0.2891542
v 0.1916031 0.07601531 0.2891542
v 0.1916031 0.07601531 -0.2747877
v 0.1916031 -0.3767015 -0.2747877
v 0.1916031 -0.3767015 -0.2747877
v 0.1916031 0.07601531 -0.2747877
v -0.1916031 0.07601531 -0.2747858
v -0.1916031 -0.3767015 -0.2747858
vt 0.5108621 0.4944429
vt 0.5108621 0.4944429
vt 0.5108621 0.4944429
vt 0.5108621 0.4944429
vt 0.5108621 0.4944429
vt 0.5108621 0.4944429
vt 0.5108621 0.4944429
vt 0.5108621 0.4944429
vt 0.5108621 0.4944429
vt 0.5108621 0.4944429
vt 0.5108621 0.4944429
vt 0.5108621 0.4944429
vt 0.5108621 0.4944429
vt 0.5108621 0.4944429
vt 0.5108621 0.4944429
vt 0.5108621 0.4944429
vt 0.5108621 0.4944429
vt 0.5108621 0.4944429
vt 0.5108621 0.4944429
vt 0.5108621 0.4944429
vt 0.5108621 0.4944429
vt 0.5108621 0.4944429
vt 0.5108621 0.4944429
vt 0.5108621 0.4944429
vt 0.5512056 0.4709837
vt 0.5233964 0.4431731
vt 0.5891948 0.4051839
vt 0.5132166 0.4051839
vt 0.5233964 0.3671948
vt 0.5512056 0.3393855
vt 0.589195 0.329207
vt 0.6271841 0.3393855
vt 0.6549931 0.3671947
vt 0.6651731 0.4051839
vt 0.6549932 0.4431731
vt 0.6271841 0.4709837
vt 0.5891947 0.4811623
vt 0.6274548 0.4712603
vt 0.6555023 0.4432128
vt 0.5891411 0.4815265
vt 0.5508275 0.4712603
vt 0.5227801 0.4432128
vt 0.5125139 0.404899
vt 0.5227801 0.3665855
vt 0.5508275 0.3385379
vt 0.5891411 0.3282718
vt 0.6274548 0.3385379
vt 0.6555023 0.3665855
vt 0.6657684 0.404899
vt 0.5108621 0.4944429
vt 0.5108621 0.4944429
vt 0.5108621 0.4944429
vt 0.5108621 0.4944429
vt 0.5108621 0.4944429
vt 0.5108621 0.4944429
vt 0.5108621 0.4944429
vt 0.5108621 0.4944429
vt 0.5108621 0.4944429
vt 0.5108621 0.4944429
vt 0.5108621 0.4944429
vt 0.5108621 0.4944429
vt 0.5108621 0.4944429
vt 0.5108621 0.4944429
vt 0.5108621 0.4944429
vt 0.5108621 0.4944429
vt 0.5108621 0.4944429
vt 0.5108621 0.4944429
vt 0.5108621 0.4944429
vt 0.5108621 0.4944429
vt 0.5108621 0.4944429
vt 0.5108621 0.4944429
vt 0.5108621 0.4944429
vt 0.5108621 0.4944429
vt 0.5512056 0.4709837
vt 0.5233964 0.4431731
vt 0.5891948 0.4051839
vt 0.5132166 0.4051839
vt 0.5233964 0.3671948
vt 0.5512056 0.3393855
vt 0.589195 0.329207
vt 0.6271841 0.3393855
vt 0.6549931 0.3671947
vt 0.6651731 0.4051839
vt 0.6549932 0.4431731
vt 0.6271841 0.4709837
vt 0.5891947 0.4811623
vt 0.6274548 0.4712603
vt 0.6555023 0.4432128
vt 0.5891411 0.4815265
vt 0.5508275 0.4712603
vt 0.5227801 0.4432128
vt 0.5125139 0.404899
vt 0.5227801 0.3665855
vt 0.5508275 0.3385379
vt 0.5891411 0.3282718
vt 0.6274548 0.3385379
vt 0.6555023 0.3665855
vt 0.6657684 0.404899
vt 0.1606091 0.4755093
vt 0.1606091 0.4755093
vt 0.1606091 0.4755093
vt 0.1606091 0.4755093
vt 0.2029767 0.4755093
vt 0.2029767 0.4755093
vt 0.2029767 0.4755093
vt 0.2029767 0.4755093
vt 0.1606091 0.4755093
vt 0.1606091 0.4755093
vt 0.1606091 0.4755093
vt 0.1606091 0.4755093
vt 0.17088 0.4755093
vt 0.17088 0.4755093
vt 0.17088 0.4755093
vt 0.17088 0.4755093
vt 0.1965573 0.4755093
vt 0.1965573 0.4755093
vt 0.1965573 0.4755093
vt 0.1965573 0.4755093
vt 0.1965573 0.4755093
vt 0.1965573 0.4755093
vt 0.1965573 0.4755093
vt 0.1965573 0.4755093
vt 0.2260863 0.4755093
vt 0.2260863 0.4755093
vt 0.2260863 0.4755093
vt 0.2260863 0.4755093
vt 0.2260863 0.4755093
vt 0.2260863 0.4755093
vt 0.2260863 0.4755093
vt 0.2260863 0.4755093
vt 0.2646023 0.4755093
vt 0.2646023 0.4755093
vt 0.2646023 0.4755093
vt 0.2646023 0.4755093
vt 0.2954151 0.4755093
vt 0.2954151 0.4755093
vt 0.2954151 0.4755093
vt 0.2954151 0.4755093
vt 0.2646023 0.4755093
vt 0.2646023 0.4755093
vt 0.2646023 0.4755093
vt 0.2646023 0.4755093
vt 0.2954151 0.4755093
vt 0.2954151 0.4755093
vt 0.2954151 0.4755093
vt 0.2954151 0.4755093
vt 0.1400672 0.4755093
vt 0.1400672 0.4755093
vt 0.1400672 0.4755093
vt 0.1400672 0.4755093
vt 0.1683123 0.4755093
vt 0.1683123 0.4755093
vt 0.1683123 0.4755093
vt 0.1683123 0.4755093
vt 0.1400672 0.4755093
vt 0.1400672 0.4755093
vt 0.1400672 0.4755093
vt 0.1400672 0.4755093
vt 0.1683123 0.4755093
vt 0.1683123 0.4755093
vt 0.1683123 0.4755093
vt 0.1683123 0.4755093
vt 0.1606091 0.4755093
vt 0.1606091 0.4755093
vt 0.1606091 0.4755093
vt 0.1606091 0.4755093
vt 0.2029767 0.4755093
vt 0.2029767 0.4755093
vt 0.2029767 0.4755093
vt 0.2029767 0.4755093
vt 0.1606091 0.4755093
vt 0.1606091 0.4755093
vt 0.1606091 0.4755093
vt 0.1606091 0.4755093
vt 0.2029767 0.4755093
vt 0.2029767 0.4755093
vt 0.2029767 0.4755093
vt 0.2029767 0.4755093
vn 0 0.8660224 0.5000052
vn 0 0.499995 0.8660283
vn 0 0.499995 0.8660283
vn 0 0.8660224 0.5000052
vn 0 0 1
vn 0 0 1
vn 0 -0.4999951 0.8660282
vn 0 -0.4999951 0.8660282
vn 0 -0.8660216 0.5000065
vn 0 -0.8660216 0.5000065
vn 0 -1 0
vn 0 -1 0
vn 0 -0.8660266 -0.4999979
vn 0 -0.8660266 -0.4999979
vn 0 -0.4999952 -0.8660282
vn 0 -0.4999952 -0.8660282
vn 0 0 -1
vn 0 0 -1
vn 0 0.499995 -0.8660282
vn 0 0.499995 -0.8660282
vn 0 0.8660272 -0.4999968
vn 0 0.8660272 -0.4999968
vn 0 1 0
vn 0 1 0
vn -1 0 0
vn -1 0 0
vn -1 0 0
vn -1 0 0
vn -1 0 0
vn -1 0 0
vn -1 0 0
vn -1 0 0
vn -1 0 0
vn -1 0 0
vn -1 0 0
vn -1 0 0
vn -1 0 0
vn 1 0 0
vn 1 0 0
vn 1 0 0
vn 1 0 0
vn 1 0 0
vn 1 0 0
vn 1 0 0
vn 1 0 0
vn 1 0 0
vn 1 0 0
vn 1 0 0
vn 1 0 0
vn 0 0.8660224 0.5000052
vn 0 0.499995 0.8660283
vn 0 0.499995 0.8660283
vn 0 0.8660224 0.5000052
vn 0 0 1
vn 0 0 1
vn 0 -0.4999951 0.8660282
vn 0 -0.4999951 0.8660282
vn 0 -0.8660216 0.5000065
vn 0 -0.8660216 0.5000065
vn 0 -1 0
vn 0 -1 0
vn 0 -0.8660266 -0.4999979
vn 0 -0.8660266 -0.4999979
vn 0 -0.4999952 -0.8660282
vn 0 -0.4999952 -0.8660282
vn 0 0 -1
vn 0 0 -1
vn 0 0.499995 -0.8660282
vn 0 0.499995 -0.8660282
vn 0 0.8660272 -0.4999968
vn 0 0.8660272 -0.4999968
vn 0 1 0
vn 0 1 0
vn -1 0 0
vn -1 0 0
vn -1 0 0
vn -1 0 0
vn -1 0 0
vn -1 0 0
vn -1 0 0
vn -1 0 0
vn -1 0 0
vn -1 0 0
vn -1 0 0
vn -1 0 0
vn -1 0 0
vn 1 0 0
vn 1 0 0
vn 1 0 0
vn 1 0 0
vn 1 0 0
vn 1 0 0
vn 1 0 0
vn 1 0 0
vn 1 0 0
vn 1 0 0
vn 1 0 0
vn 1 0 0
vn -1 0 0
vn -1 0 0
vn -1 0 0
vn -1 0 0
vn 0 1 0
vn 0 1 0
vn 0 1 0
vn 0 1 0
vn 1 0 0
vn 1 0 0
vn 1 0 0
vn 1 0 0
vn 0 -1 0
vn 0 -1 0
vn 0 -1 0
vn 0 -1 0
vn 0 0 1
vn 0 0 1
vn 0 0 1
vn 0 0 1
vn 0 0 -1
vn 0 0 -1
vn 0 0 -1
vn 0 0 -1
vn 0 1 0
vn 0 1 0
vn 0 1 0
vn 0 1 0
vn 0 1 0
vn 0 1 0
vn 0 1 0
vn 0 1 0
vn -1 0 0
vn -1 0 0
vn -1 0 0
vn -1 0 0
vn 0 0 1
vn 0 0 1
vn 0 0 1
vn 0 0 1
vn 1 0 0
vn 1 0 0
vn 1 0 0
vn 1 0 0
vn 0 0 -1
vn 0 0 -1
vn 0 0 -1
vn 0 0 -1
vn -0.8661116 -0.4998506 0
vn -0.8661117 -0.4998505 0
vn -0.8661117 -0.4998505 0
vn -0.8661117 -0.4998505 0
vn 0 -0.6473609 0.7621836
vn 0 -0.6473609 0.7621836
vn 0 -0.6473609 0.7621836
vn 0 -0.6473609 0.7621837
vn 0.8661122 -0.4998495 0
vn 0.8661122 -0.4998495 0
vn 0.8661122 -0.4998495 0
vn 0.8661122 -0.4998495 0
vn 0 -0.6473383 -0.7622027
vn 0 -0.6473383 -0.7622027
vn 0 -0.6473383 -0.7622027
vn 0 -0.6473383 -0.7622027
vn -1 0 0
vn -1 0 0
vn -1 0 0
vn -1 0 0
vn 0 0 1
vn 0 0 1
vn 0 0 1
vn 0 0 1
vn 1 0 0
vn 1 0 0
vn 1 0 0
vn 1 0 0
vn 0 0 -1
vn 0 0 -1
vn 0 0 -1
vn 0 0 -1
f 3/3/3 2/2/2 1/1/1
f 4/4/4 3/3/3 1/1/1
f 3/3/3 5/5/5 2/2/2
f 5/5/5 6/6/6 2/2/2
f 5/5/5 7/7/7 6/6/6
f 7/7/7 8/8/8 6/6/6
f 7/7/7 9/9/9 8/8/8
f 9/9/9 10/10/10 8/8/8
f 9/9/9 11/11/11 10/10/10
f 11/11/11 12/12/12 10/10/10
f 11/11/11 13/13/13 12/12/12
f 13/13/13 14/14/14 12/12/12
f 13/13/13 15/15/15 14/14/14
f 15/15/15 16/16/16 14/14/14
f 15/15/15 17/17/17 16/16/16
f 17/17/17 18/18/18 16/16/16
f 17/17/17 19/19/19 18/18/18
f 19/19/19 20/20/20 18/18/18
f 19/19/19 21/21/21 20/20/20
f 21/21/21 22/22/22 20/20/20
f 21/21/21 23/23/23 22/22/22
f 23/23/23 24/24/24 22/22/22
f 23/23/23 4/4/4 24/24/24
f 4/4/4 1/1/1 24/24/24
f 27/27/27 26/26/26 25/25/25
f 27/27/27 28/28/28 26/26/26
f 27/27/27 29/29/29 28/28/28
f 27/27/27 30/30/30 29/29/29
f 27/27/27 31/31/31 30/30/30
f 27/27/27 32/32/32 31/31/31
f 27/27/27 33/33/33 32/32/32
f 27/27/27 34/34/34 33/33/33
f 27/27/27 35/35/35 34/34/34
f 27/27/27 36/36/36 35/35/35
f 27/27/27 37/37/37 36/36/36
f 27/27/27 25/25/25 37/37/37
f 40/40/40 39/39/39 38/38/38
f 41/41/41 39/39/39 40/40/40
f 42/42/42 39/39/39 41/41/41
f 43/43/43 39/39/39 42/42/42
f 44/44/44 39/39/39 43/43/43
f 45/45/45 39/39/39 44/44/44
f 46/46/46 39/39/39 45/45/45
f 47/47/47 39/39/39 46/46/46
f 48/48/48 39/39/39 47/47/47
f 49/49/49 39/39/39 48/48/48
f 52/52/52 51/51/51 50/50/50
f 53/53/53 52/52/52 50/50/50
f 52/52/52 54/54/54 51/51/51
f 54/54/54 55/55/55 51/51/51
f 54/54/54 56/56/56 55/55/55
f 56/56/56 57/57/57 55/55/55
f 56/56/56 58/58/58 57/57/57
f 58/58/58 59/59/59 57/57/57
f 58/58/58 60/60/60 59/59/59
f 60/60/60 61/61/61 59/59/59
f 60/60/60 62/62/62 61/61/61
f 62/62/62 63/63/63 61/61/61
f 62/62/62 64/64/64 63/63/63
f 64/64/64 65/65/65 63/63/63
f 64/64/64 66/66/66 65/65/65
f 66/66/66 67/67/67 65/65/65
f 66/66/66 68/68/68 67/67/67
f 68/68/68 69/69/69 67/67/67
f 68/68/68 70/70/70 69/69/69
f 70/70/70 71/71/71 69/69/69
f 70/70/70 72/72/72 71/71/71
f 72/72/72 73/73/73 71/71/71
f 72/72/72 53/53/53 73/73/73
f 53/53/53 50/50/50 73/73/73
f 76/76/76 75/75/75 74/74/74
f 76/76/76 77/77/77 75/75/75
f 76/76/76 78/78/78 77/77/77
f 76/76/76 79/79/79 78/78/78
f 76/76/76 80/80/80 79/79/79
f 76/76/76 81/81/81 80/80/80
f 76/76/76 82/82/82 81/81/81
f 76/76/76 83/83/83 82/82/82
f 76/76/76 84/84/84 83/83/83
f 76/76/76 85/85/85 84/84/84
f 76/76/76 86/86/86 85/85/85
f 76/76/76 74/74/74 86/86/86
f 89/89/89 88/88/88 87/87/87
f 90/90/90 88/88/88 89/89/89
f 91/91/91 88/88/88 90/90/90
f 92/92/92 88/88/88 91/91/91
f 93/93/93 88/88/88 92/92/92
f 94/94/94 88/88/88 93/93/93
f 95/95/95 88/88/88 94/94/94
f 96/96/96 88/88/88 95/95/95
f 97/97/97 88/88/88 96/96/96
f 98/98/98 88/88/88 97/97/97
f 101/101/101 100/100/100 99/99/99
f 102/102/102 101/101/101 99/99/99
f 105/105/105 104/104/104 103/103/103
f 106/106/106 105/105/105 103/103/103
f 109/109/109 108/108/108 107/107/107
f 110/110/110 109/109/109 107/107/107
f 113/113/113 112/112/112 111/111/111
f 114/114/114 113/113/113 111/111/111
f 117/117/117 116/116/116 115/115/115
f 118/118/118 117/117/117 115/115/115
f 121/121/121 120/120/120 119/119/119
f 122/122/122 121/121/121 119/119/119
f 125/125/125 124/124/124 123/123/123
f 126/126/126 125/125/125 123/123/123
f 127/127/127 125/125/125 126/126/126
f 128/128/128 127/127/127 126/126/126
f 129/129/129 127/127/127 128/128/128
f 130/130/130 129/129/129 128/128/128
f 124/124/124 129/129/129 130/130/130
f 123/123/123 124/124/124 130/130/130
f 133/133/133 132/132/132 131/131/131
f 134/134/134 133/133/133 131/131/131
f 137/137/137 136/136/136 135/135/135
f 138/138/138 137/137/137 135/135/135
f 141/141/141 140/140/140 139/139/139
f 142/142/142 141/141/141 139/139/139
f 145/145/145 144/144/144 143/143/143
f 146/146/146 145/145/145 143/143/143
f 149/149/149 148/148/148 147/147/147
f 150/150/150 149/149/149 147/147/147
f 153/153/153 152/152/152 151/151/151
f 154/154/154 153/153/153 151/151/151
f 157/157/157 156/156/156 155/155/155
f 158/158/158 157/157/157 155/155/155
f 161/161/161 160/160/160 159/159/159
f 162/162/162 161/161/161 159/159/159
f 165/165/165 164/164/164 163/163/163
f 166/166/166 165/165/165 163/163/163
f 169/169/169 168/168/168 167/167/167
f 170/170/170 169/169/169 167/167/167
f 173/173/173 172/172/172 171/171/171
f 174/174/174 173/173/173 171/171/171
f 177/177/177 176/176/176 175/175/175
f 178/178/178 177/177/177 175/175/175
