g Windows
v 48.74088 12.99415 34.36002
v 48.74088 8.371723 34.36002
v 38.16067 8.371723 34.36002
v 38.16067 12.99415 34.36002
v 38.16067 27.7859 36.7226
v 51.10345 27.7859 36.7226
v 51.10345 19.67098 36.7226
v 38.16067 19.67098 36.7226
v 38.16067 18.7465 36.7226
v 51.10345 18.7465 36.7226
v 51.10345 13.91863 36.7226
v 38.16067 13.91863 36.7226
v -52.54155 27.7859 -6.522751
v -52.54155 27.7859 6.522758
v -52.54155 19.67098 6.522758
v -52.54155 19.67098 -6.522751
v -52.54155 18.7465 -6.522751
v -52.54155 18.7465 6.522758
v -52.54155 13.91863 6.522758
v -52.54155 13.91863 -6.522751
v -21.41723 27.7859 36.7226
v -8.371723 27.7859 36.7226
v -8.371723 19.67098 36.7226
v -21.41723 19.67098 36.7226
v -21.41723 18.7465 36.7226
v -8.371723 18.7465 36.7226
v -8.371723 13.91863 36.7226
v -21.41723 13.91863 36.7226
v -50.17898 12.99415 23.2662
v -50.17898 12.99415 33.84641
v -50.17898 8.371723 33.84641
v -50.17898 8.371723 23.2662
v -48.74089 5.906433 34.36002
v -38.16068 5.906433 34.36002
v -38.16068 1.284008 34.36002
v -48.74089 1.284008 34.36002
v -50.17898 5.906433 23.2662
v -50.17898 5.906433 33.84641
v -50.17898 1.284008 33.84641
v -50.17898 1.284008 23.2662
v 52.54154 18.7465 36.31171
v 52.54154 18.7465 23.2662
v 52.54154 13.91863 23.2662
v 52.54154 13.91863 36.31171
v 52.54154 18.7465 -36.3117
v 52.54154 13.91863 -36.3117
v 52.54154 13.91863 -23.26619
v 52.54154 18.7465 -23.26619
v 48.74088 12.99415 -34.36001
v 38.16067 12.99415 -34.36001
v 38.16067 8.371723 -34.36001
v 48.74088 8.371723 -34.36001
v 38.16067 27.7859 -36.72258
v 38.16067 19.67098 -36.72258
v 51.10345 19.67098 -36.72258
v 51.10345 27.7859 -36.72258
v 38.16067 18.7465 -36.72258
v 38.16067 13.91863 -36.72258
v 51.10345 13.91863 -36.72258
v 51.10345 18.7465 -36.72258
v 36.3117 27.7859 -36.72258
v 23.26619 27.7859 -36.72258
v 23.26619 19.67098 -36.72258
v 36.3117 19.67098 -36.72258
v 36.3117 18.7465 -36.72258
v 23.26619 18.7465 -36.72258
v 23.26619 13.91863 -36.72258
v 36.3117 13.91863 -36.72258
v 21.41723 27.7859 -36.72258
v 8.371719 27.7859 -36.72258
v 8.371719 19.67098 -36.72258
v 21.41723 19.67098 -36.72258
v 52.54154 27.7859 36.31171
v 52.54154 27.7859 23.2662
v 52.54154 19.67098 23.2662
v 52.54154 19.67098 36.31171
v 50.17897 12.99415 23.2662
v 50.17897 8.371723 23.2662
v 50.17897 8.371723 33.84641
v 50.17897 12.99415 33.84641
v 48.74088 5.906433 34.36002
v 48.74088 1.284008 34.36002
v 38.16067 1.284008 34.36002
v 38.16067 5.906433 34.36002
v 50.17897 5.906433 23.2662
v 50.17897 1.284008 23.2662
v 50.17897 1.284008 33.84641
v 50.17897 5.906433 33.84641
v 23.26619 18.7465 36.7226
v 36.3117 18.7465 36.7226
v 36.3117 13.91863 36.7226
v 23.26619 13.91863 36.7226
v 23.26619 27.7859 36.7226
v 36.3117 27.7859 36.7226
v 36.3117 19.67098 36.7226
v 23.26619 19.67098 36.7226
v 8.371719 18.7465 36.7226
v 21.41723 18.7465 36.7226
v 21.41723 13.91863 36.7226
v 8.371719 13.91863 36.7226
v 8.371719 27.7859 36.7226
v 21.41723 27.7859 36.7226
v 21.41723 19.67098 36.7226
v 8.371719 19.67098 36.7226
v -36.31171 18.7465 36.7226
v -23.2662 18.7465 36.7226
v -23.2662 13.91863 36.7226
v -36.31171 13.91863 36.7226
v -36.31171 27.7859 36.7226
v -23.2662 27.7859 36.7226
v -23.2662 19.67098 36.7226
v -36.31171 19.67098 36.7226
v -6.522758 18.7465 36.7226
v 6.522751 18.7465 36.7226
v 6.522751 13.91863 36.7226
v -6.522758 13.91863 36.7226
v -6.522758 27.7859 36.7226
v 6.522751 27.7859 36.7226
v 6.522751 19.67098 36.7226
v -6.522758 19.67098 36.7226
v -8.371723 18.7465 -36.72258
v -21.41723 18.7465 -36.72258
v -21.41723 13.91863 -36.72258
v -8.371723 13.91863 -36.72258
v -8.371723 27.7859 -36.72258
v -21.41723 27.7859 -36.72258
v -21.41723 19.67098 -36.72258
v -8.371723 19.67098 -36.72258
v -38.16068 18.7465 -36.72258
v -51.10346 18.7465 -36.72258
v -51.10346 13.91863 -36.72258
v -38.16068 13.91863 -36.72258
v -38.16068 27.7859 -36.72258
v -51.10346 27.7859 -36.72258
v -51.10346 19.67098 -36.72258
v -38.16068 19.67098 -36.72258
v -48.74089 12.99415 -34.36001
v -48.74089 8.371723 -34.36001
v -38.16068 8.371723 -34.36001
v -38.16068 12.99415 -34.36001
v -52.54155 18.7465 -36.3117
v -52.54155 18.7465 -23.26619
v -52.54155 13.91863 -23.26619
v -52.54155 13.91863 -36.3117
v -52.54155 27.7859 -36.3117
v -52.54155 27.7859 -23.26619
v -52.54155 19.67098 -23.26619
v -52.54155 19.67098 -36.3117
v -50.17898 12.99415 -23.26619
v -50.17898 8.371723 -23.26619
v -50.17898 8.371723 -33.84641
v -50.17898 12.99415 -33.84641
v -48.74089 5.906433 -34.36001
v -48.74089 1.284008 -34.36001
v -38.16068 1.284008 -34.36001
v -38.16068 5.906433 -34.36001
v -50.17898 5.906433 -23.26619
v -50.17898 1.284008 -23.26619
v -50.17898 1.284008 -33.84641
v -50.17898 5.906433 -33.84641
v -23.2662 18.7465 -36.72258
v -36.31171 18.7465 -36.72258
v -36.31171 13.91863 -36.72258
v -23.2662 13.91863 -36.72258
v -23.2662 27.7859 -36.72258
v -36.31171 27.7859 -36.72258
v -36.31171 19.67098 -36.72258
v -23.2662 19.67098 -36.72258
v 6.522751 18.7465 -36.72258
v -6.522758 18.7465 -36.72258
v -6.522758 13.91863 -36.72258
v 6.522751 13.91863 -36.72258
v 6.522751 27.7859 -36.72258
v -6.522758 27.7859 -36.72258
v -6.522758 19.67098 -36.72258
v 6.522751 19.67098 -36.72258
v 21.41723 18.7465 -36.72258
v 8.371719 18.7465 -36.72258
v 8.371719 13.91863 -36.72258
v 21.41723 13.91863 -36.72258
v 50.17897 5.906433 -23.26619
v 50.17897 5.906433 -33.84641
v 50.17897 1.284008 -33.84641
v 50.17897 1.284008 -23.26619
v 48.74088 5.906433 -34.36001
v 38.16067 5.906433 -34.36001
v 38.16067 1.284008 -34.36001
v 48.74088 1.284008 -34.36001
v 50.17897 12.99415 -23.26619
v 50.17897 12.99415 -33.84641
v 50.17897 8.371723 -33.84641
v 50.17897 8.371723 -23.26619
v 52.54154 27.7859 -36.3117
v 52.54154 19.67098 -36.3117
v 52.54154 19.67098 -23.26619
v 52.54154 27.7859 -23.26619
v -52.54155 27.7859 36.31171
v -52.54155 19.67098 36.31171
v -52.54155 19.67098 23.2662
v -52.54155 27.7859 23.2662
v -52.54155 18.7465 36.31171
v -52.54155 13.91863 36.31171
v -52.54155 13.91863 23.2662
v -52.54155 18.7465 23.2662
v -48.74089 12.99415 34.36002
v -38.16068 12.99415 34.36002
v -38.16068 8.371723 34.36002
v -48.74089 8.371723 34.36002
v -38.16068 27.7859 36.7226
v -38.16068 19.67098 36.7226
v -51.10346 19.67098 36.7226
v -51.10346 27.7859 36.7226
v -38.16068 18.7465 36.7226
v -38.16068 13.91863 36.7226
v -51.10346 13.91863 36.7226
v -51.10346 18.7465 36.7226
v 52.54154 27.7859 -6.522751
v 52.54154 19.67098 -6.522751
v 52.54154 19.67098 6.522758
v 52.54154 27.7859 6.522758
v 52.54154 18.7465 -6.522751
v 52.54154 13.91863 -6.522751
v 52.54154 13.91863 6.522758
v 52.54154 18.7465 6.522758
vt -0.3047881 0.0006406903
vt -0.3047881 0.7067395
vt 1.012168 0.7067395
vt 1.012168 0.0006406903
vt -0.3047881 1.370144
vt 1.012168 1.370144
vt 1.012168 0.3553322
vt -0.3047881 0.3553322
vt 1.012168 0.3651848
vt -0.3080723 0.3651848
vt -0.3080723 -0.3080723
vt 1.012168 -0.3080723
vt 1.012168 1.370144
vt -0.3047881 1.370144
vt -0.3047881 0.3553322
vt 1.012168 0.3553322
vt -0.3080723 0.3651848
vt 1.012168 0.3651848
vt 1.012168 -0.3080723
vt -0.3080723 -0.3080723
vt 1.012168 1.370144
vt -0.3047881 1.370144
vt -0.3047881 0.3553322
vt 1.012168 0.3553322
vt -0.3080723 0.3651848
vt 1.012168 0.3651848
vt 1.012168 -0.3080723
vt -0.3080723 -0.3080723
vt -0.3047881 0.0006406903
vt 1.012168 0.0006406903
vt 1.012168 0.7067395
vt -0.3047881 0.7067395
vt -0.3047881 0.0006406903
vt 1.012168 0.0006406903
vt 1.012168 0.7067395
vt -0.3047881 0.7067395
vt -0.3047881 0.0006406903
vt 1.012168 0.0006406903
vt 1.012168 0.7067395
vt -0.3047881 0.7067395
vt 1.012168 0.3651848
vt -0.3080723 0.3651848
vt -0.3080723 -0.3080723
vt 1.012168 -0.3080723
vt 1.012168 0.3651848
vt 1.012168 -0.3080723
vt -0.3080723 -0.3080723
vt -0.3080723 0.3651848
vt -0.3047881 0.0006406903
vt 1.012168 0.0006406903
vt 1.012168 0.7067395
vt -0.3047881 0.7067395
vt -0.3047881 1.370144
vt -0.3047881 0.3553322
vt 1.012168 0.3553322
vt 1.012168 1.370144
vt 1.012168 0.3651848
vt 1.012168 -0.3080723
vt -0.3080723 -0.3080723
vt -0.3080723 0.3651848
vt 1.012168 1.370144
vt -0.3047881 1.370144
vt -0.3047881 0.3553322
vt 1.012168 0.3553322
vt -0.3080723 0.3651848
vt 1.012168 0.3651848
vt 1.012168 -0.3080723
vt -0.3080723 -0.3080723
vt 1.012168 1.370144
vt -0.3047881 1.370144
vt -0.3047881 0.3553322
vt 1.012168 0.3553322
vt -0.3047881 1.370144
vt 1.012168 1.370144
vt 1.012168 0.3553322
vt -0.3047881 0.3553322
vt -0.3047881 0.0006406903
vt -0.3047881 0.7067395
vt 1.012168 0.7067395
vt 1.012168 0.0006406903
vt -0.3047881 0.0006406903
vt -0.3047881 0.7067395
vt 1.012168 0.7067395
vt 1.012168 0.0006406903
vt -0.3047881 0.0006406903
vt -0.3047881 0.7067395
vt 1.012168 0.7067395
vt 1.012168 0.0006406903
vt -0.3080723 0.3651848
vt 1.012168 0.3651848
vt 1.012168 -0.3080723
vt -0.3080723 -0.3080723
vt 1.012168 1.370144
vt -0.3047881 1.370144
vt -0.3047881 0.3553322
vt 1.012168 0.3553322
vt -0.3080723 0.3651848
vt 1.012168 0.3651848
vt 1.012168 -0.3080723
vt -0.3080723 -0.3080723
vt 1.012168 1.370144
vt -0.3047881 1.370144
vt -0.3047881 0.3553322
vt 1.012168 0.3553322
vt -0.3080723 0.3651848
vt 1.012168 0.3651848
vt 1.012168 -0.3080723
vt -0.3080723 -0.3080723
vt 1.012168 1.370144
vt -0.3047881 1.370144
vt -0.3047881 0.3553322
vt 1.012168 0.3553322
vt -0.3080723 0.3651848
vt 1.012168 0.3651848
vt 1.012168 -0.3080723
vt -0.3080723 -0.3080723
vt 1.012168 1.370144
vt -0.3047881 1.370144
vt -0.3047881 0.3553322
vt 1.012168 0.3553322
vt -0.3080723 0.3651848
vt 1.012168 0.3651848
vt 1.012168 -0.3080723
vt -0.3080723 -0.3080723
vt 1.012168 1.370144
vt -0.3047881 1.370144
vt -0.3047881 0.3553322
vt 1.012168 0.3553322
vt 1.012168 0.3651848
vt -0.3080723 0.3651848
vt -0.3080723 -0.3080723
vt 1.012168 -0.3080723
vt -0.3047881 1.370144
vt 1.012168 1.370144
vt 1.012168 0.3553322
vt -0.3047881 0.3553322
vt -0.3047881 0.0006406903
vt -0.3047881 0.7067395
vt 1.012168 0.7067395
vt 1.012168 0.0006406903
vt 1.012168 0.3651848
vt -0.3080723 0.3651848
vt -0.3080723 -0.3080723
vt 1.012168 -0.3080723
vt -0.3047881 1.370144
vt 1.012168 1.370144
vt 1.012168 0.3553322
vt -0.3047881 0.3553322
vt -0.3047881 0.0006406903
vt -0.3047881 0.7067395
vt 1.012168 0.7067395
vt 1.012168 0.0006406903
vt -0.3047881 0.0006406903
vt -0.3047881 0.7067395
vt 1.012168 0.7067395
vt 1.012168 0.0006406903
vt -0.3047881 0.0006406903
vt -0.3047881 0.7067395
vt 1.012168 0.7067395
vt 1.012168 0.0006406903
vt -0.3080723 0.3651848
vt 1.012168 0.3651848
vt 1.012168 -0.3080723
vt -0.3080723 -0.3080723
vt 1.012168 1.370144
vt -0.3047881 1.370144
vt -0.3047881 0.3553322
vt 1.012168 0.3553322
vt -0.3080723 0.3651848
vt 1.012168 0.3651848
vt 1.012168 -0.3080723
vt -0.3080723 -0.3080723
vt 1.012168 1.370144
vt -0.3047881 1.370144
vt -0.3047881 0.3553322
vt 1.012168 0.3553322
vt -0.3080723 0.3651848
vt 1.012168 0.3651848
vt 1.012168 -0.3080723
vt -0.3080723 -0.3080723
vt -0.3047881 0.0006406903
vt 1.012168 0.0006406903
vt 1.012168 0.7067395
vt -0.3047881 0.7067395
vt -0.3047881 0.0006406903
vt 1.012168 0.0006406903
vt 1.012168 0.7067395
vt -0.3047881 0.7067395
vt -0.3047881 0.0006406903
vt 1.012168 0.0006406903
vt 1.012168 0.7067395
vt -0.3047881 0.7067395
vt -0.3047881 1.370144
vt -0.3047881 0.3553322
vt 1.012168 0.3553322
vt 1.012168 1.370144
vt -0.3047881 1.370144
vt -0.3047881 0.3553322
vt 1.012168 0.3553322
vt 1.012168 1.370144
vt 1.012168 0.3651848
vt 1.012168 -0.3080723
vt -0.3080723 -0.3080723
vt -0.3080723 0.3651848
vt -0.3047881 0.0006406903
vt 1.012168 0.0006406903
vt 1.012168 0.7067395
vt -0.3047881 0.7067395
vt -0.3047881 1.370144
vt -0.3047881 0.3553322
vt 1.012168 0.3553322
vt 1.012168 1.370144
vt 1.012168 0.3651848
vt 1.012168 -0.3080723
vt -0.3080723 -0.3080723
vt -0.3080723 0.3651848
vt 1.012168 1.370144
vt 1.012168 0.3553322
vt -0.3047881 0.3553322
vt -0.3047881 1.370144
vt -0.3080723 0.3651848
vt -0.3080723 -0.3080723
vt 1.012168 -0.3080723
vt 1.012168 0.3651848
vn -0.01587105 0.01587105 0.9997481
vn -0.01587105 0.01587105 0.9997481
vn -0.01587105 0.01587105 0.9997481
vn -0.01587105 0.01587105 0.9997481
vn -0.01587105 0.01587105 0.9997481
vn -0.01587105 0.01587105 0.9997481
vn -0.01587105 0.01587105 0.9997481
vn -0.01587105 0.01587105 0.9997481
vn -0.01587105 0.01587105 0.9997481
vn -0.01587105 0.01587105 0.9997481
vn -0.01587105 0.01587105 0.9997481
vn -0.01587105 0.01587105 0.9997481
vn -0.999874 0.01587105 -0.0003439156
vn -0.999874 0.01587105 -0.0003439156
vn -0.999874 0.01587105 -0.0003439156
vn -0.999874 0.01587105 -0.0003439156
vn -0.999874 0.01587105 -0.0003439156
vn -0.999874 0.01587105 -0.0003439156
vn -0.999874 0.01587105 -0.0003439156
vn -0.999874 0.01587105 -0.0003439156
vn -0.01587105 0.01587105 0.9997481
vn -0.01587105 0.01587105 0.9997481
vn -0.01587105 0.01587105 0.9997481
vn -0.01587105 0.01587105 0.9997481
vn -0.01587105 0.01587105 0.9997481
vn -0.01587105 0.01587105 0.9997481
vn -0.01587105 0.01587105 0.9997481
vn -0.01587105 0.01587105 0.9997481
vn -0.999874 0.01587105 -0.0003439156
vn -0.999874 0.01587105 -0.0003439156
vn -0.999874 0.01587105 -0.0003439156
vn -0.999874 0.01587105 -0.0003439156
vn -0.01587105 0.01587105 0.9997481
vn -0.01587105 0.01587105 0.9997481
vn -0.01587105 0.01587105 0.9997481
vn -0.01587105 0.01587105 0.9997481
vn -0.999874 0.01587105 -0.0003439156
vn -0.999874 0.01587105 -0.0003439156
vn -0.999874 0.01587105 -0.0003439156
vn -0.999874 0.01587105 -0.0003439156
vn 0.999874 0.01587105 -0.0003439156
vn 0.999874 0.01587105 -0.0003439156
vn 0.999874 0.01587105 -0.0003439156
vn 0.999874 0.01587105 -0.0003439156
vn 0.999874 0.01587105 -0.0003439156
vn 0.999874 0.01587105 -0.0003439156
vn 0.999874 0.01587105 -0.0003439156
vn 0.999874 0.01587105 -0.0003439156
vn -0.01587105 0.01587105 -0.9997481
vn -0.01587105 0.01587105 -0.9997481
vn -0.01587105 0.01587105 -0.9997481
vn -0.01587105 0.01587105 -0.9997481
vn -0.01587105 0.01587105 -0.9997481
vn -0.01587105 0.01587105 -0.9997481
vn -0.01587105 0.01587105 -0.9997481
vn -0.01587105 0.01587105 -0.9997481
vn -0.01587105 0.01587105 -0.9997481
vn -0.01587105 0.01587105 -0.9997481
vn -0.01587105 0.01587105 -0.9997481
vn -0.01587105 0.01587105 -0.9997481
vn -0.01587105 0.01587105 -0.9997481
vn -0.01587105 0.01587105 -0.9997481
vn -0.01587105 0.01587105 -0.9997481
vn -0.01587105 0.01587105 -0.9997481
vn -0.01587105 0.01587105 -0.9997481
vn -0.01587105 0.01587105 -0.9997481
vn -0.01587105 0.01587105 -0.9997481
vn -0.01587105 0.01587105 -0.9997481
vn -0.01587105 0.01587105 -0.9997481
vn -0.01587105 0.01587105 -0.9997481
vn -0.01587105 0.01587105 -0.9997481
vn -0.01587105 0.01587105 -0.9997481
vn 0.999874 0.01587105 -0.0003439156
vn 0.999874 0.01587105 -0.0003439156
vn 0.999874 0.01587105 -0.0003439156
vn 0.999874 0.01587105 -0.0003439156
vn 0.999874 0.01587105 -0.0003439156
vn 0.999874 0.01587105 -0.0003439156
vn 0.999874 0.01587105 -0.0003439156
vn 0.999874 0.01587105 -0.0003439156
vn -0.01587105 0.01587105 0.9997481
vn -0.01587105 0.01587105 0.9997481
vn -0.01587105 0.01587105 0.9997481
vn -0.01587105 0.01587105 0.9997481
vn 0.999874 0.01587105 -0.0003439156
vn 0.999874 0.01587105 -0.0003439156
vn 0.999874 0.01587105 -0.0003439156
vn 0.999874 0.01587105 -0.0003439156
vn -0.01587105 0.01587105 0.9997481
vn -0.01587105 0.01587105 0.9997481
vn -0.01587105 0.01587105 0.9997481
vn -0.01587105 0.01587105 0.9997481
vn -0.01587105 0.01587105 0.9997481
vn -0.01587105 0.01587105 0.9997481
vn -0.01587105 0.01587105 0.9997481
vn -0.01587105 0.01587105 0.9997481
vn -0.01587105 0.01587105 0.9997481
vn -0.01587105 0.01587105 0.9997481
vn -0.01587105 0.01587105 0.9997481
vn -0.01587105 0.01587105 0.9997481
vn -0.01587105 0.01587105 0.9997481
vn -0.01587105 0.01587105 0.9997481
vn -0.01587105 0.01587105 0.9997481
vn -0.01587105 0.01587105 0.9997481
vn -0.01587105 0.01587105 0.9997481
vn -0.01587105 0.01587105 0.9997481
vn -0.01587105 0.01587105 0.9997481
vn -0.01587105 0.01587105 0.9997481
vn -0.01587105 0.01587105 0.9997481
vn -0.01587105 0.01587105 0.9997481
vn -0.01587105 0.01587105 0.9997481
vn -0.01587105 0.01587105 0.9997481
vn -0.01587105 0.01587105 0.9997481
vn -0.01587105 0.01587105 0.9997481
vn -0.01587105 0.01587105 0.9997481
vn -0.01587105 0.01587105 0.9997481
vn -0.01587105 0.01587105 0.9997481
vn -0.01587105 0.01587105 0.9997481
vn -0.01587105 0.01587105 0.9997481
vn -0.01587105 0.01587105 0.9997481
vn -0.01587105 0.01587105 -0.9997481
vn -0.01587105 0.01587105 -0.9997481
vn -0.01587105 0.01587105 -0.9997481
vn -0.01587105 0.01587105 -0.9997481
vn -0.01587105 0.01587105 -0.9997481
vn -0.01587105 0.01587105 -0.9997481
vn -0.01587105 0.01587105 -0.9997481
vn -0.01587105 0.01587105 -0.9997481
vn -0.01587105 0.01587105 -0.9997481
vn -0.01587105 0.01587105 -0.9997481
vn -0.01587105 0.01587105 -0.9997481
vn -0.01587105 0.01587105 -0.9997481
vn -0.01587105 0.01587105 -0.9997481
vn -0.01587105 0.01587105 -0.9997481
vn -0.01587105 0.01587105 -0.9997481
vn -0.01587105 0.01587105 -0.9997481
vn -0.01587105 0.01587105 -0.9997481
vn -0.01587105 0.01587105 -0.9997481
vn -0.01587105 0.01587105 -0.9997481
vn -0.01587105 0.01587105 -0.9997481
vn -0.999874 0.01587105 -0.0003439156
vn -0.999874 0.01587105 -0.0003439156
vn -0.999874 0.01587105 -0.0003439156
vn -0.999874 0.01587105 -0.0003439156
vn -0.999874 0.01587105 -0.0003439156
vn -0.999874 0.01587105 -0.0003439156
vn -0.999874 0.01587105 -0.0003439156
vn -0.999874 0.01587105 -0.0003439156
vn -0.999874 0.01587105 -0.0003439156
vn -0.999874 0.01587105 -0.0003439156
vn -0.999874 0.01587105 -0.0003439156
vn -0.999874 0.01587105 -0.0003439156
vn -0.01587105 0.01587105 -0.9997481
vn -0.01587105 0.01587105 -0.9997481
vn -0.01587105 0.01587105 -0.9997481
vn -0.01587105 0.01587105 -0.9997481
vn -0.999874 0.01587105 -0.0003439156
vn -0.999874 0.01587105 -0.0003439156
vn -0.999874 0.01587105 -0.0003439156
vn -0.999874 0.01587105 -0.0003439156
vn -0.01587105 0.01587105 -0.9997481
vn -0.01587105 0.01587105 -0.9997481
vn -0.01587105 0.01587105 -0.9997481
vn -0.01587105 0.01587105 -0.9997481
vn -0.01587105 0.01587105 -0.9997481
vn -0.01587105 0.01587105 -0.9997481
vn -0.01587105 0.01587105 -0.9997481
vn -0.01587105 0.01587105 -0.9997481
vn -0.01587105 0.01587105 -0.9997481
vn -0.01587105 0.01587105 -0.9997481
vn -0.01587105 0.01587105 -0.9997481
vn -0.01587105 0.01587105 -0.9997481
vn -0.01587105 0.01587105 -0.9997481
vn -0.01587105 0.01587105 -0.9997481
vn -0.01587105 0.01587105 -0.9997481
vn -0.01587105 0.01587105 -0.9997481
vn -0.01587105 0.01587105 -0.9997481
vn -0.01587105 0.01587105 -0.9997481
vn -0.01587105 0.01587105 -0.9997481
vn -0.01587105 0.01587105 -0.9997481
vn 0.999874 0.01587105 -0.0003439156
vn 0.999874 0.01587105 -0.0003439156
vn 0.999874 0.01587105 -0.0003439156
vn 0.999874 0.01587105 -0.0003439156
vn -0.01587105 0.01587105 -0.9997481
vn -0.01587105 0.01587105 -0.9997481
vn -0.01587105 0.01587105 -0.9997481
vn -0.01587105 0.01587105 -0.9997481
vn 0.999874 0.01587105 -0.0003439156
vn 0.999874 0.01587105 -0.0003439156
vn 0.999874 0.01587105 -0.0003439156
vn 0.999874 0.01587105 -0.0003439156
vn 0.999874 0.01587105 -0.0003439156
vn 0.999874 0.01587105 -0.0003439156
vn 0.999874 0.01587105 -0.0003439156
vn 0.999874 0.01587105 -0.0003439156
vn -0.999874 0.01587105 -0.0003439156
vn -0.999874 0.01587105 -0.0003439156
vn -0.999874 0.01587105 -0.0003439156
vn -0.999874 0.01587105 -0.0003439156
vn -0.999874 0.01587105 -0.0003439156
vn -0.999874 0.01587105 -0.0003439156
vn -0.999874 0.01587105 -0.0003439156
vn -0.999874 0.01587105 -0.0003439156
vn -0.01587105 0.01587105 0.9997481
vn -0.01587105 0.01587105 0.9997481
vn -0.01587105 0.01587105 0.9997481
vn -0.01587105 0.01587105 0.9997481
vn -0.01587105 0.01587105 0.9997481
vn -0.01587105 0.01587105 0.9997481
vn -0.01587105 0.01587105 0.9997481
vn -0.01587105 0.01587105 0.9997481
vn -0.01587105 0.01587105 0.9997481
vn -0.01587105 0.01587105 0.9997481
vn -0.01587105 0.01587105 0.9997481
vn -0.01587105 0.01587105 0.9997481
vn 0.999874 0.01587105 -0.0003439156
vn 0.999874 0.01587105 -0.0003439156
vn 0.999874 0.01587105 -0.0003439156
vn 0.999874 0.01587105 -0.0003439156
vn 0.999874 0.01587105 -0.0003439156
vn 0.999874 0.01587105 -0.0003439156
vn 0.999874 0.01587105 -0.0003439156
vn 0.999874 0.01587105 -0.0003439156
f 3/3/3 2/2/2 1/1/1
f 4/4/4 3/3/3 1/1/1
f 7/7/7 6/6/6 5/5/5
f 8/8/8 7/7/7 5/5/5
f 11/11/11 10/10/10 9/9/9
f 12/12/12 11/11/11 9/9/9
f 15/15/15 14/14/14 13/13/13
f 16/16/16 15/15/15 13/13/13
f 19/19/19 18/18/18 17/17/17
f 20/20/20 19/19/19 17/17/17
f 23/23/23 22/22/22 21/21/21
f 24/24/24 23/23/23 21/21/21
f 27/27/27 26/26/26 25/25/25
f 28/28/28 27/27/27 25/25/25
f 31/31/31 30/30/30 29/29/29
f 32/32/32 31/31/31 29/29/29
f 35/35/35 34/34/34 33/33/33
f 36/36/36 35/35/35 33/33/33
f 39/39/39 38/38/38 37/37/37
f 40/40/40 39/39/39 37/37/37
f 43/43/43 42/42/42 41/41/41
f 44/44/44 43/43/43 41/41/41
f 47/47/47 46/46/46 45/45/45
f 48/48/48 47/47/47 45/45/45
f 51/51/51 50/50/50 49/49/49
f 52/52/52 51/51/51 49/49/49
f 55/55/55 54/54/54 53/53/53
f 56/56/56 55/55/55 53/53/53
f 59/59/59 58/58/58 57/57/57
f 60/60/60 59/59/59 57/57/57
f 63/63/63 62/62/62 61/61/61
f 64/64/64 63/63/63 61/61/61
f 67/67/67 66/66/66 65/65/65
f 68/68/68 67/67/67 65/65/65
f 71/71/71 70/70/70 69/69/69
f 72/72/72 71/71/71 69/69/69
f 75/75/75 74/74/74 73/73/73
f 76/76/76 75/75/75 73/73/73
f 79/79/79 78/78/78 77/77/77
f 80/80/80 79/79/79 77/77/77
f 83/83/83 82/82/82 81/81/81
f 84/84/84 83/83/83 81/81/81
f 87/87/87 86/86/86 85/85/85
f 88/88/88 87/87/87 85/85/85
f 91/91/91 90/90/90 89/89/89
f 92/92/92 91/91/91 89/89/89
f 95/95/95 94/94/94 93/93/93
f 96/96/96 95/95/95 93/93/93
f 99/99/99 98/98/98 97/97/97
f 100/100/100 99/99/99 97/97/97
f 103/103/103 102/102/102 101/101/101
f 104/104/104 103/103/103 101/101/101
f 107/107/107 106/106/106 105/105/105
f 108/108/108 107/107/107 105/105/105
f 111/111/111 110/110/110 109/109/109
f 112/112/112 111/111/111 109/109/109
f 115/115/115 114/114/114 113/113/113
f 116/116/116 115/115/115 113/113/113
f 119/119/119 118/118/118 117/117/117
f 120/120/120 119/119/119 117/117/117
f 123/123/123 122/122/122 121/121/121
f 124/124/124 123/123/123 121/121/121
f 127/127/127 126/126/126 125/125/125
f 128/128/128 127/127/127 125/125/125
f 131/131/131 130/130/130 129/129/129
f 132/132/132 131/131/131 129/129/129
f 135/135/135 134/134/134 133/133/133
f 136/136/136 135/135/135 133/133/133
f 139/139/139 138/138/138 137/137/137
f 140/140/140 139/139/139 137/137/137
f 143/143/143 142/142/142 141/141/141
f 144/144/144 143/143/143 141/141/141
f 147/147/147 146/146/146 145/145/145
f 148/148/148 147/147/147 145/145/145
f 151/151/151 150/150/150 149/149/149
f 152/152/152 151/151/151 149/149/149
f 155/155/155 154/154/154 153/153/153
f 156/156/156 155/155/155 153/153/153
f 159/159/159 158/158/158 157/157/157
f 160/160/160 159/159/159 157/157/157
f 163/163/163 162/162/162 161/161/161
f 164/164/164 163/163/163 161/161/161
f 167/167/167 166/166/166 165/165/165
f 168/168/168 167/167/167 165/165/165
f 171/171/171 170/170/170 169/169/169
f 172/172/172 171/171/171 169/169/169
f 175/175/175 174/174/174 173/173/173
f 176/176/176 175/175/175 173/173/173
f 179/179/179 178/178/178 177/177/177
f 180/180/180 179/179/179 177/177/177
f 183/183/183 182/182/182 181/181/181
f 184/184/184 183/183/183 181/181/181
f 187/187/187 186/186/186 185/185/185
f 188/188/188 187/187/187 185/185/185
f 191/191/191 190/190/190 189/189/189
f 192/192/192 191/191/191 189/189/189
f 195/195/195 194/194/194 193/193/193
f 196/196/196 195/195/195 193/193/193
f 199/199/199 198/198/198 197/197/197
f 200/200/200 199/199/199 197/197/197
f 203/203/203 202/202/202 201/201/201
f 204/204/204 203/203/203 201/201/201
f 207/207/207 206/206/206 205/205/205
f 208/208/208 207/207/207 205/205/205
f 211/211/211 210/210/210 209/209/209
f 212/212/212 211/211/211 209/209/209
f 215/215/215 214/214/214 213/213/213
f 216/216/216 215/215/215 213/213/213
f 219/219/219 218/218/218 217/217/217
f 220/220/220 219/219/219 217/217/217
f 223/223/223 222/222/222 221/221/221
f 224/224/224 223/223/223 221/221/221
