g wrench
v 0.0005143914 -0.0001374726 0.001977035
v 0.000502914 -0.0001374719 0.001828764
v 0.0001627585 -0.000137516 0.001912448
v 0.0002859658 -0.0001375014 0.001950461
v 0.0003791851 -0.0001374958 0.002348587
v 0.0004447839 -0.0001374849 0.002309001
v 2.26561E-05 -0.0001375338 0.001920753
v -0.0004353691 -0.0001374908 0.00182579
v 0.0004404875 -0.0001374707 0.001689357
v -0.0002809032 -0.0001375195 0.001663044
v -9.385852E-05 -0.000137502 0.001607534
v 0.0002009651 -0.0001374802 0.001586956
v -0.0004763134 -0.000137481 0.002020941
v -0.0001232013 -0.0001375586 0.001971865
v -0.0002146219 -0.0001375709 0.00207196
v -0.0004116305 -0.0001374744 0.002178663
v -0.0001194464 -0.000137599 0.002481984
v -0.0002880781 -0.0001374498 0.002358052
v -0.0001731606 -0.0001374386 0.002486579
v -0.0002202208 -0.0001375323 0.001518531
v 0.0002650929 -0.0001374656 0.001474416
v -0.0002033674 -0.0001375334 0.00143702
v 0.0002287966 -0.0001374643 0.001376142
v -0.0002287968 -0.0001374643 -0.001376142
v 0.0002033672 -0.0001375334 -0.00143702
v -0.0002650932 -0.0001374656 -0.001474416
v 0.0002202206 -0.0001375323 -0.001518531
v -0.0002009654 -0.0001374802 -0.001586956
v 9.385827E-05 -0.0001375019 -0.001607534
v 0.000280903 -0.0001375194 -0.001663044
v -0.0004404878 -0.0001374707 -0.001689357
v 0.0004353689 -0.0001374908 -0.00182579
v -0.0005029142 -0.0001374718 -0.001828764
v -0.0001627588 -0.000137516 -0.001912448
v -2.265639E-05 -0.0001375338 -0.001920753
v 0.000123201 -0.0001375586 -0.001971865
v 0.0004763131 -0.000137481 -0.002020941
v 0.0002146216 -0.0001375709 -0.00207196
v 0.0004116301 -0.0001374744 -0.002178663
v 0.0002880777 -0.0001374498 -0.002358052
v 0.0001194461 -0.000137599 -0.002481984
v 0.0001731602 -0.0001374386 -0.002486579
v -0.0002859661 -0.0001375014 -0.001950461
v -0.0005143918 -0.0001374726 -0.001977035
v -0.0004447843 -0.0001374849 -0.002309001
v -0.0003791855 -0.0001374958 -0.002348587
v -9.38712E-05 -6.245234E-08 0.001607531
v 0.0002009524 -4.072718E-08 0.001586962
v 0.0004404797 -3.121758E-08 0.001689363
v -0.0002809023 -7.995605E-08 0.001663046
v -0.0004353458 -5.133871E-08 0.001825788
v 0.0005028999 -3.234484E-08 0.001828771
v 2.26406E-05 -9.42804E-08 0.001920779
v -0.0004762704 -4.151673E-08 0.00202094
v 0.0001627446 -7.652055E-08 0.001912465
v -0.0001231908 -1.191234E-07 0.001971887
v -0.0002145796 -1.314595E-07 0.002071986
v -0.0004116764 -3.491768E-08 0.002178676
v -0.0001191974 -1.598531E-07 0.002481779
v -0.0002878535 -1.055419E-08 0.002357906
v -0.0001727801 -1.086764E-10 0.002486226
v 0.0005143739 -3.311366E-08 0.001977037
v 0.0002859483 -6.194842E-08 0.001950463
v 0.000379164 -5.634742E-08 0.00234859
v 0.0004447638 -4.541981E-08 0.002309004
v -0.0002202449 -9.281079E-08 0.001518519
v 0.0002650782 -2.614909E-08 0.001474425
v -0.0002033865 -9.389452E-08 0.001437017
v 0.0002287758 -2.478705E-08 0.001376146
v -0.000228776 -2.478705E-08 -0.001376146
v 0.0002033863 -9.389452E-08 -0.001437017
v -0.0002650785 -2.614909E-08 -0.001474425
v 0.0002202447 -9.281079E-08 -0.001518519
v -0.0002009527 -4.072718E-08 -0.001586962
v 9.387096E-05 -6.245234E-08 -0.001607531
v 0.0002809021 -7.995605E-08 -0.001663046
v -0.0004404799 -3.121758E-08 -0.001689363
v 0.0004353455 -5.133871E-08 -0.001825788
v -0.0005029002 -3.234484E-08 -0.001828771
v -0.0001627449 -7.652054E-08 -0.001912465
v -0.0002859487 -6.194842E-08 -0.001950463
v -0.0005143742 -3.311366E-08 -0.001977037
v -0.0004447642 -4.541981E-08 -0.002309004
v -0.0003791644 -5.634742E-08 -0.00234859
v -2.264088E-05 -9.428041E-08 -0.001920779
v 0.0001231904 -1.191234E-07 -0.001971887
v 0.0004762701 -4.151673E-08 -0.00202094
v 0.0002145793 -1.314595E-07 -0.002071986
v 0.0004116761 -3.491768E-08 -0.002178676
v 0.0002878531 -1.055419E-08 -0.002357906
v 0.0001191971 -1.598531E-07 -0.002481779
v 0.0001727797 -1.086764E-10 -0.002486226
v -0.0001731606 -0.0001374386 0.002486579
v -0.0001727801 -1.086764E-10 0.002486226
v -0.0001191974 -1.598531E-07 0.002481779
v -0.0001194464 -0.000137599 0.002481984
v -0.0002880781 -0.0001374498 0.002358052
v -0.0002878535 -1.055419E-08 0.002357906
v -0.0004116305 -0.0001374744 0.002178663
v -0.0004116764 -3.491768E-08 0.002178676
v -0.0004763134 -0.000137481 0.002020941
v -0.0004762704 -4.151673E-08 0.00202094
v -0.0004353691 -0.0001374908 0.00182579
v -0.0004353458 -5.133871E-08 0.001825788
v -0.0002809032 -0.0001375195 0.001663044
v -0.0002809023 -7.995605E-08 0.001663046
v -0.0002202208 -0.0001375323 0.001518531
v -0.0002202449 -9.281079E-08 0.001518519
v -0.0002033674 -0.0001375334 0.00143702
v -0.0002033865 -9.389452E-08 0.001437017
v -0.000228776 -2.478705E-08 -0.001376146
v -0.0002287968 -0.0001374643 -0.001376142
v -0.0002650932 -0.0001374656 -0.001474416
v -0.0002650785 -2.614909E-08 -0.001474425
v -0.0004404878 -0.0001374707 -0.001689357
v -0.0004404799 -3.121758E-08 -0.001689363
v -0.0005029142 -0.0001374718 -0.001828764
v -0.0005029002 -3.234484E-08 -0.001828771
v -0.0005143918 -0.0001374726 -0.001977035
v -0.0005143742 -3.311366E-08 -0.001977037
v -0.0004447843 -0.0001374849 -0.002309001
v -0.0004447642 -4.541981E-08 -0.002309004
v -0.0003791855 -0.0001374958 -0.002348587
v -0.0003791644 -5.634742E-08 -0.00234859
v -0.0001194464 -0.000137599 0.002481984
v -0.0001191974 -1.598531E-07 0.002481779
v -0.0002145796 -1.314595E-07 0.002071986
v -0.0002146219 -0.0001375709 0.00207196
v -0.0001231908 -1.191234E-07 0.001971887
v -0.0001232013 -0.0001375586 0.001971865
v 2.26406E-05 -9.42804E-08 0.001920779
v 2.26561E-05 -0.0001375338 0.001920753
v 0.0001627446 -7.652055E-08 0.001912465
v 0.0001627585 -0.000137516 0.001912448
v 0.0002859483 -6.194842E-08 0.001950463
v 0.0002859658 -0.0001375014 0.001950461
v 0.000379164 -5.634742E-08 0.00234859
v 0.0003791851 -0.0001374958 0.002348587
v 0.000502914 -0.0001374719 0.001828764
v 0.0005028999 -3.234484E-08 0.001828771
v 0.0004404797 -3.121758E-08 0.001689363
v 0.0004404875 -0.0001374707 0.001689357
v 0.0005143914 -0.0001374726 0.001977035
v 0.0005143739 -3.311366E-08 0.001977037
v 0.0004447839 -0.0001374849 0.002309001
v 0.0004447638 -4.541981E-08 0.002309004
v 0.0003791851 -0.0001374958 0.002348587
v 0.000379164 -5.634742E-08 0.00234859
v 0.0002650782 -2.614909E-08 0.001474425
v 0.0002650929 -0.0001374656 0.001474416
v 0.0002287758 -2.478705E-08 0.001376146
v 0.0002287966 -0.0001374643 0.001376142
v 0.0002033863 -9.389452E-08 -0.001437017
v 0.0002033672 -0.0001375334 -0.00143702
v 0.0002202447 -9.281079E-08 -0.001518519
v 0.0002202206 -0.0001375323 -0.001518531
v 0.0002809021 -7.995605E-08 -0.001663046
v 0.000280903 -0.0001375194 -0.001663044
v 0.0004353455 -5.133871E-08 -0.001825788
v 0.0004353689 -0.0001374908 -0.00182579
v 0.0004762701 -4.151673E-08 -0.00202094
v 0.0004763131 -0.000137481 -0.002020941
v 0.0004116761 -3.491768E-08 -0.002178676
v 0.0004116301 -0.0001374744 -0.002178663
v 0.0002878531 -1.055419E-08 -0.002357906
v 0.0002880777 -0.0001374498 -0.002358052
v 0.0001727797 -1.086764E-10 -0.002486226
v 0.0001731602 -0.0001374386 -0.002486579
v 0.0001191971 -1.598531E-07 -0.002481779
v 0.0001194461 -0.000137599 -0.002481984
v 0.0001194461 -0.000137599 -0.002481984
v 0.0001191971 -1.598531E-07 -0.002481779
v 0.0002145793 -1.314595E-07 -0.002071986
v 0.0002146216 -0.0001375709 -0.00207196
v 0.0001231904 -1.191234E-07 -0.001971887
v 0.000123201 -0.0001375586 -0.001971865
v -2.264088E-05 -9.428041E-08 -0.001920779
v -2.265639E-05 -0.0001375338 -0.001920753
v -0.0001627449 -7.652054E-08 -0.001912465
v -0.0001627588 -0.000137516 -0.001912448
v -0.0002859487 -6.194842E-08 -0.001950463
v -0.0002859661 -0.0001375014 -0.001950461
v -0.0003791644 -5.634742E-08 -0.00234859
v -0.0003791855 -0.0001374958 -0.002348587
vt 0.69756 0.3695571
vt 0.6981004 0.3755185
vt 0.7159556 0.372343
vt 0.7095165 0.3707492
vt 0.704796 0.3547084
vt 0.7013429 0.3562625
vt 0.723299 0.372086
vt 0.7472562 0.37615
vt 0.7013138 0.3811515
vt 0.7390968 0.3826022
vt 0.7292748 0.3847294
vt 0.7138205 0.385395
vt 0.7494813 0.3683346
vt 0.7309616 0.3701129
vt 0.7357919 0.3661427
vt 0.7461572 0.3619647
vt 0.730974 0.3496232
vt 0.7397578 0.3546925
vt 0.7337901 0.3494678
vt 0.7358584 0.3883731
vt 0.7104145 0.3898799
vt 0.7349419 0.3916375
vt 0.7122759 0.3938467
vt 0.73512 0.5046358
vt 0.7124539 0.506845
vt 0.7369812 0.5086027
vt 0.7115372 0.5101096
vt 0.7335753 0.5130876
vt 0.7181209 0.5137531
vt 0.7082989 0.5158803
vt 0.7460819 0.5173311
vt 0.7001396 0.5223325
vt 0.7492952 0.5229642
vt 0.7314402 0.5261393
vt 0.7240968 0.5263964
vt 0.7164342 0.5283698
vt 0.6979145 0.5301479
vt 0.7116038 0.5323398
vt 0.7012386 0.5365176
vt 0.7076378 0.54379
vt 0.7164215 0.5488595
vt 0.7136057 0.5490148
vt 0.7378795 0.5277333
vt 0.7498357 0.5289254
vt 0.7460529 0.5422202
vt 0.7425998 0.5437743
vt 0.7292754 0.3847295
vt 0.7138211 0.3853946
vt 0.7013142 0.3811512
vt 0.7390968 0.382602
vt 0.7472548 0.3761502
vt 0.6981012 0.3755181
vt 0.7232998 0.372085
vt 0.7494791 0.3683347
vt 0.7159564 0.3723424
vt 0.730961 0.3701119
vt 0.7357899 0.3661417
vt 0.7461596 0.3619642
vt 0.7309611 0.3496312
vt 0.739746 0.3546983
vt 0.73377 0.3494819
vt 0.6975609 0.3695571
vt 0.7095173 0.370749
vt 0.7047971 0.3547083
vt 0.701344 0.3562624
vt 0.7358596 0.3883735
vt 0.7104154 0.3898795
vt 0.7349429 0.3916377
vt 0.7122769 0.3938465
vt 0.7351189 0.504636
vt 0.7124528 0.5068449
vt 0.7369804 0.508603
vt 0.711536 0.510109
vt 0.7335746 0.5130877
vt 0.7181203 0.5137531
vt 0.7082989 0.5158803
vt 0.7460815 0.5173312
vt 0.7001408 0.5223325
vt 0.7492946 0.5229644
vt 0.7314393 0.52614
vt 0.7378786 0.5277336
vt 0.7498348 0.5289254
vt 0.7460517 0.5422202
vt 0.7425987 0.5437745
vt 0.7240959 0.5263976
vt 0.7164348 0.5283706
vt 0.6979167 0.5301479
vt 0.7116058 0.5323409
vt 0.7012361 0.5365183
vt 0.7076497 0.5437844
vt 0.7164348 0.5488513
vt 0.7136257 0.5490009
vt 0.6869324 0.3677537
vt 0.6917026 0.3677664
vt 0.6917076 0.3658818
vt 0.6869375 0.365864
vt 0.6869167 0.3737992
vt 0.6916869 0.3738061
vt 0.6869112 0.3814372
vt 0.6916816 0.3814391
vt 0.6869109 0.3874133
vt 0.691681 0.3874131
vt 0.6869106 0.3944024
vt 0.6916809 0.3944027
vt 0.6869099 0.4022671
vt 0.6916801 0.4022672
vt 0.6869089 0.4077609
vt 0.6916791 0.4077614
vt 0.6869087 0.4106785
vt 0.6916788 0.4106787
vt 0.6916788 0.5092921
vt 0.6869085 0.5092918
vt 0.6869081 0.5129642
vt 0.6916783 0.5129646
vt 0.6869069 0.5226885
vt 0.691677 0.5226889
vt 0.6869064 0.5280427
vt 0.6916766 0.5280429
vt 0.6869062 0.5332556
vt 0.6916764 0.5332557
vt 0.6869058 0.5451449
vt 0.6916761 0.5451452
vt 0.6869055 0.5478305
vt 0.6916757 0.5478308
vt 0.7058924 0.4024658
vt 0.7011282 0.402472
vt 0.7011309 0.4172014
vt 0.705895 0.4172019
vt 0.7011291 0.4219464
vt 0.7058933 0.4219478
vt 0.7011269 0.4273565
vt 0.705891 0.4273581
vt 0.7011253 0.4322703
vt 0.7058895 0.4322713
vt 0.7011245 0.4367842
vt 0.7058887 0.4367847
vt 0.7011245 0.4510992
vt 0.7058887 0.4510992
vt 0.6774151 0.528072
vt 0.6821916 0.5280722
vt 0.6821921 0.5227112
vt 0.6774157 0.5227107
vt 0.6774148 0.5332917
vt 0.6821913 0.5332917
vt 0.6774145 0.5451966
vt 0.6821908 0.545197
vt 0.6774144 0.5478859
vt 0.6821908 0.547886
vt 0.6821935 0.5129741
vt 0.677417 0.5129737
vt 0.6821941 0.509297
vt 0.6774177 0.5092967
vt 0.6821941 0.410554
vt 0.6774176 0.4105537
vt 0.6821945 0.4076329
vt 0.677418 0.4076325
vt 0.6821955 0.4021315
vt 0.6774191 0.4021315
vt 0.6821963 0.3942566
vt 0.67742 0.3942563
vt 0.6821967 0.3872577
vt 0.6774202 0.3872579
vt 0.6821972 0.3812758
vt 0.6774206 0.381274
vt 0.6822025 0.3736326
vt 0.6774259 0.3736258
vt 0.6822181 0.3675851
vt 0.6774418 0.3675723
vt 0.6822231 0.3656981
vt 0.6774468 0.3656802
vt 0.7055146 0.4550892
vt 0.7007503 0.4550969
vt 0.700758 0.4698267
vt 0.7055222 0.4698251
vt 0.7007587 0.4745716
vt 0.7055229 0.4745709
vt 0.7007585 0.4799814
vt 0.7055226 0.4799815
vt 0.7007582 0.484895
vt 0.7055225 0.4848949
vt 0.7007581 0.4894087
vt 0.7055224 0.4894088
vt 0.7007582 0.5037236
vt 0.7055224 0.5037235
vn -0.0001025875 -1 -8.574208E-06
vn -0.0001025875 -1 -8.574208E-06
vn -0.0001025875 -1 -8.574208E-06
vn -0.0001025875 -1 -8.574209E-06
vn -0.0001025875 -1 -8.574208E-06
vn -0.0001025875 -1 -8.574208E-06
vn -0.0001025875 -1 -8.574208E-06
vn -0.0001025875 -1 -8.574207E-06
vn -7.2593E-05 -1 -2.153384E-05
vn -4.208267E-05 -1 3.059535E-05
vn -2.805172E-05 -1 1.704899E-05
vn -2.584789E-05 -1 -2.355888E-05
vn -0.0001025875 -1 -8.574208E-06
vn -0.0001025875 -1 -8.574208E-06
vn -0.0001025875 -1 -8.574208E-06
vn -0.0001025875 -1 -8.574208E-06
vn -0.0001025875 -1 -8.574209E-06
vn -0.0001025875 -1 -8.574208E-06
vn -0.0001025875 -1 -8.574209E-06
vn 5.564415E-05 -1 5.951491E-05
vn 2.64516E-05 -1 -2.974671E-05
vn 0 -1 0
vn 0 -1 0
vn 0 -1 0
vn 0 -1 0
vn -2.647063E-05 -1 2.976283E-05
vn -5.564265E-05 -1 -5.951559E-05
vn 2.583163E-05 -1 2.357205E-05
vn 2.804912E-05 -1 -1.704696E-05
vn 4.20769E-05 -1 -3.059137E-05
vn 7.257659E-05 -1 2.154643E-05
vn 0.0001025798 -1 8.579537E-06
vn 0.0001025798 -1 8.579537E-06
vn 0.0001025798 -1 8.579537E-06
vn 0.0001025798 -1 8.579537E-06
vn 0.0001025798 -1 8.579537E-06
vn 0.0001025798 -1 8.579537E-06
vn 0.0001025798 -1 8.579537E-06
vn 0.0001025798 -1 8.579537E-06
vn 0.0001025798 -1 8.579537E-06
vn 0.0001025798 -1 8.579538E-06
vn 0.0001025798 -1 8.579538E-06
vn 0.0001025798 -1 8.579537E-06
vn 0.0001025798 -1 8.579537E-06
vn 0.0001025798 -1 8.579537E-06
vn 0.0001025798 -1 8.579536E-06
vn 2.797343E-05 1 -1.696964E-05
vn 2.577224E-05 1 2.364164E-05
vn 7.246292E-05 1 2.16759E-05
vn 4.195154E-05 1 -3.046856E-05
vn 0.0001024451 1 8.730662E-06
vn 0.0001024451 1 8.730662E-06
vn 0.0001024451 1 8.730661E-06
vn 0.0001024451 1 8.730662E-06
vn 0.0001024451 1 8.730662E-06
vn 0.0001024451 1 8.730662E-06
vn 0.0001024451 1 8.730662E-06
vn 0.0001024451 1 8.730662E-06
vn 0.0001024451 1 8.730662E-06
vn 0.0001024451 1 8.730662E-06
vn 0.0001024451 1 8.730662E-06
vn 0.0001024451 1 8.730662E-06
vn 0.0001024451 1 8.730662E-06
vn 0.0001024451 1 8.730662E-06
vn 0.0001024451 1 8.730662E-06
vn -5.566816E-05 1 -5.948828E-05
vn -2.647592E-05 1 2.977177E-05
vn 0 1 0
vn 0 1 0
vn 0 1 0
vn 0 1 0
vn 2.647594E-05 1 -2.97718E-05
vn 5.566816E-05 1 5.948828E-05
vn -2.577225E-05 1 -2.364165E-05
vn -2.797344E-05 1 1.696964E-05
vn -4.195155E-05 1 3.046858E-05
vn -7.246294E-05 1 -2.167591E-05
vn -0.0001024451 1 -8.730659E-06
vn -0.0001024451 1 -8.730659E-06
vn -0.0001024451 1 -8.730658E-06
vn -0.0001024451 1 -8.730658E-06
vn -0.0001024451 1 -8.730658E-06
vn -0.0001024451 1 -8.730658E-06
vn -0.0001024451 1 -8.730658E-06
vn -0.0001024451 1 -8.730658E-06
vn -0.0001024451 1 -8.730658E-06
vn -0.0001024451 1 -8.730658E-06
vn -0.0001024451 1 -8.730658E-06
vn -0.0001024451 1 -8.730658E-06
vn -0.0001024451 1 -8.730659E-06
vn -0.0001024451 1 -8.730658E-06
vn -0.0001024451 1 -8.730658E-06
vn -0.3692591 0.002613172 0.9293228
vn -0.3692589 0.002613172 0.9293229
vn 0.0839801 0.001826347 0.9964657
vn 0.0839801 0.001826347 0.9964657
vn -0.7856436 0.001834715 0.6186767
vn -0.7856307 0.001835052 0.6186929
vn -0.8793078 0.0003942839 0.4762537
vn -0.8793077 0.0003942842 0.4762539
vn -0.9958557 0.0001081977 0.09094714
vn -0.9958534 0.0001081864 0.09097245
vn -0.8855987 0.0001555705 -0.4644513
vn -0.8855986 0.0001555705 -0.4644515
vn -0.8373647 -1.340941E-05 -0.5466447
vn -0.8373497 -1.339746E-05 -0.5466676
vn -0.9551311 -0.0001292334 -0.2961834
vn -0.9551306 -0.0001292328 -0.2961848
vn -0.9952556 -8.002047E-05 -0.09729518
vn -0.9952558 -8.001896E-05 -0.09729331
vn -0.9835873 7.357059E-05 0.1804329
vn -0.9835877 7.35696E-05 0.1804304
vn -0.8682506 0.0001200713 0.4961259
vn -0.8682516 0.0001200715 0.4961241
vn -0.851099 9.536884E-05 0.5250053
vn -0.8510984 9.536886E-05 0.5250064
vn -0.9691285 0.0001055125 0.246556
vn -0.9691294 0.0001055127 0.2465528
vn -0.9979062 0.000125268 -0.0646783
vn -0.9979062 0.000125268 -0.06467815
vn -0.8154649 0.0001037951 -0.5788065
vn -0.815464 0.000103795 -0.5788078
vn -0.5166703 5.934181E-05 -0.8561844
vn -0.5166703 5.934181E-05 -0.8561844
vn 0.9740329 -0.001179328 -0.2264035
vn 0.9740329 -0.001179328 -0.2264035
vn 0.9674546 -0.0008127358 0.2530433
vn 0.9674526 -0.0008127278 0.253051
vn 0.551278 -0.0002158478 0.8343216
vn 0.5513052 -0.0002158545 0.8343036
vn 0.1968606 -0.0001548314 0.9804314
vn 0.1968601 -0.0001548314 0.9804316
vn -0.1197014 -0.0001251757 0.99281
vn -0.1196935 -0.0001251768 0.9928108
vn -0.7311493 -0.0001384653 0.6822174
vn -0.7311499 -0.0001384653 0.6822169
vn -0.9736671 -0.0001412125 0.2279746
vn -0.9736671 -0.0001412125 0.2279746
vn 0.9691286 0.0001054436 -0.2465558
vn 0.9691294 0.0001054438 -0.2465527
vn 0.8510984 9.537368E-05 -0.5250064
vn 0.851099 9.537365E-05 -0.5250052
vn 0.9979061 0.0001251324 0.06467856
vn 0.9979061 0.0001251324 0.06467842
vn 0.8154648 0.0001037228 0.5788066
vn 0.815464 0.0001037226 0.5788078
vn 0.5166703 5.934181E-05 0.8561844
vn 0.5166703 5.934181E-05 0.8561844
vn 0.8682517 0.0001200764 -0.496124
vn 0.8682507 0.0001200761 -0.4961258
vn 0.9835873 7.357058E-05 -0.1804327
vn 0.9835878 7.356962E-05 -0.1804302
vn 0.9952558 -8.001896E-05 0.0972932
vn 0.9952556 -8.002046E-05 0.09729507
vn 0.9551308 -0.0001292349 0.2961845
vn 0.9551312 -0.0001292355 0.2961832
vn 0.8373498 -1.339961E-05 0.5466675
vn 0.8373647 -1.341156E-05 0.5466446
vn 0.8855986 0.0001555705 0.4644513
vn 0.8855987 0.0001555705 0.4644513
vn 0.9958534 0.0001081884 -0.09097258
vn 0.9958557 0.0001081997 -0.09094732
vn 0.8793077 0.0003942831 -0.476254
vn 0.8793077 0.0003942828 -0.4762539
vn 0.7856306 0.001835049 -0.618693
vn 0.7856436 0.001834711 -0.6186767
vn 0.3692589 0.002613174 -0.9293229
vn 0.3692591 0.002613174 -0.9293228
vn -0.08398011 0.00182635 -0.9964657
vn -0.08398011 0.00182635 -0.9964657
vn -0.9740328 -0.001179303 0.2264037
vn -0.9740328 -0.001179303 0.2264037
vn -0.9674546 -0.0008127217 -0.2530431
vn -0.9674526 -0.000812714 -0.2530508
vn -0.551278 -0.0002158412 -0.8343216
vn -0.5513054 -0.0002158479 -0.8343036
vn -0.1968606 -0.0001548252 -0.9804314
vn -0.1968601 -0.0001548252 -0.9804316
vn 0.1197014 -0.0001251656 -0.99281
vn 0.1196935 -0.0001251667 -0.9928108
vn 0.7311493 -0.0001384199 -0.6822174
vn 0.7311497 -0.0001384199 -0.682217
vn 0.973667 -0.0001411542 -0.2279748
vn 0.973667 -0.0001411542 -0.2279748
f 3/3/3 2/2/2 1/1/1
f 1/1/1 4/4/4 3/3/3
f 1/1/1 5/5/5 4/4/4
f 1/1/1 6/6/6 5/5/5
f 2/2/2 3/3/3 7/7/7
f 2/2/2 7/7/7 8/8/8
f 9/9/9 2/2/2 8/8/8
f 9/9/9 8/8/8 10/10/10
f 9/9/9 10/10/10 11/11/11
f 11/11/11 12/12/12 9/9/9
f 7/7/7 13/13/13 8/8/8
f 7/7/7 14/14/14 13/13/13
f 14/14/14 15/15/15 13/13/13
f 15/15/15 16/16/16 13/13/13
f 15/15/15 17/17/17 16/16/16
f 17/17/17 18/18/18 16/16/16
f 17/17/17 19/19/19 18/18/18
f 20/20/20 11/11/11 10/10/10
f 12/12/12 11/11/11 20/20/20
f 21/21/21 12/12/12 20/20/20
f 9/9/9 12/12/12 21/21/21
f 21/21/21 20/20/20 22/22/22
f 23/23/23 21/21/21 22/22/22
f 23/23/23 22/22/22 24/24/24
f 25/25/25 23/23/23 24/24/24
f 25/25/25 24/24/24 26/26/26
f 27/27/27 25/25/25 26/26/26
f 27/27/27 26/26/26 28/28/28
f 28/28/28 29/29/29 27/27/27
f 30/30/30 29/29/29 28/28/28
f 27/27/27 29/29/29 30/30/30
f 30/30/30 28/28/28 31/31/31
f 31/31/31 28/28/28 26/26/26
f 32/32/32 30/30/30 31/31/31
f 32/32/32 31/31/31 33/33/33
f 32/32/32 33/33/33 34/34/34
f 32/32/32 34/34/34 35/35/35
f 32/32/32 35/35/35 36/36/36
f 37/37/37 32/32/32 36/36/36
f 37/37/37 36/36/36 38/38/38
f 39/39/39 37/37/37 38/38/38
f 40/40/40 39/39/39 38/38/38
f 40/40/40 38/38/38 41/41/41
f 41/41/41 42/42/42 40/40/40
f 43/43/43 34/34/34 33/33/33
f 43/43/43 33/33/33 44/44/44
f 43/43/43 44/44/44 45/45/45
f 45/45/45 46/46/46 43/43/43
f 49/49/49 48/48/48 47/47/47
f 47/47/47 50/50/50 49/49/49
f 50/50/50 51/51/51 49/49/49
f 51/51/51 52/52/52 49/49/49
f 51/51/51 53/53/53 52/52/52
f 51/51/51 54/54/54 53/53/53
f 53/53/53 55/55/55 52/52/52
f 54/54/54 56/56/56 53/53/53
f 54/54/54 57/57/57 56/56/56
f 54/54/54 58/58/58 57/57/57
f 58/58/58 59/59/59 57/57/57
f 58/58/58 60/60/60 59/59/59
f 60/60/60 61/61/61 59/59/59
f 62/62/62 52/52/52 55/55/55
f 55/55/55 63/63/63 62/62/62
f 63/63/63 64/64/64 62/62/62
f 64/64/64 65/65/65 62/62/62
f 66/66/66 50/50/50 47/47/47
f 66/66/66 47/47/47 48/48/48
f 66/66/66 48/48/48 67/67/67
f 68/68/68 66/66/66 67/67/67
f 68/68/68 67/67/67 69/69/69
f 70/70/70 68/68/68 69/69/69
f 70/70/70 69/69/69 71/71/71
f 72/72/72 70/70/70 71/71/71
f 72/72/72 71/71/71 73/73/73
f 74/74/74 72/72/72 73/73/73
f 73/73/73 75/75/75 74/74/74
f 49/49/49 67/67/67 48/48/48
f 74/74/74 75/75/75 76/76/76
f 73/73/73 76/76/76 75/75/75
f 77/77/77 74/74/74 76/76/76
f 77/77/77 72/72/72 74/74/74
f 77/77/77 76/76/76 78/78/78
f 79/79/79 77/77/77 78/78/78
f 80/80/80 79/79/79 78/78/78
f 79/79/79 80/80/80 81/81/81
f 82/82/82 79/79/79 81/81/81
f 83/83/83 82/82/82 81/81/81
f 81/81/81 84/84/84 83/83/83
f 85/85/85 80/80/80 78/78/78
f 86/86/86 85/85/85 78/78/78
f 86/86/86 78/78/78 87/87/87
f 88/88/88 86/86/86 87/87/87
f 88/88/88 87/87/87 89/89/89
f 88/88/88 89/89/89 90/90/90
f 91/91/91 88/88/88 90/90/90
f 90/90/90 92/92/92 91/91/91
f 95/95/95 94/94/94 93/93/93
f 96/96/96 95/95/95 93/93/93
f 93/93/93 94/94/94 97/97/97
f 94/94/94 98/98/98 97/97/97
f 97/97/97 98/98/98 99/99/99
f 98/98/98 100/100/100 99/99/99
f 99/99/99 100/100/100 101/101/101
f 100/100/100 102/102/102 101/101/101
f 101/101/101 102/102/102 103/103/103
f 102/102/102 104/104/104 103/103/103
f 103/103/103 104/104/104 105/105/105
f 104/104/104 106/106/106 105/105/105
f 105/105/105 106/106/106 107/107/107
f 106/106/106 108/108/108 107/107/107
f 107/107/107 108/108/108 109/109/109
f 108/108/108 110/110/110 109/109/109
f 110/110/110 111/111/111 109/109/109
f 111/111/111 112/112/112 109/109/109
f 112/112/112 111/111/111 113/113/113
f 111/111/111 114/114/114 113/113/113
f 113/113/113 114/114/114 115/115/115
f 114/114/114 116/116/116 115/115/115
f 115/115/115 116/116/116 117/117/117
f 116/116/116 118/118/118 117/117/117
f 117/117/117 118/118/118 119/119/119
f 118/118/118 120/120/120 119/119/119
f 119/119/119 120/120/120 121/121/121
f 120/120/120 122/122/122 121/121/121
f 121/121/121 122/122/122 123/123/123
f 122/122/122 124/124/124 123/123/123
f 127/127/127 126/126/126 125/125/125
f 128/128/128 127/127/127 125/125/125
f 129/129/129 127/127/127 128/128/128
f 130/130/130 129/129/129 128/128/128
f 131/131/131 129/129/129 130/130/130
f 132/132/132 131/131/131 130/130/130
f 133/133/133 131/131/131 132/132/132
f 134/134/134 133/133/133 132/132/132
f 135/135/135 133/133/133 134/134/134
f 136/136/136 135/135/135 134/134/134
f 137/137/137 135/135/135 136/136/136
f 138/138/138 137/137/137 136/136/136
f 141/141/141 140/140/140 139/139/139
f 142/142/142 141/141/141 139/139/139
f 139/139/139 140/140/140 143/143/143
f 140/140/140 144/144/144 143/143/143
f 143/143/143 144/144/144 145/145/145
f 144/144/144 146/146/146 145/145/145
f 145/145/145 146/146/146 147/147/147
f 146/146/146 148/148/148 147/147/147
f 149/149/149 141/141/141 142/142/142
f 150/150/150 149/149/149 142/142/142
f 151/151/151 149/149/149 150/150/150
f 152/152/152 151/151/151 150/150/150
f 153/153/153 151/151/151 152/152/152
f 154/154/154 153/153/153 152/152/152
f 155/155/155 153/153/153 154/154/154
f 156/156/156 155/155/155 154/154/154
f 157/157/157 155/155/155 156/156/156
f 158/158/158 157/157/157 156/156/156
f 159/159/159 157/157/157 158/158/158
f 160/160/160 159/159/159 158/158/158
f 161/161/161 159/159/159 160/160/160
f 162/162/162 161/161/161 160/160/160
f 163/163/163 161/161/161 162/162/162
f 164/164/164 163/163/163 162/162/162
f 165/165/165 163/163/163 164/164/164
f 166/166/166 165/165/165 164/164/164
f 167/167/167 165/165/165 166/166/166
f 168/168/168 167/167/167 166/166/166
f 169/169/169 167/167/167 168/168/168
f 170/170/170 169/169/169 168/168/168
f 173/173/173 172/172/172 171/171/171
f 174/174/174 173/173/173 171/171/171
f 175/175/175 173/173/173 174/174/174
f 176/176/176 175/175/175 174/174/174
f 177/177/177 175/175/175 176/176/176
f 178/178/178 177/177/177 176/176/176
f 179/179/179 177/177/177 178/178/178
f 180/180/180 179/179/179 178/178/178
f 181/181/181 179/179/179 180/180/180
f 182/182/182 181/181/181 180/180/180
f 183/183/183 181/181/181 182/182/182
f 184/184/184 183/183/183 182/182/182
